<svg width="48" height="32" viewBox="0 0 48 32" fill="none" xmlns="http://www.w3.org/2000/svg">
<rect width="48" height="32" rx="2" fill="#BCC8E0" fill-opacity="0.12"/>
<path d="M28.3263 24.3321H19.6738V8.78223H28.3265L28.3263 24.3321Z" fill="#FF5F00"/>
<path d="M20.2223 16.5559C20.2223 13.4016 21.6992 10.5917 23.9991 8.78094C22.2582 7.40825 20.105 6.66324 17.8881 6.66651C12.4269 6.66651 8 11.0941 8 16.5559C8 22.0177 12.4269 26.4452 17.8881 26.4452C20.1051 26.4485 22.2583 25.7035 23.9992 24.3308C21.6995 22.5203 20.2223 19.7103 20.2223 16.5559Z" fill="#EB001B"/>
<path d="M40.0001 16.5573C40.0001 22.0191 35.5732 26.4467 30.112 26.4467C27.8947 26.4499 25.7412 25.7049 24 24.3323C26.3005 22.5215 27.7774 19.7118 27.7774 16.5573C27.7774 13.4029 26.3005 10.5932 24 8.78241C25.7412 7.40975 27.8946 6.66476 30.1118 6.66798C35.573 6.66798 39.9999 11.0955 39.9999 16.5573" fill="#F79E1B"/>
</svg>
