<?xml version="1.0" encoding="UTF-8"?>
<svg width="28px" height="28px" viewBox="0 0 28 28" version="1.1" xmlns="http://www.w3.org/2000/svg" xmlns:xlink="http://www.w3.org/1999/xlink">
    <!-- Generator: Sketch 61 (89581) - https://sketch.com -->
    <title>Dashed circle</title>
    <desc>Created with Sketch.</desc>
    <g id="资产" stroke="none" stroke-width="1" fill="none" fillRule="evenodd">
        <g id="资产概览" transform="translate(-124.000000, -261.000000)">
            <g id="编组-12" transform="translate(124.000000, 248.000000)">
                <g id="Dashed-circle" transform="translate(0.000000, 13.000000)">
                    <path d="M14,0 C19,0 23.62,2.67 26.12,7 C28.62,11.33 28.62,16.67 26.12,21 C23.62,25.33 19,28 14,28 C9,28 4.38,25.33 1.88,21 C-0.62,16.67 -0.62,11.33 1.88,7 C4.38,2.67 9,0 14,0 L14,6 C11.14,6 8.5,7.52 7.07,10 C5.64,12.48 5.64,15.52 7.07,18 C8.5,20.48 11.14,22 14,22 C16.86,22 19.5,20.48 20.93,18 C22.36,15.52 22.36,12.48 20.93,10 C19.5,7.52 16.86,6 14,6 L14,0 Z" id="Base-plate" fill-opacity="0.002" fill="#455A64"></path>
                    <path d="M14,0 C19,0 23.62,2.67 26.12,7 C26.26,7.25 26.4,7.5 26.53,7.76 L21.16,10.43 C19.89,7.87 17.34,6.2 14.49,6.02 C14.33,6.01 14.16,6 14,6 L14,0 Z" id="Dash-0" fill="#63A9F0" fillRule="nonzero"></path>
                    <path d="M27.31,9.67 C28.86,14.43 27.75,19.65 24.4,23.37 C24.21,23.58 24.02,23.79 23.81,23.99 L19.6,19.71 C21.64,17.71 22.46,14.77 21.75,12 C21.71,11.84 21.66,11.69 21.61,11.53 L27.31,9.67 Z" id="Dash-1" fill="#475EAD" fillRule="nonzero"></path>
                    <path d="M22.23,25.33 C18.18,28.27 12.88,28.82 8.31,26.79 C8.05,26.67 7.78,26.54 7.53,26.41 L10.3,21.09 C12.83,22.41 15.88,22.28 18.29,20.75 C18.43,20.66 18.57,20.57 18.7,20.47 L22.23,25.33 Z" id="Dash-2" fill="#CBDFF0"></path>
                    <path d="M5.77,25.33 C1.72,22.39 -0.44,17.51 0.08,12.54 C0.11,12.25 0.14,11.96 0.19,11.68 L6.11,12.68 C5.64,15.5 6.71,18.35 8.91,20.17 C9.04,20.27 9.17,20.37 9.3,20.47 L5.77,25.33 Z" id="Dash-3" fill="#90AEC9"></path>
                    <path d="M0.69,9.67 C2.24,4.91 6.2,1.35 11.09,0.31 C11.37,0.25 11.66,0.19 11.94,0.15 L12.82,6.09 C9.99,6.51 7.61,8.4 6.56,11.06 C6.5,11.21 6.44,11.37 6.39,11.53 L0.69,9.67 Z" id="Dash-4" fill="#33C6AA" fillRule="nonzero"></path>
                </g>
            </g>
        </g>
    </g>
</svg>