<svg xmlns="http://www.w3.org/2000/svg" width="64" height="64"><path d="M10.5 3C9.678 3 9 3.678 9 4.5V5H5.7C4.74 5 4 5.84 4 6.813v18.375C4 26.16 4.74 27 5.7 27h21.6c.96 0 1.7-.84 1.7-1.813V6.813C29 5.84 28.26 5 27.3 5H24v-.5c0-.822-.678-1.5-1.5-1.5S21 3.678 21 4.5V5h-9v-.5c0-.822-.678-1.5-1.5-1.5zm0 1c.286 0 .5.214.5.5v3c0 .286-.214.5-.5.5a.488.488 0 0 1-.5-.5v-3c0-.286.214-.5.5-.5zm12 0c.286 0 .5.214.5.5v3c0 .286-.214.5-.5.5a.488.488 0 0 1-.5-.5v-3c0-.286.214-.5.5-.5zM5.7 6H9v1.5c0 .822.678 1.5 1.5 1.5S12 8.322 12 7.5V6h9v1.5c0 .822.678 1.5 1.5 1.5S24 8.322 24 7.5V6h3.3c.372 0 .7.33.7.813v18.375c0 .482-.328.812-.7.812H5.7c-.372 0-.7-.33-.7-.813V6.813C5 6.33 5.328 6 5.7 6zm11.8 5a.5.5 0 0 0-.5.5v3a.5.5 0 0 0 .5.5h3a.5.5 0 0 0 .5-.5v-3a.5.5 0 0 0-.5-.5h-3zm5 0a.5.5 0 0 0-.5.5v3a.5.5 0 0 0 .5.5h3a.5.5 0 0 0 .5-.5v-3a.5.5 0 0 0-.5-.5h-3zM18 12h2v2h-2v-2zm5 0h2v2h-2v-2zM7.5 16a.5.5 0 0 0-.5.5v3a.5.5 0 0 0 .5.5h3a.5.5 0 0 0 .5-.5v-3a.5.5 0 0 0-.5-.5h-3zm5 0a.5.5 0 0 0-.5.5v3a.5.5 0 0 0 .5.5h3a.5.5 0 0 0 .5-.5v-3a.5.5 0 0 0-.5-.5h-3zm5 0a.5.5 0 0 0-.5.5v3a.5.5 0 0 0 .5.5h3a.5.5 0 0 0 .5-.5v-3a.5.5 0 0 0-.5-.5h-3zm5 0a.5.5 0 0 0-.5.5v3a.5.5 0 0 0 .5.5h3a.5.5 0 0 0 .5-.5v-3a.5.5 0 0 0-.5-.5h-3zM8 17h2v2H8v-2zm5 0h2v2h-2v-2zm5 0h2v2h-2v-2zm5 0h2v2h-2v-2zM7.5 21a.5.5 0 0 0-.5.5v3a.5.5 0 0 0 .5.5h3a.5.5 0 0 0 .5-.5v-3a.5.5 0 0 0-.5-.5h-3zm5 0a.5.5 0 0 0-.5.5v3a.5.5 0 0 0 .5.5h3a.5.5 0 0 0 .5-.5v-3a.5.5 0 0 0-.5-.5h-3zm5 0a.5.5 0 0 0-.5.5v3a.5.5 0 0 0 .5.5h3a.5.5 0 0 0 .5-.5v-3a.5.5 0 0 0-.5-.5h-3zM8 22h2v2H8v-2zm5 0h2v2h-2v-2zm5 0h2v2h-2v-2z" color="#000" font-family="sans-serif" font-weight="400" overflow="visible" style="line-height:normal;text-indent:0;text-align:start;text-decoration-line:none;text-decoration-style:solid;text-decoration-color:#000;text-transform:none;block-progression:tb;white-space:normal;isolation:auto;mix-blend-mode:normal;solid-color:#000;solid-opacity:1"/></svg>