<svg width="72" height="72" viewBox="0 0 72 72" fill="none" xmlns="http://www.w3.org/2000/svg">
<rect width="72" height="72" fill="white"/>
<path fillRule="evenodd" clip-rule="evenodd" d="M63.0054 47.5103H58.5015V52.4037H53.71V56.9015H58.5015V61.5972H63.0054V56.9015H67.7969V52.4037H63.0054V47.5103Z" fill="#2DBD96"/>
<path fillRule="evenodd" clip-rule="evenodd" d="M63 12V43.5H58.5V16.5H13.5V52.5H18V57L24 52.5H49.5V57H25.4992L13.5 66V57H9V12H63Z" fill="#00142A"/>
<path fillRule="evenodd" clip-rule="evenodd" d="M28.5 20.9999C24.3579 20.9999 21 24.3577 21 28.4999C21 32.642 24.3579 35.9999 28.5 35.9999C32.6421 35.9999 36 32.642 36 28.4999C36 24.3577 32.6421 20.9999 28.5 20.9999ZM28.5 25.9999C29.8807 25.9999 31 27.1192 31 28.4999C31 29.8806 29.8807 30.9999 28.5 30.9999C27.1193 30.9999 26 29.8806 26 28.4999C26 27.1192 27.1193 25.9999 28.5 25.9999Z" fill="#2DBD96"/>
<path fillRule="evenodd" clip-rule="evenodd" d="M40.9799 40.1738C45.606 40.1738 49.2563 44.1804 49.4799 49.0875L49.4908 49.5651V54.2608H44.7951V49.5651C44.7951 47.0401 43.186 45.0748 41.2827 44.8846L40.9799 44.8695L17.5109 44.8695C15.5803 44.8695 13.8746 46.7086 13.7088 49.1713L13.6957 49.5652V54.2608H9V49.5652C9 44.6031 12.5057 40.4415 17.0663 40.1863L17.5109 40.1739L40.9799 40.1738Z" fill="#00142A"/>
</svg>
