<?xml version="1.0" encoding="UTF-8"?>
<svg width="100px" height="100px" viewBox="0 0 100 100" version="1.1" xmlns="http://www.w3.org/2000/svg" xmlns:xlink="http://www.w3.org/1999/xlink">
    <!-- Generator: Sketch 52.2 (67145) - http://www.bohemiancoding.com/sketch -->
    <title>customer</title>
    <desc>Created with Sketch.</desc>
    <g id="customer" stroke="none" stroke-width="1" fill="none" fillRule="evenodd">
        <g transform="translate(15.000000, 10.000000)" fill="#000000">
            <path d="M42.3516845,28.125 C43.2141113,28.125 43.9141845,27.4249267 43.9141845,26.5625 C43.9141845,25.7000733 43.2141113,25 42.3516845,25 C41.4874267,25 40.7891845,25.7000733 40.7891845,26.5625 C40.7891845,27.4249267 41.4874267,28.125 42.3516845,28.125 Z" id="Path"></path>
            <path d="M26.7266845,28.125 C27.5891112,28.125 28.2891845,27.4249267 28.2891845,26.5625 C28.2891845,25.7000733 27.5891112,25 26.7266845,25 C25.8624267,25 25.1641845,25.7000733 25.1641845,26.5625 C25.1641845,27.4249267 25.8624267,28.125 26.7266845,28.125 Z" id="Path"></path>
            <path d="M30.3619384,38.8647461 C31.6735841,39.4830322 33.0792236,39.796753 34.5385742,39.796753 C35.9661866,39.796753 37.3443603,39.4958497 38.6352539,38.9025878 C39.4195556,38.5418702 39.7625733,37.6141358 39.4024658,36.8298341 C39.0417481,36.0461425 38.1140138,35.7025147 37.3297119,36.0632325 C36.4514159,36.4666748 35.512085,36.671753 34.5385742,36.671753 C33.5430908,36.671753 32.5860595,36.4587403 31.6943359,36.038208 C30.9136963,35.6701659 29.9822998,36.0046387 29.6148681,36.7852783 C29.2468263,37.565918 29.5812988,38.4967041 30.3619384,38.8647461 Z" id="Path"></path>
            <path d="M68.9984131,63.4014892 C68.9984131,54.8095703 59.2132569,48.0712891 50.8258056,47.7520752 L46.5466309,43.9074706 C51.7584228,40.1049805 54.921875,33.9941406 54.921875,27.5 L54.921875,17.1875 C54.921875,7.71057125 47.1868897,-5.68434189e-14 37.6794434,-5.68434189e-14 L31.4294434,-5.68434189e-14 C21.9348144,-5.68434189e-14 14.296875,7.68310547 14.296875,17.1875 L14.296875,27.5 C14.296875,33.9831544 17.4182128,40.0823975 22.5622559,43.8781737 L18.2507325,47.7520752 C9.88159188,48.0706787 0.078125,54.7918702 0.078125,63.4014892 L0.078125,78.4375 C0.078125,79.3005372 0.777587813,80 1.640625,80 L67.4359131,80 C68.2989502,80 68.9984131,79.3005372 68.9984131,78.4375 L68.9984131,63.4014892 Z M31.0772705,69.6875 L37.9907227,69.6875 L39.6289062,76.875 L29.3914795,76.875 L31.0772705,69.6875 Z M38.125,66.5625 L30.9783936,66.5625 L29.7796631,62.8277587 L34.5391845,60.4479981 L39.4006347,62.8796387 L38.125,66.5625 Z M34.5385742,55.7531737 L29.1088867,47.0672608 C30.8721923,47.5573731 32.7044678,47.8118897 34.5544434,47.8118897 C36.3867188,47.8118897 38.2055664,47.5622559 39.9597169,47.0800781 L34.5385742,55.7531737 Z M36.7749023,58.0725097 L44.2767334,46.0687256 L48.3227539,49.7039795 L43.1744384,61.2731934 L36.7749023,58.0725097 Z M31.4294434,3.125 L37.6794434,3.125 C45.4638672,3.125 51.796875,9.43298344 51.796875,17.1875 L51.796875,18.4790039 L48.862915,14.2541503 C48.5974122,13.87146 48.1744384,13.6273194 47.7099609,13.5882569 C47.2448731,13.5491944 46.78833,13.7194825 46.4624023,14.0527344 C43.2861328,17.3010253 39.6087647,18.75 34.5391845,18.75 C29.4702148,18.75 25.7922363,17.3010253 22.6135253,14.0527344 C22.2863769,13.7176514 21.8255616,13.5479736 21.3598633,13.5888672 C20.8935547,13.6297608 20.4699706,13.8775634 20.2062988,14.2645264 L17.421875,18.3447266 L17.421875,17.1875 C17.421875,9.43298344 23.7054444,3.125 31.4294434,3.125 Z M17.421875,27.5 L17.421875,23.8885498 L21.7614747,17.5292969 C25.2380372,20.4864502 29.3463134,21.875 34.5391845,21.875 C39.7375488,21.875 43.8488769,20.4833984 47.3260498,17.5201416 L51.796875,23.9581298 L51.796875,27.5 C51.796875,36.8572998 44.1485595,44.6875 34.5544434,44.6875 C24.991455,44.6875 17.421875,36.8817139 17.421875,27.5 Z M24.7998047,46.0693359 L32.3028564,58.0725097 L25.9020997,61.2731934 L20.7537842,49.7039795 L24.7998047,46.0693359 Z M3.203125,63.4014892 C3.203125,56.9647217 11.027832,51.4068603 17.8656006,50.9014892 L23.7115478,64.0368653 C23.8848877,64.4262695 24.210205,64.7283936 24.6118164,64.8724366 C25.0134278,65.0164795 25.4559327,64.9896241 25.8380127,64.7991944 L26.9512939,64.2419434 L28.2189941,68.1896972 L26.1816406,76.875 L3.203125,76.875 L3.203125,63.4014892 Z M65.8734131,76.875 L42.8338623,76.875 L40.8599853,68.2135009 L42.2192383,64.2889405 L43.2385253,64.7991944 C43.6230469,64.991455 44.0667725,65.0152587 44.4647217,64.8724366 C44.866333,64.7283936 45.1916503,64.4262695 45.3649903,64.0368653 L51.2109375,50.9014892 C58.0487061,51.4074706 65.8734131,56.9647217 65.8734131,63.4014892 L65.8734131,76.875 Z" id="Shape" fillRule="nonzero"></path>
            <path d="M54.8516845,69.6875 L48.6016845,69.6875 C47.7386475,69.6875 47.0391845,70.3869628 47.0391845,71.25 C47.0391845,72.1130372 47.7386475,72.8125 48.6016845,72.8125 L54.8516845,72.8125 C55.7147217,72.8125 56.4141845,72.1130372 56.4141845,71.25 C56.4141845,70.3869628 55.7147217,69.6875 54.8516845,69.6875 Z" id="Path"></path>
            <path d="M61.015625,69.6875 C61.8780517,69.6875 62.578125,70.3875733 62.578125,71.25 C62.578125,72.1124267 61.8780517,72.8125 61.015625,72.8125 C60.1531983,72.8125 59.453125,72.1124267 59.453125,71.25 C59.453125,70.3875733 60.1531983,69.6875 61.015625,69.6875 Z" id="Path"></path>
        </g>
    </g>
</svg>