<?xml version="1.0" encoding="UTF-8"?>
<svg width="100px" height="100px" viewBox="0 0 100 100" version="1.1" xmlns="http://www.w3.org/2000/svg" xmlns:xlink="http://www.w3.org/1999/xlink">
    <!-- Generator: Sketch 52.2 (67145) - http://www.bohemiancoding.com/sketch -->
    <title>delivery-zone</title>
    <desc>Created with Sketch.</desc>
    <g id="delivery-zone" stroke="none" stroke-width="1" fill="none" fillRule="evenodd">
        <g id="placeholder" transform="translate(20.000000, 10.000000)" fill="#000000" fillRule="nonzero">
            <path d="M59.970625,77.1821875 L49.4239062,54.8726562 C49.2134375,54.4275 48.84875,54.0864062 48.4114062,53.9003125 L43.1645312,51.5645312 L52.2559375,36.3273437 C52.2776562,36.2907812 52.298125,36.25375 52.3176562,36.2159375 C54.1251562,32.6879687 55.0417187,28.875625 55.0417187,24.8854688 C55.0417187,18.173125 52.4095312,11.8803125 47.63,7.16640625 C42.85125,2.45359375 36.5203125,-0.091875 29.8039062,0.0025 C23.2807812,0.09296875 17.1389062,2.713125 12.509375,7.380625 C7.8803125,12.0478125 5.3096875,18.2107813 5.2709375,24.7346875 C5.2471875,28.7214062 6.18921875,32.6914062 7.99453125,36.2157812 C8.01390625,36.2534375 8.034375,36.290625 8.05609375,36.3271875 L17.1473437,51.5642187 L11.8701562,53.9128125 C11.4384375,54.1048437 11.09,54.4453125 10.888125,54.8725 L0.34171875,77.1821875 C-0.01125,77.9282812 0.13765625,78.8154687 0.71484375,79.405625 C1.291875,79.9957813 2.175,80.1648438 2.92921875,79.8292188 L16.1414062,73.9470313 L29.3535937,79.8292188 C29.8646875,80.0565625 30.4482812,80.0565625 30.959375,79.8292188 L44.1715625,73.9470313 L57.38375,79.8292188 C57.641875,79.9440625 57.9151562,80 58.1860937,80 C58.7065625,80 59.2185937,79.7940625 59.598125,79.4057813 C60.1748437,78.8154687 60.3235937,77.9285937 59.970625,77.1821875 Z M10.5881598,34.3768436 C8.99523546,31.2875486 8.19811845,27.9494243 8.21923739,24.4538641 C8.28930641,12.7585607 17.990592,3.11202243 29.8446992,2.95006535 C35.7655317,2.87158964 41.3476427,5.08134301 45.5599698,9.17903474 C49.7736065,13.2776953 52.0939063,18.749035 52.0939063,24.5854643 C52.0939063,28.0343589 51.2967892,31.3280782 49.7244927,34.3768436 L31.9325269,63.7887659 C31.3893282,64.6865539 30.5095363,64.7834375 30.1564081,64.7834375 C29.8031162,64.7834375 28.9233243,64.6865539 28.3802893,63.7887659 L10.5881598,34.3768436 Z M45.5922515,70.4197052 C45.059836,70.1705916 44.4518959,70.1705916 43.9194803,70.4197052 L30.1557813,77.2096003 L16.3927333,70.4197052 C15.8603177,70.1705916 15.2523776,70.1705916 14.719962,70.4197052 L3.1853125,76.884917 L13.4764112,56.4369835 L18.7269954,53.9790625 L24.8581569,64.7881965 C25.9819102,66.7694631 27.9624766,67.9523675 30.1557813,67.9523675 C32.3490859,67.9523675 34.3296523,66.7694631 35.4534056,64.7883678 L41.5845671,53.9792337 L46.8356396,56.4380108 L57.12625,76.8850882 L45.5922515,70.4197052 Z" id="Shape"></path>
            <path d="M30.156875,15.8760937 C25.1890625,15.8760937 21.1476563,19.9175 21.1476563,24.8851562 C21.1476563,29.8528125 25.1890625,33.8942188 30.156875,33.8942188 C35.1245313,33.894375 39.1659375,29.8528125 39.1659375,24.8851562 C39.1659375,19.9175 35.1245313,15.8760937 30.156875,15.8760937 Z M30.254747,31.3493659 C26.6706921,31.3495666 23.7546467,28.4338775 23.7546467,24.8493659 C23.7546467,21.2652556 26.6704914,18.3493659 30.254747,18.3493659 C33.838802,18.3493659 36.7546467,21.2652556 36.7546467,24.8493659 C36.7546467,28.4334762 33.838802,31.3493659 30.254747,31.3493659 Z" id="Shape"></path>
        </g>
    </g>
</svg>