<svg width="756" height="284" viewBox="0 0 756 284" fill="none" xmlns="http://www.w3.org/2000/svg">
<g filter="url(#filter0_d_10_2498)">
<path d="M294.061 71.8145C293.488 74.7507 292.091 77.651 289.871 80.5156C287.723 83.3086 285.288 85.7077 282.566 87.7129C282.208 88.071 281.492 88.4648 280.418 88.8945C279.415 89.3242 278.305 89.7897 277.088 90.291C275.942 90.7207 274.796 91.1146 273.65 91.4727C272.505 91.8307 271.609 92.0456 270.965 92.1172C270.392 92.2604 269.926 92.2246 269.568 92.0098C269.282 91.7949 268.995 91.5443 268.709 91.2578C268.423 90.9714 268.064 90.7207 267.635 90.5059C267.277 90.2194 266.74 90.0762 266.023 90.0762C265.164 90.0762 264.627 89.8971 264.412 89.5391C264.269 89.1094 264.376 88.3574 264.734 87.2832C264.878 86.9251 265.128 86.4238 265.486 85.7793C265.844 85.1348 266.417 84.3112 267.205 83.3086C267.778 82.6641 268.243 81.9479 268.602 81.1602C269.031 80.3724 269.103 79.6562 268.816 79.0117C268.602 78.2956 267.921 77.7227 266.775 77.293C265.63 76.8633 263.839 76.6484 261.404 76.6484C258.898 76.6484 255.675 76.9707 251.736 77.6152C247.439 78.1882 242.964 79.2624 238.309 80.8379C233.725 82.4134 229.249 84.2396 224.881 86.3164C220.584 88.3932 216.609 90.6133 212.957 92.9766C209.305 95.3398 206.297 97.6673 203.934 99.959C201.642 102.179 200.174 104.292 199.529 106.297C198.885 108.23 199.422 109.806 201.141 111.023C202.645 112.098 204.936 113.029 208.016 113.816C211.095 114.533 214.64 115.213 218.65 115.857C222.661 116.43 226.958 117.075 231.541 117.791C236.124 118.436 240.672 119.223 245.184 120.154C249.767 121.085 254.1 122.231 258.182 123.592C262.335 124.952 265.988 126.635 269.139 128.641C271.359 130.145 273.221 131.577 274.725 132.938C276.229 134.298 277.446 135.659 278.377 137.02C279.308 138.309 280.06 139.598 280.633 140.887C281.206 142.104 281.707 143.357 282.137 144.646C282.423 145.434 282.924 146.329 283.641 147.332C284.428 148.263 285.252 149.409 286.111 150.77C286.971 152.13 287.758 153.706 288.475 155.496C289.191 157.215 289.656 159.256 289.871 161.619C290.158 166.346 289.191 170.822 286.971 175.047C284.822 179.272 281.993 183.175 278.484 186.756C275.047 190.337 271.215 193.559 266.99 196.424C262.765 199.217 258.719 201.544 254.852 203.406C251.486 205.053 247.905 206.593 244.109 208.025C240.314 209.458 236.411 210.711 232.4 211.785C228.39 212.788 224.308 213.576 220.154 214.148C216.072 214.793 212.026 215.115 208.016 215.115C201.355 215.115 195.089 214.184 189.217 212.322C183.416 210.532 178.367 207.488 174.07 203.191C171.993 200.971 170.49 198.751 169.559 196.531C168.628 194.24 168.162 191.984 168.162 189.764C168.162 187.114 168.699 184.536 169.773 182.029C170.848 179.523 172.244 177.16 173.963 174.939C175.682 172.719 177.579 170.75 179.656 169.031C181.733 167.241 183.774 165.809 185.779 164.734C188.572 163.159 191.473 161.655 194.48 160.223C197.56 158.719 200.639 157.394 203.719 156.248C206.798 155.031 209.878 154.028 212.957 153.24C216.036 152.452 219.008 151.951 221.873 151.736C223.09 151.593 224.63 151.45 226.492 151.307C228.354 151.163 230.109 151.092 231.756 151.092C232.83 151.092 233.725 151.378 234.441 151.951C235.158 152.524 235.444 153.025 235.301 153.455C234.943 154.243 234.298 154.637 233.367 154.637C232.508 154.637 231.469 154.78 230.252 155.066C228.891 155.424 227.531 155.675 226.17 155.818C224.809 155.962 223.592 156.212 222.518 156.57C214.354 158.432 207.443 160.796 201.785 163.66C196.199 166.525 191.723 169.425 188.357 172.361C185.063 175.298 182.807 178.09 181.59 180.74C180.372 183.318 180.014 185.288 180.516 186.648C181.232 188.582 182.557 190.086 184.49 191.16C186.424 192.234 188.608 193.022 191.043 193.523C193.478 193.953 195.949 194.204 198.455 194.275C200.962 194.347 203.11 194.311 204.9 194.168C209.054 193.953 213.673 193.344 218.758 192.342C223.914 191.339 229.106 190.014 234.334 188.367C239.633 186.72 244.79 184.786 249.803 182.566C254.816 180.275 259.256 177.804 263.123 175.154C266.99 172.433 270.105 169.533 272.469 166.453C274.832 163.302 276.014 160.008 276.014 156.57C276.014 155.424 275.835 154.314 275.477 153.24C275.19 152.094 274.76 150.913 274.188 149.695C273.113 147.618 271.072 145.864 268.064 144.432C265.057 142.928 261.44 141.674 257.215 140.672C253.061 139.598 248.514 138.667 243.572 137.879C238.702 137.02 233.868 136.16 229.07 135.301C224.344 134.441 219.832 133.475 215.535 132.4C211.238 131.326 207.622 130.001 204.686 128.426C201.391 126.635 198.956 124.881 197.381 123.162C195.877 121.372 195.018 119.152 194.803 116.502C194.731 116.215 194.516 115.714 194.158 114.998C193.8 114.282 193.37 113.53 192.869 112.742C192.439 111.954 192.01 111.202 191.58 110.486C191.15 109.77 190.828 109.197 190.613 108.768C189.467 106.691 188.895 104.435 188.895 102C188.895 99.2786 189.503 96.4857 190.721 93.6211C192.01 90.7565 193.585 88.2858 195.447 86.209C198.885 82.2702 203.396 78.6178 208.982 75.252C214.64 71.8861 220.799 68.9499 227.459 66.4434C234.119 63.9368 240.958 61.9316 247.977 60.4277C255.066 58.8522 261.762 57.957 268.064 57.7422C270.643 57.6706 273.543 57.8496 276.766 58.2793C279.988 58.709 282.96 59.4967 285.682 60.6426C288.475 61.7168 290.695 63.1849 292.342 65.0469C293.989 66.8372 294.562 69.0931 294.061 71.8145ZM424.041 95.4473C424.041 99.5293 423.396 103.647 422.107 107.801C420.818 111.954 418.921 115.965 416.414 119.832C413.979 123.699 411.007 127.352 407.498 130.789C404.061 134.227 400.193 137.27 395.896 139.92C391.671 142.498 387.088 144.611 382.146 146.258C377.205 147.905 372.049 148.908 366.678 149.266C365.675 149.409 364.673 149.409 363.67 149.266C362.739 149.051 361.88 148.836 361.092 148.621C360.519 148.406 359.695 148.084 358.621 147.654C357.618 147.225 356.974 146.902 356.688 146.688C356.258 146.258 355.649 145.613 354.861 144.754C354.145 143.823 353.608 143.071 353.25 142.498C353.035 142.14 352.928 141.567 352.928 140.779C352.999 139.92 353.035 138.953 353.035 137.879C353.035 136.876 352.999 135.838 352.928 134.764C352.928 133.618 353.035 132.973 353.25 132.83C353.393 132.687 353.715 132.83 354.217 133.26C354.79 133.618 355.864 133.904 357.439 134.119C358.084 134.262 358.8 134.298 359.588 134.227C360.447 134.155 361.271 134.048 362.059 133.904C364.565 133.689 367.465 132.973 370.76 131.756C374.054 130.538 377.42 128.927 380.857 126.922C384.367 124.917 387.804 122.589 391.17 119.939C394.536 117.218 397.508 114.318 400.086 111.238C402.736 108.159 404.848 104.9 406.424 101.463C408.071 98.0254 408.895 94.5521 408.895 91.043C408.895 88.3216 408.357 85.7077 407.283 83.2012C406.209 80.623 404.526 78.0807 402.234 75.5742C400.802 73.9271 398.009 72.638 393.855 71.707C389.702 70.776 384.725 70.3105 378.924 70.3105C373.982 70.3105 368.683 70.7044 363.025 71.4922C357.368 72.2799 351.746 73.569 346.16 75.3594C341.362 76.9349 337.28 78.3314 333.914 79.5488C330.548 80.6947 327.648 81.7331 325.213 82.6641C322.85 83.5951 320.88 84.3828 319.305 85.0273C317.801 85.6719 316.476 86.2448 315.33 86.7461C314.184 87.1758 313.146 87.6055 312.215 88.0352C311.284 88.3932 310.281 88.7155 309.207 89.002C308.204 89.36 307.417 89.5749 306.844 89.6465C306.271 89.6465 305.805 89.6465 305.447 89.6465C304.874 89.5033 304.445 89.36 304.158 89.2168C303.943 89.002 303.657 88.7871 303.299 88.5723C303.012 88.3574 302.726 88.2858 302.439 88.3574C302.153 88.3574 301.867 88.3932 301.58 88.4648C301.365 88.5365 301.115 88.5365 300.828 88.4648C300.542 88.3932 300.255 88.1426 299.969 87.7129C299.539 86.9251 299.253 86.3164 299.109 85.8867C298.895 85.3854 298.787 84.9915 298.787 84.7051C298.715 84.347 298.715 84.0247 298.787 83.7383C298.859 83.4518 298.966 83.0938 299.109 82.6641C299.181 82.2344 299.181 81.8405 299.109 81.4824C299.038 81.1243 299.002 80.8021 299.002 80.5156C298.93 80.2292 298.966 79.9427 299.109 79.6562C299.181 79.2982 299.467 78.9043 299.969 78.4746C300.971 77.6868 302.618 76.4694 304.91 74.8223C307.202 73.1751 310.031 71.3848 313.396 69.4512C316.834 67.446 320.737 65.4049 325.105 63.3281C329.546 61.2513 334.344 59.3535 339.5 57.6348C344.728 55.8444 350.278 54.3763 356.15 53.2305C362.094 52.013 368.289 51.3327 374.734 51.1895C381.18 51.0462 386.837 51.7624 391.707 53.3379C396.648 54.8418 400.945 56.8828 404.598 59.4609C408.25 61.9674 411.294 64.8678 413.729 68.1621C416.235 71.3848 418.24 74.6432 419.744 77.9375C421.248 81.2318 422.322 84.4186 422.967 87.498C423.611 90.5775 423.969 93.2272 424.041 95.4473ZM350.35 81.0527C350.278 81.4108 350.135 82.6283 349.92 84.7051C349.777 86.7819 349.562 89.4674 349.275 92.7617C349.061 95.9844 348.81 99.6725 348.523 103.826C348.237 107.98 347.951 112.312 347.664 116.824C347.378 121.336 347.091 125.919 346.805 130.574C346.59 135.158 346.447 139.562 346.375 143.787C346.232 148.084 346.124 152.524 346.053 157.107C345.981 161.619 345.945 166.202 345.945 170.857C345.945 176.229 346.053 181.528 346.268 186.756C346.554 191.984 347.02 197.033 347.664 201.902C347.951 203.549 347.843 204.839 347.342 205.77C346.84 206.701 346.59 207.524 346.59 208.24C346.59 208.455 346.697 208.67 346.912 208.885C347.127 209.028 347.163 209.171 347.02 209.314C346.805 209.673 346.411 209.816 345.838 209.744C345.337 209.673 344.871 209.458 344.441 209.1C344.227 208.885 344.048 208.634 343.904 208.348C343.761 207.99 343.618 207.703 343.475 207.488C343.331 207.273 343.152 207.166 342.938 207.166C342.723 207.094 342.4 207.238 341.971 207.596C341.613 207.954 341.183 208.455 340.682 209.1C340.252 209.744 339.786 210.424 339.285 211.141C338.784 211.785 338.283 212.358 337.781 212.859C337.28 213.432 336.779 213.79 336.277 213.934C335.848 214.077 335.311 214.22 334.666 214.363C334.093 214.507 333.735 214.292 333.592 213.719C333.449 213.432 333.305 213.253 333.162 213.182C333.019 213.11 332.84 213.003 332.625 212.859C332.41 212.788 332.195 212.645 331.98 212.43C331.837 212.286 331.73 211.928 331.658 211.355C331.3 210.138 330.87 209.243 330.369 208.67C329.939 208.025 329.725 207.309 329.725 206.521C329.581 205.304 329.223 201.795 328.65 195.994C328.149 190.193 327.898 182.173 327.898 171.932C327.898 167.85 327.934 163.41 328.006 158.611C328.149 153.813 328.4 148.729 328.758 143.357C329.116 138.559 329.546 133.367 330.047 127.781C330.548 122.195 331.049 116.717 331.551 111.346C332.124 105.975 332.625 100.962 333.055 96.3066C333.484 91.6517 333.807 87.8203 334.021 84.8125C334.093 84.3112 334.272 83.9889 334.559 83.8457C334.845 83.7025 335.239 83.5951 335.74 83.5234C336.242 83.4518 336.886 83.3802 337.674 83.3086C338.462 83.1654 339.393 82.8789 340.467 82.4492C341.326 82.0195 342.329 81.5898 343.475 81.1602C344.692 80.7305 345.802 80.4082 346.805 80.1934C347.879 79.9069 348.738 79.7995 349.383 79.8711C350.099 79.9427 350.421 80.3366 350.35 81.0527ZM464.861 61.9316C464.861 74.8939 464.611 88.071 464.109 101.463C463.608 114.783 463.25 128.032 463.035 141.209C462.964 147.225 462.999 153.204 463.143 159.148C463.357 165.021 463.572 170.643 463.787 176.014C464.074 181.313 464.324 186.183 464.539 190.623C464.754 194.992 464.861 198.68 464.861 201.688C464.861 203.764 464.79 205.447 464.646 206.736C464.503 207.954 464.253 208.67 463.895 208.885C463.536 209.243 463.214 209.458 462.928 209.529C462.641 209.601 462.355 209.637 462.068 209.637C461.782 209.637 461.46 209.637 461.102 209.637C460.815 209.565 460.457 209.637 460.027 209.852C459.526 210.066 459.204 210.317 459.061 210.604C458.917 210.818 458.774 211.069 458.631 211.355C458.488 211.642 458.273 211.928 457.986 212.215C457.7 212.501 457.199 212.788 456.482 213.074C455.551 213.289 454.656 213.038 453.797 212.322C453.009 211.678 452.221 211.141 451.434 210.711C450.216 209.995 449.214 209.422 448.426 208.992C447.71 208.491 447.029 207.739 446.385 206.736C445.883 205.877 445.454 204.588 445.096 202.869C444.738 201.079 444.451 199.002 444.236 196.639C444.021 194.204 443.878 191.518 443.807 188.582C443.735 185.646 443.699 182.602 443.699 179.451C443.699 175.87 443.735 172.29 443.807 168.709C443.878 165.057 443.95 161.583 444.021 158.289C444.165 154.995 444.272 152.023 444.344 149.373C444.415 146.723 444.487 144.575 444.559 142.928C444.702 137.771 444.881 132.365 445.096 126.707C445.382 121.049 445.633 115.428 445.848 109.842C446.134 104.184 446.421 98.7415 446.707 93.5137C446.993 88.2858 447.28 83.5234 447.566 79.2266C447.853 74.8581 448.104 71.1699 448.318 68.1621C448.605 65.0827 448.891 62.9342 449.178 61.7168C449.607 60.2129 450.359 59.3535 451.434 59.1387C451.935 58.9238 452.329 58.9596 452.615 59.2461C452.973 59.5326 453.367 59.3535 453.797 58.709C453.94 58.3509 454.155 58.1361 454.441 58.0645C454.728 57.9928 455.014 57.957 455.301 57.957C455.587 57.957 455.874 57.957 456.16 57.957C456.447 57.957 456.697 57.8854 456.912 57.7422C457.342 57.3125 457.771 57.2409 458.201 57.5273C458.702 57.7422 459.061 57.957 459.275 58.1719C459.49 58.6732 459.777 59.0671 460.135 59.3535C460.493 59.5684 460.887 59.4967 461.316 59.1387C461.531 58.9238 461.818 58.8164 462.176 58.8164C462.605 58.8164 462.892 58.9954 463.035 59.3535C463.25 59.7116 463.608 60.0697 464.109 60.4277C464.611 60.7858 464.861 61.2871 464.861 61.9316ZM524.803 84.5977C524.803 84.6693 524.767 85.7793 524.695 87.9277C524.695 90.0762 524.66 92.9408 524.588 96.5215C524.588 100.102 524.552 104.256 524.48 108.982C524.48 113.709 524.445 118.722 524.373 124.021C524.301 129.249 524.23 134.62 524.158 140.135C524.158 145.649 524.122 150.984 524.051 156.141C524.051 161.225 524.015 165.988 523.943 170.428C523.943 174.868 523.943 178.663 523.943 181.814V188.26C524.946 188.403 525.913 188.475 526.844 188.475C527.846 188.475 528.849 188.475 529.852 188.475C532.859 188.475 536.44 188.188 540.594 187.615C544.819 187.042 549.331 185.825 554.129 183.963C558.999 182.029 564.048 179.272 569.275 175.691C574.575 172.039 579.767 167.133 584.852 160.975C590.939 153.67 595.271 146.365 597.85 139.061C600.499 131.756 601.824 124.451 601.824 117.146C601.824 110.988 601.18 105.652 599.891 101.141C598.602 96.6289 596.775 92.8333 594.412 89.7539C592.12 86.6029 589.363 84.0605 586.141 82.127C582.99 80.1934 579.48 78.6895 575.613 77.6152C571.818 76.541 567.736 75.8249 563.367 75.4668C559.07 75.1087 554.666 74.9297 550.154 74.9297C546.932 74.9297 543.208 75.3236 538.982 76.1113C534.757 76.8991 530.389 77.9017 525.877 79.1191C521.437 80.3366 517.033 81.6257 512.664 82.9863C508.296 84.347 504.321 85.6361 500.74 86.8535C497.231 88.071 494.295 89.0736 491.932 89.8613C489.568 90.6491 488.136 91.043 487.635 91.043C486.919 90.3268 486.31 89.6465 485.809 89.002C485.379 88.5007 484.985 88.0352 484.627 87.6055C484.269 87.1758 484.09 86.9251 484.09 86.8535C484.09 86.7103 484.197 86.5312 484.412 86.3164C484.555 86.1732 484.806 85.9941 485.164 85.7793C485.522 85.5645 486.059 85.3854 486.775 85.2422C486.561 84.8125 486.417 84.526 486.346 84.3828C486.346 84.2396 486.346 84.0964 486.346 83.9531C486.346 83.7383 486.382 83.5234 486.453 83.3086C486.525 83.0938 486.847 82.8789 487.42 82.6641C486.346 82.1628 485.594 81.7331 485.164 81.375C484.734 80.9453 484.448 80.623 484.305 80.4082C484.233 80.1934 484.233 80.0501 484.305 79.9785C484.376 79.9069 484.412 79.9069 484.412 79.9785C484.412 79.7637 484.555 79.6204 484.842 79.5488C485.128 79.4772 485.343 79.2624 485.486 78.9043C485.486 78.8327 485.701 78.3672 486.131 77.5078C486.561 76.6484 487.456 75.6458 488.816 74.5C490.249 73.3542 492.254 72.1725 494.832 70.9551C497.41 69.7376 500.883 68.6634 505.252 67.7324C506.756 67.3743 508.797 66.9089 511.375 66.3359C513.953 65.6914 516.925 65.0827 520.291 64.5098C523.729 63.9368 527.452 63.4355 531.463 63.0059C535.473 62.5762 539.663 62.3613 544.031 62.3613C555.991 62.3613 566.59 64.1517 575.828 67.7324C585.066 71.2415 592.801 75.9681 599.031 81.9121C605.333 87.8561 610.096 94.7311 613.318 102.537C616.541 110.343 618.152 118.507 618.152 127.029C618.152 132.042 617.472 137.199 616.111 142.498C614.751 147.798 612.781 153.025 610.203 158.182C607.697 163.338 604.653 168.315 601.072 173.113C597.492 177.911 593.481 182.316 589.041 186.326C584.601 190.265 579.803 193.738 574.646 196.746C569.562 199.754 564.191 202.046 558.533 203.621C552.876 205.197 547.719 206.307 543.064 206.951C538.481 207.524 534.256 207.811 530.389 207.811C525.232 207.811 521.043 207.524 517.82 206.951C514.598 206.307 512.091 205.626 510.301 204.91C508.582 204.122 507.4 203.37 506.756 202.654C506.183 201.938 505.896 201.473 505.896 201.258C505.467 200.828 505.252 200.148 505.252 199.217C505.324 197.498 505.503 192.557 505.789 184.393C505.932 180.955 506.076 176.622 506.219 171.395C506.434 166.167 506.648 159.865 506.863 152.488C507.15 145.04 507.472 136.339 507.83 126.385C508.26 116.43 508.725 105.008 509.227 92.1172C509.227 90.6133 509.62 89.5749 510.408 89.002C511.268 88.429 512.306 87.9993 513.523 87.7129C514.741 87.4264 516.03 87.1758 517.391 86.9609C518.823 86.6745 520.076 86.1016 521.15 85.2422C521.58 84.8841 522.046 84.5977 522.547 84.3828C523.12 84.0964 523.585 83.9531 523.943 83.9531C524.516 83.9531 524.803 84.168 524.803 84.5977ZM738.035 61.9316C738.536 61.9316 738.823 62.0749 738.895 62.3613C738.966 62.5762 738.608 62.9701 737.82 63.543C737.677 63.6862 737.605 63.8294 737.605 63.9727C737.605 64.0443 737.605 64.1517 737.605 64.2949C737.605 64.4382 737.534 64.653 737.391 64.9395C737.319 65.1543 737.104 65.4766 736.746 65.9062C736.102 66.6224 734.92 68.0547 733.201 70.2031C731.482 72.3516 729.441 74.9655 727.078 78.0449C724.715 81.0527 722.101 84.4186 719.236 88.1426C716.443 91.8665 713.543 95.6979 710.535 99.6367C707.599 103.576 704.663 107.514 701.727 111.453C698.862 115.32 696.176 118.973 693.67 122.41C691.163 125.776 688.979 128.784 687.117 131.434C685.255 134.012 683.895 136.017 683.035 137.449V140.887C683.035 143.608 682.964 146.902 682.82 150.77C682.749 154.637 682.641 158.755 682.498 163.123C682.355 167.42 682.212 171.788 682.068 176.229C681.925 180.669 681.782 184.786 681.639 188.582C681.495 192.378 681.352 195.708 681.209 198.572C681.137 201.437 681.102 203.478 681.102 204.695C681.102 205.698 681.03 206.45 680.887 206.951C680.815 207.452 680.672 207.811 680.457 208.025C680.242 208.169 679.92 208.24 679.49 208.24C679.132 208.24 678.631 208.24 677.986 208.24C677.342 208.24 676.984 208.025 676.912 207.596C676.84 207.166 676.697 206.88 676.482 206.736C676.268 206.665 676.124 206.808 676.053 207.166C675.981 207.524 675.945 207.918 675.945 208.348C675.945 208.777 675.91 209.171 675.838 209.529C675.838 209.887 675.766 210.066 675.623 210.066C675.193 210.066 674.728 209.959 674.227 209.744C673.797 209.458 673.367 209.171 672.938 208.885C672.579 208.598 672.221 208.383 671.863 208.24C671.577 208.025 671.362 207.954 671.219 208.025C671.076 208.097 671.04 208.24 671.111 208.455C671.183 208.67 671.219 208.885 671.219 209.1C671.219 209.314 671.183 209.493 671.111 209.637C671.04 209.708 670.861 209.673 670.574 209.529C670.216 209.458 669.858 209.314 669.5 209.1C669.142 208.813 668.82 208.598 668.533 208.455C668.247 208.24 667.996 208.169 667.781 208.24C667.638 208.24 667.531 208.455 667.459 208.885C667.316 209.887 667.208 210.89 667.137 211.893C667.065 212.824 666.814 213.217 666.385 213.074C665.669 212.931 664.738 212.645 663.592 212.215C662.446 211.785 661.766 210.89 661.551 209.529C661.408 208.67 661.336 207.596 661.336 206.307C661.336 205.018 661.336 203.549 661.336 201.902C661.336 198.25 661.408 193.989 661.551 189.119C661.766 184.249 661.98 179.272 662.195 174.188C662.41 169.103 662.589 164.197 662.732 159.471C662.947 154.744 663.055 150.698 663.055 147.332C663.055 142.749 662.84 140.027 662.41 139.168C662.052 138.595 660.942 136.84 659.08 133.904C657.218 130.896 654.891 127.244 652.098 122.947C649.376 118.579 646.333 113.781 642.967 108.553C639.673 103.325 636.414 98.1686 633.191 93.084C630.04 87.9277 627.068 83.0938 624.275 78.582C621.554 74.0703 619.37 70.3464 617.723 67.4102C617.436 66.9089 617.221 66.3717 617.078 65.7988C616.935 65.1543 616.827 64.5456 616.756 63.9727C616.684 63.3997 616.684 62.9342 616.756 62.5762C616.827 62.1465 616.935 61.86 617.078 61.7168C617.365 61.5736 617.758 61.4303 618.26 61.2871C618.689 61.1439 619.227 61.0723 619.871 61.0723C620.516 61.0007 621.339 61.0007 622.342 61.0723C622.628 61.9316 622.879 62.4688 623.094 62.6836C623.309 62.8984 623.523 62.9701 623.738 62.8984C623.953 62.7552 624.168 62.5404 624.383 62.2539C624.598 61.8958 624.812 61.6452 625.027 61.502C625.815 60.7142 626.316 60.2845 626.531 60.2129C626.746 60.1413 627.247 60.4277 628.035 61.0723C628.751 61.7168 629.288 61.8958 629.646 61.6094C630.005 61.3229 630.506 60.6426 631.15 59.5684C631.795 58.6374 632.511 58.4225 633.299 58.9238C634.158 59.3535 635.125 60.2129 636.199 61.502L637.811 63.3281C638.67 64.3307 639.995 66.1569 641.785 68.8066C643.576 71.3848 645.617 74.4642 647.908 78.0449C650.271 81.6257 652.778 85.5645 655.428 89.8613C658.149 94.0866 660.835 98.3477 663.484 102.645C666.134 106.941 668.676 111.095 671.111 115.105C673.546 119.116 675.695 122.661 677.557 125.74C679.061 123.09 681.066 119.796 683.572 115.857C686.15 111.847 688.908 107.622 691.844 103.182C694.78 98.7415 697.824 94.2656 700.975 89.7539C704.126 85.1706 707.098 80.9453 709.891 77.0781C712.684 73.2109 715.154 69.9167 717.303 67.1953C719.523 64.4023 721.17 62.5762 722.244 61.7168C722.745 61.2871 723.175 60.9648 723.533 60.75C723.963 60.5352 724.321 60.3919 724.607 60.3203C724.965 60.1771 725.288 60.1055 725.574 60.1055C725.932 60.1055 726.29 60.0697 726.648 59.998C727.723 59.998 728.403 60.0697 728.689 60.2129C729.048 60.3561 729.262 60.4993 729.334 60.6426C729.477 60.7858 729.585 60.929 729.656 61.0723C729.799 61.1439 730.122 61.1439 730.623 61.0723C731.697 60.929 732.736 60.8574 733.738 60.8574C734.741 60.8574 735.314 61.0723 735.457 61.502C735.457 61.6452 735.564 61.7526 735.779 61.8242C735.994 61.8958 736.746 61.9316 738.035 61.9316Z" fill="#4DB092"/>
</g>
<path d="M77.35 220.7C120.069 220.7 154.7 186.069 154.7 143.35C154.7 100.631 120.069 66 77.35 66C34.6308 66 0 100.631 0 143.35C0 186.069 34.6308 220.7 77.35 220.7Z" fill="#4DB092"/>
<path d="M83.6043 154.276C83.0734 153.015 81.8788 151.622 80.3523 151.389C79.3568 151.224 78.6931 150.294 78.859 149.332C79.0249 148.337 79.9541 147.673 80.9164 147.839C84.0025 148.337 86.0267 150.792 86.9227 152.916C87.3209 153.845 86.8563 154.907 85.9604 155.272C85.0644 155.637 84.0025 155.206 83.6043 154.276Z" fill="black"/>
<path d="M116.556 147.64C116.357 147.042 115.859 146.611 115.262 146.445L92.763 141.169L114.133 136.158C114.731 136.025 115.228 135.561 115.428 134.963C115.627 134.333 117.352 128.493 112.375 112.531C112.076 111.569 111.047 111.038 110.085 111.337C109.123 111.635 108.592 112.664 108.89 113.626C112.441 125.008 112.341 130.782 112.109 132.906L93.5926 137.253L105.804 130.218C106.501 129.82 106.833 129.024 106.667 128.26C106.534 127.63 103.116 112.996 91.0375 105.065C90.2079 104.501 89.0796 104.733 88.5155 105.596C87.9514 106.425 88.1836 107.554 89.0464 108.118C97.9397 113.958 101.689 124.245 102.785 127.796L84.6662 138.182C87.0554 134.3 86.7236 129.82 83.8366 126.933C80.8168 123.913 75.9056 123.913 72.8527 126.933C70.0985 129.687 69.468 134.167 72.0563 138.216L53.9048 127.729C54.9667 124.146 58.7164 113.892 67.6429 108.051C68.4725 107.487 68.7048 106.359 68.1738 105.529C67.6097 104.7 66.4814 104.468 65.6518 104.999C53.5729 112.929 50.155 127.597 50.0223 128.194C49.8564 128.957 50.1882 129.754 50.8851 130.152L63.0967 137.187L44.5801 132.84C44.3478 130.749 44.2815 124.942 47.799 113.56C48.0976 112.598 47.5667 111.569 46.6043 111.27C45.642 110.972 44.6133 111.503 44.3147 112.465C39.3371 128.426 41.0627 134.3 41.2618 134.897C41.4609 135.494 41.9586 135.926 42.5559 136.092L63.9263 141.102L41.4277 146.445C40.8304 146.578 40.3326 147.042 40.1335 147.64C39.9344 148.27 38.2088 154.111 43.1864 170.072C43.4851 171.034 44.5138 171.565 45.4761 171.267C46.4384 170.968 46.9694 169.939 46.6707 168.977C43.12 157.595 43.2196 151.821 43.4519 149.697L65.8178 144.454L51.4824 152.319C50.8851 152.65 50.52 153.248 50.52 153.911C50.52 154.243 50.5864 162.373 57.7873 176.244C58.9155 178.467 60.2097 180.724 61.5702 182.98C62.1012 183.843 63.2294 184.109 64.059 183.578C64.9218 183.047 65.1873 181.919 64.6563 181.089C63.329 178.899 62.1012 176.709 60.9729 174.585C55.6635 164.331 54.4689 157.429 54.2034 154.94L64.3577 149.398C63.1631 151.622 62.4662 154.177 62.3335 156.798C62.1344 161.245 63.4949 165.891 66.3155 170.171C69.2025 174.552 75.1424 181.952 75.4079 182.25C76.868 184.076 79.6554 184.042 81.0823 182.217C81.3146 181.919 87.1218 174.519 90.0751 170.238C93.0285 165.957 94.4886 161.278 94.2231 156.732C94.0572 154.077 93.3271 151.555 92.0993 149.299L102.386 154.907C102.121 157.396 100.926 164.232 95.6168 174.552C94.5217 176.676 93.2939 178.866 91.9334 181.056C91.2034 182.284 92.0661 183.81 93.4931 183.81C94.0904 183.81 94.7208 183.511 95.0527 182.947C96.4464 180.691 97.7074 178.434 98.8356 176.211C106.003 162.34 106.103 154.21 106.103 153.878C106.103 153.215 105.738 152.617 105.141 152.285L90.8383 144.454L113.204 149.697C113.437 151.788 113.503 157.595 109.985 168.977C109.62 170.138 110.483 171.333 111.711 171.333C112.474 171.333 113.204 170.835 113.437 170.039C118.48 154.111 116.755 148.27 116.556 147.64ZM75.4411 129.521C77.0339 127.929 79.6554 127.895 81.2482 129.521C82.8411 131.114 83.1397 133.835 81.4142 136.49C80.4518 137.983 78.3281 140.572 78.3281 140.572C78.3281 140.572 76.2707 137.95 75.242 136.49C73.45 133.835 73.8482 131.114 75.4411 129.521ZM87.1549 168.18C84.2348 172.395 78.2949 179.961 78.2949 179.961C78.2949 179.961 72.2222 172.461 69.4348 168.18C64.424 160.515 65.2868 152.65 69.8994 148.038C72.2222 145.715 75.242 144.554 78.2949 144.554H78.3281H78.3612C81.381 144.554 84.4339 145.715 86.7567 148.038C91.3029 152.65 92.4644 160.515 87.1549 168.18Z" fill="black"/>
<path d="M78.3612 144.554C78.328 144.554 78.328 144.554 78.2948 144.554H78.2617H78.2285C75.2087 144.554 72.1558 145.715 69.833 148.038C65.2204 152.651 64.3576 160.515 69.3684 168.181C72.189 172.461 78.2285 179.961 78.2285 179.961C78.2285 179.961 78.2616 179.928 78.2948 179.861V144.554H78.3612Z" fill="black"/>
<path d="M78.3613 128.294C77.2994 128.294 76.2375 128.692 75.4411 129.488C73.8483 131.081 73.4501 133.802 75.2752 136.457C76.2707 137.917 78.3613 140.538 78.3613 140.538V128.294Z" fill="black"/>
<path d="M64.5543 210.786C33.084 204.792 8.99137 177.126 8.76082 143.926C8.53027 106.116 38.9631 75.1068 76.7735 74.8763C95.1023 74.761 112.394 81.7928 125.42 94.5884C138.446 107.499 145.708 124.56 145.824 142.889C145.939 161.218 138.907 178.509 126.112 191.535C113.201 204.561 96.1398 211.824 77.811 211.939C73.3152 212.054 68.8195 211.593 64.5543 210.786ZM89.5691 79.4873C85.4192 78.6804 81.154 78.3345 76.7735 78.3345C59.3669 78.4498 43.113 85.3664 30.8938 97.7009C18.6745 110.035 11.9885 126.52 12.2191 143.926C12.4496 161.333 19.2509 177.587 31.5854 189.806C43.9199 202.025 60.4044 208.711 77.811 208.481C95.2176 208.366 111.472 201.449 123.691 189.115C135.91 176.78 142.596 160.296 142.365 142.889C142.25 125.482 135.334 109.228 122.999 97.0092C113.777 87.9024 102.134 81.7928 89.5691 79.4873Z" fill="black"/>
<path d="M4.84147 143.465C4.61092 143.465 4.38037 143.696 4.38037 143.926C4.38037 147.961 4.72619 151.996 5.41785 155.915C5.41785 156.146 5.64839 156.376 5.87894 156.376C5.87894 156.376 5.87895 156.376 5.99422 156.376C6.22478 156.376 6.45532 156.03 6.45532 155.8C5.76367 151.88 5.41785 147.961 5.41785 143.926C5.30257 143.696 5.07202 143.465 4.84147 143.465Z" fill="black" fill-opacity="0.48"/>
<path d="M9.45254 167.327C9.33726 167.097 9.1067 166.866 8.76088 166.981C8.53032 167.097 8.29979 167.327 8.41506 167.673C9.79837 171.477 11.4122 175.166 13.3719 178.624C13.4872 178.74 13.6025 178.855 13.833 178.855C13.9483 178.855 13.9483 178.855 14.0636 178.74C14.2941 178.624 14.4094 178.279 14.2941 178.048C12.3344 174.705 10.7206 171.131 9.45254 167.327Z" fill="black" fill-opacity="0.48"/>
<path d="M20.8648 188.077C20.6343 187.846 20.4037 187.846 20.1732 187.962C19.9426 188.192 19.9426 188.423 20.0579 188.653C22.594 191.766 25.3606 194.763 28.3577 197.414C28.473 197.53 28.5883 197.53 28.7036 197.53C28.8188 197.53 28.9341 197.53 29.0494 197.414C29.28 197.184 29.28 196.838 29.0494 196.723C26.0522 194.187 23.2856 191.189 20.8648 188.077Z" fill="black" fill-opacity="0.48"/>
<path d="M5.6484 132.629C5.99423 132.629 6.22478 132.399 6.22478 132.168C6.80116 128.249 7.83865 124.329 8.99141 120.641C9.10668 120.41 8.9914 120.064 8.64558 119.949C8.41502 119.834 8.06919 119.949 7.95391 120.295C6.68588 124.099 5.76368 128.018 5.07202 132.053C5.1873 132.284 5.30257 132.514 5.6484 132.629Z" fill="black" fill-opacity="0.48"/>
<path d="M94.4107 73.3776C98.2148 74.2998 102.019 75.5679 105.708 77.1817C105.823 77.1817 105.823 77.1817 105.938 77.1817C106.169 77.1817 106.284 77.0664 106.399 76.8359C106.515 76.6053 106.399 76.2595 106.169 76.1442C102.48 74.5304 98.6759 73.2623 94.7565 72.3401C94.526 72.2249 94.1801 72.4554 94.1801 72.686C93.9496 73.0318 94.0648 73.3776 94.4107 73.3776Z" fill="black" fill-opacity="0.48"/>
<path d="M116.198 82.715C119.541 84.9052 122.653 87.326 125.65 89.9773C125.766 90.0926 125.881 90.0926 125.996 90.0926C126.112 90.0926 126.227 89.9773 126.342 89.9773C126.573 89.7468 126.457 89.401 126.342 89.2857C123.345 86.6343 120.117 84.0983 116.774 81.908C116.544 81.7928 116.198 81.7928 116.083 82.0233C115.852 82.2539 115.967 82.5997 116.198 82.715Z" fill="black" fill-opacity="0.48"/>
<path d="M47.6088 77.7581C47.724 77.7581 47.724 77.7581 47.8393 77.7581C51.4128 76.1442 55.2169 74.7609 59.021 73.8387C59.2516 73.7234 59.4822 73.4929 59.3669 73.2623C59.2516 73.0318 59.021 72.8012 58.7905 72.9165C54.8711 73.954 51.067 75.3373 47.3782 76.9512C47.1476 77.0664 47.0324 77.4123 47.1476 77.6428C47.2629 77.6428 47.3782 77.7581 47.6088 77.7581Z" fill="black" fill-opacity="0.48"/>
<path d="M27.7813 91.0148C27.8966 91.0148 28.0119 91.0148 28.1271 90.8995C31.009 88.2482 34.1215 85.7121 37.4645 83.5219C37.695 83.4066 37.8103 83.0608 37.5797 82.8302C37.4645 82.5997 37.1186 82.4844 36.8881 82.715C33.5451 84.9052 30.3174 87.4413 27.4355 90.2079C27.2049 90.4384 27.2049 90.669 27.4355 90.8995C27.4355 90.8995 27.5507 91.0148 27.7813 91.0148Z" fill="black" fill-opacity="0.48"/>
<path d="M13.026 109.92C13.1413 109.92 13.1413 110.035 13.2566 110.035C13.4871 110.035 13.6024 109.92 13.7177 109.805C15.5621 106.346 17.7523 102.888 20.1731 99.7758C20.2884 99.5452 20.2884 99.1994 20.0578 99.0841C19.8273 98.9688 19.4815 98.9688 19.3662 99.1994C16.9454 102.427 14.7552 105.77 12.7955 109.344C12.6802 109.459 12.7955 109.805 13.026 109.92Z" fill="black" fill-opacity="0.48"/>
<path d="M48.9921 209.634C45.3033 208.02 41.845 206.175 38.502 204.1C38.2714 203.985 37.9256 203.985 37.8103 204.216C37.6951 204.446 37.6951 204.792 37.9256 204.907C41.2686 207.097 44.8421 208.942 48.531 210.556C48.6462 210.556 48.6463 210.556 48.7615 210.556C48.9921 210.556 49.1074 210.44 49.2226 210.21C49.3379 209.979 49.2226 209.749 48.9921 209.634Z" fill="black" fill-opacity="0.48"/>
<path d="M140.867 108.767C140.982 108.767 140.982 108.767 141.097 108.652C141.328 108.537 141.443 108.191 141.328 107.96C139.368 104.502 137.178 101.044 134.642 97.9313C134.411 97.7008 134.181 97.7008 133.95 97.8161C133.72 98.0466 133.72 98.2772 133.835 98.5077C136.256 101.62 138.561 104.963 140.406 108.421C140.406 108.652 140.636 108.767 140.867 108.767Z" fill="black" fill-opacity="0.48"/>
<path d="M148.821 131.246C149.167 131.246 149.397 130.9 149.282 130.67C148.59 126.75 147.553 122.831 146.169 119.027C146.054 118.796 145.824 118.566 145.478 118.681C145.247 118.796 145.017 119.027 145.132 119.373C146.4 123.061 147.437 126.981 148.129 130.9C148.36 131.131 148.475 131.246 148.821 131.246Z" fill="black" fill-opacity="0.48"/>
<path d="M146.285 165.944C146.054 165.829 145.708 165.944 145.593 166.29C144.325 170.094 142.711 173.667 140.867 177.241C140.752 177.472 140.867 177.817 141.097 177.933C141.213 177.933 141.213 178.048 141.328 178.048C141.559 178.048 141.674 177.933 141.789 177.817C143.633 174.244 145.247 170.555 146.515 166.751C146.746 166.29 146.515 166.059 146.285 165.944Z" fill="black" fill-opacity="0.48"/>
<path d="M150.319 142.658C150.319 142.428 150.089 142.197 149.858 142.197C149.628 142.197 149.397 142.428 149.397 142.658V142.774C149.397 146.693 149.167 150.728 148.475 154.647C148.475 154.878 148.59 155.223 148.936 155.223C148.936 155.223 148.936 155.223 149.051 155.223C149.282 155.223 149.512 154.993 149.512 154.762C150.089 150.843 150.435 146.808 150.435 142.774L150.319 142.658Z" fill="black" fill-opacity="0.48"/>
<path d="M95.5635 213.092C91.7594 214.129 87.84 214.821 83.8053 215.167C83.5748 215.167 83.3442 215.397 83.3442 215.743C83.3442 215.974 83.5748 216.204 83.8053 216.204C87.84 215.858 91.7594 215.167 95.6787 214.129C95.9093 214.014 96.1398 213.783 96.0246 213.553C96.1398 213.207 95.794 212.977 95.5635 213.092Z" fill="black" fill-opacity="0.48"/>
<path d="M83.1137 71.0721C83.1137 70.8416 82.8831 70.4957 82.6526 70.4957C78.6179 70.1499 74.5833 70.2652 70.5486 70.611C70.3181 70.611 70.0875 70.8416 70.0875 71.1874C70.0875 71.4179 70.3181 71.6485 70.5486 71.6485C74.468 71.3027 78.5026 71.3027 82.422 71.5332C82.8831 71.5332 83.1137 71.4179 83.1137 71.0721Z" fill="black" fill-opacity="0.48"/>
<path d="M71.9319 215.282C68.0126 214.936 63.9779 214.36 60.1738 213.438C59.9433 213.322 59.5974 213.553 59.5974 213.783C59.4822 214.014 59.7127 214.36 59.9433 214.36C63.8626 215.282 67.8973 215.974 71.8167 216.204C72.0472 216.204 72.2778 215.974 72.2778 215.743C72.5083 215.513 72.2778 215.282 71.9319 215.282Z" fill="black" fill-opacity="0.48"/>
<path d="M134.527 187.155C132.106 190.267 129.454 193.264 126.573 195.916C126.342 196.146 126.342 196.377 126.573 196.607C126.688 196.723 126.803 196.723 126.918 196.723C127.034 196.723 127.149 196.723 127.264 196.607C130.146 193.841 132.913 190.844 135.334 187.616C135.449 187.385 135.449 187.039 135.218 186.924C134.988 186.924 134.642 187.039 134.527 187.155Z" fill="black" fill-opacity="0.48"/>
<path d="M117.235 203.409C113.892 205.599 110.434 207.559 106.86 209.172C106.63 209.288 106.515 209.634 106.63 209.864C106.745 210.095 106.86 210.21 107.091 210.21C107.206 210.21 107.206 210.21 107.322 210.21C111.01 208.596 114.584 206.636 117.927 204.331C118.158 204.216 118.273 203.87 118.042 203.639C117.696 203.293 117.466 203.293 117.235 203.409Z" fill="black" fill-opacity="0.48"/>
<defs>
<filter id="filter0_d_10_2498" x="152.162" y="34.9746" width="602.84" height="196.141" filterUnits="userSpaceOnUse" color-interpolation-filters="sRGB">
<feFlood flood-opacity="0" result="BackgroundImageFix"/>
<feColorMatrix in="SourceAlpha" type="matrix" values="0 0 0 0 0 0 0 0 0 0 0 0 0 0 0 0 0 0 127 0" result="hardAlpha"/>
<feOffset/>
<feGaussianBlur stdDeviation="8"/>
<feComposite in2="hardAlpha" operator="out"/>
<feColorMatrix type="matrix" values="0 0 0 0 0 0 0 0 0 0 0 0 0 0 0 0 0 0 0.4 0"/>
<feBlend mode="normal" in2="BackgroundImageFix" result="effect1_dropShadow_10_2498"/>
<feBlend mode="normal" in="SourceGraphic" in2="effect1_dropShadow_10_2498" result="shape"/>
</filter>
</defs>
</svg>
