<?xml version="1.0" encoding="UTF-8"?>
<svg width="48px" height="48px" viewBox="0 0 48 48" version="1.1" xmlns="http://www.w3.org/2000/svg" xmlns:xlink="http://www.w3.org/1999/xlink">
    <!-- Generator: Sketch 52.2 (67145) - http://www.bohemiancoding.com/sketch -->
    <title>149店、商家、商城</title>
    <desc>Created with Sketch.</desc>
    <defs>
        <linearGradient x1="100%" y1="50%" x2="0%" y2="50%" id="linearGradient-1">
            <stop stop-color="#58A1FE" offset="0%"></stop>
            <stop stop-color="#1674FA" offset="100%"></stop>
        </linearGradient>
    </defs>
    <g id="Page-1" stroke="none" stroke-width="1" fill="none" fillRule="evenodd">
        <g id="判断是否是商户" transform="translate(-825.000000, -423.000000)" fillRule="nonzero">
            <g id="Group-6" transform="translate(384.000000, 118.000000)">
                <g id="149店、商家、商城" transform="translate(441.000000, 305.000000)">
                    <path d="M24,0 C10.7464286,0 0,10.7464286 0,24 C0,37.2535714 10.7464286,48 24,48 C37.2535714,48 48,37.2535714 48,24 C48,10.7464286 37.2535714,0 24,0 Z M35.0732143,24.7071429 C34.9714286,24.9375 34.5803571,25.65 33.5785714,25.8 C33.5142857,25.8321429 33.4392857,25.8482143 33.3642857,25.8482143 L32.5339286,25.8482143 L32.5339286,32.025 C32.5339286,33.7767857 31.1035714,35.2017857 29.3517857,35.2017857 L26.6892857,35.2017857 C26.4107143,35.2017857 26.1803571,34.9714286 26.1803571,34.6928571 L26.1803571,28.0125 C26.1803571,27.5571429 25.8107143,27.1821429 25.35,27.1821429 L22.6767857,27.1821429 C22.2214286,27.1821429 21.8464286,27.5517857 21.8464286,28.0125 L21.8464286,34.6982143 C21.8464286,34.9767857 21.6160714,35.2071429 21.3375,35.2071429 L18.6642857,35.2071429 C16.9125,35.2071429 15.4875,33.7821429 15.4875,32.0303571 L15.4875,26.7053571 L15.4875,25.8535714 L14.6946429,25.8535714 C14.6410714,25.8535714 14.5875,25.8428571 14.5446429,25.8267857 C13.4571429,25.7196429 13.0339286,24.9482143 12.9321429,24.7125 C12.675,24.1232143 12.7125,23.1589286 13.6232143,22.2160714 L21.7392857,13.7732143 C22.3339286,13.1410714 23.1375,12.7928571 24,12.7928571 C24.8625,12.7928571 25.6660714,13.1357143 26.2660714,13.7625 L34.3821429,22.2107143 C35.2821429,23.1535714 35.3303571,24.1178571 35.0732143,24.7071429 Z" id="Shape" fill="url(#linearGradient-1)"></path>
                    <path d="M15.7132919,31.8819312 L15.7132919,26.6553537 L15.7132919,25.8193117 L15.7132919,31.8819312 C15.7132919,33.6013384 17.149095,35 18.9141613,35 C17.149095,35 15.7132919,33.6013384 15.7132919,31.8819312 Z M13.1385622,24.6993308 C12.8794699,24.1209369 12.9172542,23.1744742 13.8348728,22.249044 L22.0124733,13.9622371 C22.6116243,13.3417782 23.4212877,13 24.2903264,13 C23.4212877,13 22.6116243,13.3417782 22.0124733,13.9622371 L13.8348728,22.249044 C12.9172542,23.1744742 12.8794699,24.1209369 13.1385622,24.6993308 C13.2411196,24.9306883 13.6675423,25.6878585 14.7632868,25.793021 C13.6675423,25.6878585 13.2411196,24.9306883 13.1385622,24.6993308 Z M26.4872132,34.4952199 L26.4872132,27.9383365 C26.4872132,27.4913958 26.114768,27.123327 25.650561,27.123327 C26.114768,27.123327 26.4872132,27.4913958 26.4872132,27.9383365 L26.4872132,34.4952199 C26.4872132,34.7686424 26.7193167,34.9947419 27,34.9947419 C26.7193167,34.9947419 26.4872132,34.7686424 26.4872132,34.4952199 Z" id="Shape" fill="#FFFFFF"></path>
                </g>
            </g>
        </g>
    </g>
</svg>