<svg width="180" height="180" viewBox="0 0 180 180" fill="none" xmlns="http://www.w3.org/2000/svg">
  <circle opacity="0.08" cx="90" cy="90" r="66" fill="#2DBD96"/>
  <circle opacity="0.12" cx="90" cy="90" r="50" fill="#2DBD96"/>
  <circle cx="90.0001" cy="90.0001" r="33.3333" fill="#2DBD96"/>
  <path fill-rule="evenodd" clip-rule="evenodd" d="M79.714 85.8089L75 90.5229L82.0711 97.594L86.7851 102.308L91.4992 97.594L105.641 83.4519L100.927 78.7378L86.7851 92.88L79.714 85.8089Z" fill="white"/>
  <path fill-rule="evenodd" clip-rule="evenodd" d="M22.9445 43.0556L14 40.5L22.9445 37.9445L25.5 29L28.0555 37.9445L37 40.5L28.0555 43.0556L25.5 52L22.9445 43.0556Z" fill="#FFB547"/>
  <path fill-rule="evenodd" clip-rule="evenodd" d="M153.667 31.3333L149 29.9999L153.667 28.6666L155 23.9999L156.333 28.6666L161 29.9999L156.333 31.3333L155 35.9999L153.667 31.3333Z" fill="#FFB547"/>
  <path fill-rule="evenodd" clip-rule="evenodd" d="M139.222 169.778L133 168L139.222 166.222L141 160L142.778 166.222L149 168L142.778 169.778L141 176L139.222 169.778Z" fill="#FFB547"/>
  <circle cx="11" cy="56" r="2" fill="#2DBD96"/>
  <circle cx="134.5" cy="17.5" r="1.5" fill="#2DBD96"/>
  <circle cx="1.5" cy="142.5" r="1.5" fill="#FFB547"/>
  <circle cx="159.5" cy="47.5" r="1.5" fill="#FFB547"/>
  <circle cx="152.5" cy="158.5" r="1.5" fill="#2DBD96"/>
  <circle cx="45" cy="27" r="3" fill="#FFB547"/>
  <circle cx="167.5" cy="40.5" r="2.5" fill="#2DBD96"/>
  <circle cx="117.5" cy="165.5" r="2.5" fill="#FFB547"/>
  <circle cx="12.5" cy="125.5" r="2.5" fill="#2DBD96"/>
  <path fill-rule="evenodd" clip-rule="evenodd" d="M22.4498 148.5L17.5 143.55L12.5503 148.5L17.5 153.45L22.4498 148.5ZM13.9645 148.5L17.5 144.964L21.0356 148.5L17.5 152.036L13.9645 148.5Z" fill="#2DBD96"/>
  <path fill-rule="evenodd" clip-rule="evenodd" d="M160.45 136.5L155.5 131.55L150.55 136.5L155.5 141.45L160.45 136.5ZM151.965 136.5L155.5 132.964L159.036 136.5L155.5 140.036L151.965 136.5Z" fill="#FFB547"/>
</svg>
