<?xml version="1.0" encoding="UTF-8"?>
<svg width="32px" height="32px" viewBox="0 0 32 32" version="1.1" xmlns="http://www.w3.org/2000/svg" xmlns:xlink="http://www.w3.org/1999/xlink">
    <!-- Generator: Sketch 52.2 (67145) - http://www.bohemiancoding.com/sketch -->
    <title>杠杆账户icon</title>
    <desc>Created with Sketch.</desc>
    <defs>
        <linearGradient x1="100%" y1="0%" x2="0%" y2="100%" id="linearGradient-1">
            <stop stop-color="#F7AA70" offset="0%"></stop>
            <stop stop-color="#EF8739" offset="100%"></stop>
        </linearGradient>
        <circle id="path-2" cx="16" cy="16" r="16"></circle>
        <filter x="-78.1%" y="-71.9%" width="256.2%" height="256.2%" filterUnits="objectBoundingBox" id="filter-3">
            <feOffset dx="0" dy="2" in="SourceAlpha" result="shadowOffsetOuter1"></feOffset>
            <feGaussianBlur stdDeviation="8" in="shadowOffsetOuter1" result="shadowBlurOuter1"></feGaussianBlur>
            <feColorMatrix values="0 0 0 0 0   0 0 0 0 0   0 0 0 0 0  0 0 0 0.04 0" type="matrix" in="shadowBlurOuter1"></feColorMatrix>
        </filter>
        <linearGradient x1="50%" y1="50%" x2="50%" y2="100%" id="linearGradient-4">
            <stop stop-color="#FFFFFF" offset="0%"></stop>
            <stop stop-color="#FFFFFF" stop-opacity="0.95" offset="100%"></stop>
        </linearGradient>
        <path d="M18.8292943,11 C18.4174579,12.1651924 17.3062188,13 16,13 C14.6937812,13 13.5825421,12.1651924 13.1707057,11 L11,11 L15,19 C15,21.7614237 12.7614237,24 10,24 C7.23857625,24 5,21.7614237 5,19 L10,9 L13.1707057,9 C13.5825421,7.83480763 14.6937812,7 16,7 C17.3062188,7 18.4174579,7.83480763 18.8292943,9 L22,9 L27,19 C27,21.7614237 24.7614237,24 22,24 C19.2385763,24 17,21.7614237 17,19 L21,11 L18.8292943,11 Z M19.2222222,19 L24.7777778,19 L22,13 L19.2222222,19 Z M7.22222222,19 L12.7777778,19 L10,13 L7.22222222,19 Z" id="path-5"></path>
        <filter x="-15.9%" y="-14.7%" width="131.8%" height="141.2%" filterUnits="objectBoundingBox" id="filter-6">
            <feOffset dx="0" dy="1" in="SourceAlpha" result="shadowOffsetOuter1"></feOffset>
            <feGaussianBlur stdDeviation="1" in="shadowOffsetOuter1" result="shadowBlurOuter1"></feGaussianBlur>
            <feColorMatrix values="0 0 0 0 0.834183673   0 0 0 0 0.473667064   0 0 0 0 0.203279607  0 0 0 1 0" type="matrix" in="shadowBlurOuter1"></feColorMatrix>
        </filter>
    </defs>
    <g id="杠杆账户icon" stroke="none" stroke-width="1" fill="none" fillRule="evenodd">
        <g id="Oval">
            <use fill="black" fill-opacity="1" filter="url(#filter-3)" xlink:href="#path-2"></use>
            <use fill="url(#linearGradient-1)" fillRule="evenodd" xlink:href="#path-2"></use>
        </g>
        <g id="Combined-Shape">
            <use fill="black" fill-opacity="1" filter="url(#filter-6)" xlink:href="#path-5"></use>
            <use fill="url(#linearGradient-4)" fillRule="evenodd" xlink:href="#path-5"></use>
        </g>
    </g>
</svg>