<svg width="480" height="320" viewBox="0 0 480 320" fill="none" xmlns="http://www.w3.org/2000/svg">
<mask id="mask0_1452_25929" style="mask-type:alpha" maskUnits="userSpaceOnUse" x="0" y="0" width="480" height="320">
<rect width="480" height="320" fill="#565454"/>
</mask>
<g mask="url(#mask0_1452_25929)">
<path d="M89.2759 207.981L87.7635 207.107C87.5358 206.999 87.2825 206.955 87.0316 206.981C86.7807 207.008 86.542 207.103 86.3417 207.256L58.0387 223.588C57.4657 223.942 56.9898 224.432 56.6542 225.016L58.2517 225.926C58.5875 225.344 59.0635 224.856 59.6362 224.504L87.9233 208.162C88.1177 208.025 88.3421 207.937 88.5775 207.906C88.8129 207.874 89.0524 207.9 89.2759 207.981Z" fill="#1EFAFF" stroke="#12192D" stroke-width="0.3" stroke-linecap="round" stroke-linejoin="round"/>
<path d="M89.7605 242.258V208.971C89.7605 207.954 88.9297 207.613 87.9073 208.188L59.6362 224.504C59.1214 224.812 58.6856 225.235 58.3638 225.741C58.042 226.247 57.8431 226.821 57.7831 227.417V260.731C57.7831 261.754 58.6138 262.094 59.6362 261.519L87.9073 245.182C88.4249 244.875 88.8627 244.451 89.1847 243.942C89.5068 243.434 89.7041 242.857 89.7605 242.258Z" fill="#00DCFF" stroke="#12192D" stroke-width="0.3" stroke-linecap="round" stroke-linejoin="round"/>
<path d="M89.7605 242.258V208.944" stroke="#12192D" stroke-width="0.3" stroke-linecap="round" stroke-linejoin="round"/>
<path d="M89.7605 208.971C89.7605 207.954 88.9298 207.613 87.9073 208.188L89.7605 208.971Z" fill="#00DCFF"/>
<path d="M89.7605 208.971C89.7605 207.954 88.9298 207.613 87.9073 208.188" stroke="#12192D" stroke-width="0.3" stroke-linecap="round" stroke-linejoin="round"/>
<path d="M87.9074 208.156L59.6204 224.499" stroke="#12192D" stroke-width="0.3" stroke-linecap="round" stroke-linejoin="round"/>
<path d="M59.6362 224.504C59.1214 224.812 58.6856 225.235 58.3638 225.741C58.042 226.247 57.8431 226.821 57.7831 227.417" fill="#00DCFF"/>
<path d="M59.6362 224.504C59.1214 224.812 58.6856 225.235 58.3638 225.741C58.042 226.247 57.8431 226.821 57.7831 227.417" stroke="#12192D" stroke-width="0.3" stroke-linecap="round" stroke-linejoin="round"/>
<path d="M57.7672 227.417V260.731" stroke="#12192D" stroke-width="0.3" stroke-linecap="round" stroke-linejoin="round"/>
<path d="M57.7672 260.731C57.7672 261.754 58.5979 262.094 59.6204 261.519L57.7672 260.731Z" fill="#00DCFF"/>
<path d="M57.7672 260.731C57.7672 261.754 58.5979 262.094 59.6204 261.519" stroke="#12192D" stroke-width="0.3" stroke-linecap="round" stroke-linejoin="round"/>
<path d="M59.6204 261.519L87.9074 245.177" stroke="#12192D" stroke-width="0.3" stroke-linecap="round" stroke-linejoin="round"/>
<path d="M87.9073 245.182C88.4243 244.876 88.8616 244.452 89.1836 243.945C89.5057 243.438 89.7033 242.862 89.7605 242.264" fill="#00DCFF"/>
<path d="M87.9073 245.182C88.4243 244.876 88.8616 244.452 89.1836 243.945C89.5057 243.438 89.7033 242.862 89.7605 242.264" stroke="#12192D" stroke-width="0.3" stroke-linecap="round" stroke-linejoin="round"/>
<path d="M56.6596 225.016C56.3733 225.46 56.2115 225.973 56.1909 226.501V259.847C56.1739 260.036 56.2109 260.226 56.2976 260.395C56.3843 260.564 56.5173 260.704 56.6809 260.8L58.1719 261.653C58.0337 261.544 57.9245 261.403 57.8539 261.243C57.7833 261.082 57.7535 260.906 57.7672 260.731V227.417C57.7901 226.888 57.9517 226.374 58.2358 225.926L56.6383 225.016H56.6596Z" fill="#0096B9" stroke="#12192D" stroke-width="0.3" stroke-linecap="round" stroke-linejoin="round"/>
<path d="M66.479 230.628C70.7977 223.141 77.8854 219.147 82.3106 221.698C86.7358 224.249 86.8156 232.391 82.497 239.878C78.1783 247.365 71.0852 251.359 66.66 248.808C62.2349 246.257 62.155 238.115 66.479 230.628Z" fill="#FFC03C" stroke="#12192D" stroke-width="0.3" stroke-linecap="round" stroke-linejoin="round"/>
<path d="M65.169 247.919C60.813 245.342 60.7225 237.269 64.9933 229.776C69.3492 222.321 76.373 218.306 80.8195 220.883L82.3319 221.773C77.8854 219.195 70.8615 223.2 66.5056 230.666C62.1496 238.131 62.2455 246.316 66.6813 248.808C66.1472 248.566 65.6403 248.268 65.169 247.919Z" fill="#FF9846" stroke="#12192D" stroke-width="0.3" stroke-linecap="round" stroke-linejoin="round"/>
<path d="M68.0713 234.223C68.492 233.504 69.1736 233.115 69.5996 233.36C70.0256 233.605 70.0309 234.393 69.5996 235.112C69.1683 235.831 68.5026 236.225 68.0766 235.98C67.6506 235.735 67.6559 234.947 68.0713 234.223Z" fill="#505569" stroke="#12192D" stroke-width="0.3" stroke-linecap="round" stroke-linejoin="round"/>
<path d="M68.0713 234.223C68.492 233.504 69.1736 233.115 69.5996 233.36C70.0256 233.605 70.0309 234.393 69.5996 235.112C69.1683 235.831 68.5026 236.225 68.0766 235.98C67.6506 235.735 67.6559 234.947 68.0713 234.223Z" fill="#505569" stroke="#12192D" stroke-width="0.3" stroke-linecap="round" stroke-linejoin="round"/>
<path d="M79.2807 227.726C79.696 227.002 80.3776 226.613 80.8036 226.858C81.2296 227.103 81.235 227.891 80.8036 228.615C80.3723 229.34 79.7013 229.723 79.2753 229.478C78.8493 229.233 78.86 228.45 79.2807 227.726Z" fill="#505569" stroke="#12192D" stroke-width="0.3" stroke-linecap="round" stroke-linejoin="round"/>
<path d="M79.2807 227.726C79.696 227.002 80.3776 226.613 80.8036 226.858C81.2296 227.103 81.235 227.891 80.8036 228.615C80.3723 229.34 79.7013 229.723 79.2753 229.478C78.8493 229.233 78.86 228.45 79.2807 227.726Z" fill="#505569" stroke="#12192D" stroke-width="0.3" stroke-linecap="round" stroke-linejoin="round"/>
<path d="M71.474 244.159C71.8908 244.157 72.3063 244.114 72.7148 244.032C76.9749 243.212 81.3787 236.821 81.5651 231.124H80.7876C80.6172 236.406 76.4636 242.551 72.5657 243.297C71.1971 243.568 70.0628 243.35 69.2747 242.663C68.4014 241.896 67.9488 240.533 68.0446 238.989L67.2725 238.941C67.1607 240.751 67.7091 242.322 68.7635 243.244C69.5231 243.873 70.4885 244.199 71.474 244.159Z" fill="#505569" stroke="#12192D" stroke-width="0.3" stroke-linecap="round" stroke-linejoin="round"/>
<path d="M48.512 257.03C51.6272 251.641 56.7287 248.766 59.9131 250.603L60.0409 250.677L61.2124 251.354C58.0174 249.516 52.9266 252.419 49.8167 257.781C46.7068 263.143 46.7654 269.022 49.9445 270.865L48.6292 270.103C45.4607 268.256 45.4341 262.409 48.512 257.03Z" fill="#FA2D5A" stroke="#12192D" stroke-width="0.3" stroke-linecap="round" stroke-linejoin="round"/>
<path d="M49.8168 257.781C52.9267 252.392 58.0281 249.517 61.2126 251.354C64.397 253.191 64.4556 259.049 61.3457 264.438C58.2358 269.827 53.1344 272.702 49.9499 270.865C46.7655 269.028 46.7069 263.17 49.8168 257.781Z" fill="#FF78A2" stroke="#12192D" stroke-width="0.3" stroke-linecap="round" stroke-linejoin="round"/>
<path d="M59.3913 258.148C59.7481 257.531 60.3285 257.206 60.6959 257.414C61.0634 257.621 61.0687 258.292 60.6959 258.91C60.3232 259.528 59.7534 259.858 59.3913 259.645C59.0292 259.432 59.0345 258.766 59.3913 258.148Z" fill="#FFE48F" stroke="#12192D" stroke-width="0.3" stroke-linecap="round" stroke-linejoin="round"/>
<path d="M54.9235 260.726C55.2803 260.108 55.8607 259.778 56.2282 259.991C56.5956 260.204 56.5956 260.87 56.2282 261.487C55.8607 262.105 55.2856 262.43 54.9235 262.222C54.5614 262.015 54.5667 261.344 54.9235 260.726Z" fill="#FFE48F" stroke="#12192D" stroke-width="0.3" stroke-linecap="round" stroke-linejoin="round"/>
<path d="M50.4504 263.287C50.8072 262.67 51.3929 262.339 51.7551 262.552C52.1172 262.765 52.1278 263.431 51.7551 264.049C51.3823 264.666 50.8178 264.991 50.4504 264.784C50.083 264.576 50.0989 263.921 50.4504 263.287Z" fill="#FFE48F" stroke="#12192D" stroke-width="0.3" stroke-linecap="round" stroke-linejoin="round"/>
<path d="M80.0369 108.986L148.806 69.1918V32.1875L80.0369 71.8117V108.986Z" fill="#6EFFDC" stroke="#12192D" stroke-width="0.3" stroke-linecap="round" stroke-linejoin="round"/>
<path d="M77.7683 70.587L146.537 30.7924L148.805 32.1875L80.0368 71.8118L77.7683 70.587Z" fill="#6EFFDC" stroke="#12192D" stroke-width="0.3" stroke-linecap="round" stroke-linejoin="round"/>
<path d="M80.0368 108.986L77.7683 107.591V70.587L80.0368 71.8118V108.986Z" fill="#14B491" stroke="#12192D" stroke-width="0.3" stroke-linecap="round" stroke-linejoin="round"/>
<path d="M141.569 47.0713L141.59 50.5539L87.2736 81.9083L87.2523 78.4203L141.569 47.0713Z" fill="#FAE399" stroke="#13192C" stroke-width="0.3" stroke-linecap="round" stroke-linejoin="round"/>
<path d="M141.569 57.9504L141.59 61.4331L87.2736 92.7874L87.2523 89.2994L141.569 57.9504Z" fill="#FAE399" stroke="#13192C" stroke-width="0.3" stroke-linecap="round" stroke-linejoin="round"/>
<path d="M70.0363 77.4404L68.5026 76.5511C68.2699 76.4393 68.0106 76.3944 67.7538 76.4217C67.497 76.449 67.2529 76.5473 67.0489 76.7055L38.2559 93.3199C37.6745 93.6787 37.1914 94.1765 36.8501 94.7683L38.4476 95.7002C38.789 95.1084 39.272 94.6106 39.8535 94.2518L68.6411 77.6215C68.8408 77.4788 69.0726 77.3876 69.316 77.356C69.5594 77.3244 69.8068 77.3534 70.0363 77.4404Z" fill="#6EFFDC" stroke="#12192D" stroke-width="0.3" stroke-linecap="round" stroke-linejoin="round"/>
<path d="M70.5261 112.341V78.4416C70.5261 77.3766 69.6847 77.0571 68.6463 77.6428L39.8587 94.2732C39.3348 94.5861 38.8914 95.0173 38.564 95.5324C38.2367 96.0475 38.0345 96.632 37.9736 97.2393V131.134C37.9736 132.199 38.8203 132.524 39.8587 131.938L68.6463 115.307C69.171 114.996 69.6147 114.565 69.9413 114.049C70.268 113.534 70.4683 112.949 70.5261 112.341Z" fill="#8CFFE6" stroke="#12192D" stroke-width="0.3" stroke-linecap="round" stroke-linejoin="round"/>
<path d="M70.5261 112.336V78.4415" stroke="#12192D" stroke-width="0.3" stroke-linecap="round" stroke-linejoin="round"/>
<path d="M70.5261 78.4416C70.5261 77.3766 69.6848 77.0571 68.6464 77.6428L70.5261 78.4416Z" fill="#00DCFF"/>
<path d="M70.5261 78.4416C70.5261 77.3766 69.6848 77.0571 68.6464 77.6428" stroke="#12192D" stroke-width="0.3" stroke-linecap="round" stroke-linejoin="round"/>
<path d="M68.6464 77.6375L39.8588 94.2678" stroke="#12192D" stroke-width="0.3" stroke-linecap="round" stroke-linejoin="round"/>
<path d="M39.8587 94.2732C39.3348 94.5861 38.8914 95.0174 38.564 95.5324C38.2367 96.0475 38.0345 96.632 37.9736 97.2393" fill="#00DCFF"/>
<path d="M39.8587 94.2732C39.3348 94.5861 38.8914 95.0174 38.564 95.5324C38.2367 96.0475 38.0345 96.632 37.9736 97.2393" stroke="#12192D" stroke-width="0.3" stroke-linecap="round" stroke-linejoin="round"/>
<path d="M37.9736 97.2339V131.134" stroke="#12192D" stroke-width="0.3" stroke-linecap="round" stroke-linejoin="round"/>
<path d="M37.9736 131.134C37.9736 132.199 38.8203 132.524 39.8587 131.938L37.9736 131.134Z" fill="#00DCFF"/>
<path d="M37.9736 131.134C37.9736 132.199 38.8203 132.524 39.8587 131.938" stroke="#12192D" stroke-width="0.3" stroke-linecap="round" stroke-linejoin="round"/>
<path d="M39.8588 131.938L68.6464 115.307" stroke="#12192D" stroke-width="0.3" stroke-linecap="round" stroke-linejoin="round"/>
<path d="M68.6464 115.307C69.171 114.996 69.6147 114.565 69.9413 114.049C70.268 113.534 70.4683 112.949 70.5261 112.341" fill="#00DCFF"/>
<path d="M68.6464 115.307C69.171 114.996 69.6147 114.565 69.9413 114.049C70.268 113.534 70.4683 112.949 70.5261 112.341" stroke="#12192D" stroke-width="0.3" stroke-linecap="round" stroke-linejoin="round"/>
<path d="M36.8501 94.7897C36.5593 95.2441 36.3957 95.7682 36.3761 96.3073V130.239C36.3581 130.43 36.3952 130.622 36.483 130.793C36.5707 130.964 36.7055 131.106 36.8714 131.203L38.389 132.071C38.2483 131.962 38.1371 131.82 38.0654 131.657C37.9938 131.494 37.9641 131.316 37.979 131.139V97.2392C38.0003 96.7004 38.1638 96.1768 38.4529 95.7216L36.8554 94.7897H36.8501Z" fill="#14B491" stroke="#12192D" stroke-width="0.3" stroke-linecap="round" stroke-linejoin="round"/>
<path opacity="0.45" d="M44.1401 99.907C48.6771 92.0525 56.1163 87.8563 60.7599 90.5348C60.8238 90.5721 60.8877 90.6094 60.9462 90.652L62.6556 91.6318C58.0121 88.9693 50.5676 93.1495 46.0306 101.004C41.4936 108.859 41.5841 117.4 46.2223 120.084L44.3105 118.976C39.6883 116.282 39.6085 107.751 44.1401 99.907ZM46.2702 120.1H46.2382H46.2702Z" fill="#12192D"/>
<path d="M46.0412 101.004C50.5836 93.1442 58.0387 88.9481 62.6609 91.6319C67.2832 94.3158 67.3897 102.852 62.8526 110.706C58.3156 118.561 50.8764 122.763 46.2329 120.079C41.5894 117.395 41.5309 108.859 46.0412 101.004Z" fill="#12192D"/>
<path d="M62.6555 111.042C62.1504 111.888 61.6012 112.708 61.0101 113.497C59.4175 114.345 57.6322 114.765 55.8287 114.716C52.0532 114.716 48.9966 113.119 48.9966 111.207C48.9966 109.295 52.0532 107.698 55.8287 107.698C59.4977 107.698 62.4851 109.178 62.6555 111.042Z" fill="#12192D"/>
<path d="M62.5544 111.207C58.1239 118.534 51.1693 122.486 46.611 120.26L48.9966 111.207H62.5544Z" fill="#12192D"/>
<path d="M53.3367 119.972C52.4724 120.361 51.5613 120.637 50.6262 120.792V116.42C50.6262 116.059 50.7698 115.712 51.0255 115.456C51.2812 115.201 51.6279 115.057 51.9895 115.057C52.351 115.057 52.6977 115.201 52.9534 115.456C53.2091 115.712 53.3527 116.059 53.3527 116.42L53.3367 119.972Z" fill="#12192D"/>
<path d="M62.6555 111.042C62.1504 111.888 61.6012 112.708 61.0101 113.497C59.4175 114.345 57.6322 114.765 55.8287 114.716C52.0532 114.716 48.9966 113.119 48.9966 111.207C48.9966 109.295 52.0532 107.698 55.8287 107.698C59.4977 107.698 62.4851 109.178 62.6555 111.042Z" fill="#12192D"/>
<path d="M61.2337 106.627C60.5521 110.201 57.6127 112.645 54.6732 112.086C51.7337 111.527 49.8806 108.172 50.5728 104.599C51.2651 101.025 54.1939 98.5812 57.1334 99.1403C60.0729 99.6995 61.926 103.049 61.2337 106.627Z" fill="#12192D"/>
<path d="M57.863 107.288C57.7687 107.523 57.6095 107.726 57.404 107.875C57.1984 108.023 56.955 108.109 56.7021 108.124C56.4492 108.14 56.1972 108.082 55.9755 107.96C55.7538 107.837 55.5715 107.654 55.4499 107.432C55.3283 107.209 55.2724 106.957 55.2887 106.704C55.3049 106.451 55.3928 106.208 55.5419 106.004C55.691 105.799 55.8952 105.641 56.1308 105.547C56.3664 105.454 56.6237 105.43 56.8726 105.477C57.2416 105.59 57.552 105.842 57.7372 106.18C57.9223 106.519 57.9675 106.916 57.863 107.288Z" fill="#12192D"/>
<path d="M61.6066 105.946C61.5123 106.181 61.3531 106.385 61.1475 106.533C60.942 106.681 60.6985 106.767 60.4456 106.783C60.1927 106.798 59.9407 106.741 59.719 106.618C59.4973 106.495 59.315 106.312 59.1934 106.09C59.0718 105.867 59.0159 105.615 59.0322 105.362C59.0485 105.11 59.1363 104.867 59.2854 104.662C59.4345 104.457 59.6388 104.299 59.8744 104.205C60.11 104.112 60.3672 104.088 60.6161 104.135C60.9844 104.249 61.2939 104.501 61.4788 104.84C61.6638 105.178 61.7096 105.575 61.6066 105.946Z" fill="#12192D"/>
<path d="M47.4258 120.601C47.0085 120.471 46.6081 120.292 46.233 120.068C43.9112 118.731 42.729 115.93 42.6918 112.485C44.4597 106.43 50.2801 99.6728 50.2801 99.6728C51.4303 97.4309 54.9555 96.3073 57.3146 97.2019L57.5222 97.2765C57.6767 97.3298 57.8311 97.3937 57.9855 97.4576C58.7201 97.7483 59.3813 98.198 59.9217 98.7743C60.4621 99.3506 60.8684 100.039 61.1114 100.791C61.3491 101.558 61.3491 102.378 61.1114 103.145L58.6192 101.867C57.9291 102.916 56.9397 103.733 55.7793 104.212C54.6189 104.692 53.3412 104.812 52.1119 104.556C51.8989 104.513 51.654 104.982 51.3877 105.562C50.8067 106.831 50.462 108.196 50.3706 109.588L50.1363 113.353C49.8807 117.347 48.4216 119.546 47.4258 120.601Z" fill="#12192D"/>
<path d="M46.0572 101.009C50.5835 93.1548 58.0387 88.9586 62.6769 91.6371L62.8686 91.7543L64.5779 92.7341C59.9344 90.0715 52.4952 94.2518 47.9582 102.106C43.4212 109.961 43.5064 118.502 48.1446 121.186L46.2276 120.079C41.6107 117.379 41.5308 108.859 46.0572 101.009ZM48.1872 121.208H48.1606H48.1872Z" fill="#FF9846" stroke="#12192D" stroke-width="0.3" stroke-linecap="round" stroke-linejoin="round"/>
<path d="M47.9582 102.106C52.4952 94.2465 59.9344 90.0502 64.5779 92.7341C69.2214 95.418 69.3066 103.954 64.7696 111.814C60.2326 119.674 52.7934 123.865 48.1499 121.186C43.5064 118.508 43.4212 109.961 47.9582 102.106Z" fill="#FFC13C" stroke="#12192D" stroke-width="0.3" stroke-linecap="round" stroke-linejoin="round"/>
<path d="M64.578 112.144C64.0722 112.99 63.523 113.81 62.9325 114.599C61.3396 115.446 59.5546 115.866 57.7512 115.819C53.9756 115.819 50.9137 114.221 50.9137 112.309C50.9137 110.398 53.9756 108.8 57.7512 108.8C61.4148 108.8 64.4289 110.286 64.578 112.144Z" fill="#EFEFEF" stroke="#231815" stroke-width="0.3" stroke-linecap="round" stroke-linejoin="round"/>
<path d="M64.4768 112.309C60.041 119.642 53.0864 123.588 48.5281 121.362L50.9137 112.309H64.4768Z" fill="#46E6C3" stroke="#12192D" stroke-width="0.3" stroke-linecap="round" stroke-linejoin="round"/>
<path d="M55.259 121.074C54.3928 121.464 53.48 121.739 52.5432 121.895V117.523C52.5315 117.336 52.5582 117.149 52.6216 116.973C52.685 116.797 52.7837 116.636 52.9117 116.5C53.0396 116.364 53.1942 116.255 53.3657 116.181C53.5372 116.107 53.7222 116.069 53.9091 116.069C54.096 116.069 54.2809 116.107 54.4525 116.181C54.624 116.255 54.7785 116.364 54.9065 116.5C55.0345 116.636 55.1332 116.797 55.1966 116.973C55.2599 117.149 55.2866 117.336 55.275 117.523L55.259 121.074Z" fill="#32CDA0" stroke="#12192D" stroke-width="0.3" stroke-linecap="round" stroke-linejoin="round"/>
<path d="M64.578 112.144C64.0722 112.99 63.523 113.81 62.9325 114.599C61.3396 115.446 59.5546 115.866 57.7512 115.819C53.9756 115.819 50.9137 114.221 50.9137 112.309C50.9137 110.398 53.9756 108.8 57.7512 108.8C61.4148 108.8 64.4289 110.286 64.578 112.144Z" fill="#00A073" stroke="#12192D" stroke-width="0.3" stroke-linecap="round" stroke-linejoin="round"/>
<path d="M63.1615 107.73C62.4852 111.303 59.5457 113.747 56.601 113.188C53.6562 112.629 51.8083 109.274 52.5006 105.701C53.1929 102.128 56.1217 99.6835 59.0665 100.243C62.0113 100.802 63.8431 104.157 63.1615 107.73Z" fill="#FFE48F" stroke="#12192D" stroke-width="0.3" stroke-linecap="round" stroke-linejoin="round"/>
<path d="M49.3428 121.703C48.9264 121.571 48.5262 121.392 48.15 121.17C45.8336 119.828 44.6514 117.027 44.6141 113.582C46.3821 107.543 52.1811 100.786 52.1811 100.786C53.3367 98.5439 56.8619 97.4256 59.221 98.3149L59.4233 98.3894L59.8866 98.5705C60.6214 98.8619 61.283 99.3117 61.8242 99.8878C62.3654 100.464 62.7729 101.152 63.0178 101.904C63.2553 102.672 63.2553 103.495 63.0178 104.263L60.5416 103.001C59.8483 104.044 58.8582 104.855 57.6992 105.33C56.5401 105.805 55.2654 105.921 54.0396 105.664C53.8213 105.616 53.5816 106.084 53.3101 106.665C52.7235 107.933 52.3785 109.301 52.293 110.696L52.0533 114.455C51.7977 118.444 50.3386 120.648 49.3428 121.703Z" fill="#505569" stroke="#12192D" stroke-width="0.3" stroke-linecap="round" stroke-linejoin="round"/>
<path d="M143.523 127.071L207.302 90.2953V66.6305L143.523 103.518V127.071Z" fill="#00DCFF" stroke="#12192D" stroke-width="0.3" stroke-linecap="round" stroke-linejoin="round"/>
<path d="M142.08 102.628L205.853 65.8529L207.302 66.6304L143.523 103.517L142.08 102.628Z" fill="#1EFAFF" stroke="#12192D" stroke-width="0.3" stroke-linecap="round" stroke-linejoin="round"/>
<path d="M143.523 127.071L142.08 126.293V102.628L143.523 103.517V127.071Z" fill="#0096B9" stroke="#12192D" stroke-width="0.3" stroke-linecap="round" stroke-linejoin="round"/>
<path d="M187.844 92.3881L187.86 94.6086L147.618 117.837L147.602 115.616L187.844 92.3881Z" fill="#6EFFDA" stroke="#12192D" stroke-width="0.3" stroke-linecap="round" stroke-linejoin="round"/>
<path d="M204.517 76.0613L204.533 78.2765L147.618 111.138L147.602 108.923L204.517 76.0613Z" fill="#6EFFDA" stroke="#12192D" stroke-width="0.3" stroke-linecap="round" stroke-linejoin="round"/>
<path d="M235.525 51.1396L234.46 50.5378C234.302 50.4622 234.127 50.4317 233.953 50.4495C233.779 50.4674 233.614 50.5329 233.475 50.639L213.894 61.9389C213.5 62.1852 213.171 62.5232 212.936 62.9241L214.001 63.5578C214.235 63.1557 214.564 62.8173 214.959 62.5726L234.534 51.2621C234.676 51.1592 234.841 51.0939 235.014 51.0725C235.187 51.0511 235.363 51.0742 235.525 51.1396Z" fill="#1EFAFF" stroke="#12192D" stroke-width="0.3" stroke-linecap="round" stroke-linejoin="round"/>
<path d="M235.855 74.8631V51.8106C235.855 51.1024 235.28 50.8681 234.577 51.2781L215.002 62.5887C214.646 62.8017 214.344 63.0951 214.121 63.4456C213.898 63.796 213.76 64.1937 213.719 64.6069V87.6594C213.719 88.3676 214.294 88.6019 215.002 88.1919L234.577 76.9079C234.936 76.6917 235.239 76.3938 235.461 76.0385C235.683 75.6832 235.818 75.2804 235.855 74.8631Z" fill="#00DCFF" stroke="#12192D" stroke-width="0.3" stroke-linecap="round" stroke-linejoin="round"/>
<path d="M235.855 74.8578V51.8053" stroke="#12192D" stroke-width="0.3" stroke-linecap="round" stroke-linejoin="round"/>
<path d="M235.855 51.8106C235.855 51.1024 235.28 50.8681 234.577 51.2781L235.855 51.8106Z" fill="#00DCFF"/>
<path d="M235.855 51.8106C235.855 51.1024 235.28 50.8681 234.577 51.2781" stroke="#12192D" stroke-width="0.3" stroke-linecap="round" stroke-linejoin="round"/>
<path d="M234.577 51.2621L215.002 62.5727" stroke="#12192D" stroke-width="0.3" stroke-linecap="round" stroke-linejoin="round"/>
<path d="M215.002 62.5726C214.646 62.7856 214.344 63.0791 214.121 63.4295C213.898 63.7799 213.76 64.1777 213.719 64.5908" fill="#00DCFF"/>
<path d="M215.002 62.5726C214.646 62.7856 214.344 63.0791 214.121 63.4295C213.898 63.7799 213.76 64.1777 213.719 64.5908" stroke="#12192D" stroke-width="0.3" stroke-linecap="round" stroke-linejoin="round"/>
<path d="M213.719 64.5909V87.6434" stroke="#12192D" stroke-width="0.3" stroke-linecap="round" stroke-linejoin="round"/>
<path d="M213.719 87.6434C213.719 88.3517 214.294 88.586 215.002 88.1759L213.719 87.6434Z" fill="#00DCFF"/>
<path d="M213.719 87.6434C213.719 88.3517 214.294 88.586 215.002 88.1759" stroke="#12192D" stroke-width="0.3" stroke-linecap="round" stroke-linejoin="round"/>
<path d="M215.002 88.1865L234.577 76.876" stroke="#12192D" stroke-width="0.3" stroke-linecap="round" stroke-linejoin="round"/>
<path d="M234.577 76.908C234.933 76.6944 235.233 76.4007 235.455 76.0503C235.677 75.6999 235.814 75.3025 235.855 74.8898" fill="#00DCFF"/>
<path d="M234.577 76.908C234.933 76.6944 235.233 76.4007 235.455 76.0503C235.677 75.6999 235.814 75.3025 235.855 74.8898" stroke="#12192D" stroke-width="0.3" stroke-linecap="round" stroke-linejoin="round"/>
<path d="M212.952 62.9241C212.756 63.2347 212.644 63.5906 212.627 63.9571V87.0256C212.614 87.1567 212.64 87.2887 212.7 87.4058C212.761 87.5229 212.854 87.6201 212.968 87.6859L214.001 88.2717C213.904 88.1984 213.828 88.1019 213.778 87.9911C213.729 87.8803 213.708 87.7588 213.719 87.638V64.5908C213.736 64.2242 213.848 63.8684 214.043 63.5578L212.978 62.9241H212.952Z" fill="#0096B9" stroke="#12192D" stroke-width="0.3" stroke-linecap="round" stroke-linejoin="round"/>
<path d="M219.603 66.6837C222.495 61.6781 227.239 58.9996 230.2 60.7089C233.161 62.4183 233.214 67.8659 230.323 72.8715C227.431 77.8771 222.686 80.5557 219.726 78.8516C216.765 77.1476 216.728 71.6946 219.603 66.6837Z" fill="#12192D"/>
<path d="M230.2 73.0844C229.873 73.6248 229.518 74.1474 229.135 74.65C228.12 75.1897 226.983 75.4575 225.833 75.4274C223.426 75.4274 221.472 74.4263 221.472 73.1909C221.472 71.9555 223.426 70.9543 225.833 70.9543C228.24 70.9543 230.094 71.8969 230.2 73.0844Z" fill="#12192D"/>
<path d="M230.136 73.1803C227.308 77.8504 222.873 80.3692 219.97 78.9634L221.488 73.1803H230.136Z" fill="#12192D"/>
<path d="M230.2 73.0844C229.873 73.6248 229.518 74.1474 229.135 74.65C228.12 75.1897 226.983 75.4575 225.833 75.4274C223.426 75.4274 221.472 74.4263 221.472 73.1909C221.472 71.9555 223.426 70.9543 225.833 70.9543C228.24 70.9543 230.094 71.8969 230.2 73.0844Z" fill="#12192D"/>
<path d="M225.658 73.8139C227.581 73.8139 229.14 71.7993 229.14 69.3142C229.14 66.8291 227.581 64.8145 225.658 64.8145C223.734 64.8145 222.175 66.8291 222.175 69.3142C222.175 71.7993 223.734 73.8139 225.658 73.8139Z" fill="#12192D"/>
<path d="M227.378 67.3226C227.603 67.5404 227.887 67.6873 228.194 67.745C228.502 67.8028 228.82 67.7689 229.108 67.6475C229.493 67.4424 229.824 67.1485 230.072 66.7901C229.518 66.8653 228.955 66.7508 228.475 66.4653C228.692 66.4793 228.907 66.415 229.081 66.2841C229.255 66.1532 229.376 65.9643 229.423 65.7517C228.331 65.8529 227.735 65.2885 226.819 64.9743C226.065 64.7378 225.253 64.7736 224.523 65.0755C223.171 65.6932 222.202 67.3546 222.202 69.3356C222.2 69.828 222.263 70.3185 222.388 70.7946C222.761 70.2621 223.059 69.0427 223.331 69.0853C224.104 69.229 224.903 69.1379 225.624 68.8238C226.345 68.5097 226.956 67.9869 227.378 67.3226Z" fill="#12192D"/>
<path opacity="0.45" d="M218.394 65.9861C221.286 60.9805 226.03 58.3019 228.991 60.0113L229.108 60.0858L230.2 60.7089C227.239 59.0048 222.495 61.678 219.603 66.689C216.712 71.6999 216.77 77.1369 219.726 78.8516L218.501 78.1433C215.556 76.4233 215.508 70.9864 218.394 65.9861Z" fill="#12192D"/>
<path d="M219.619 66.6891C222.51 61.6835 227.255 59.0049 230.216 60.7143L230.333 60.7888L231.425 61.4172C228.464 59.7078 223.719 62.3811 220.828 67.392C217.936 72.4029 217.989 77.8399 220.95 79.5546L219.725 78.8463C216.781 77.1317 216.727 71.6947 219.619 66.6891Z" fill="#FA2D5A" stroke="#12192D" stroke-width="0.3" stroke-linecap="round" stroke-linejoin="round"/>
<path d="M220.828 67.3866C223.719 62.381 228.464 59.7024 231.425 61.4118C234.385 63.1212 234.439 68.5688 231.547 73.5797C228.656 78.5906 223.911 81.2638 220.95 79.5545C217.989 77.8451 217.936 72.3975 220.828 67.3866Z" fill="#FF78A2" stroke="#12192D" stroke-width="0.3" stroke-linecap="round" stroke-linejoin="round"/>
<path d="M231.425 73.7874C231.098 74.3278 230.742 74.8504 230.36 75.353C229.344 75.8952 228.204 76.1631 227.053 76.1304C224.646 76.1304 222.697 75.1293 222.697 73.8939C222.697 72.6585 224.646 71.6573 227.053 71.6573C229.46 71.6573 231.313 72.6052 231.425 73.7874Z" fill="#EFEFEF" stroke="#231815" stroke-width="0.3" stroke-linecap="round" stroke-linejoin="round"/>
<path d="M231.361 73.8939C228.533 78.5694 224.097 81.0828 221.19 79.677L222.713 73.8939H231.361Z" fill="#46E6C3" stroke="#12192D" stroke-width="0.3" stroke-linecap="round" stroke-linejoin="round"/>
<path d="M231.425 73.7874C231.098 74.3278 230.742 74.8504 230.36 75.353C229.344 75.8952 228.204 76.1631 227.053 76.1304C224.646 76.1304 222.697 75.1293 222.697 73.8939C222.697 72.6585 224.646 71.6573 227.053 71.6573C229.46 71.6573 231.313 72.6052 231.425 73.7874Z" fill="#00A073" stroke="#12192D" stroke-width="0.3" stroke-linecap="round" stroke-linejoin="round"/>
<path d="M226.877 74.5169C228.801 74.5169 230.36 72.5023 230.36 70.0172C230.36 67.5321 228.801 65.5175 226.877 65.5175C224.954 65.5175 223.395 67.5321 223.395 70.0172C223.395 72.5023 224.954 74.5169 226.877 74.5169Z" fill="#FFE48F" stroke="#12192D" stroke-width="0.3" stroke-linecap="round" stroke-linejoin="round"/>
<path d="M228.597 68.0256C228.822 68.2443 229.105 68.3922 229.413 68.4509C229.721 68.5096 230.039 68.4765 230.328 68.3558C230.711 68.1489 231.042 67.8553 231.292 67.4985C230.737 67.5703 230.175 67.4541 229.694 67.1683C229.911 67.1823 230.126 67.118 230.3 66.9871C230.474 66.8562 230.595 66.6673 230.642 66.4547C229.577 66.5559 228.954 65.9914 228.033 65.6772C227.281 65.4411 226.471 65.4769 225.743 65.7784C224.39 66.3961 223.421 68.0629 223.421 70.0385C223.419 70.5309 223.482 71.0215 223.608 71.4976C223.98 70.9651 224.279 69.7457 224.55 69.7936C225.324 69.9353 226.123 69.8428 226.844 69.5278C227.565 69.2128 228.175 68.6898 228.597 68.0256Z" fill="#505569" stroke="#12192D" stroke-width="0.3" stroke-linecap="round" stroke-linejoin="round"/>
<path opacity="0.6" d="M413.373 178.554L378.164 198.88C376.327 199.945 374.82 202.299 374.82 204.136C374.82 205.973 376.327 206.596 378.164 205.531L413.373 185.205C415.211 184.14 416.718 181.786 416.718 179.949C416.718 178.112 415.211 177.489 413.373 178.554Z" fill="#12192D"/>
<path opacity="0.6" d="M426.473 170.726L425.286 171.258C423.783 171.911 422.532 173.032 421.718 174.454C421.272 175.217 421.019 176.078 420.983 176.962C420.983 178.762 422.49 179.422 424.327 178.357L425.515 177.824C427.018 177.175 428.269 176.053 429.077 174.629C429.527 173.867 429.782 173.006 429.818 172.121C429.818 170.284 428.311 169.661 426.473 170.726Z" fill="#12192D"/>
<path d="M256.362 34.6265C256.261 34.6286 256.163 34.6561 256.075 34.7063C255.988 34.7566 255.914 34.828 255.862 34.914L252.858 39.0996C252.826 39.1294 252.788 39.1529 252.747 39.1688L254.632 38.6363C254.674 38.6245 254.712 38.6025 254.744 38.5724L257.747 34.3762C257.875 34.2583 258.028 34.1709 258.194 34.1206L256.362 34.6265Z" fill="#A064D7" stroke="#12192D" stroke-width="0.3" stroke-linecap="round" stroke-linejoin="round"/>
<path d="M253.881 1.21656L253.833 1.18994H253.785H253.732H253.678H253.625H253.428H253.354L251.469 1.72245C251.551 1.70373 251.636 1.70373 251.719 1.72245C251.818 1.74221 251.913 1.7782 252.001 1.82896L298.862 29.0617L300.747 28.5291L253.881 1.21656Z" fill="#C387FA" stroke="#12192D" stroke-width="0.3" stroke-linecap="round" stroke-linejoin="round"/>
<path d="M302.749 57.6469L301.961 31.1118V31.0213C301.958 30.9965 301.958 30.9715 301.961 30.9467C301.959 30.9219 301.959 30.8969 301.961 30.8721C301.961 30.8721 301.961 30.8242 301.961 30.8029C301.961 30.7816 301.961 30.7603 301.961 30.739C301.959 30.7285 301.959 30.7176 301.961 30.7071V30.6804C301.961 30.6804 301.961 30.6379 301.961 30.6165C301.964 30.6007 301.964 30.5845 301.961 30.5686C301.961 30.5686 301.961 30.5313 301.961 30.5154C301.959 30.4977 301.959 30.4798 301.961 30.4621C301.959 30.4463 301.959 30.4301 301.961 30.4142C301.961 30.3663 301.961 30.3663 301.961 30.3183C301.961 30.3183 301.961 30.281 301.961 30.2651V30.2118C301.964 30.1906 301.964 30.1692 301.961 30.1479C301.964 30.1231 301.964 30.0982 301.961 30.0734C301.956 30.0492 301.947 30.0259 301.935 30.0041C301.923 29.9625 301.909 29.9216 301.892 29.8817C301.892 29.8444 301.865 29.8071 301.849 29.7645L301.818 29.6847L301.786 29.6208V29.5835L301.759 29.5302V29.477C301.752 29.4582 301.743 29.4404 301.732 29.4237L301.7 29.3651L301.668 29.3119V29.264L301.626 29.2C301.615 29.1752 301.6 29.1519 301.583 29.1309L301.535 29.0616C301.516 29.0396 301.498 29.0164 301.482 28.9924L301.45 28.9498C301.435 28.9278 301.417 28.9081 301.397 28.8912L301.349 28.8379L301.301 28.79L301.264 28.7528L301.216 28.7101L301.168 28.6729L301.12 28.6356L301.072 28.6036H301.035L299.15 29.1362C299.235 29.1847 299.313 29.2437 299.384 29.3119C299.464 29.3867 299.538 29.4668 299.608 29.5515C299.682 29.6439 299.75 29.7418 299.81 29.8444C299.874 29.9509 299.932 30.0627 299.991 30.1799C300.034 30.2757 300.076 30.3769 300.114 30.4781C300.13 30.5181 300.144 30.5589 300.156 30.6006C300.193 30.7124 300.231 30.8242 300.263 30.9414C300.295 31.0745 300.321 31.2076 300.342 31.3461C300.361 31.4802 300.372 31.6154 300.374 31.7508L300.864 58.1954C300.879 58.3725 300.879 58.5507 300.864 58.7279C300.843 58.8655 300.803 58.9998 300.747 59.1273C300.713 59.2141 300.662 59.2936 300.598 59.3616C300.58 59.3841 300.56 59.4054 300.54 59.4255C300.478 59.4896 300.401 59.5372 300.316 59.5639L302.201 59.0314C302.286 59.0047 302.363 58.9571 302.425 58.8929C302.439 58.8637 302.452 58.8334 302.462 58.8024C302.488 58.7754 302.513 58.7469 302.536 58.7172L302.595 58.6161V58.5681L302.627 58.4829C302.627 58.4829 302.627 58.435 302.627 58.4084C302.625 58.3836 302.625 58.3586 302.627 58.3338V58.2593C302.624 58.238 302.624 58.2166 302.627 58.1954C302.627 58.1954 302.627 58.1474 302.627 58.1208C302.627 58.0942 302.627 58.0729 302.627 58.0463C302.63 58.0233 302.63 58 302.627 57.977C302.629 57.9522 302.629 57.9273 302.627 57.9025C302.624 57.8777 302.624 57.8527 302.627 57.8279V57.7374C302.627 57.7374 302.749 57.6735 302.749 57.6469Z" fill="#A064D7" stroke="#12192D" stroke-width="0.3" stroke-linecap="round" stroke-linejoin="round"/>
<path d="M298.841 28.9818C299.49 29.3598 300.044 30.542 300.076 31.6443L300.864 58.1954C300.896 59.2604 300.396 59.8462 299.746 59.4681L257.832 35.1057C257.262 34.7755 256.384 34.3016 255.862 34.914L252.858 39.0995C252.806 39.1428 252.74 39.1665 252.672 39.1665C252.604 39.1665 252.538 39.1428 252.486 39.0995C252.289 38.9392 252.131 38.7369 252.023 38.5074C251.915 38.2779 251.86 38.0271 251.863 37.7735L250.872 3.00579C250.84 1.94077 251.346 1.35503 251.996 1.73311L298.841 28.9818Z" fill="#E1A5F0" stroke="#12192D" stroke-width="0.3" stroke-linecap="round" stroke-linejoin="round"/>
<path d="M263.993 22.3307C262.699 20.0888 260.564 18.9013 259.201 19.6681C257.837 20.435 257.816 22.8898 259.11 25.1317C260.404 27.3736 262.545 28.5611 263.903 27.7943C265.261 27.0275 265.287 24.5726 263.993 22.3307Z" fill="#FFE48F" stroke="#12192D" stroke-width="0.3" stroke-linecap="round" stroke-linejoin="round"/>
<path d="M263.993 27.7357L265.149 27.0967C266.475 26.298 266.475 23.9017 265.149 21.6704C263.823 19.4392 261.709 18.2251 260.388 19.0079L259.195 19.6735C259.378 19.5634 259.581 19.491 259.792 19.4605C261.118 19.2262 262.875 20.3764 263.993 22.3201C264.92 23.9176 265.165 25.6377 264.733 26.7613C264.684 26.9662 264.593 27.1584 264.464 27.3255C264.336 27.4925 264.173 27.6305 263.988 27.7304L263.993 27.7357Z" fill="#FF9846" stroke="#12192D" stroke-width="0.3" stroke-linecap="round" stroke-linejoin="round"/>
<path d="M277.141 29.9616C275.847 27.7197 273.712 26.5322 272.348 27.299C270.985 28.0658 270.964 30.494 272.258 32.7625C273.552 35.0311 275.692 36.1866 277.05 35.4251C278.408 34.6636 278.435 32.2034 277.141 29.9616Z" fill="#FFE48F" stroke="#12192D" stroke-width="0.3" stroke-linecap="round" stroke-linejoin="round"/>
<path d="M277.141 35.372L278.297 34.7276C279.622 33.9342 279.622 31.5325 278.297 29.3013C276.971 27.0701 274.856 25.8613 273.536 26.6387L272.343 27.2991C272.526 27.1901 272.729 27.1194 272.939 27.0914C274.265 26.8571 276.023 28.0073 277.141 29.951C278.068 31.5485 278.312 33.2632 277.881 34.3921C277.831 34.5965 277.739 34.7883 277.61 34.9551C277.482 35.122 277.32 35.2603 277.136 35.3613L277.141 35.372Z" fill="#FF9846" stroke="#12192D" stroke-width="0.3" stroke-linecap="round" stroke-linejoin="round"/>
<path d="M290.289 37.5872C288.995 35.3453 286.859 34.1631 285.496 34.9246C284.133 35.6861 284.111 38.1463 285.405 40.3882C286.7 42.6301 288.84 43.8176 290.198 43.0508C291.556 42.2839 291.583 39.8291 290.289 37.5872Z" fill="#FFE48F" stroke="#12192D" stroke-width="0.3" stroke-linecap="round" stroke-linejoin="round"/>
<path d="M290.289 42.9921L291.444 42.3531C292.77 41.5597 292.77 39.158 291.444 36.9268C290.118 34.6956 288.004 33.4868 286.684 34.2642L285.491 34.9245C285.674 34.8162 285.877 34.7439 286.087 34.7116C287.413 34.4773 289.17 35.6275 290.289 37.5711C291.215 39.1687 291.46 40.8887 291.029 42.0176C290.979 42.2216 290.887 42.4128 290.759 42.5789C290.63 42.7449 290.468 42.8821 290.283 42.9815L290.289 42.9921Z" fill="#FF9846" stroke="#12192D" stroke-width="0.3" stroke-linecap="round" stroke-linejoin="round"/>
<path d="M352.152 84.079L353.521 83.1663C353.748 83.2502 354.034 83.3924 354.29 83.5549C354.43 83.6442 354.559 83.7377 354.661 83.8285C354.765 83.9211 354.834 84.0029 354.866 84.0671C354.887 84.1094 354.914 84.1999 354.943 84.3499C354.97 84.4954 354.998 84.6837 355.024 84.9117C355.076 85.3675 355.125 85.9739 355.171 86.6969C355.262 88.1426 355.34 90.047 355.413 92.1302C355.46 93.4767 355.505 94.8979 355.55 96.3173C355.644 99.2878 355.737 102.251 355.85 104.507C355.873 104.965 355.714 105.295 355.469 105.513C355.22 105.734 354.871 105.85 354.5 105.85C354.337 105.85 354.171 105.791 353.999 105.685C353.827 105.579 353.658 105.432 353.493 105.268C353.378 105.155 353.27 105.039 353.163 104.925C353.115 104.873 353.067 104.822 353.02 104.772C352.895 104.64 352.769 104.514 352.648 104.422L352.152 84.079Z" fill="#FA2D5A" stroke="#12192D" stroke-width="0.3"/>
<path d="M323.134 88.0481C323.016 88.0821 322.908 88.1443 322.82 88.2292L319.955 91.632C319.93 91.653 319.901 91.6692 319.87 91.6799L321.201 91.2912C321.233 91.2826 321.262 91.2661 321.286 91.2432L324.151 87.8405C324.241 87.7575 324.348 87.6956 324.465 87.6594L323.134 88.0481Z" fill="#FA2D5A" stroke="#12192D" stroke-width="0.3" stroke-linecap="round" stroke-linejoin="round"/>
<path d="M321.419 64.4418H321.387H321.35H321.313H321.276H321.238H321.1H321.047L319.715 64.8252C319.775 64.8119 319.837 64.8119 319.896 64.8252C319.967 64.8389 320.036 64.8641 320.099 64.8997L353.162 84.1181L354.494 83.7347L321.419 64.4418Z" fill="#EB648E" stroke="#12192D" stroke-width="0.3" stroke-linecap="round" stroke-linejoin="round"/>
<path d="M353.157 84.0488C353.43 84.2776 353.65 84.5636 353.801 84.8865C353.952 85.2094 354.03 85.5615 354.03 85.918L354.563 104.662C354.563 105.429 354.227 105.829 353.769 105.562L323.869 88.1811C323.712 88.0686 323.521 88.0122 323.328 88.0209C323.135 88.0296 322.95 88.1029 322.804 88.2291L319.939 91.6318C319.901 91.6612 319.854 91.6771 319.806 91.6771C319.758 91.6771 319.711 91.6612 319.673 91.6318C319.534 91.5184 319.422 91.3754 319.346 91.2132C319.269 91.0511 319.23 90.8739 319.231 90.6946L319.284 65.7144C319.284 64.9476 319.614 64.5482 320.077 64.8145L353.157 84.0488Z" fill="#FF78A2" stroke="#12192D" stroke-width="0.3" stroke-linecap="round" stroke-linejoin="round"/>
<path d="M328.555 79.3468C327.644 77.7493 326.132 76.9292 325.184 77.4777C324.236 78.0262 324.204 79.7515 325.12 81.3331C326.036 82.9146 327.543 83.7507 328.491 83.2022C329.439 82.6537 329.476 80.9284 328.555 79.3468Z" fill="#FFC03C" stroke="#12192D" stroke-width="0.3" stroke-linecap="round" stroke-linejoin="round"/>
<path d="M328.555 83.1649L329.37 82.707C330.307 82.1745 330.307 80.4651 329.37 78.8782C328.433 77.2913 326.941 76.45 326.01 77.0091L325.168 77.4777C325.297 77.4 325.44 77.3492 325.589 77.3286C326.521 77.1635 327.762 77.9783 328.555 79.3468C329.21 80.4811 329.38 81.6899 329.087 82.4833C329.051 82.6278 328.985 82.7632 328.894 82.8806C328.802 82.998 328.686 83.0949 328.555 83.1649Z" fill="#FF9846" stroke="#12192D" stroke-width="0.3" stroke-linecap="round" stroke-linejoin="round"/>
<path d="M337.842 84.7305C336.926 83.133 335.419 82.3129 334.471 82.8614C333.523 83.4099 333.491 85.1352 334.402 86.7168C335.313 88.2983 336.825 89.1344 337.778 88.5859C338.731 88.0374 338.753 86.3121 337.842 84.7305Z" fill="#FFC03C" stroke="#12192D" stroke-width="0.3" stroke-linecap="round" stroke-linejoin="round"/>
<path d="M337.842 88.5486L338.673 88.0907C339.61 87.5262 339.61 85.8488 338.673 84.2566C337.736 82.6644 336.244 81.8283 335.313 82.3875L334.471 82.8561C334.6 82.7783 334.743 82.7276 334.892 82.707C335.824 82.5419 337.065 83.3566 337.858 84.7252C338.513 85.8594 338.683 87.0683 338.39 87.8617C338.354 88.0062 338.288 88.1416 338.197 88.259C338.105 88.3764 337.989 88.4733 337.858 88.5433L337.842 88.5486Z" fill="#FF9846" stroke="#12192D" stroke-width="0.3" stroke-linecap="round" stroke-linejoin="round"/>
<path d="M347.124 90.1143C346.208 88.5167 344.701 87.6967 343.748 88.2452C342.794 88.7936 342.773 90.519 343.684 92.1006C344.594 93.6821 346.107 94.5235 347.054 93.975C348.002 93.4265 348.034 91.6958 347.124 90.1143Z" fill="#FFC03C" stroke="#12192D" stroke-width="0.3" stroke-linecap="round" stroke-linejoin="round"/>
<path d="M347.124 93.9483L347.939 93.4957C348.87 92.9632 348.87 91.2538 347.939 89.6669C347.007 88.08 345.51 87.2333 344.573 87.7978L343.732 88.2611C343.862 88.1834 344.007 88.1344 344.158 88.1173C345.09 87.9469 346.33 88.7617 347.124 90.1302C347.779 91.2645 347.949 92.4732 347.656 93.2667C347.621 93.4122 347.555 93.5486 347.463 93.667C347.372 93.7854 347.256 93.883 347.124 93.9537V93.9483Z" fill="#FF9846" stroke="#12192D" stroke-width="0.3" stroke-linecap="round" stroke-linejoin="round"/>
<g opacity="0.9">
<path opacity="0.9" d="M370.725 207.906L299.459 166.791C296.642 165.193 291.652 165.385 288.393 167.238L121.482 263.585C118.218 265.503 117.898 268.32 120.71 269.976L191.982 311.112C193.477 311.901 195.154 312.283 196.843 312.22V317.96C198.988 317.985 201.103 317.454 202.983 316.421L369.894 220.079C371.752 219.051 372.647 217.646 372.557 216.352V211.207C372.817 210.036 372.221 208.806 370.725 207.906Z" fill="#11192F"/>
<path opacity="0.9" d="M120.646 270.045C119.432 269.342 118.793 268.383 118.729 267.425V272.926C118.665 273.991 119.304 275.098 120.646 275.871L191.918 317.007C193.442 317.777 195.138 318.144 196.843 318.072V312.278C195.137 312.357 193.439 311.99 191.918 311.213L120.646 270.045Z" fill="#11192F"/>
</g>
<path d="M299.459 160.912L370.73 202.048C373.542 203.71 373.222 206.527 369.958 208.438L203.047 304.791C199.783 306.65 194.793 306.921 191.982 305.239L120.71 264.107C117.898 262.441 118.218 259.629 121.482 257.717L288.393 161.359C291.652 159.506 296.642 159.314 299.459 160.912Z" fill="#E1FFFE" stroke="#12192D" stroke-width="0.3" stroke-linecap="round" stroke-linejoin="round"/>
<path d="M372.583 204.929V210.494C372.647 211.772 371.752 213.183 369.92 214.222L202.983 310.553C201.102 311.582 198.988 312.11 196.843 312.087V306.266C198.986 306.268 201.095 305.739 202.983 304.727L369.894 208.38C371.624 207.485 372.519 206.207 372.556 204.929H372.583Z" fill="#00DCFF" stroke="#12192D" stroke-width="0.3" stroke-linecap="round" stroke-linejoin="round"/>
<path d="M196.843 312.215C195.138 312.286 193.442 311.919 191.918 311.149L120.646 270.013C119.304 269.246 118.665 268.154 118.729 267.068V261.567C118.793 262.526 119.432 263.484 120.646 264.193L191.918 305.324C193.196 306.096 194.985 306.389 196.843 306.389V312.209V312.215Z" fill="#00AFD2" stroke="#12192D" stroke-width="0.3" stroke-linecap="round" stroke-linejoin="round"/>
<path d="M154.557 244.846L286.279 168.841L354.669 208.316L223.011 284.38L154.557 244.846Z" fill="#34CA9E" stroke="#12192D" stroke-width="0.3" stroke-linecap="round" stroke-linejoin="round"/>
<path d="M223.011 284.353L354.669 208.284L353.759 207.789L223.011 283.331V284.353Z" fill="#46E6C3" stroke="#12192D" stroke-width="0.3" stroke-linecap="round" stroke-linejoin="round"/>
<path d="M155.467 244.319L154.557 244.814L223.011 284.353V283.331L155.467 244.319Z" fill="#029E73" stroke="#12192D" stroke-width="0.3" stroke-linecap="round" stroke-linejoin="round"/>
<path d="M174.835 281.872C180.84 281.872 185.708 278.98 185.708 275.413C185.708 271.845 180.84 268.953 174.835 268.953C168.829 268.953 163.961 271.845 163.961 275.413C163.961 278.98 168.829 281.872 174.835 281.872Z" fill="#6EFFDA" stroke="#12192D" stroke-width="0.3" stroke-linecap="round" stroke-linejoin="round"/>
<path d="M185.645 275.988C185.645 276.179 185.709 276.371 185.709 276.563C185.709 280.147 180.847 283.027 174.835 283.027C168.823 283.027 163.961 280.147 163.961 276.563C163.95 276.369 163.972 276.175 164.025 275.988C164.557 279.252 169.206 281.808 174.835 281.808C180.463 281.808 185.133 279.252 185.645 275.988Z" fill="#14B491" stroke="#12192D" stroke-width="0.3" stroke-linecap="round" stroke-linejoin="round"/>
<path d="M291.487 211.602L292.019 216.266V216.463L291.487 211.799C291.492 211.733 291.492 211.667 291.487 211.602Z" fill="#3B795C"/>
<path d="M291.503 211.799L292.035 216.463C292.049 216.621 292.049 216.78 292.035 216.937L291.503 212.273C291.513 212.115 291.513 211.957 291.503 211.799Z" fill="#3D7D5F"/>
<path d="M291.487 212.273L292.019 216.937C292.009 217.031 291.993 217.123 291.971 217.214L291.439 212.549C291.46 212.458 291.476 212.366 291.487 212.273Z" fill="#3F8163"/>
<g opacity="0.4">
<path opacity="0.4" d="M277.972 216.378L278.488 221.043L247.421 219.765L246.899 215.1L277.972 216.378Z" fill="#12192D"/>
<path opacity="0.4" d="M264.547 200.28C264.547 200.217 264.547 200.147 264.547 200.083C264.552 200.016 264.552 199.948 264.547 199.881L264.014 195.216C264.025 195.349 264.025 195.483 264.014 195.616C264.014 195.685 264.014 195.754 264.014 195.823C264.004 195.92 263.988 196.016 263.966 196.111C263.966 196.191 263.94 196.271 263.918 196.356C263.897 196.441 263.865 196.5 263.844 196.574C263.804 196.694 263.758 196.811 263.705 196.926C263.658 197.029 263.604 197.131 263.546 197.229C263.514 197.282 263.487 197.336 263.45 197.389C263.359 197.533 263.258 197.666 263.152 197.804L263.109 197.857C262.987 198.001 262.848 198.14 262.704 198.278L262.598 198.374C262.443 198.512 262.284 198.646 262.113 198.773C261.922 198.912 261.714 199.045 261.496 199.173L248.763 206.404L249.296 211.069L262.023 203.838L262.262 203.694C262.396 203.614 262.523 203.523 262.646 203.438C262.815 203.315 262.977 203.182 263.13 203.039L263.242 202.943C263.381 202.805 263.519 202.671 263.642 202.528L263.684 202.474C263.793 202.342 263.895 202.203 263.988 202.059L264.078 201.899C264.121 201.83 264.169 201.755 264.206 201.686C264.214 201.655 264.225 201.625 264.238 201.596C264.291 201.481 264.337 201.364 264.376 201.244C264.376 201.191 264.424 201.143 264.44 201.084C264.456 201.026 264.44 201.042 264.44 201.021C264.44 200.999 264.478 200.861 264.494 200.781C264.51 200.701 264.526 200.637 264.536 200.568V200.493C264.542 200.419 264.542 200.35 264.547 200.28Z" fill="#12192D"/>
<path opacity="0.4" d="M221.621 221.826C221.364 221.969 221.099 222.099 220.828 222.215L220.652 222.289C220.423 222.38 220.189 222.465 219.949 222.534C219.731 222.598 219.507 222.651 219.283 222.699C219.209 222.699 219.129 222.731 219.049 222.747L218.634 222.816L218.373 222.848C218.24 222.848 218.112 222.88 217.979 222.885H217.718H217.292H217.047C216.844 222.885 216.642 222.885 216.445 222.854H216.344C216.077 222.826 215.813 222.785 215.55 222.731L215.353 222.688C215.162 222.641 214.975 222.593 214.794 222.534L214.666 222.497C214.451 222.424 214.239 222.341 214.033 222.247L213.884 222.177L213.431 221.932C213.378 221.902 213.326 221.868 213.277 221.831C213.091 221.717 212.913 221.591 212.744 221.453C212.069 220.91 211.629 220.128 211.514 219.27L212.046 223.935C212.161 224.794 212.604 225.577 213.282 226.118C213.452 226.255 213.629 226.381 213.814 226.496L213.974 226.597C214.12 226.682 214.269 226.762 214.421 226.837L214.576 226.911C214.782 227.007 214.994 227.09 215.21 227.162L215.332 227.199C215.518 227.257 215.705 227.305 215.896 227.353H215.998H216.088C216.352 227.412 216.618 227.455 216.887 227.481H216.983C217.182 227.481 217.384 227.492 217.59 227.513H217.792H218.218H218.351H218.479L218.873 227.476C218.93 227.479 218.987 227.479 219.044 227.476H219.139L219.555 227.407L219.736 227.375H219.789C220.013 227.327 220.231 227.273 220.449 227.209C220.689 227.14 220.923 227.055 221.158 226.965C221.185 226.951 221.213 226.94 221.243 226.933L221.333 226.89C221.603 226.775 221.866 226.646 222.122 226.501L234.854 219.275L234.321 214.61L221.621 221.826Z" fill="#12192D"/>
<path opacity="0.4" d="M267.007 230.868C267.007 230.804 267.007 230.735 267.007 230.671V230.469L266.475 225.804C266.483 225.937 266.483 226.07 266.475 226.203C266.48 226.272 266.48 226.342 266.475 226.411C266.466 226.507 266.451 226.603 266.432 226.698C266.419 226.781 266.402 226.863 266.379 226.943C266.359 227.019 266.334 227.094 266.304 227.167C266.265 227.287 266.219 227.404 266.166 227.518C266.116 227.621 266.063 227.723 266.006 227.822C265.974 227.875 265.947 227.928 265.915 227.976C265.824 228.119 265.724 228.255 265.617 228.386L265.575 228.445C265.452 228.589 265.314 228.727 265.17 228.866L265.063 228.962C264.909 229.1 264.749 229.233 264.579 229.361C264.384 229.499 264.176 229.633 263.956 229.76C263.695 229.904 263.426 230.033 263.152 230.149L262.976 230.224C262.742 230.314 262.507 230.399 262.262 230.474H262.23C262.023 230.532 261.81 230.586 261.602 230.634L261.357 230.676L260.952 230.751L260.686 230.783L260.297 230.82H260.031H259.371C259.174 230.82 258.977 230.82 258.785 230.783H258.673C258.402 230.751 258.141 230.708 257.88 230.655L257.688 230.612C257.496 230.57 257.31 230.522 257.156 230.463L257.022 230.421C256.806 230.352 256.594 230.268 256.389 230.17L256.24 230.101C256.08 230.021 255.931 229.941 255.782 229.851L255.622 229.75C255.436 229.634 255.258 229.506 255.089 229.366C254.742 229.075 254.45 228.723 254.227 228.328C254.026 227.975 253.899 227.586 253.854 227.183L254.387 231.848C254.506 232.707 254.95 233.489 255.627 234.031C255.795 234.172 255.973 234.301 256.16 234.414C256.209 234.451 256.261 234.485 256.314 234.516C256.463 234.606 256.618 234.686 256.772 234.766L256.921 234.835C257.127 234.932 257.339 235.015 257.555 235.085L257.688 235.128C257.874 235.187 258.061 235.235 258.247 235.277H258.354C258.384 235.28 258.414 235.28 258.444 235.277C258.7 235.33 258.977 235.373 259.232 235.405H259.344C259.541 235.405 259.733 235.437 259.93 235.442H260.729H260.862L261.251 235.405H261.416H261.512L261.922 235.33C261.982 235.323 262.043 235.312 262.103 235.298H262.161C262.374 235.25 262.582 235.197 262.79 235.139H262.822C263.061 235.064 263.301 234.979 263.535 234.888L263.615 234.856L263.711 234.814C263.984 234.698 264.25 234.568 264.51 234.425L264.749 234.281L265.133 234.026C265.302 233.902 265.464 233.769 265.617 233.626L265.724 233.53C265.866 233.401 266 233.263 266.123 233.115C266.139 233.097 266.153 233.077 266.166 233.057C266.275 232.927 266.375 232.79 266.464 232.646C266.499 232.595 266.531 232.542 266.56 232.487C266.602 232.418 266.645 232.348 266.682 232.274C266.72 232.199 266.682 232.215 266.72 232.189C266.773 232.071 266.815 231.954 266.858 231.837C266.901 231.72 266.901 231.731 266.917 231.677C266.919 231.656 266.919 231.635 266.917 231.613C266.917 231.534 266.948 231.448 266.964 231.369C266.984 231.299 266.999 231.228 267.007 231.155C267.007 231.155 267.007 231.108 267.007 231.081C267.007 231.054 267.007 230.937 267.007 230.868Z" fill="#12192D"/>
<path opacity="0.4" d="M246.899 215.1L247.421 219.765L242.842 241.294L242.325 236.63L246.899 215.1Z" fill="#12192D"/>
<path opacity="0.4" d="M291.439 212.549L287.631 230.479C287.609 230.585 287.58 230.69 287.546 230.793C287.494 230.951 287.433 231.105 287.365 231.257C287.365 231.283 287.365 231.31 287.328 231.331C287.291 231.352 287.227 231.512 287.173 231.603L287.083 231.752C287.008 231.858 286.928 231.965 286.843 232.066L286.785 232.151H286.758C286.662 232.263 286.561 232.37 286.46 232.471L286.337 232.583C286.257 232.657 286.178 232.732 286.092 232.801L285.938 232.923L285.688 233.11L285.512 233.227L285.267 233.376L284.974 233.541L284.745 233.658L284.42 233.807L284.197 233.903C283.968 233.994 283.728 234.079 283.483 234.154L283.302 234.207C283.148 234.249 282.988 234.292 282.828 234.324L282.567 234.377L282.184 234.446L281.901 234.484L281.534 234.516H281.241H280.442C280.24 234.516 280.043 234.5 279.851 234.468C279.587 234.441 279.323 234.4 279.063 234.345L278.871 234.303C278.68 234.255 278.488 234.207 278.307 234.148L278.147 234.1C277.924 234.022 277.711 233.937 277.508 233.845L277.386 233.781C277.226 233.699 277.072 233.614 276.922 233.525L276.773 233.429C276.6 233.315 276.433 233.193 276.273 233.062C275.936 232.776 275.65 232.436 275.426 232.055C275.218 231.694 275.087 231.293 275.043 230.879L275.575 235.543C275.692 236.403 276.134 237.184 276.811 237.727C276.968 237.859 277.134 237.981 277.306 238.094L277.455 238.19C277.604 238.28 277.759 238.366 277.924 238.446L278.046 238.509C278.248 238.602 278.461 238.687 278.685 238.765L278.845 238.813C279.026 238.872 279.212 238.919 279.404 238.967C279.444 238.976 279.483 238.986 279.521 238.999H279.596C279.856 239.054 280.119 239.095 280.384 239.122H280.416C280.597 239.122 280.783 239.154 280.975 239.164H281.901C281.956 239.167 282.012 239.167 282.067 239.164L282.434 239.132H282.583H282.722L283.105 239.063H283.27H283.366C283.526 239.031 283.68 238.989 283.84 238.946L283.984 238.909H284.021C284.266 238.834 284.5 238.749 284.734 238.659H284.793L284.958 238.584L285.278 238.435L285.507 238.318L285.805 238.153L285.911 238.089L286.044 238.004L286.22 237.886L286.47 237.7L286.625 237.578C286.71 237.508 286.79 237.434 286.87 237.359C286.913 237.325 286.954 237.287 286.992 237.247C287.097 237.146 287.197 237.039 287.291 236.928C287.291 236.928 287.328 236.875 287.349 236.848C287.37 236.821 287.514 236.64 287.589 236.534C287.663 236.427 287.647 236.433 287.674 236.385C287.701 236.337 287.786 236.209 287.834 236.113C287.833 236.094 287.833 236.074 287.834 236.055C287.904 235.904 287.965 235.749 288.015 235.591L288.047 235.517C288.047 235.437 288.089 235.357 288.105 235.277L291.907 217.347L291.439 212.549Z" fill="#12192D"/>
<path opacity="0.4" d="M267.849 246.082C267.849 246.034 267.849 245.986 267.849 245.938V245.741L267.316 241.076C267.324 241.19 267.324 241.304 267.316 241.417C267.321 241.495 267.321 241.573 267.316 241.651C267.308 241.782 267.292 241.911 267.268 242.04C267.244 242.145 267.213 242.248 267.178 242.349C267.13 242.508 267.069 242.663 266.997 242.812C266.986 242.84 266.974 242.866 266.959 242.892C266.917 242.983 266.858 243.073 266.805 243.164L266.714 243.313C266.64 243.425 266.555 243.531 266.469 243.638L266.416 243.712H266.39C266.294 243.819 266.198 243.93 266.091 244.032L265.969 244.143C265.889 244.218 265.809 244.293 265.724 244.362L265.569 244.484L265.319 244.671L265.143 244.788L264.898 244.937C264.803 244.995 264.701 245.049 264.6 245.102L264.377 245.219L264.046 245.368C263.977 245.4 263.903 245.437 263.828 245.464C263.595 245.561 263.357 245.646 263.115 245.72L262.928 245.768L262.46 245.89L262.199 245.938L261.815 246.007L261.533 246.044L261.16 246.082H260.873H260.473H260.069L234.189 245.017C233.997 245.017 233.805 245.017 233.619 244.969C233.358 244.942 233.098 244.901 232.841 244.846L232.655 244.804C232.463 244.761 232.271 244.708 232.09 244.649L231.925 244.596C231.706 244.524 231.49 244.438 231.281 244.34L231.169 244.282C231.005 244.202 230.845 244.113 230.69 244.016L230.541 243.925C230.366 243.811 230.199 243.687 230.04 243.552C229.359 243.002 228.912 242.214 228.789 241.348L229.321 246.013C229.44 246.881 229.888 247.67 230.573 248.217C230.73 248.354 230.897 248.479 231.073 248.59L231.222 248.68C231.372 248.776 231.531 248.861 231.696 248.947L231.813 249.005C232.021 249.103 232.235 249.189 232.453 249.261L232.618 249.314C232.804 249.373 232.99 249.426 233.187 249.469L233.299 249.5H233.368C233.625 249.556 233.885 249.596 234.146 249.623H234.183C234.359 249.623 234.54 249.655 234.716 249.666L260.596 250.731H260.995H261.395H261.522H261.687L262.055 250.693H262.204H262.337L262.721 250.624H262.891H262.987L263.45 250.502L263.604 250.464H263.642C263.887 250.39 264.121 250.305 264.355 250.209H264.414L264.574 250.134L264.898 249.985L265.127 249.868L265.426 249.703L265.532 249.639L265.665 249.554L265.841 249.431C265.926 249.373 266.011 249.314 266.091 249.25L266.246 249.128C266.331 249.059 266.411 248.984 266.491 248.909L266.613 248.798C266.72 248.696 266.821 248.585 266.917 248.478L266.965 248.409C267.054 248.306 267.138 248.197 267.215 248.084C267.247 248.036 267.273 247.983 267.3 247.935C267.327 247.887 267.412 247.754 267.46 247.663C267.46 247.663 267.46 247.621 267.487 247.605C267.555 247.454 267.615 247.299 267.668 247.141C267.668 247.141 267.668 247.094 267.694 247.067C267.721 247.04 267.737 246.912 267.753 246.833C267.774 246.738 267.79 246.642 267.801 246.545C267.801 246.513 267.801 246.481 267.801 246.444C267.801 246.407 267.849 246.156 267.849 246.082Z" fill="#12192D"/>
<path opacity="0.4" d="M256.368 223.253C259.179 221.655 263.152 221.82 265.244 223.62C267.337 225.42 266.752 228.173 263.945 229.771C261.139 231.368 257.156 231.203 255.063 229.403C252.97 227.604 253.556 224.85 256.368 223.253Z" fill="#12192D"/>
<path opacity="0.4" d="M266.102 238.893C266.573 239.255 266.933 239.741 267.143 240.297C267.353 240.853 267.404 241.457 267.289 242.04C266.757 244.442 263.562 246.3 260.09 246.13L234.21 245.065C232.694 245.047 231.228 244.526 230.04 243.584C229.567 243.224 229.204 242.74 228.991 242.185C228.779 241.63 228.725 241.026 228.837 240.442L234.332 214.578L221.6 221.804C218.804 223.402 214.81 223.232 212.728 221.448C210.646 219.664 211.226 216.895 214.033 215.297L253.891 192.649C256.703 191.052 260.676 191.217 262.763 193.017C264.85 194.817 264.265 197.565 261.458 199.162L248.726 206.394L286.066 207.927C287.575 207.939 289.037 208.454 290.219 209.392C290.69 209.752 291.052 210.236 291.264 210.79C291.475 211.344 291.528 211.946 291.417 212.528L287.61 230.458C287.104 232.865 283.882 234.686 280.421 234.548C278.909 234.538 277.442 234.027 276.252 233.094C275.781 232.731 275.422 232.244 275.213 231.688C275.004 231.132 274.954 230.529 275.069 229.947L277.95 216.357L246.878 215.084L242.325 236.662L261.938 237.466C263.445 237.469 264.909 237.97 266.102 238.893Z" fill="#12192D"/>
</g>
<path d="M277.972 214.131L278.488 218.796L247.422 217.523L246.9 212.858L277.972 214.131Z" fill="#14B491" stroke="#12192D" stroke-width="0.3" stroke-linecap="round" stroke-linejoin="round"/>
<path d="M264.547 198.033C264.547 197.969 264.547 197.905 264.547 197.836C264.552 197.771 264.552 197.705 264.547 197.639L264.014 192.974C264.025 193.106 264.025 193.237 264.014 193.368C264.014 193.438 264.014 193.507 264.014 193.576C264.004 193.673 263.988 193.769 263.967 193.864C263.967 193.944 263.94 194.029 263.919 194.109C263.897 194.188 263.865 194.258 263.844 194.332C263.823 194.407 263.759 194.567 263.706 194.684C263.652 194.801 263.604 194.886 263.546 194.987C263.487 195.088 263.487 195.094 263.45 195.147C263.359 195.285 263.258 195.424 263.152 195.557L263.109 195.61C262.987 195.754 262.848 195.893 262.704 196.031L262.598 196.132C262.444 196.265 262.284 196.398 262.113 196.526C261.922 196.665 261.714 196.798 261.496 196.926L248.747 204.178L249.28 208.843L262.007 201.612L262.247 201.468C262.381 201.386 262.509 201.301 262.63 201.212C262.798 201.089 262.96 200.958 263.114 200.818L263.226 200.717C263.365 200.584 263.503 200.445 263.626 200.302L263.668 200.248C263.778 200.118 263.879 199.981 263.972 199.838L264.062 199.679C264.105 199.604 264.153 199.535 264.19 199.46C264.198 199.431 264.209 199.403 264.222 199.375C264.275 199.258 264.318 199.141 264.361 199.024C264.403 198.907 264.409 198.917 264.424 198.864C264.44 198.811 264.424 198.821 264.424 198.8C264.424 198.779 264.462 198.635 264.478 198.555C264.494 198.475 264.51 198.417 264.52 198.342V198.268C264.542 198.172 264.542 198.102 264.547 198.033Z" fill="#14B491" stroke="#12192D" stroke-width="0.3" stroke-linecap="round" stroke-linejoin="round"/>
<path d="M221.621 219.584C221.364 219.726 221.099 219.854 220.828 219.967L220.652 220.042C220.423 220.132 220.189 220.218 219.949 220.292C219.731 220.356 219.507 220.415 219.284 220.463L219.049 220.505L218.634 220.58L218.373 220.612L217.979 220.649H217.718H217.047C216.845 220.649 216.642 220.649 216.445 220.612H216.344C216.078 220.58 215.812 220.537 215.551 220.484L215.354 220.441C215.162 220.399 214.975 220.345 214.794 220.287L214.667 220.255C214.448 220.18 214.241 220.095 214.033 220.005L213.884 219.93C213.729 219.856 213.58 219.77 213.431 219.685L213.277 219.589C213.091 219.474 212.913 219.345 212.744 219.206C212.069 218.663 211.629 217.881 211.514 217.023L212.047 221.687C212.161 222.547 212.604 223.33 213.282 223.871C213.452 224.009 213.63 224.137 213.815 224.254L213.974 224.35C214.118 224.435 214.267 224.52 214.422 224.595L214.576 224.669C214.783 224.763 214.994 224.845 215.21 224.914L215.332 224.952C215.519 225.01 215.705 225.064 215.897 225.106L215.998 225.133H216.088C216.351 225.186 216.617 225.229 216.887 225.261H216.983C217.18 225.261 217.382 225.292 217.59 225.298H218.389H218.517L218.911 225.261H219.081H219.177C219.315 225.261 219.454 225.218 219.592 225.191L219.773 225.159H219.827C220.05 225.111 220.269 225.053 220.487 224.989C220.727 224.914 220.961 224.829 221.195 224.739L221.28 224.707L221.371 224.664C221.641 224.551 221.904 224.423 222.159 224.281L234.891 217.049L234.359 212.384L221.621 219.584Z" fill="#14B491" stroke="#12192D" stroke-width="0.3" stroke-linecap="round" stroke-linejoin="round"/>
<path d="M267.007 228.626C267.007 228.557 267.007 228.493 267.007 228.424V228.227L266.475 223.562C266.483 223.695 266.483 223.828 266.475 223.961C266.48 224.029 266.48 224.096 266.475 224.164C266.466 224.26 266.452 224.356 266.432 224.451C266.407 224.611 266.364 224.768 266.304 224.92C266.265 225.039 266.219 225.157 266.166 225.271C266.116 225.374 266.063 225.475 266.006 225.575L265.916 225.734C265.825 225.873 265.724 226.006 265.617 226.144L265.575 226.198C265.448 226.346 265.313 226.486 265.17 226.618L265.064 226.72C264.909 226.853 264.749 226.986 264.579 227.114C264.384 227.252 264.176 227.385 263.956 227.513C263.695 227.656 263.426 227.786 263.152 227.902L262.976 227.976C262.743 228.073 262.505 228.157 262.263 228.227H262.231C262.023 228.29 261.81 228.344 261.602 228.386L261.357 228.434L260.953 228.503L260.686 228.535L260.298 228.573H260.031H259.616H259.371C259.174 228.573 258.977 228.573 258.785 228.541H258.673C258.402 228.541 258.141 228.466 257.88 228.418L257.688 228.376C257.497 228.328 257.31 228.28 257.156 228.221L257.023 228.184C256.804 228.109 256.591 228.024 256.389 227.934L256.24 227.859C256.083 227.784 255.93 227.701 255.782 227.609L255.622 227.513C255.437 227.396 255.259 227.268 255.09 227.13C254.741 226.829 254.449 226.468 254.227 226.065C254.026 225.71 253.899 225.319 253.854 224.914L254.387 229.579C254.506 230.44 254.95 231.224 255.628 231.768C255.796 231.907 255.974 232.035 256.16 232.151L256.314 232.247C256.464 232.338 256.618 232.423 256.772 232.497L256.922 232.572C257.129 232.662 257.337 232.748 257.555 232.822L257.688 232.859C257.875 232.918 258.061 232.966 258.247 233.014H258.354H258.445C258.7 233.062 258.977 233.11 259.233 233.136H259.344C259.541 233.136 259.733 233.163 259.93 233.168H260.175H260.596H260.729H260.862L261.251 233.131H261.416H261.512L261.922 233.062L262.103 233.03H262.161C262.373 232.987 262.583 232.934 262.79 232.87H262.827C263.069 232.799 263.307 232.716 263.541 232.62H263.621L263.716 232.572C263.989 232.456 264.256 232.326 264.515 232.183L264.755 232.039C264.89 231.961 265.017 231.876 265.138 231.784C265.306 231.661 265.468 231.529 265.623 231.39C265.661 231.359 265.696 231.325 265.729 231.289C265.87 231.16 266.004 231.023 266.129 230.878C266.146 230.861 266.16 230.842 266.171 230.82C266.28 230.692 266.38 230.557 266.469 230.415C266.507 230.362 266.533 230.309 266.565 230.255L266.688 230.042C266.688 230.01 266.688 229.984 266.725 229.952C266.778 229.835 266.821 229.718 266.864 229.6C266.906 229.483 266.906 229.494 266.922 229.441C266.925 229.419 266.925 229.398 266.922 229.377C266.922 229.297 266.954 229.217 266.97 229.132C266.989 229.064 267.004 228.994 267.013 228.924C267.013 228.924 267.013 228.871 267.013 228.844C267.013 228.818 267.007 228.674 267.007 228.626Z" fill="#14B491" stroke="#12192D" stroke-width="0.3" stroke-linecap="round" stroke-linejoin="round"/>
<path d="M246.899 212.858L247.421 217.523L242.842 239.053L242.325 234.388L246.899 212.858Z" fill="#14B491" stroke="#12192D" stroke-width="0.3" stroke-linecap="round" stroke-linejoin="round"/>
<path d="M291.439 210.308L287.632 228.237C287.632 228.344 287.578 228.445 287.546 228.551C287.494 228.707 287.433 228.86 287.365 229.009C287.365 229.009 287.365 229.063 287.328 229.089C287.291 229.116 287.227 229.265 287.174 229.356L287.083 229.505C287.009 229.617 286.929 229.718 286.843 229.824L286.785 229.904L286.758 229.936L286.46 230.256L286.338 230.367L286.093 230.58L285.938 230.703L285.688 230.889L285.512 231.006L285.267 231.155L284.974 231.321L284.745 231.443L284.421 231.587L284.197 231.683C283.963 231.78 283.725 231.865 283.483 231.938L283.302 231.986L282.828 232.109L282.567 232.157L282.184 232.226L281.902 232.263L281.534 232.3H281.241H280.837H280.443C280.24 232.3 280.043 232.3 279.852 232.258C279.58 232.226 279.319 232.183 279.063 232.13L278.872 232.087C278.68 232.045 278.488 231.992 278.307 231.933L278.148 231.885C277.93 231.813 277.716 231.727 277.509 231.629L277.386 231.566C277.226 231.484 277.072 231.399 276.923 231.31L276.774 231.214C276.598 231.104 276.431 230.981 276.273 230.847C275.935 230.562 275.649 230.222 275.426 229.84C275.219 229.48 275.089 229.081 275.043 228.669L275.575 233.333C275.692 234.191 276.134 234.971 276.811 235.511C276.966 235.647 277.132 235.77 277.306 235.879C277.354 235.916 277.407 235.943 277.455 235.975C277.604 236.065 277.759 236.15 277.924 236.23L278.046 236.294C278.254 236.392 278.467 236.478 278.685 236.55L278.845 236.598C279.026 236.656 279.213 236.71 279.404 236.752L279.521 236.784H279.596C279.852 236.837 280.128 236.88 280.384 236.912H280.416C280.597 236.912 280.783 236.944 280.975 236.949H281.188C281.247 236.949 281.311 236.949 281.375 236.949H281.774H281.902H282.067L282.434 236.912H282.583H282.722L283.105 236.843H283.27H283.366L283.84 236.72L283.984 236.683H284.021C284.266 236.608 284.5 236.523 284.735 236.427H284.793L284.958 236.353L285.278 236.209L285.507 236.087C285.608 236.033 285.709 235.98 285.805 235.921L285.912 235.863L286.045 235.772L286.22 235.655L286.471 235.469L286.625 235.346L286.87 235.133L286.993 235.022C287.099 234.915 287.195 234.808 287.291 234.702V234.67L287.349 234.59C287.435 234.484 287.514 234.383 287.589 234.271C287.664 234.159 287.648 234.169 287.674 234.122C287.701 234.074 287.786 233.946 287.834 233.855C287.835 233.836 287.835 233.816 287.834 233.797C287.904 233.648 287.965 233.495 288.015 233.339L288.047 233.259C288.047 233.184 288.09 233.104 288.105 233.025L291.908 215.095L291.439 210.308Z" fill="#14B491" stroke="#12192D" stroke-width="0.3" stroke-linecap="round" stroke-linejoin="round"/>
<path d="M267.849 243.835C267.849 243.787 267.849 243.739 267.849 243.696V243.499L267.316 238.834C267.324 238.946 267.324 239.058 267.316 239.17C267.321 239.25 267.321 239.33 267.316 239.409C267.308 239.538 267.292 239.666 267.268 239.793C267.268 239.899 267.21 240 267.178 240.107C267.13 240.264 267.069 240.417 266.997 240.565C266.986 240.593 266.974 240.619 266.959 240.645C266.913 240.738 266.861 240.829 266.805 240.916L266.714 241.065C266.64 241.177 266.555 241.284 266.469 241.396C266.469 241.396 266.437 241.444 266.416 241.465H266.39C266.294 241.577 266.198 241.683 266.091 241.79L265.969 241.902L265.724 242.115L265.569 242.237L265.319 242.423L265.143 242.541L264.898 242.69L264.6 242.86L264.377 242.977L264.046 243.126L263.828 243.222C263.599 243.313 263.36 243.398 263.115 243.472L262.928 243.526L262.46 243.643L262.199 243.696L261.815 243.76L261.533 243.797L261.16 243.835H260.873C260.74 243.835 260.606 243.835 260.473 243.835C260.34 243.835 260.207 243.835 260.069 243.835L234.189 242.77L233.619 242.727C233.352 242.695 233.086 242.652 232.841 242.599L232.655 242.556C232.463 242.514 232.271 242.461 232.09 242.402L231.925 242.354C231.702 242.274 231.483 242.189 231.281 242.093L231.169 242.035C231.004 241.955 230.844 241.864 230.69 241.774L230.541 241.678C230.366 241.564 230.199 241.439 230.04 241.305C229.36 240.756 228.913 239.971 228.789 239.106L229.321 243.771C229.442 244.637 229.89 245.424 230.573 245.97C230.73 246.107 230.897 246.231 231.073 246.343L231.222 246.439C231.372 246.529 231.531 246.62 231.696 246.699L231.813 246.758C232.021 246.856 232.235 246.941 232.453 247.014L232.618 247.067C232.804 247.125 232.99 247.179 233.187 247.221L233.299 247.253H233.368C233.619 247.307 233.901 247.349 234.146 247.381H234.183C234.359 247.381 234.54 247.413 234.716 247.418L260.596 248.483H260.809H260.995C261.128 248.483 261.261 248.483 261.395 248.483H261.522H261.687L262.055 248.446H262.204H262.337C262.47 248.446 262.598 248.404 262.721 248.382L262.891 248.35H262.987L263.45 248.233L263.604 248.191H263.642C263.887 248.116 264.121 248.031 264.355 247.94H264.414L264.574 247.866L264.898 247.717L265.127 247.599L265.426 247.429L265.532 247.37L265.665 247.28L265.841 247.163L266.091 246.976L266.246 246.854L266.491 246.641L266.613 246.529C266.72 246.423 266.821 246.316 266.917 246.204L266.965 246.135C267.055 246.023 267.14 245.917 267.215 245.805C267.246 245.757 267.275 245.707 267.3 245.656C267.353 245.565 267.412 245.48 267.46 245.384L267.487 245.32C267.555 245.171 267.615 245.018 267.668 244.862C267.668 244.862 267.668 244.809 267.694 244.782C267.721 244.756 267.737 244.628 267.753 244.548C267.773 244.455 267.789 244.361 267.801 244.266C267.801 244.229 267.801 244.197 267.801 244.165C267.801 244.133 267.849 243.914 267.849 243.835Z" fill="#14B491" stroke="#12192D" stroke-width="0.3" stroke-linecap="round" stroke-linejoin="round"/>
<path d="M256.368 221.006C259.179 219.408 263.152 219.573 265.245 221.373C267.338 223.173 266.752 225.926 263.945 227.524C261.139 229.121 257.156 228.961 255.063 227.162C252.97 225.362 253.556 222.603 256.368 221.006Z" fill="#6EFFDA" stroke="#12192D" stroke-width="0.3" stroke-linecap="round" stroke-linejoin="round"/>
<path d="M266.102 236.662C266.572 237.023 266.932 237.509 267.142 238.064C267.352 238.619 267.403 239.221 267.29 239.804C266.757 242.205 263.562 244.037 260.09 243.898L234.21 242.833C232.703 242.818 231.244 242.303 230.062 241.369C229.589 241.009 229.225 240.524 229.013 239.969C228.8 239.414 228.747 238.811 228.858 238.227L234.354 212.363L221.621 219.595C218.826 221.192 214.832 221.022 212.75 219.233C210.667 217.443 211.248 214.68 214.054 213.087L253.913 190.44C256.724 188.842 260.697 189.007 262.784 190.802C264.872 192.596 264.286 195.349 261.48 196.947L248.747 204.178L286.087 205.712C287.596 205.726 289.057 206.241 290.241 207.176C290.713 207.537 291.075 208.022 291.287 208.577C291.498 209.132 291.551 209.735 291.439 210.318L287.631 228.248C287.126 230.65 283.904 232.476 280.443 232.332C278.93 232.325 277.462 231.814 276.273 230.879C275.803 230.516 275.443 230.029 275.235 229.473C275.026 228.917 274.976 228.314 275.091 227.731L277.972 214.142L246.9 212.869L242.325 234.398L261.938 235.203C263.449 235.215 264.914 235.728 266.102 236.662Z" fill="#6EFFDA" stroke="#12192D" stroke-width="0.3" stroke-linecap="round" stroke-linejoin="round"/>
<path opacity="0.4" d="M276.252 125.106L347.518 166.242C350.335 167.904 350.015 170.721 346.751 172.632L179.84 268.985C176.576 270.844 171.586 271.115 168.769 269.432L97.5033 228.301C94.6863 226.634 95.0058 223.823 98.2701 221.911L265.186 125.553C268.45 123.7 273.44 123.508 276.257 125.106H276.252Z" fill="#12192D"/>
<path d="M275.352 84.1129L346.618 125.249C349.435 126.911 349.115 129.728 345.851 131.64L178.919 227.992C175.655 229.846 170.665 230.122 167.853 228.44L96.5819 187.303C93.7703 185.642 94.0898 182.825 97.3488 180.913L264.286 84.5602C267.545 82.7017 272.535 82.51 275.352 84.1129Z" fill="#E1FFFE" stroke="#12192D" stroke-width="0.3" stroke-linecap="round" stroke-linejoin="round"/>
<path d="M348.476 128.189V133.759C348.54 135.037 347.646 136.421 345.814 137.487L178.876 233.813C176.996 234.844 174.881 235.374 172.737 235.352V229.526C174.878 229.526 176.987 229 178.876 227.992L345.787 131.645C347.518 130.686 348.412 129.408 348.45 128.189H348.476Z" fill="#00DCFF" stroke="#12192D" stroke-width="0.3" stroke-linecap="round" stroke-linejoin="round"/>
<path d="M172.737 235.416C171.028 235.479 169.332 235.103 167.811 234.324L96.5393 193.187C95.1974 192.42 94.5584 191.334 94.6223 190.248V184.747C94.6862 185.705 95.3252 186.664 96.5393 187.367L167.811 228.504C169.089 229.27 170.878 229.569 172.737 229.569V235.394V235.416Z" fill="#00AFD2" stroke="#12192D" stroke-width="0.3" stroke-linecap="round" stroke-linejoin="round"/>
<path d="M212.398 120.766L262.172 92.042L330.562 131.517L280.852 160.241L212.398 120.766Z" fill="#34CA9E" stroke="#12192D" stroke-width="0.3" stroke-linecap="round" stroke-linejoin="round"/>
<path d="M212.398 120.766V121.788L280.852 161.263V160.241L212.398 120.766Z" fill="#029E73" stroke="#12192D" stroke-width="0.3" stroke-linecap="round" stroke-linejoin="round"/>
<path d="M280.853 161.263L330.563 132.539V131.517L280.853 160.241V161.263Z" fill="#46E6C3" stroke="#12192D" stroke-width="0.3" stroke-linecap="round" stroke-linejoin="round"/>
<path d="M202.547 126.4L203.633 125.755L247.395 151.028L246.308 151.667L202.547 126.4Z" fill="#FFC13C" stroke="#12192D" stroke-width="0.3" stroke-linecap="round" stroke-linejoin="round"/>
<path d="M198.707 128.636L199.863 127.997L243.619 153.265L242.469 153.904L198.707 128.636Z" fill="#FFC13C" stroke="#12192D" stroke-width="0.3" stroke-linecap="round" stroke-linejoin="round"/>
<path d="M194.676 130.937L195.768 130.298L231.595 151.028L230.503 151.667L194.676 130.937Z" fill="#FFC13C" stroke="#12192D" stroke-width="0.3" stroke-linecap="round" stroke-linejoin="round"/>
<path d="M173.503 214.743C179.509 214.743 184.377 211.851 184.377 208.284C184.377 204.717 179.509 201.825 173.503 201.825C167.498 201.825 162.63 204.717 162.63 208.284C162.63 211.851 167.498 214.743 173.503 214.743Z" fill="#DBDBDB" stroke="#11192F" stroke-width="0.3" stroke-linecap="round" stroke-linejoin="round"/>
<path d="M184.313 208.865C184.313 209.056 184.377 209.248 184.377 209.44C184.377 213.023 179.515 215.899 173.503 215.899C167.491 215.899 162.63 213.023 162.63 209.44C162.619 209.246 162.641 209.051 162.693 208.865C163.226 212.129 167.875 214.685 173.503 214.685C179.132 214.685 183.802 212.129 184.313 208.865Z" fill="#BCBCBC" stroke="#11192F" stroke-width="0.3" stroke-linecap="round" stroke-linejoin="round"/>
<path d="M120.593 173.74L121.685 173.101L165.441 198.369L164.355 199.008L120.593 173.74Z" fill="#FFC13C" stroke="#12192D" stroke-width="0.3" stroke-linecap="round" stroke-linejoin="round"/>
<path d="M116.759 175.913L117.909 175.338L149.066 193.315L147.975 193.954L116.759 175.913Z" fill="#FFC13C" stroke="#12192D" stroke-width="0.3" stroke-linecap="round" stroke-linejoin="round"/>
<path d="M112.728 178.282L113.814 177.638L149.642 198.305L148.55 198.944L112.728 178.282Z" fill="#FFC13C" stroke="#12192D" stroke-width="0.3" stroke-linecap="round" stroke-linejoin="round"/>
<path d="M223.064 116.66L222.383 116.836L224.798 126.206L225.479 126.03L223.064 116.66Z" fill="#FFD27D"/>
<path d="M244.857 110.06L243.382 119.606L244.077 119.714L245.551 110.167L244.857 110.06Z" fill="#FFD27D"/>
<path d="M228.371 113.901L228.272 114.597L237.836 115.957L237.935 115.261L228.371 113.901Z" fill="#FFD27D"/>
<path d="M295.193 118.323L294.876 118.95L303.493 123.316L303.81 122.689L295.193 118.323Z" fill="#FFD27D"/>
<path d="M284.307 146.255L279.306 154.519L279.907 154.883L284.908 146.619L284.307 146.255Z" fill="#FFD27D"/>
<path d="M300.568 132.639L300.142 142.289L300.844 142.32L301.27 132.67L300.568 132.639Z" fill="#FFD27D"/>
<path d="M284.032 136.525L283.672 137.129L291.97 142.075L292.33 141.472L284.032 136.525Z" fill="#FFD27D"/>
<path d="M318.584 127.851L309.073 129.545L309.197 130.237L318.707 128.543L318.584 127.851Z" fill="#FFD27D"/>
<path d="M252.806 98.1505L252.747 98.8508L262.371 99.6726L262.431 98.9722L252.806 98.1505Z" fill="#FFD27D"/>
<path d="M245.59 128.727L236.345 131.526L236.548 132.199L245.794 129.4L245.59 128.727Z" fill="#FFD27D"/>
<path d="M173.503 214.743C179.509 214.743 184.377 211.851 184.377 208.284C184.377 204.717 179.509 201.825 173.503 201.825C167.498 201.825 162.63 204.717 162.63 208.284C162.63 211.851 167.498 214.743 173.503 214.743Z" fill="#FFC13C" stroke="#12192D" stroke-width="0.3" stroke-linecap="round" stroke-linejoin="round"/>
<path d="M184.313 208.865C184.313 209.056 184.377 209.248 184.377 209.44C184.377 213.023 179.515 215.899 173.503 215.899C167.491 215.899 162.63 213.023 162.63 209.44C162.619 209.246 162.641 209.051 162.693 208.865C163.226 212.129 167.875 214.685 173.503 214.685C179.132 214.685 183.802 212.129 184.313 208.865Z" fill="#FF9846" stroke="#12192D" stroke-width="0.3" stroke-linecap="round" stroke-linejoin="round"/>
<path d="M162.635 209.216C162.635 209.216 171.341 205.195 175.948 214.301C175.926 214.296 164.738 216.277 162.635 209.216Z" fill="#34CA9E" stroke="#12192D" stroke-width="0.3" stroke-linecap="round" stroke-linejoin="round"/>
<path d="M172.476 211.261C174.088 211.093 175.313 210.181 175.213 209.224C175.114 208.268 173.726 207.629 172.114 207.797C170.503 207.965 169.277 208.877 169.377 209.834C169.477 210.79 170.864 211.429 172.476 211.261Z" fill="#FFD27D" stroke="#12192D" stroke-width="0.3" stroke-linecap="round" stroke-linejoin="round"/>
<path d="M176.326 210.969C178.996 210.105 180.709 208.011 180.153 206.29C179.596 204.569 176.981 203.873 174.311 204.737C171.642 205.6 169.929 207.695 170.485 209.416C171.042 211.137 173.657 211.832 176.326 210.969Z" fill="#FFE48F" stroke="#12192D" stroke-width="0.3" stroke-linecap="round" stroke-linejoin="round"/>
<path d="M176.043 204.876C175.74 204.983 175.411 204.998 175.098 204.92C174.786 204.841 174.503 204.672 174.286 204.434C174.017 204.078 173.835 203.664 173.754 203.225C174.244 203.538 174.827 203.674 175.404 203.609C175.197 203.529 175.025 203.378 174.919 203.183C174.812 202.988 174.779 202.761 174.824 202.544C175.799 203.108 176.597 202.836 177.593 202.938C178.393 203.038 179.133 203.415 179.686 204.003C180.687 205.158 181.544 207.081 180.671 208.891C179.798 210.702 177.934 210.031 177.625 210.403C177.508 209.738 179.361 208.311 179.084 208.236C178.3 208.043 177.592 207.619 177.05 207.021C176.508 206.422 176.158 205.675 176.043 204.876Z" fill="#505569" stroke="#12192D" stroke-width="0.3" stroke-linecap="round" stroke-linejoin="round"/>
<path d="M174.533 206.543C174.81 206.301 174.91 205.963 174.757 205.788C174.604 205.613 174.256 205.667 173.979 205.909C173.702 206.151 173.602 206.489 173.755 206.664C173.908 206.839 174.256 206.785 174.533 206.543Z" fill="#14B491" stroke="#12192D" stroke-width="0.3" stroke-linecap="round" stroke-linejoin="round"/>
<path d="M175.308 208.44C175.638 208.151 175.758 207.749 175.576 207.541C175.394 207.333 174.979 207.398 174.649 207.686C174.319 207.974 174.199 208.377 174.381 208.585C174.563 208.793 174.978 208.728 175.308 208.44Z" fill="#14B491" stroke="#12192D" stroke-width="0.3" stroke-linecap="round" stroke-linejoin="round"/>
<path d="M174.521 206.559L174.835 207.517" stroke="#11192F" stroke-width="0.3" stroke-linecap="round" stroke-linejoin="round"/>
<path d="M130.45 168.042L180.218 139.318L248.609 178.857L198.899 207.581L130.45 168.042Z" fill="#34CA9E" stroke="#12192D" stroke-width="0.3" stroke-linecap="round" stroke-linejoin="round"/>
<path d="M130.45 168.042V169.07L198.899 208.604V207.581L130.45 168.042Z" fill="#029E73" stroke="#12192D" stroke-width="0.3" stroke-linecap="round" stroke-linejoin="round"/>
<path d="M198.899 208.604L248.609 179.88V178.857L198.899 207.581V208.604Z" fill="#46E6C3" stroke="#12192D" stroke-width="0.3" stroke-linecap="round" stroke-linejoin="round"/>
<path fillRule="evenodd" clip-rule="evenodd" d="M223.192 193.528L222.516 193.89C215.503 197.575 208.442 189.204 213.181 182.857C218.959 175.125 220.152 169.31 215.109 165.912C205.614 159.522 175.314 180.024 172.188 173.426C170.942 170.79 180.309 162.472 178.658 159.133C176.619 154.99 166.33 157.972 155.036 164.022C154.13 164.506 153.118 164.76 152.09 164.761C151.063 164.761 150.051 164.509 149.144 164.026C148.237 163.543 147.463 162.843 146.89 161.99C146.318 161.137 145.964 160.156 145.861 159.133L130.46 168.047L198.91 207.587L223.192 193.528Z" fill="#6EFFDA" stroke="#12192D" stroke-width="0.3" stroke-linecap="round" stroke-linejoin="round"/>
<path d="M151.995 165.539C152.998 165.539 153.811 165.058 153.811 164.464C153.811 163.87 152.998 163.388 151.995 163.388C150.992 163.388 150.179 163.87 150.179 164.464C150.179 165.058 150.992 165.539 151.995 165.539Z" fill="#F52855" stroke="#12192D" stroke-width="0.3" stroke-linecap="round" stroke-linejoin="round"/>
<path d="M178.637 160.262C179.64 160.262 180.453 159.78 180.453 159.186C180.453 158.592 179.64 158.111 178.637 158.111C177.634 158.111 176.821 158.592 176.821 159.186C176.821 159.78 177.634 160.262 178.637 160.262Z" fill="#1EFAFF" stroke="#12192D" stroke-width="0.3" stroke-linecap="round" stroke-linejoin="round"/>
<path d="M214.949 166.78C215.952 166.78 216.765 166.298 216.765 165.704C216.765 165.11 215.952 164.629 214.949 164.629C213.946 164.629 213.133 165.11 213.133 165.704C213.133 166.298 213.946 166.78 214.949 166.78Z" fill="#1EFAFF" stroke="#12192D" stroke-width="0.3" stroke-linecap="round" stroke-linejoin="round"/>
<path d="M213.133 192.889C214.136 192.889 214.949 192.408 214.949 191.813C214.949 191.219 214.136 190.738 213.133 190.738C212.13 190.738 211.317 191.219 211.317 191.813C211.317 192.408 212.13 192.889 213.133 192.889Z" fill="#F52855" stroke="#12192D" stroke-width="0.3" stroke-linecap="round" stroke-linejoin="round"/>
<path d="M173.759 175.774C174.762 175.774 175.575 175.293 175.575 174.698C175.575 174.104 174.762 173.623 173.759 173.623C172.756 173.623 171.943 174.104 171.943 174.698C171.943 175.293 172.756 175.774 173.759 175.774Z" fill="#F52855" stroke="#12192D" stroke-width="0.3" stroke-linecap="round" stroke-linejoin="round"/>
<path d="M302.403 226.821L303.468 226.182C304.56 225.479 306.158 225.543 308.011 226.629L364.18 259.064C367.375 260.918 370.006 265.013 370.006 268.213C370.006 269.683 369.431 270.711 368.531 271.222L367.317 271.925C368.147 271.392 368.659 270.386 368.659 268.98C368.659 265.785 366.039 261.69 362.838 259.831L306.69 227.396C304.965 226.437 303.426 226.246 302.403 226.821Z" fill="#C387FA" stroke="#12192D" stroke-width="0.3" stroke-linecap="round" stroke-linejoin="round"/>
<path d="M362.859 271.413L306.626 238.978C303.431 237.12 300.806 233.025 300.806 229.83C300.806 226.634 303.426 225.543 306.626 227.396L362.795 259.831C365.99 261.69 368.616 265.779 368.616 268.98C368.616 272.18 365.996 273.267 362.859 271.413Z" fill="#F0B4FF" stroke="#12192D" stroke-width="0.3" stroke-linecap="round" stroke-linejoin="round"/>
<path opacity="0.6" d="M340.366 288.156L304.517 267.478C302.478 266.296 300.79 263.687 300.79 261.647C300.79 259.608 302.462 258.915 304.517 260.098L340.329 280.775C342.368 281.957 344.056 284.566 344.056 286.633C344.04 288.646 342.368 289.343 340.366 288.156Z" fill="#12192D"/>
<path opacity="0.6" d="M87.2843 251.039L61.1911 266.094C59.8332 266.882 58.715 268.623 58.715 269.986C58.715 271.349 59.8332 271.807 61.1911 271.019L87.2843 255.965C88.6422 255.177 89.7604 253.436 89.7604 252.072C89.7604 250.709 88.6422 250.251 87.2843 251.039Z" fill="#12192D"/>
<path opacity="0.6" d="M58.0737 275.236C60.7429 273.695 62.4168 271.597 61.8124 270.55C61.208 269.503 58.5543 269.904 55.8851 271.445C53.2158 272.986 51.5419 275.084 52.1463 276.131C52.7507 277.178 55.4045 276.777 58.0737 275.236Z" fill="#12192D"/>
<path d="M419.386 125.047L418.294 124.408C417.229 123.705 415.632 123.769 413.752 124.855L352.465 160.235C349.27 162.089 346.645 166.184 346.645 169.384C346.645 170.854 347.22 171.876 348.114 172.393L349.328 173.096C348.498 172.563 347.986 171.557 347.986 170.151C347.986 166.956 350.612 162.855 353.807 161.002L415.099 125.622C416.824 124.664 418.358 124.557 419.386 125.047Z" fill="#14B491" stroke="#12192D" stroke-width="0.3" stroke-linecap="round" stroke-linejoin="round"/>
<path d="M431.282 126.458L429.429 125.926C428.145 125.537 427.379 124.387 427.379 122.598C427.379 119.402 429.94 115.43 433.14 113.768C434.61 113.002 435.888 112.81 436.911 113.129L438.45 113.513C437.251 113.337 436.028 113.585 434.994 114.216C431.799 115.941 429.237 119.908 429.237 123.045C429.173 124.898 430.004 126.054 431.282 126.437V126.458Z" fill="#14B491" stroke="#12192D" stroke-width="0.3" stroke-linecap="round" stroke-linejoin="round"/>
<path d="M273.994 139.334C275.591 140.809 281.225 144.068 278.472 145.027C277.578 145.352 275.277 145.559 273.147 145.863C272.38 145.991 272.572 147.077 273.339 147.077C274.432 147.08 275.524 146.995 276.603 146.821C279.676 146.289 282.423 145.991 280.379 142.982C278.963 141.145 277.203 139.602 275.197 138.44C274.828 138.758 274.442 139.056 274.042 139.334H273.994Z" fill="#505569" stroke="#12192D" stroke-width="0.3" stroke-linecap="round" stroke-linejoin="round"/>
<path d="M260.495 145.416L273.866 156.098C273.93 156.162 273.994 156.226 273.994 156.29L257.198 146.566L259.755 145.352C259.873 145.281 260.011 145.249 260.148 145.26C260.286 145.272 260.416 145.326 260.521 145.416H260.495Z" fill="#00AFD2" stroke="#12192D" stroke-width="0.3" stroke-linecap="round" stroke-linejoin="round"/>
<path d="M257.198 146.502L259.755 145.283C259.88 145.222 260.022 145.203 260.159 145.227C260.297 145.25 260.423 145.316 260.521 145.416L273.893 156.098C273.957 156.162 274.021 156.226 274.021 156.29L273.866 151.992C273.85 151.896 273.806 151.807 273.738 151.737L260.394 141.065C260.285 140.984 260.159 140.93 260.026 140.908C259.892 140.886 259.755 140.896 259.627 140.937L253.04 144.068L257.198 146.502Z" fill="#00DCFF" stroke="#12192D" stroke-width="0.3" stroke-linecap="round" stroke-linejoin="round"/>
<path d="M263.056 145.027L265.554 143.813C265.756 143.707 265.985 143.662 266.212 143.685C266.439 143.708 266.655 143.796 266.832 143.941L273.754 149.505C273.836 149.583 273.899 149.678 273.937 149.784C273.976 149.89 273.99 150.003 273.977 150.115C273.965 150.227 273.927 150.334 273.866 150.429C273.805 150.524 273.723 150.603 273.627 150.661L271.262 151.811C270.961 151.771 270.672 151.664 270.417 151.498C270.161 151.332 269.946 151.112 269.787 150.853L271.576 150.022L265.884 145.671L264.345 146.374C263.781 146.079 263.332 145.605 263.067 145.027H263.056Z" fill="#00AFD2" stroke="#12192D" stroke-width="0.3" stroke-linecap="round" stroke-linejoin="round"/>
<path d="M270.991 145.027C270.691 144.735 270.31 144.542 269.898 144.473C269.486 144.405 269.062 144.464 268.685 144.643C267.62 145.027 269.515 145.48 268.301 146.374C267.598 146.821 267.236 146.907 266.32 146.119C265.937 145.799 265.426 147.141 266.384 148.249C266.603 148.479 266.874 148.651 267.175 148.752C267.476 148.852 267.797 148.877 268.11 148.824C267.535 148.888 267.471 149.356 268.046 149.718C268.308 149.886 268.604 149.997 268.912 150.042C269.221 150.087 269.535 150.065 269.835 149.979C269.515 150.107 268.876 150.363 269.515 150.554C271.374 151.129 273.61 149.207 273.099 148.121C276.172 149.505 273.547 143.302 270.991 145.027Z" fill="#E1FFFE" stroke="#12192D" stroke-width="0.3" stroke-linecap="round" stroke-linejoin="round"/>
<path d="M278.892 128.872C279.748 121.111 274.576 114.173 267.341 113.375C260.106 112.578 253.547 118.223 252.692 125.985C251.836 133.746 257.008 140.684 264.243 141.482C271.478 142.279 278.037 136.634 278.892 128.872Z" fill="#FAE399" stroke="#13192C" stroke-width="0.3" stroke-linecap="round" stroke-linejoin="round"/>
<path d="M277.526 128.226C277.871 121.485 273.089 115.761 266.844 115.442C260.6 115.122 255.258 120.328 254.913 127.068C254.568 133.809 259.351 139.533 265.595 139.852C271.839 140.172 277.181 134.966 277.526 128.226Z" fill="#F5C158" stroke="#13192C" stroke-width="0.3" stroke-linecap="round" stroke-linejoin="round"/>
<path d="M261.458 138.754C259.128 137.81 257.173 136.126 255.894 133.961C252.502 128.333 254.099 120.782 259.35 117.075C260.912 115.986 262.735 115.328 264.634 115.17C266.532 115.012 268.438 115.359 270.16 116.175C268.505 115.52 266.713 115.288 264.946 115.501C263.179 115.714 261.493 116.365 260.042 117.395C254.717 121.043 253.194 128.578 256.586 134.281C257.757 136.198 259.441 137.749 261.448 138.759L261.458 138.754Z" fill="#F19C57" stroke="#13192C" stroke-width="0.3" stroke-linecap="round" stroke-linejoin="round"/>
<path d="M278.371 119.946C282.274 126.474 280.416 135.239 274.276 139.462C272.884 140.431 271.312 141.111 269.653 141.463C267.994 141.814 266.281 141.829 264.616 141.507C267.564 141.763 270.507 140.971 272.929 139.27C279.074 134.984 280.916 126.282 277.024 119.754C276.109 118.194 274.879 116.842 273.412 115.784C271.945 114.727 270.273 113.988 268.504 113.614C270.534 113.798 272.49 114.47 274.205 115.573C275.92 116.675 277.344 118.175 278.355 119.946H278.371Z" fill="#F19C57" stroke="#13192C" stroke-width="0.3" stroke-linecap="round" stroke-linejoin="round"/>
<path d="M272.865 130.314C274.595 128.902 274.212 126.921 273.19 124.744L272.545 124.616C273.637 126.746 273.956 128.775 272.226 130.186H270.756C270.948 131.336 271.821 131.144 272.886 130.314H272.865ZM258.215 134.275L258.663 134.02L259.435 133.487L260.841 132.529L258.663 133.999L258.215 134.254V134.275ZM258.854 124.232L258.215 124.104C258.215 124.104 258.535 124.637 258.748 124.935C258.684 124.871 258.684 124.807 258.62 124.744C259.584 125.383 258.876 124.211 258.876 124.211L258.854 124.232ZM264.744 135.559C265.218 135.683 265.713 135.707 266.197 135.63C266.681 135.553 267.143 135.376 267.556 135.112C269.542 134.046 269.925 132.55 269.478 130.953H269.35C269.925 132.678 269.606 134.212 267.492 135.303H266.783L266.656 135.367L266.528 135.431H264.994L264.739 135.559H264.744ZM264.552 132.039C263.205 131.506 262.119 129.414 261.607 128.647L260.968 128.519V128.562V128.626V128.689V128.753V128.817L261.032 128.881L261.096 128.945V129.009V129.094V129.222L261.16 129.286L261.224 129.35L261.288 129.414L261.352 129.478V129.733L261.416 129.797L261.48 129.861L261.544 129.925L261.607 129.994L261.671 130.058V130.186L261.735 130.25L261.799 130.314L261.863 130.377L261.927 130.441L261.991 130.505L262.055 130.569V130.633L262.119 130.697L262.183 130.761L262.246 130.825L262.31 130.889L262.374 130.953L262.438 131.016L262.502 131.08L262.63 131.208L262.694 131.272L262.758 131.336L262.822 131.4L262.949 131.528L263.013 131.592L263.077 131.656L263.141 131.719L263.205 131.783L263.269 131.847H264.291L264.552 132.039ZM268.967 128.072C267.875 127.624 266.98 125.942 266.597 125.319L265.958 125.191V125.255V125.319V125.367V125.436V125.5V125.564V125.627V125.691V125.755L266.022 125.819L266.086 125.883V125.947V126.075V126.139L266.15 126.203L266.214 126.266L266.278 126.33L266.341 126.394V126.522L266.405 126.586L266.469 126.65L266.533 126.714L266.597 126.778L266.661 126.842V126.906L266.725 127.033L266.789 127.097L266.853 127.161L266.917 127.225L266.98 127.289L267.044 127.353L267.108 127.417L267.172 127.481L267.236 127.545L267.3 127.608L267.364 127.672L267.428 127.736L267.492 127.8C267.556 127.864 267.62 127.928 267.683 127.928H267.747C267.811 127.928 267.811 127.992 267.875 127.992C267.939 127.992 267.939 128.056 268.003 128.056H268.067C268.131 128.056 268.131 128.056 268.195 128.12H268.578L268.967 128.056V128.072Z" fill="#F19C57" stroke="#13192C" stroke-width="0.3" stroke-linecap="round" stroke-linejoin="round"/>
<path d="M266.597 125.319L265.958 125.191L269.095 123.146C269.157 123.288 269.244 123.417 269.35 123.529L266.597 125.319Z" fill="#DDDDDC" stroke="#211816" stroke-width="0.3" stroke-linecap="round" stroke-linejoin="round"/>
<path d="M272.226 130.25C273.957 128.839 273.573 126.858 272.546 124.68L275.107 122.954L274.148 121.421L271.651 123.082C271.395 122.699 271.118 122.251 270.884 121.868L273.382 120.201L272.418 118.668L269.862 120.393L267.939 117.262L266.278 118.327L266.981 119.477C267.13 119.678 267.199 119.926 267.175 120.175C267.152 120.424 267.037 120.655 266.853 120.824C264.297 122.55 262.566 123.7 259.882 125.494C259.807 125.54 259.723 125.569 259.636 125.58C259.549 125.592 259.46 125.585 259.375 125.56C259.291 125.536 259.212 125.494 259.145 125.438C259.077 125.382 259.022 125.312 258.982 125.233L258.264 124.104L256.219 125.063L257.497 127.113C257.752 127.497 257.944 127.88 258.2 128.178L255.644 129.904L256.602 131.442L259.158 129.712C259.419 130.164 259.691 130.548 259.93 130.995L257.369 132.721L258.327 134.254L260.889 132.529C262.678 135.026 264.473 136.432 267.029 135.026C269.159 133.871 269.398 132.364 268.887 130.676C269.782 131.208 270.932 131.251 272.21 130.228L272.226 130.25ZM265.303 131.719C263.381 132.997 261.528 129.541 260.889 128.524L264.345 126.224C264.984 127.289 267.348 130.383 265.303 131.725V131.719ZM269.718 127.816C267.987 128.966 266.454 126.091 265.942 125.191L269.079 123.146C269.526 123.977 271.507 126.538 269.718 127.816Z" fill="#FAE399" stroke="#13192C" stroke-width="0.3" stroke-linecap="round" stroke-linejoin="round"/>
<path d="M272.354 118.598L273.062 118.731L274.021 120.265L273.312 120.201L272.354 118.598Z" fill="#F19C57" stroke="#13192C" stroke-width="0.3" stroke-linecap="round" stroke-linejoin="round"/>
<path d="M274.02 120.265L271.459 121.99L270.82 121.863L273.312 120.201L274.02 120.265Z" fill="#DDDDDC" stroke="#211816" stroke-width="0.3" stroke-linecap="round" stroke-linejoin="round"/>
<path d="M271.459 121.99L272.034 122.821L271.587 123.082L270.82 121.863L271.459 121.99Z" fill="#F19C57" stroke="#13192C" stroke-width="0.3" stroke-linecap="round" stroke-linejoin="round"/>
<path d="M268.514 117.32L267.875 117.193L269.798 120.329L270.245 120.073L268.514 117.32Z" fill="#F19C57" stroke="#13192C" stroke-width="0.3" stroke-linecap="round" stroke-linejoin="round"/>
<path d="M274.084 121.415L274.787 121.543L275.746 123.082L275.043 122.954L274.084 121.415Z" fill="#F19C57" stroke="#13192C" stroke-width="0.3" stroke-linecap="round" stroke-linejoin="round"/>
<path d="M275.746 123.082L273.184 124.807L272.481 124.68L275.043 122.954L275.746 123.082Z" fill="#DDDDDC" stroke="#211816" stroke-width="0.3" stroke-linecap="round" stroke-linejoin="round"/>
<path d="M261.608 128.647L260.969 128.519L264.425 126.219C264.487 126.36 264.573 126.49 264.68 126.602L261.608 128.647Z" fill="#DDDDDC" stroke="#211816" stroke-width="0.3" stroke-linecap="round" stroke-linejoin="round"/>
<path d="M258.982 129.733L256.49 131.458L257.129 131.586L259.238 130.117L258.982 129.733Z" fill="#F19C57" stroke="#13192C" stroke-width="0.3" stroke-linecap="round" stroke-linejoin="round"/>
<path d="M290.544 125.893C291.907 124.222 287.774 118.596 281.312 113.326C274.851 108.057 268.509 105.139 267.146 106.81C265.784 108.48 269.917 114.106 276.378 119.376C282.84 124.646 289.182 127.563 290.544 125.893Z" fill="#505569" stroke="#12192D" stroke-width="0.3" stroke-linecap="round" stroke-linejoin="round"/>
<path d="M284.356 110.163C281.603 106.004 281.161 106.835 276.805 108.438C275.527 108.971 274.18 109.503 272.902 110.036C275.719 116.048 279.495 119.951 285.89 121.037C286.913 118.865 287.871 116.623 288.899 114.45C288.451 112.272 286.273 110.994 284.356 110.19V110.163Z" fill="#12192D"/>
<path d="M284.357 110.163C281.604 106.004 281.162 106.835 276.806 108.438L274.825 109.269C277.317 114.642 280.837 118.162 286.785 119.12L288.915 114.45C288.457 112.272 286.279 110.989 284.357 110.163Z" fill="#505569" stroke="#12192D" stroke-width="0.3" stroke-linecap="round" stroke-linejoin="round"/>
<path d="M258.263 115.728C251.16 110.738 250.393 111.889 258.647 109.46C258.392 108.988 258.26 108.458 258.263 107.921C256.41 108.502 254.168 109.141 252.251 109.78C251.032 110.163 250.585 110.419 250.585 111.186C250.521 112.08 250.968 112.528 251.932 113.236L256.922 116.878C257.336 116.459 257.785 116.074 258.263 115.728Z" fill="#505569" stroke="#12192D" stroke-width="0.3" stroke-linecap="round" stroke-linejoin="round"/>
<path d="M258.961 110.036C258.646 109.709 258.412 109.312 258.279 108.878C258.145 108.445 258.116 107.985 258.194 107.538C258.212 107.389 258.275 107.248 258.375 107.136C258.475 107.024 258.607 106.945 258.754 106.91C258.9 106.875 259.053 106.886 259.193 106.941C259.333 106.996 259.453 107.093 259.536 107.219C259.792 106.686 261.714 105.685 262.289 105.493C263.887 104.79 265.426 105.046 267.082 104.918C267.785 104.854 268.04 106.643 270.154 108.241C270.474 108.502 271.305 109.013 271.177 109.306C270.793 110.264 269.446 109.562 268.743 108.923C268.149 108.425 267.632 107.841 267.21 107.192C267.508 107.645 267.623 108.196 267.529 108.731C267.401 109.114 266.826 109.498 266.698 109.178C266.571 108.603 265.74 107.767 266.379 108.859C267.018 109.95 265.287 111.479 263.881 110.904C262.475 110.328 262.603 109.498 264.073 109.881C264.606 110.009 264.456 108.603 263.37 109.242C261.709 110.264 261.24 110.264 260.361 109.242C260.361 109.881 259.531 110.584 258.956 110.009L258.961 110.036Z" fill="#E1FFFE" stroke="#12192D" stroke-width="0.3" stroke-linecap="round" stroke-linejoin="round"/>
<path d="M266.251 161.577C266.251 161.769 266.315 161.961 266.315 162.153C266.315 165.731 261.453 168.612 255.441 168.612C249.429 168.612 244.562 165.731 244.562 162.153C244.551 161.959 244.573 161.764 244.626 161.577C245.158 164.836 249.807 167.398 255.441 167.398C261.075 167.398 265.756 164.847 266.251 161.577Z" fill="#FF9846" stroke="#12192D" stroke-width="0.3" stroke-linecap="round" stroke-linejoin="round"/>
<path d="M255.457 167.403C261.463 167.403 266.331 164.511 266.331 160.944C266.331 157.376 261.463 154.484 255.457 154.484C249.452 154.484 244.583 157.376 244.583 160.944C244.583 164.511 249.452 167.403 255.457 167.403Z" fill="#FFC13C" stroke="#12192D" stroke-width="0.3" stroke-linecap="round" stroke-linejoin="round"/>
<path d="M415.163 125.686L353.871 161.045C350.676 162.903 348.05 166.993 348.05 170.193C348.05 173.394 350.676 174.454 353.871 172.627L415.163 137.247C418.358 135.394 420.983 131.299 420.983 128.098C420.983 124.898 418.358 123.833 415.163 125.686Z" fill="#6EFFDC" stroke="#12192D" stroke-width="0.3" stroke-linecap="round" stroke-linejoin="round"/>
<path d="M438.442 122.787C440.959 119.506 441.432 115.644 439.498 114.159C437.563 112.675 433.955 114.131 431.438 117.412C428.92 120.692 428.448 124.555 430.382 126.039C432.316 127.523 435.925 126.067 438.442 122.787Z" fill="#6EFFDC" stroke="#12192D" stroke-width="0.3" stroke-linecap="round" stroke-linejoin="round"/>
<path d="M254.877 171.743L238.241 162.158V161.923C243.779 165.119 249.324 168.314 254.877 171.509C255.372 170.38 255.645 169.167 255.681 167.936C255.682 169.247 255.408 170.544 254.877 171.743Z" fill="#C387FA" stroke="#12192D" stroke-width="0.3" stroke-linecap="round" stroke-linejoin="round"/>
<path d="M254.877 171.53L238.241 161.945C242.363 159.229 259.584 160.15 254.877 171.53Z" fill="#F0B4FF" stroke="#12192D" stroke-width="0.3" stroke-linecap="round" stroke-linejoin="round"/>
<path d="M251.99 159.628C253.134 158.58 254.435 157.717 255.846 157.072C256.841 158.803 259.302 159.202 261.219 159.559C256.746 162.28 253.859 164.149 249.104 164.927C250.094 163.723 251.09 162.515 252.086 161.284C252.038 160.858 252.086 160.054 251.99 159.628Z" fill="#FFD27D" stroke="#12192D" stroke-width="0.3" stroke-linecap="round" stroke-linejoin="round"/>
<path d="M255.846 157.072C255.776 154.99 258.471 155.821 260.638 156.886C263.301 158.185 262.768 159.154 261.256 160.432C258.631 162.632 256.075 162.871 254.866 164.858C254.571 164.392 254.213 163.971 253.801 163.606C256.213 162.632 258.391 161.263 261.208 159.559C259.312 159.181 256.831 158.803 255.835 157.072H255.846Z" fill="#505569" stroke="#12192D" stroke-width="0.3" stroke-linecap="round" stroke-linejoin="round"/>
<path d="M262.524 158.989C262.524 159.522 261.991 160.102 261.267 160.72C258.711 162.85 256.251 163.132 254.973 164.98C254.973 164.932 254.925 164.911 254.903 164.863C256.133 162.85 258.689 162.637 261.293 160.438C261.807 160.061 262.222 159.566 262.502 158.995L262.524 158.989Z" fill="#12192D"/>
<path d="M251.99 159.628C250.816 160.26 249.562 160.729 248.263 161.024C249.36 161.25 250.431 161.591 251.458 162.041L252.097 161.263C252.038 160.858 252.06 160.054 251.99 159.628Z" fill="#505569" stroke="#12192D" stroke-width="0.3" stroke-linecap="round" stroke-linejoin="round"/>
<path d="M255.457 167.403C261.463 167.403 266.331 164.511 266.331 160.944C266.331 157.376 261.463 154.484 255.457 154.484C249.452 154.484 244.583 157.376 244.583 160.944C244.583 164.511 249.452 167.403 255.457 167.403Z" stroke="#12192D" stroke-width="0.3" stroke-linecap="round" stroke-linejoin="round"/>
</g>
</svg>
