<svg width="49" height="32" viewBox="0 0 49 32" fill="none" xmlns="http://www.w3.org/2000/svg">
<rect x="0.333008" width="48" height="32" rx="2" fill="white"/>
<rect x="0.333008" width="48" height="32" rx="2" fill="#179BD7"/>
<rect x="22.04" y="17.3921" width="0.768647" height="0.576485" rx="0.288243" fill="#00142A" fill-opacity="0.04"/>
<path d="M22.5026 17.8294H22.3467V17.5493H22.5026L22.5026 17.8294Z" fill="#FF5F00"/>
<path d="M22.3569 17.6899C22.3569 17.6331 22.3835 17.5824 22.4249 17.5498C22.3936 17.5251 22.3548 17.5117 22.3149 17.5117C22.2165 17.5117 22.1367 17.5915 22.1367 17.6899C22.1367 17.7883 22.2165 17.868 22.3149 17.868C22.3548 17.8681 22.3936 17.8547 22.4249 17.8299C22.3835 17.7973 22.3569 17.7467 22.3569 17.6899Z" fill="#EB001B"/>
<path d="M22.713 17.6894C22.713 17.7878 22.6333 17.8675 22.5349 17.8675C22.495 17.8676 22.4562 17.8542 22.4248 17.8295C22.4662 17.7968 22.4929 17.7462 22.4929 17.6894C22.4929 17.6326 22.4662 17.5819 22.4248 17.5493C22.4562 17.5246 22.495 17.5112 22.5349 17.5112C22.6333 17.5112 22.713 17.591 22.713 17.6894" fill="#F79E1B"/>
<rect x="23.001" y="17.3921" width="0.768647" height="0.576485" rx="0.288243" fill="#00142A" fill-opacity="0.04"/>
<path fillRule="evenodd" clip-rule="evenodd" d="M23.277 17.7709L23.3324 17.588H23.3819L23.3265 17.7709H23.277ZM23.2548 17.588L23.2103 17.6656C23.199 17.6859 23.1923 17.6962 23.1891 17.709H23.1885C23.1892 17.6927 23.187 17.6728 23.1868 17.6615L23.1818 17.588H23.0985L23.0977 17.593C23.1191 17.593 23.1318 17.6037 23.1353 17.6257L23.1515 17.7709H23.2028L23.3065 17.588H23.2548ZM23.6398 17.7709L23.6385 17.7437L23.5766 17.7437L23.564 17.7709H23.5102L23.6077 17.5883H23.6737L23.6902 17.7709H23.6398V17.7709ZM23.6341 17.663C23.6336 17.6495 23.6331 17.6312 23.6341 17.6201H23.6333C23.6303 17.6291 23.6174 17.6564 23.6117 17.6698L23.5933 17.7099H23.6367L23.6341 17.663ZM23.4339 17.7761C23.399 17.7761 23.3758 17.7651 23.3592 17.7552L23.3828 17.7192C23.3977 17.7275 23.4093 17.7371 23.4362 17.7371C23.4448 17.7371 23.4531 17.7348 23.4579 17.7266C23.4648 17.7147 23.4563 17.7083 23.4369 17.6974L23.4274 17.6912C23.3987 17.6716 23.3863 17.653 23.3998 17.6205C23.4085 17.5997 23.4312 17.584 23.4688 17.584C23.4947 17.584 23.519 17.5952 23.5332 17.6061L23.5061 17.6379C23.4922 17.6268 23.4808 17.6211 23.4677 17.6211C23.4572 17.6211 23.4493 17.6251 23.4466 17.6306C23.4414 17.6408 23.4482 17.6478 23.4633 17.6571L23.4747 17.6643C23.5095 17.6863 23.5178 17.7093 23.509 17.7308C23.494 17.7679 23.4647 17.7761 23.4339 17.7761Z" fill="#171A72"/>
<rect x="23.9375" y="17.3921" width="0.768647" height="0.576485" rx="0.288243" fill="#00142A" fill-opacity="0.04"/>
<path d="M8.11988 12.0015H4.8012C4.69133 12.0014 4.58505 12.0406 4.50151 12.1119C4.41797 12.1833 4.36266 12.2821 4.34554 12.3906L3.00332 20.9006C2.99715 20.9401 2.99961 20.9805 3.01053 21.0189C3.02145 21.0574 3.04058 21.093 3.06659 21.1233C3.0926 21.1537 3.12488 21.178 3.1612 21.1947C3.19753 21.2114 3.23703 21.22 3.277 21.2199H4.86137C4.97131 21.22 5.07764 21.1807 5.1612 21.1093C5.24475 21.0378 5.30002 20.9389 5.31703 20.8303L5.67903 18.535C5.69603 18.4264 5.75122 18.3276 5.83468 18.2561C5.91813 18.1847 6.02435 18.1454 6.1342 18.1453H7.18479C9.37087 18.1453 10.6325 17.0875 10.962 14.9911C11.1105 14.074 10.9683 13.3534 10.5389 12.8487C10.0672 12.2946 9.23063 12.0015 8.11988 12.0015ZM8.50275 15.1095C8.32126 16.3004 7.4114 16.3004 6.53163 16.3004H6.03084L6.38217 14.0764C6.39245 14.0114 6.42562 13.9521 6.4757 13.9093C6.52579 13.8665 6.5895 13.843 6.65537 13.843H6.8849C7.48419 13.843 8.04952 13.843 8.34164 14.1846C8.51585 14.3884 8.56923 14.6913 8.50275 15.1095ZM18.04 15.0712H16.4508C16.3849 15.0712 16.3212 15.0947 16.2711 15.1375C16.221 15.1803 16.1879 15.2396 16.1776 15.3046L16.1072 15.7491L15.9961 15.588C15.6521 15.0887 14.8849 14.9217 14.1191 14.9217C12.363 14.9217 10.863 16.2518 10.5709 18.1177C10.419 19.0484 10.635 19.9383 11.1629 20.559C11.6472 21.1297 12.3402 21.3674 13.1646 21.3674C14.5796 21.3674 15.3643 20.4576 15.3643 20.4576L15.2934 20.8992C15.2871 20.9386 15.2895 20.979 15.3003 21.0175C15.311 21.056 15.3301 21.0917 15.356 21.1222C15.3819 21.1526 15.4141 21.1771 15.4504 21.1938C15.4867 21.2106 15.5262 21.2194 15.5662 21.2194H16.9977C17.1076 21.2195 17.214 21.1802 17.2975 21.1088C17.3811 21.0373 17.4363 20.9384 17.4533 20.8298L18.3122 15.3905C18.3186 15.3511 18.3163 15.3108 18.3055 15.2724C18.2947 15.234 18.2757 15.1984 18.2498 15.168C18.224 15.1377 18.1918 15.1133 18.1556 15.0966C18.1193 15.0798 18.0799 15.0712 18.04 15.0712ZM15.8248 18.1642C15.6715 19.0722 14.9509 19.6816 14.0318 19.6816C13.5703 19.6816 13.2015 19.5336 12.9647 19.2532C12.7298 18.9746 12.6405 18.5782 12.7153 18.1366C12.8584 17.2364 13.5912 16.6071 14.4962 16.6071C14.9475 16.6071 15.3143 16.757 15.556 17.0399C15.7981 17.3257 15.8942 17.7246 15.8248 18.1642ZM26.5039 15.0712H24.9069C24.8316 15.0713 24.7574 15.0898 24.6909 15.1251C24.6243 15.1603 24.5674 15.2113 24.525 15.2736L22.3224 18.518L21.3888 15.4002C21.3601 15.3051 21.3016 15.2218 21.2219 15.1625C21.1422 15.1033 21.0455 15.0713 20.9462 15.0712H19.3769C19.3328 15.0711 19.2894 15.0815 19.2502 15.1016C19.211 15.1216 19.1771 15.1508 19.1514 15.1866C19.1257 15.2223 19.109 15.2638 19.1025 15.3073C19.0961 15.3509 19.1001 15.3954 19.1144 15.4371L20.8734 20.5993L19.2197 22.9338C19.1903 22.9752 19.1728 23.0239 19.1693 23.0746C19.1657 23.1252 19.1762 23.1758 19.1995 23.2209C19.2228 23.266 19.258 23.3039 19.3014 23.3303C19.3448 23.3567 19.3946 23.3706 19.4453 23.3706H21.0404C21.1148 23.3707 21.1882 23.3527 21.2542 23.3182C21.3202 23.2838 21.3769 23.2338 21.4193 23.1726L26.731 15.5055C26.7598 15.464 26.7767 15.4155 26.7798 15.3651C26.783 15.3147 26.7723 15.2644 26.7489 15.2196C26.7255 15.1749 26.6903 15.1374 26.6471 15.1112C26.6039 15.0851 26.5544 15.0712 26.5039 15.0712Z" fill="white"/>
<path d="M31.7909 12.0005H28.4717C28.3619 12.0005 28.2557 12.0398 28.1723 12.1111C28.0889 12.1824 28.0336 12.2812 28.0165 12.3897L26.6743 20.8996C26.6681 20.9391 26.6704 20.9794 26.6813 21.0178C26.6921 21.0562 26.7111 21.0918 26.7371 21.1221C26.763 21.1525 26.7952 21.1769 26.8314 21.1936C26.8677 21.2103 26.9071 21.2189 26.947 21.2189H28.6503C28.7271 21.2188 28.8014 21.1913 28.8597 21.1413C28.9181 21.0913 28.9567 21.0221 28.9686 20.9462L29.3495 18.534C29.3665 18.4255 29.4217 18.3266 29.5052 18.2551C29.5886 18.1837 29.6948 18.1444 29.8047 18.1443H30.8548C33.0414 18.1443 34.3026 17.0865 34.6325 14.9902C34.7815 14.073 34.6384 13.3524 34.2089 12.8477C33.7377 12.2936 32.9016 12.0005 31.7909 12.0005ZM32.1737 15.1086C31.9927 16.2994 31.0829 16.2994 30.2026 16.2994H29.7023L30.0541 14.0754C30.0642 14.0104 30.0973 13.9511 30.1473 13.9083C30.1973 13.8655 30.261 13.842 30.3268 13.842H30.5564C31.1552 13.842 31.721 13.842 32.0131 14.1837C32.1873 14.3875 32.2402 14.6903 32.1737 15.1086ZM41.7105 15.0702H40.1223C40.0564 15.07 39.9926 15.0935 39.9426 15.1363C39.8926 15.1792 39.8595 15.2385 39.8495 15.3036L39.7792 15.7481L39.6676 15.587C39.3235 15.0877 38.5568 14.9208 37.7911 14.9208C36.0349 14.9208 34.5355 16.2509 34.2434 18.1167C34.092 19.0474 34.3069 19.9374 34.8349 20.558C35.3201 21.1287 36.0121 21.3665 36.8366 21.3665C38.2516 21.3665 39.0362 20.4566 39.0362 20.4566L38.9654 20.8982C38.9591 20.9377 38.9614 20.9782 38.9723 21.0168C38.9831 21.0553 39.0022 21.0911 39.0283 21.1215C39.0543 21.152 39.0866 21.1764 39.123 21.1932C39.1594 21.2099 39.199 21.2185 39.2391 21.2185H40.6701C40.78 21.2184 40.8862 21.1791 40.9696 21.1077C41.0531 21.0362 41.1083 20.9373 41.1253 20.8288L41.9847 15.3895C41.9908 15.35 41.9882 15.3096 41.9773 15.2712C41.9663 15.2328 41.9471 15.1971 41.9211 15.1668C41.895 15.1365 41.8627 15.1121 41.8264 15.0955C41.79 15.0788 41.7505 15.0702 41.7105 15.0702ZM39.4953 18.1633C39.3429 19.0712 38.6214 19.6807 37.7023 19.6807C37.2418 19.6807 36.872 19.5327 36.6352 19.2522C36.4003 18.9736 36.312 18.5772 36.3858 18.1356C36.5299 17.2355 37.2617 16.6061 38.1667 16.6061C38.618 16.6061 38.9848 16.756 39.2265 17.0389C39.4696 17.3247 39.5657 17.7236 39.4953 18.1633ZM43.5841 12.2339L42.222 20.8996C42.2157 20.9391 42.2181 20.9794 42.2289 21.0178C42.2398 21.0562 42.2588 21.0918 42.2847 21.1221C42.3107 21.1525 42.3428 21.1769 42.3791 21.1936C42.4153 21.2103 42.4548 21.2189 42.4947 21.2189H43.8641C44.0917 21.2189 44.2848 21.0539 44.3197 20.8293L45.6629 12.3198C45.6692 12.2803 45.6668 12.24 45.656 12.2016C45.6451 12.1631 45.6261 12.1275 45.6002 12.0971C45.5743 12.0667 45.5421 12.0423 45.5058 12.0256C45.4696 12.0088 45.4302 12.0001 45.3902 12H43.8568C43.791 12.0002 43.7274 12.0239 43.6774 12.0668C43.6274 12.1096 43.5944 12.1689 43.5841 12.2339Z" fill="#F3FBFF"/>
<rect x="25.1621" y="17.3921" width="0.576485" height="0.576485" rx="0.288243" fill="#10298E"/>
<path d="M25.3039 17.655H25.2678C25.2678 17.649 25.2671 17.645 25.2657 17.643C25.2635 17.64 25.2576 17.6385 25.2479 17.6385C25.2384 17.6385 25.2322 17.6394 25.2291 17.6411C25.2261 17.6428 25.2245 17.6466 25.2245 17.6524C25.2245 17.6577 25.2259 17.6611 25.2286 17.6628C25.2306 17.664 25.2331 17.6647 25.2363 17.6649L25.2436 17.6654C25.2592 17.6664 25.269 17.6672 25.2729 17.6676C25.2852 17.6688 25.2942 17.6721 25.2998 17.6774C25.3041 17.6816 25.3068 17.687 25.3076 17.6937C25.3081 17.6977 25.3083 17.7023 25.3083 17.7073C25.3083 17.7189 25.3072 17.7275 25.305 17.7328C25.301 17.7428 25.2919 17.749 25.2778 17.7516C25.2719 17.7527 25.2629 17.7533 25.2508 17.7533C25.2305 17.7533 25.2164 17.7521 25.2085 17.7497C25.1987 17.7467 25.1922 17.7407 25.1891 17.7316C25.1874 17.7266 25.1865 17.7182 25.1865 17.7064H25.2227L25.2227 17.7095C25.2227 17.7157 25.2245 17.7198 25.2281 17.7216C25.2306 17.7228 25.2336 17.7234 25.2371 17.7235H25.2504C25.2572 17.7235 25.2615 17.7232 25.2634 17.7225C25.2667 17.7212 25.2689 17.7191 25.2699 17.7162C25.2705 17.7144 25.2708 17.712 25.2708 17.7092C25.2708 17.7028 25.2685 17.699 25.2638 17.6976C25.2621 17.697 25.254 17.6963 25.2396 17.6953C25.2281 17.6945 25.22 17.6937 25.2156 17.6929C25.2037 17.6907 25.1958 17.6861 25.1919 17.6792C25.1884 17.6734 25.1867 17.6645 25.1867 17.6526C25.1867 17.6435 25.1876 17.6363 25.1895 17.6308C25.1914 17.6253 25.1944 17.6212 25.1985 17.6184C25.2046 17.614 25.2124 17.6115 25.2219 17.6107C25.2298 17.61 25.2386 17.6096 25.2482 17.6096C25.2634 17.6096 25.2742 17.6105 25.2807 17.6123C25.2964 17.6165 25.3043 17.6283 25.3043 17.6478C25.3043 17.6494 25.3042 17.6518 25.3039 17.655L25.3039 17.655ZM25.4629 17.7533V17.6089H25.5353C25.5453 17.6089 25.5529 17.6097 25.5581 17.6113C25.57 17.615 25.578 17.6227 25.5821 17.6342C25.5842 17.6403 25.5852 17.6494 25.5852 17.6616C25.5852 17.6763 25.5841 17.6868 25.5817 17.6932C25.5771 17.7059 25.5675 17.7132 25.5531 17.7151C25.5514 17.7153 25.5442 17.7156 25.5314 17.7158L25.525 17.716H25.5018V17.7533H25.4629ZM25.5018 17.6825H25.526C25.5337 17.6822 25.5384 17.6816 25.5401 17.6807C25.5424 17.6795 25.5439 17.6769 25.5447 17.6731C25.5452 17.6706 25.5454 17.6669 25.5454 17.6619C25.5454 17.6558 25.5449 17.6512 25.5439 17.6483C25.5425 17.6441 25.5392 17.6416 25.5339 17.6407C25.5328 17.6406 25.5303 17.6405 25.5264 17.6405H25.5018L25.5018 17.6825ZM25.6682 17.7283H25.6162L25.6092 17.7533H25.569L25.6124 17.6089H25.671L25.715 17.7533H25.6756L25.6682 17.7283ZM25.6605 17.7002L25.6423 17.6376L25.6246 17.7002H25.6605Z" fill="white"/>
<path d="M25.4085 17.6294C25.4246 17.6294 25.4389 17.6368 25.4483 17.6483L25.4567 17.6304C25.4436 17.618 25.4257 17.6104 25.4061 17.6104C25.3754 17.6104 25.3492 17.6289 25.3385 17.655H25.3221L25.3125 17.6757H25.3335C25.3333 17.6776 25.3333 17.6796 25.3333 17.6815C25.3333 17.6839 25.3334 17.6862 25.3336 17.6885H25.3231L25.3134 17.7092H25.339C25.35 17.7347 25.3759 17.7527 25.4061 17.7527C25.4213 17.7527 25.4353 17.7481 25.447 17.7403V17.715C25.4376 17.7257 25.4239 17.7324 25.4085 17.7324C25.3906 17.7324 25.3749 17.7232 25.3657 17.7092H25.4193L25.4289 17.6885H25.3578C25.3572 17.6843 25.3571 17.68 25.3575 17.6757H25.4349L25.4445 17.655H25.3642C25.3731 17.6397 25.3896 17.6294 25.4085 17.6294" fill="#FFBE00"/>
</svg>
