<svg width="104" height="85" viewBox="0 0 104 85" fill="none" xmlns="http://www.w3.org/2000/svg">
<g clip-path="url(#clip0_1889_7700)">
<rect x="0.303955" width="103.417" height="85" rx="5.66667" fill="white"/>
<rect x="0.303955" width="103.417" height="85" rx="5.66667" fill="#00142A" fill-opacity="0.04"/>
<rect x="-18.1127" y="12.75" width="77.9167" height="48.1667" rx="2.83333" fill="url(#paint0_linear_1889_7700)"/>
<path d="M-8.2727 44.2434C-10.6356 45.8186 -10.9637 48.2056 -11.0294 49.5839H14.9621C14.5026 48.2056 14.1745 45.8186 12.0085 44.2434C10.0394 42.8114 4.72302 42.561 1.96635 42.6922C-0.659049 42.561 -6.33751 42.9533 -8.2727 44.2434Z" fill="#2B547A"/>
<path d="M-1.17757 41.5239C-0.83189 40.9708 -1.03354 39.8531 -1.17757 39.3634C-0.370948 39.153 0.745931 38.9084 1.76069 38.7752C3.24647 38.5802 4.51333 38.624 4.26685 39.3634C3.85204 40.6078 4.90059 42.244 5.47672 42.9066C4.87179 43.4539 3.92118 44.5485 1.50143 44.5485C-0.226954 44.5485 -1.69608 43.4539 -2.2146 42.9066C-2.01295 42.6761 -1.52324 42.077 -1.17757 41.5239Z" fill="#E8A97C"/>
<ellipse cx="1.78915" cy="33.38" rx="5.31643" ry="8.46691" fill="#F4BD95"/>
<ellipse rx="0.984524" ry="1.77214" transform="matrix(-0.97063 -0.240577 -0.240577 0.97063 6.91226 35.1395)" fill="#F4BD95"/>
<path d="M-2.73313 32.1041C-2.99238 33.6597 -3.28993 34.3237 -3.68374 34.7831C-4.07755 33.3392 -4.86627 29.8353 -3.92112 27.4725C-2.73969 24.5189 -0.529979 24.3504 1.24217 24.1535C3.01431 23.9566 5.1365 24.1251 6.51484 25.3065C7.89317 26.488 7.57484 27.0962 7.37794 28.4745C8.48061 29.2621 8.54952 30.7564 8.15571 31.4128L6.94584 34.7831L6.71174 34.1672C6.51484 33.0547 6.51484 32.5526 6.51484 31.6075C6.51484 30.4261 6.04571 29.9373 5.47671 29.6844C4.69894 29.3387 3.14339 29.7708 2.79771 29.8353C2.45204 29.8999 2.45204 29.9436 1.93352 29.9436C1.415 29.9436 1.8471 29.9863 1.06933 29.8353C0.291553 29.6844 -1.23884 29.3693 -1.86893 29.6844C-2.65655 30.0782 -2.5389 30.9388 -2.73313 32.1041Z" fill="#3C3B3B"/>
<rect x="20.1373" y="25.5" width="7.08333" height="2.83333" fill="#82A3C2"/>
<rect x="31.4706" y="25.5" width="7.08333" height="2.83333" fill="#595959"/>
<rect x="20.1373" y="32.583" width="7.08333" height="2.83333" fill="#82A3C2"/>
<rect x="31.4706" y="32.583" width="11.3333" height="2.83333" fill="#595959"/>
<rect x="20.1373" y="39.6665" width="7.08333" height="2.83333" fill="#82A3C2"/>
<rect x="31.4706" y="39.6665" width="17" height="2.83333" fill="#595959"/>
<rect x="20.1373" y="46.75" width="7.08333" height="2.83333" fill="#82A3C2"/>
<rect x="31.4706" y="46.75" width="21.25" height="2.83333" fill="#595959"/>
</g>
<circle cx="52.0123" cy="64.458" r="10.625" fill="#EB6666"/>
<path d="M48.1444 60.5996L55.8805 68.3357" stroke="white" stroke-width="1.7"/>
<path d="M48.1444 60.5996L55.8805 68.3357" stroke="white" stroke-width="1.7"/>
<path d="M55.8805 60.5996L48.1444 68.3357" stroke="white" stroke-width="1.7"/>
<defs>
<linearGradient id="paint0_linear_1889_7700" x1="-18.1127" y1="19.8333" x2="58.3873" y2="59.5" gradientUnits="userSpaceOnUse">
<stop offset="0.0552594" stop-color="#9FEEFF"/>
<stop offset="0.520833" stop-color="#FFE1FA"/>
<stop offset="1" stop-color="#CBF6FF"/>
</linearGradient>
<clipPath id="clip0_1889_7700">
<rect width="103.417" height="85" fill="white" transform="translate(0.303955)"/>
</clipPath>
</defs>
</svg>
