<svg width="105" height="85" viewBox="0 0 105 85" fill="none" xmlns="http://www.w3.org/2000/svg">
<g clip-path="url(#clip0_1889_7746)">
<rect x="0.911926" width="103.417" height="85" rx="5.66667" fill="white"/>
<rect x="0.911926" width="103.417" height="85" rx="5.66667" fill="#00142A" fill-opacity="0.04"/>
<rect x="13.662" y="12.75" width="77.9167" height="48.1667" rx="2.83333" fill="url(#paint0_linear_1889_7746)"/>
<path d="M23.502 44.2434C21.1392 45.8186 20.811 48.2056 20.7454 49.5839H46.7368C46.2774 48.2056 45.9492 45.8186 43.7832 44.2434C41.8142 42.8114 36.4978 42.561 33.7411 42.6922C31.1157 42.561 25.4372 42.9533 23.502 44.2434Z" fill="#2B547A"/>
<path d="M30.5972 41.5239C30.9428 40.9708 30.7412 39.8531 30.5972 39.3634C31.4038 39.153 32.5207 38.9084 33.5354 38.7752C35.0212 38.5802 36.2881 38.624 36.0416 39.3634C35.6268 40.6078 36.6753 42.244 37.2515 42.9066C36.6465 43.4539 35.6959 44.5485 33.2762 44.5485C31.5478 44.5485 30.0787 43.4539 29.5601 42.9066C29.7618 42.6761 30.2515 42.077 30.5972 41.5239Z" fill="#E8A97C"/>
<ellipse cx="33.5639" cy="33.38" rx="5.31643" ry="8.46691" fill="#F4BD95"/>
<ellipse cx="28.0541" cy="35.1395" rx="0.984524" ry="1.77214" transform="rotate(-13.9206 28.0541 35.1395)" fill="#F4BD95"/>
<ellipse rx="0.984524" ry="1.77214" transform="matrix(-0.97063 -0.240577 -0.240577 0.97063 38.687 35.1395)" fill="#F4BD95"/>
<path d="M29.0416 32.1041C28.7823 33.6597 28.4848 34.3237 28.091 34.7831C27.6972 33.3392 26.9085 29.8353 27.8536 27.4725C29.035 24.5189 31.2447 24.3504 33.0169 24.1535C34.789 23.9566 36.9112 24.1251 38.2896 25.3065C39.6679 26.488 39.3496 27.0962 39.1527 28.4745C40.2553 29.2621 40.3243 30.7564 39.9304 31.4128L38.7206 34.7831L38.4865 34.1672C38.2896 33.0547 38.2896 32.5526 38.2896 31.6075C38.2896 30.4261 37.8204 29.9373 37.2514 29.6844C36.4737 29.3387 34.9181 29.7708 34.5724 29.8353C34.2268 29.8999 34.2268 29.9436 33.7082 29.9436C33.1897 29.9436 33.6218 29.9863 32.8441 29.8353C32.0663 29.6844 30.5359 29.3693 29.9058 29.6844C29.1182 30.0782 29.2358 30.9388 29.0416 32.1041Z" fill="#3C3B3B"/>
<rect x="51.912" y="25.5" width="7.08333" height="2.83333" fill="#82A3C2"/>
<rect x="63.2454" y="25.5" width="7.08333" height="2.83333" fill="#595959"/>
<rect x="51.912" y="32.583" width="7.08333" height="2.83333" fill="#82A3C2"/>
<rect x="63.2454" y="32.583" width="11.3333" height="2.83333" fill="#595959"/>
<rect x="51.912" y="39.6665" width="7.08333" height="2.83333" fill="#82A3C2"/>
<rect x="63.2454" y="39.6665" width="17" height="2.83333" fill="#595959"/>
<rect x="51.912" y="46.75" width="7.08333" height="2.83333" fill="#82A3C2"/>
<rect x="63.2454" y="46.75" width="21.25" height="2.83333" fill="#595959"/>
<path d="M64.662 19.833L65.7834 28.3363L69.4775 20.5957L67.9164 29.0293L73.8217 22.8092L69.7308 30.3476L77.2692 26.2567L71.049 32.162L79.4826 30.6008L71.7421 34.295L80.2453 35.4163L71.7421 36.5377L79.4826 40.2319L71.049 38.6707L77.2692 44.576L69.7308 40.4851L73.8217 48.0235L67.9164 41.8034L69.4775 50.237L65.7834 42.4964L64.662 50.9997L63.5406 42.4964L59.8465 50.237L61.4077 41.8034L55.5024 48.0235L59.5932 40.4851L52.0548 44.576L58.275 38.6707L49.8414 40.2319L57.5819 36.5377L49.0787 35.4163L57.5819 34.295L49.8414 30.6008L58.275 32.162L52.0548 26.2567L59.5932 30.3476L55.5024 22.8092L61.4077 29.0293L59.8465 20.5957L63.5406 28.3363L64.662 19.833Z" fill="white"/>
</g>
<circle cx="52.6204" cy="64.458" r="10.625" fill="#EB6666"/>
<path d="M48.7525 60.5996L56.4885 68.3357" stroke="white" stroke-width="1.7"/>
<path d="M48.7525 60.5996L56.4885 68.3357" stroke="white" stroke-width="1.7"/>
<path d="M56.4885 60.5996L48.7525 68.3357" stroke="white" stroke-width="1.7"/>
<defs>
<linearGradient id="paint0_linear_1889_7746" x1="13.662" y1="19.8333" x2="90.162" y2="59.5" gradientUnits="userSpaceOnUse">
<stop offset="0.0552594" stop-color="#9FEEFF"/>
<stop offset="0.520833" stop-color="#FFE1FA"/>
<stop offset="1" stop-color="#CBF6FF"/>
</linearGradient>
<clipPath id="clip0_1889_7746">
<rect width="103.417" height="85" fill="white" transform="translate(0.911926)"/>
</clipPath>
</defs>
</svg>
