<svg width="48" height="32" viewBox="0 0 48 32" fill="none" xmlns="http://www.w3.org/2000/svg">
<rect width="48" height="32" rx="2" fill="white"/>
<rect width="48" height="32" rx="2" fill="#10298E"/>
<path d="M12.1465 14.3857H9.22682C9.22682 13.9067 9.17042 13.5851 9.05828 13.4215C8.88462 13.1794 8.4054 13.0582 7.6204 13.0582C6.85827 13.0582 6.35307 13.1277 6.10657 13.2673C5.86008 13.4075 5.73661 13.7121 5.73661 14.1809C5.73661 14.6053 5.84587 14.8851 6.06483 15.019C6.22183 15.114 6.42901 15.17 6.68728 15.1867L7.27597 15.2282C8.53798 15.3117 9.32587 15.371 9.64009 15.4045C10.6381 15.5051 11.3615 15.7702 11.8103 16.2004C12.1634 16.5359 12.3742 16.9745 12.4412 17.5157C12.4808 17.8399 12.5001 18.2063 12.5001 18.6136C12.5001 19.5525 12.4106 20.2398 12.2314 20.6752C11.9065 21.4747 11.1761 21.9797 10.04 22.1917C9.56392 22.2812 8.83577 22.3261 7.85623 22.3261C6.22116 22.3261 5.08196 22.2288 4.43864 22.0332C3.64919 21.7936 3.12845 21.3081 2.87662 20.5773C2.73628 20.1703 2.66699 19.4925 2.66699 18.5436H5.58627L5.5865 18.7863C5.5865 19.2927 5.73195 19.618 6.02263 19.763C6.22382 19.8629 6.46676 19.9156 6.75234 19.9218H7.82581C8.37342 19.9218 8.72296 19.8938 8.87374 19.8374C9.14222 19.7319 9.31832 19.562 9.40248 19.3271C9.44711 19.1821 9.46932 18.9951 9.46932 18.7657C9.46932 18.2525 9.28212 17.9403 8.90794 17.8281C8.76759 17.7839 8.11694 17.722 6.95509 17.644C6.02197 17.5774 5.37376 17.5132 5.0109 17.4511C4.05513 17.2723 3.41802 16.9046 3.10024 16.3463C2.82066 15.8722 2.6812 15.1547 2.6812 14.1945C2.6812 13.4636 2.75671 12.8774 2.90771 12.4366C3.05872 11.9956 3.3021 11.6607 3.63787 11.4317C4.13041 11.08 4.75996 10.8739 5.52632 10.8122C6.16453 10.7564 6.87181 10.728 7.65016 10.728C8.87529 10.728 9.74868 10.7986 10.2692 10.9383C11.5396 11.2796 12.1748 12.2356 12.1748 13.8067C12.1748 13.9355 12.1652 14.1283 12.1463 14.3859L12.1465 14.3857ZM24.9842 22.3261V10.6665H30.8307C31.6326 10.6665 32.2444 10.7318 32.665 10.8628C33.6266 11.1639 34.2717 11.7811 34.6021 12.7131C34.7726 13.2025 34.8581 13.9393 34.8581 14.9231C34.8581 16.1058 34.7635 16.9554 34.5761 17.4731C34.201 18.4963 33.4294 19.0859 32.2637 19.2385C32.1267 19.2616 31.5436 19.2818 30.5139 19.2984L29.9931 19.3158H28.1222V22.3261H24.9842ZM28.1224 16.6112H30.0788C30.6991 16.589 31.0763 16.5413 31.212 16.4666C31.3975 16.3647 31.522 16.1604 31.584 15.8542C31.6237 15.6506 31.6435 15.3474 31.6435 14.9448C31.6435 14.4516 31.604 14.0861 31.5249 13.8474C31.4121 13.5127 31.1419 13.3093 30.7137 13.2351C30.6289 13.224 30.4261 13.218 30.105 13.218H28.1226L28.1224 16.6112ZM41.5565 20.3111H37.3608L36.797 22.3261H33.5504L37.0539 10.6665H41.7875L45.3337 22.3261H42.1552L41.5565 20.3111ZM40.9334 18.0398L39.4629 12.9855L38.0361 18.0398H40.9334Z" fill="white"/>
<path d="M20.653 12.3072C21.9472 12.3072 23.1024 12.9034 23.8616 13.8372L24.538 12.3869C23.4801 11.3867 22.0405 10.77 20.4522 10.77C17.9795 10.77 15.8644 12.2636 14.9965 14.3777H13.6774L12.8984 16.0474H14.5952C14.5818 16.203 14.5747 16.3591 14.5741 16.5153C14.5741 16.7065 14.5841 16.8959 14.603 17.0827H13.7503L12.9717 18.7528H15.0369C15.9296 20.8134 18.0184 22.2599 20.4522 22.2599C21.6789 22.2599 22.8172 21.8924 23.7595 21.2644V19.2176C23.0004 20.0817 21.8906 20.6278 20.653 20.6278C19.2064 20.6278 17.934 19.8818 17.1932 18.7528H21.5175L22.2963 17.0827H16.5572C16.5064 16.7399 16.4982 16.3921 16.5328 16.0472H22.7793L23.5578 14.3777H17.0724C17.7897 13.1399 19.1243 12.3069 20.653 12.3069" fill="#FFBE00"/>
</svg>
