<svg width="23" height="22" viewBox="0 0 23 22" fill="none" xmlns="http://www.w3.org/2000/svg">
<path fillRule="evenodd" clip-rule="evenodd" d="M0.5 21.5V2.83333C0.5 1.54467 1.54467 0.5 2.83333 0.5H20.1667C21.4553 0.5 22.5 1.54467 22.5 2.83333V14.5C22.5 15.7887 21.4553 16.8333 20.1667 16.8333H7.5C6.99499 16.8324 6.50345 16.9962 6.1 17.3L0.5 21.5ZM6.5 10C7.32843 10 8 9.32843 8 8.5C8 7.67157 7.32843 7 6.5 7C5.67157 7 5 7.67157 5 8.5C5 9.32843 5.67157 10 6.5 10ZM13 8.5C13 9.32843 12.3284 10 11.5 10C10.6716 10 10 9.32843 10 8.5C10 7.67157 10.6716 7 11.5 7C12.3284 7 13 7.67157 13 8.5ZM16.5 10C17.3284 10 18 9.32843 18 8.5C18 7.67157 17.3284 7 16.5 7C15.6716 7 15 7.67157 15 8.5C15 9.32843 15.6716 10 16.5 10Z" fill="#00142A" fill-opacity="0.6"/>
</svg>
