<svg width="14" height="16" viewBox="0 0 14 16" fill="none" xmlns="http://www.w3.org/2000/svg">
<path d="M0 2L7 0L14 2V6.63239C14 9.3545 12.6158 11.8898 10.3261 13.3618L7 15.5L3.67394 13.3618C1.38416 11.8898 0 9.3545 0 6.63239V2Z" fill="#2DBD96"/>
<path fillRule="evenodd" clip-rule="evenodd" d="M12 3.5086L7 2.08003L2 3.5086V6.63239C2 8.67397 3.03812 10.5755 4.75546 11.6795L7 13.1224L9.24454 11.6795C10.9619 10.5755 12 8.67397 12 6.63239V3.5086ZM7 15.5L10.3261 13.3618C12.6158 11.8898 14 9.3545 14 6.63239V2L7 0L0 2V6.63239C0 9.3545 1.38416 11.8898 3.67394 13.3618L7 15.5Z" fill="#9FF0DA"/>
<path fillRule="evenodd" clip-rule="evenodd" d="M10.7071 5.70718L6.50001 9.91429L3.79291 7.20718L5.20712 5.79297L6.50001 7.08586L9.29291 4.29297L10.7071 5.70718Z" fill="#9FF0DA"/>
</svg>
