<?xml version="1.0" encoding="UTF-8"?>
<svg width="148px" height="148px" viewBox="0 0 148 148" version="1.1" xmlns="http://www.w3.org/2000/svg" xmlns:xlink="http://www.w3.org/1999/xlink">
    <title>Nodata／Light</title>
    <defs>
        <linearGradient x1="61.9320941%" y1="32.3194605%" x2="77.8827702%" y2="47.5039099%" id="linearGradient-1">
            <stop stop-color="#58CCB6" stop-opacity="0.08" offset="0%"></stop>
            <stop stop-color="#58CCB6" stop-opacity="0" offset="100%"></stop>
        </linearGradient>
    </defs>
    <g id="委托记录" stroke="none" stroke-width="1" fill="none" fillRule="evenodd">
        <g id="委托记录空状态" transform="translate(-665.000000, -436.000000)">
            <g id="Nodata／Light" transform="translate(665.000000, 436.000000)">
                <rect id="Rectangle" x="0" y="0" width="148" height="148"></rect>
                <g id="Group" transform="translate(34.000000, 12.000000)" fillRule="nonzero">
                    <polygon id="Path-2" fill-opacity="0.08" fill="#24AE8F" points="0.193 114.282 6.1932 118.282 6 49.804 17.3082 30.216 62.7162 4 56.716 0 11.308 26.216 0 45.804"></polygon>
                    <polygon id="Combined-Shape" fill-opacity="0.24" fill="#24AE8F" points="56.716 2.13162821e-14 56.737 7.452 55.314 8.273 55.298 2.451 12.027 27.432 1.419 45.807 1.607 111.835 6.167 109.202 6.172 110.83 0.193 114.282 0.002 46.624 5.68434189e-14 45.804 11.308 26.216 12.024 25.803"></polygon>
                    <g id="Group-7" transform="translate(6.000000, 4.000000)" fill="#24AE8F">
                        <polygon id="Fill-1" fill-opacity="0.16" points="48.2848 35.0776 48.2898 36.7066 8.5638 59.6416 8.5588 58.0136"></polygon>
                        <polygon id="Fill-2" fill-opacity="0.16" points="48.2613 26.9267 48.2663 28.5557 8.5403 51.4907 8.5353 49.8627"></polygon>
                        <polygon id="Fill-3" fill-opacity="0.16" points="48.356 60.3447 48.361 61.9727 19.988 78.3547 19.983 76.7257"></polygon>
                        <polygon id="Fill-4" fill-opacity="0.16" points="48.3775 67.6811 48.3815 69.3091 37.0295 75.8641 37.0245 74.2351"></polygon>
                        <polygon id="Fill-5" fill-opacity="0.16" points="8.5795 65.3491 48.3055 42.4141 48.3405 54.6371 8.6145 77.5721"></polygon>
                        <path d="M56.7162,0 L12.0242,25.803 L11.3082,26.216 L0.0002,45.804 L0.0022,46.624 L0.1932,114.282 L56.9472,81.516 L56.7162,0 Z M1.4192,45.807 L12.0622,39.662 L12.0272,27.432 L55.2982,2.451 L55.5192,80.709 L1.6072,111.835 L1.4192,45.807 Z M10.6092,29.743 L10.6342,38.848 L2.7112,43.422 L10.6092,29.743 Z" id="Fill-6" fill-opacity="0.24"></path>
                    </g>
                    <polygon id="Rectangle" fill="url(#linearGradient-1)" points="6.1932 118.282 62.9472 85.516 81 97.5 24 130"></polygon>
                </g>
            </g>
        </g>
    </g>
</svg>