<?xml version="1.0" encoding="UTF-8"?>
<svg width="100px" height="100px" viewBox="0 0 100 100" version="1.1" xmlns="http://www.w3.org/2000/svg" xmlns:xlink="http://www.w3.org/1999/xlink">
    <!-- Generator: Sketch 52.2 (67145) - http://www.bohemiancoding.com/sketch -->
    <title>taxi-driver</title>
    <desc>Created with Sketch.</desc>
    <g id="taxi-driver" stroke="none" stroke-width="1" fill="none" fillRule="evenodd">
        <g transform="translate(17.000000, 10.000000)" fill="#000000">
            <path d="M33.8339063,38.5964063 L31.1671875,38.5964063 C30.4307813,38.5964063 29.8339063,39.1932812 29.8339063,39.9296875 C29.8339063,40.6660938 30.4307813,41.2629688 31.1671875,41.2629688 L33.8339063,41.2629688 C34.5703125,41.2629688 35.1671875,40.6660938 35.1671875,39.9296875 C35.1671875,39.1932812 34.5703125,38.5964063 33.8339063,38.5964063 Z" id="Path"></path>
            <path d="M35.1673438,43.9296875 L29.8340625,43.9296875 C29.0976562,43.9296875 28.5007812,44.5267188 28.5007812,45.2629687 C28.5007812,45.999375 29.0976562,46.59625 29.8340625,46.59625 L35.1673438,46.59625 C35.90375,46.59625 36.500625,45.9992187 36.500625,45.2629687 C36.500625,44.5267188 35.90375,43.9296875 35.1673438,43.9296875 Z" id="Path"></path>
            <path d="M28.500625,29.2629687 L23.1673437,29.2629687 C22.4309375,29.2629687 21.8340625,29.8598438 21.8340625,30.59625 C21.8340625,31.3326562 22.4309375,31.9295313 23.1673437,31.9295313 L24.500625,31.9295313 L24.500625,33.2628125 C24.500625,33.9992188 25.0976562,34.5960938 25.8339062,34.5960938 C26.5703125,34.5960938 27.1671875,33.9992188 27.1671875,33.2628125 L27.1671875,31.9295313 L28.5004687,31.9295313 C29.236875,31.9295313 29.83375,31.3326562 29.83375,30.59625 C29.83375,29.8598438 29.2370313,29.2629687 28.500625,29.2629687 Z" id="Path"></path>
            <path d="M41.8339063,29.2629687 L36.500625,29.2629687 C35.7642187,29.2629687 35.1673438,29.8598438 35.1673438,30.59625 C35.1673438,31.3326562 35.7642187,31.9295313 36.500625,31.9295313 L37.8339062,31.9295313 L37.8339062,33.2628125 C37.8339062,33.9992188 38.4307813,34.5960938 39.1671875,34.5960938 C39.9035937,34.5960938 40.5004687,33.9992188 40.5004687,33.2628125 L40.5004687,31.9295313 L41.83375,31.9295313 C42.5701563,31.9295313 43.1670313,31.3326562 43.1670313,30.59625 C43.1670313,29.8598438 42.5703125,29.2629687 41.8339063,29.2629687 Z" id="Path"></path>
            <path d="M64.6634375,74.7135938 L62.8821875,69.1589063 C62.065625,66.985625 60.7946875,65.0115625 59.154375,63.3685938 C58.0525,62.414375 56.8885937,61.534375 55.67,60.7345313 L55.545,60.65375 C55.0051562,60.3440625 54.4457812,60.0696875 53.8704687,59.8321875 C51.9195312,59.0320313 49.8328125,58.6151562 47.724375,58.6042188 L43.3351562,54.2160937 C43.331875,53.0254688 43.4020313,51.8359375 43.545,50.6539062 C43.7115625,49.2423438 43.9490625,47.84 44.256875,46.4523438 C45.908125,44.6446875 46.9265625,42.34875 47.158125,39.9114062 C47.3265625,39.96 47.5,39.9889062 47.675,39.9976563 C47.918125,39.9973437 48.1595312,39.9571875 48.3898437,39.8792187 C49.0773437,39.65 51.1671875,38.9534375 51.1671875,30.5967187 C51.1671875,29.6982812 51.1671875,26.9651562 49.3273437,26.1396875 C49.0320312,26.01125 48.7134375,25.9453125 48.3914062,25.9459375 C48.5954688,24.4645313 48.513125,22.9576562 48.1490625,21.5073437 C51.8089062,19.1565625 53.8339062,16.0810938 53.8339062,12.788125 C53.8339062,5.6171875 44.4629687,0 32.500625,0 C20.5382812,0 11.1673438,5.6171875 11.1673438,12.7878125 C11.1673438,16.0804688 13.1923437,19.1548437 16.84875,21.5107813 C16.4875,22.9604688 16.4065625,24.465625 16.6103125,25.945625 C16.288125,25.9445312 15.9692187,26.0104688 15.6739062,26.139375 C13.8340625,26.9648438 13.8340625,29.6979688 13.8340625,30.5964063 C13.8340625,38.953125 15.9239062,39.6496875 16.6114062,39.8789062 C16.8417188,39.9570312 17.083125,39.9970312 17.32625,39.9973437 C17.50125,39.9885937 17.6748438,39.9596875 17.843125,39.9110937 C18.0746875,42.3485937 19.0929687,44.6445312 20.7445312,46.4520313 C21.0529687,47.8421875 21.2904687,49.2470312 21.4564062,50.6614062 C21.5995312,51.8407812 21.6695312,53.0278125 21.66625,54.2157812 L17.2771875,58.6039063 C15.1671875,58.615 13.0792187,59.0323438 11.1271875,59.8332812 C10.5532812,60.070625 9.9953125,60.3446875 9.4565625,60.6535937 L9.3315625,60.734375 C8.11484375,61.5335938 6.9521875,62.4121875 5.85109375,63.3645312 C4.1921875,65.0225 2.911875,67.0201562 2.0984375,69.22 L0.33671875,74.7160937 C-0.3334375,76.8234375 0.83171875,79.0751563 2.93921875,79.7453125 C3.3321875,79.8703125 3.74203125,79.93375 4.154375,79.9335938 L30.7507812,79.9335938 C30.8853125,79.9775 31.0259375,80 31.1675,80 L33.8342187,80 C33.968125,79.9996875 34.1009375,79.9773438 34.2275,79.9335938 L60.8473437,79.9335938 C63.0584375,79.9348437 64.851875,78.1432813 64.8529688,75.9321875 C64.8529688,75.5185938 64.7890625,75.1076563 64.6634375,74.7135938 Z M45.2051562,59.858125 L43.0495312,61.703125 C41.5271875,60.7529688 39.883125,60.0135937 38.1621875,59.5051563 L41.765,56.4165625 L45.2051562,59.858125 Z M34.8590625,58.8242188 C33.2923437,58.6364063 31.70875,58.6364063 30.1420312,58.8239063 L24.32625,53.836875 C24.3159375,52.6728125 24.2420312,51.5101563 24.1048437,50.3540625 C24.0907812,50.229375 24.0660937,50.099375 24.0507812,49.9742188 C24.8560937,50.721875 25.7103125,51.4792188 26.67125,52.2578125 C30.0682812,55.0120313 34.9292187,55.013125 38.3275,52.2604688 C39.2890625,51.4815625 40.1435937,50.7235938 40.949375,49.9754688 C40.934375,50.0973438 40.9101562,50.225 40.8964062,50.3464063 C40.759375,51.505 40.6854687,52.6703125 40.675,53.8370313 L34.8590625,58.8242188 Z M48.2246875,28.62375 C48.4557813,29.2542187 48.5498437,29.9267187 48.5007812,30.5964063 C48.5007812,34.7709375 47.92,36.639375 47.5879687,37.2175 C47.3776563,37.0329687 47.1865625,36.8275 47.0175,36.6045313 C46.9407813,34.0092187 47.1965625,31.4146875 47.7784375,28.8842188 C47.9146875,28.7776562 48.0648438,28.69 48.2246875,28.62375 Z M13.8339062,12.7878125 C13.8339062,7.3021875 22.3820312,2.66671875 32.500625,2.66671875 C42.6192187,2.66671875 51.1673437,7.3021875 51.1673437,12.7878125 C51.1140625,14.3332813 50.5048437,15.8078125 49.4515625,16.94 C49.5670312,16.811875 49.6601562,16.6654688 49.7273437,16.5065625 C49.8696875,16.1839062 49.8696875,15.81625 49.7273437,15.4935938 C49.6598437,15.331875 49.5651562,15.183125 49.4473437,15.0534375 C49.38375,14.9960938 49.3167187,14.9426563 49.246875,14.8932813 C49.1728125,14.8426562 49.0921875,14.8023438 49.0073437,14.7734375 C48.9317187,14.7351563 48.8510937,14.7079688 48.7678125,14.6926563 C48.14,14.5501563 47.503125,14.8917188 47.274375,15.4934375 C47.1320312,15.8160938 47.1320312,16.18375 47.274375,16.5064063 C47.3421875,16.6679688 47.436875,16.8167188 47.554375,16.9465625 C48.0790625,17.4615625 48.919375,17.4623438 49.445,16.948125 C48.8685937,17.6160938 48.2170312,18.2154688 47.5032812,18.7342188 C47.395,18.6967188 47.2820312,18.6739063 47.1676562,18.6664063 L17.8340625,18.6664063 C17.7185937,18.6739063 17.6048437,18.696875 17.4954687,18.7348438 C15.1270312,16.9903125 13.8339062,14.915625 13.8339062,12.7878125 Z M44.8079687,21.3332812 C42.8560937,22.7460938 38.3978125,24 32.500625,24 C26.5982812,24 22.1373437,22.7434375 20.1907812,21.3332812 L44.8079687,21.3332812 Z M17.9842187,36.6042188 C17.8151562,36.8273437 17.6239062,37.0328125 17.4134375,37.2175 C17.0814062,36.639375 16.500625,34.7707812 16.500625,30.5964063 C16.4515625,29.9267187 16.5457812,29.2542187 16.7765625,28.62375 C16.9365625,28.6914062 17.086875,28.7798438 17.22375,28.8867188 C17.8054687,31.41625 18.0610937,34.0098438 17.9842187,36.6042188 Z M20.500625,39.8229688 C20.500625,39.52875 20.5123437,39.233125 20.5357812,38.9596875 C20.9279687,34.936875 20.5846875,30.8764063 19.5228125,26.9765625 C19.2915625,26.1129687 19.1720312,25.2234375 19.1673437,24.329375 C19.1673437,24.1692187 19.1926562,24.0146875 19.2001562,23.8560937 C22.039375,25.6014062 26.9035937,26.6667188 32.500625,26.6667188 C38.0982812,26.6667188 42.963125,25.60125 45.8009375,23.8575 C45.8084375,24.0154688 45.8339062,24.1701562 45.8339062,24.3295312 C45.8296875,25.218125 45.7114062,26.1025 45.4823437,26.9610937 C44.4182812,30.8628125 44.07375,34.925625 44.4654687,38.950625 C44.4889062,39.233125 44.500625,39.52875 44.500625,39.8229688 C44.500625,42.405 41.7115625,46.0859375 36.6451562,50.1901563 C34.2284375,52.1503125 30.7689062,52.1492188 28.3534375,50.1875 C23.2896875,46.0859375 20.500625,42.405 20.500625,39.8229688 Z M23.2364062,56.4167188 L26.8392187,59.5053125 C25.1182812,60.0139063 23.4742187,60.753125 21.9517187,61.7029688 L19.79625,59.8582813 L23.2364062,56.4167188 Z M4.154375,77.266875 C3.72703125,77.2695312 3.32453125,77.0659375 3.07359375,76.72 C2.81953125,76.376875 2.74625,75.9323438 2.87703125,75.5259375 L4.6165625,70.09375 C5.29984375,68.2734375 6.365,66.6204688 7.7403125,65.2460938 C7.85484375,65.1301563 8.18953125,64.8567188 10.8353125,62.9375 C11.255625,62.6992188 11.6901562,62.4865625 12.1360938,62.3007813 C13.7879687,61.6223438 15.5560937,61.2714063 17.341875,61.2676563 L19.7073437,63.2925 C19.24,63.683125 18.7879687,64.093125 18.3573437,64.5235938 C14.9435937,67.9270313 12.8857812,72.4570313 12.5689062,77.2670313 L4.154375,77.2670313 L4.154375,77.266875 Z M20.58,77.266875 C21.0389062,73.4201562 23.3195312,70.0285937 26.7089062,68.1523437 C27.0045312,67.9873437 27.3117187,67.8453125 27.6203125,67.7073437 L29.5279687,77.266875 L20.58,77.266875 Z M35.4726562,77.266875 L37.3807812,67.7075 C37.6909375,67.84625 38,67.9892188 38.29875,68.15625 C41.6848437,70.033125 43.9626562,73.4226563 44.4210937,77.266875 L35.4726562,77.266875 Z M47.0976562,77.266875 C46.63125,72.4484375 43.8232812,68.168125 39.5892187,65.8215625 C38.6928125,65.3229688 37.745,64.9229688 36.7623437,64.6289062 C36.740625,64.6225 36.719375,64.6282813 36.6976562,64.623125 C36.6753125,64.6176563 36.65875,64.6021875 36.6359375,64.5978125 C36.5657812,64.5923438 36.4953125,64.5928125 36.4251562,64.5989062 C36.3415625,64.5914063 36.2575,64.591875 36.1740625,64.6003125 C36.085625,64.6179688 35.999375,64.6448438 35.9165625,64.6807813 C35.7539062,64.7248438 35.6073437,64.815 35.4946875,64.9403125 C35.4320312,64.9920313 35.3745312,65.0496875 35.3228125,65.1123438 C35.2723437,65.1873438 35.2298437,65.2673438 35.1957812,65.3510938 C35.1604687,65.4064063 35.1295312,65.4645313 35.1032812,65.5246875 C35.0967187,65.5465625 35.1026562,65.5678125 35.0975,65.5895313 C35.0920312,65.611875 35.0765625,65.6282813 35.0721875,65.6510938 L32.7535937,77.2670313 L32.2476562,77.2670313 L29.9290625,65.6510938 C29.9246875,65.6285938 29.9092187,65.6120313 29.90375,65.5898438 C29.8985937,65.5679688 29.904375,65.5465625 29.8979687,65.5246875 C29.8715625,65.46375 29.8401562,65.4051563 29.8042187,65.3492188 C29.7703125,65.2664063 29.728125,65.1871875 29.6782812,65.1128125 C29.6251562,65.0484375 29.5660937,64.9895312 29.5015625,64.9367188 C29.3884375,64.811875 29.2417187,64.7225 29.0789062,64.6790625 C28.9976562,64.6440625 28.9129687,64.6175 28.8260937,64.6001562 C28.7428125,64.5917188 28.6589062,64.59125 28.5754687,64.59875 C28.505625,64.5925 28.4354687,64.5920313 28.3654687,64.5976563 C28.3426562,64.6020312 28.3260937,64.6175 28.30375,64.6229687 C28.2820312,64.6282813 28.2607812,64.6225 28.2390625,64.62875 C27.25875,64.9220313 26.313125,65.320625 25.41875,65.8175 C21.18125,68.1635938 18.370625,72.445625 17.90375,77.2667187 L15.2220312,77.2667187 C15.5426562,73.1632812 17.3240625,69.310625 20.2428125,66.4085938 C20.9657812,65.6859375 21.749375,65.026875 22.5853125,64.4385938 C28.5482812,60.3053125 36.4498437,60.3048438 42.4134375,64.4371875 C43.2503125,65.025625 44.035,65.6851563 44.7584375,66.4085938 C47.6773437,69.310625 49.45875,73.1632812 49.779375,77.2667187 L47.0976562,77.2667187 L47.0976562,77.266875 Z M61.9276562,76.72 C61.6767187,77.0659375 61.2742187,77.2695312 60.846875,77.266875 L52.4321875,77.266875 C52.1153125,72.456875 50.0576562,67.9267188 46.64375,64.5234375 C46.2134375,64.093125 45.76125,63.6832813 45.29375,63.2925 L47.659375,61.2676563 C49.44375,61.2714063 51.2104687,61.621875 52.86125,62.2995313 C53.30875,62.485625 53.744375,62.6985938 54.1659375,62.9375 C56.8117187,64.8567188 57.1464062,65.1301563 57.2648437,65.25 C58.6214062,66.6095313 59.6771875,68.2389062 60.36375,70.0325 L62.1228125,75.5234375 C62.2551562,75.9304688 62.1823437,76.3760938 61.9276562,76.72 Z" id="Shape" fillRule="nonzero"></path>
            <path d="M20.1139062,12.3867188 C19.98625,12.2664062 19.836875,12.1714063 19.67375,12.1067188 C19.3520312,11.9595312 18.9823437,11.9595312 18.6607813,12.1067188 C18.4990625,12.1742188 18.3503125,12.2689063 18.220625,12.3867188 C17.9767188,12.6420313 17.8385938,12.9803125 17.8339063,13.3334375 C17.8290625,13.5082813 17.865625,13.681875 17.940625,13.84 C18.0082813,14.0015625 18.1029688,14.1503125 18.2204688,14.2801563 C18.35,14.3979688 18.4989063,14.4926563 18.660625,14.5601563 C19.1567187,14.7729688 19.7323438,14.6620313 20.1139062,14.2801563 C20.2314062,14.1503125 20.3260937,14.0015625 20.3939062,13.84 C20.4621875,13.6796875 20.4984375,13.5076563 20.500625,13.3334375 C20.4954687,12.9803125 20.3573437,12.6423438 20.1139062,12.3867188 Z" id="Path"></path>
            <path d="M25.4342187,12.3867188 C25.3760937,12.3232813 25.3084375,12.2692188 25.23375,12.2265625 C25.1659375,12.1735938 25.0892187,12.1329688 25.0071875,12.1067188 C24.9275,12.06625 24.8417187,12.0390625 24.7532812,12.0259375 C24.3184375,11.9389063 23.86875,12.0740625 23.5540625,12.3865625 C23.3101562,12.641875 23.1720312,12.9801563 23.1673437,13.3332813 C23.1603125,14.0625 23.7457812,14.6595313 24.475,14.6665625 C24.4835937,14.6665625 24.4920312,14.6665625 24.500625,14.6665625 C25.2348437,14.6614063 25.8289062,14.0675 25.8339062,13.3332813 C25.8298437,12.9776563 25.6864062,12.6376563 25.4342187,12.3867188 Z" id="Path"></path>
            <path d="M36.1140625,12.3867188 C36.0485938,12.32625 35.9770312,12.2725 35.9004688,12.2265625 C35.8326562,12.1735938 35.7559375,12.1329687 35.6739062,12.1067188 C35.5942187,12.06625 35.5084375,12.0390625 35.42,12.0259375 C34.9851562,11.93875 34.5353125,12.0740625 34.220625,12.3865625 C33.9767187,12.641875 33.8385938,12.9801563 33.8339062,13.3332813 C33.8303125,13.6879687 33.9696875,14.0292188 34.220625,14.28 C34.3503125,14.3978125 34.4990625,14.4925 34.6607812,14.5598438 C35.3310938,14.846875 36.1070312,14.53625 36.3940625,13.8659375 C36.4660937,13.6976563 36.5023438,13.51625 36.500625,13.3332813 C36.4954688,12.9803125 36.3573437,12.6423438 36.1140625,12.3867188 Z" id="Path"></path>
            <path d="M29.8417187,11.9923438 C29.4834375,11.9903125 29.1395313,12.1323438 28.8873437,12.3867188 C28.3717187,12.9125 28.3717187,13.7542188 28.8873437,14.28 C29.138125,14.5309375 29.479375,14.6703125 29.8340625,14.6667188 C30.5632812,14.67375 31.1603125,14.0882813 31.1673438,13.3590625 C31.1675,13.3504688 31.1675,13.3420313 31.1673438,13.3334375 C31.1715625,12.5970313 30.578125,11.9965625 29.8417187,11.9923438 Z" id="Path"></path>
            <path d="M41.4473437,12.3867187 C41.1279687,12.0721875 40.673125,11.9370312 40.23375,12.0260937 C40.1503125,12.0410937 40.0696875,12.0684375 39.9942187,12.106875 C39.9089062,12.135625 39.8278125,12.1759375 39.7532812,12.2267187 C39.68375,12.2760937 39.6171875,12.3295312 39.5539062,12.386875 C39.31,12.6421875 39.171875,12.9804687 39.1671875,13.3335937 C39.1601562,14.0628125 39.745625,14.6598437 40.4748437,14.666875 C40.4834375,14.666875 40.4920312,14.666875 40.5004687,14.666875 C40.6746875,14.6646875 40.8467187,14.6284375 41.0070312,14.5601562 C41.1685937,14.4923437 41.3173437,14.3976562 41.4471875,14.2801562 C41.6954687,14.0278125 41.834375,13.6876562 41.8339062,13.3335937 C41.82875,12.9803125 41.690625,12.6423437 41.4473437,12.3867187 Z" id="Path"></path>
            <path d="M45.8417187,11.9923438 C45.4834375,11.9903125 45.1395312,12.1323438 44.8873437,12.3867188 C44.6410937,12.640625 44.5026562,12.9796875 44.500625,13.3334375 C44.4970312,13.688125 44.6364062,14.029375 44.8873437,14.2801563 C45.016875,14.3979688 45.1657812,14.4926562 45.3275,14.56 C45.4876562,14.6282813 45.6598437,14.6646875 45.8340625,14.6667188 C46.5632812,14.67375 47.1603125,14.0882813 47.1673437,13.3590625 C47.1673437,13.3504688 47.1673437,13.3420312 47.1673437,13.3334375 C47.1715625,12.5970313 46.578125,11.9965625 45.8417187,11.9923438 Z" id="Path"></path>
            <path d="M17.4342187,15.0532813 C17.1210938,14.7373438 16.6692187,14.6015625 16.23375,14.6926563 C16.1503125,14.7076563 16.0696875,14.735 15.9942187,14.7734375 C15.9089062,14.8021875 15.8278125,14.8425 15.7532812,14.8932813 C15.68375,14.9426563 15.6171875,14.9960938 15.5540625,15.0534375 C15.4334375,15.1809375 15.3384375,15.3303125 15.2740625,15.4935938 C15.2057812,15.6539063 15.1695312,15.8259375 15.1673437,16.0001562 C15.1603125,16.729375 15.7457812,17.3264063 16.475,17.3334375 C16.4835937,17.3334375 16.4920313,17.3334375 16.500625,17.3334375 C17.2348437,17.3282813 17.8289062,16.734375 17.8339062,16.0001562 C17.8298437,15.6442188 17.6864062,15.304375 17.4342187,15.0532813 Z" id="Path"></path>
            <path d="M23.0604687,15.4934375 C22.9929687,15.3317188 22.8982813,15.1829688 22.7804687,15.0532812 C22.2459375,14.5598438 21.421875,14.5598438 20.8871875,15.0532812 C20.7665625,15.1807813 20.6715625,15.3301562 20.6071875,15.4934375 C20.5321875,15.6515625 20.495625,15.825 20.5004687,16 C20.499375,16.3542188 20.6382812,16.6945313 20.8871875,16.9467187 C21.4129687,17.4623437 22.2546875,17.4623437 22.7804687,16.9467187 C23.02875,16.6942188 23.1678125,16.3542188 23.1671875,16 C23.1651562,15.8257812 23.1289062,15.65375 23.0604687,15.4934375 Z" id="Path"></path>
            <path d="M28.1140625,15.0532812 C28.0485937,14.9928125 27.9770312,14.9390625 27.9004687,14.893125 C27.8326562,14.8401563 27.7559375,14.7995313 27.6739062,14.7732813 C27.5942187,14.7328125 27.5084375,14.705625 27.42,14.6925 C26.9851562,14.6075 26.5364062,14.7425 26.220625,15.053125 C26.1,15.180625 26.005,15.33 25.940625,15.4932812 C25.8723437,15.6535938 25.8360937,15.825625 25.8339062,15.9998438 C25.8303125,16.3545313 25.9696875,16.6957812 26.220625,16.9465625 C26.7392187,17.469375 27.5834375,17.4728125 28.10625,16.954375 C28.360625,16.7021875 28.5026562,16.358125 28.500625,16 C28.4954688,15.6470313 28.3573437,15.3090625 28.1140625,15.0532812 Z" id="Path"></path>
            <path d="M33.7271875,15.4935938 C33.6596875,15.331875 33.565,15.183125 33.4471875,15.0534375 C33.3173438,14.9359375 33.1685938,14.84125 33.0070313,14.7734375 C32.510625,14.56375 31.936875,14.674375 31.5539063,15.0534375 C31.4332813,15.1809375 31.3382813,15.3303125 31.2739063,15.4935938 C31.1989063,15.6515625 31.1623438,15.8251563 31.1673438,16 C31.16625,16.3542188 31.3051563,16.6945313 31.5540625,16.9467188 C32.068125,17.4714063 32.9101563,17.48 33.4348438,16.9659375 C33.8264063,16.5821875 33.9425,15.9976563 33.7271875,15.4935938 Z" id="Path"></path>
            <path d="M37.8340625,14.6667188 C37.0976562,14.6667188 36.5007812,15.2635938 36.5007812,16 C36.4971875,16.3546875 36.6365625,16.6959375 36.8875,16.9467188 C37.4060937,17.4695313 38.2503125,17.4729687 38.773125,16.9545313 C39.0275,16.7023438 39.1696875,16.3582813 39.1675,16.0001562 C39.1673437,15.2635938 38.5703125,14.6667188 37.8340625,14.6667188 Z" id="Path"></path>
            <path d="M43.1751563,14.6589063 C42.816875,14.656875 42.4729688,14.7989062 42.2207813,15.0532812 C41.9745313,15.3071875 41.8360938,15.64625 41.8340625,16 C41.8304688,16.3546875 41.9698438,16.6959375 42.2207813,16.9467188 C42.739375,17.4695313 43.5835938,17.4729687 44.1064063,16.9545313 C44.3607813,16.7023438 44.5028125,16.3582813 44.5007813,16.0001562 C44.505,15.2635938 43.9114063,14.6632813 43.1751563,14.6589063 Z" id="Path"></path>
        </g>
    </g>
</svg>