<svg width="49" height="48" viewBox="0 0 49 48" fill="none" xmlns="http://www.w3.org/2000/svg">
<ellipse cx="24.0334" cy="24" rx="24.0334" ry="24" fill="#d8ad5e" fill-opacity="0.04"/>
<rect width="3.00209" height="6.00417" transform="matrix(0.707598 0.706615 0.707598 -0.706615 28.5752 29.9497)" fill="#d8ad5e"/>
<path fillRule="evenodd" clip-rule="evenodd" d="M27.1588 14.3934C30.1916 17.422 30.6111 22.0721 28.4172 25.5492L37.0722 34.1921L34.2398 37.0205L25.585 28.3777C22.1029 30.5689 17.4461 30.1501 14.4132 27.1213C10.8936 23.6066 10.8936 17.9081 14.4132 14.3934C17.9328 10.8787 23.6392 10.8787 27.1588 14.3934ZM22.2021 19.3432C22.9842 20.1242 22.9842 21.3905 22.2021 22.1716C21.42 22.9526 20.1519 22.9526 19.3697 22.1716C18.5876 21.3905 18.5876 20.1242 19.3697 19.3432C20.1519 18.5621 21.42 18.5621 22.2021 19.3432Z" fill="#d8ad5e"/>
</svg>
