<?xml version="1.0" encoding="UTF-8"?>
<svg width="100px" height="100px" viewBox="0 0 100 100" version="1.1" xmlns="http://www.w3.org/2000/svg" xmlns:xlink="http://www.w3.org/1999/xlink">
    <!-- Generator: Sketch 52.2 (67145) - http://www.bohemiancoding.com/sketch -->
    <title>vendor</title>
    <desc>Created with Sketch.</desc>
    <g id="vendor" stroke="none" stroke-width="1" fill="none" fillRule="evenodd">
        <g id="merchant" transform="translate(10.000000, 10.000000)" fill="#000000">
            <path d="M37.6917187,59.0451562 C37.09,58.6035937 36.2432812,58.7325 35.8010937,59.3345312 L35.6340625,59.561875 C35.1923437,60.1634375 35.3209375,61.0089063 35.921875,61.4515625 C36.1632812,61.6295313 36.4445312,61.7154688 36.723125,61.7154688 C37.1376562,61.7154688 37.546875,61.5254688 37.811875,61.1664063 L37.9814062,60.9359375 C38.4234375,60.3339063 38.29375,59.4873438 37.6917187,59.0451562 Z" id="Path"></path>
            <path d="M38.0446875,71.9126562 L34.5660938,65.5873438 L37.8139063,61.1639063 C38.25625,60.561875 38.1264063,59.7153125 37.5242188,59.273125 C36.9221875,58.8307813 36.075625,58.960625 35.6335938,59.5629687 L31.8745313,64.6825 C31.5628125,65.106875 31.5259375,65.6734375 31.7795313,66.1348438 L35.6745313,73.21625 L35.6745313,73.2160938 C35.9209375,73.66375 36.3835938,73.9170313 36.8609375,73.9170313 C37.0814063,73.916875 37.3048438,73.8629688 37.5115625,73.749375 C38.1659375,73.3895313 38.4046875,72.5671875 38.0446875,71.9126562 Z" id="Path"></path>
            <path d="M48.125625,64.6826563 L44.381875,59.5839062 C44.0714063,59.16125 43.5453125,58.9557813 43.030625,59.0576563 C42.5160938,59.15875 42.1065625,59.5484375 41.979375,60.0570313 C41.8817188,60.4476563 41.963125,60.8610938 42.2014063,61.185625 L45.4332813,65.5875 L41.9784375,71.8698438 C41.86875,72.069375 41.8110938,72.294375 41.8110938,72.5223438 C41.8110938,73.1396875 42.2292188,73.67875 42.8271875,73.8323438 C42.9392188,73.86125 43.0521875,73.8751563 43.16375,73.8751563 C43.6479687,73.8751563 44.106875,73.6139063 44.3489063,73.174375 L48.2204687,66.1353125 C48.474375,65.6735937 48.4371875,65.1070313 48.125625,64.6826563 Z" id="Path"></path>
            <path d="M50.2689063,43.426875 C49.8240625,43.1932813 49.28625,43.2251563 48.8723438,43.5104688 C48.0678125,44.0646875 47.32125,44.651875 46.6534375,45.2554687 C43.0134375,48.5460937 39.5551562,48.1007813 39.4196875,48.0814063 C39.338125,48.0685938 39.2551562,48.0626563 39.173125,48.0653125 C37.7345313,48.1021875 35.1407813,46.7876562 32.396875,44.6326563 C31.9771875,44.303125 31.546875,43.9890625 31.1171875,43.6990625 C30.7028125,43.4190625 30.1673437,43.3907813 29.7257813,43.625625 C29.2840625,43.8603125 29.0079687,44.3196875 29.0079687,44.82 L29.0079687,49.46 C29.0079687,49.8703125 29.1946875,50.258125 29.5146875,50.515 C29.5525,50.5454687 29.591875,50.5735938 29.6325,50.5995312 L39.2232812,57.0082813 C39.2248437,57.0092188 39.22625,57.0104688 39.2278125,57.0115625 L39.253125,57.0284375 C39.4789063,57.1778125 39.7390625,57.2532813 40.0001562,57.2532813 C40.2198437,57.2532813 40.4395313,57.2 40.6403125,57.0926562 C40.6826563,57.07 40.7232813,57.0451563 40.7623437,57.0185937 C40.766875,57.015625 40.7714063,57.0126562 40.7760938,57.0095312 C40.7814062,57.0060938 40.7867188,57.0025 40.7920313,56.9989063 L50.3601563,50.6053125 C50.3985938,50.5809375 50.4360938,50.5546875 50.4721875,50.5265625 C50.8004688,50.2703125 50.9923438,49.8770313 50.9923438,49.4604688 L50.9923438,44.624375 C50.9923438,44.1215625 50.7139063,43.6607812 50.2689063,43.426875 Z M48.2870312,48.7365625 L40,54.2740625 L31.713125,48.7364063 L31.713125,47.50625 C33.7309375,48.9726563 36.6992188,50.77125 39.11875,50.7710938 C39.12375,50.7710938 39.129375,50.7710938 39.1345313,50.7710938 C39.946875,50.8609375 44.0895313,51.1051563 48.2873438,47.4226563 L48.2873438,48.7365625 L48.2870312,48.7365625 Z" id="Shape" fillRule="nonzero"></path>
            <path d="M41.3342188,55.6785938 C41.245,55.1421875 40.8429687,54.7114063 40.3139063,54.5851563 C39.7845313,54.4596875 39.2317187,54.6620312 38.9098438,55.1004687 L35.8009375,59.335 C35.35875,59.9371875 35.4884375,60.78375 36.0907812,61.2257813 C36.331875,61.4029687 36.6121875,61.4882812 36.8901563,61.4882812 C37.3060938,61.4882812 37.7164062,61.296875 37.9817187,60.9357812 L41.074375,56.7235938 C41.2503125,56.4935938 41.3528125,56.2073437 41.3528125,55.9014063 C41.3526563,55.8270313 41.3464063,55.7520313 41.3342188,55.6785938 Z" id="Path"></path>
            <path d="M60.6064063,12.07375 C60.5795313,11.861875 59.9459375,7.2890625 55.6415625,5.48515625 C55.7665625,4.68203125 55.7534375,3.64984375 55.2435938,2.645625 C54.5582813,1.2959375 53.2059375,0.41640625 51.2239063,0.03109375 C51.1389063,0.01453125 51.0526563,0.00625 50.9659375,0.00625 L32.8117188,0.00625 C25.4401563,0.00625 19.4428125,6.0034375 19.4428125,13.3753125 L19.4428125,20.4989063 C19.4428125,22.3548438 20.0754688,24.1646875 21.2239063,25.5946875 C21.7932813,26.30375 22.4945313,27.5420313 22.6003125,29.4142188 C22.6415625,30.1451563 23.2534375,30.71 23.9889063,30.6896875 C24.7207813,30.6690625 25.3032813,30.0696875 25.3032813,29.3376563 L25.3032813,20.0501563 C26.2217188,16.251875 29.35625,15.5126563 29.8951563,15.4128125 L35.7673438,15.4128125 C36.458125,15.4128125 37.1373438,15.3073438 37.7865625,15.0992188 C38.903125,14.7410938 40.6745313,14.0820312 41.9642188,13.5921875 C42.8270313,13.2642188 43.7823438,13.2521875 44.65375,13.5584375 L50.9403125,15.7653125 C54.083125,16.9246875 54.6440625,19.68375 54.7135938,20.1171875 L54.7135938,31.2635938 C54.7135938,31.9715625 55.259375,32.5589063 55.9653125,32.6115625 C55.9996875,32.6140625 56.0334375,32.6154688 56.0671875,32.6154688 C56.730625,32.6153125 57.3034375,32.1292188 57.4039063,31.463125 C57.4092188,31.4282813 57.9492188,27.9396875 59.6907813,25.1465625 C60.2967188,24.1742188 60.6171875,23.065625 60.6171875,21.940625 L60.6171875,12.2445312 C60.6171875,12.1875 60.6135938,12.1304688 60.6064063,12.07375 Z M57.911875,21.94 C57.911875,22.5442188 57.7414063,23.1435938 57.4185938,23.6765625 L57.4185938,20.0246875 C57.4185938,19.9757813 57.4159375,19.9271875 57.410625,19.8785938 C57.389375,19.6821875 56.8304688,15.046875 51.8640625,13.2225 C51.8579688,13.2203125 51.851875,13.218125 51.8457813,13.2159375 L45.5496875,11.005625 C44.8398438,10.7564063 44.0971875,10.6320313 43.355,10.6320313 C42.556875,10.6320313 41.7592188,10.7759375 41.0034375,11.0634375 C39.1978125,11.749375 37.7995313,12.2542188 36.9603125,12.5232813 C36.5785938,12.645625 36.1771875,12.7078125 35.7671875,12.7078125 L29.7857813,12.7078125 C29.7278125,12.7078125 29.6696875,12.7115625 29.6120313,12.7189063 C29.383125,12.7485938 23.9882813,13.5157813 22.630625,19.6009375 C22.6090625,19.6976563 22.598125,19.7964063 22.598125,19.8954688 L22.598125,22.6792188 C22.3035938,21.9985938 22.1476563,21.2551563 22.1476563,20.4990625 L22.1476563,13.375625 C22.1476563,7.495625 26.9315625,2.71171875 32.8114063,2.71171875 L50.829375,2.71171875 C51.5753125,2.870625 52.481875,3.19671875 52.8257813,3.86015625 C53.246875,4.6721875 52.7671875,5.7903125 52.7667188,5.79125 C52.59375,6.15921875 52.5957813,6.5853125 52.7715625,6.95171875 C52.9475,7.318125 53.2790625,7.5859375 53.674375,7.68109375 C57.1178125,8.51 57.8201563,11.8126563 57.9117188,12.346875 L57.9117188,21.94 L57.911875,21.94 Z" id="Shape" fillRule="nonzero"></path>
            <path d="M57.4107812,19.8785937 C57.3895312,19.6821875 56.830625,15.046875 51.8642187,13.2225 C51.858125,13.2203125 51.8520312,13.218125 51.8459375,13.2159375 L45.5498437,11.005625 C44.0764062,10.4884375 42.4620312,10.5090625 41.0034375,11.063125 C39.1978125,11.7490625 37.7995313,12.2539062 36.9603125,12.523125 C36.5785937,12.6454687 36.1771875,12.7075 35.7671875,12.7075 L29.7857812,12.7075 C29.7278125,12.7075 29.6696875,12.71125 29.6120312,12.7185937 C29.383125,12.7482812 23.9882812,13.5154687 22.630625,19.600625 C22.6090625,19.6973437 22.598125,19.7960937 22.598125,19.8951562 L22.598125,31.5226562 C22.598125,31.5326562 22.5982812,31.5426562 22.5984375,31.5526562 C22.6073437,31.9565625 22.893125,41.4951563 29.48375,45.8575 L29.5178125,45.8815625 C29.5460937,45.9015625 29.574375,45.9215625 29.6039062,45.9414062 C29.9796875,46.1951562 30.3570312,46.470625 30.7260937,46.7603125 C32.6460937,48.2679688 36.264375,50.77125 39.11875,50.77125 C39.1240625,50.77125 39.1290625,50.77125 39.1345312,50.77125 C39.2895312,50.7882813 39.56625,50.8110937 39.9415625,50.8110937 C41.5592187,50.8110937 45.0104687,50.3871875 48.4673437,47.2621875 C49.0475,46.7379688 49.6998437,46.2251562 50.4070312,45.7379688 L50.508125,45.6671875 C50.5410938,45.6439062 50.5740625,45.6204687 50.608125,45.5976562 C52.8065625,44.1210937 56.6140625,40.3110937 57.4134375,31.3839063 C57.4170312,31.3439062 57.4189062,31.3034375 57.4189062,31.263125 L57.4189062,20.0246875 C57.41875,19.9759375 57.4159375,19.9273437 57.4107812,19.8785937 Z M54.7134375,31.2020313 C53.9764062,39.2585938 50.54375,42.381875 49.0996875,43.3517188 C49.0484375,43.38625 48.9978125,43.421875 48.9471875,43.4575 L48.8721875,43.5103125 C48.0676562,44.0645312 47.3210938,44.6517188 46.6532812,45.2553125 C43.026875,48.53375 39.5798437,48.10375 39.4107812,48.08 C39.3321875,48.0682813 39.2525,48.0632813 39.1729687,48.0654688 C37.734375,48.1023438 35.140625,46.7878125 32.3967187,44.6328125 C31.9770312,44.303125 31.5467187,43.9890625 31.1176562,43.6995313 L31.084375,43.6760937 C31.051875,43.6529687 31.0195312,43.63 30.9814062,43.6046875 C25.6629687,40.0845313 25.315,31.846875 25.3032812,31.503125 L25.3032812,20.05 C26.225,16.2378125 29.3789062,15.5070312 29.8929687,15.4126562 L35.7673437,15.4126562 C36.458125,15.4126562 37.1373437,15.3071875 37.7865625,15.0990625 C38.903125,14.7409375 40.6746875,14.081875 41.9642188,13.5920312 C42.8270313,13.2640625 43.7823437,13.2520312 44.65375,13.5582812 L50.9403125,15.7651562 C54.083125,16.9245312 54.6440625,19.6835937 54.7135937,20.1170312 L54.7135937,31.2020313 L54.7134375,31.2020313 Z" id="Shape" fillRule="nonzero"></path>
            <path d="M41.2096875,55.2965625 C40.9989062,54.875 40.5839063,54.5935937 40.114375,54.5535937 C39.645625,54.5148437 39.1884375,54.7209375 38.9095312,55.1009375 L35.6695312,59.51375 C35.2278125,60.115625 35.356875,60.9615625 35.9582812,61.4039063 C36.1995312,61.5814063 36.4803125,61.6671875 36.7585937,61.6671875 C37.1735937,61.6671875 37.5832812,61.4767188 37.8484375,61.116875 L41.0885938,56.7203125 C41.26,56.4878125 41.3525,56.190625 41.3525,55.901875 C41.3526562,55.6920312 41.3034375,55.4845312 41.2096875,55.2965625 Z" id="Path"></path>
            <path d="M41.2964063,77.074375 C40.7882813,76.5429688 39.94875,76.5146875 39.40625,77.0110938 L39.0970313,77.2939063 C38.6340625,77.7171875 38.5229688,78.4034375 38.8289063,78.95125 L38.8384375,78.9682813 C39.045,79.3384375 39.4134375,79.5903125 39.8332812,79.6485938 C39.8954687,79.6571875 39.9576563,79.6614063 40.0195312,79.6614063 C40.375625,79.6614063 40.7204688,79.520625 40.9759375,79.2651563 L41.2754688,78.9653125 C41.7953125,78.4454688 41.8046875,77.6054688 41.2964063,77.074375 Z" id="Path"></path>
            <path d="M40.9029687,77.2939062 L40.59375,77.0110938 C40.05125,76.5148437 39.2115625,76.543125 38.7034375,77.074375 C38.1951562,77.6059375 38.2045312,78.4460938 38.7245312,78.9657813 L39.0245312,79.265625 C39.28,79.5210938 39.6246875,79.6617188 39.9807812,79.6617188 C40.044375,79.6617188 40.1082812,79.6573438 40.1721875,79.648125 C40.5934375,79.5879688 40.961875,79.3328125 41.1667187,78.9596875 L41.17625,78.9426563 C41.4759375,78.3957812 41.363125,77.7146875 40.9029687,77.2939062 Z" id="Path"></path>
            <path d="M40.9257813,77.315 L40.9240625,77.3134375 C40.7151562,77.118125 40.445,76.989375 40.1473437,76.9567188 C39.74875,76.9132812 39.3604688,77.0482813 39.078125,77.31125 L39.0740625,77.315 C38.800625,77.564375 38.6414063,77.9151562 38.6334375,78.2851562 C38.6254688,78.6554687 38.7695312,79.0125 39.031875,79.2734375 L39.0460938,79.2876562 C39.31,79.55 39.6548438,79.6810938 39.9998438,79.6810938 C40.3460938,79.6810938 40.6921875,79.5489063 40.9560938,79.2851562 L40.9703125,79.2709375 C41.2315625,79.0095313 41.3746875,78.6528125 41.3660938,78.2834375 C41.3579687,77.9139062 41.19875,77.5640625 40.9257813,77.315 Z" id="Path"></path>
            <path d="M40.43875,54.5920313 C39.8785938,54.4126563 39.2639062,54.620625 38.9228125,55.1003125 C38.54125,55.6375 38.6042188,56.3695313 39.0690625,56.8365625 C39.330625,57.099375 39.6778125,57.2340625 40.0276563,57.2340625 C40.299375,57.2340625 40.5725,57.1528125 40.808125,56.986875 C41.168125,56.7335938 41.3823437,56.3210938 41.3823437,55.8807813 L41.3823437,55.8775 C41.3823437,55.2889063 40.9995312,54.7709375 40.43875,54.5920313 Z" id="Path"></path>
            <path d="M41.0990625,55.0892188 L41.0875,55.0735938 C40.7404687,54.6039063 40.1310937,54.4104687 39.5765625,54.593125 C39.0220313,54.7757813 38.6473437,55.2939062 38.6473437,55.8776563 L38.6473437,55.9007813 C38.6473437,56.39875 38.926875,56.8526563 39.365625,57.0882813 C39.564375,57.195 39.78375,57.2476563 40.0028125,57.2476563 C40.2670313,57.2476563 40.5309375,57.1710938 40.7578125,57.0207813 C41.0670312,56.8160938 41.27875,56.4932813 41.3432812,56.128125 C41.4078125,55.763125 41.3195312,55.3873437 41.0990625,55.0892188 Z" id="Path"></path>
            <path d="M56.0904687,50.8401563 C55.9503125,50.4696875 55.6548437,50.179375 55.2820312,50.0459375 L50.0959375,48.186875 C50.0539062,48.171875 50.0103125,48.1584375 49.966875,48.1478125 C49.5967187,48.0551563 49.2045312,48.123125 48.8873437,48.3353125 L39.2782812,54.75625 C39.2757813,54.7579688 39.2729688,54.7596875 39.2703125,54.7615625 L40.0248437,55.8834375 L39.2534375,54.7729688 C38.9715625,54.959375 38.7696875,55.2451563 38.6878125,55.5729688 C38.6428125,55.7529688 38.6354688,55.9409375 38.6659375,56.1239063 C38.7007812,56.3329688 38.7842188,56.5310938 38.9098438,56.7021875 L45.945,66.2835938 C46.200625,66.6320313 46.60625,66.8357813 47.035,66.8357813 C47.064375,66.8357813 47.0939062,66.8346875 47.1234375,66.8326563 C47.5842187,66.8023438 47.9978125,66.5395313 48.2203125,66.1346875 L56.0104687,51.9709375 C56.2015625,51.62375 56.2307812,51.2103125 56.0904687,50.8401563 Z M46.87125,62.974375 L41.9267187,56.24 L49.8239062,50.9629688 L52.8759375,52.0571875 L46.87125,62.974375 Z" id="Shape" fillRule="nonzero"></path>
            <path d="M41.3326563,55.6678125 C41.2690625,55.3046875 41.0601563,54.9832812 40.7539063,54.7778125 L31.1128125,48.3354687 C30.8059375,48.1301562 30.4276563,48.0598437 30.0671875,48.1398437 C30.011875,48.1520312 29.9575,48.1679687 29.9042188,48.1870312 L24.718125,50.0460937 C24.3453125,50.1796875 24.0498438,50.47 23.9096875,50.8403125 C23.7695312,51.2107812 23.7985938,51.6239062 23.9895312,51.9710937 L31.7796875,66.1348437 C32.0021875,66.5395312 32.4157813,66.8025 32.8765625,66.8328125 C32.9059375,66.8346875 32.9354688,66.835625 32.9648438,66.835625 C33.3935938,66.835625 33.7990625,66.631875 34.0551563,66.2832812 L37.8142188,61.16375 C37.8171875,61.1598437 37.8201563,61.155625 37.823125,61.1514062 L41.0904688,56.70125 C41.3085938,56.4040625 41.3960938,56.0309375 41.3326563,55.6678125 Z M35.6339063,59.5621875 C35.630625,59.5665625 35.6275,59.5709375 35.6242188,59.5753125 L33.1284375,62.9745312 L27.12375,52.0571875 L30.1759375,50.963125 L38.0729688,56.2401562 L35.6339063,59.5621875 Z" id="Shape" fillRule="nonzero"></path>
            <path d="M79.9329688,73.9304687 L78.188125,63.3940625 C77.6382813,60.0735937 75.330625,57.299375 72.165625,56.1546875 L55.2853125,50.0475 C54.7648438,49.859375 54.183125,50.006875 53.8153125,50.4196875 C53.4475,50.8326562 53.3679688,51.4279687 53.6148438,51.923125 L57.1392188,58.9909375 L53.6809375,59.0442187 C53.2114063,59.0515625 52.7790625,59.3015625 52.5392188,59.7053125 C52.2992188,60.1090625 52.2857813,60.608125 52.5035938,61.0242187 L53.9220313,63.7325 L39.4059375,77.0117188 C39.3910938,77.0253125 39.3765625,77.0390625 39.3623438,77.0532812 L39.0626563,77.3529688 C38.638125,77.7776562 38.5442188,78.4314062 38.8325,78.9582812 L38.843125,78.9775 C39.0804688,79.4110937 39.5354688,79.6809375 40.0298438,79.6809375 L75.0565625,79.6809375 C76.5117188,79.6809375 77.8857813,79.0445312 78.8265625,77.9348437 C79.7675,76.8251562 80.1707813,75.3654687 79.9329688,73.9304687 Z M76.76375,76.1853125 C76.3375,76.6878125 75.7153125,76.9759375 75.0567188,76.9759375 L43.4526563,76.9759375 L56.516875,65.0253125 C56.97,64.6110938 57.0871875,63.94375 56.8021875,63.3998438 L55.9196875,61.715 L59.33,61.6625 C59.7948438,61.6554688 60.223125,61.41 60.4648438,61.0129688 C60.70625,60.615625 60.7270313,60.1225 60.5196875,59.7064063 L57.5451563,53.7414062 L71.2460938,58.698125 C73.4921875,59.510625 75.1298438,61.479375 75.52,63.8357813 L77.2648438,74.3721875 C77.2648438,74.3723438 77.2648438,74.3723438 77.2648438,74.3723438 C77.3723437,75.0221875 77.1898437,75.6828125 76.76375,76.1853125 Z" id="Shape" fillRule="nonzero"></path>
            <path d="M40.9375,77.3257813 L40.9217188,77.3115625 C40.3864063,76.826875 39.5642188,76.8484375 39.0548438,77.360625 L39.0407813,77.3748438 C38.655625,77.7623438 38.5414063,78.3435938 38.7510938,78.8479688 C38.9609375,79.3525 39.45375,79.6810938 40,79.6810938 L40.0296875,79.6810938 C40.5889063,79.6810938 41.090625,79.3367188 41.2915625,78.815 C41.4929688,78.2929688 41.3521875,77.7010938 40.9375,77.3257813 Z" id="Path"></path>
            <path d="M40.895,77.2867188 C40.5879687,77.0103125 40.1715625,76.8892188 39.76375,76.95875 C39.3564062,77.0276563 39.0029688,77.279375 38.8042187,77.6415625 L38.7948437,77.6585938 C38.5096875,78.1784375 38.5964062,78.8234375 39.00875,79.2496875 L39.0135937,79.2546875 C39.2785937,79.5285938 39.6317187,79.6667188 39.9857812,79.6667188 C40.3115625,79.6667188 40.6382812,79.5495313 40.8970312,79.313125 L40.91125,79.3003125 C41.0340625,79.1884375 41.1353125,79.054375 41.2096875,78.905625 C41.4820312,78.3614063 41.3473437,77.6935938 40.895,77.2867188 Z" id="Path"></path>
            <path d="M40.9534375,77.369375 L40.9478125,77.3635938 C40.9442188,77.36 40.9404688,77.35625 40.9370313,77.3528125 L40.6370313,77.053125 C40.6229688,77.0389062 40.6084375,77.025 40.59375,77.0117188 L26.0776562,63.7325 L27.49625,61.0242188 C27.7142188,60.6082812 27.700625,60.1090625 27.4607812,59.7053125 C27.2207813,59.3017188 26.7885938,59.0515625 26.3190625,59.0442187 L22.8604688,58.9909375 L26.3848438,51.923125 C26.6317188,51.428125 26.5520312,50.8326562 26.184375,50.4196875 C25.8167188,50.0067187 25.2342188,49.8590625 24.714375,50.0475 L7.83421875,56.1546875 C4.66921875,57.2992187 2.36140625,60.0734375 1.8115625,63.3940625 L0.06671875,73.9304688 C-0.1709375,75.3660938 0.2325,76.8254687 1.1734375,77.935 C2.11453125,79.0445313 3.48875,79.6809375 4.9434375,79.6809375 L40,79.6809375 C40.5478125,79.6809375 41.0414063,79.3504688 41.2501563,78.8442188 C41.4590625,78.3379688 41.341875,77.7554688 40.9534375,77.369375 Z M4.94359375,76.9759375 C4.28484375,76.9759375 3.66265625,76.6878125 3.23671875,76.1853125 C2.81078125,75.6829688 2.62828125,75.0221875 2.73578125,74.3721875 L4.480625,63.8357813 C4.87078125,61.4790625 6.5084375,59.510625 8.75453125,58.698125 L22.4553125,53.7414062 L19.4809375,59.7060938 C19.2734375,60.1221875 19.2940625,60.6153125 19.5357812,61.0126563 C19.7771875,61.4098438 20.2057813,61.6551563 20.670625,61.6621875 L24.0809375,61.7148438 L23.1984375,63.3996875 C22.9135937,63.9434375 23.0307812,64.6109375 23.4835937,65.0251563 L36.5478125,76.9759375 L4.94359375,76.9759375 Z" id="Shape" fillRule="nonzero"></path>
            <path d="M44.60375,60.7120312 C44.7014062,60.3214062 44.62,59.9078125 44.3817187,59.5832812 L41.0901562,55.100625 C40.7442187,54.629375 40.1342187,54.4420312 39.5789062,54.6242187 C39.2790625,54.7225 39.0320312,54.9209375 38.8676562,55.1745312 L35.63625,59.5590625 C35.59,59.6215625 35.5489062,59.68875 35.5140625,59.7584375 C35.2926562,60.2014062 35.3309375,60.7298437 35.61375,61.13625 L36.9898437,63.1123437 L35.5239062,72.3525 C35.476875,72.6492187 35.53,72.9529687 35.6746875,73.21625 L38.815,78.9257812 C39.0526562,79.358125 39.5070312,79.6265625 40.0001562,79.6265625 C40.4934375,79.6265625 40.9476562,79.358125 41.1853125,78.9257812 L44.3490625,73.1739062 C44.45875,72.9742187 44.5164062,72.75 44.5164062,72.5221875 L44.5164062,72.5214062 C44.5164062,72.4504687 44.510625,72.3795312 44.4996875,72.309375 L43.0404687,63.1125 L44.4017187,61.158125 C44.4951562,61.0228125 44.5640625,60.8714062 44.60375,60.7120312 Z M40.0001562,75.4675 L38.268125,72.3185937 L39.746875,62.9984375 C39.8017187,62.653125 39.720625,62.3003125 39.5209375,62.0135937 L38.3875,60.3857812 L40.0040625,58.1923437 L41.6290625,60.4054687 L40.5092187,62.0135937 C40.3095312,62.3001562 40.2285938,62.653125 40.2832812,62.9984375 L41.7553125,72.2760937 L40.0001562,75.4675 Z" id="Shape" fillRule="nonzero"></path>
        </g>
    </g>
</svg>