<svg width="48" height="48" viewBox="0 0 48 48" fill="none" xmlns="http://www.w3.org/2000/svg">
<circle cx="24" cy="24" r="24" fill="#d8ad5e" fill-opacity="0.04"/>
<path fillRule="evenodd" clip-rule="evenodd" d="M24 39C32.2843 39 39 32.2843 39 24C39 15.7157 32.2843 9 24 9C15.7157 9 9 15.7157 9 24C9 32.2843 15.7157 39 24 39ZM20.1422 26.651L20.7764 28.6875H22.7776L19.1275 18.375H17.3376L13.6875 28.6875H15.6887L16.337 26.651H20.1422ZM19.6912 25.1345H16.7739L18.2396 20.6282L19.6912 25.1345ZM25.6419 24.9611H27.178C28.4605 24.9611 29.1934 24.7589 29.743 24.2534C30.3631 23.6901 30.6309 22.8957 30.6309 21.6536C30.6309 20.5126 30.4054 19.776 29.8839 19.1983C29.3202 18.6061 28.5733 18.375 27.178 18.375H23.7956V28.6875H25.6419V24.9611ZM25.6137 23.4301V19.8915H27.178C28.3337 19.8915 28.7987 20.3971 28.7987 21.6536C28.7987 22.9102 28.3337 23.4301 27.178 23.4301H25.6137ZM34.3125 28.6875H32.4663V18.375H34.3125V28.6875Z" fill="#d8ad5e"/>
</svg>
