<svg width="24" height="24" viewBox="0 0 24 24" fill="none" xmlns="http://www.w3.org/2000/svg">
<path fillRule="evenodd" clip-rule="evenodd" d="M11.9998 22C6.47677 22 1.99951 17.5227 1.99951 11.9998C1.99951 6.47677 6.47677 1.99951 11.9998 1.99951C17.5227 1.99951 22 6.47677 22 11.9998C22 17.5227 17.5227 22 11.9998 22ZM11.9994 20.5714C16.7334 20.5714 20.571 16.7337 20.571 11.9998C20.571 7.26576 16.7334 3.42811 11.9994 3.42811C7.26542 3.42811 3.42777 7.26576 3.42777 11.9997C3.42777 16.7337 7.26542 20.5714 11.9994 20.5714ZM16.2319 8.54983L17.2926 9.61049L10.9286 15.9745L6.68597 11.7318L7.74663 10.6712L10.9286 13.8531L16.2319 8.54983Z" fill="#2DBD96"/>
</svg>
