<svg width="36" height="36" viewBox="0 0 36 36" fill="none" xmlns="http://www.w3.org/2000/svg">
<path fillRule="evenodd" clip-rule="evenodd" d="M19.6836 1.5H16.3163V4.66002C16.8678 4.59111 17.4298 4.55562 18 4.55562C18.5702 4.55562 19.1321 4.59111 19.6836 4.66002V1.5ZM26.2417 7.37724C27.1312 8.06838 27.9316 8.86878 28.6228 9.75831L30.8579 7.52321L28.4768 5.14214L26.2417 7.37724ZM31.34 16.3163C31.4089 16.8679 31.4444 17.4298 31.4444 18.0001C31.4444 18.5702 31.4089 19.1321 31.34 19.6836H34.5V16.3163H31.34ZM28.6229 26.2417C27.9317 27.1312 27.1313 27.9317 26.2418 28.6228L28.4768 30.8578L30.8579 28.4767L28.6229 26.2417ZM19.6836 31.3401C19.1321 31.409 18.5702 31.4445 18 31.4445C17.4298 31.4445 16.8678 31.409 16.3163 31.3401V34.5H19.6836V31.3401ZM9.75824 28.6228C8.86871 27.9317 8.06831 27.1313 7.37717 26.2418L5.14226 28.4767L7.52334 30.8577L9.75824 28.6228ZM4.65994 19.6836C4.59104 19.1321 4.55555 18.5702 4.55555 18.0001C4.55555 17.4298 4.59105 16.8679 4.65996 16.3163H1.5V19.6836H4.65994ZM7.37725 9.75826C8.0684 8.86874 8.86881 8.06833 9.75834 7.3772L7.52335 5.1422L5.14227 7.52328L7.37725 9.75826Z" fill="#00142A"/>
<path fillRule="evenodd" clip-rule="evenodd" d="M28.3332 18.0001C28.3332 23.707 23.7068 28.3334 17.9998 28.3334C12.2929 28.3334 7.6665 23.707 7.6665 18.0001C7.6665 12.2931 12.2929 7.66675 17.9998 7.66675C23.7068 7.66675 28.3332 12.2931 28.3332 18.0001ZM30.8332 18.0001C30.8332 25.0877 25.0875 30.8334 17.9998 30.8334C10.9122 30.8334 5.1665 25.0877 5.1665 18.0001C5.1665 10.9124 10.9122 5.16675 17.9998 5.16675C25.0875 5.16675 30.8332 10.9124 30.8332 18.0001Z" fill="#00142A"/>
<path fillRule="evenodd" clip-rule="evenodd" d="M20.2601 22.675C20.2601 22.1641 19.846 21.75 19.3351 21.75C18.8242 21.75 18.4101 22.1641 18.4101 22.675C18.4101 23.1859 18.8242 23.6 19.3351 23.6C19.846 23.6 20.2601 23.1859 20.2601 22.675ZM22.4801 16.8732C22.4801 14.4579 20.4922 12.5 18.0401 12.5C15.588 12.5 13.6001 14.4579 13.6001 16.8732C13.6001 17.3503 13.6777 17.8095 13.8211 18.2394L13.8274 18.2385L13.8457 18.3012C13.9499 18.6273 14.1767 18.7576 14.526 18.692C14.8986 18.622 15.0577 18.4168 15.0019 18.0764C14.8513 17.7045 14.7685 17.2984 14.7685 16.8732C14.7685 15.0851 16.2333 13.6356 18.0401 13.6356C19.8469 13.6356 21.3117 15.0851 21.3117 16.8732C21.3117 18.467 20.1479 19.7919 18.6154 20.0598C18.4292 20.0243 18.2368 20.0058 18.0401 20.0058C17.6316 20.0058 17.2422 20.0859 16.8872 20.2309L17.623 16.8939L17.6343 16.8246C17.6672 16.5118 17.459 16.2192 17.1465 16.1552C16.807 16.0856 16.4747 16.3027 16.3996 16.6431L15.0318 22.8484L15.0205 22.9177C14.9876 23.2304 15.1958 23.523 15.5083 23.587C15.8478 23.6566 16.1801 23.4395 16.2551 23.0991L16.4399 22.2587C16.7127 21.6622 17.3266 21.2464 18.0401 21.2464C18.1081 21.2464 18.1753 21.2502 18.2413 21.2575L18.2547 21.2464L18.2768 21.2403C20.6189 21.1191 22.4801 19.2102 22.4801 16.8732Z" fill="#2DBD96"/>
<path fillRule="evenodd" clip-rule="evenodd" d="M18.0401 12.75C15.7224 12.75 13.8501 14.5996 13.8501 16.8732C13.8501 17.2498 13.9013 17.6143 13.9972 17.9604L14.0063 17.9591L14.0847 18.2279C14.1238 18.3484 14.1745 18.4015 14.2185 18.4267C14.2643 18.453 14.3427 18.4721 14.4799 18.4463C14.6333 18.4175 14.6991 18.3686 14.7269 18.3326C14.7495 18.3034 14.7724 18.2501 14.7588 18.1418C14.6036 17.7484 14.5185 17.3203 14.5185 16.8732C14.5185 14.9446 16.0977 13.3856 18.0401 13.3856C19.9825 13.3856 21.5617 14.9446 21.5617 16.8732C21.5617 18.5924 20.3067 20.0179 18.6584 20.3061L18.6134 20.3139L18.5686 20.3054C18.3977 20.2729 18.2211 20.2558 18.0401 20.2558C17.6645 20.2558 17.3072 20.3294 16.9818 20.4623L16.5404 20.6427L17.3773 16.8469L17.3862 16.7923C17.4026 16.6074 17.2783 16.4374 17.0963 16.4001C16.8919 16.3582 16.6897 16.4886 16.6438 16.6969L15.2774 22.8953L15.2685 22.95C15.2521 23.1348 15.3764 23.3048 15.5585 23.3421C15.7628 23.384 15.965 23.2536 16.011 23.0454M16.011 23.0454L16.2015 22.1789L16.2125 22.1547C16.5257 21.4699 17.228 20.9964 18.0401 20.9964C18.0935 20.9964 18.1464 20.9984 18.1988 21.0025L18.2365 20.992L18.2639 20.9906C20.4771 20.8761 22.2301 19.0732 22.2301 16.8732C22.2301 14.5996 20.3578 12.75 18.0401 12.75M13.3501 16.8732C13.3501 14.3163 15.4535 12.25 18.0401 12.25C20.6267 12.25 22.7301 14.3163 22.7301 16.8732C22.7301 19.3247 20.7965 21.3252 18.3573 21.486L18.319 21.5177L18.2136 21.506C18.1568 21.4997 18.0989 21.4964 18.0401 21.4964C17.4345 21.4964 16.9158 21.8436 16.6781 22.3394L16.4993 23.1528C16.3951 23.6253 15.9327 23.9292 15.4581 23.8319C15.0171 23.7416 14.7257 23.3297 14.7719 22.8915L14.7726 22.8845L14.7861 22.8014L16.1555 16.5893C16.2596 16.1168 16.722 15.813 17.1967 15.9103C17.6376 16.0007 17.9291 16.4125 17.8829 16.8507L17.8821 16.8577L17.8686 16.9409L17.2257 19.8569C17.4862 19.7909 17.7591 19.7558 18.0401 19.7558C18.2362 19.7558 18.4285 19.7729 18.6155 19.8057C20.0107 19.5409 21.0617 18.3268 21.0617 16.8732C21.0617 15.2256 19.7113 13.8856 18.0401 13.8856C16.3689 13.8856 15.0185 15.2256 15.0185 16.8732C15.0185 17.2657 15.0949 17.6399 15.2336 17.9826L15.2441 18.0085L15.2486 18.036C15.2839 18.2511 15.2568 18.4647 15.1224 18.6386C14.9914 18.8078 14.7914 18.8965 14.5722 18.9377C14.3601 18.9775 14.1504 18.9642 13.9694 18.8603C13.8299 18.7802 13.7303 18.6593 13.662 18.5158L13.6503 18.5176L13.5839 18.3185C13.4321 17.8635 13.3501 17.3776 13.3501 16.8732ZM19.3351 22C18.9623 22 18.6601 22.3022 18.6601 22.675C18.6601 23.0478 18.9623 23.35 19.3351 23.35C19.7079 23.35 20.0101 23.0478 20.0101 22.675C20.0101 22.3022 19.7079 22 19.3351 22ZM18.1601 22.675C18.1601 22.0261 18.6862 21.5 19.3351 21.5C19.984 21.5 20.5101 22.0261 20.5101 22.675C20.5101 23.3239 19.984 23.85 19.3351 23.85C18.6862 23.85 18.1601 23.3239 18.1601 22.675Z" fill="#2DBD96"/>
</svg>
