<svg width="36" height="36" viewBox="0 0 36 36" fill="none" xmlns="http://www.w3.org/2000/svg">
<path d="M0 0H36V36H0V0Z" fill="white"/>
<path fillRule="evenodd" clip-rule="evenodd" d="M5.17172 20.4142C6.73382 18.8522 9.26648 18.8522 10.8286 20.4142L14.4144 24H15.0002V23.5C15.0002 21.2909 16.791 19.5 19.0002 19.5H27.4144L29.7073 21.7929L28.293 23.2071L26.5859 21.5H19.0002C17.8956 21.5 17.0002 22.3955 17.0002 23.5V24H21.0002C21.5524 24 22.0002 24.4477 22.0002 25C22.0002 25.5523 21.5524 26 21.0002 26H13.5859L9.41437 21.8285C8.63332 21.0474 7.36699 21.0474 6.58594 21.8285L6.41436 22L13.4144 29H23.4144L24.9753 30.561L31.2691 23.8177L32.7312 25.1824L25.025 33.4391L22.5859 31H12.5859L3.58594 22L5.17172 20.4142Z" fill="black"/>
<circle cx="19" cy="10" r="6" stroke="#2DBD96" stroke-width="2"/>
<path d="M17 10L19 8L21 10L19 12L17 10Z" fill="#2DBD96"/>
</svg>
