<svg width="36" height="36" viewBox="0 0 36 36" fill="none" xmlns="http://www.w3.org/2000/svg">
<path fillRule="evenodd" clip-rule="evenodd" d="M32.8999 21C31.5101 27.8467 25.4568 33 18.1999 33C10.9431 33 4.88981 27.8467 3.5 21H6.34862C7.686 26.2997 12.4849 30.2222 18.1999 30.2222C23.915 30.2222 28.7139 26.2997 30.0513 21H32.8999ZM32.8999 15C31.5101 8.15328 25.4568 3 18.1999 3C10.9431 3 4.88981 8.15328 3.5 15H6.34862C7.686 9.70031 12.4849 5.77778 18.1999 5.77778C23.915 5.77778 28.7139 9.70031 30.0513 15H32.8999Z" fill="#00142A"/>
<path d="M22.5 18.7237L18 25.5L13.5 18.7237L18 21.1908L22.5 18.7237ZM18 10.5L22.5 18.0855L18 20.2829L13.5 18.0855L18 10.5Z" fill="#2DBD96"/>
</svg>
