<?xml version="1.0" encoding="UTF-8"?>
<svg width="69px" height="69px" viewBox="0 0 69 69" version="1.1" xmlns="http://www.w3.org/2000/svg" xmlns:xlink="http://www.w3.org/1999/xlink">
    <title>icon_2</title>
    <g id="pc" stroke="none" stroke-width="1" fill="none" fillRule="evenodd">
        <g id="2a金融理财首页" transform="translate(-557.000000, -2345.000000)">
            <g id="编组-28" transform="translate(0.000000, 2212.000000)">
                <g id="编组-17" transform="translate(117.000000, 57.000000)">
                    <g id="icon_2" transform="translate(440.000000, 76.000000)">
                        <rect id="矩形" x="0" y="0" width="69" height="69"></rect>
                        <circle id="椭圆形" fill="#2DBD96" cx="34" cy="39" r="8"></circle>
                        <g id="编组-32" transform="translate(2.000000, 11.000000)">
                            <path d="M20.7203664,0.000273723768 L20.7403946,0.146344542 C21.2904371,0.0726182695 21.851726,0.0345580413 22.421875,0.0345580413 C29.3685816,0.0345580413 35,5.68461141 35,12.6543055 C35,19.2157257 30.0090171,24.6075821 23.628249,25.21676 C18.6623216,28.0464195 15.3125,33.400646 15.3125,39.5398543 C15.3125,47.4321861 20.8486471,54.0272026 28.2372556,55.6290287 L28.2872184,56.0000044 C12.6507646,55.9188276 0,43.1760706 0,27.4687915 C0,16.1953864 6.51666045,6.44906538 15.9766958,1.81493861 C17.0502626,1.17096028 18.2279073,0.682841165 19.4781654,0.382052617 C19.8883109,0.245554481 20.3023885,0.118241599 20.7203664,0.000273723768 Z" id="形状结合" fill="#5D6472"></path>
                            <path d="M48.690308,1.0943386 L48.7097296,1.24021651 C49.2573933,1.16673059 49.8162512,1.12879475 50.3839286,1.12879475 C57.3022814,1.12879475 62.9107144,6.76324894 62.9107144,13.7137004 C62.9107144,20.2556448 57.9421697,25.6317392 51.5893425,26.2410918 C46.6411177,29.0610825 43.3035715,34.4014806 43.3035715,40.5250212 C43.3035715,48.3957731 48.8174162,54.9727225 56.1761619,56.5699029 L56.2246927,56.9397232 C40.6523556,56.8584262 28.0535715,44.1509839 28.0535715,28.4872853 C28.0535715,17.243444 34.5454355,7.52289369 43.9689804,2.90233545 C45.0385584,2.26000446 46.2117369,1.77362345 47.4572051,1.47413352 C47.8639746,1.3381946 48.2752102,1.21163329 48.690308,1.0943386 Z" id="形状结合备份" fill="#3C424E" transform="translate(45.482143, 29.017031) rotate(-179.000000) translate(-45.482143, -29.017031) "></path>
                        </g>
                    </g>
                </g>
            </g>
        </g>
    </g>
</svg>