<svg width="36" height="36" viewBox="0 0 36 36" fill="none" xmlns="http://www.w3.org/2000/svg">
<path fillRule="evenodd" clip-rule="evenodd" d="M22.6923 17.7222L19.8674 14.6619C19.5587 14.3274 19 14.5459 19 15.001V17.7222H11C11 19.1029 12.1193 20.2222 13.5 20.2222L19 20.2222H25L22.7168 17.7222H22.6923Z" fill="#2DBD96"/>
<path fillRule="evenodd" clip-rule="evenodd" d="M13.3077 25.2222L16.1326 28.2825C16.4413 28.6169 17 28.3985 17 27.9433L17 25.2222L25 25.2222C25 23.8414 23.8807 22.7222 22.5 22.7222L17 22.7222L11 22.7222L13.2832 25.2222L13.3077 25.2222Z" fill="#00142A"/>
<path fillRule="evenodd" clip-rule="evenodd" d="M18.0156 7.32194L8.5 16.8375V29.8063H27.5V16.8064L18.0156 7.32194ZM30 29.8063L31.5 29.8063V32.3063L5 32.3063L5 29.8063H6V19.3375L5.26777 20.0697L3.5 18.302L17.6421 4.15985C17.6841 4.11785 17.7317 4.08489 17.7825 4.06096C17.9723 3.95733 18.215 3.98582 18.3756 4.14645L32.5178 18.2886L30.75 20.0563L30 19.3064V29.8063Z" fill="#00142A"/>
</svg>
