<svg width="36" height="36" viewBox="0 0 36 36" fill="none" xmlns="http://www.w3.org/2000/svg">
<path fillRule="evenodd" clip-rule="evenodd" d="M11 6.5H6C4.34315 6.5 3 7.84315 3 9.5V23.5C3 25.1569 4.34315 26.5 6 26.5H16.5V30.5H11.5V33H24V30.5H19V26.5H30C31.6569 26.5 33 25.1569 33 23.5V9.5C33 7.84315 31.6569 6.5 30 6.5H25.5V9H29C29.8284 9 30.5 9.67157 30.5 10.5V22.5C30.5 23.3284 29.8284 24 29 24H7C6.17157 24 5.5 23.3284 5.5 22.5V10.5C5.5 9.67157 6.17157 9 7 9H11V6.5Z" fill="#00142A"/>
<path d="M16.7588 18C16.7588 18 10.3839 16.5368 13.2331 9.27455C13.2331 9.27455 13.88 10.0815 13.7911 10.4699C13.7911 10.4699 14.2981 8.63672 15.3926 7.54185C16.3325 6.601 17.2872 3.95592 16.4066 3C16.4066 3 20.7684 3.95591 21.254 8.73716C21.254 8.73716 21.812 7.21373 22.9576 7.06306C22.9576 7.06306 22.6054 7.90011 22.9576 9.15569C22.9576 9.15569 26.5706 15.6094 20.3438 17.7907C20.3438 17.7907 22.2103 15.5792 18.2517 11.784C18.2517 11.784 17.3184 13.8164 16.7605 14.5329C16.7588 14.5346 15.2017 16.356 16.7588 18Z" fill="#2DBD96"/>
<path fillRule="evenodd" clip-rule="evenodd" d="M14.273 10.6031L14.273 10.6033C14.273 10.6033 14.273 10.6033 14.2678 10.6018L13.3779 10.3771C12.9792 11.6945 12.929 12.76 13.0749 13.6179C13.2527 14.6636 13.7281 15.4379 14.2861 16.0122C14.7212 16.46 15.2085 16.7875 15.6457 17.0211C15.5098 16.4729 15.5661 15.9482 15.6955 15.5092C15.809 15.124 15.9775 14.8035 16.1155 14.5808C16.218 14.4154 16.3134 14.2888 16.368 14.2231C16.6124 13.9082 16.9637 13.2665 17.2694 12.6637C17.4186 12.3694 17.5509 12.0967 17.6459 11.8976C17.6933 11.798 17.7314 11.7171 17.7575 11.6612L17.7874 11.597L17.795 11.5806L17.7968 11.5765L17.7972 11.5756L17.7973 11.5754L17.7973 11.5754L17.7974 11.5754L18.0906 10.9369L18.5978 11.4231C20.6393 13.3804 21.2492 14.9989 21.282 16.1969C21.2886 16.4363 21.2719 16.655 21.2406 16.8519C22.0721 16.3965 22.6083 15.8448 22.9483 15.2675C23.4195 14.4673 23.5449 13.5644 23.4868 12.6882C23.4287 11.8109 23.1882 10.9865 22.9571 10.3748C22.8422 10.0707 22.7313 9.82336 22.6498 9.65338C22.6091 9.56849 22.5759 9.50316 22.5534 9.46C22.5421 9.43843 22.5336 9.42242 22.5281 9.41229L22.5222 9.40157L22.5213 9.39994L22.5212 9.39964L22.5211 9.3996L22.5211 9.39948L22.4923 9.34803L22.4762 9.29075C22.3357 8.78986 22.2949 8.34485 22.3018 7.9772C22.2251 8.05881 22.1525 8.14911 22.0844 8.24534C21.9631 8.41693 21.871 8.58678 21.8092 8.71447C21.7786 8.77778 21.7561 8.82938 21.7417 8.86386C21.7345 8.88107 21.7294 8.89392 21.7264 8.90171L21.7235 8.90913L21.7234 8.9094C21.7234 8.90938 21.7234 8.90937 21.7225 8.909L20.7566 8.78768C20.5308 6.56488 19.4135 5.24995 18.3542 4.48008C17.9604 4.19384 17.5736 3.98264 17.2424 3.83026C17.2462 3.87221 17.2491 3.91414 17.2512 3.95592C17.2742 4.42155 17.1967 4.92619 17.0645 5.40867C16.8037 6.36067 16.2964 7.34464 15.7464 7.89522L15.7462 7.89536C15.2623 8.37945 14.8918 9.04699 14.6386 9.6189C14.5138 9.90057 14.4214 10.15 14.3605 10.3281C14.3301 10.417 14.3077 10.4878 14.2931 10.5353C14.2858 10.5591 14.2805 10.5771 14.2772 10.5886L14.2736 10.6009L14.273 10.6031ZM16.7044 3.61152C16.6514 3.37049 16.5551 3.16122 16.4066 3C16.4066 3 16.6873 3.06152 17.1142 3.2314C18.2658 3.68965 20.4814 4.93641 21.1209 7.89118C21.1789 8.15892 21.2239 8.44069 21.254 8.73716C21.254 8.73716 21.3854 8.37853 21.6515 7.99207C21.8319 7.73001 22.0743 7.45516 22.3797 7.27065C22.5522 7.16644 22.7448 7.09105 22.9576 7.06306C22.9576 7.06306 22.8747 7.26016 22.8295 7.60654C22.7816 7.97398 22.7763 8.50939 22.9576 9.15569C22.9576 9.15569 26.2777 15.0862 21.0674 17.4987C20.8424 17.6028 20.6015 17.7004 20.3438 17.7907C20.3438 17.7907 20.5354 17.5637 20.6657 17.1302C20.9283 16.256 20.9412 14.5423 18.6288 12.1586C18.5094 12.0355 18.3838 11.9107 18.2517 11.784C18.2517 11.784 18.1638 11.9754 18.0259 12.2615C17.7143 12.9075 17.1472 14.0363 16.7605 14.5329C16.759 14.5344 15.601 15.889 16.2806 17.3161C16.3891 17.5439 16.5444 17.7737 16.7588 18C16.7588 18 16.4141 17.9209 15.9208 17.7081C14.3491 17.0302 11.2689 14.9956 13.0255 9.84035C13.0884 9.65578 13.1575 9.46721 13.2331 9.27455C13.2331 9.27455 13.3814 9.45957 13.5263 9.69506C13.5432 9.72267 13.5602 9.75097 13.5768 9.77974C13.7146 10.0181 13.8324 10.2893 13.7911 10.4699C13.7911 10.4699 13.885 10.1301 14.0794 9.6558C14.3365 9.02834 14.7693 8.16537 15.3926 7.54185C16.174 6.75968 16.9656 4.79965 16.7044 3.61152Z" fill="#2DBD96"/>
</svg>
