<svg width="48" height="48" viewBox="0 0 48 48" fill="none" xmlns="http://www.w3.org/2000/svg">
<circle cx="24" cy="24" r="24" fill="#d8ad5e" fill-opacity="0.04"/>
<path d="M35.8925 21.656H24.249V26.4416H30.9006C30.6138 27.9885 29.7437 29.2969 28.432 30.1734C27.3234 30.9146 25.9087 31.3529 24.2458 31.3529C21.0264 31.3529 18.3032 29.1776 17.33 26.2547C17.0851 25.5135 16.9433 24.7207 16.9433 23.9054C16.9433 23.09 17.0851 22.2973 17.33 21.5561C18.3064 18.6363 21.0296 16.461 24.249 16.461C26.0634 16.461 27.6908 17.0862 28.9734 18.3108L32.5184 14.7627C30.3753 12.7646 27.5813 11.54 24.249 11.54C19.4183 11.54 15.2385 14.3115 13.205 18.3527C12.3671 20.0221 11.8901 21.9105 11.8901 23.9086C11.8901 25.9066 12.3671 27.7919 13.205 29.4612C15.2385 33.5024 19.4183 36.2739 24.249 36.2739C27.5877 36.2739 30.385 35.1653 32.4281 33.2769C34.7646 31.1241 36.1148 27.953 36.1148 24.1857C36.1148 23.3092 36.0375 22.4681 35.8925 21.656Z" fill="#d8ad5e"/>
</svg>
