<svg width="48" height="48" viewBox="0 0 48 48" fill="none" xmlns="http://www.w3.org/2000/svg">
<circle cx="24" cy="24" r="24" fill="#d8ad5e" fill-opacity="0.04"/>
<path fillRule="evenodd" clip-rule="evenodd" d="M17.0001 16C17.0001 13.7909 18.7909 12 21.0001 12H27.0001C29.2092 12 31.0001 13.7909 31.0001 16V20C33.2092 20 35 21.7909 35 24V32C35 34.2091 33.2091 36 31 36H17C14.7909 36 13 34.2091 13 32V24C13 21.7909 14.7909 20 17 20H17.0001V16ZM21.0001 20H27.0001V17C27.0001 16.4477 26.5523 16 26.0001 16H22.0001C21.4478 16 21.0001 16.4477 21.0001 17V20ZM23 25H25V31H23V25Z" fill="#d8ad5e"/>
</svg>
