<svg width="48" height="48" viewBox="0 0 48 48" fill="none" xmlns="http://www.w3.org/2000/svg">
<circle cx="24" cy="24" r="24" fill="#d8ad5e" fill-opacity="0.04"/>
<rect width="3" height="6" transform="matrix(0.707107 0.707107 0.707107 -0.707107 28.5356 29.9492)" fill="#d8ad5e"/>
<path fillRule="evenodd" clip-rule="evenodd" d="M27.1212 14.3939C30.1498 17.4225 30.5687 22.0726 28.3778 25.5498L37.0208 34.1928L34.1924 37.0212L25.5494 28.3782C22.0722 30.5693 17.4219 30.1505 14.3933 27.1218C10.8785 23.6071 10.8785 17.9086 14.3933 14.3939C17.908 10.8791 23.6065 10.8791 27.1212 14.3939ZM22.1714 19.3436C22.9525 20.1246 22.9525 21.391 22.1714 22.172C21.3904 22.9531 20.1241 22.9531 19.343 22.172C18.562 21.391 18.562 20.1246 19.343 19.3436C20.1241 18.5626 21.3904 18.5626 22.1714 19.3436Z" fill="#d8ad5e"/>
</svg>
