<svg width="36" height="36" viewBox="0 0 36 36" fill="none" xmlns="http://www.w3.org/2000/svg">
<path d="M30.7279 32.7279C34.1036 29.3523 36 24.7739 36 20C36 15.2261 34.1036 10.6477 30.7279 7.27208L28.1823 9.81766C30.8829 12.5182 32.4 16.1809 32.4 20C32.4 23.8191 30.8829 27.4818 28.1823 30.1823L30.7279 32.7279Z" fill="#2DBD96"/>
<path d="M30.7279 7.27208C27.3523 3.89642 22.7739 2 18 2C13.2261 2 8.64774 3.89642 5.27208 7.27208L7.81766 9.81766C10.5182 7.11714 14.1809 5.6 18 5.6C21.8191 5.6 25.4818 7.11714 28.1823 9.81766L30.7279 7.27208Z" fill="#FFB547"/>
<path d="M5.27208 7.27208C1.89642 10.6477 1.51746e-07 15.2261 0 20C-1.51745e-07 24.7739 1.89642 29.3523 5.27208 32.7279L7.81766 30.1823C5.11714 27.4818 3.6 23.8191 3.6 20C3.6 16.1809 5.11714 12.5182 7.81766 9.81766L5.27208 7.27208Z" fill="#EB6666"/>
<path d="M18 4V20" stroke="#737E8D" stroke-width="3"/>
<circle cx="18" cy="20" r="4.5" fill="white" stroke="#737E8D" stroke-width="3"/>
</svg>
