<svg xmlns="http://www.w3.org/2000/svg" xmlns:xlink="http://www.w3.org/1999/xlink" width="80px" height="80px" viewBox="0 0 80 80" version="1.1">
    <title>telegram</title>
    <g id="PC二期" stroke="none" stroke-width="1" fill="none" fillRule="evenodd">
        <g id="2a金融理财首页" transform="translate(-680.000000, -2763.000000)" fillRule="nonzero">
            <g id="telegram" transform="translate(680.000000, 2763.000000)">
                <circle id="椭圆形" stroke-opacity="0.16" stroke="#01081E" stroke-width="1.16666667" fill="#FFFFFF" cx="40" cy="40" r="39.4166667"/>
                <g id="telegram-1" transform="translate(18.333333, 18.333333)">
                    <path d="M22.5,45 C34.92639,45 45,34.92639 45,22.5 C45,10.07361 34.92639,0 22.5,0 C10.07361,0 0,10.07361 0,22.5 C0,34.92639 10.07361,45 22.5,45 Z" id="路径" fill="#34AADF"/>
                    <path d="M9.36423,22.30488 C9.36423,22.30488 20.61423,17.68788 24.51591,16.06212 C26.01162,15.41187 31.08384,13.33089 31.08384,13.33089 C31.08384,13.33089 33.42492,12.42054 33.2298,14.63148 C33.16473,15.54192 32.64453,18.72828 32.12433,22.17483 C31.34394,27.05202 30.49857,32.38434 30.49857,32.38434 C30.49857,32.38434 30.36852,33.88005 29.26305,34.14015 C28.15758,34.40025 26.3367,33.2298 26.01162,32.96961 C25.75143,32.77458 21.13443,29.84823 19.44369,28.41759 C18.98847,28.02744 18.46827,27.24714 19.50867,26.3367 C21.84975,24.19074 24.64596,21.52458 26.3367,19.83384 C27.11709,19.05345 27.89739,17.23266 24.64596,19.4436 C20.02896,22.63005 15.47694,25.62138 15.47694,25.62138 C15.47694,25.62138 14.43645,26.27163 12.48561,25.68636 C10.53468,25.10118 8.25867,24.32079 8.25867,24.32079 C8.25867,24.32079 6.69807,23.34537 9.36423,22.30488 L9.36423,22.30488 Z" id="路径" fill="#FFFFFF"/>
                </g>
            </g>
        </g>
    </g>
</svg>