<svg width="48" height="48" viewBox="0 0 48 48" fill="none" xmlns="http://www.w3.org/2000/svg">
<circle cx="24" cy="24" r="24" fill="#d8ad5e" fill-opacity="0.04"/>
<path d="M37 24C37 31.1797 31.1797 37 24 37C16.8203 37 11 31.1797 11 24C11 16.8203 16.8203 11 24 11C31.1797 11 37 16.8203 37 24Z" fill="#d8ad5e"/>
<mask id="path-3-outside-1_226_22770" maskUnits="userSpaceOnUse" x="14.2513" y="4.27208" width="28.9914" height="28.9914" fill="black">
<rect fill="white" x="14.2513" y="4.27208" width="28.9914" height="28.9914"/>
<path fillRule="evenodd" clip-rule="evenodd" d="M27 13L35 13L35 21L33 21L33 16.4143L23.2025 26.2118L21.7883 24.7976L31.5859 15L27 15L27 13Z"/>
</mask>
<path fillRule="evenodd" clip-rule="evenodd" d="M27 13L35 13L35 21L33 21L33 16.4143L23.2025 26.2118L21.7883 24.7976L31.5859 15L27 15L27 13Z" fill="#d8ad5e"/>
<path d="M35 13L35 11L37 11L37 13L35 13ZM27 13L25 13L25 11L27 11L27 13ZM35 21H37L37 23L35 23L35 21ZM33 21L33 23L31 23L31 21H33ZM33 16.4143L31.5858 15.0001L35 11.5859L35 16.4143L33 16.4143ZM23.2025 26.2118L24.6167 27.626L23.2025 29.0403L21.7883 27.626L23.2025 26.2118ZM21.7883 24.7976L20.3741 26.2118L18.9598 24.7976L20.3741 23.3834L21.7883 24.7976ZM31.5859 15L31.5859 13L36.4143 13L33.0001 16.4142L31.5859 15ZM27 15L27 17L25 17L25 15L27 15ZM35 15L27 15L27 11L35 11L35 15ZM33 21L33 13L37 13L37 21H33ZM33 19L35 19L35 23L33 23L33 19ZM35 16.4143L35 21L31 21L31 16.4143L35 16.4143ZM21.7883 24.7976L31.5858 15.0001L34.4142 17.8285L24.6167 27.626L21.7883 24.7976ZM23.2025 23.3834L24.6167 24.7976L21.7883 27.626L20.3741 26.2118L23.2025 23.3834ZM33.0001 16.4142L23.2025 26.2118L20.3741 23.3834L30.1717 13.5858L33.0001 16.4142ZM27 13L31.5859 13L31.5859 17L27 17L27 13ZM29 13L29 15L25 15L25 13L29 13Z" fill="#d8ad5e" mask="url(#path-3-outside-1_226_22770)"/>
</svg>
