<svg width="18" height="18" fill="none" xmlns="http://www.w3.org/2000/svg"><path fill-rule="evenodd" clip-rule="evenodd" d="M2.8125 4.3125C2.50184 4.3125 2.25 4.56434 2.25 4.875C2.25 5.18566 2.50184 5.4375 2.8125 5.4375H11.8875C12.1982 5.4375 12.45 5.18566 12.45 4.875C12.45 4.56434 12.1982 4.3125 11.8875 4.3125H2.8125ZM2.8125 8.4375C2.50184 8.4375 2.25 8.68934 2.25 9C2.25 9.31066 2.50184 9.5625 2.8125 9.5625H9.4125C9.72316 9.5625 9.975 9.31066 9.975 9C9.975 8.68934 9.72316 8.4375 9.4125 8.4375H2.8125ZM2.25 13.125C2.25 12.8143 2.50184 12.5625 2.8125 12.5625H11.8875C12.1982 12.5625 12.45 12.8143 12.45 13.125C12.45 13.4357 12.1982 13.6875 11.8875 13.6875H2.8125C2.50184 13.6875 2.25 13.4357 2.25 13.125ZM15.5852 6.51026C15.8049 6.29059 15.8049 5.93443 15.5852 5.71476C15.3656 5.49509 15.0094 5.49509 14.7898 5.71476L11.8729 8.63158C11.6533 8.85125 11.6533 9.20741 11.8729 9.42707L14.7898 12.3439C15.0094 12.5636 15.3656 12.5636 15.5852 12.3439C15.8049 12.1242 15.8049 11.7681 15.5852 11.5484L13.0662 9.02933L15.5852 6.51026Z" fill="#333333"/></svg>