<svg width="18" height="18" fill="none" xmlns="http://www.w3.org/2000/svg"><path fill-rule="evenodd" clip-rule="evenodd" d="M13.7222 2.99902C14.3359 2.99902 14.8333 3.48015 14.8333 4.07365V5.68563H15.5741C16.0854 5.68563 16.5 6.10536 16.5 6.62313V14.4981C16.5 15.0159 16.0854 15.4356 15.5741 15.4356H2.42593C1.91455 15.4356 1.5 15.0159 1.5 14.4981V6.62313C1.5 6.60905 1.50031 6.59504 1.50091 6.58111H1.5V4.07365C1.5 3.48015 1.99746 2.99902 2.61111 2.99902H13.7222ZM13.7223 3.98397H2.61117C2.56368 3.98397 2.52455 4.01854 2.5192 4.06308L2.51857 4.07352V5.59591H13.8149V4.07352C13.8149 4.02759 13.7791 3.98974 13.7331 3.98457L13.7223 3.98397Z" fill="#F7A600"/><ellipse cx="13.954" cy="10.119" rx=".88" ry=".851" fill="#fff"/></svg>