<svg width="14" height="14" viewBox="0 0 14 14" fill="none" xmlns="http://www.w3.org/2000/svg">
<path d="M4.99986 3.53191H6.3195V9.57298C6.3195 9.65156 6.38379 9.71584 6.46236 9.71584H7.53379C7.61236 9.71584 7.67665 9.65156 7.67665 9.57298V3.53191H8.99986C9.1195 3.53191 9.18557 3.39441 9.11236 3.30155L7.11236 0.769412C7.099 0.752337 7.08192 0.738528 7.06243 0.729032C7.04294 0.719535 7.02154 0.7146 6.99986 0.7146C6.97818 0.7146 6.95678 0.719535 6.93729 0.729032C6.9178 0.738528 6.90072 0.752337 6.88736 0.769412L4.88736 3.29977C4.81415 3.39441 4.88022 3.53191 4.99986 3.53191ZM13.5356 9.03727H12.4641C12.3856 9.03727 12.3213 9.10155 12.3213 9.18013V11.9301H1.67843V9.18013C1.67843 9.10155 1.61415 9.03727 1.53557 9.03727H0.464146C0.385575 9.03727 0.321289 9.10155 0.321289 9.18013V12.7158C0.321289 13.0319 0.576646 13.2873 0.892718 13.2873H13.107C13.4231 13.2873 13.6784 13.0319 13.6784 12.7158V9.18013C13.6784 9.10155 13.6141 9.03727 13.5356 9.03727Z" fill="black"/>
</svg>
