<svg width="180" height="180" viewBox="0 0 180 180" fill="none" xmlns="http://www.w3.org/2000/svg">
<rect width="180" height="180" fill="white"/>
<circle cx="90" cy="90" r="70" fill="#00142A" fill-opacity="0.04"/>
<circle cx="90" cy="90" r="69" stroke="#00142A" stroke-opacity="0.12" stroke-width="2"/>
<path d="M69.4515 28.3305L160.249 52.6595L133.073 154.082L42.2755 129.753L69.4515 28.3305Z" fill="white" stroke="#D8DBDD" stroke-width="2"/>
<mask id="path-4-inside-1_379_11965" fill="white">
<path d="M138 41H42V148H106.208L138 116V41Z"/>
</mask>
<path d="M138 41H42V148H106.208L138 116V41Z" fill="white"/>
<path d="M138 41H140V39H138V41ZM42 41V39H40V41H42ZM42 148H40V150H42V148ZM138 116L139.419 117.41L140 116.825V116H138ZM106.208 148V150H107.041L107.627 149.41L106.208 148ZM138 39H42V43H138V39ZM40 41V148H44V41H40ZM140 116V41H136V116H140ZM42 150H106.208V146H42V150ZM107.627 149.41L139.419 117.41L136.581 114.59L104.789 146.59L107.627 149.41Z" fill="#D8DBDD" mask="url(#path-4-inside-1_379_11965)"/>
<path d="M107 117L135.586 117L107 145.586L107 117Z" fill="#F5F6F6" stroke="#D8DBDD" stroke-width="2"/>
<circle cx="16" cy="36" r="3" stroke="#00142A" stroke-opacity="0.12" stroke-width="2"/>
<circle cx="162" cy="28" r="3" stroke="#00142A" stroke-opacity="0.12" stroke-width="2"/>
<path fillRule="evenodd" clip-rule="evenodd" d="M151 18V14H149L149 18H145V20H149L149 24H151V20H155V18H151Z" fill="#D8DBDD"/>
<circle cx="22" cy="157" r="7" stroke="#00142A" stroke-opacity="0.12" stroke-width="2"/>
<path fillRule="evenodd" clip-rule="evenodd" d="M38 164V161H36L36 164H33V166H36L36 169H38V166H41V164H38Z" fill="#D8DBDD"/>
<rect x="55" y="63" width="70" height="6" fill="#F5F6F6" stroke="#D8DBDD" stroke-width="2"/>
<rect x="55" y="81" width="70" height="6" fill="#F5F6F6" stroke="#D8DBDD" stroke-width="2"/>
<rect x="55" y="99" width="70" height="6" fill="#F5F6F6" stroke="#D8DBDD" stroke-width="2"/>
<rect x="55" y="117" width="42" height="6" fill="#F5F6F6" stroke="#D8DBDD" stroke-width="2"/>
</svg>
