<?xml version="1.0" encoding="UTF-8"?>
<svg width="86px" height="52px" viewBox="0 0 86 52" version="1.1" xmlns="http://www.w3.org/2000/svg" xmlns:xlink="http://www.w3.org/1999/xlink">
    <title>kyc-白</title>
    <g id="第一期" stroke="none" stroke-width="1" fill="none" fillRule="evenodd">
        <g id="切图" transform="translate(-145.000000, -448.000000)">
            <g id="kyc-白" transform="translate(145.000000, 448.000000)">
                <g id="图">
                    <rect id="矩形" fill-opacity="0.06" fill="#00142A" x="0" y="0" width="86" height="52" rx="2"></rect>
                    <rect id="矩形" fill-opacity="0.06" fill="#00142A" x="11" y="14" width="23" height="3" rx="1.5"></rect>
                    <rect id="矩形备份-2" fill-opacity="0.06" fill="#00142A" x="11" y="30" width="33" height="3" rx="1.5"></rect>
                    <rect id="矩形备份-3" fill-opacity="0.06" fill="#00142A" x="11" y="35" width="18" height="3" rx="1.5"></rect>
                    <rect id="矩形" fill-opacity="0.06" fill="#00142A" x="11" y="21" width="12" height="3" rx="1.5"></rect>
                    <rect id="矩形备份" fill-opacity="0.06" fill="#00142A" x="27" y="21" width="12" height="3" rx="1.5"></rect>
                    <g id="人" transform="translate(53.000000, 12.000000)">
                        <path d="M0,27 C0.611474588,22.3789682 1.55688642,19.1375495 2.83623548,17.275744 C4.11558455,15.4139384 6.50978714,14.3220237 10.0188433,14 L10.0188433,14 L12,14.324968 L13.9811567,14 C17.4902129,14.3220237 19.8844154,15.4139384 21.1637645,17.275744 C22.4431136,19.1375495 23.3885254,22.3789682 24,27 Z" id="形状结合" fill="#6CD9AF"></path>
                        <path d="M9.34477251,12.0134022 L9.34477251,13.8181825 C10.8928408,14.9223496 11.7230921,15.5911752 11.8355263,15.8246594 C12.4856731,15.2727366 13.3455899,14.6375271 14.4152769,13.9190308 L14.4152769,11.7592621 L9.34477251,12.0134022 Z" id="路径-4" fill="#FFC08E"></path>
                        <path d="M15.731848,7.332412 C16.3371031,6.85937756 16.7566659,6.78165472 16.9905366,7.0992435 C17.3413425,7.57562668 16.4462607,9.3677348 15.731848,9.3677348 C15.2555728,9.3677348 15.2555728,8.68929387 15.731848,7.332412 Z" id="路径-2" fill="#FFC08E"></path>
                        <path d="M6.74769703,7.332412 C7.35295211,6.85937756 7.77251498,6.78165472 8.00638563,7.0992435 C8.3571916,7.57562668 7.46210975,9.3677348 6.74769703,9.3677348 C6.27142188,9.3677348 6.27142188,8.68929387 6.74769703,7.332412 Z" id="路径-2" fill="#FFC08E" transform="translate(7.237758, 8.137809) scale(-1, 1) translate(-7.237758, -8.137809) "></path>
                        <path d="M11.6596483,3.96919219 L15.9361684,4.59724198 L15.9361684,5.59775944 C16.0271591,8.33971711 15.7865462,10.1023221 15.2143296,10.8855745 C14.3560047,12.060453 12.8618496,13.4266849 11.6596483,13.4266849 C11.6605201,13.4266849 11.6613591,13.4222178 11.6621653,13.4132835 C10.4674895,13.3863588 9.02273813,12.0482348 8.17333944,10.8855745 C7.60112285,10.1023221 7.36050992,8.33971711 7.45150068,5.59775944 L7.45150068,5.59775944 L7.45150068,4.59724198 L11.6596966,3.98233286 C11.6596805,3.97795416 11.6596644,3.97357393 11.6596483,3.96919219 Z" id="形状结合" fill="#FFCCA4"></path>
                        <path d="M7.28074569,5.48861469 C10.0246479,5.94512155 12.1956481,5.53555085 13.7937462,4.25990258 C14.5856657,5.29314635 15.3820682,5.89283823 16.1829537,6.05897821 L16.1829537,6.88163038 L16.6301705,6.88163038 C17.1455501,4.945203 17.0734445,3.55899278 16.4138537,2.72299973 C15.4244674,1.46901015 15.2126875,0.22814541 10.2505249,0.460017627 C9.49004017,0.485187078 8.89709975,0.331847869 8.47170362,0 C8.15973206,0.407680293 8.08173917,0.706040909 8.23772495,0.895081851 C8.47170362,1.17864326 6.24392443,2.38774404 6.78755217,3.94976233 C6.78496764,4.97367274 6.84447477,5.86870227 6.96607354,6.63485093 L6.96607354,6.83431061 L7.54396433,6.83431061 L7.28074569,5.48861469 Z" id="路径-3" fill="#474F5E"></path>
                    </g>
                </g>
            </g>
        </g>
    </g>
</svg>