<svg width="49" height="32" viewBox="0 0 49 32" fill="none" xmlns="http://www.w3.org/2000/svg">
<rect x="0.666992" width="48" height="32" rx="2" fill="white"/>
<rect x="0.666992" width="48" height="32" rx="2" fill="#171A72"/>
<path fillRule="evenodd" clip-rule="evenodd" d="M17.2971 22.4466L20.7931 10.9194H23.9125L20.4163 22.4466H17.2971ZM15.9027 10.9226L13.0967 15.809C12.3824 17.0887 11.9649 17.7351 11.7641 18.5439H11.7214C11.7711 17.5186 11.6281 16.26 11.6146 15.5486L11.3048 10.9226H6.05396L6 11.2326C7.34902 11.2326 8.14898 11.9103 8.3691 13.2964L9.39255 22.4466H12.6241L19.1583 10.9226H15.9027ZM40.1604 22.4466L40.0743 20.7322L36.1793 20.729L35.3827 22.4463H31.9962L38.1367 10.9413H42.2935L43.3333 22.4463H40.1604V22.4466ZM39.8027 15.6471C39.7681 14.7952 39.7391 13.6388 39.7971 12.9391H39.751C39.5613 13.5114 38.7458 15.2298 38.3872 16.0749L37.2266 18.6016H39.9615L39.8027 15.6471ZM27.1872 22.7741C24.9849 22.7741 23.5235 22.0756 22.48 21.4528L23.966 19.1835C24.9026 19.7074 25.6381 20.312 27.3302 20.312C27.8743 20.312 28.3986 20.1705 28.6963 19.655C29.1302 18.9052 28.5962 18.5018 27.3776 17.812L26.776 17.4208C24.9696 16.1865 24.1883 15.0142 25.0387 12.9677C25.5828 11.6587 27.0179 10.6665 29.3854 10.6665C31.0182 10.6665 32.5489 11.3727 33.4408 12.0627L31.7325 14.0662C30.8621 13.3623 30.1406 13.0061 29.315 13.0061C28.6567 13.0061 28.1567 13.26 27.984 13.6024C27.6591 14.2461 28.089 14.685 29.0383 15.2743L29.7537 15.7294C31.9467 17.1125 32.4693 18.563 31.9195 19.919C30.9743 22.253 29.1235 22.7741 27.1872 22.7741Z" fill="white"/>
</svg>
