<svg width="33" height="33" viewBox="0 0 33 33" fill="none" xmlns="http://www.w3.org/2000/svg">
<rect width="33" height="33" rx="8" fill="#29CD97"/>
<g clip-path="url(#clip0_793:16732)">
<path fillRule="evenodd" clip-rule="evenodd" d="M13.3226 17.0022L19.8102 23.5192L23.9052 19.4063C24.6375 18.7441 25.7577 18.7735 26.4544 19.4733C27.1512 20.1731 27.1805 21.2982 26.5212 22.0337L21.1172 27.4623C20.3913 28.1792 19.2271 28.1792 18.5012 27.4623L10.7046 19.6296V24.2851C10.7046 25.3126 9.87531 26.1455 8.85231 26.1455C7.82931 26.1455 7 25.3126 7 24.2851V9.71325C7 8.68578 7.82931 7.85286 8.85231 7.85286C9.87531 7.85286 10.7046 8.68578 10.7046 9.71325V14.3688L18.5002 6.53815C19.2259 5.82062 20.3905 5.82062 21.1162 6.53815L26.5242 11.9657C27.1835 12.7012 27.1542 13.8263 26.4575 14.5261C25.7607 15.2259 24.6405 15.2553 23.9082 14.5931L19.8132 10.4802L13.3226 17.0022ZM19.8132 15.1398C19.0631 15.1394 18.3867 15.5929 18.0993 16.2888C17.812 16.9847 17.9704 17.7859 18.5007 18.3188C19.0309 18.8516 19.8286 19.0112 20.5216 18.723C21.2147 18.4348 21.6666 17.7556 21.6666 17.0022C21.6668 16.5083 21.4717 16.0345 21.1241 15.685C20.7766 15.3355 20.305 15.1391 19.8132 15.1388V15.1398Z" fill="#FBFFFE"/>
</g>
<defs>
<clipPath id="clip0_793:16732">
<rect width="20" height="22" fill="white" transform="translate(7 6)"/>
</clipPath>
</defs>
</svg>
