<svg width="321" height="322" viewBox="0 0 321 322" fill="none" xmlns="http://www.w3.org/2000/svg">
<g clip-path="url(#clip0_1961_27268)">
<path d="M52.5 0.5H268.5C295.838 0.5 318 22.6619 318 50V599C318 626.338 295.838 648.5 268.5 648.5H52.5C25.1619 648.5 3 626.338 3 599V50C3 22.6619 25.1619 0.5 52.5 0.5Z" fill="#F7F8FA" stroke="#737E8D"/>
<path d="M53.5 4.5H267.5C293.181 4.5 314 25.3188 314 51V598C314 623.681 293.181 644.5 267.5 644.5H53.5C27.8188 644.5 7 623.681 7 598V51C7 25.3188 27.8188 4.5 53.5 4.5Z" stroke="#737E8D"/>
<path d="M52.5 14.5H268.5C288.106 14.5 304 30.3939 304 50V599C304 618.606 288.106 634.5 268.5 634.5H52.5C32.8939 634.5 17 618.606 17 599V50C17 30.3939 32.8939 14.5 52.5 14.5Z" fill="#EBEEEF" stroke="#737E8D"/>
<rect x="250.5" y="1" width="4" height="3" fill="#737E8D"/>
<rect x="314.5" y="65" width="3" height="5" fill="#737E8D"/>
<rect x="3.5" y="65" width="3" height="5" fill="#737E8D"/>
<path d="M320.5 269C320.5 270.105 319.605 271 318.5 271V271L318.5 193V193C319.605 193 320.5 193.895 320.5 195L320.5 269Z" fill="#737E8D"/>
<path d="M1 180C1 178.895 1.89543 178 3 178V178V225V225C1.89543 225 1 224.105 1 223V180Z" fill="#737E8D"/>
<path d="M1 240C1 238.895 1.89543 238 3 238V238V285V285C1.89543 285 1 284.105 1 283V240Z" fill="#737E8D"/>
<path d="M0.5 133.5C0.5 132.119 1.61929 131 3 131V131V155V155C1.61929 155 0.5 153.881 0.5 152.5V133.5Z" fill="#737E8D"/>
<rect x="136" y="8" width="49" height="3" rx="1.5" fill="#737E8D"/>
</g>
<defs>
<clipPath id="clip0_1961_27268">
<rect width="321" height="322" fill="white"/>
</clipPath>
</defs>
</svg>
