
<svg width="30" height="30" viewBox="0 0 30 30" fill="none" xmlns="http://www.w3.org/2000/svg">
<path d="M15 30C10.9934 30 7.22654 28.4397 4.39336 25.6066C1.56029 22.7735 0 19.0066 0 15C0 10.9934 1.56029 7.22654 4.39336 4.39336C7.22654 1.56029 10.9934 0 15 0C19.0066 0 22.7735 1.56029 25.6066 4.39336C28.4397 7.22654 30 10.9934 30 15C30 19.0066 28.4397 22.7735 25.6066 25.6066C22.7735 28.4397 19.0066 30 15 30Z" fill="#58CCB6"/>
<path d="M17.4769 22.5031V12.5195H11.5538V14.5162H12.6308V22.5031H11.5V24.4998H18.5V22.5031H17.4769Z" fill="#151C30"/>
<path d="M15.1367 10.7648C16.5906 10.7648 17.7734 9.58389 17.7734 8.13239C17.7734 6.68089 16.5906 5.5 15.1367 5.5C13.6828 5.5 12.5 6.68089 12.5 8.13239C12.5 9.58389 13.6828 10.7648 15.1367 10.7648Z" fill="#151C30"/>
</svg>
