<?xml version="1.0" encoding="UTF-8"?>
<svg width="14px" height="14px" viewBox="0 0 14 14" version="1.1" xmlns="http://www.w3.org/2000/svg" xmlns:xlink="http://www.w3.org/1999/xlink">
    <title>fire</title>
    <g id="页面-1" stroke="none" stroke-width="1" fill="none" fillRule="evenodd">
        <g id="fire">
            <rect id="矩形" fill="#000000" fillRule="nonzero" opacity="0" x="0" y="0" width="14" height="14"></rect>
            <path d="M11.68069,8.99101 C11.67159,9.02062 11.6606,9.05023 11.65444,9.08047 C11.59221,9.40226 11.55714,9.73245 11.46334,10.04472 C11.18495,10.9662 10.66324,11.73424 9.93195,12.36123 C9.36796,12.84521 8.73313,13.19388 8.00751,13.36545 C7.76895,13.42201 7.5243,13.45533 7.28231,13.49943 L6.67373,13.49943 C6.64412,13.49033 6.61388,13.47654 6.58357,13.47458 C5.94111,13.43447 5.33225,13.26724 4.76112,12.97541 C3.68151,12.42549 2.90269,11.6067 2.54702,10.42874 C2.47128,10.17695 2.43964,9.91312 2.38714,9.65461 L2.38714,9.07382 C2.41003,8.93102 2.42984,8.78703 2.45679,8.6443 C2.57187,8.02102 2.84886,7.469 3.21573,6.95954 C3.56167,6.48004 3.92917,6.01552 4.25733,5.52384 C4.61209,4.99044 4.78373,4.39838 4.68307,3.7492 C4.66326,3.62096 4.64471,3.49272 4.62525,3.36518 C4.63834,3.36182 4.6515,3.35916 4.66459,3.35538 C5.4565,4.18537 5.58544,5.20408 5.47232,6.30497 C5.50123,6.27403 5.52552,6.25247 5.544,6.22755 C6.21614,5.31853 6.50489,4.31431 6.28572,3.18955 C6.14642,2.47401 5.84521,1.83085 5.34681,1.29605 C5.13037,1.06449 4.86857,0.87507 4.62721,0.66605 L4.87627,0.66605 C4.89685,0.67445 4.91603,0.68894 4.93682,0.6909 C5.37502,0.72863 5.78662,0.86387 6.17876,1.05406 C7.0756,1.4882 7.80262,2.13003 8.41078,2.91284 C9.30468,4.0649 9.88582,5.34275 10.00097,6.81415 C10.04507,7.37583 9.98781,7.92176 9.83808,8.46027 C9.78152,8.66418 9.70179,8.86137 9.62878,9.07382 C9.91886,8.95027 10.13929,8.76148 10.3096,8.51676 C10.81745,7.78547 10.95948,6.96997 10.8444,6.06837 C10.88178,6.11177 10.90096,6.12892 10.91398,6.15048 C11.21988,6.63376 11.44878,7.14938 11.56827,7.70966 C11.61573,7.93142 11.64338,8.15836 11.68069,8.38222 L11.68069,8.99101 Z M6.81142,8.00121 C6.77978,8.34008 6.69872,8.66691 6.54017,8.97078 C6.34634,9.34304 6.02224,9.57453 5.66307,9.7587 C5.27576,9.95855 5.03181,10.24401 5.00017,10.6946 C4.96713,11.158 5.1065,11.54741 5.48009,11.83217 C5.83009,12.09873 6.23896,12.1856 6.67247,12.17111 C7.36435,12.14857 7.88004,11.81971 8.08661,11.12713 C8.23508,10.62999 8.21086,10.12949 8.1116,9.62913 C7.97587,8.94313 7.72751,8.30375 7.3024,7.74347 C7.18305,7.58688 7.0322,7.45395 6.89626,7.30996 C6.88485,7.31801 6.83298,7.7791 6.81142,8.00121 Z" id="形状" fill="#DC5656"></path>
        </g>
    </g>
</svg>