<svg width="24" height="24" viewBox="0 0 24 24" fill="none" xmlns="http://www.w3.org/2000/svg">
<path d="M8.65736 6.69873V19.79C8.65736 19.9758 8.61094 20.1339 8.51812 20.2644C8.42529 20.3948 8.28959 20.46 8.11101 20.46C7.98447 20.46 7.86188 20.4302 7.74325 20.3706L2.55831 17.77C2.40222 17.6954 2.27026 17.5708 2.16245 17.3962C2.05464 17.2216 2.00073 17.0487 2.00073 16.8775V4.15435C2.00073 4.0056 2.03799 3.87914 2.1125 3.77498C2.18701 3.67081 2.29482 3.61873 2.43593 3.61873C2.54 3.61873 2.70359 3.67456 2.9267 3.78623L8.62426 6.6431C8.64674 6.6656 8.65798 6.68414 8.65798 6.69873H8.65736ZM9.37103 7.8256L15.3252 17.4906L9.37103 14.5219V7.8256ZM21.9812 8.02685V19.79C21.9812 19.9758 21.9292 20.1264 21.8251 20.2419C21.7211 20.3573 21.5797 20.415 21.4012 20.415C21.2226 20.415 21.048 20.3666 20.8773 20.27L15.9602 17.8144L21.9812 8.02685ZM21.9475 6.68748C21.9475 6.70998 20.9943 8.2706 19.0878 11.3694C17.1813 14.4681 16.0645 16.2816 15.7373 16.81L11.3891 9.73435L15.0018 3.85248C15.1283 3.64414 15.3217 3.53998 15.5818 3.53998C15.6859 3.53998 15.7825 3.56227 15.8716 3.60685L21.9038 6.61998C21.9334 6.63498 21.9481 6.65727 21.9481 6.68685L21.9475 6.68748Z" fill="#737E8D"/>
</svg>
