<svg width="24" height="24" viewBox="0 0 24 24" fill="none" xmlns="http://www.w3.org/2000/svg">
<path d="M14.763 3H9.237C4.194 3 3 4.194 3 9.237V14.763C3 19.806 4.194 21 9.237 21H14.763C19.806 21 21 19.806 21 14.763V9.237C21 4.194 19.7933 3 14.763 3ZM17.532 15.8423H16.224C15.729 15.8423 15.576 15.4485 14.6865 14.547C13.9117 13.797 13.569 13.6958 13.3785 13.6958C13.1115 13.6958 13.035 13.7723 13.035 14.1405V15.3217C13.035 15.6397 12.9337 15.8302 12.0952 15.8302C10.7107 15.8302 9.17325 14.9918 8.094 13.4288C6.468 11.1428 6.0225 9.4275 6.0225 9.072C6.0225 8.8815 6.099 8.70375 6.46725 8.70375H7.77525C8.10525 8.70375 8.23275 8.856 8.36025 9.2115C9.0075 11.079 10.0875 12.7177 10.5323 12.7177C10.6973 12.7177 10.7737 12.6412 10.7737 12.2227V10.2908C10.7227 9.40125 10.2525 9.3255 10.2525 9.00825C10.2525 8.85525 10.38 8.703 10.5825 8.703H12.6405C12.9202 8.703 13.0215 8.85525 13.0215 9.18525V11.79C13.0215 12.069 13.149 12.171 13.2248 12.171C13.3898 12.171 13.53 12.069 13.8345 11.7645C14.775 10.71 15.4478 9.084 15.4478 9.084C15.537 8.8935 15.6893 8.71575 16.02 8.71575H17.328C17.7218 8.71575 17.811 8.91825 17.7218 9.198C17.5568 9.96075 15.9562 12.2212 15.9562 12.2213C15.8167 12.45 15.7657 12.5512 15.9562 12.8062C16.0957 12.9967 16.5532 13.3905 16.8585 13.746C17.4172 14.3813 17.8485 14.9145 17.9633 15.2835C18.0907 15.651 17.8995 15.8415 17.5312 15.8415L17.532 15.8423Z" fill="#737E8D"/>
</svg>
