<svg className="eyeOpen_svg__icon" viewBox="0 0 1024 1024" xmlns="http://www.w3.org/2000/svg" width="24" height="24" fill="#eb9f12"><defs><style></style></defs><path fill="#eb9f12" d="M512 213.333c157.099 0 299.307 99.542 426.667 298.667C811.307 711.125 669.099 810.667 512 810.667S212.693 711.125 85.333 512C212.693 312.875 354.901 213.333 512 213.333zm0 64c-123.52 0-239.872 75.819-349.824 234.667C272.128 670.848 388.48 746.667 512 746.667c123.52 0 239.872-75.819 349.824-234.667C751.872 353.152 635.52 277.333 512 277.333zM512 384a128 128 0 110 256 128 128 0 010-256zm0 64a64 64 0 100 128 64 64 0 000-128z"></path></svg>