<svg width="40" height="40" viewBox="0 0 40 40" fill="none" xmlns="http://www.w3.org/2000/svg">
<rect opacity="0.08" x="2" y="2" width="36" height="36" rx="8" fill="#737E8D"/>
<path fillRule="evenodd" clip-rule="evenodd" d="M24.6213 8.21426L23.2071 6.80005L20 10.0072L23.2071 13.2143L24.6213 11.8L23.8284 11.0071H27.9141C28.4663 11.0071 28.9141 11.4548 28.9141 12.0071V15.0071H30.9141V12.0071C30.9141 10.3502 29.5709 9.00708 27.9141 9.00708H23.8285L24.6213 8.21426Z" fill="#737E8D"/>
<path fillRule="evenodd" clip-rule="evenodd" d="M15.5857 29L12 29C11.4477 29 11 28.5523 11 28L11 25H9V28C9 29.6569 10.3431 31 12 31L15.5856 31L14.7927 31.7928L16.207 33.207L19.4141 29.9999L16.207 26.7928L14.7927 28.207L15.5857 29Z" fill="#2DBD96"/>
<path fillRule="evenodd" clip-rule="evenodd" d="M14 15C15.6569 15 17 13.6569 17 12C17 10.3431 15.6569 9 14 9C12.3431 9 11 10.3431 11 12C11 13.6569 12.3431 15 14 15ZM12 16C10.3431 16 9 17.3431 9 19V22H19V19C19 17.3431 17.6569 16 16 16H12Z" fill="#2DBD96"/>
<path fillRule="evenodd" clip-rule="evenodd" d="M26 24C27.6569 24 29 22.6569 29 21C29 19.3431 27.6569 18 26 18C24.3431 18 23 19.3431 23 21C23 22.6569 24.3431 24 26 24ZM24 25C22.3431 25 21 26.3431 21 28V31H31V28C31 26.3431 29.6569 25 28 25H24Z" fill="#737E8D"/>
</svg>
