<?xml version="1.0" encoding="UTF-8"?>
<svg width="16px" height="16px" viewBox="0 0 16 16" version="1.1" xmlns="http://www.w3.org/2000/svg" xmlns:xlink="http://www.w3.org/1999/xlink">
    <!-- Generator: Sketch 61 (89581) - https://sketch.com -->
    <title>kyc_institution</title>
    <desc>Created with Sketch.</desc>
    <g id="kyc_institution" stroke="none" stroke-width="1" fill="none" fillRule="evenodd">
        <rect id="矩形" fill="#000000" fillRule="nonzero" opacity="0" x="0" y="0" width="16" height="16"></rect>
        <path d="M14.8472005,13.6238932 L13.3400391,13.6238932 L13.335612,5.52213542 L14.8471354,5.51822917 C14.9811849,5.51822917 15.1045573,5.44335938 15.1614583,5.32753906 C15.2065755,5.23697917 15.2135417,5.13613281 15.1817708,5.0421875 C15.1521485,4.95449219 15.0921224,4.88483073 15.0129557,4.84602864 L8.14270833,1.41497395 C8.04537759,1.36848958 7.9251302,1.36757813 7.83248697,1.41438802 L0.999869797,4.82526042 C0.857096359,4.88476563 0.764908859,5.01692709 0.764908859,5.16197917 C0.764908859,5.35377605 0.932226563,5.52207031 1.12304688,5.52207031 L2.63984375,5.52207031 L2.63984375,12.0591146 L2.65039063,12.0591146 L2.65039063,13.623763 L1.12304688,13.623763 C0.92890625,13.623763 0.764908859,13.7853516 0.764908859,13.9765625 C0.764908859,14.1731771 0.925585938,14.3332031 1.12304688,14.3332031 L14.8472005,14.3332031 C15.0467448,14.3332031 15.2090495,14.1732422 15.2090495,13.9765625 C15.2090495,13.7854818 15.0433594,13.6238932 14.8472005,13.6238932 Z M2.63105469,4.80514323 L7.98417969,2.13235678 L13.3422526,4.80514323 L2.63105469,4.80514323 L2.63105469,4.80514323 Z M5.98066406,13.6238932 L3.35117188,13.6238932 L3.35117188,5.52213542 L5.96647136,5.52213542 L5.96647136,12.0591797 L5.98066406,12.0591797 L5.98066406,13.6238932 Z M9.28509114,13.6238932 L6.68144531,13.6238932 L6.68144531,5.52213542 L9.28912761,5.52213542 L9.28509114,13.6238932 Z M12.6393229,13.6238932 L9.99856772,13.6238932 L9.99856772,12.0592448 L10.0038412,12.0592448 L10.0038411,5.52213542 L12.6191406,5.52213542 L12.6191406,12.0591797 L12.6393229,12.0591797 L12.6393229,13.6238932 L12.6393229,13.6238932 Z" id="形状" fill="#000000" fillRule="nonzero"></path>
    </g>
</svg>