<svg width="72" height="72" viewBox="0 0 72 72" fill="none" xmlns="http://www.w3.org/2000/svg">
<rect width="72" height="72" fill="white"/>
<path fillRule="evenodd" clip-rule="evenodd" d="M35.5497 42.875V46H24.2747V43.525L29.2747 37.525C29.9247 36.75 30.9747 35.225 31.2997 34.575C31.6247 33.925 31.7747 33.25 31.7747 32.6C31.7747 31.525 31.1997 30.975 30.0997 30.975C29.2247 30.975 28.7497 31.25 28.3997 32C28.1497 32.475 28.0497 32.85 27.9997 33.35L24.4747 33.1C24.6497 29.6 26.5497 27.875 30.2247 27.875C33.6997 27.875 35.5747 29.625 35.5747 32.825C35.5747 34.225 35.2247 35.375 34.3747 36.725L34.3747 36.725C34.1452 37.0868 33.9968 37.3209 33.8095 37.5778L33.6049 37.848C33.2651 38.2815 32.7482 38.8794 31.6497 40.15L29.2997 42.875H35.5497ZM46.9505 42.9499V45.9999H43.5255V42.9499H36.5005V40.6499L41.9505 28.1499H46.0005L40.8505 39.8999H43.5255V35.8999H46.9505V39.8999H48.5005V42.9499H46.9505Z" fill="#2DBD96"/>
<circle cx="36.3872" cy="61" r="5" fill="#00142A"/>
<path fillRule="evenodd" clip-rule="evenodd" d="M6.00012 33.5H11.0257C12.2802 20.8429 22.9584 10.9569 35.9456 10.9569C48.9328 10.9569 59.611 20.8429 60.8655 33.5H65.8986C64.6281 18.0726 51.7046 5.94824 35.9494 5.94824C20.1941 5.94824 7.27063 18.0726 6.00012 33.5ZM37.7272 66H34.1715C34.7597 66.0343 35.3525 66.0517 35.9494 66.0517C36.5462 66.0517 37.139 66.0343 37.7272 66Z" fill="#00142A"/>
<path d="M6 38.5H11.014V51H6V38.5Z" fill="#00142A"/>
<path d="M60.7874 38.5H66.0002V51H60.7874V38.5Z" fill="#00142A"/>
<path fillRule="evenodd" clip-rule="evenodd" d="M65.98 38.5H33.6533V38.5H60.7871V50.8329C60.7871 55.2512 57.2054 58.8329 52.7871 58.8329H33.6533V64.0329H53.98C60.6074 64.0329 65.98 58.6603 65.98 52.0329V38.5Z" fill="#00142A"/>
</svg>
