<svg width="24" height="24" viewBox="0 0 24 24" fill="none" xmlns="http://www.w3.org/2000/svg">
<path fillRule="evenodd" clip-rule="evenodd" d="M22 12C22 17.5228 17.5228 22 12 22C6.47715 22 2 17.5228 2 12C2 6.47715 6.47715 2 12 2C17.5228 2 22 6.47715 22 12ZM8.49315 11.0252C7.48662 11.4612 6.45242 11.9092 5.50674 12.426L5.50668 12.4261C5.01287 12.7848 5.66924 13.0385 6.28495 13.2764C6.38283 13.3143 6.47969 13.3517 6.57074 13.3891C6.6465 13.4122 6.72355 13.4366 6.80162 13.4612C7.48641 13.6777 8.25 13.9191 8.91481 13.556C10.0069 12.9336 11.0375 12.214 12.0674 11.495C12.4048 11.2594 12.7421 11.0239 13.0815 10.7919C13.0974 10.7818 13.1153 10.7702 13.1349 10.7576C13.4241 10.5717 14.0742 10.1535 13.8337 10.7297C13.265 11.3468 12.6558 11.893 12.0434 12.4422C11.6306 12.8123 11.2163 13.1838 10.8119 13.5792C10.4596 13.8632 10.0939 14.4342 10.4883 14.8318C11.3967 15.4627 12.3194 16.0784 13.2415 16.6937C13.5415 16.8939 13.8415 17.0941 14.141 17.2948C14.6485 17.6968 15.4416 17.3716 15.5532 16.7434C15.6028 16.4545 15.6527 16.1655 15.7025 15.8765C15.9778 14.2796 16.2532 12.6821 16.4965 11.08C16.5295 10.8287 16.567 10.5774 16.6045 10.326C16.6954 9.71662 16.7864 9.1065 16.8148 8.49384C16.7415 7.88246 15.9944 8.01689 15.5785 8.15436C13.4412 8.96124 11.3252 9.82792 9.21757 10.7099C8.97882 10.8148 8.73679 10.9197 8.49315 11.0252Z" fill="#737E8D"/>
</svg>
