<?xml version="1.0" encoding="UTF-8"?>
<svg width="20px" height="20px" viewBox="0 0 20 20" version="1.1" xmlns="http://www.w3.org/2000/svg" xmlns:xlink="http://www.w3.org/1999/xlink">
    <!-- Generator: Sketch 59.1 (86144) - https://sketch.com -->
    <title>Rectangle</title>
    <desc>Created with Sketch.</desc>
    <g id="Rectangle" stroke="none" stroke-width="1" fill="none" fillRule="evenodd" fill-opacity="0.6">
        <path d="M18,2 L18,18 L14,18 L14,20 L10,17 L17,17 L17,3 L13,3 L13,2 L18,2 Z M6,0 L10,3 L3,3 L3,17 L7,17 L7,18 L2,18 L2,2 L6,2 L6,0 Z M13,10 C14.408805,10 15,10.591133 15,11.9950739 L15,11.9950739 L15,13.0049261 C15,14.408867 14.408805,15 13,15 C11.591195,15 11,14.408867 11,13.0049261 L11,13.0049261 L11,11.9950739 C11,11.2438424 11.1132075,10.8497537 11.4402516,10.5172414 C11.7924528,10.1600985 12.2578616,10 13,10 Z M12,5 L9.1875,15 L8,15 L10.8125,5 L12,5 Z M13,11 C12.3150685,11 12,11.3586957 12,12.1630435 L12,12.1630435 L12,12.8369565 C12,13.6413043 12.3150685,14 13,14 C13.6849315,14 14,13.6413043 14,12.8369565 L14,12.8369565 L14,12.1630435 C14,11.3586957 13.6849315,11 13,11 Z M7,5 C8.40880503,5 9,5.59259259 9,7 L9,7 L9,8.01234568 C9,9.40740741 8.40880503,10 7,10 C5.59119497,10 5,9.41975309 5,8.01234568 L5,8.01234568 L5,7 C5,5.59259259 5.59119497,5 7,5 Z M7,6 C6.31506849,6 6,6.36 6,7.16727273 L6,7.16727273 L6,7.84363636 C6,8.64 6.31506849,9 7,9 C7.68493151,9 8,8.64 8,7.84363636 L8,7.84363636 L8,7.16727273 C8,6.36 7.68493151,6 7,6 Z" id="Combined-Shape" fill="#FFFFFF" fillRule="nonzero"></path>
    </g>
</svg>