<svg width="638" height="440" viewBox="0 0 638 440" fill="none" xmlns="http://www.w3.org/2000/svg">
<path fillRule="evenodd" clip-rule="evenodd" d="M201.691 264.068L408.646 463.723L539.277 337.72C562.635 317.432 598.371 318.335 620.597 339.774C642.823 361.212 643.758 395.682 622.726 418.213L450.339 584.525C427.183 606.492 390.045 606.492 366.889 584.525L118.177 344.562V487.19C118.177 518.668 91.7225 544.186 59.0887 544.186C26.4549 544.186 0 518.668 0 487.19V40.7604C0 9.28258 26.4549 -16.2352 59.0887 -16.2352C91.7225 -16.2352 118.177 9.28258 118.177 40.7604V183.389L366.857 -56.513C390.006 -78.4957 427.158 -78.4957 450.307 -56.513L622.822 109.768C643.855 132.299 642.919 166.769 620.693 188.208C598.467 209.647 562.731 210.549 539.373 190.262L408.742 64.2583L201.691 264.068ZM408.742 207.011C384.814 206.998 363.235 220.892 354.069 242.212C344.903 263.532 349.956 288.078 366.871 304.403C383.786 320.728 409.232 325.615 431.34 316.785C453.447 307.956 467.863 287.149 467.863 264.068C467.872 248.936 461.648 234.419 450.56 223.713C439.473 213.007 424.431 206.988 408.742 206.98V207.011Z" fill="url(#paint0_linear_1584_25796)" fill-opacity="0.04"/>
<defs>
<linearGradient id="paint0_linear_1584_25796" x1="319" y1="43.0606" x2="319" y2="601" gradientUnits="userSpaceOnUse">
<stop stop-color="#00142A"/>
<stop offset="1" stop-color="#00142A" stop-opacity="0"/>
</linearGradient>
</defs>
</svg>
