<svg width="480" height="320" viewBox="0 0 480 320" fill="none" xmlns="http://www.w3.org/2000/svg">
<mask id="mask0_1452_26112" style="mask-type:alpha" maskUnits="userSpaceOnUse" x="0" y="0" width="480" height="320">
<rect width="480" height="320" fill="#565454"/>
</mask>
<g mask="url(#mask0_1452_26112)">
<path d="M158.487 231.571C158.423 231.399 158.324 231.242 158.195 231.112C158.066 230.981 157.911 230.879 157.739 230.813C157.568 230.747 157.385 230.718 157.202 230.728C157.018 230.738 156.839 230.788 156.677 230.872L151.051 233.884C148.604 235.203 145.878 235.922 143.099 235.981L138.403 236.078C138.13 236.083 137.864 236.174 137.646 236.338C137.428 236.503 137.267 236.732 137.187 236.994C137.126 237.185 137.111 237.387 137.142 237.585C137.172 237.783 137.249 237.971 137.365 238.134C137.481 238.297 137.633 238.431 137.809 238.526C137.986 238.62 138.182 238.672 138.382 238.678L141.506 238.79C145.048 238.923 148.563 238.118 151.694 236.456L157.893 233.171C158.17 233.023 158.384 232.779 158.493 232.484C158.603 232.189 158.6 231.864 158.487 231.571Z" fill="#FAE2BA" stroke="#12192D" stroke-width="0.3" stroke-linecap="round" stroke-linejoin="round"/>
<path d="M141.743 255.869C141.618 255.735 141.466 255.63 141.297 255.559C141.128 255.489 140.946 255.455 140.763 255.461C140.58 255.466 140.4 255.51 140.235 255.59C140.071 255.67 139.925 255.784 139.807 255.925L135.712 260.816C133.928 262.945 131.665 264.621 129.109 265.708L124.783 267.546C124.532 267.652 124.322 267.835 124.181 268.069C124.041 268.302 123.977 268.574 124.001 268.845C124.016 269.045 124.078 269.238 124.181 269.41C124.284 269.582 124.425 269.727 124.594 269.836C124.762 269.944 124.953 270.012 125.152 270.034C125.351 270.056 125.552 270.032 125.741 269.963L128.683 268.908C132.016 267.708 134.973 265.649 137.257 262.941L141.785 257.581C141.988 257.339 142.096 257.032 142.088 256.717C142.081 256.401 141.958 256.1 141.743 255.869Z" fill="#FAE2BA" stroke="#12192D" stroke-width="0.3" stroke-linecap="round" stroke-linejoin="round"/>
<path d="M147.99 259.132C147.864 259 147.711 258.896 147.542 258.827C147.373 258.758 147.191 258.725 147.008 258.731C146.826 258.737 146.646 258.781 146.482 258.861C146.318 258.941 146.172 259.055 146.055 259.195L141.967 264.087C140.18 266.216 137.915 267.892 135.356 268.978L131.037 270.816C130.785 270.924 130.573 271.108 130.432 271.342C130.29 271.577 130.226 271.85 130.248 272.123C130.264 272.322 130.325 272.516 130.428 272.687C130.531 272.859 130.672 273.005 130.841 273.113C131.009 273.221 131.2 273.289 131.399 273.311C131.598 273.333 131.8 273.309 131.988 273.241L134.93 272.179C138.261 270.978 141.218 268.922 143.504 266.218L148.039 260.858C148.245 260.615 148.354 260.304 148.345 259.986C148.336 259.667 148.21 259.363 147.99 259.132Z" fill="#FAE2BA" stroke="#12192D" stroke-width="0.3" stroke-linecap="round" stroke-linejoin="round"/>
<path d="M170.59 238.476C171.601 236.933 169.973 234.08 166.955 232.103C163.936 230.127 160.671 229.776 159.66 231.319C158.65 232.862 160.278 235.715 163.296 237.692C166.314 239.668 169.58 240.019 170.59 238.476Z" fill="#4CAACB" stroke="#12192D" stroke-width="0.3" stroke-linecap="round" stroke-linejoin="round"/>
<path d="M156.306 265.372C155.909 266.618 155.13 267.707 154.081 268.487C153.032 269.267 151.764 269.698 150.457 269.719C147.194 269.719 142.994 268.37 138.99 265.743C135.991 263.856 133.448 261.326 131.548 258.335C130.692 256.894 130.363 255.2 130.618 253.543C130.873 251.886 131.695 250.369 132.945 249.251L154.72 229.873C153.714 231.411 155.328 234.255 158.333 236.225C161.338 238.196 164.587 238.545 165.6 237.008L156.306 265.372Z" fill="#73F4FA" stroke="#12192D" stroke-width="0.3" stroke-linecap="round" stroke-linejoin="round"/>
<path d="M160.898 237.881C160.898 237.881 150.842 265.268 147.39 269.328" stroke="#12192D" stroke-width="0.3" stroke-linecap="round" stroke-linejoin="round"/>
<path d="M138.99 265.743C138.99 265.743 133.4 262.333 131.366 258.496C130.548 257.044 130.242 255.36 130.495 253.712C130.748 252.065 131.547 250.551 132.764 249.412L147.516 236.281C147.516 236.281 135.797 255.911 138.99 265.743Z" fill="#4CAACB" stroke="#12192D" stroke-width="0.3" stroke-linecap="round" stroke-linejoin="round"/>
<path d="M163.996 234.952C166.616 233.886 167.691 230.443 166.396 227.261C165.102 224.08 161.928 222.365 159.308 223.431C156.687 224.497 155.613 227.941 156.907 231.122C158.202 234.304 161.375 236.019 163.996 234.952Z" fill="#FAE2BA" stroke="#12192D" stroke-width="0.3" stroke-linecap="round" stroke-linejoin="round"/>
<path d="M163.481 231.378C164.113 231.121 164.373 230.289 164.06 229.52C163.747 228.752 162.981 228.337 162.348 228.595C161.715 228.852 161.456 229.684 161.769 230.453C162.081 231.221 162.848 231.636 163.481 231.378Z" fill="white" stroke="#12192D" stroke-width="0.3" stroke-linecap="round" stroke-linejoin="round"/>
<path d="M165.759 228.392C166.392 228.134 166.651 227.303 166.338 226.534C166.026 225.765 165.259 225.351 164.626 225.608C163.994 225.866 163.734 226.698 164.047 227.466C164.36 228.235 165.126 228.649 165.759 228.392Z" fill="white" stroke="#12192D" stroke-width="0.3" stroke-linecap="round" stroke-linejoin="round"/>
<path d="M164.385 227.993L163.763 229.014" stroke="#12192D" stroke-width="0.3" stroke-linecap="round" stroke-linejoin="round"/>
<path d="M157.564 237.854C157.464 237.597 157.31 237.364 157.113 237.171C156.916 236.978 156.68 236.829 156.421 236.734C156.162 236.639 155.886 236.6 155.611 236.619C155.336 236.639 155.068 236.717 154.825 236.847L148.536 240.202C145.564 241.651 142.333 242.497 139.032 242.689L135.755 242.759C135.458 242.762 135.171 242.859 134.934 243.036C134.696 243.214 134.521 243.461 134.434 243.744C134.365 243.952 134.346 244.172 134.377 244.389C134.409 244.605 134.491 244.81 134.617 244.989C134.743 245.168 134.909 245.315 135.101 245.418C135.294 245.521 135.508 245.577 135.727 245.582L139.116 245.701C142.957 245.841 146.767 244.968 150.164 243.171L156.886 239.608C157.197 239.452 157.439 239.186 157.564 238.862C157.69 238.537 157.69 238.178 157.564 237.854Z" fill="#FAE2BA" stroke="#12192D" stroke-width="0.3" stroke-linecap="round" stroke-linejoin="round"/>
<path d="M162.337 223.067C162.484 223.961 162.554 226.393 159.122 227.001C159.122 227.001 165.125 230.642 156.802 233.29C156.802 233.29 149.849 239.579 146.712 235.799C146.712 235.799 147.669 232.913 143.847 234.171C143.847 234.171 135.461 237.385 134.371 232.682C134.338 232.558 134.34 232.427 134.377 232.303C134.414 232.18 134.484 232.069 134.58 231.983C135.181 231.417 136.865 230.243 140.87 229.887C140.87 229.887 138.137 225.142 145.37 225.142C145.37 225.142 152.05 226.016 154.231 224.262C154.231 224.262 159.388 220.216 162.057 222.543C162.208 222.68 162.307 222.865 162.337 223.067Z" fill="#DF4059" stroke="#12192D" stroke-width="0.3" stroke-linecap="round" stroke-linejoin="round"/>
<path d="M157.662 241.166L161.666 242.668" stroke="#12192D" stroke-width="0.3" stroke-linecap="round" stroke-linejoin="round"/>
<path d="M156.321 244.869L160.325 246.372" stroke="#12192D" stroke-width="0.3" stroke-linecap="round" stroke-linejoin="round"/>
<path d="M253.133 287.103C252.87 287.008 252.591 286.97 252.313 286.991C252.035 287.011 251.764 287.09 251.519 287.222C251.273 287.354 251.058 287.536 250.887 287.756C250.716 287.976 250.593 288.23 250.526 288.5L248.304 298.011C247.333 302.158 245.393 306.016 242.644 309.269L237.997 314.761C237.726 315.081 237.563 315.478 237.531 315.895C237.498 316.313 237.598 316.73 237.815 317.088C237.975 317.35 238.193 317.571 238.451 317.734C238.71 317.898 239.003 318 239.308 318.032C239.613 318.065 239.921 318.027 240.208 317.921C240.496 317.816 240.755 317.645 240.966 317.424L244.265 313.93C247.996 309.989 250.623 305.135 251.882 299.856L254.384 289.374C254.484 288.908 254.412 288.422 254.182 288.005C253.952 287.587 253.58 287.267 253.133 287.103Z" fill="#FAE2BA" stroke="#12192D" stroke-width="0.3" stroke-linecap="round" stroke-linejoin="round"/>
<path d="M263.929 287.263C263.667 287.169 263.388 287.131 263.111 287.152C262.833 287.172 262.563 287.251 262.318 287.383C262.073 287.515 261.858 287.696 261.688 287.917C261.517 288.137 261.395 288.39 261.33 288.661L259.1 298.164C258.132 302.313 256.192 306.171 253.44 309.422L248.8 314.915C248.529 315.234 248.365 315.631 248.332 316.049C248.3 316.467 248.4 316.884 248.618 317.242C248.778 317.503 248.996 317.724 249.255 317.888C249.514 318.051 249.807 318.154 250.111 318.186C250.416 318.218 250.724 318.18 251.012 318.075C251.299 317.969 251.559 317.799 251.77 317.577L255.061 314.083C258.792 310.141 261.421 305.288 262.685 300.009L265.187 289.527C265.283 289.062 265.209 288.577 264.978 288.162C264.747 287.746 264.375 287.427 263.929 287.263Z" fill="#FAE2BA" stroke="#12192D" stroke-width="0.3" stroke-linecap="round" stroke-linejoin="round"/>
<path d="M257.738 251.289C262.57 251.289 266.487 249.283 266.487 246.81C266.487 244.336 262.57 242.33 257.738 242.33C252.906 242.33 248.989 244.336 248.989 246.81C248.989 249.283 252.906 251.289 257.738 251.289Z" fill="#41926C" stroke="#13192C" stroke-width="0.3" stroke-linecap="round" stroke-linejoin="round"/>
<path d="M238.528 285.607C238.052 287.302 238.122 289.104 238.728 290.757C239.334 292.41 240.445 293.831 241.903 294.817C245.565 297.242 251.295 298.801 257.738 298.801C263.112 298.801 267.982 297.717 271.574 295.956C273.605 294.963 275.226 293.295 276.161 291.237C277.095 289.179 277.285 286.86 276.696 284.678L266.487 246.816C266.487 249.283 262.574 251.289 257.738 251.289C252.902 251.289 248.989 249.283 248.989 246.816L238.528 285.607Z" fill="#93F8DA" stroke="#12192D" stroke-width="0.3" stroke-linecap="round" stroke-linejoin="round"/>
<path d="M257.738 298.8C268.786 298.8 277.745 294.216 277.745 288.563L269.757 258.934L268.681 269.416C267.81 277.886 265.144 286.074 260.862 293.434L257.738 298.8Z" fill="#52AE90" stroke="#12192D" stroke-width="0.3" stroke-linecap="round" stroke-linejoin="round"/>
<path d="M259.204 248.012C262.967 247.422 265.438 243.242 264.723 238.674C264.008 234.106 260.377 230.881 256.614 231.47C252.85 232.059 250.379 236.24 251.095 240.808C251.81 245.376 255.441 248.601 259.204 248.012Z" fill="#FAE2BA" stroke="#12192D" stroke-width="0.3" stroke-linecap="round" stroke-linejoin="round"/>
<path d="M264.719 252.554C264.977 252.308 265.284 252.12 265.62 252.002C265.956 251.885 266.313 251.839 266.667 251.87C267.022 251.9 267.366 252.005 267.677 252.179C267.988 252.352 268.259 252.589 268.471 252.875L273.971 260.226C276.663 263.55 279.988 266.305 283.754 268.332L287.556 270.205C287.898 270.375 288.179 270.647 288.358 270.984C288.537 271.322 288.606 271.707 288.555 272.085C288.514 272.361 288.41 272.624 288.251 272.853C288.092 273.082 287.882 273.271 287.639 273.406C287.395 273.541 287.123 273.619 286.844 273.632C286.566 273.645 286.288 273.594 286.032 273.483L282 271.778C277.429 269.839 273.447 266.735 270.449 262.777L264.523 254.929C264.262 254.577 264.139 254.142 264.175 253.705C264.211 253.268 264.404 252.859 264.719 252.554Z" fill="#FAE2BA" stroke="#12192D" stroke-width="0.3" stroke-linecap="round" stroke-linejoin="round"/>
<path d="M251.19 253.448C250.981 253.159 250.714 252.918 250.406 252.739C250.098 252.561 249.755 252.45 249.401 252.413C249.047 252.376 248.689 252.414 248.35 252.525C248.012 252.636 247.701 252.817 247.437 253.057L240.659 259.255C237.395 262.016 233.616 264.101 229.541 265.391L225.46 266.516C225.09 266.614 224.761 266.828 224.519 267.125C224.278 267.423 224.138 267.789 224.118 268.172C224.104 268.452 224.154 268.732 224.264 268.99C224.375 269.248 224.544 269.477 224.757 269.66C224.971 269.842 225.223 269.973 225.495 270.042C225.767 270.111 226.052 270.117 226.326 270.059L230.61 269.136C235.466 268.088 239.96 265.782 243.643 262.449L250.931 255.852C251.262 255.553 251.471 255.142 251.519 254.699C251.566 254.256 251.449 253.811 251.19 253.448Z" fill="#FAE2BA" stroke="#12192D" stroke-width="0.3" stroke-linecap="round" stroke-linejoin="round"/>
<path d="M251.728 234.993C251.728 234.993 253.126 230.8 258.674 231.198C258.674 231.198 264.782 230.919 265.711 237.865C265.711 237.865 266.634 244.902 262.839 244.993H257.654L257.004 243.881L255.607 244.993C255.607 244.993 253.664 245.922 252.811 243.511C252.811 243.511 250.421 243.232 250.456 241.415C250.484 241.38 249.688 236.844 251.728 234.993Z" fill="#4CAACB" stroke="#12192D" stroke-width="0.3" stroke-linecap="round" stroke-linejoin="round"/>
<path d="M303.078 223.574C307.489 213.549 306.4 203.369 300.646 200.837C294.891 198.305 286.65 204.379 282.239 214.405C277.828 224.43 278.916 234.61 284.671 237.142C290.425 239.674 298.666 233.599 303.078 223.574Z" fill="#74FAD9" stroke="#12192D" stroke-width="0.3" stroke-miterlimit="10"/>
<path d="M307.842 225.582C312.252 215.554 311.162 205.373 305.411 202.843L300.659 200.747C306.41 203.284 307.5 213.458 303.091 223.486C298.681 233.514 290.442 239.558 284.684 237.057L289.436 239.153C295.187 241.683 303.433 235.603 307.842 225.582Z" fill="#4CA885" stroke="#12192D" stroke-width="0.3" stroke-linecap="round" stroke-linejoin="round"/>
<path d="M301.239 222.899C305.147 214.019 304.42 205.106 299.616 202.992C294.811 200.878 287.749 206.363 283.841 215.244C279.934 224.125 280.661 233.038 285.465 235.152C290.269 237.266 297.331 231.78 301.239 222.899Z" fill="#69E3C0" stroke="#12192D" stroke-width="0.3" stroke-linecap="round" stroke-linejoin="round"/>
<path d="M301.329 222.808C305.236 213.926 304.509 205.017 299.701 202.906C299.072 202.632 298.396 202.48 297.71 202.459C297.967 202.526 298.219 202.61 298.464 202.711C303.265 204.807 303.992 213.738 300.086 222.62C296.689 230.306 290.917 235.485 286.305 235.317C291.071 236.596 297.619 231.243 301.329 222.808Z" fill="#4CA885" stroke="#12192D" stroke-width="0.3" stroke-linecap="round" stroke-linejoin="round"/>
<path d="M293.95 221.669L293.984 221.613L294.019 221.557C294.018 221.539 294.018 221.52 294.019 221.502C294.021 221.478 294.021 221.455 294.019 221.432L294.054 221.369C294.054 221.369 294.054 221.32 294.054 221.292C294.057 221.266 294.057 221.241 294.054 221.215V221.159C294.054 221.124 294.054 221.082 294.054 221.047C294.058 220.989 294.058 220.931 294.054 220.873C294.054 220.796 294.054 220.719 294.054 220.642C294.061 220.577 294.061 220.511 294.054 220.446C294.054 220.404 294.054 220.362 294.054 220.321C294.054 220.279 294.054 220.251 294.054 220.216C294.051 220.188 294.051 220.16 294.054 220.132C294.051 220.116 294.051 220.099 294.054 220.083V220.013V219.95V219.887V219.838V219.783V219.734V219.685L294.019 219.636L293.984 219.594L293.95 219.552L293.915 219.51H293.873L293.831 219.475H293.782H293.726H293.656H293.565H293.495L292.342 219.258C292.446 219.28 292.546 219.32 292.636 219.377C292.733 219.446 292.818 219.531 292.887 219.629C292.987 219.778 293.058 219.943 293.097 220.118C293.144 220.303 293.163 220.494 293.153 220.684C293.145 220.881 293.11 221.077 293.048 221.264C292.987 221.453 292.895 221.63 292.776 221.788C292.657 221.97 292.493 222.117 292.3 222.214C292.141 222.297 291.959 222.324 291.783 222.291L292.929 222.508C293.051 222.535 293.178 222.535 293.3 222.508H293.397H293.446H293.509H293.565H293.614L293.663 222.466L293.705 222.431L293.747 222.389L293.789 222.347C293.792 222.331 293.792 222.314 293.789 222.298L293.831 222.256L293.866 222.207L293.95 221.669Z" fill="#5DCA9D" stroke="#12192D" stroke-width="0.3" stroke-linecap="round" stroke-linejoin="round"/>
<path d="M291.336 219.426C291.798 218.783 292.489 218.727 292.888 219.279C293.08 219.617 293.17 220.002 293.149 220.39C293.128 220.778 292.996 221.152 292.769 221.466C292.308 222.109 291.623 222.165 291.225 221.592C291.032 221.259 290.94 220.877 290.96 220.493C290.98 220.108 291.11 219.738 291.336 219.426Z" fill="#74FAD9" stroke="#12192D" stroke-width="0.3" stroke-miterlimit="10"/>
<path d="M293.314 224.576C293.515 224.89 293.611 225.26 293.587 225.631C293.597 225.996 293.487 226.354 293.274 226.649C293.06 226.945 292.755 227.162 292.406 227.266L287.884 227.644C287.738 227.654 287.592 227.625 287.461 227.558C287.331 227.492 287.221 227.391 287.144 227.266C286.938 226.952 286.842 226.579 286.871 226.204L287.353 217.05L285.257 219.943C284.81 220.572 284.111 220.642 283.719 220.069C283.526 219.735 283.433 219.352 283.452 218.967C283.47 218.581 283.6 218.209 283.824 217.895L290.337 208.86C290.798 208.217 291.49 208.161 291.888 208.734C292.079 209.069 292.168 209.451 292.147 209.835C292.126 210.219 291.995 210.589 291.77 210.9L289.673 213.787L296.193 213.228C296.341 213.219 296.488 213.251 296.619 213.318C296.751 213.386 296.862 213.487 296.941 213.612C297.141 213.926 297.234 214.296 297.206 214.667L296.878 221.026C296.829 221.865 296.298 222.598 295.704 222.647C295.556 222.659 295.407 222.63 295.274 222.564C295.141 222.497 295.029 222.396 294.949 222.27C294.748 221.951 294.655 221.576 294.684 221.201L294.935 216.4L289.506 216.861L289.107 224.485L292.538 224.185C292.691 224.171 292.845 224.201 292.982 224.27C293.119 224.339 293.234 224.445 293.314 224.576Z" fill="#74FAD9" stroke="#12192D" stroke-width="0.3" stroke-miterlimit="10"/>
<path d="M285.264 219.943C285.151 220.106 285 220.238 284.824 220.327L284.789 220.362C284.756 220.365 284.723 220.365 284.691 220.362C284.585 220.406 284.469 220.423 284.355 220.411C284.355 220.411 284.299 220.411 284.271 220.411L285.418 220.628C285.542 220.656 285.671 220.656 285.795 220.628H285.893H285.942L286.005 220.593H286.053L286.109 220.551H286.151L286.2 220.509L286.242 220.474L286.277 220.432L286.319 220.383L286.354 220.341V220.292L287.186 219.132L287.29 217.19L285.264 219.943Z" fill="#5DCA9D" stroke="#12192D" stroke-width="0.3" stroke-linecap="round" stroke-linejoin="round"/>
<path d="M289.533 216.854L289.135 224.478L290.302 224.381L290.679 217.071L294.949 216.708L294.963 216.393L289.533 216.854Z" fill="#5DCA9D" stroke="#12192D" stroke-width="0.3" stroke-linecap="round" stroke-linejoin="round"/>
<path d="M291.581 208.455H291.637C291.737 208.526 291.824 208.614 291.896 208.713C291.995 208.859 292.066 209.023 292.105 209.195C292.135 209.328 292.146 209.465 292.14 209.601C292.144 209.654 292.144 209.708 292.14 209.761C292.133 209.959 292.097 210.154 292.035 210.342C292.022 210.375 292.005 210.408 291.986 210.439C291.935 210.591 291.862 210.735 291.77 210.866L289.673 213.752L291.071 213.633L292.909 211.082C292.91 211.066 292.91 211.05 292.909 211.033L292.944 210.984L292.979 210.929C292.989 210.909 293 210.89 293.014 210.873C293.015 210.849 293.015 210.826 293.014 210.803L293.049 210.74C293.047 210.717 293.047 210.693 293.049 210.67V210.586V210.537C293.049 210.495 293.049 210.46 293.049 210.425C293.049 210.39 293.049 210.307 293.084 210.251C293.09 210.172 293.09 210.092 293.084 210.013V209.789C293.084 209.748 293.084 209.706 293.084 209.664C293.084 209.622 293.084 209.594 293.084 209.566V209.475C293.087 209.457 293.087 209.438 293.084 209.419V209.349V209.286V209.23V209.175V209.119V209.07V209.028C293.087 209.012 293.087 208.995 293.084 208.979L293.049 208.93L293.014 208.888L292.972 208.853L292.93 208.811H292.888H292.839L292.783 208.769H292.713H292.622H292.545L291.392 208.56C291.441 208.572 291.488 208.591 291.532 208.615L291.581 208.455Z" fill="#5DCA9D" stroke="#12192D" stroke-width="0.3" stroke-linecap="round" stroke-linejoin="round"/>
<path d="M294.348 226.959L294.383 226.917C294.392 226.897 294.404 226.878 294.418 226.861C294.418 226.861 294.418 226.861 294.418 226.805C294.432 226.786 294.444 226.765 294.453 226.743L294.488 226.68C294.488 226.68 294.488 226.631 294.523 226.61C294.558 226.589 294.523 226.561 294.523 226.533C294.527 226.507 294.527 226.482 294.523 226.456C294.521 226.426 294.521 226.395 294.523 226.365V226.253L294.565 226.065V225.855V225.659C294.565 225.617 294.565 225.576 294.565 225.534C294.562 225.501 294.562 225.468 294.565 225.436V225.345C294.568 225.319 294.568 225.294 294.565 225.268C294.568 225.247 294.568 225.226 294.565 225.205V225.142V225.079V225.024V224.968C294.537 224.919 294.537 224.919 294.509 224.87V224.828V224.786L294.467 224.744H294.432L294.39 224.702H294.348H294.306H294.243H294.173H294.083C294.057 224.698 294.031 224.698 294.006 224.702L292.86 224.485L293.006 224.548L293.111 224.597C293.111 224.597 293.111 224.597 293.16 224.597C293.257 224.665 293.34 224.75 293.405 224.849C293.464 224.943 293.511 225.044 293.545 225.149C293.572 225.203 293.595 225.259 293.614 225.317C293.665 225.508 293.686 225.706 293.677 225.904C293.664 226.112 293.622 226.316 293.551 226.512C293.536 226.548 293.517 226.583 293.496 226.617C293.447 226.758 293.378 226.892 293.293 227.015C293.232 227.094 293.162 227.164 293.083 227.225C292.979 227.325 292.855 227.404 292.72 227.455C292.649 227.492 292.574 227.521 292.496 227.539L287.975 227.917C287.905 227.924 287.835 227.924 287.765 227.917L288.911 228.126C288.983 228.137 289.056 228.137 289.128 228.126L293.642 227.749H293.796H293.894H293.971L294.034 227.707H294.076H294.132L294.18 227.665L294.222 227.623L294.264 227.581L294.306 227.539L294.348 227.497L294.383 227.448L294.425 227.399L294.348 226.959Z" fill="#5DCA9D" stroke="#12192D" stroke-width="0.3" stroke-linecap="round" stroke-linejoin="round"/>
<path d="M296.703 213.346H296.759C296.855 213.414 296.938 213.499 297.003 213.598C297.089 213.726 297.153 213.868 297.192 214.017V214.059C297.243 214.25 297.262 214.449 297.248 214.646L296.92 221.005C296.906 221.21 296.866 221.412 296.801 221.606C296.777 221.644 296.756 221.684 296.738 221.725C296.608 222.014 296.415 222.269 296.172 222.473C296.047 222.562 295.899 222.616 295.746 222.626C295.676 222.637 295.605 222.637 295.536 222.626L296.682 222.843C296.752 222.85 296.822 222.85 296.892 222.843H297.052L297.15 222.808H297.22H297.283H297.318H297.367L297.416 222.766L297.465 222.724L297.507 222.682L297.548 222.64V222.598L297.59 222.55L297.625 222.501V222.459L297.66 222.403V222.347L297.695 222.284V222.221C297.711 222.2 297.723 222.176 297.73 222.151V222.081L297.765 221.998C297.768 221.97 297.768 221.942 297.765 221.914C297.768 221.876 297.768 221.839 297.765 221.802C297.783 221.742 297.797 221.682 297.807 221.62V221.397L298.135 215.044C298.142 214.982 298.142 214.918 298.135 214.856C298.139 214.816 298.139 214.776 298.135 214.737C298.139 214.704 298.139 214.672 298.135 214.639C298.139 214.609 298.139 214.578 298.135 214.548C298.132 214.525 298.132 214.502 298.135 214.478C298.139 214.458 298.139 214.436 298.135 214.416V214.353V214.29C298.133 214.271 298.133 214.252 298.135 214.234V214.178C298.133 214.162 298.133 214.145 298.135 214.129V214.08V214.038L298.101 213.996L298.066 213.954V213.912H298.024H297.982H297.947L297.884 213.877H297.821H297.73H297.653L296.507 213.668C296.556 213.679 296.604 213.698 296.647 213.724C296.63 213.66 296.626 213.594 296.636 213.529C296.646 213.464 296.668 213.402 296.703 213.346Z" fill="#5DCA9D" stroke="#12192D" stroke-width="0.3" stroke-linecap="round" stroke-linejoin="round"/>
<path d="M223.489 212.885C236.494 216.379 243.112 229.74 238.241 242.689C233.371 255.638 218.835 263.346 205.831 259.859C192.826 256.372 186.208 243.004 191.079 230.055C195.95 217.106 210.485 209.398 223.489 212.885Z" fill="#F5BC41" stroke="#12192D" stroke-width="0.3" stroke-linecap="round" stroke-linejoin="round"/>
<path d="M211.386 224.758C211.603 224.88 211.791 225.047 211.938 225.247L212.791 226.463C212.634 226.25 212.431 226.076 212.197 225.953C211.973 225.799 210.576 225.037 210.492 224.995L209.639 223.779C210.226 224.087 210.792 224.401 211.386 224.758Z" fill="#F09445" stroke="#12192D" stroke-width="0.3" stroke-linecap="round" stroke-linejoin="round"/>
<path d="M221.239 221.215L222.092 222.431L219.458 226.365L218.605 225.149L221.239 221.215Z" fill="#F09445" stroke="#12192D" stroke-width="0.3" stroke-linecap="round" stroke-linejoin="round"/>
<path d="M216.732 228.042L217.584 229.265L214.314 234.136L213.461 232.92L216.732 228.042Z" fill="#F09445" stroke="#12192D" stroke-width="0.3" stroke-linecap="round" stroke-linejoin="round"/>
<path d="M225.523 223.654L226.375 224.87L223.685 228.881L222.833 227.665L225.523 223.654Z" fill="#F09445" stroke="#12192D" stroke-width="0.3" stroke-linecap="round" stroke-linejoin="round"/>
<path d="M233.028 221.669L233.881 222.885C231.176 219.061 227.201 216.322 222.665 215.156C210.918 212.005 197.78 218.965 193.378 230.67C190.785 237.567 191.806 244.604 195.474 249.859L194.622 248.643C190.939 243.388 189.919 236.351 192.525 229.447C196.928 217.749 210.058 210.789 221.812 213.94C226.349 215.106 230.323 217.845 233.028 221.669Z" fill="#F09445" stroke="#12192D" stroke-width="0.3" stroke-linecap="round" stroke-linejoin="round"/>
<path d="M203.811 242.277L204.663 243.5C204.111 243.171 203.552 242.843 202.972 242.514L199.87 240.746L199.017 239.53L202.12 241.298L203.811 242.277Z" fill="#F09445" stroke="#12192D" stroke-width="0.3" stroke-linecap="round" stroke-linejoin="round"/>
<path d="M220.652 230.858L221.505 232.074C220.547 230.677 218.43 229.747 217.584 229.279L216.732 228.063C217.577 228.531 219.695 229.496 220.652 230.858Z" fill="#F09445" stroke="#12192D" stroke-width="0.3" stroke-linecap="round" stroke-linejoin="round"/>
<path d="M211.806 235.38L212.665 236.596L209.052 241.969L208.2 240.753L211.806 235.38Z" fill="#F09445" stroke="#12192D" stroke-width="0.3" stroke-linecap="round" stroke-linejoin="round"/>
<path d="M203.469 247.686L204.321 248.901L201.945 247.546L201.093 246.33L203.469 247.686Z" fill="#F09445" stroke="#12192D" stroke-width="0.3" stroke-linecap="round" stroke-linejoin="round"/>
<path d="M206.166 243.675L207.019 244.89L204.321 248.902L203.469 247.686L206.166 243.675Z" fill="#F09445" stroke="#12192D" stroke-width="0.3" stroke-linecap="round" stroke-linejoin="round"/>
<path d="M208.053 244.779L208.905 245.995C208.29 245.645 207.661 245.296 207.019 244.89L206.166 243.675C206.809 244.066 207.438 244.429 208.053 244.779Z" fill="#F09445" stroke="#12192D" stroke-width="0.3" stroke-linecap="round" stroke-linejoin="round"/>
<path d="M216.613 238.832L217.466 240.048C216.32 238.412 213.706 237.197 212.665 236.596L211.812 235.38C212.847 235.974 215.467 237.19 216.613 238.832Z" fill="#F09445" stroke="#12192D" stroke-width="0.3" stroke-linecap="round" stroke-linejoin="round"/>
<path d="M225.6 230.257L226.452 231.473C226.98 232.16 227.286 232.992 227.328 233.857C227.371 234.723 227.148 235.58 226.69 236.316C225.467 238.545 223.755 239.321 221.889 239.258L221.037 238.042C222.902 238.105 224.614 237.343 225.837 235.093C226.296 234.359 226.519 233.502 226.476 232.638C226.434 231.774 226.128 230.943 225.6 230.257Z" fill="#F09445" stroke="#12192D" stroke-width="0.3" stroke-linecap="round" stroke-linejoin="round"/>
<path d="M207.752 250.124L208.605 251.34L206.222 249.985L205.369 248.769L207.752 250.124Z" fill="#F09445" stroke="#12192D" stroke-width="0.3" stroke-linecap="round" stroke-linejoin="round"/>
<path d="M210.471 246.078L211.323 247.294L208.605 251.34L207.752 250.124L210.471 246.078Z" fill="#F09445" stroke="#12192D" stroke-width="0.3" stroke-linecap="round" stroke-linejoin="round"/>
<path d="M221.861 239L222.714 240.215C223.874 241.865 223.888 243.8 221.917 246.246C219.821 248.895 217.375 249.335 214.622 248.594C213.483 248.27 212.379 247.837 211.323 247.301L210.471 246.078C211.525 246.619 212.629 247.055 213.769 247.378C216.522 248.077 218.94 247.679 221.065 245.03C223.035 242.584 223.021 240.649 221.861 239Z" fill="#F09445" stroke="#12192D" stroke-width="0.3" stroke-linecap="round" stroke-linejoin="round"/>
<path d="M210.471 246.078C211.525 246.619 212.629 247.055 213.769 247.378C216.522 248.077 218.94 247.679 221.065 245.03C223.035 242.584 223.021 240.649 221.861 239" stroke="#12192D" stroke-width="0.3" stroke-linecap="round" stroke-linejoin="round"/>
<path d="M225.837 235.093C224.614 237.329 222.902 238.105 221.037 238.042C222.937 239.894 223.426 242.088 221.037 245.03C218.94 247.679 216.494 248.112 213.741 247.378C212.601 247.055 211.497 246.619 210.443 246.078L207.724 250.124L205.341 248.776L208.025 244.779C207.41 244.429 206.781 244.08 206.138 243.674L203.441 247.686L201.065 246.337L203.783 242.277L202.092 241.299L198.989 239.531L201.421 236.882C201.505 236.931 203.035 237.84 203.147 237.867C203.244 237.921 203.347 237.964 203.455 237.993C203.665 238.037 203.883 238.021 204.084 237.947C204.286 237.873 204.462 237.743 204.594 237.574L211.994 226.561C212.08 226.404 212.132 226.231 212.149 226.052C212.165 225.874 212.145 225.694 212.089 225.524C212.033 225.354 211.944 225.197 211.825 225.063C211.707 224.929 211.562 224.82 211.4 224.744C210.813 224.395 210.212 224.045 209.611 223.731L211.365 221.124L214.649 222.997C215.132 223.29 215.642 223.563 216.166 223.849L218.863 219.845L221.239 221.194L218.605 225.128C219.241 225.478 219.891 225.827 220.519 226.183L223.14 222.277L225.523 223.633L222.832 227.644C225.719 229.67 227.507 232.025 225.837 235.072V235.093ZM216.683 241.872C218.779 238.713 213.42 236.281 211.791 235.38L208.179 240.754C209.59 241.666 211.112 242.397 212.707 242.927C214.223 243.332 215.733 243.248 216.662 241.872H216.683ZM220.659 233.654C222.595 230.782 218.074 228.818 216.732 228.063L213.461 232.955C214.602 233.696 215.832 234.288 217.123 234.716C218.437 235.037 219.793 234.946 220.659 233.654Z" fill="#FAE08C" stroke="#12192D" stroke-width="0.3" stroke-linecap="round" stroke-linejoin="round"/>
<path d="M222.665 211.648C235.663 215.142 242.28 228.503 237.417 241.459C232.553 254.415 218.004 262.109 205.006 258.622C192.008 255.135 185.384 241.767 190.247 228.818C195.111 215.869 209.66 208.161 222.665 211.648ZM205.859 256.372C217.606 259.516 230.736 252.556 235.132 240.858C239.527 229.16 233.559 217.099 221.812 213.933C210.066 210.768 196.928 217.742 192.526 229.44C188.123 241.138 194.112 253.206 205.859 256.358V256.372Z" fill="#FAE08C" stroke="#12192D" stroke-width="0.3" stroke-linecap="round" stroke-linejoin="round"/>
<path d="M237.06 223.067L237.193 223.255C241.267 229.076 242.392 236.861 239.52 244.499C234.628 257.455 220.114 265.156 207.109 261.676C202.083 260.383 197.678 257.35 194.678 253.115L193.399 251.291L193.888 251.99C193.725 251.762 193.571 251.529 193.427 251.291L192.574 250.076C195.569 254.313 199.973 257.347 204.999 258.636C217.997 262.13 232.539 254.443 237.41 241.473C240.282 233.828 239.157 226.044 235.076 220.223L235.928 221.439C236.333 221.963 236.711 222.515 237.06 223.067Z" fill="#F09445" stroke="#12192D" stroke-width="0.3" stroke-linecap="round" stroke-linejoin="round"/>
<path d="M236.823 156.932C248.283 153.864 261.4 160.999 266.061 172.851C270.722 184.702 265.173 196.834 253.713 199.901C242.252 202.969 229.136 195.834 224.475 183.99C219.814 172.145 225.355 160.007 236.823 156.932Z" fill="#9BC3F5" stroke="#12192D" stroke-width="0.3" stroke-linejoin="round"/>
<path d="M262.133 191.823L260.994 193.067C265.467 188.175 266.885 180.782 264.013 173.5C259.82 162.795 247.941 156.345 237.598 159.119C234.477 159.939 231.657 161.636 229.471 164.011L230.61 162.767C232.799 160.393 235.622 158.696 238.744 157.875C249.101 155.08 260.945 161.551 265.152 172.25C268.052 179.545 266.613 186.967 262.133 191.823Z" fill="#789BCD" stroke="#12192D" stroke-width="0.3" stroke-linejoin="round"/>
<path d="M237.969 179.825L236.83 181.062L239.597 164.193L240.743 162.949L237.969 179.825Z" fill="#789BCD" stroke="#12192D" stroke-width="0.3" stroke-linejoin="round"/>
<path d="M240.743 162.949L254.985 175.262L248.521 182.739L237.969 179.825L240.743 162.949Z" fill="#B9DCFB" stroke="#12192D" stroke-width="0.3" stroke-linejoin="round"/>
<path d="M248.521 182.739L247.382 183.976L236.83 181.062L237.969 179.825L248.521 182.739Z" fill="#789BCD" stroke="#12192D" stroke-width="0.3" stroke-linejoin="round"/>
<path d="M252.001 191.599L250.862 192.836L237.479 182.732L238.626 181.488L252.001 191.599Z" fill="#789BCD" stroke="#12192D" stroke-width="0.3" stroke-linejoin="round"/>
<path d="M237.927 155.793C226.466 158.86 220.925 170.999 225.586 182.85C230.247 194.702 243.357 201.83 254.817 198.762C266.277 195.694 271.819 183.556 267.165 171.705C262.511 159.853 249.394 152.718 237.927 155.793ZM227.592 182.347C223.399 171.642 228.388 160.684 238.772 157.889C249.157 155.094 260.973 161.565 265.18 172.264C269.387 182.962 264.384 193.927 253.999 196.722C243.65 199.461 231.798 193.018 227.592 182.312V182.347Z" fill="#B9DCFB" stroke="#12192D" stroke-width="0.3" stroke-linejoin="round"/>
<path d="M255.649 176.925L252.001 191.6L238.626 181.488L249.171 184.402L255.649 176.925Z" fill="#B9DCFB" stroke="#12192D" stroke-width="0.3" stroke-linejoin="round"/>
<path d="M263.859 193.381C262.804 194.528 261.763 195.66 260.666 196.778C258.292 199.187 255.309 200.909 252.036 201.76C240.568 204.835 227.452 197.693 222.798 185.848C219.681 177.917 221.135 169.853 225.879 164.465C226.848 163.314 227.876 162.215 228.961 161.174C224.007 166.554 222.441 174.765 225.621 182.837C230.275 194.716 243.391 201.816 254.852 198.748C258.304 197.853 261.429 195.992 263.859 193.381Z" fill="#789BCD" stroke="#12192D" stroke-width="0.3" stroke-linejoin="round"/>
<path d="M347.339 178.064C347.403 177.74 347.536 177.435 347.727 177.166C347.919 176.898 348.165 176.673 348.449 176.507C348.734 176.341 349.05 176.236 349.378 176.201C349.706 176.166 350.037 176.2 350.351 176.303L361.301 179.86C366.076 181.411 371.15 181.808 376.108 181.02L384.494 179.685C384.981 179.606 385.481 179.684 385.921 179.906C386.362 180.128 386.721 180.483 386.947 180.922C387.114 181.242 387.205 181.597 387.213 181.959C387.221 182.32 387.145 182.678 386.992 183.006C386.838 183.333 386.611 183.621 386.328 183.846C386.045 184.071 385.714 184.228 385.361 184.304L379.84 185.506C373.581 186.867 367.073 186.556 360.972 184.604L348.904 180.747C348.358 180.571 347.897 180.2 347.608 179.705C347.319 179.21 347.223 178.625 347.339 178.064Z" fill="#F5D087" stroke="#12192D" stroke-width="0.3" stroke-linecap="round" stroke-linejoin="round"/>
<path d="M387.115 220.062C387.18 219.738 387.314 219.432 387.506 219.164C387.698 218.895 387.944 218.67 388.229 218.503C388.514 218.336 388.831 218.232 389.159 218.195C389.487 218.159 389.819 218.193 390.133 218.294L401.084 221.851C405.858 223.402 410.933 223.8 415.891 223.011L424.277 221.683C424.765 221.604 425.266 221.681 425.707 221.903C426.149 222.125 426.509 222.481 426.737 222.92C426.903 223.241 426.993 223.595 427 223.956C427.007 224.317 426.931 224.675 426.777 225.002C426.624 225.329 426.397 225.616 426.115 225.842C425.833 226.067 425.503 226.225 425.15 226.302L419.63 227.497C413.371 228.861 406.864 228.552 400.762 226.603L388.694 222.745C388.147 222.571 387.683 222.2 387.391 221.705C387.1 221.21 387.001 220.625 387.115 220.062Z" fill="#F5D087" stroke="#12192D" stroke-width="0.3" stroke-linecap="round" stroke-linejoin="round"/>
<path d="M380.686 231.054C380.751 230.731 380.884 230.425 381.077 230.156C381.269 229.888 381.515 229.663 381.8 229.497C382.085 229.331 382.402 229.227 382.731 229.191C383.059 229.156 383.391 229.191 383.704 229.293L394.655 232.85C399.43 234.4 404.505 234.795 409.462 234.003L417.848 232.675C418.336 232.596 418.837 232.673 419.278 232.895C419.72 233.117 420.08 233.473 420.308 233.912C420.475 234.233 420.566 234.587 420.574 234.949C420.582 235.31 420.506 235.669 420.352 235.996C420.199 236.323 419.972 236.611 419.689 236.836C419.406 237.061 419.075 237.218 418.722 237.294L413.201 238.496C406.942 239.858 400.434 239.547 394.333 237.595L382.265 233.737C381.718 233.563 381.254 233.193 380.962 232.698C380.671 232.203 380.572 231.617 380.686 231.054Z" fill="#F5D087" stroke="#12192D" stroke-width="0.3" stroke-linecap="round" stroke-linejoin="round"/>
<path d="M349.031 186.328C353.742 181.868 355.712 176.298 353.43 173.888C351.148 171.477 345.479 173.139 340.768 177.599C336.056 182.059 334.087 187.629 336.368 190.039C338.65 192.449 344.319 190.788 349.031 186.328Z" fill="#459A76" stroke="#12192D" stroke-width="0.3" stroke-linecap="round" stroke-linejoin="round"/>
<path d="M362.014 237.448C363.119 239.535 364.851 241.224 366.965 242.275C369.08 243.327 371.471 243.689 373.803 243.311C379.603 242.298 386.633 238.524 392.915 232.577C398.149 227.623 401.902 222.095 403.781 217.036C404.841 214.195 404.881 211.073 403.893 208.206C402.905 205.339 400.951 202.905 398.366 201.32L353.467 173.829C355.746 176.24 353.782 181.809 349.072 186.268C344.362 190.726 338.695 192.389 336.41 189.978L362.014 237.448Z" fill="#93F8DA" stroke="#12192D" stroke-width="0.3" stroke-linecap="round" stroke-linejoin="round"/>
<path d="M345.075 190.048C345.075 190.048 371.692 235.526 379.148 241.697" stroke="#12192D" stroke-width="0.3" stroke-linecap="round" stroke-linejoin="round"/>
<path d="M392.915 232.578C392.915 232.578 401.81 224.73 404.144 217.26C406.01 211.285 404.068 204.807 398.729 201.544L368.317 182.921C368.317 182.921 395.458 214.087 392.915 232.578Z" fill="#65C6A0" stroke="#12192D" stroke-width="0.3" stroke-linecap="round" stroke-linejoin="round"/>
<path d="M349.982 176.716C351.267 170.645 348.256 164.865 343.257 163.807C338.258 162.749 333.164 166.813 331.879 172.885C330.594 178.956 333.605 184.736 338.604 185.794C343.603 186.852 348.697 182.788 349.982 176.716Z" fill="#FAE2BA" stroke="#12192D" stroke-width="0.3" stroke-linecap="round" stroke-linejoin="round"/>
<path d="M351.336 170.3C351.811 176.254 348.345 180.985 348.345 180.985C347.884 179.294 348.345 175.855 347.59 175.709C340.197 174.269 339.135 167.197 339.135 167.197C334.18 169.65 332.79 163.536 332.79 163.536C332.79 163.536 335.92 165.052 338.38 164.395C338.38 164.395 335.075 163.766 335.466 161.558C335.466 161.558 338.534 163.067 341.057 162.257C341.609 162.131 342.176 162.087 342.741 162.124C344.903 162.268 346.947 163.164 348.517 164.658C350.087 166.151 351.084 168.148 351.336 170.3Z" fill="#F3BE58" stroke="#12192D" stroke-width="0.3" stroke-linecap="round" stroke-linejoin="round"/>
<path d="M341.13 177.078C341.441 175.609 340.714 174.211 339.505 173.956C338.297 173.7 337.066 174.683 336.755 176.152C336.444 177.621 337.171 179.019 338.38 179.275C339.588 179.53 340.819 178.547 341.13 177.078Z" fill="#93F8DA" stroke="#12192D" stroke-width="0.3" stroke-linecap="round" stroke-linejoin="round"/>
<path d="M336.133 172.507C336.444 171.038 335.717 169.64 334.509 169.385C333.3 169.129 332.069 170.112 331.758 171.581C331.447 173.05 332.175 174.448 333.383 174.704C334.591 174.959 335.823 173.976 336.133 172.507Z" fill="#93F8DA" stroke="#12192D" stroke-width="0.3" stroke-linecap="round" stroke-linejoin="round"/>
<path d="M335.718 173.598L337.15 175.205" stroke="#12192D" stroke-width="0.3" stroke-linecap="round" stroke-linejoin="round"/>
<path d="M350.986 188.937C351.079 188.447 351.276 187.983 351.563 187.575C351.851 187.167 352.222 186.826 352.652 186.574C353.082 186.321 353.562 186.164 354.058 186.113C354.554 186.061 355.055 186.116 355.528 186.275L367.737 190.237C373.484 191.869 379.498 192.344 385.43 191.635L391.279 190.705C391.808 190.623 392.348 190.709 392.825 190.949C393.303 191.19 393.693 191.574 393.942 192.047C394.122 192.395 394.221 192.78 394.229 193.172C394.237 193.564 394.155 193.953 393.988 194.308C393.822 194.664 393.577 194.976 393.27 195.221C392.964 195.467 392.606 195.638 392.223 195.723L386.234 197.022C379.452 198.491 372.404 198.153 365.794 196.044L352.698 191.851C352.106 191.659 351.604 191.257 351.288 190.72C350.973 190.182 350.865 189.548 350.986 188.937Z" fill="#F5D087" stroke="#12192D" stroke-width="0.3" stroke-linecap="round" stroke-linejoin="round"/>
<path d="M290.421 179.629C292.397 179.629 293.999 178.027 293.999 176.051C293.999 174.075 292.397 172.473 290.421 172.473C288.445 172.473 286.843 174.075 286.843 176.051C286.843 178.027 288.445 179.629 290.421 179.629Z" fill="#FFE48F" stroke="#12192D" stroke-width="0.3" stroke-linejoin="round"/>
<path d="M289.526 177.449C288.781 177.694 287.988 177.756 287.213 177.63C287.605 178.458 288.298 179.103 289.152 179.433C290.005 179.764 290.953 179.754 291.799 179.406C292.645 179.059 293.326 178.399 293.7 177.564C294.074 176.729 294.114 175.782 293.81 174.919C293.618 174.335 293.276 173.812 292.818 173.403C292.707 174.319 292.339 175.185 291.756 175.901C291.174 176.617 290.401 177.154 289.526 177.449Z" fill="#FFC13C" stroke="#12192D" stroke-width="0.3" stroke-linejoin="round"/>
<path d="M270.882 239.356C272.198 239.356 273.265 238.289 273.265 236.973C273.265 235.657 272.198 234.59 270.882 234.59C269.566 234.59 268.5 235.657 268.5 236.973C268.5 238.289 269.566 239.356 270.882 239.356Z" fill="#FF78A2" stroke="#12192D" stroke-width="0.3" stroke-miterlimit="10"/>
<path d="M270.289 237.909C269.791 238.073 269.261 238.114 268.744 238.028C269.008 238.575 269.47 239.001 270.037 239.219C270.604 239.437 271.233 239.43 271.795 239.2C272.357 238.97 272.81 238.534 273.061 237.981C273.312 237.428 273.343 236.8 273.147 236.225C273.005 235.833 272.764 235.484 272.448 235.212C272.378 235.819 272.139 236.394 271.757 236.871C271.375 237.349 270.866 237.708 270.289 237.909Z" fill="#FA2D5A" stroke="#12192D" stroke-width="0.3" stroke-linecap="round" stroke-linejoin="round"/>
<path d="M165.615 262.354C166.275 262.354 166.81 261.819 166.81 261.159C166.81 260.499 166.275 259.964 165.615 259.964C164.955 259.964 164.42 260.499 164.42 261.159C164.42 261.819 164.955 262.354 165.615 262.354Z" fill="#FF78A2" stroke="#12192D" stroke-width="0.3" stroke-miterlimit="10"/>
<path d="M165.328 261.627C165.08 261.706 164.817 261.728 164.559 261.69C164.708 261.927 164.936 262.104 165.202 262.189C165.469 262.275 165.757 262.264 166.016 262.158C166.275 262.052 166.488 261.857 166.618 261.609C166.748 261.361 166.786 261.076 166.726 260.802C166.663 260.608 166.55 260.434 166.397 260.299C166.359 260.598 166.239 260.88 166.05 261.114C165.862 261.349 165.612 261.526 165.328 261.627Z" fill="#FA2D5A" stroke="#12192D" stroke-width="0.3" stroke-linecap="round" stroke-linejoin="round"/>
<path d="M202.595 201.564C203.911 201.564 204.978 200.497 204.978 199.181C204.978 197.865 203.911 196.799 202.595 196.799C201.279 196.799 200.212 197.865 200.212 199.181C200.212 200.497 201.279 201.564 202.595 201.564Z" fill="#F5BC41" stroke="#12192D" stroke-width="0.3" stroke-linecap="round" stroke-linejoin="round"/>
<path d="M202.001 200.118C201.503 200.28 200.974 200.323 200.457 200.244C200.726 200.783 201.189 201.2 201.753 201.412C202.316 201.623 202.94 201.613 203.497 201.384C204.054 201.155 204.503 200.723 204.755 200.176C205.006 199.628 205.041 199.006 204.852 198.434C204.726 198.045 204.499 197.695 204.195 197.421C204.123 198.032 203.878 198.61 203.489 199.088C203.101 199.565 202.585 199.922 202.001 200.118Z" fill="#FFE48F" stroke="#12192D" stroke-width="0.3" stroke-linejoin="round"/>
<path d="M364.724 263.521C368.513 289.406 318.939 306.952 260.864 306.952C202.788 306.952 149.368 289.406 154.428 263.521L212.927 96.2905H279.87L364.724 263.521Z" fill="url(#paint0_linear_1452_26112)"/>
<path d="M227.207 134.738C229.183 134.738 230.785 133.136 230.785 131.16C230.785 129.184 229.183 127.582 227.207 127.582C225.231 127.582 223.629 129.184 223.629 131.16C223.629 133.136 225.231 134.738 227.207 134.738Z" fill="#FFE48F" stroke="#12192D" stroke-width="0.3" stroke-linejoin="round"/>
<path d="M226.313 132.558C225.567 132.803 224.774 132.865 224 132.739C224.221 133.227 224.549 133.658 224.959 134.002C225.37 134.345 225.852 134.593 226.37 134.725C226.889 134.858 227.431 134.872 227.956 134.768C228.481 134.663 228.975 134.442 229.404 134.121C229.832 133.8 230.182 133.387 230.43 132.912C230.677 132.438 230.815 131.914 230.833 131.379C230.851 130.844 230.748 130.312 230.533 129.821C230.318 129.331 229.996 128.896 229.59 128.547C229.474 129.455 229.105 130.312 228.526 131.021C227.946 131.731 227.18 132.263 226.313 132.558Z" fill="#FFC13C" stroke="#12192D" stroke-width="0.3" stroke-linejoin="round"/>
<path d="M401.817 84.6336L398.323 76.8349C406.01 101.482 339.84 144.025 250.54 171.872C164.797 198.609 88.9416 202.019 76.1814 180.44L78.4176 185.394C86.1044 210.048 164.727 207.469 254.027 179.636C343.327 151.803 409.497 109.28 401.817 84.6336Z" fill="#029E73" stroke="#12192D" stroke-width="0.3" stroke-linecap="round" stroke-linejoin="round"/>
<path d="M398.03 76.835C390.343 52.1811 311.728 53.0057 222.42 80.8391C133.113 108.673 66.9154 152.97 74.6023 177.645C82.2891 202.319 160.905 199.713 250.205 171.879C339.505 144.046 405.675 101.475 398.03 76.835ZM239.702 130.922C218.738 137.463 200.177 137.911 198.298 131.866C196.418 125.821 211.91 115.234 232.902 108.686C253.895 102.139 272.441 102.153 274.314 108.176C276.186 114.2 260.659 124.382 239.667 130.922H239.702Z" fill="#46E6C3" stroke="#12192D" stroke-width="0.3" stroke-linejoin="round"/>
<path d="M375.34 82.8935C375.814 84.4779 375.963 86.1416 375.78 87.7851C375.595 89.4249 375.176 91.0298 374.536 92.551C373.214 95.5809 371.463 98.405 369.337 100.937C365.144 106.045 360.148 110.412 354.949 114.458C344.467 122.488 333.041 129.175 321.35 135.269C309.659 141.362 297.591 146.722 285.334 151.621C273.077 156.52 260.631 160.887 248.039 164.828C235.446 168.77 222.714 172.229 209.856 175.171C196.998 178.113 184 180.537 170.918 182.201C164.371 183.032 157.802 183.668 151.212 184.038C144.62 184.433 138.011 184.468 131.415 184.143C124.832 183.766 118.215 182.997 111.848 181.103C108.643 180.206 105.591 178.828 102.799 177.015C101.408 176.083 100.16 174.953 99.0953 173.661C98.0218 172.356 97.2402 170.836 96.8032 169.203C96.3817 167.567 96.289 165.864 96.5307 164.192C96.7863 162.538 97.2561 160.924 97.9283 159.392C99.2919 156.357 101.062 153.522 103.19 150.964C107.451 145.902 112.252 141.321 117.509 137.302C127.914 129.154 139.284 122.334 150.926 116.143C162.608 110.007 174.594 104.467 186.837 99.546C199.066 94.6031 211.489 90.1774 224.104 86.2687C236.683 82.3624 249.45 78.9243 262.329 76.0662C275.202 73.1762 288.214 70.9487 301.315 69.3926C314.418 67.9111 327.639 67.1005 340.812 67.995C347.405 68.3545 353.936 69.4587 360.281 71.2864C363.448 72.2153 366.467 73.5918 369.246 75.3744C371.965 77.1633 374.347 79.714 375.34 82.8935ZM375.34 82.8935C374.341 79.714 371.958 77.1703 369.225 75.3674C366.443 73.5907 363.422 72.219 360.253 71.2934C353.908 69.4799 347.38 68.3875 340.791 68.0369C327.625 67.1844 314.411 68.0369 301.315 69.5114C288.223 71.0886 275.219 73.3371 262.357 76.2479C249.492 79.127 236.76 82.586 224.174 86.5133C211.589 90.4406 199.164 94.899 186.949 99.8465C174.723 104.781 162.755 110.334 151.093 116.485C139.472 122.683 128.138 129.511 117.774 137.652C112.556 141.662 107.788 146.226 103.554 151.265C101.46 153.789 99.7208 156.587 98.3825 159.58C97.7382 161.075 97.2896 162.646 97.0478 164.255C96.8157 165.858 96.9084 167.49 97.3203 169.056C97.7335 170.622 98.4795 172.081 99.5076 173.333C100.539 174.588 101.749 175.685 103.099 176.589C105.847 178.376 108.848 179.738 112.002 180.628C118.291 182.508 124.881 183.291 131.443 183.675C138.02 184.012 144.61 183.988 151.184 183.605C157.767 183.242 164.329 182.62 170.87 181.802C183.944 180.16 196.921 177.756 209.779 174.814C222.637 171.872 235.369 168.434 247.962 164.535C260.554 160.636 273.007 156.268 285.264 151.39C297.521 146.513 309.568 141.153 321.294 135.108C333.02 129.064 344.425 122.369 354.907 114.361C360.113 110.336 365.123 105.975 369.309 100.874C371.439 98.3421 373.194 95.5182 374.522 92.4881C375.163 90.9693 375.584 89.3669 375.773 87.7292C375.951 86.1045 375.804 84.4607 375.34 82.8935Z" fill="white"/>
<path d="M355.039 85.5908C355.77 88.3396 355.523 91.2568 354.341 93.8437C353.21 96.4299 351.714 98.8399 349.896 100.999C346.245 105.296 342.122 109.169 337.604 112.544C328.66 119.406 318.89 125.122 308.904 130.321C288.863 140.643 267.773 148.819 246.277 155.555C224.782 162.292 202.763 167.498 180.401 170.384C169.22 171.781 157.935 172.62 146.663 172.033C141.016 171.818 135.414 170.948 129.968 169.44C127.244 168.67 124.653 167.492 122.282 165.946C121.095 165.153 120.031 164.19 119.123 163.088C118.209 161.979 117.546 160.684 117.18 159.294C116.815 157.906 116.735 156.458 116.943 155.038C117.153 153.627 117.548 152.251 118.117 150.943C119.276 148.356 120.783 145.939 122.596 143.759C126.236 139.439 130.334 135.526 134.818 132.089C143.707 125.101 153.413 119.308 163.357 114.018C183.308 103.536 204.363 95.2204 225.865 88.4909C247.368 81.7614 269.422 76.695 291.812 74.0605C302.992 72.7957 314.299 72.0969 325.55 72.8446C331.179 73.1505 336.755 74.0881 342.174 75.6399C344.89 76.4312 347.479 77.6079 349.861 79.1339C352.271 80.6354 354.097 82.9127 355.039 85.5908ZM355.039 85.5908C354.077 82.9168 352.234 80.6496 349.812 79.1618C347.43 77.6353 344.842 76.4586 342.125 75.6677C336.707 74.1123 331.13 73.1746 325.501 72.8725C314.257 72.1737 302.964 72.8726 291.784 74.1234C269.422 76.7859 247.375 81.9431 225.872 88.6376C204.37 95.3322 183.357 103.697 163.441 114.228C153.511 119.525 143.826 125.36 134.972 132.306C130.507 135.733 126.43 139.636 122.813 143.948C121.021 146.105 119.53 148.496 118.382 151.055C117.831 152.334 117.448 153.681 117.243 155.059C117.043 156.435 117.121 157.837 117.474 159.182C118.173 161.893 120.136 164.074 122.428 165.646C124.779 167.174 127.347 168.338 130.045 169.098C135.466 170.601 141.042 171.476 146.663 171.705C157.907 172.305 169.185 171.467 180.352 170.097C202.714 167.246 224.698 162.005 246.215 155.359C267.731 148.714 288.842 140.51 308.848 130.202C318.841 125.01 328.611 119.315 337.569 112.467C342.089 109.1 346.214 105.234 349.868 100.944C351.683 98.7857 353.181 96.3811 354.32 93.8018C355.498 91.2295 355.753 88.329 355.039 85.5908Z" fill="white"/>
<path d="M326.752 93.3686C327.312 95.4623 327.126 97.6856 326.228 99.6578C325.363 101.629 324.222 103.467 322.838 105.115C320.057 108.39 316.916 111.341 313.474 113.913C306.581 119.053 299.256 123.586 291.581 127.463C276.243 135.231 260.265 141.665 243.825 146.694C227.437 151.895 210.631 155.673 193.594 157.987C185.073 159.158 176.466 159.576 167.871 159.238C163.57 159.074 159.302 158.41 155.153 157.26C153.072 156.681 151.092 155.785 149.283 154.605C147.421 153.452 146.044 151.657 145.412 149.559C144.927 147.428 145.173 145.196 146.111 143.221C146.99 141.251 148.138 139.412 149.521 137.757C152.292 134.462 155.413 131.48 158.829 128.861C165.664 123.638 172.943 119.025 180.583 115.073C211.234 99.3456 244.372 89.031 278.534 84.5846C287.064 83.5104 295.672 83.1994 304.257 83.6552C308.552 83.8897 312.806 84.607 316.94 85.7936C319.003 86.4022 320.97 87.2985 322.782 88.456C324.627 89.5927 326.028 91.3262 326.752 93.3686ZM326.752 93.3686C326.02 91.3337 324.618 89.6085 322.775 88.4769C320.961 87.3201 318.992 86.426 316.926 85.8214C312.795 84.6424 308.542 83.9391 304.25 83.725C295.667 83.2703 287.061 83.586 278.534 84.6684C244.409 89.1346 211.312 99.461 180.702 115.192C173.072 119.143 165.805 123.757 158.983 128.98C155.577 131.593 152.466 134.569 149.703 137.854C148.334 139.505 147.196 141.334 146.32 143.291C145.397 145.23 145.151 147.422 145.622 149.518C146.243 151.573 147.592 153.331 149.416 154.465C151.214 155.635 153.179 156.526 155.244 157.107C159.379 158.256 163.632 158.922 167.92 159.091C176.505 159.433 185.103 159.022 193.615 157.861C210.651 155.56 227.456 151.796 243.845 146.61C260.286 141.592 276.266 135.172 291.609 127.421C299.275 123.555 306.591 119.031 313.474 113.899C316.918 111.328 320.064 108.379 322.852 105.108C324.236 103.462 325.377 101.627 326.242 99.6578C327.139 97.6847 327.319 95.4604 326.752 93.3686Z" fill="white"/>
<path d="M298.674 100.217C299.045 101.665 298.909 103.196 298.289 104.556C297.702 105.919 296.918 107.188 295.962 108.323C294.037 110.581 291.867 112.617 289.492 114.396C284.738 117.946 279.683 121.072 274.383 123.739C253.13 134.371 230.292 141.484 206.76 144.801C200.883 145.609 194.946 145.899 189.017 145.667C186.048 145.535 183.104 145.066 180.24 144.269C178.808 143.869 177.446 143.252 176.201 142.439C174.914 141.641 173.967 140.397 173.539 138.945C173.221 137.478 173.396 135.948 174.035 134.591C174.641 133.233 175.429 131.964 176.376 130.817C178.292 128.549 180.445 126.492 182.798 124.682C187.512 121.076 192.535 117.893 197.808 115.171C208.329 109.708 219.322 105.206 230.652 101.719C241.962 98.1348 253.575 95.5922 265.348 94.1232C271.233 93.3727 277.173 93.1552 283.097 93.4734C286.062 93.6382 288.999 94.1327 291.853 94.9478C293.276 95.3652 294.631 95.9841 295.879 96.7857C297.172 97.5799 298.157 98.7895 298.674 100.217ZM298.674 100.217C298.159 98.8138 297.186 97.625 295.914 96.8416C294.666 96.0337 293.308 95.4122 291.881 94.9967C289.028 94.1867 286.094 93.6945 283.132 93.5292C277.21 93.2132 271.272 93.433 265.39 94.1861C253.616 95.6614 242.003 98.2111 230.694 101.803C219.362 105.292 208.37 109.799 197.85 115.269C192.584 117.993 187.566 121.173 182.854 124.773C180.507 126.586 178.359 128.642 176.446 130.908C175.507 132.05 174.725 133.312 174.119 134.661C173.483 136.004 173.311 137.521 173.63 138.973C174.053 140.401 174.988 141.623 176.257 142.404C177.498 143.213 178.856 143.828 180.282 144.228C183.138 145.025 186.076 145.493 189.038 145.625C194.964 145.863 200.899 145.576 206.774 144.766C230.303 141.463 253.14 134.367 274.397 123.753C279.698 121.087 284.756 117.963 289.512 114.417C291.883 112.635 294.053 110.601 295.983 108.351C296.939 107.216 297.723 105.947 298.31 104.584C298.93 103.213 299.058 101.671 298.674 100.217Z" fill="white"/>
<path d="M235.006 115.073C251.931 109.798 267.269 108.784 273.622 111.705C273.993 111.161 274.246 110.546 274.367 109.899C274.487 109.252 274.471 108.587 274.32 107.946C272.434 101.901 253.824 101.894 232.756 108.463C211.687 115.032 196.138 125.681 198.025 131.726C198.395 132.914 199.423 133.822 200.967 134.521C204.37 128.47 217.857 120.419 235.006 115.073Z" fill="#004B41" stroke="#12192D" stroke-width="0.3" stroke-linecap="round" stroke-linejoin="round"/>
<path d="M286.843 64.9622C346.241 36.1574 391.3 23.0339 397.708 33.9142C406.45 48.7918 340.015 104.046 249.317 157.323C158.619 210.6 78.0193 238.224 69.2773 223.346C66.1606 218.035 72.6036 207.875 86.3001 194.583" stroke="#11192F" stroke-width="0.3" stroke-linecap="round" stroke-linejoin="round"/>
<path d="M334.544 111.803C339.812 111.803 344.082 107.532 344.082 102.264C344.082 96.9962 339.812 92.7256 334.544 92.7256C329.275 92.7256 325.005 96.9962 325.005 102.264C325.005 107.532 329.275 111.803 334.544 111.803Z" fill="#FFE48F" stroke="#12192D" stroke-width="0.3" stroke-linejoin="round"/>
<path d="M332.16 105.982C330.172 106.646 328.052 106.817 325.983 106.478C326.605 107.735 327.497 108.84 328.595 109.713C329.693 110.586 330.97 111.206 332.335 111.529C333.701 111.852 335.12 111.87 336.493 111.582C337.866 111.293 339.158 110.706 340.278 109.86C341.398 109.015 342.317 107.934 342.971 106.692C343.625 105.451 343.997 104.081 344.061 102.679C344.124 101.278 343.878 99.8798 343.339 98.5844C342.8 97.2891 341.983 96.1285 340.944 95.1854C340.656 97.6334 339.678 99.9489 338.122 101.861C336.566 103.773 334.498 105.202 332.16 105.982Z" fill="#FFC13C" stroke="#12192D" stroke-width="0.3" stroke-linejoin="round"/>
<path d="M115.28 225.799C117.912 225.799 120.046 223.665 120.046 221.033C120.046 218.401 117.912 216.267 115.28 216.267C112.648 216.267 110.514 218.401 110.514 221.033C110.514 223.665 112.648 225.799 115.28 225.799Z" fill="#6EFFDA" stroke="#12192D" stroke-width="0.3" stroke-linecap="round" stroke-linejoin="round"/>
<path d="M114.091 222.899C113.097 223.231 112.037 223.315 111.003 223.143C111.543 224.217 112.469 225.047 113.596 225.468C114.722 225.889 115.965 225.869 117.077 225.413C118.19 224.956 119.089 224.097 119.595 223.006C120.101 221.916 120.177 220.675 119.808 219.531C119.549 218.751 119.092 218.052 118.48 217.504C118.335 218.727 117.846 219.883 117.069 220.839C116.292 221.794 115.259 222.508 114.091 222.899Z" fill="#14B491" stroke="#12192D" stroke-width="0.3" stroke-linecap="round" stroke-linejoin="round"/>
<path d="M360.875 39.0993C362.851 39.0993 364.452 37.4974 364.452 35.5214C364.452 33.5454 362.851 31.9435 360.875 31.9435C358.898 31.9435 357.297 33.5454 357.297 35.5214C357.297 37.4974 358.898 39.0993 360.875 39.0993Z" fill="#FF78A2" stroke="#12192D" stroke-width="0.3" stroke-miterlimit="10"/>
<path d="M359.98 36.9192C359.236 37.169 358.441 37.2315 357.667 37.1008C357.895 37.5802 358.228 38.0027 358.64 38.3377C359.052 38.6728 359.533 38.9119 360.049 39.0377C360.565 39.1636 361.102 39.1731 361.622 39.0655C362.142 38.9579 362.632 38.7358 363.055 38.4155C363.479 38.0953 363.826 37.6847 364.071 37.2137C364.316 36.7427 364.453 36.223 364.472 35.6924C364.492 35.1618 364.393 34.6334 364.183 34.1458C363.973 33.6581 363.656 33.2234 363.257 32.873C363.148 33.7876 362.782 34.6526 362.202 35.3684C361.622 36.0842 360.852 36.6217 359.98 36.9192Z" fill="#FA2D5A" stroke="#12192D" stroke-width="0.3" stroke-linecap="round" stroke-linejoin="round"/>
<path d="M202.56 26.0389C202.56 25.9271 202.56 25.8083 202.56 25.6965V25.4729C202.56 25.2492 202.56 25.0186 202.511 24.774C202.511 24.7042 202.511 24.6343 202.511 24.5644C202.511 24.4945 202.511 24.4456 202.511 24.3897C202.511 24.3338 202.469 24.1102 202.441 23.9704C202.413 23.8306 202.385 23.6769 202.351 23.5302C202.316 23.3834 202.288 23.2646 202.253 23.1319C202.218 22.9991 202.176 22.8524 202.134 22.7126C202.092 22.5728 202.05 22.454 202.001 22.3282C201.952 22.2024 201.903 22.0627 201.847 21.9299C201.791 21.7972 201.75 21.6854 201.694 21.5666C201.638 21.4478 201.645 21.4338 201.617 21.3779C201.589 21.3328 201.563 21.2862 201.54 21.2381C201.428 21.0075 201.302 20.7909 201.177 20.5393C201.151 20.489 201.123 20.4399 201.093 20.3925C201.093 20.3925 201.093 20.3506 201.058 20.3297C201.023 20.3087 200.925 20.148 200.862 20.0501L200.673 19.7706L200.61 19.6937C200.562 19.6238 200.506 19.5679 200.457 19.505C200.408 19.4421 200.338 19.3443 200.275 19.2745L200.128 19.1207L199.996 18.9739L199.891 18.8622L199.52 18.5128L199.171 18.2193L199.003 18.1004L198.898 18.0166L198.794 17.9467L198.423 17.7021L198.353 17.6672L198.172 17.6183C198.102 17.5746 198.029 17.5349 197.955 17.4995L197.599 17.3248C197.466 17.2619 197.326 17.206 197.193 17.1571L196.998 17.0942L196.872 17.0522H196.76C196.613 17.0033 196.46 16.9684 196.306 16.9335H196.243H196.117L195.817 16.8845C195.701 16.8632 195.585 16.8493 195.467 16.8426L178.34 15.3682C178.563 15.3682 178.78 15.4241 178.996 15.466H179.122C179.332 15.5089 179.54 15.5625 179.744 15.6267L179.87 15.6686C180.077 15.7363 180.28 15.8157 180.478 15.9063C180.676 15.9943 180.87 16.0922 181.058 16.1997L181.149 16.2557C181.337 16.3614 181.519 16.4781 181.694 16.6051L181.806 16.6889C181.98 16.8147 182.148 16.9544 182.316 17.0942C182.485 17.2412 182.646 17.3976 182.798 17.5624C182.848 17.6079 182.895 17.6569 182.938 17.7091C183.05 17.8279 183.154 17.9607 183.266 18.0935L183.413 18.2751C183.504 18.3939 183.588 18.5197 183.671 18.6385L183.86 18.9181L183.979 19.1277C184.112 19.3444 184.231 19.561 184.342 19.7916C184.398 19.8964 184.447 20.0082 184.503 20.12L184.657 20.4764C184.706 20.6092 184.762 20.749 184.804 20.8817C184.845 21.0145 184.894 21.1333 184.936 21.266C184.978 21.3988 185.02 21.5455 185.055 21.6853C185.09 21.8251 185.125 21.9509 185.153 22.0837C185.181 22.2164 185.216 22.3772 185.244 22.5239C185.272 22.6707 185.293 22.7964 185.314 22.9362C185.335 23.0759 185.349 23.1948 185.363 23.3276C185.377 23.4603 185.405 23.7748 185.411 24.0264C185.418 24.2779 185.411 24.3967 185.411 24.5924L185.446 48.6103L202.574 50.0777L202.56 26.0389Z" fill="#14B491" stroke="#12192D" stroke-width="0.3" stroke-linecap="round" stroke-linejoin="round"/>
<path d="M202.665 101.726C202.665 101.566 202.665 101.398 202.665 101.237L202.63 77.2192L185.509 75.7448V99.7697C185.509 100.049 185.509 100.322 185.474 100.601C185.474 100.678 185.474 100.748 185.474 100.825C185.474 101.104 185.419 101.384 185.37 101.656V101.789C185.321 102.062 185.265 102.327 185.195 102.593C185.195 102.593 185.195 102.593 185.195 102.642C185.125 102.914 185.041 103.18 184.95 103.445C184.936 103.484 184.924 103.524 184.915 103.564C184.825 103.816 184.727 104.06 184.622 104.305C184.6 104.345 184.582 104.387 184.566 104.431C184.454 104.675 184.342 104.906 184.217 105.129L184.154 105.241C184.028 105.465 183.902 105.682 183.762 105.884L183.727 105.947C183.588 106.157 183.434 106.359 183.28 106.555L183.134 106.737C183.022 106.876 182.903 107.009 182.777 107.142L182.581 107.352L182.274 107.638C182.162 107.743 182.05 107.848 181.932 107.946C181.813 108.043 181.603 108.211 181.428 108.337L181.38 108.372C181.177 108.512 180.967 108.644 180.758 108.763L180.583 108.854C180.415 108.945 180.24 109.029 180.066 109.106L179.912 109.176C179.688 109.266 179.465 109.343 179.213 109.413L179.059 109.455C178.878 109.502 178.689 109.544 178.493 109.581L178.298 109.616C178.053 109.616 177.816 109.679 177.599 109.693C177.382 109.707 177.033 109.693 176.753 109.693L193.881 111.16C194.163 111.181 194.445 111.181 194.727 111.16C194.961 111.151 195.195 111.125 195.425 111.083H195.628L196.194 110.951H196.341C196.572 110.881 196.795 110.797 197.04 110.706L197.193 110.643C197.368 110.566 197.543 110.482 197.711 110.391L197.885 110.294C198.097 110.176 198.302 110.048 198.5 109.909H198.556L198.961 109.602L199.059 109.511C199.178 109.413 199.29 109.308 199.402 109.204C199.513 109.099 199.548 109.085 199.611 109.022L199.709 108.917L199.905 108.707C199.968 108.637 200.038 108.575 200.1 108.498L200.261 108.302L200.401 108.127C200.436 108.089 200.468 108.05 200.499 108.009C200.618 107.855 200.729 107.694 200.841 107.533C200.85 107.513 200.862 107.494 200.876 107.477L201.121 107.093L201.261 106.835L201.33 106.716C201.344 106.686 201.36 106.658 201.379 106.632C201.456 106.485 201.533 106.331 201.603 106.171C201.629 106.121 201.652 106.069 201.673 106.017L201.736 105.884L201.813 105.703C201.875 105.549 201.938 105.395 201.994 105.234C201.997 105.204 201.997 105.174 201.994 105.143L202.036 105.032C202.036 104.934 202.099 104.843 202.127 104.745C202.155 104.647 202.232 104.41 202.274 104.242C202.274 104.242 202.274 104.242 202.274 104.193C202.316 104.039 202.351 103.893 202.379 103.739C202.407 103.585 202.42 103.508 202.441 103.396C202.462 103.285 202.441 103.306 202.441 103.257C202.445 103.227 202.445 103.196 202.441 103.166C202.476 102.963 202.504 102.761 202.525 102.551C202.522 102.509 202.522 102.467 202.525 102.425C202.525 102.355 202.525 102.278 202.525 102.201C202.525 102.125 202.658 101.845 202.665 101.726Z" fill="#14B491" stroke="#12192D" stroke-width="0.3" stroke-linecap="round" stroke-linejoin="round"/>
<path d="M224.622 26.9192L241.749 28.3937L213.881 63.1732L196.753 61.6987L224.622 26.9192Z" fill="#14B491" stroke="#12192D" stroke-width="0.3" stroke-linecap="round" stroke-linejoin="round"/>
<path d="M196.753 61.6987L213.881 63.1732L241.854 95.6397L224.726 94.1722L196.753 61.6987Z" fill="#14B491" stroke="#12192D" stroke-width="0.3" stroke-linecap="round" stroke-linejoin="round"/>
<path d="M249.778 62.1879C249.778 62.0202 249.778 61.8594 249.778 61.6917C249.778 61.524 249.778 61.4611 249.778 61.3493V61.1257C249.778 60.8951 249.778 60.6715 249.729 60.4269C249.729 60.3571 249.729 60.2871 249.729 60.2173C249.729 60.1474 249.729 60.0985 249.729 60.0356C249.729 59.9727 249.68 59.7561 249.659 59.6233C249.639 59.4905 249.604 59.3298 249.569 59.183C249.534 59.0363 249.506 58.9175 249.471 58.7848C249.436 58.652 249.394 58.4983 249.345 58.3585C249.296 58.2187 249.268 58.1069 249.219 57.9811C249.17 57.8553 249.121 57.7086 249.065 57.5758C249.01 57.4431 248.968 57.3313 248.912 57.2125L248.835 57.0238C248.807 56.9787 248.781 56.932 248.758 56.884C248.646 56.6603 248.52 56.4437 248.395 56.2271C248.369 56.1744 248.341 56.1231 248.311 56.0734C248.311 56.0734 248.311 56.0733 248.269 56.0174C248.227 55.9615 248.143 55.8288 248.08 55.731C248.017 55.6332 247.954 55.5423 247.885 55.4515C247.866 55.4242 247.845 55.3985 247.822 55.3746L247.675 55.1859C247.612 55.109 247.556 55.0322 247.486 54.9553L247.346 54.8015L247.214 54.6548L247.109 54.543L246.738 54.1936L246.396 53.914C246.34 53.8651 246.284 53.8302 246.228 53.7883L246.117 53.7044L246.019 53.6346C245.9 53.5507 245.774 53.4738 245.641 53.3969L245.578 53.355L245.481 53.2992L245.264 53.1803L244.901 53.0056C244.769 52.9426 244.633 52.8866 244.495 52.8379L244.3 52.7751L244.174 52.7331H244.069C243.915 52.6842 243.762 52.6492 243.608 52.6143H243.545H243.419L243.119 52.5654C243.003 52.5441 242.887 52.53 242.769 52.5234L225.642 51.049C225.865 51.049 226.082 51.1049 226.298 51.1468H226.424C226.634 51.1897 226.842 51.2433 227.046 51.3075L227.172 51.3495C227.381 51.4183 227.586 51.4976 227.787 51.587C227.985 51.6775 228.179 51.7778 228.367 51.8876L228.465 51.9434C228.646 52.0483 228.828 52.1671 229.003 52.2928L229.115 52.3767C229.289 52.5025 229.457 52.6352 229.625 52.782C229.794 52.929 229.955 53.0854 230.107 53.2502L230.24 53.3969C230.352 53.5157 230.463 53.6485 230.568 53.7813L230.722 53.963L230.973 54.3264C231.036 54.4172 231.106 54.5081 231.169 54.6059L231.288 54.8225C231.421 55.0344 231.543 55.2538 231.651 55.4794C231.707 55.5843 231.756 55.696 231.805 55.8079C231.854 55.9197 231.91 56.0455 231.966 56.1712L232.113 56.5695C232.161 56.6953 232.203 56.8281 232.245 56.9539C232.287 57.0797 232.329 57.2334 232.364 57.3732C232.399 57.5129 232.434 57.6387 232.462 57.7714C232.49 57.9042 232.525 58.0649 232.553 58.2117C232.581 58.3584 232.602 58.4912 232.623 58.631C232.644 58.7707 232.658 58.8896 232.672 59.0153C232.686 59.1411 232.713 59.4696 232.72 59.7141C232.727 59.9587 232.72 60.0845 232.72 60.2732C232.72 60.4619 232.72 60.8322 232.686 61.1118C232.686 61.1886 232.686 61.2655 232.686 61.3423C232.686 61.6218 232.623 61.9014 232.581 62.1739C232.581 62.2159 232.581 62.2648 232.581 62.3067C232.539 62.575 232.483 62.8409 232.413 63.1033C232.416 63.1242 232.416 63.1454 232.413 63.1663C232.343 63.4388 232.266 63.7043 232.175 63.9628L232.133 64.0887C232.05 64.3402 231.952 64.5849 231.847 64.8294L231.784 64.9552C231.679 65.1998 231.567 65.4304 231.442 65.654L231.379 65.7658C231.253 65.9894 231.127 66.199 230.987 66.4087C230.977 66.4282 230.966 66.447 230.952 66.4646C230.813 66.6812 230.659 66.8839 230.505 67.0796L230.365 67.2543C230.247 67.394 230.128 67.5338 230.002 67.6595C229.941 67.7327 229.875 67.8027 229.806 67.8692C229.709 67.9671 229.611 68.0648 229.506 68.1557C229.401 68.2465 229.282 68.3654 229.164 68.4632C229.045 68.561 228.821 68.7427 228.639 68.8685H228.604C228.402 69.0082 228.199 69.141 227.99 69.2598L227.808 69.3507C227.64 69.4415 227.465 69.5254 227.291 69.6022L227.137 69.6721C226.913 69.763 226.69 69.8398 226.438 69.9097H226.284C226.099 69.9654 225.91 70.0098 225.718 70.0425H225.516C225.284 70.0789 225.051 70.1022 224.817 70.1124C224.535 70.1299 224.253 70.1299 223.971 70.1124L241.099 71.5798C241.381 71.5974 241.663 71.5974 241.945 71.5798C242.189 71.5798 242.434 71.5379 242.643 71.503H242.846L243.412 71.3772L243.566 71.3353C243.803 71.2705 244.037 71.1912 244.265 71.0977L244.418 71.0347C244.593 70.9579 244.768 70.874 244.936 70.7832L245.11 70.6853C245.32 70.5665 245.53 70.4408 245.732 70.3011H245.767C245.914 70.2032 246.054 70.0914 246.193 69.9796L246.291 69.8958C246.41 69.7979 246.522 69.6931 246.634 69.5883C246.707 69.5291 246.777 69.4661 246.843 69.3996L246.934 69.3087L247.13 69.0991C247.2 69.0292 247.27 68.9593 247.332 68.8825C247.388 68.8203 247.439 68.755 247.486 68.6868L247.633 68.5191L247.724 68.4003C247.843 68.2466 247.954 68.0858 248.066 67.9251C248.076 67.9055 248.088 67.8868 248.101 67.8692L248.346 67.4848L248.492 67.2193L248.555 67.1075L248.597 67.0306L248.828 66.5695C248.855 66.5178 248.879 66.464 248.898 66.4087C248.919 66.3657 248.938 66.3214 248.954 66.2759C248.982 66.2214 249.008 66.1654 249.031 66.1082C249.093 65.9475 249.156 65.7937 249.212 65.633C249.212 65.633 249.212 65.5701 249.247 65.5352L249.289 65.4164L249.38 65.1439C249.429 64.9831 249.478 64.8155 249.52 64.6407C249.52 64.6407 249.52 64.5988 249.52 64.5778L249.625 64.1445L249.687 63.7881C249.684 63.7416 249.684 63.6949 249.687 63.6484C249.685 63.6229 249.685 63.5971 249.687 63.5716C249.687 63.3689 249.743 63.1593 249.764 62.9496C249.768 62.9078 249.768 62.8656 249.764 62.8238V62.5862L249.778 62.1879Z" fill="#14B491" stroke="#12192D" stroke-width="0.3" stroke-linecap="round" stroke-linejoin="round"/>
<path d="M272.986 42.0344C272.986 41.9366 272.986 41.8458 272.986 41.755V41.2029C272.986 41.126 272.986 41.0492 272.986 40.9723C272.986 40.7557 272.986 40.532 272.93 40.3154C272.93 40.2455 272.93 40.1757 272.93 40.1058C272.93 40.0359 272.93 39.966 272.895 39.8961L272.832 39.5117C272.797 39.351 272.769 39.1903 272.734 39.0296C272.699 38.8689 272.671 38.778 272.636 38.6522C272.601 38.5264 272.545 38.3378 272.497 38.1841C272.448 38.0303 272.42 37.9395 272.378 37.8207C272.336 37.7019 272.259 37.5132 272.196 37.3594C272.133 37.2057 272.105 37.1288 272.049 37.017C272.037 36.9758 272.021 36.936 272 36.8982L271.889 36.6886C271.791 36.493 271.686 36.3042 271.574 36.1156L271.49 35.9548C271.433 35.8784 271.379 35.7992 271.33 35.7173L271.155 35.4657C271.122 35.4231 271.092 35.3788 271.064 35.3329C270.938 35.1722 270.812 35.0045 270.673 34.8508L247.354 7.83495C247.235 7.69519 247.109 7.56245 246.976 7.42967L246.899 7.35281L246.774 7.24098C246.723 7.18622 246.67 7.13488 246.613 7.08727L246.361 6.87059L246.284 6.80773H246.249C246.131 6.71688 246.012 6.62603 245.886 6.54218L245.781 6.47231L245.662 6.40237L245.516 6.30461L245.138 6.08794C245.013 6.01806 244.887 5.96215 244.761 5.90624L244.6 5.83638L244.467 5.78741L244.349 5.73853C244.209 5.68263 244.062 5.63374 243.922 5.59181H243.867L243.475 5.48698H243.349H243.161H242.979L242.616 5.44501L225.425 3.79584L225.97 3.8727L226.159 3.90767C226.333 3.90767 226.508 3.97758 226.676 4.0265H226.732C226.92 4.0824 227.109 4.15222 227.291 4.2221L227.424 4.27806C227.605 4.35493 227.787 4.43178 227.962 4.52262C228.136 4.61347 228.318 4.71825 228.493 4.83005L228.605 4.907C228.78 5.0178 228.948 5.13908 229.108 5.27031L229.185 5.33326C229.324 5.44507 229.464 5.57078 229.604 5.69657L229.723 5.81539C229.888 5.97218 230.044 6.13778 230.191 6.31152L253.496 33.3623C253.664 33.558 253.817 33.7606 253.971 33.9703L254.146 34.2288C254.23 34.3546 254.314 34.4873 254.391 34.6201C254.467 34.7529 254.607 35.0045 254.705 35.2002C254.803 35.3958 254.817 35.4098 254.866 35.5216C254.92 35.6331 254.969 35.7474 255.012 35.864C255.075 36.0177 255.138 36.1715 255.194 36.3252L255.32 36.6886C255.369 36.8493 255.411 37.003 255.453 37.1638C255.495 37.3245 255.523 37.4154 255.551 37.5411C255.578 37.6669 255.62 37.8556 255.648 38.0163L255.711 38.4077C255.711 38.5404 255.746 38.6802 255.76 38.8269C255.774 38.9737 255.802 39.2602 255.816 39.4838C255.83 39.7075 255.816 39.7564 255.816 39.8961V40.2665C255.816 40.4482 255.816 40.6298 255.816 40.8185V41.077C255.816 41.3426 255.767 41.6082 255.725 41.8737C255.722 41.8898 255.722 41.9065 255.725 41.9227C255.683 42.1812 255.627 42.4468 255.564 42.7053C255.556 42.755 255.544 42.804 255.53 42.852C255.467 43.1106 255.397 43.3622 255.313 43.6207L255.271 43.7535C255.18 44.0051 255.089 44.2566 254.984 44.5082L254.936 44.613C254.824 44.8646 254.705 45.1231 254.572 45.3677V45.4167C254.446 45.6543 254.307 45.8849 254.16 46.1155L254.104 46.2133C253.936 46.4579 253.762 46.7025 253.58 46.9121C253.398 47.1218 253.251 47.2894 253.084 47.4711L252.923 47.6458L252.595 47.9534L252.266 48.2398C252.076 48.3994 251.878 48.5487 251.672 48.687L251.56 48.757C251.386 48.8758 251.211 48.9806 251.036 49.0784L250.848 49.1763C250.666 49.2671 250.491 49.3509 250.309 49.4278L250.184 49.4767C249.967 49.5606 249.743 49.6375 249.52 49.7004L249.352 49.7422C249.178 49.7902 249 49.8276 248.821 49.8541H248.632C248.402 49.8541 248.171 49.91 247.934 49.9239C247.652 49.9415 247.37 49.9415 247.088 49.9239L264.216 51.3984C264.495 51.4159 264.775 51.4159 265.054 51.3984C265.285 51.3984 265.515 51.3984 265.753 51.3355H265.949L266.473 51.2237L266.648 51.1748C266.871 51.1119 267.095 51.042 267.311 50.9582L267.43 50.9023L267.975 50.6507L268.164 50.5529L268.688 50.2385L268.8 50.1685C268.982 50.0427 269.156 49.917 269.331 49.7772L269.394 49.7213C269.506 49.6304 269.61 49.5257 269.715 49.4278C269.82 49.33 269.897 49.2741 269.981 49.1902L270.051 49.1203L270.211 48.9456C270.295 48.8548 270.386 48.7709 270.47 48.6731L270.701 48.3936L270.861 48.1909C270.973 48.0372 271.092 47.8834 271.197 47.7157L271.232 47.6668L271.288 47.576C271.357 47.4711 271.42 47.3664 271.483 47.2615C271.546 47.1567 271.63 47.0099 271.7 46.8772C271.704 46.8611 271.704 46.8444 271.7 46.8283C271.777 46.6815 271.854 46.5278 271.924 46.374C271.993 46.2203 272.007 46.1853 272.049 46.0945C272.063 46.0583 272.079 46.0232 272.098 45.9897C272.098 45.9897 272.098 45.9408 272.098 45.9128C272.168 45.7591 272.224 45.5983 272.287 45.4446L272.35 45.235C272.37 45.1924 272.387 45.1479 272.399 45.1022L272.448 44.9554C272.497 44.7877 272.545 44.62 272.587 44.4523C272.591 44.4128 272.591 44.373 272.587 44.3335C272.587 44.2846 272.587 44.2357 272.622 44.1868L272.685 43.9142C272.685 43.7465 272.748 43.5788 272.776 43.4041C272.776 43.4041 272.776 43.4041 272.776 43.3622C272.811 43.1595 272.832 42.9498 272.853 42.7402C272.853 42.6913 272.853 42.6354 272.853 42.5795V42.3209C272.979 42.2161 272.986 42.1253 272.986 42.0344Z" fill="#14B491" stroke="#12192D" stroke-width="0.3" stroke-linecap="round" stroke-linejoin="round"/>
<path d="M273.049 80.4197V80.1402C273.049 80.0144 273.049 79.8956 273.049 79.7698C273.052 79.7093 273.052 79.6487 273.049 79.5882C273.049 79.5113 273.049 79.4344 273.049 79.3576C273.049 79.1409 273.049 78.9173 272.993 78.7007C272.993 78.6308 272.993 78.5609 272.993 78.491C272.993 78.4212 272.993 78.3513 272.993 78.2815L272.93 77.8971C272.93 77.7363 272.867 77.5756 272.832 77.4149C272.797 77.2541 272.769 77.1633 272.741 77.0376C272.713 76.9118 272.651 76.7231 272.602 76.5693C272.553 76.4156 272.525 76.3247 272.476 76.2059C272.427 76.0871 272.364 75.8985 272.301 75.7448L272.154 75.4023C272.154 75.3604 272.154 75.3185 272.099 75.2836C272.043 75.2486 272.022 75.1438 271.987 75.0739C271.889 74.8782 271.784 74.6826 271.672 74.5009C271.647 74.4459 271.619 74.3923 271.588 74.3402L271.428 74.1025L271.253 73.851C271.225 73.8051 271.195 73.7608 271.162 73.7182C271.043 73.5575 270.911 73.3898 270.778 73.236C270.652 73.0963 270.519 72.9565 270.386 72.8237L270.31 72.7469L270.191 72.6351L270.016 72.4673L269.779 72.2717L269.688 72.1948H269.646C269.527 72.0978 269.403 72.0068 269.275 71.9223L269.192 71.8664L269.073 71.7965L268.905 71.6847L268.57 71.496H268.535L268.143 71.3073L268.004 71.2514L267.871 71.1956L267.738 71.1466C267.598 71.0907 267.451 71.0418 267.312 70.9999C267.165 70.9579 267.018 70.916 266.878 70.888H266.76H266.571H266.382L266.026 70.8462L248.898 69.3786C249.08 69.3786 249.269 69.4206 249.45 69.4485H249.632C249.818 69.4829 250.003 69.5271 250.184 69.5813C250.374 69.636 250.561 69.7014 250.743 69.777L250.876 69.8328C251.063 69.9053 251.245 69.9893 251.421 70.0844H251.456C251.631 70.1752 251.798 70.2731 251.966 70.3779L252.078 70.4548C252.246 70.5666 252.413 70.6854 252.581 70.8182L252.672 70.895C252.812 71.0068 252.944 71.1326 253.084 71.2584L253.203 71.3703C253.364 71.531 253.524 71.6987 253.678 71.8734C253.832 72.0481 254.006 72.2787 254.153 72.4883C254.216 72.5722 254.272 72.663 254.328 72.7469C254.384 72.8307 254.496 73.0054 254.573 73.1382C254.649 73.2709 254.789 73.5226 254.887 73.7182C254.985 73.9139 255.006 73.9278 255.055 74.0397L255.201 74.3821C255.264 74.5358 255.327 74.6896 255.383 74.8433C255.439 74.997 255.46 75.0879 255.502 75.2067C255.544 75.3255 255.6 75.5211 255.642 75.6818C255.684 75.8426 255.705 75.9264 255.733 76.0522C255.76 76.178 255.802 76.3736 255.83 76.5413C255.858 76.6659 255.879 76.7919 255.893 76.9187C255.893 77.0585 255.935 77.2052 255.949 77.345C255.963 77.4848 255.991 77.7783 255.998 78.0019V78.4142C255.998 78.533 255.998 78.6588 255.998 78.7846C255.998 78.9104 255.998 79.1479 255.998 79.3366C255.998 79.4204 255.998 79.5043 255.998 79.5951C255.998 79.8607 255.942 80.1262 255.9 80.3918C255.9 80.3918 255.9 80.3918 255.9 80.4407C255.858 80.6993 255.802 80.9648 255.747 81.2234C255.732 81.2715 255.72 81.3205 255.712 81.3701C255.649 81.6287 255.572 81.8802 255.488 82.1388L255.446 82.2716C255.362 82.5232 255.264 82.7747 255.16 83.0263L255.118 83.1311C255.006 83.3827 254.887 83.6412 254.754 83.8858C254.751 83.9019 254.751 83.9187 254.754 83.9348C254.621 84.1723 254.489 84.403 254.342 84.6336L254.279 84.7314C254.116 84.9731 253.941 85.2063 253.755 85.4302L230.541 114.403C230.38 114.598 230.212 114.78 230.044 114.962L229.891 115.122C229.786 115.234 229.667 115.332 229.555 115.43C229.456 115.529 229.351 115.622 229.241 115.709C229.052 115.87 228.85 116.017 228.654 116.157L228.521 116.24C228.353 116.345 228.179 116.45 228.011 116.541L227.815 116.639C227.641 116.73 227.452 116.814 227.27 116.89L227.158 116.939C226.942 117.023 226.718 117.1 226.495 117.163L226.313 117.205C226.145 117.247 225.97 117.289 225.796 117.317H225.6C225.369 117.317 225.139 117.373 224.901 117.38C224.615 117.4 224.328 117.4 224.042 117.38L241.169 118.854C241.449 118.854 241.735 118.854 242.022 118.854C242.309 118.854 242.483 118.854 242.721 118.784H242.916C243.093 118.757 243.268 118.72 243.441 118.672L243.622 118.63C243.846 118.568 244.063 118.498 244.286 118.414L244.398 118.365L244.943 118.113L245.139 118.008C245.306 117.918 245.481 117.813 245.642 117.708L245.775 117.624C245.961 117.498 246.143 117.366 246.32 117.226L246.369 117.184L246.676 116.904C246.774 116.82 246.872 116.744 246.963 116.653L247.018 116.59L247.172 116.429L247.438 116.15L247.668 115.87L270.736 86.7998L270.89 86.5972C271.009 86.4445 271.121 86.2859 271.225 86.122V86.0731L271.281 85.9822C271.351 85.8774 271.421 85.7726 271.484 85.6678C271.546 85.563 271.63 85.4162 271.7 85.2834V85.2345C271.784 85.0878 271.854 84.934 271.931 84.7803C272.008 84.6265 272.015 84.5916 272.05 84.5007C272.069 84.4672 272.085 84.4322 272.099 84.396L272.133 84.319C272.196 84.1653 272.259 84.0046 272.315 83.8509C272.371 83.6972 272.357 83.7111 272.385 83.6412L272.427 83.5085C272.427 83.4596 272.462 83.4106 272.476 83.3617C272.532 83.194 272.574 83.0263 272.623 82.8586C272.619 82.819 272.619 82.7793 272.623 82.7397C272.623 82.6908 272.623 82.6419 272.623 82.593C272.623 82.5441 272.672 82.4113 272.686 82.3205C272.7 82.2296 272.755 81.9851 272.783 81.8104C272.783 81.8104 272.783 81.8104 272.783 81.7685C272.818 81.5658 272.846 81.3562 272.867 81.1465C272.871 81.093 272.871 81.0393 272.867 80.9858C272.867 80.902 272.867 80.8111 272.867 80.7273L273.049 80.4197Z" fill="#14B491" stroke="#12192D" stroke-width="0.3" stroke-linecap="round" stroke-linejoin="round"/>
<path d="M232.636 61.2749C233.09 55.9801 229.906 51.3824 225.522 51.0059C221.138 50.6293 217.216 54.6164 216.761 59.9113C216.306 65.2061 219.491 69.8037 223.875 70.1803C228.258 70.5569 232.181 66.5698 232.636 61.2749Z" fill="#6EFFDA" stroke="#12192D" stroke-width="0.3" stroke-linecap="round" stroke-linejoin="round"/>
<path d="M247.948 69.1829C249.023 69.1497 250.091 69.3652 251.069 69.8124C252.047 70.2597 252.909 70.9266 253.587 71.7614C256.704 75.3812 256.711 81.4609 253.587 85.3323L230.373 114.305C229.705 115.18 228.858 115.902 227.887 116.422C226.917 116.942 225.846 117.247 224.747 117.317C223.678 117.347 222.616 117.132 221.643 116.687C220.67 116.242 219.813 115.58 219.136 114.752L185.53 75.7307V99.7556C185.53 105.032 181.959 109.539 177.578 109.686C173.196 109.832 169.605 105.716 169.591 100.412L169.521 25.2281C169.521 19.9311 173.078 15.4448 177.473 15.2981C181.869 15.1513 185.453 19.2672 185.46 24.5711L185.495 48.5891L218.982 6.80059C219.65 5.92202 220.5 5.19763 221.473 4.67671C222.446 4.15579 223.52 3.85052 224.622 3.78171C225.693 3.74628 226.758 3.95795 227.735 4.40024C228.712 4.84254 229.574 5.50362 230.254 6.33236L253.559 33.3831C256.676 36.996 256.683 43.0755 253.559 46.9469C252.894 47.8297 252.047 48.559 251.075 49.0848C250.103 49.6105 249.029 49.9205 247.927 49.9937C246.851 50.0242 245.783 49.8077 244.804 49.3606C243.825 48.9136 242.962 48.248 242.28 47.4151L224.628 26.9261L196.774 61.7056L224.726 94.1722L242.315 72.2297C242.98 71.3468 243.827 70.6176 244.799 70.0918C245.771 69.566 246.845 69.256 247.948 69.1829Z" fill="#6EFFDA" stroke="#12192D" stroke-width="0.3" stroke-linecap="round" stroke-linejoin="round"/>
</g>
<defs>
<linearGradient id="paint0_linear_1452_26112" x1="259.508" y1="306.952" x2="259.508" y2="96.2905" gradientUnits="userSpaceOnUse">
<stop stop-color="#FADE4B" stop-opacity="0"/>
<stop offset="0.86" stop-color="#FADE4B" stop-opacity="0.4"/>
</linearGradient>
</defs>
</svg>
