<svg width="40" height="40" viewBox="0 0 40 40" fill="none" xmlns="http://www.w3.org/2000/svg">
<rect opacity="0.08" x="2" y="2" width="36" height="36" rx="8" fill="#737E8D"/>
<rect x="8" y="17" width="2" height="6" fill="#737E8D"/>
<rect x="30" y="17" width="2" height="6" fill="#737E8D"/>
<path fillRule="evenodd" clip-rule="evenodd" d="M12 12C11.4477 12 11 12.4477 11 13V27C11 27.5523 11.4477 28 12 28H28C28.5523 28 29 27.5523 29 27V13C29 12.4477 28.5523 12 28 12H26L24 14.5H16L14 12H12Z" fill="#2DBD96"/>
<path fillRule="evenodd" clip-rule="evenodd" d="M14 18.5C14 17.6716 14.6716 17 15.5 17C16.3284 17 17 17.6716 17 18.5C17 19.3284 16.3284 20 15.5 20C14.6716 20 14 19.3284 14 18.5ZM23 18.5C23 17.6716 23.6716 17 24.5 17C25.3284 17 26 17.6716 26 18.5C26 19.3284 25.3284 20 24.5 20C23.6716 20 23 19.3284 23 18.5ZM22.2981 21.2981C21.0289 22.5673 18.9711 22.5673 17.7019 21.2981L16.6412 22.3588C18.4962 24.2137 21.5038 24.2137 23.3588 22.3588L22.2981 21.2981Z" fill="white"/>
<path d="M15.2681 12H24.7481L23.5001 13.5H16.5001L15.2681 12Z" fill="#737E8D"/>
</svg>
