<svg width="40" height="17" viewBox="0 0 40 17" fill="none" xmlns="http://www.w3.org/2000/svg">
<path d="M0.78125 15L3.7793 0.683594H13.7988L13.291 3.07617H6.2207L5.49805 6.51367H12.4316L11.9336 8.90625H5L3.73047 15H0.78125Z" fill="#00142A" fill-opacity="0.6"/>
<path d="M21.3086 11.8359H15.6348L13.916 15H10.8887L18.9844 0.683594H22.2559L24.5801 15H21.7871L21.3086 11.8359ZM20.9473 9.45312L20.1172 3.69141L16.6602 9.45312H20.9473Z" fill="#00142A" fill-opacity="0.6"/>
<path d="M34.0938 14.7168C33.638 14.8926 33.166 15.026 32.6777 15.1172C32.1895 15.2083 31.6849 15.2539 31.1641 15.2539C29.4193 15.2539 28.0065 14.7103 26.9258 13.623C25.8516 12.5293 25.3145 11.1035 25.3145 9.3457C25.3145 7.9069 25.6497 6.45182 26.3203 4.98047C26.9909 3.50911 27.9349 2.38607 29.1523 1.61133C30.3763 0.830078 31.7663 0.439453 33.3223 0.439453C35.0931 0.439453 36.5221 0.989583 37.6094 2.08984C38.6966 3.18359 39.2402 4.64193 39.2402 6.46484C39.2402 7.85807 38.9473 9.19271 38.3613 10.4688C37.7819 11.7448 37.0039 12.7799 36.0273 13.5742C36.6523 14.1862 37.3099 14.6875 38 15.0781L36.6133 16.9043C35.7018 16.4616 34.862 15.7324 34.0938 14.7168ZM34.3379 11.5332C34.9303 10.9342 35.4056 10.1595 35.7637 9.20898C36.1283 8.25846 36.3105 7.36328 36.3105 6.52344C36.3105 5.39062 36.0078 4.50521 35.4023 3.86719C34.7969 3.22266 34.0254 2.90039 33.0879 2.90039C32.4434 2.90039 31.8477 3.05013 31.3008 3.34961C30.7539 3.64258 30.2493 4.06901 29.7871 4.62891C29.3314 5.1888 28.957 5.88216 28.6641 6.70898C28.3776 7.53581 28.2344 8.36263 28.2344 9.18945C28.2344 10.3027 28.5404 11.1816 29.1523 11.8262C29.7708 12.4642 30.5586 12.7832 31.5156 12.7832C31.7826 12.7832 32.0625 12.7637 32.3555 12.7246C32.4596 12.7051 32.5215 12.6855 32.541 12.666C32.5671 12.6465 32.5801 12.6172 32.5801 12.5781C32.5801 12.526 32.4824 12.4089 32.2871 12.2266C31.877 11.8359 31.4408 11.556 30.9785 11.3867L32.0527 9.74609C32.9316 10.1888 33.6934 10.7845 34.3379 11.5332Z" fill="#00142A" fill-opacity="0.6"/>
</svg>
