<svg width="24" height="24" viewBox="0 0 24 24" fill="none" xmlns="http://www.w3.org/2000/svg">
<path fillRule="evenodd" clip-rule="evenodd" d="M22 12.0261C22 6.46482 17.5294 2.00011 11.9869 2.00011C6.44445 1.974 2 6.46482 2 12C2 17.5091 6.52288 21.9477 11.9085 21.9999C17.4771 22.026 22 17.5091 22 12.0261ZM13.6739 21.0921C13.6879 21.0891 13.6995 21.0809 13.7099 21.0736C13.7202 21.0664 13.7294 21.06 13.7386 21.06C14.3922 20.9555 15.0196 20.7466 15.6471 20.4855C17.6863 19.5978 19.2288 18.1618 20.2222 16.1775C21.1111 14.4282 21.3987 12.5744 21.1111 10.6423C20.8497 8.78855 20.0654 7.16977 18.8105 5.81208C17.1373 3.9061 14.9935 2.91394 12.4575 2.75729C11.3333 2.67896 10.2092 2.83561 9.13726 3.20114C7.38562 3.77555 5.94771 4.76771 4.77124 6.20372C3.43791 7.84861 2.78431 9.72849 2.70588 11.8172C2.67974 12.3394 2.73203 12.8355 2.81046 13.3577C2.96732 14.5326 3.35948 15.6553 3.96078 16.6736C4.04811 16.7608 4.11922 16.8642 4.19218 16.9702C4.24963 17.0538 4.30823 17.1389 4.37678 17.2192C4.3784 17.2098 4.3793 17.2019 4.3793 17.1958C5.00675 15.7859 5.24204 14.2977 5.37276 12.7833C5.38322 12.6423 5.39263 12.5013 5.40204 12.3603C5.43969 11.7964 5.47734 11.2324 5.58191 10.6685C5.71263 9.85907 6.02636 9.12801 6.60152 8.50139C7.12439 7.95309 7.77799 7.58756 8.48387 7.32646C9.05903 7.09148 9.66034 6.8826 10.3139 6.8565C10.9152 6.83039 11.4904 6.90872 12.0656 7.03926C12.9283 7.24814 13.7911 7.50923 14.6015 7.90087C15.2551 8.16196 15.9349 8.42306 16.6146 8.63193C17.3205 8.84081 18.0264 9.07579 18.6277 9.51965C19.3858 10.0941 19.595 10.8251 19.2551 11.7128C19.046 12.2611 18.6538 12.6789 18.2617 13.0966C17.9793 13.3891 17.6886 13.6731 17.3979 13.9572C16.9618 14.3833 16.5257 14.8094 16.1179 15.2637C15.3335 16.1775 14.6277 17.1175 14.1309 18.2141C13.7585 19.0278 13.5946 20.1545 13.6739 21.0921ZM18.6015 12.4961C18.6277 12.47 18.6538 12.47 18.68 12.47L18.6015 12.5222C18.6015 12.5483 18.5754 12.5744 18.5492 12.5744V12.5483C18.5492 12.5222 18.5754 12.4961 18.6015 12.4961ZM8.87603 9.70242C8.87603 8.73637 9.68649 7.92698 10.68 7.92698C11.6734 7.92698 12.4577 8.71026 12.4577 9.70242C12.4316 10.6946 11.6473 11.504 10.6538 11.504C9.68649 11.4779 8.87603 10.6946 8.87603 9.70242ZM12.9283 13.9582C12.5884 13.8538 12.3009 13.6449 12.144 13.4099C12.8237 13.8277 13.5819 13.8799 14.3401 13.8277C15.3858 13.7755 16.3793 13.5144 17.3205 13.1227C17.6865 12.9661 18.0525 12.8094 18.3924 12.6006C18.4185 12.5744 18.4447 12.5483 18.4969 12.5744C18.48 12.6421 18.4302 12.6659 18.383 12.6885C18.3573 12.7008 18.3324 12.7127 18.3139 12.7311C17.2943 13.4099 16.1701 13.8277 14.9675 14.0627C14.2878 14.1932 13.6081 14.1932 12.9283 13.9582ZM17.4773 11.4517C17.4773 11.6867 17.2943 11.8695 17.0852 11.8695C16.8499 11.8695 16.693 11.7128 16.693 11.4779C16.693 11.269 16.8499 11.0862 17.059 11.0862C17.2943 11.0601 17.4773 11.2429 17.4773 11.4517Z" fill="#737E8D"/>
</svg>
