<svg width="24" height="24" viewBox="0 0 24 24" fill="none" xmlns="http://www.w3.org/2000/svg">
<path d="M19.3957 13.9574C19.0415 14.1705 18.6282 14.2093 18.3134 14.0349C17.9198 13.8023 17.6837 13.2791 17.6837 12.562V10.3721C17.6837 9.32558 17.2704 8.56977 16.562 8.37597C15.3616 8.02713 14.4564 9.48062 14.1219 10.0233L11.9966 13.376V9.24806C11.9769 8.29845 11.6621 7.73644 11.0717 7.56202C10.6782 7.44574 10.0878 7.50388 9.51714 8.35659L4.77465 15.8372C4.14494 14.655 3.81041 13.3372 3.81041 12C3.81041 7.4845 7.49026 3.8217 11.9966 3.8217C16.503 3.8217 20.1828 7.4845 20.1828 12V12.0194V12.0388C20.2222 12.9109 19.9467 13.6085 19.3957 13.9574ZM21.9932 12V11.9806V11.9612C21.9735 6.47674 17.4869 2 11.9966 2C6.48667 2 2 6.47674 2 12C2 17.5039 6.48667 22 11.9966 22C14.5351 22 16.9359 21.0504 18.7856 19.3256C19.1595 18.9767 19.1792 18.4147 18.825 18.0465C18.4905 17.6783 17.9198 17.6589 17.5459 17.9884C17.5459 17.9884 17.5459 17.9884 17.5262 18.0078C16.0307 19.4031 14.0235 20.1977 11.9573 20.1977C9.53682 20.1977 7.37219 19.1512 5.87664 17.4845L10.1468 10.7403V13.8605C10.1468 15.3527 10.7372 15.8372 11.2292 15.9729C11.7211 16.1085 12.4689 16.0116 13.2757 14.7519L15.6174 11.0116C15.6961 10.8953 15.7552 10.7791 15.8339 10.7015V12.6008C15.8339 13.9961 16.4046 15.1202 17.3885 15.6628C18.274 16.1667 19.3957 16.1085 20.3206 15.5465C21.4619 14.8101 22.0719 13.531 21.9932 12Z" fill="#737E8D"/>
</svg>
