   <svg version="1.1" className="highcharts-root"
                                    style="font-family:&quot;Lucida Grande&quot;, &quot;Lucida Sans Unicode&quot;, Arial, Helvetica, sans-serif;font-size:12px;"
                                    xmlns="http://www.w3.org/2000/svg" width="120" height="47" viewBox="0 0 120 47">
                                    <desc>Created with Highstock 5.0.14</desc>
                                    <defs>
                                        <clipPath id="highcharts-b1m2heq-1">
                                            <rect x="0" y="0" width="120" height="47" fill="none"></rect>
                                        </clipPath>
                                        <clipPath id="highcharts-b1m2heq-3">
                                            <rect x="0" y="0" width="120" height="47" fill="none"></rect>
                                        </clipPath>
                                        <linearGradient x1="0" y1="11" x2="0" y2="100" gradientUnits="userSpaceOnUse"
                                            id="highcharts-b1m2heq-4">
                                            <stop offset="0" stop-color="rgb(36,174,143)" stop-opacity="0.16"></stop>
                                            <stop offset="1" stop-color="rgb(36,174,143)" stop-opacity="0"></stop>
                                        </linearGradient>
                                    </defs>
                                    <rect fill="transparent" className="highcharts-background" x="0" y="0" width="120"
                                        height="47" rx="0" ry="0"></rect>
                                    <rect fill="none" className="highcharts-plot-background" x="0" y="0" width="120"
                                        height="47"></rect>
                                    <g className="highcharts-grid highcharts-xaxis-grid ">
                                        <path fill="none" className="highcharts-grid-line" d="M 33.5 0 L 33.5 47"
                                            opacity="1"></path>
                                        <path fill="none" opacity="1" className="highcharts-grid-line"
                                            d="M 117.5 0 L 117.5 47"></path>
                                    </g>
                                    <g className="highcharts-grid highcharts-yaxis-grid ">
                                        <path fill="none" stroke="transparent" stroke-width="1"
                                            className="highcharts-grid-line" d="M 0 47.5 L 120 47.5" opacity="1"></path>
                                        <path fill="none" stroke="transparent" stroke-width="1"
                                            className="highcharts-grid-line" d="M 0 -0.5 L 120 -0.5" opacity="1"></path>
                                    </g>
                                    <rect fill="none" className="highcharts-plot-border" x="0" y="0" width="120"
                                        height="47"></rect>
                                    <g className="highcharts-axis highcharts-xaxis ">
                                        <path fill="none" className="highcharts-tick" stroke="#ccd6eb" stroke-width="1"
                                            d="M 33.5 47 L 33.5 57" opacity="1"></path>
                                        <path fill="none" className="highcharts-tick" stroke="#ccd6eb" stroke-width="1"
                                            d="M 117.5 47 L 117.5 57" opacity="1"></path>
                                        <path fill="none" className="highcharts-axis-line" stroke="#ccd6eb" stroke-width="1"
                                            d="M 0 47.5 L 120 47.5"></path>
                                    </g>
                                    <g className="highcharts-axis highcharts-yaxis ">
                                        <path fill="none" className="highcharts-axis-line" d="M 0 0 L 0 47"></path>
                                    </g>
                                    <g className="highcharts-series-group">
                                        <g className="highcharts-series highcharts-series-0 highcharts-area-series highcharts-color-0 "
                                            transform="translate(0,0) scale(1 1)"
                                            clip-path="url(#highcharts-b1m2heq-3)">
                                            <path fill="url(#highcharts-b1m2heq-4)"
                                                d="M 0 7.135390669250306 L 0.5020920502092 6.581249072000013 L 1.0041841004184 7.258677920250179 L 1.5062761506276 9.80977067500018 L 2.0083682008368 11.963549905000114 L 2.510460251046 10.090518642000028 L 3.0125523012552 17.446884805000355 L 3.5146443514644 14.540658792999984 L 4.0167364016736 13.19447541650041 L 4.5188284518828 9.04294338524997 L 5.020920502092 6.173950984750178 L 5.5230125523013 5.675627962249806 L 6.0251046025105 5.831631537249599 L 6.5271966527197 4.787988312249638 L 7.0292887029289 4.840380387249951 L 7.5313807531381 5.141641821500379 L 8.0334728033473 5.296933757749926 L 8.5355648535565 7.373838777250299 L 9.0376569037657 7.861086484750125 L 9.5397489539749 7.32763449900029 L 10.041841004184 12.253450346499633 L 10.543933054393 13.196256740000045 L 11.046025104603 13.5161510774998 L 11.548117154812 14.021052842749633 L 12.050209205021 14.13267549275021 L 12.55230125523 13.956489765249735 L 13.054393305439 14.497045225250389 L 13.556485355649 14.388762630250334 L 14.058577405858 8.850187455249909 L 14.560669456067 8.472605494000312 L 15.062761506276 6.891028586499857 L 15.564853556485 8.651187046499672 L 16.066945606695 8.038810968749843 L 16.569037656904 11.480198438749724 L 17.071129707113 17.631828453750387 L 17.573221757322 16.72012161949997 L 18.075313807531 17.104533444499577 L 18.577405857741 16.952320959999618 L 19.07949790795 14.10966916899968 L 19.581589958159 11.628749482249624 L 20.083682008368 10.673277963499658 L 20.585774058577 11.668446211000251 L 21.087866108787 10.215837891000106 L 21.589958158996 8.041959557500086 L 22.092050209205 10.774929328499837 L 22.594142259414 10.744270335499806 L 23.096234309623 12.97775741775029 L 23.598326359833 14.323837887750251 L 24.100418410042 16.85837704274971 L 24.602510460251 17.575938027749654 L 25.10460251046 17.871008880499943 L 25.606694560669 21.150574457500408 L 26.108786610879 22.54386431249961 L 26.610878661088 23.38590719449965 L 27.112970711297 23.55321363499974 L 27.615062761506 23.87824641199961 L 28.117154811715 27.274116673249882 L 28.619246861925 29.19464628899983 L 29.121338912134 28.963048184250166 L 29.623430962343 27.45879327975039 L 30.125523012552 29.200382662499578 L 30.627615062762 28.303252137999735 L 31.129707112971 28.316870493750194 L 31.63179916318 27.092278032499962 L 32.133891213389 26.440651303000397 L 32.635983263598 22.717870908500338 L 33.138075313808 25.5061383649997 L 33.640167364017 28.062316284750253 L 34.142259414226 28.123640909500427 L 34.644351464435 28.276051181750063 L 35.146443514644 26.581802102500152 L 35.648535564854 25.11503162500003 L 36.150627615063 24.05069159750043 L 36.652719665272 22.313507442500125 L 37.154811715481 23.254071125249702 L 37.65690376569 23.348259771500217 L 38.1589958159 23.352124734250012 L 38.661087866109 25.82255000250023 L 39.163179916318 27.735293962500275 L 39.665271966527 28.301340424749817 L 40.167364016736 26.953679109749867 L 40.669456066946 26.16110859225035 L 41.171548117155 25.369517989499748 L 41.673640167364 24.966770641999666 L 42.175732217573 25.672938309999648 L 42.677824267782 24.69850845999996 L 43.179916317992 25.338066952500196 L 43.682008368201 25.202171622499993 L 44.18410041841 25.88524212750024 L 44.686192468619 24.800212911499987 L 45.188284518828 24.3297082725003 L 45.690376569038 24.057022791250038 L 46.192468619247 23.721180977750173 L 46.694560669456 22.564443897000093 L 47.196652719665 21.594093905500195 L 47.698744769874 21.205298884000186 L 48.200836820084 22.714404611500342 L 48.702928870293 24.2902459914998 L 49.205020920502 22.32772265124968 L 49.707112970711 22.26991253374983 L 50.20920502092 21.239489198500344 L 50.71129707113 21.777918143500084 L 51.213389121339 20.752964703499984 L 51.715481171548 20.644190312249723 L 52.217573221757 19.599650327249677 L 52.719665271967 18.163595324999644 L 53.221757322176 18.004233905499806 L 53.723849372385 15.819044222999874 L 54.225941422594 17.658475749999855 L 54.728033472803 14.24517838224989 L 55.230125523013 14.8553646124996 L 55.732217573222 15.495024389999926 L 56.234309623431 16.208903982500072 L 56.73640167364 15.88010981899999 L 57.238493723849 14.726268631499593 L 57.740585774059 9.889246206249723 L 58.242677824268 7.674250944999784 L 58.744769874477 11.526911562499812 L 59.246861924686 11.903994912500316 L 59.748953974895 13.921656843250041 L 60.251046025105 16.44510740574959 L 60.753138075314 17.62830291324983 L 61.255230125523 17.415068613249698 L 61.757322175732 17.41460813075026 L 62.259414225941 16.785681625750097 L 62.761506276151 13.980094328499653 L 63.26359832636 15.17584628550036 L 63.765690376569 13.538748477750218 L 64.267782426778 14.49512692024986 L 64.769874476987 16.467980120250104 L 65.271966527197 25.44704105850027 L 65.774058577406 27.26933831249984 L 66.276150627615 28.59269108649982 L 66.778242677824 28.218569159500404 L 67.280334728033 28.959079492499622 L 67.782426778243 27.581244612250085 L 68.284518828452 24.760125307249893 L 68.786610878661 25.747580149750156 L 69.28870292887 32.331934218000185 L 69.790794979079 37.39163466499989 L 70.292887029289 35.0429149097496 L 70.794979079498 31.19624142249966 L 71.297071129707 34.619669369999826 L 71.799163179916 35.92526858724963 L 72.301255230126 38.38706047249961 L 72.803347280335 40.24033110250015 L 73.305439330544 41.72421738200024 L 73.807531380753 40.82291600700024 L 74.309623430962 42.15538076500021 L 74.811715481172 42.908767734999714 L 75.313807531381 42.716697064999956 L 75.81589958159 43.624928119999986 L 76.317991631799 42.971782984999685 L 76.820083682008 37.36466524250038 L 77.322175732218 36.507517112749724 L 77.824267782427 33.363603452750326 L 78.326359832636 36.91437848774987 L 78.828451882845 39.0395947367501 L 79.330543933054 42.08522891750026 L 79.832635983264 40.2816446899997 L 80.334728033473 38.8545301452499 L 80.836820083682 35.9152071914996 L 81.338912133891 39.00579676650033 L 81.8410041841 39.37184674899996 L 82.34309623431 38.931095730249616 L 82.845188284519 38.076457729499616 L 83.347280334728 35.645768129499864 L 83.849372384937 33.54016025699997 L 84.351464435146 33.18539432825017 L 84.853556485356 31.575764119499603 L 85.355648535565 29.447307279249618 L 85.857740585774 30.948422466250015 L 86.359832635983 34.10555428875041 L 86.861924686192 31.851539674499964 L 87.364016736402 31.951675030999706 L 87.866108786611 32.24008680625009 L 88.36820083682 31.55364072599987 L 88.870292887029 30.05787500850007 L 89.372384937238 29.396449413499834 L 89.874476987448 27.75904436675015 L 90.376569037657 27.543924826249913 L 90.878661087866 27.327948087999903 L 91.380753138075 27.207406365500358 L 91.882845188285 27.364488637499765 L 92.384937238494 26.469844577499916 L 92.887029288703 25.176434951250176 L 93.389121338912 25.47080806550004 L 93.891213389121 24.004485779999815 L 94.393305439331 26.44007242749969 L 94.89539748954 29.517755309000403 L 95.397489539749 29.661352881499717 L 95.899581589958 31.8204274722503 L 96.401673640167 32.406797721500084 L 96.903765690377 35.287187316500294 L 97.405857740586 35.83020604649959 L 97.907949790795 33.90873638374995 L 98.410041841004 34.123847158750124 L 98.912133891213 32.138891106250284 L 99.414225941423 32.88178867499968 L 99.916317991632 33.85092444499991 L 100.41841004184 37.322328042000024 L 100.92050209205 38.488694517999576 L 101.42259414226 40.67836180824981 L 101.92468619247 43.016353319999766 L 102.42677824268 42.43015504374973 L 102.92887029289 42.50793522625027 L 103.4309623431 42.98833801825003 L 103.93305439331 41.53726698599992 L 104.43514644351 41.256057290999706 L 104.93723849372 41.75356404099988 L 105.43933054393 36.851653415750334 L 105.94142259414 34.185524671250334 L 106.44351464435 33.838712200000046 L 106.94560669456 36.9638628724996 L 107.44769874477 35.75606803500028 L 107.94979079498 36.538889577500285 L 108.45188284519 38.39094937000041 L 108.9539748954 32.98540600299994 L 109.45606694561 28.583161014000034 L 109.95815899582 26.24728228149985 L 110.46025104603 27.421027616499998 L 110.96234309623 22.827802333999973 L 111.46443514644 23.95983187900034 L 111.96652719665 26.34543322750011 L 112.46861924686 24.428450314000276 L 112.97071129707 25.29681867150035 L 113.47280334728 24.5097391874996 L 113.97489539749 23.550022217499954 L 114.4769874477 24.71822934275033 L 114.97907949791 23.30014581275038 L 115.48117154812 19.8288953652503 L 115.98326359833 20.361561405250033 L 116.48535564854 20.150287357750095 L 116.98744769874 19.38628097274965 L 117.48953974895 21.14103878024984 L 117.99163179916 17.916177572500313 L 118.49372384937 21.608005259250334 L 118.99581589958 22.948583345249737 L 119.49790794979 19.0632748592504 L 120 19.79672435875033 L 120 47 L 119.49790794979 47 L 118.99581589958 47 L 118.49372384937 47 L 117.99163179916 47 L 117.48953974895 47 L 116.98744769874 47 L 116.48535564854 47 L 115.98326359833 47 L 115.48117154812 47 L 114.97907949791 47 L 114.4769874477 47 L 113.97489539749 47 L 113.47280334728 47 L 112.97071129707 47 L 112.46861924686 47 L 111.96652719665 47 L 111.46443514644 47 L 110.96234309623 47 L 110.46025104603 47 L 109.95815899582 47 L 109.45606694561 47 L 108.9539748954 47 L 108.45188284519 47 L 107.94979079498 47 L 107.44769874477 47 L 106.94560669456 47 L 106.44351464435 47 L 105.94142259414 47 L 105.43933054393 47 L 104.93723849372 47 L 104.43514644351 47 L 103.93305439331 47 L 103.4309623431 47 L 102.92887029289 47 L 102.42677824268 47 L 101.92468619247 47 L 101.42259414226 47 L 100.92050209205 47 L 100.41841004184 47 L 99.916317991632 47 L 99.414225941423 47 L 98.912133891213 47 L 98.410041841004 47 L 97.907949790795 47 L 97.405857740586 47 L 96.903765690377 47 L 96.401673640167 47 L 95.899581589958 47 L 95.397489539749 47 L 94.89539748954 47 L 94.393305439331 47 L 93.891213389121 47 L 93.389121338912 47 L 92.887029288703 47 L 92.384937238494 47 L 91.882845188285 47 L 91.380753138075 47 L 90.878661087866 47 L 90.376569037657 47 L 89.874476987448 47 L 89.372384937238 47 L 88.870292887029 47 L 88.36820083682 47 L 87.866108786611 47 L 87.364016736402 47 L 86.861924686192 47 L 86.359832635983 47 L 85.857740585774 47 L 85.355648535565 47 L 84.853556485356 47 L 84.351464435146 47 L 83.849372384937 47 L 83.347280334728 47 L 82.845188284519 47 L 82.34309623431 47 L 81.8410041841 47 L 81.338912133891 47 L 80.836820083682 47 L 80.334728033473 47 L 79.832635983264 47 L 79.330543933054 47 L 78.828451882845 47 L 78.326359832636 47 L 77.824267782427 47 L 77.322175732218 47 L 76.820083682008 47 L 76.317991631799 47 L 75.81589958159 47 L 75.313807531381 47 L 74.811715481172 47 L 74.309623430962 47 L 73.807531380753 47 L 73.305439330544 47 L 72.803347280335 47 L 72.301255230126 47 L 71.799163179916 47 L 71.297071129707 47 L 70.794979079498 47 L 70.292887029289 47 L 69.790794979079 47 L 69.28870292887 47 L 68.786610878661 47 L 68.284518828452 47 L 67.782426778243 47 L 67.280334728033 47 L 66.778242677824 47 L 66.276150627615 47 L 65.774058577406 47 L 65.271966527197 47 L 64.769874476987 47 L 64.267782426778 47 L 63.765690376569 47 L 63.26359832636 47 L 62.761506276151 47 L 62.259414225941 47 L 61.757322175732 47 L 61.255230125523 47 L 60.753138075314 47 L 60.251046025105 47 L 59.748953974895 47 L 59.246861924686 47 L 58.744769874477 47 L 58.242677824268 47 L 57.740585774059 47 L 57.238493723849 47 L 56.73640167364 47 L 56.234309623431 47 L 55.732217573222 47 L 55.230125523013 47 L 54.728033472803 47 L 54.225941422594 47 L 53.723849372385 47 L 53.221757322176 47 L 52.719665271967 47 L 52.217573221757 47 L 51.715481171548 47 L 51.213389121339 47 L 50.71129707113 47 L 50.20920502092 47 L 49.707112970711 47 L 49.205020920502 47 L 48.702928870293 47 L 48.200836820084 47 L 47.698744769874 47 L 47.196652719665 47 L 46.694560669456 47 L 46.192468619247 47 L 45.690376569038 47 L 45.188284518828 47 L 44.686192468619 47 L 44.18410041841 47 L 43.682008368201 47 L 43.179916317992 47 L 42.677824267782 47 L 42.175732217573 47 L 41.673640167364 47 L 41.171548117155 47 L 40.669456066946 47 L 40.167364016736 47 L 39.665271966527 47 L 39.163179916318 47 L 38.661087866109 47 L 38.1589958159 47 L 37.65690376569 47 L 37.154811715481 47 L 36.652719665272 47 L 36.150627615063 47 L 35.648535564854 47 L 35.146443514644 47 L 34.644351464435 47 L 34.142259414226 47 L 33.640167364017 47 L 33.138075313808 47 L 32.635983263598 47 L 32.133891213389 47 L 31.63179916318 47 L 31.129707112971 47 L 30.627615062762 47 L 30.125523012552 47 L 29.623430962343 47 L 29.121338912134 47 L 28.619246861925 47 L 28.117154811715 47 L 27.615062761506 47 L 27.112970711297 47 L 26.610878661088 47 L 26.108786610879 47 L 25.606694560669 47 L 25.10460251046 47 L 24.602510460251 47 L 24.100418410042 47 L 23.598326359833 47 L 23.096234309623 47 L 22.594142259414 47 L 22.092050209205 47 L 21.589958158996 47 L 21.087866108787 47 L 20.585774058577 47 L 20.083682008368 47 L 19.581589958159 47 L 19.07949790795 47 L 18.577405857741 47 L 18.075313807531 47 L 17.573221757322 47 L 17.071129707113 47 L 16.569037656904 47 L 16.066945606695 47 L 15.564853556485 47 L 15.062761506276 47 L 14.560669456067 47 L 14.058577405858 47 L 13.556485355649 47 L 13.054393305439 47 L 12.55230125523 47 L 12.050209205021 47 L 11.548117154812 47 L 11.046025104603 47 L 10.543933054393 47 L 10.041841004184 47 L 9.5397489539749 47 L 9.0376569037657 47 L 8.5355648535565 47 L 8.0334728033473 47 L 7.5313807531381 47 L 7.0292887029289 47 L 6.5271966527197 47 L 6.0251046025105 47 L 5.5230125523013 47 L 5.020920502092 47 L 4.5188284518828 47 L 4.0167364016736 47 L 3.5146443514644 47 L 3.0125523012552 47 L 2.510460251046 47 L 2.0083682008368 47 L 1.5062761506276 47 L 1.0041841004184 47 L 0.5020920502092 47 L 0 47"
                                                className="highcharts-area"></path>
                                            <path fill="none"
                                                d="M 0 7.135390669250306 L 0.5020920502092 6.581249072000013 L 1.0041841004184 7.258677920250179 L 1.5062761506276 9.80977067500018 L 2.0083682008368 11.963549905000114 L 2.510460251046 10.090518642000028 L 3.0125523012552 17.446884805000355 L 3.5146443514644 14.540658792999984 L 4.0167364016736 13.19447541650041 L 4.5188284518828 9.04294338524997 L 5.020920502092 6.173950984750178 L 5.5230125523013 5.675627962249806 L 6.0251046025105 5.831631537249599 L 6.5271966527197 4.787988312249638 L 7.0292887029289 4.840380387249951 L 7.5313807531381 5.141641821500379 L 8.0334728033473 5.296933757749926 L 8.5355648535565 7.373838777250299 L 9.0376569037657 7.861086484750125 L 9.5397489539749 7.32763449900029 L 10.041841004184 12.253450346499633 L 10.543933054393 13.196256740000045 L 11.046025104603 13.5161510774998 L 11.548117154812 14.021052842749633 L 12.050209205021 14.13267549275021 L 12.55230125523 13.956489765249735 L 13.054393305439 14.497045225250389 L 13.556485355649 14.388762630250334 L 14.058577405858 8.850187455249909 L 14.560669456067 8.472605494000312 L 15.062761506276 6.891028586499857 L 15.564853556485 8.651187046499672 L 16.066945606695 8.038810968749843 L 16.569037656904 11.480198438749724 L 17.071129707113 17.631828453750387 L 17.573221757322 16.72012161949997 L 18.075313807531 17.104533444499577 L 18.577405857741 16.952320959999618 L 19.07949790795 14.10966916899968 L 19.581589958159 11.628749482249624 L 20.083682008368 10.673277963499658 L 20.585774058577 11.668446211000251 L 21.087866108787 10.215837891000106 L 21.589958158996 8.041959557500086 L 22.092050209205 10.774929328499837 L 22.594142259414 10.744270335499806 L 23.096234309623 12.97775741775029 L 23.598326359833 14.323837887750251 L 24.100418410042 16.85837704274971 L 24.602510460251 17.575938027749654 L 25.10460251046 17.871008880499943 L 25.606694560669 21.150574457500408 L 26.108786610879 22.54386431249961 L 26.610878661088 23.38590719449965 L 27.112970711297 23.55321363499974 L 27.615062761506 23.87824641199961 L 28.117154811715 27.274116673249882 L 28.619246861925 29.19464628899983 L 29.121338912134 28.963048184250166 L 29.623430962343 27.45879327975039 L 30.125523012552 29.200382662499578 L 30.627615062762 28.303252137999735 L 31.129707112971 28.316870493750194 L 31.63179916318 27.092278032499962 L 32.133891213389 26.440651303000397 L 32.635983263598 22.717870908500338 L 33.138075313808 25.5061383649997 L 33.640167364017 28.062316284750253 L 34.142259414226 28.123640909500427 L 34.644351464435 28.276051181750063 L 35.146443514644 26.581802102500152 L 35.648535564854 25.11503162500003 L 36.150627615063 24.05069159750043 L 36.652719665272 22.313507442500125 L 37.154811715481 23.254071125249702 L 37.65690376569 23.348259771500217 L 38.1589958159 23.352124734250012 L 38.661087866109 25.82255000250023 L 39.163179916318 27.735293962500275 L 39.665271966527 28.301340424749817 L 40.167364016736 26.953679109749867 L 40.669456066946 26.16110859225035 L 41.171548117155 25.369517989499748 L 41.673640167364 24.966770641999666 L 42.175732217573 25.672938309999648 L 42.677824267782 24.69850845999996 L 43.179916317992 25.338066952500196 L 43.682008368201 25.202171622499993 L 44.18410041841 25.88524212750024 L 44.686192468619 24.800212911499987 L 45.188284518828 24.3297082725003 L 45.690376569038 24.057022791250038 L 46.192468619247 23.721180977750173 L 46.694560669456 22.564443897000093 L 47.196652719665 21.594093905500195 L 47.698744769874 21.205298884000186 L 48.200836820084 22.714404611500342 L 48.702928870293 24.2902459914998 L 49.205020920502 22.32772265124968 L 49.707112970711 22.26991253374983 L 50.20920502092 21.239489198500344 L 50.71129707113 21.777918143500084 L 51.213389121339 20.752964703499984 L 51.715481171548 20.644190312249723 L 52.217573221757 19.599650327249677 L 52.719665271967 18.163595324999644 L 53.221757322176 18.004233905499806 L 53.723849372385 15.819044222999874 L 54.225941422594 17.658475749999855 L 54.728033472803 14.24517838224989 L 55.230125523013 14.8553646124996 L 55.732217573222 15.495024389999926 L 56.234309623431 16.208903982500072 L 56.73640167364 15.88010981899999 L 57.238493723849 14.726268631499593 L 57.740585774059 9.889246206249723 L 58.242677824268 7.674250944999784 L 58.744769874477 11.526911562499812 L 59.246861924686 11.903994912500316 L 59.748953974895 13.921656843250041 L 60.251046025105 16.44510740574959 L 60.753138075314 17.62830291324983 L 61.255230125523 17.415068613249698 L 61.757322175732 17.41460813075026 L 62.259414225941 16.785681625750097 L 62.761506276151 13.980094328499653 L 63.26359832636 15.17584628550036 L 63.765690376569 13.538748477750218 L 64.267782426778 14.49512692024986 L 64.769874476987 16.467980120250104 L 65.271966527197 25.44704105850027 L 65.774058577406 27.26933831249984 L 66.276150627615 28.59269108649982 L 66.778242677824 28.218569159500404 L 67.280334728033 28.959079492499622 L 67.782426778243 27.581244612250085 L 68.284518828452 24.760125307249893 L 68.786610878661 25.747580149750156 L 69.28870292887 32.331934218000185 L 69.790794979079 37.39163466499989 L 70.292887029289 35.0429149097496 L 70.794979079498 31.19624142249966 L 71.297071129707 34.619669369999826 L 71.799163179916 35.92526858724963 L 72.301255230126 38.38706047249961 L 72.803347280335 40.24033110250015 L 73.305439330544 41.72421738200024 L 73.807531380753 40.82291600700024 L 74.309623430962 42.15538076500021 L 74.811715481172 42.908767734999714 L 75.313807531381 42.716697064999956 L 75.81589958159 43.624928119999986 L 76.317991631799 42.971782984999685 L 76.820083682008 37.36466524250038 L 77.322175732218 36.507517112749724 L 77.824267782427 33.363603452750326 L 78.326359832636 36.91437848774987 L 78.828451882845 39.0395947367501 L 79.330543933054 42.08522891750026 L 79.832635983264 40.2816446899997 L 80.334728033473 38.8545301452499 L 80.836820083682 35.9152071914996 L 81.338912133891 39.00579676650033 L 81.8410041841 39.37184674899996 L 82.34309623431 38.931095730249616 L 82.845188284519 38.076457729499616 L 83.347280334728 35.645768129499864 L 83.849372384937 33.54016025699997 L 84.351464435146 33.18539432825017 L 84.853556485356 31.575764119499603 L 85.355648535565 29.447307279249618 L 85.857740585774 30.948422466250015 L 86.359832635983 34.10555428875041 L 86.861924686192 31.851539674499964 L 87.364016736402 31.951675030999706 L 87.866108786611 32.24008680625009 L 88.36820083682 31.55364072599987 L 88.870292887029 30.05787500850007 L 89.372384937238 29.396449413499834 L 89.874476987448 27.75904436675015 L 90.376569037657 27.543924826249913 L 90.878661087866 27.327948087999903 L 91.380753138075 27.207406365500358 L 91.882845188285 27.364488637499765 L 92.384937238494 26.469844577499916 L 92.887029288703 25.176434951250176 L 93.389121338912 25.47080806550004 L 93.891213389121 24.004485779999815 L 94.393305439331 26.44007242749969 L 94.89539748954 29.517755309000403 L 95.397489539749 29.661352881499717 L 95.899581589958 31.8204274722503 L 96.401673640167 32.406797721500084 L 96.903765690377 35.287187316500294 L 97.405857740586 35.83020604649959 L 97.907949790795 33.90873638374995 L 98.410041841004 34.123847158750124 L 98.912133891213 32.138891106250284 L 99.414225941423 32.88178867499968 L 99.916317991632 33.85092444499991 L 100.41841004184 37.322328042000024 L 100.92050209205 38.488694517999576 L 101.42259414226 40.67836180824981 L 101.92468619247 43.016353319999766 L 102.42677824268 42.43015504374973 L 102.92887029289 42.50793522625027 L 103.4309623431 42.98833801825003 L 103.93305439331 41.53726698599992 L 104.43514644351 41.256057290999706 L 104.93723849372 41.75356404099988 L 105.43933054393 36.851653415750334 L 105.94142259414 34.185524671250334 L 106.44351464435 33.838712200000046 L 106.94560669456 36.9638628724996 L 107.44769874477 35.75606803500028 L 107.94979079498 36.538889577500285 L 108.45188284519 38.39094937000041 L 108.9539748954 32.98540600299994 L 109.45606694561 28.583161014000034 L 109.95815899582 26.24728228149985 L 110.46025104603 27.421027616499998 L 110.96234309623 22.827802333999973 L 111.46443514644 23.95983187900034 L 111.96652719665 26.34543322750011 L 112.46861924686 24.428450314000276 L 112.97071129707 25.29681867150035 L 113.47280334728 24.5097391874996 L 113.97489539749 23.550022217499954 L 114.4769874477 24.71822934275033 L 114.97907949791 23.30014581275038 L 115.48117154812 19.8288953652503 L 115.98326359833 20.361561405250033 L 116.48535564854 20.150287357750095 L 116.98744769874 19.38628097274965 L 117.48953974895 21.14103878024984 L 117.99163179916 17.916177572500313 L 118.49372384937 21.608005259250334 L 118.99581589958 22.948583345249737 L 119.49790794979 19.0632748592504 L 120 19.79672435875033"
                                                className="highcharts-graph" stroke="#24AE8F" stroke-width="1"
                                                stroke-linejoin="round" stroke-linecap="round"></path>
                                            <path fill="none"
                                                d="M -10 7.135390669250306 L 0 7.135390669250306 L 0.5020920502092 6.581249072000013 L 1.0041841004184 7.258677920250179 L 1.5062761506276 9.80977067500018 L 2.0083682008368 11.963549905000114 L 2.510460251046 10.090518642000028 L 3.0125523012552 17.446884805000355 L 3.5146443514644 14.540658792999984 L 4.0167364016736 13.19447541650041 L 4.5188284518828 9.04294338524997 L 5.020920502092 6.173950984750178 L 5.5230125523013 5.675627962249806 L 6.0251046025105 5.831631537249599 L 6.5271966527197 4.787988312249638 L 7.0292887029289 4.840380387249951 L 7.5313807531381 5.141641821500379 L 8.0334728033473 5.296933757749926 L 8.5355648535565 7.373838777250299 L 9.0376569037657 7.861086484750125 L 9.5397489539749 7.32763449900029 L 10.041841004184 12.253450346499633 L 10.543933054393 13.196256740000045 L 11.046025104603 13.5161510774998 L 11.548117154812 14.021052842749633 L 12.050209205021 14.13267549275021 L 12.55230125523 13.956489765249735 L 13.054393305439 14.497045225250389 L 13.556485355649 14.388762630250334 L 14.058577405858 8.850187455249909 L 14.560669456067 8.472605494000312 L 15.062761506276 6.891028586499857 L 15.564853556485 8.651187046499672 L 16.066945606695 8.038810968749843 L 16.569037656904 11.480198438749724 L 17.071129707113 17.631828453750387 L 17.573221757322 16.72012161949997 L 18.075313807531 17.104533444499577 L 18.577405857741 16.952320959999618 L 19.07949790795 14.10966916899968 L 19.581589958159 11.628749482249624 L 20.083682008368 10.673277963499658 L 20.585774058577 11.668446211000251 L 21.087866108787 10.215837891000106 L 21.589958158996 8.041959557500086 L 22.092050209205 10.774929328499837 L 22.594142259414 10.744270335499806 L 23.096234309623 12.97775741775029 L 23.598326359833 14.323837887750251 L 24.100418410042 16.85837704274971 L 24.602510460251 17.575938027749654 L 25.10460251046 17.871008880499943 L 25.606694560669 21.150574457500408 L 26.108786610879 22.54386431249961 L 26.610878661088 23.38590719449965 L 27.112970711297 23.55321363499974 L 27.615062761506 23.87824641199961 L 28.117154811715 27.274116673249882 L 28.619246861925 29.19464628899983 L 29.121338912134 28.963048184250166 L 29.623430962343 27.45879327975039 L 30.125523012552 29.200382662499578 L 30.627615062762 28.303252137999735 L 31.129707112971 28.316870493750194 L 31.63179916318 27.092278032499962 L 32.133891213389 26.440651303000397 L 32.635983263598 22.717870908500338 L 33.138075313808 25.5061383649997 L 33.640167364017 28.062316284750253 L 34.142259414226 28.123640909500427 L 34.644351464435 28.276051181750063 L 35.146443514644 26.581802102500152 L 35.648535564854 25.11503162500003 L 36.150627615063 24.05069159750043 L 36.652719665272 22.313507442500125 L 37.154811715481 23.254071125249702 L 37.65690376569 23.348259771500217 L 38.1589958159 23.352124734250012 L 38.661087866109 25.82255000250023 L 39.163179916318 27.735293962500275 L 39.665271966527 28.301340424749817 L 40.167364016736 26.953679109749867 L 40.669456066946 26.16110859225035 L 41.171548117155 25.369517989499748 L 41.673640167364 24.966770641999666 L 42.175732217573 25.672938309999648 L 42.677824267782 24.69850845999996 L 43.179916317992 25.338066952500196 L 43.682008368201 25.202171622499993 L 44.18410041841 25.88524212750024 L 44.686192468619 24.800212911499987 L 45.188284518828 24.3297082725003 L 45.690376569038 24.057022791250038 L 46.192468619247 23.721180977750173 L 46.694560669456 22.564443897000093 L 47.196652719665 21.594093905500195 L 47.698744769874 21.205298884000186 L 48.200836820084 22.714404611500342 L 48.702928870293 24.2902459914998 L 49.205020920502 22.32772265124968 L 49.707112970711 22.26991253374983 L 50.20920502092 21.239489198500344 L 50.71129707113 21.777918143500084 L 51.213389121339 20.752964703499984 L 51.715481171548 20.644190312249723 L 52.217573221757 19.599650327249677 L 52.719665271967 18.163595324999644 L 53.221757322176 18.004233905499806 L 53.723849372385 15.819044222999874 L 54.225941422594 17.658475749999855 L 54.728033472803 14.24517838224989 L 55.230125523013 14.8553646124996 L 55.732217573222 15.495024389999926 L 56.234309623431 16.208903982500072 L 56.73640167364 15.88010981899999 L 57.238493723849 14.726268631499593 L 57.740585774059 9.889246206249723 L 58.242677824268 7.674250944999784 L 58.744769874477 11.526911562499812 L 59.246861924686 11.903994912500316 L 59.748953974895 13.921656843250041 L 60.251046025105 16.44510740574959 L 60.753138075314 17.62830291324983 L 61.255230125523 17.415068613249698 L 61.757322175732 17.41460813075026 L 62.259414225941 16.785681625750097 L 62.761506276151 13.980094328499653 L 63.26359832636 15.17584628550036 L 63.765690376569 13.538748477750218 L 64.267782426778 14.49512692024986 L 64.769874476987 16.467980120250104 L 65.271966527197 25.44704105850027 L 65.774058577406 27.26933831249984 L 66.276150627615 28.59269108649982 L 66.778242677824 28.218569159500404 L 67.280334728033 28.959079492499622 L 67.782426778243 27.581244612250085 L 68.284518828452 24.760125307249893 L 68.786610878661 25.747580149750156 L 69.28870292887 32.331934218000185 L 69.790794979079 37.39163466499989 L 70.292887029289 35.0429149097496 L 70.794979079498 31.19624142249966 L 71.297071129707 34.619669369999826 L 71.799163179916 35.92526858724963 L 72.301255230126 38.38706047249961 L 72.803347280335 40.24033110250015 L 73.305439330544 41.72421738200024 L 73.807531380753 40.82291600700024 L 74.309623430962 42.15538076500021 L 74.811715481172 42.908767734999714 L 75.313807531381 42.716697064999956 L 75.81589958159 43.624928119999986 L 76.317991631799 42.971782984999685 L 76.820083682008 37.36466524250038 L 77.322175732218 36.507517112749724 L 77.824267782427 33.363603452750326 L 78.326359832636 36.91437848774987 L 78.828451882845 39.0395947367501 L 79.330543933054 42.08522891750026 L 79.832635983264 40.2816446899997 L 80.334728033473 38.8545301452499 L 80.836820083682 35.9152071914996 L 81.338912133891 39.00579676650033 L 81.8410041841 39.37184674899996 L 82.34309623431 38.931095730249616 L 82.845188284519 38.076457729499616 L 83.347280334728 35.645768129499864 L 83.849372384937 33.54016025699997 L 84.351464435146 33.18539432825017 L 84.853556485356 31.575764119499603 L 85.355648535565 29.447307279249618 L 85.857740585774 30.948422466250015 L 86.359832635983 34.10555428875041 L 86.861924686192 31.851539674499964 L 87.364016736402 31.951675030999706 L 87.866108786611 32.24008680625009 L 88.36820083682 31.55364072599987 L 88.870292887029 30.05787500850007 L 89.372384937238 29.396449413499834 L 89.874476987448 27.75904436675015 L 90.376569037657 27.543924826249913 L 90.878661087866 27.327948087999903 L 91.380753138075 27.207406365500358 L 91.882845188285 27.364488637499765 L 92.384937238494 26.469844577499916 L 92.887029288703 25.176434951250176 L 93.389121338912 25.47080806550004 L 93.891213389121 24.004485779999815 L 94.393305439331 26.44007242749969 L 94.89539748954 29.517755309000403 L 95.397489539749 29.661352881499717 L 95.899581589958 31.8204274722503 L 96.401673640167 32.406797721500084 L 96.903765690377 35.287187316500294 L 97.405857740586 35.83020604649959 L 97.907949790795 33.90873638374995 L 98.410041841004 34.123847158750124 L 98.912133891213 32.138891106250284 L 99.414225941423 32.88178867499968 L 99.916317991632 33.85092444499991 L 100.41841004184 37.322328042000024 L 100.92050209205 38.488694517999576 L 101.42259414226 40.67836180824981 L 101.92468619247 43.016353319999766 L 102.42677824268 42.43015504374973 L 102.92887029289 42.50793522625027 L 103.4309623431 42.98833801825003 L 103.93305439331 41.53726698599992 L 104.43514644351 41.256057290999706 L 104.93723849372 41.75356404099988 L 105.43933054393 36.851653415750334 L 105.94142259414 34.185524671250334 L 106.44351464435 33.838712200000046 L 106.94560669456 36.9638628724996 L 107.44769874477 35.75606803500028 L 107.94979079498 36.538889577500285 L 108.45188284519 38.39094937000041 L 108.9539748954 32.98540600299994 L 109.45606694561 28.583161014000034 L 109.95815899582 26.24728228149985 L 110.46025104603 27.421027616499998 L 110.96234309623 22.827802333999973 L 111.46443514644 23.95983187900034 L 111.96652719665 26.34543322750011 L 112.46861924686 24.428450314000276 L 112.97071129707 25.29681867150035 L 113.47280334728 24.5097391874996 L 113.97489539749 23.550022217499954 L 114.4769874477 24.71822934275033 L 114.97907949791 23.30014581275038 L 115.48117154812 19.8288953652503 L 115.98326359833 20.361561405250033 L 116.48535564854 20.150287357750095 L 116.98744769874 19.38628097274965 L 117.48953974895 21.14103878024984 L 117.99163179916 17.916177572500313 L 118.49372384937 21.608005259250334 L 118.99581589958 22.948583345249737 L 119.49790794979 19.0632748592504 L 120 19.79672435875033 L 130 19.79672435875033"
                                                stroke-linejoin="round" visibility="visible"
                                                stroke="rgba(192,192,192,0.0001)" stroke-width="21"
                                                className="highcharts-tracker"></path>
                                        </g>
                                        <g className="highcharts-markers highcharts-series-0 highcharts-area-series highcharts-color-0 highcharts-tracker "
                                            transform="translate(0,0) scale(1 1)">
                                            <path fill="#7cb5ec"
                                                d="M 5 6.173950984750178 A 0 0 0 1 1 5 6.173950984750178 Z"
                                                className="highcharts-halo highcharts-color-0" fill-opacity="0.25"></path>
                                            <path fill="#7cb5ec"
                                                d="M 9 6.173950984750178 A 4 4 0 1 1 8.999998000000167 6.169950985416842 Z"
                                                stroke="#ffffff" stroke-width="1" visibility="hidden"></path>
                                        </g>
                                    </g>
                                    <g className="highcharts-axis-labels highcharts-xaxis-labels "></g>
                                    <g className="highcharts-axis-labels highcharts-yaxis-labels "></g>
                                </svg>