<svg width="40" height="40" viewBox="0 0 40 40" fill="none" xmlns="http://www.w3.org/2000/svg">
<rect opacity="0.08" x="2" y="2" width="36" height="36" rx="8" fill="#737E8D"/>
<path fillRule="evenodd" clip-rule="evenodd" d="M31 16.5C31 19.9506 28.6697 22.8569 25.4971 23.7312C25.499 23.6544 25.5 23.5773 25.5 23.5C25.5 18.5294 21.4705 14.5 16.5 14.5C16.4227 14.5 16.3456 14.501 16.2688 14.5029C17.1431 11.3302 20.0494 9 23.5 9C27.6421 9 31 12.3579 31 16.5Z" fill="#737E8D"/>
<path d="M24 23.5C24 27.6421 20.6421 31 16.5 31C12.3579 31 9 27.6421 9 23.5C9 19.3579 12.3579 16 16.5 16C20.6421 16 24 19.3579 24 23.5Z" fill="#2DBD96"/>
<rect x="16.5" y="21.3787" width="3" height="3" transform="rotate(45 16.5 21.3787)" fill="white"/>
<path fillRule="evenodd" clip-rule="evenodd" d="M29.999 29.0854L29.999 27.5854H26.9494L27.7125 26.8224L26.6519 25.7617L24.0002 28.4134L26.6519 31.065L27.7125 30.0044L26.7936 29.0854L29.999 29.0854Z" fill="#737E8D"/>
<path fillRule="evenodd" clip-rule="evenodd" d="M9.75 10.6633L9.75 12.1633L12.7996 12.1633L12.0365 12.9264L13.0972 13.9871L15.7488 11.3354L13.0972 8.68376L12.0365 9.74442L12.9554 10.6633L9.75 10.6633Z" fill="#2DBD96"/>
</svg>
