<svg width="40" height="40" viewBox="0 0 40 40" fill="none" xmlns="http://www.w3.org/2000/svg">
<rect opacity="0.08" x="2" y="2" width="36" height="36" rx="8" fill="#737E8D"/>
<circle cx="20" cy="15.5" r="6.5" fill="#2DBD96"/>
<rect x="20" y="13.3787" width="3" height="3" transform="rotate(45 20 13.3787)" fill="white"/>
<path d="M22.8381 30.5H16.5L8 24L8.05143 23.9657C8.94719 23.3685 10.0943 23.2971 11.0572 23.7786L11.5 24L15.547 26.2483C15.8441 26.4134 16.1784 26.5 16.5183 26.5H19.5L18 26C17.1716 25.7239 16.7239 24.8284 17 24H26.1202C26.996 24 27.828 24.3827 28.398 25.0476L30.5 27.5L27 32L25.9251 31.355C24.9926 30.7955 23.9256 30.5 22.8381 30.5Z" fill="#737E8D"/>
</svg>
