<svg width="24" height="24" viewBox="0 0 24 24" fill="none" xmlns="http://www.w3.org/2000/svg">
<rect x="6" y="4" width="12" height="17" fill="white"/>
<path fill-rule="evenodd" clip-rule="evenodd" d="M10.306 18.528H13.0036V11.9992H14.8032L15.0416 9.7496H13.0036L13.0064 8.6232C13.0064 8.0368 13.0624 7.722 13.904 7.722H15.0288V5.472H13.2288C11.0668 5.472 10.306 6.5636 10.306 8.3988V9.7496H8.9584V11.9996H10.306V18.528ZM12 24C5.3728 24 0 18.6272 0 12C0 5.3724 5.3728 0 12 0C18.6272 0 24 5.3724 24 12C24 18.6272 18.6272 24 12 24Z" fill="#4267B2"/>
</svg>
