<svg width="24" height="24" viewBox="0 0 24 24" fill="none" xmlns="http://www.w3.org/2000/svg">
<path d="M12 24C18.6274 24 24 18.6274 24 12C24 5.37258 18.6274 0 12 0C5.37258 0 0 5.37258 0 12C0 18.6274 5.37258 24 12 24Z" fill="#0088CC"/>
<path d="M19.2892 6.65986C19.2403 7.03595 19.1687 7.40874 19.0749 7.77622L17.0634 17.2808C17.035 17.4652 16.9741 17.643 16.8837 17.8062C16.822 17.9292 16.7188 18.0265 16.5923 18.0809C16.4658 18.1353 16.3242 18.1433 16.1924 18.1034C16.0053 18.0573 15.8299 17.9725 15.6775 17.8546C14.6648 17.1011 13.6487 16.358 12.6394 15.6011C12.6195 15.5786 12.5946 15.5609 12.5668 15.5495C12.539 15.538 12.5089 15.5331 12.4788 15.5351C12.4488 15.5371 12.4196 15.546 12.3935 15.561C12.3675 15.576 12.3452 15.5968 12.3284 15.6218C11.8307 16.1195 11.3226 16.6034 10.8249 17.0942C10.7382 17.1907 10.6313 17.267 10.5119 17.3177C10.3925 17.3685 10.2634 17.3925 10.1337 17.388C10.0494 17.3947 9.9655 17.3703 9.89798 17.3193C9.83046 17.2684 9.78398 17.1944 9.76733 17.1115C9.45627 16.1368 9.13829 15.1656 8.82032 14.191C8.71318 13.8453 8.60258 13.5308 8.50235 13.199C8.48986 13.1455 8.46245 13.0967 8.42329 13.0581C8.38414 13.0196 8.33485 12.9929 8.28115 12.9813C7.29267 12.6771 6.30419 12.3661 5.31226 12.055C5.18038 12.02 5.0537 11.9677 4.93553 11.8995C4.86923 11.8799 4.81034 11.8408 4.76647 11.7874C4.7226 11.7339 4.69577 11.6686 4.68944 11.5997C4.68311 11.5308 4.69758 11.4617 4.73098 11.4011C4.76437 11.3406 4.81516 11.2915 4.87677 11.2601C5.04818 11.1163 5.24517 11.006 5.45742 10.9352L9.50465 9.37299L18.2454 6.00317L18.3146 5.97553C18.8676 5.75433 19.2858 6.04119 19.2892 6.65986ZM10.1475 16.441C10.2028 16.4133 10.1959 16.3788 10.1994 16.3511C10.265 15.6391 10.3341 14.9306 10.3929 14.2186C10.3956 14.1362 10.4154 14.0552 10.4511 13.9808C10.4868 13.9064 10.5376 13.8403 10.6003 13.7866C12.4966 12.0838 14.3918 10.3753 16.2858 8.66101C16.4067 8.55387 16.5277 8.44672 16.6314 8.33612C16.6798 8.28774 16.742 8.23589 16.704 8.15986C16.6659 8.08382 16.583 8.08382 16.507 8.09419C16.3662 8.11831 16.2327 8.17383 16.1164 8.25663C13.7892 9.73359 11.4563 11.2071 9.11756 12.6771C9.08997 12.6889 9.06516 12.7063 9.04473 12.7282C9.02429 12.7501 9.00868 12.7761 8.99891 12.8044C8.98914 12.8328 8.98542 12.8629 8.988 12.8927C8.99057 12.9226 8.99939 12.9516 9.01387 12.9778C9.30419 13.8453 9.58415 14.7059 9.86756 15.5804C9.97124 15.8638 10.0646 16.1506 10.1475 16.441Z" fill="#FDFDFD"/>
</svg>
