<svg width="24" height="24" viewBox="0 0 24 24" fill="none" xmlns="http://www.w3.org/2000/svg">
<circle cx="12" cy="12" r="12" fill="black"/>
<path d="M7.02269 14.5008C7.12573 13.6476 7.47562 13.17 8.13497 12.6803C9.07839 12.0172 10.2569 12.3923 10.2569 12.3923V10.1669C10.5434 10.1596 10.83 10.1766 11.1133 10.2177V13.0815C11.1133 13.0815 9.93523 12.7064 8.99181 13.3699C8.33282 13.8592 7.98221 14.3372 7.87953 15.1903C7.87631 15.6536 7.96325 16.2591 8.36358 16.7827C8.2646 16.732 8.16371 16.6741 8.06092 16.6092C7.17903 16.017 7.0184 15.1286 7.02269 14.5008ZM15.9793 6.05222C15.3303 5.34106 15.0849 4.62305 14.9961 4.11865H15.8125C15.8125 4.11865 15.6498 5.44119 16.8361 6.74178L16.8526 6.75927C16.5328 6.55814 16.2396 6.32074 15.9793 6.05222ZM19.9121 8.06843V10.8747C19.9121 10.8747 18.8703 10.8339 18.0994 10.6377C17.0229 10.3634 16.3309 9.94268 16.3309 9.94268C16.3309 9.94268 15.853 9.64265 15.8143 9.62173V15.4166C15.8143 15.7393 15.726 16.5451 15.4566 17.2171C15.1049 18.0963 14.5622 18.6734 14.4624 18.7914C14.4624 18.7914 13.8023 19.5714 12.6378 20.0968C11.5881 20.5706 10.6665 20.5586 10.391 20.5706C10.391 20.5706 8.79791 20.6337 7.36435 19.7021C7.05436 19.4967 6.76499 19.2642 6.5 19.0074L6.50716 19.0125C7.94107 19.9442 9.53382 19.8811 9.53382 19.8811C9.80966 19.8691 10.7313 19.8811 11.7806 19.4072C12.944 18.8819 13.6052 18.1018 13.6052 18.1018C13.7039 17.9839 14.2491 17.4068 14.5994 16.5272C14.8681 15.8555 14.9571 15.0494 14.9571 14.7267V8.93252C14.9958 8.95378 15.4734 9.25381 15.4734 9.25381C15.4734 9.25381 16.1657 9.67488 17.2422 9.94885C18.0135 10.145 19.0549 10.1858 19.0549 10.1858V7.98682C19.4113 8.06672 19.715 8.08832 19.9121 8.06843Z" fill="#EE1D52"/>
<path d="M19.0548 7.98682V10.1851C19.0548 10.1851 18.0134 10.1443 17.2421 9.94817C16.1655 9.67385 15.4733 9.25312 15.4733 9.25312C15.4733 9.25312 14.9957 8.95309 14.957 8.93183V14.7274C14.957 15.0501 14.8687 15.8562 14.5993 16.5279C14.2476 17.4075 13.7049 17.9845 13.605 18.1025C13.605 18.1025 12.9446 18.8826 11.7805 19.4079C10.7311 19.8818 9.80955 19.8698 9.53371 19.8818C9.53371 19.8818 7.94095 19.9449 6.50704 19.0132L6.49989 19.0081C6.3485 18.8615 6.20599 18.7067 6.07308 18.5445C5.6155 17.9866 5.33501 17.3269 5.26453 17.1386C5.26441 17.1378 5.26441 17.137 5.26453 17.1362C5.15112 16.8091 4.91285 16.0235 4.94541 15.2627C5.00301 13.9202 5.47526 13.0963 5.60011 12.8898C5.9308 12.3269 6.36089 11.8233 6.87124 11.4013C7.32161 11.0372 7.83208 10.7475 8.38172 10.5441C8.9759 10.3053 9.61216 10.1773 10.2564 10.1669V12.3923C10.2564 12.3923 9.07792 12.0186 8.13486 12.6803C7.4755 13.17 7.12561 13.6476 7.02258 14.5008C7.01828 15.1286 7.17892 16.017 8.06009 16.6095C8.16289 16.6747 8.26377 16.7325 8.36275 16.783C8.5167 16.9831 8.70406 17.1575 8.91729 17.2991C9.77806 17.844 10.4993 17.882 11.4216 17.5281C12.0366 17.2916 12.4996 16.7584 12.7142 16.1676C12.8491 15.7986 12.8473 15.4272 12.8473 15.0432V4.11865H14.9939C15.0826 4.62305 15.328 5.34106 15.977 6.05222C16.2373 6.32074 16.5306 6.55814 16.8503 6.75927C16.9448 6.85699 17.4277 7.34013 18.0477 7.63673C18.3683 7.79004 18.7062 7.90751 19.0548 7.98682Z" fill="white"/>
<path d="M4.41016 16.4551V16.4568L4.46342 16.6011C4.4573 16.5843 4.43751 16.5333 4.41016 16.4551Z" fill="#69C9D0"/>
<path d="M8.38204 10.5442C7.8324 10.7476 7.32193 11.0373 6.87156 11.4014C6.36104 11.8243 5.93106 12.329 5.60079 12.893C5.47593 13.0987 5.00369 13.9234 4.94609 15.2658C4.91353 16.0267 5.1518 16.8123 5.26521 17.1394C5.26509 17.1402 5.26509 17.141 5.26521 17.1418C5.33676 17.3283 5.61618 17.988 6.07376 18.5476C6.20667 18.7099 6.34918 18.8646 6.50057 19.0112C6.01551 18.6897 5.58291 18.301 5.21691 17.8577C4.76327 17.3047 4.4835 16.6518 4.41052 16.4591C4.41043 16.4577 4.41043 16.4563 4.41052 16.455V16.4526C4.29675 16.1258 4.05777 15.3399 4.09104 14.578C4.14864 13.2355 4.62088 12.4116 4.74574 12.2052C5.07591 11.6411 5.50591 11.1364 6.01651 10.7136C6.46678 10.3493 6.97727 10.0596 7.52698 9.85634C7.86987 9.71999 8.22706 9.6194 8.5924 9.55631C9.14298 9.46419 9.70531 9.45621 10.2585 9.53265V10.167C9.61367 10.1771 8.97677 10.3051 8.38204 10.5442Z" fill="#69C9D0"/>
<path d="M14.9958 4.11861H12.8493V15.0435C12.8493 15.4275 12.8493 15.7979 12.7162 16.1679C12.4994 16.7583 12.0382 17.2915 11.4236 17.5281C10.5009 17.8833 9.77966 17.8439 8.91924 17.2991C8.70565 17.1581 8.5178 16.9843 8.36328 16.7847C9.09634 17.1595 9.75247 17.153 10.5653 16.8403C11.1796 16.6037 11.6415 16.0705 11.8575 15.4797C11.9928 15.1107 11.991 14.7394 11.991 14.3557V3.42871H14.955C14.955 3.42871 14.9218 3.70028 14.9958 4.11861ZM19.055 7.37883V7.98678C18.707 7.90735 18.3697 7.78988 18.0497 7.63669C17.4297 7.34009 16.9467 6.85695 16.8523 6.75923C16.9619 6.82819 17.0756 6.89093 17.1929 6.94713C17.9467 7.30785 18.689 7.41552 19.055 7.37883Z" fill="#69C9D0"/>
</svg>
