<svg width="24" height="24" viewBox="0 0 24 24" fill="none" xmlns="http://www.w3.org/2000/svg">
<path d="M24 12C24 5.37258 18.6274 0 12 0C5.37258 0 0 5.37258 0 12C0 18.6274 5.37258 24 12 24C18.6274 24 24 18.6274 24 12Z" fill="#1DA1F2"/>
<path d="M14.8729 5.75763C13.1703 5.80077 11.8045 7.19434 11.8045 8.90763C11.8045 9.15427 11.8309 9.39538 11.8849 9.62643C9.26572 9.49485 6.94361 8.24031 5.38927 6.33363C5.118 6.79884 4.96207 7.34074 4.96207 7.91883C4.96207 9.01201 5.51926 9.97584 6.36487 10.5408C5.84852 10.5243 5.36186 10.3821 4.93687 10.146C4.93663 10.1591 4.93687 10.1734 4.93687 10.1868C4.93687 11.7134 6.02349 12.9857 7.46527 13.2756C7.20086 13.3473 6.92235 13.386 6.63487 13.386C6.43157 13.386 6.23445 13.3667 6.04207 13.3296C6.44336 14.5815 7.60567 15.4932 8.98447 15.5184C7.90594 16.3637 6.54917 16.8672 5.07247 16.8672C4.81835 16.8672 4.5667 16.8533 4.32007 16.824C5.71508 17.7186 7.3706 18.24 9.15007 18.24C14.9468 18.24 18.1165 13.4381 18.1165 9.27363C18.1165 9.13706 18.114 8.99975 18.1081 8.86443C18.7236 8.42104 19.2579 7.86566 19.6801 7.23363C19.1154 7.48463 18.5081 7.65466 17.8705 7.73043C18.5215 7.34067 19.0211 6.72331 19.2565 5.98683C18.6475 6.34821 17.973 6.61087 17.2549 6.75243C16.6802 6.14005 15.8609 5.75763 14.9545 5.75763C14.9273 5.75763 14.8999 5.75694 14.8729 5.75763V5.75763Z" fill="white"/>
</svg>
