<svg width="24" height="24" viewBox="0 0 24 24" fill="none" xmlns="http://www.w3.org/2000/svg">
<path d="M12 24C5.3736 24 0 18.6264 0 12C0 5.3736 5.3736 0 12 0C18.6264 0 24 5.3736 24 12C24 18.6264 18.6264 24 12 24Z" fill="#FF0000"/>
<path d="M19.6368 8.13843C19.4544 7.44723 18.9144 6.90483 18.228 6.72003C16.9848 6.38403 12.0024 6.38403 12.0024 6.38403C12.0024 6.38403 7.01758 6.38403 5.77678 6.72003C5.09038 6.90483 4.55038 7.44723 4.36798 8.13843C4.03198 9.38883 4.03198 12 4.03198 12C4.03198 12 4.03198 14.6112 4.36558 15.8616C4.54798 16.5528 5.08798 17.0952 5.77438 17.28C7.01758 17.616 12 17.616 12 17.616C12 17.616 16.9848 17.616 18.2256 17.28C18.912 17.0952 19.452 16.5528 19.6344 15.8616C19.968 14.6112 19.968 12 19.968 12C19.968 12 19.968 9.38883 19.6368 8.13843ZM10.3704 14.3688V9.63123L14.5344 12L10.3704 14.3688Z" fill="white"/>
</svg>
