<svg width="126" height="126" viewBox="0 0 126 126" fill="none" xmlns="http://www.w3.org/2000/svg">
<path d="M109.417 73.7397L63.4551 99.6338V122.938L110.712 95.1024L109.417 73.7397Z" fill="#1F1CD6"/>
<path d="M15.5527 96.3971V73.7397L62.8094 100.929V123.586L15.5527 96.3971Z" fill="#4340DA"/>
<path d="M60.8676 47.8457L16.8477 73.7398L63.457 100.281L108.772 73.7398L60.8676 47.8457Z" fill="#4340DA" fill-opacity="0.8"/>
<path d="M15.5527 73.5578V95.9682M15.5527 73.5578L37.9631 60.4039M15.5527 73.5578L39.4247 87.0365M15.5527 95.9682L39.4247 109.934M15.5527 95.9682L60.3735 72.6549M63.2966 123.9L110.066 95.9682M63.2966 123.9V100.515M63.2966 123.9L39.4247 109.934M110.066 95.9682V73.5578M110.066 95.9682L87.9761 85.7418M110.066 73.5578L60.3735 47.25M110.066 73.5578L87.9761 85.7418M60.3735 47.25L37.9631 60.4039M60.3735 47.25V72.6549M63.2966 100.515L87.9761 85.7418M63.2966 100.515L39.4247 87.0365M87.9761 85.7418L60.3735 72.6549M37.9631 60.4039L60.3735 72.6549M39.4247 87.0365V109.934" stroke="black" stroke-width="1.05"/>
<path d="M21 31.3877L31.0652 25.9999L45 31.8368V41.7143L34.5322 47.9725L34.4874 48L21 41.7141V31.3877Z" fill="#FFBD36"/>
<path d="M21 31.3877L31.0652 25.9999L45 31.8368M21 31.3877V41.7141L34.4874 48L34.5322 47.9725M21 31.3877L34.4874 37.6735M45 31.8368V41.7143L34.5322 47.9725M45 31.8368L34.4874 37.6735M34.4874 37.6735L34.5322 47.9725" stroke="black"/>
<path d="M29 34.8L53.3103 22L76 32.6667V64.1333L50.7175 77.9346L50.6092 78L29 67.3333V34.8Z" fill="#FFBD36"/>
<path d="M29 34.8L53.3103 22L76 32.6667M29 34.8V67.3333L50.6092 78L50.7175 77.9346M29 34.8L50.6092 45.4667M76 32.6667V64.1333L50.7175 77.9346M76 32.6667L50.6092 45.4667M50.6092 45.4667L50.7175 77.9346" stroke="black"/>
<path d="M53 55.5745L58.1367 53L65 56.2766V62.9574L59.6578 65.9856L59.635 66L53 62.9574V55.5745Z" fill="#FFBF3D"/>
<path d="M53 55.5745L58.1367 53L65 56.2766M53 55.5745V62.9574L59.635 66L59.6578 65.9856M53 55.5745L59.635 58.617M65 56.2766V62.9574L59.6578 65.9856M65 56.2766L59.635 58.617M59.635 58.617L59.6578 65.9856" stroke="black"/>
<path d="M65 49.8085L70.1367 47L77 50.5745V57.6809L71.6578 60.9843L71.635 61L65 57.6809V49.8085Z" fill="#FFBF3D"/>
<path d="M65 49.8085L70.1367 47L77 50.5745M65 49.8085V57.6809L71.635 61L71.6578 60.9843M65 49.8085L71.635 53.1277M77 50.5745V57.6809L71.6578 60.9843M77 50.5745L71.635 53.1277M71.635 53.1277L71.6578 60.9843" stroke="black"/>
<path d="M67 58L89.5 46L102.9 52.0613V77.0613L79.5 91L79.3998 91.0613L67 84V58Z" fill="#4340DA"/>
<path d="M67 58L89.5 46L102.9 52.0613M67 58V84L79.3998 91.0613L79.5 91M67 58L79.3998 65.0613M102.9 52.0613V77.0613L79.5 91M102.9 52.0613L79.3998 65.0613M79.3998 65.0613L79.5 91" stroke="black"/>
<path d="M88 71.9942L95.5209 68L103.376 71.173V78.4956L95.5544 83.1351L92.1448 82L88 79.6497V71.9942Z" fill="#4340DA"/>
<path d="M88 71.9942L95.5209 68L103.376 71.173M88 71.9942V79.6497L92.1448 82L95.5544 83.1351M88 71.9942L95.5209 75.5M103.376 71.173V78.4956L95.5544 83.1351M103.376 71.173L95.5209 75.5M95.5209 75.5L95.5544 83.1351" stroke="black"/>
</svg>
