<svg width="96" height="96" viewBox="0 0 96 96" fill="none" xmlns="http://www.w3.org/2000/svg">
<path d="M83.3653 56.1827L48.3467 75.9115V93.6674L84.3518 72.459L83.3653 56.1827Z" fill="#1F1CD6"/>
<path d="M11.8496 73.4454V56.1827L47.8547 76.8979V94.1606L11.8496 73.4454Z" fill="#4340DA"/>
<path d="M46.3754 36.4539L12.8364 56.1827L48.3483 76.4047L82.8737 56.1827L46.3754 36.4539Z" fill="#4340DA" fill-opacity="0.8"/>
<path d="M11.8496 56.0441V73.1186M11.8496 56.0441L28.9242 46.022M11.8496 56.0441L30.0377 66.3136M11.8496 73.1186L30.0377 83.7593M11.8496 73.1186L45.9988 55.3561M48.2259 94.4L83.8598 73.1186M48.2259 94.4V76.5831M48.2259 94.4L30.0377 83.7593M83.8598 73.1186V56.0441M83.8598 73.1186L67.0293 65.3271M83.8598 56.0441L45.9988 36M83.8598 56.0441L67.0293 65.3271M45.9988 36L28.9242 46.022M45.9988 36V55.3561M48.2259 76.5831L67.0293 65.3271M48.2259 76.5831L30.0377 66.3136M67.0293 65.3271L45.9988 55.3561M28.9242 46.022L45.9988 55.3561M30.0377 66.3136V83.7593" stroke="black"/>
<path d="M24.7661 44.5829L24.7572 44.5672C24.6908 44.4505 24.629 44.3318 24.5716 44.2108C24.5666 44.2033 24.5622 44.1955 24.5583 44.1874C24.4971 44.0798 24.4467 43.9661 24.3914 43.8539C24.3881 43.8481 24.3842 43.8412 24.3803 43.8344C24.3508 43.7826 24.3295 43.7274 24.3044 43.6731C24.2671 43.5977 24.2308 43.5213 24.1954 43.4439C24.1643 43.3892 24.1434 43.3299 24.1166 43.2727L24.0327 43.0875C24.026 43.0757 24.0199 43.065 24.0132 43.0532L23.9282 42.8584L23.8396 42.6499C23.8127 42.585 23.7858 42.5201 23.7594 42.4536L23.6904 42.287C23.6838 42.2753 23.6765 42.2626 23.6747 42.2468L23.5769 41.9919C23.555 41.9358 23.5326 41.8787 23.5117 41.8219C23.4769 41.7279 23.442 41.6339 23.4082 41.5392C23.3935 41.4958 23.3761 41.4526 23.3614 41.4092C23.3587 41.4056 23.3564 41.4017 23.3548 41.3975C23.3012 41.2455 23.2487 41.0929 23.199 40.94L23.1583 40.8156C23.1243 40.7055 23.0865 40.5912 23.0525 40.4786C23.043 40.4619 23.0401 40.4416 23.0355 40.4235C23.0309 40.4054 23.0174 40.364 23.0088 40.3339C22.968 40.1992 22.9294 40.0633 22.8913 39.9284C22.8777 39.8818 22.8646 39.8362 22.852 39.789C22.8048 39.6153 22.7575 39.4416 22.7146 39.268L22.7074 39.2553C22.6925 39.1965 22.681 39.1409 22.6644 39.0766L22.6105 38.8484L22.5657 38.6488C22.5495 38.5725 22.5323 38.4969 22.515 38.4188C22.4978 38.3406 22.4873 38.2844 22.4734 38.2173C22.4595 38.1501 22.4417 38.0658 22.4249 37.986C22.4082 37.9063 22.3993 37.8505 22.3882 37.7831C22.377 37.7156 22.3592 37.6313 22.3463 37.5558C22.3419 37.548 22.3374 37.5402 22.3405 37.5281C22.3334 37.4829 22.3264 37.4378 22.3182 37.3932C22.3024 37.2974 22.2865 37.2016 22.2718 37.1052C22.2618 37.0449 22.254 36.9859 22.244 36.923C22.2304 36.8337 22.2179 36.7437 22.2054 36.6538C22.1971 36.5912 22.1881 36.5277 22.1809 36.4646L22.1478 36.2026L22.1264 36.009C22.1162 35.9229 22.107 35.8363 22.0994 35.75C22.0927 35.6853 22.0892 35.6264 22.0808 35.5561C22.0732 35.4699 22.0651 35.3826 22.0586 35.2957C22.0541 35.2323 22.0495 35.1715 22.0433 35.1051C22.0373 35.0166 22.0314 34.9281 22.0265 34.839L22.0151 34.6553C22.0102 34.561 22.0069 34.4672 21.9992 34.3757C21.9975 34.3198 21.9947 34.2645 21.9918 34.2091L21.9835 33.8774C21.9837 33.8424 21.9811 33.8076 21.9812 33.7726L21.9768 33.7648C21.9743 33.6044 21.9741 33.4454 21.9749 33.2857C21.9743 33.2395 21.976 33.1945 21.976 33.1492C21.9773 33.0333 21.9782 32.9189 21.9817 32.8043L21.9862 32.6361C21.9899 32.5292 21.9946 32.4217 21.9999 32.3152C22.002 32.2609 22.004 32.2067 22.0072 32.1518C22.0145 32.0304 22.0223 31.9082 22.0306 31.7852L22.035 31.6973L22.0376 31.6816C22.0525 31.4713 22.0724 31.262 22.0928 31.0537C22.0977 31.0146 22.1017 30.9761 22.1056 30.9377C22.1271 30.7339 22.1517 30.5314 22.1795 30.3301L22.1844 30.2859L22.1982 30.2043C22.2172 30.0641 22.2373 29.9232 22.2613 29.7866L22.28 29.6685C22.3091 29.498 22.3392 29.3295 22.3726 29.1617L22.3772 29.1319L22.3978 29.0347C22.419 28.926 22.4417 28.8174 22.4658 28.7087C22.4761 28.6563 22.488 28.6042 22.4999 28.5522C22.5232 28.4496 22.5471 28.3481 22.572 28.2459L22.5943 28.1491L22.6089 28.0942L22.6792 27.8225L22.7172 27.678C22.7491 27.5628 22.782 27.447 22.8155 27.3322C22.8218 27.3131 22.8276 27.2929 22.8322 27.2735C22.8704 27.1417 22.9114 27.0123 22.9534 26.8823L22.9839 26.7899L23.0817 26.4961L23.0886 26.478L23.1535 26.2974L23.2136 26.1338C23.2378 26.0657 23.2643 25.9989 23.2907 25.932L23.3433 25.7727L23.3475 25.7625C23.3893 25.6572 23.4317 25.5529 23.4756 25.449L23.4851 25.4254C23.5328 25.3129 23.5816 25.2023 23.6304 25.0917L23.638 25.0874L23.6778 24.9988L23.7909 24.7545L23.851 24.6311C23.8776 24.5771 23.9025 24.5228 23.9308 24.4692L23.9521 24.426C23.9734 24.3854 23.9947 24.3449 24.0143 24.3039L24.1177 24.1079L24.188 23.9799L24.2403 23.8829L24.2925 23.791L24.3651 23.6669L24.4772 23.4737L24.544 23.362L24.5696 23.3189L24.6813 23.1402L24.7284 23.0668C24.7872 22.9738 24.8476 22.8812 24.9092 22.7905L24.9178 22.7779L24.9633 22.7119C25.0131 22.6383 25.0639 22.5666 25.1154 22.4959C25.1379 22.4624 25.1625 22.4303 25.1867 22.3971L25.2654 22.2838L25.3147 22.2195L25.3973 22.1129L25.5304 21.9415L25.6152 21.8389L25.6544 21.7894L25.7618 21.661L25.8332 21.5751C25.9036 21.4923 25.9761 21.4109 26.0476 21.3301L26.0595 21.3234C26.1364 21.2395 26.2133 21.1556 26.2924 21.0731L26.3683 20.995L26.4974 20.862L26.5243 20.8363C26.6217 20.7382 26.7208 20.643 26.821 20.5497C26.8684 20.5047 26.9142 20.4618 26.966 20.4168L27.0091 20.3793L27.1438 20.2612L27.2533 20.1666C27.2997 20.1273 27.3509 20.0865 27.393 20.0522L27.4949 19.967L27.5235 19.9443L27.7016 19.8067L27.7842 19.7429C27.8706 19.6782 27.9586 19.6139 28.0466 19.5522L28.0672 19.5405C28.152 19.4806 28.2368 19.4233 28.3222 19.3669L28.4146 19.3079L28.6022 19.1895L28.6466 19.1642L28.6985 19.1347C28.7807 19.0879 28.8619 19.0417 28.943 18.9956L29.0209 18.9512C29.1237 18.8928 29.2293 18.8392 29.3349 18.7856L29.35 18.7769L29.3857 18.7566C29.4973 18.7009 29.6099 18.6472 29.7237 18.5954L29.7936 18.5647C29.9144 18.5102 30.0363 18.4602 30.1588 18.4112L30.187 18.3952L30.2461 18.3732L30.4831 18.2863L30.5774 18.2533C30.6843 18.2171 30.7917 18.1818 30.8992 18.1492L36.5221 16.4524C36.4146 16.485 36.3072 16.5203 36.2009 16.5575L36.1065 16.5904C36.0273 16.6174 35.9482 16.6469 35.8696 16.6774L35.779 16.7121C35.6614 16.757 35.5345 16.8111 35.4132 16.8646L35.3449 16.8957C35.2312 16.9474 35.118 17.0002 35.0064 17.0559L34.9556 17.0848C34.8474 17.1464 34.745 17.193 34.6406 17.2511L34.5637 17.2948C34.4826 17.341 34.4014 17.3872 34.3192 17.434L34.2229 17.4888C34.158 17.5257 34.0969 17.5669 34.0342 17.6077L33.9429 17.6662L33.6873 17.8388L33.6668 17.8505C33.5787 17.9122 33.4907 17.9765 33.4032 18.0418L33.3217 18.105C33.2613 18.1498 33.2019 18.1965 33.1426 18.2432L33.0358 18.3299L32.8966 18.4453L32.7866 18.5389L32.6508 18.6576L32.4616 18.8286C32.3603 18.9225 32.2618 19.0187 32.1649 19.1152L32.0083 19.2755L31.9325 19.3536C31.8545 19.4355 31.7759 19.519 31.6996 19.6038L31.6877 19.6106C31.6146 19.691 31.5437 19.7728 31.4761 19.8604L31.4047 19.9463C31.3547 20.0045 31.3058 20.0647 31.257 20.1248L31.1722 20.2275L31.038 20.3995L30.9554 20.5061C30.9104 20.5653 30.867 20.625 30.823 20.6862L30.7523 20.7834C30.7003 20.8557 30.65 20.9283 30.5991 21L30.5547 21.0654C30.4899 21.1605 30.4257 21.2565 30.3636 21.3539L30.3182 21.4276C30.2712 21.501 30.2257 21.5747 30.1803 21.6485L30.1141 21.7612L30.001 21.955L29.9278 22.0781L29.8211 22.2682L29.7502 22.3953L29.6474 22.5922L29.5846 22.7134L29.4836 22.921L29.424 23.0429C29.3847 23.1248 29.347 23.2071 29.3093 23.2893L29.2705 23.3748C29.219 23.4882 29.1698 23.6029 29.121 23.7187L29.1088 23.7476C29.0643 23.8531 29.0215 23.9591 28.9781 24.0666L28.9216 24.219C28.8952 24.2884 28.8677 24.3558 28.8429 24.4256L28.7903 24.5849L28.7187 24.7862C28.685 24.883 28.6529 24.9802 28.6214 25.0783C28.6103 25.1092 28.5992 25.1401 28.5898 25.1714C28.5481 25.3012 28.5077 25.4316 28.4686 25.5625C28.4612 25.5848 28.4561 25.6085 28.4487 25.6308C28.4174 25.7435 28.3864 25.8569 28.3558 25.9709C28.3417 26.0191 28.3303 26.067 28.3178 26.1155C28.2932 26.2058 28.2693 26.2971 28.2464 26.3878L28.21 26.5379C28.1851 26.6401 28.1618 26.7426 28.1385 26.8451L28.1 26.9965C28.0768 27.1041 28.0547 27.2138 28.0331 27.3218L28.0068 27.4494C27.9747 27.6178 27.9442 27.7865 27.9153 27.9557L27.896 28.0753L27.8323 28.492L27.8148 28.6172C27.7881 28.8187 27.7636 29.0216 27.7414 29.2258C27.7364 29.2648 27.7325 29.3033 27.7286 29.3417C27.7071 29.5507 27.6881 29.7599 27.6717 29.9694C27.67 30.004 27.6682 30.0387 27.6654 30.0739C27.657 30.1952 27.6492 30.3174 27.643 30.4399L27.6351 30.6023C27.6304 30.7098 27.6257 30.8173 27.6221 30.9242L27.6175 31.0924C27.614 31.207 27.6067 31.3251 27.6113 31.4363L27.6091 31.5735C27.6052 31.7344 27.606 31.8944 27.6115 32.0535C27.613 32.0914 27.6146 32.1294 27.6145 32.167C27.6174 32.2779 27.6187 32.3884 27.6233 32.4997C27.6245 32.5546 27.6273 32.61 27.6302 32.6653C27.634 32.7602 27.6384 32.8534 27.6466 32.9458C27.65 33.0073 27.6546 33.0707 27.658 33.1296C27.6623 33.2177 27.6683 33.3062 27.6748 33.3957L27.689 33.5869C27.6966 33.6731 27.7031 33.76 27.7117 33.8457L27.7298 34.0412C27.7384 34.1268 27.7471 34.2125 27.7574 34.2985C27.7641 34.3633 27.7714 34.429 27.7793 34.4931C27.789 34.5807 27.7999 34.6678 27.8118 34.7542C27.8191 34.8173 27.828 34.8808 27.8369 34.9443C27.8489 35.0333 27.8614 35.1232 27.8749 35.2126L27.9016 35.3954L27.9492 35.6828C27.9585 35.737 27.9668 35.7918 27.9767 35.847C27.9896 35.9225 28.0052 35.9977 28.0181 36.0732L28.0564 36.2766C28.0709 36.3524 28.0871 36.4287 28.1038 36.5084C28.1206 36.5882 28.1304 36.6408 28.1454 36.7074C28.1603 36.7739 28.1782 36.8608 28.196 36.9374C28.2138 37.0139 28.2243 37.0701 28.2403 37.136C28.2564 37.202 28.2765 37.2902 28.2942 37.3642C28.312 37.4382 28.3246 37.4931 28.3406 37.5565C28.3841 37.731 28.4297 37.9044 28.4781 38.0774C28.4906 38.1247 28.5042 38.1713 28.5168 38.2185C28.5549 38.3534 28.5946 38.4887 28.6354 38.6233C28.6496 38.6709 28.6632 38.7201 28.6785 38.767C28.7114 38.8777 28.7482 38.9927 28.7849 39.1051C28.7984 39.1465 28.8109 39.1886 28.8245 39.2301C28.8753 39.3823 28.9278 39.5349 28.9813 39.6869C28.9971 39.7349 29.0151 39.7816 29.032 39.8289C29.0658 39.9236 29.1002 40.0192 29.1351 40.1132L29.2008 40.2816C29.2323 40.3672 29.2654 40.4531 29.2991 40.5375C29.3266 40.606 29.3547 40.6754 29.3855 40.7472C29.4163 40.819 29.4377 40.8792 29.4663 40.9445C29.4948 41.0098 29.5251 41.0832 29.5548 41.153C29.5845 41.2228 29.6102 41.2832 29.6382 41.3475L29.7389 41.5697C29.77 41.6245 29.7909 41.6838 29.8161 41.7406L29.925 41.9698C29.9545 42.0216 29.9764 42.0778 30.0026 42.1314C30.0603 42.2496 30.1189 42.3677 30.1784 42.4856C30.1832 42.4928 30.1875 42.5003 30.1912 42.5081C30.2607 42.6303 30.3199 42.7571 30.3857 42.8802C30.4514 43.0032 30.5386 43.149 30.6148 43.2829C30.691 43.4169 30.7711 43.5577 30.8496 43.6955C30.9185 43.8167 30.9875 43.9379 31.0657 44.0527C31.1163 44.1416 31.1728 44.2259 31.2272 44.3114C31.2999 44.4241 31.3726 44.5367 31.4469 44.6471C31.5029 44.7305 31.5572 44.8134 31.6138 44.8951C31.688 45.003 31.7644 45.1096 31.8403 45.2153C31.8968 45.2944 31.9527 45.3726 32.0098 45.4502C32.0895 45.5575 32.1708 45.6627 32.2521 45.7678C32.3068 45.8389 32.3611 45.9115 32.4169 45.982C32.5059 46.0931 32.5954 46.2001 32.6855 46.308C32.7358 46.3687 32.7855 46.431 32.8363 46.4901C32.9689 46.6459 33.1034 46.7984 33.2399 46.9476C33.2466 46.9593 33.2538 46.9721 33.2686 46.9805C33.4154 47.1402 33.5648 47.2946 33.7153 47.4458C33.7572 47.4893 33.8001 47.527 33.8436 47.5708C33.9572 47.6822 34.0707 47.7936 34.1858 47.9002C34.243 47.9531 34.3008 48.0043 34.3598 48.06C34.4649 48.1542 34.5695 48.2474 34.6757 48.3384C34.7819 48.4294 34.8782 48.5105 34.9799 48.5937C34.9953 48.6056 35.009 48.6172 35.0234 48.6298C35.1548 48.7349 35.2851 48.838 35.4186 48.9367C35.4532 48.9623 35.4862 48.9876 35.5186 49.0093C35.6472 49.1043 35.7779 49.1982 35.908 49.2885L35.9295 49.3035C36.0678 49.3982 36.2067 49.4887 36.3455 49.5766L36.4591 49.6479C36.5617 49.7124 36.666 49.7748 36.7701 49.8345C36.8179 49.863 36.8656 49.8915 36.9144 49.9194C37.0372 49.9893 37.16 50.0566 37.2844 50.1217L37.3524 50.1581C37.5088 50.2416 37.6647 50.3185 37.8202 50.3888C37.8482 50.4027 37.8761 50.414 37.9051 50.4272C38.0332 50.4837 38.1614 50.5403 38.2884 50.5974L38.3382 50.6169C38.4728 50.6698 38.6134 50.7282 38.7524 50.7786L38.8077 50.8002C38.9498 50.8487 39.092 50.8972 39.2364 50.9445L39.3233 50.9714C39.4698 51.0174 39.6185 51.0622 39.7643 51.0996C39.7686 51.1 39.7727 51.1012 39.7764 51.1031C39.9244 51.1418 40.0719 51.177 40.2193 51.2095L40.3476 51.2362C40.4596 51.2592 40.5736 51.281 40.6872 51.3018L40.8067 51.3231C40.9544 51.346 41.1022 51.3667 41.2502 51.3852L41.314 51.3916C41.4422 51.4054 41.5698 51.4182 41.7001 51.4308L41.8325 51.4395C41.9481 51.4462 42.0652 51.4508 42.1818 51.4543L42.2837 51.4572C42.4286 51.4601 42.5724 51.4611 42.7243 51.4537C42.758 51.4526 42.7907 51.4495 42.8234 51.4491C42.9404 51.4433 43.0569 51.4365 43.1739 51.4282L43.3093 51.4146C43.4334 51.4035 43.5574 51.3899 43.6824 51.3731L43.7521 51.3645C43.8967 51.3443 44.0418 51.32 44.1858 51.2937L44.3016 51.2706C44.4119 51.2479 44.5227 51.2237 44.633 51.1985L44.7584 51.1672C44.9028 51.1316 45.0467 51.0925 45.1895 51.0514L39.566 52.7472C39.4233 52.7909 39.2799 52.8285 39.1349 52.8631L39.0089 52.8934C38.8992 52.9195 38.7895 52.9432 38.6786 52.9648C38.6401 52.9725 38.6009 52.9818 38.5618 52.9886C38.4184 53.0159 38.2732 53.0402 38.128 53.0594C38.1047 53.0636 38.0813 53.0653 38.0584 53.0679C37.9344 53.0841 37.8104 53.0977 37.6853 53.1094L37.5498 53.1231C37.4337 53.1322 37.3173 53.1389 37.2004 53.1433C37.1672 53.1454 37.134 53.1474 37.1013 53.1479C36.9592 53.1498 36.8084 53.1541 36.6613 53.1524L36.5578 53.1492C36.4418 53.1466 36.3257 53.1415 36.2085 53.1344L36.0761 53.1256C35.949 53.1164 35.8209 53.1051 35.6939 53.0907L35.6284 53.084C35.4768 53.0693 35.3333 53.0461 35.186 53.0212C35.1456 53.0157 35.1052 53.0077 35.0654 53.0006C34.9524 52.9807 34.8389 52.9599 34.7258 52.9349L34.5986 52.9077C34.4501 52.8757 34.3026 52.8406 34.1556 52.8013L34.1425 52.7984C34.0272 52.7669 33.9114 52.7345 33.7993 52.6986L33.7047 52.6683C33.6758 52.6602 33.6473 52.6505 33.6194 52.6418C33.4751 52.5945 33.3318 52.5466 33.1907 52.4974C33.1716 52.4915 33.153 52.484 33.1349 52.4774C32.9971 52.4265 32.8603 52.3749 32.7202 52.3148L32.6704 52.2953C32.667 52.2894 32.654 52.2891 32.6457 52.2847C32.5237 52.2338 32.4021 52.1787 32.28 52.1227L32.1957 52.0853C32.0434 52.014 31.8906 51.9392 31.7399 51.8606L31.7278 51.8545L31.6593 51.8172C31.5388 51.7563 31.4121 51.6848 31.2893 51.6149C31.241 51.588 31.1933 51.5595 31.1456 51.531C31.0979 51.5025 31.0305 51.4671 30.9717 51.4293C30.913 51.3916 30.8807 51.3725 30.834 51.3433L30.7232 51.277C30.586 51.1894 30.4493 51.1002 30.3137 51.0079C30.3137 51.0079 30.3137 51.0079 30.3104 51.002L30.289 50.987C30.1577 50.8973 30.0281 50.8029 29.8979 50.7074L29.799 50.6343C29.7671 50.611 29.7358 50.5887 29.7022 50.5599C29.6033 50.4868 29.4999 50.4033 29.4004 50.3214C29.3855 50.3105 29.3712 50.2979 29.3564 50.2869C29.2827 50.2253 29.2085 50.1653 29.1347 50.1038C29.1072 50.0806 29.0797 50.0548 29.0516 50.0307C28.9471 49.9401 28.8414 49.8475 28.7373 49.7527C28.6966 49.7163 28.6554 49.6816 28.6146 49.6452C28.5981 49.6288 28.5815 49.6123 28.5639 49.5964C28.4488 49.4898 28.3359 49.3794 28.2218 49.267C28.186 49.2317 28.1486 49.1987 28.1138 49.1628L28.094 49.143C27.9429 48.9908 27.7946 48.8358 27.6468 48.6767C27.6406 48.6659 27.6339 48.6542 27.6197 48.6468C27.4836 48.4982 27.3489 48.3453 27.2156 48.1882C27.2106 48.1794 27.2056 48.1706 27.1946 48.1639C27.151 48.1124 27.1089 48.0587 27.0647 48.0062C26.9752 47.8992 26.8852 47.7913 26.7978 47.6805C26.7884 47.6639 26.7724 47.651 26.7608 47.6356C26.7166 47.5805 26.675 47.5226 26.6313 47.466C26.55 47.3608 26.4693 47.2566 26.3896 47.1493C26.3757 47.1249 26.3558 47.1051 26.3392 47.0835C26.2988 47.0275 26.26 46.9694 26.2201 46.9144C26.1437 46.8078 26.0678 46.7021 25.993 46.5933C25.9752 46.562 25.9515 46.5354 25.9288 46.5005C25.8976 46.4457 25.8594 46.3937 25.8239 46.3414C25.7507 46.2303 25.6775 46.1193 25.6043 46.0057C25.5815 45.9656 25.5592 45.9265 25.5288 45.8907C25.4985 45.8549 25.4732 45.793 25.4465 45.746C25.374 45.6286 25.3017 45.5092 25.2299 45.3879C25.202 45.339 25.1742 45.2901 25.1464 45.2413C25.0964 45.1533 25.0457 45.0643 24.9951 44.9754C24.9142 44.8583 24.8391 44.7186 24.7661 44.5829Z" fill="#FFBD36" stroke="black"/>
<path fill-rule="evenodd" clip-rule="evenodd" d="M49.9461 39.4263C50.2476 28.1768 43.8152 17.0907 35.6079 14.7143C27.4006 12.3366 20.4778 19.5559 20.1764 30.8053C19.8749 42.0548 26.306 53.1381 34.5147 55.5159C42.7233 57.8937 49.6447 50.6757 49.9461 39.4263ZM45.5581 38.4805C45.7841 30.0991 41.1764 21.8452 35.2871 20.0817C29.398 18.3173 24.4226 23.7018 24.1965 32.0832C23.9705 40.4646 28.5773 48.7164 34.4675 50.4809C40.3577 52.2454 45.332 46.8619 45.5581 38.4805Z" fill="#FFBD36"/>
<path d="M35.6079 14.7143L35.4687 15.1946L35.4688 15.1946L35.6079 14.7143ZM49.9461 39.4263L50.446 39.4397L49.9461 39.4263ZM20.1764 30.8053L20.6762 30.8187L20.1764 30.8053ZM34.5147 55.5159L34.6538 55.0357L34.6538 55.0357L34.5147 55.5159ZM35.2871 20.0817L35.1436 20.5607L35.1437 20.5607L35.2871 20.0817ZM45.5581 38.4805L46.0579 38.494L45.5581 38.4805ZM24.1965 32.0832L24.6964 32.0967L24.1965 32.0832ZM34.4675 50.4809L34.324 50.9599L34.324 50.9599L34.4675 50.4809ZM35.4688 15.1946C39.4102 16.3358 42.9802 19.5901 45.5353 23.9938C48.0866 28.3909 49.5945 33.8836 49.4463 39.4129L50.446 39.4397C50.5993 33.7195 49.0417 28.0444 46.4003 23.492C43.7627 18.9462 40.0128 15.4692 35.7469 14.2341L35.4688 15.1946ZM20.6762 30.8187C20.8244 25.2865 22.5998 20.7992 25.2883 17.9957C27.9632 15.2065 31.5563 14.0611 35.4687 15.1946L35.747 14.2341C31.4522 12.9898 27.4803 14.2652 24.5666 17.3035C21.6665 20.3277 19.8298 25.0747 19.6766 30.7919L20.6762 30.8187ZM34.6538 55.0357C30.7117 53.8938 27.1417 50.6398 24.5867 46.2366C22.0356 41.8401 20.528 36.348 20.6762 30.8187L19.6766 30.7919C19.5233 36.5121 21.0805 42.1865 23.7218 46.7385C26.3592 51.2837 30.1091 54.7603 34.3756 55.9962L34.6538 55.0357ZM49.4463 39.4129C49.2981 44.9451 47.523 49.4321 44.8347 52.2352C42.1601 55.0241 38.567 56.1692 34.6538 55.0357L34.3756 55.9962C38.671 57.2404 42.6429 55.9655 45.5565 52.9274C48.4564 49.9036 50.2928 45.1569 50.446 39.4397L49.4463 39.4129ZM35.1437 20.5607C37.922 21.3926 40.4578 23.7803 42.2792 27.0431C44.0961 30.2977 45.1688 34.3679 45.0582 38.467L46.0579 38.494C46.1734 34.2116 45.0552 29.9642 43.1524 26.5556C41.2542 23.1553 38.5415 20.5343 35.4306 19.6027L35.1437 20.5607ZM24.6964 32.0967C24.807 27.9939 26.0794 24.6797 27.9854 22.6171C29.8767 20.5704 32.3992 19.7384 35.1436 20.5607L35.4306 19.6028C32.2859 18.6606 29.3761 19.6386 27.2509 21.9384C25.1404 24.2223 23.8121 27.7911 23.6967 32.0697L24.6964 32.0967ZM34.611 50.002C31.8322 49.1695 29.2963 46.7821 27.475 43.5197C25.6582 40.2654 24.5858 36.1958 24.6964 32.0967L23.6967 32.0697C23.5812 36.352 24.6992 40.599 26.6019 44.0071C28.5 47.4071 31.2126 50.0278 34.324 50.9599L34.611 50.002ZM45.0582 38.467C44.9476 42.5698 43.6755 45.8837 41.7696 47.9461C39.8785 49.9925 37.356 50.8243 34.611 50.002L34.324 50.9599C37.4692 51.9021 40.3789 50.9243 42.504 48.6248C44.6144 46.3411 45.9425 42.7725 46.0579 38.494L45.0582 38.467Z" fill="black"/>
<path d="M55.284 37.8902L55.2847 37.8688C55.2897 37.7099 55.2892 37.5511 55.2832 37.3927C55.2843 37.3821 55.2846 37.3714 55.2842 37.3607C55.2889 37.2142 55.2798 37.0672 55.2763 36.9191C55.2765 36.9111 55.2768 36.9018 55.2771 36.8924C55.2793 36.8218 55.2719 36.7523 55.2687 36.6815C55.2663 36.5818 55.2626 36.4817 55.2576 36.3811C55.2599 36.3065 55.2499 36.2328 55.2468 36.158L55.2338 35.9176C55.2343 35.9016 55.2348 35.8869 55.2353 35.871L55.2186 35.6197L55.1982 35.3524C55.1913 35.2695 55.1843 35.1866 55.176 35.1023L55.158 34.8897C55.1585 34.8737 55.1591 34.8564 55.1528 34.8389L55.1177 34.5177C55.1104 34.4468 55.1031 34.3745 55.0944 34.3036C55.0803 34.1858 55.0662 34.068 55.0507 33.9502C55.0428 33.8966 55.0377 33.8417 55.0298 33.7881C55.0306 33.7829 55.0308 33.7775 55.0303 33.7722C55.0048 33.5833 54.9779 33.3944 54.9482 33.2068L54.9242 33.054C54.9011 32.92 54.8795 32.7793 54.8551 32.6425C54.8558 32.6198 54.8483 32.5969 54.8435 32.5754C54.8387 32.5539 54.8307 32.503 54.8236 32.4668C54.7945 32.3032 54.7627 32.1395 54.7309 31.9771C54.7203 31.9208 54.7098 31.8658 54.6978 31.8094C54.6551 31.6013 54.6124 31.3933 54.5655 31.1878L54.566 31.1705C54.5504 31.1006 54.5333 31.0361 54.5165 30.9595L54.4524 30.6908L54.3941 30.4569C54.3709 30.3682 54.349 30.2795 54.3259 30.1881C54.3027 30.0967 54.2842 30.0321 54.2634 29.9541C54.2426 29.8761 54.2169 29.7779 54.1925 29.6851C54.168 29.5923 54.1481 29.529 54.1245 29.4523C54.1009 29.3755 54.0753 29.2774 54.0492 29.1912C54.0496 29.1805 54.0499 29.1699 54.0407 29.1589C54.0245 29.1077 54.0083 29.0566 53.9935 29.0054C53.96 28.8963 53.9264 28.7873 53.8915 28.6782C53.8704 28.6095 53.8479 28.5434 53.8255 28.472C53.7931 28.371 53.7593 28.2699 53.7255 28.1689C53.7017 28.0988 53.6779 28.0273 53.6528 27.9572L53.5511 27.6646L53.473 27.4501C53.439 27.3544 53.4037 27.2586 53.367 27.1641C53.3405 27.0926 53.3137 27.029 53.2861 26.9508C53.2494 26.8563 53.2127 26.7605 53.1746 26.6659C53.1466 26.597 53.12 26.5309 53.0922 26.458C53.0527 26.3621 53.0133 26.2661 52.9726 26.1702L52.8898 25.9715C52.8465 25.8702 52.8017 25.7701 52.7624 25.6701C52.7355 25.6106 52.71 25.5511 52.6845 25.4917L52.5231 25.1399C52.5051 25.1033 52.4899 25.0655 52.4719 25.0289L52.4722 25.0182C52.3926 24.849 52.3116 24.6825 52.2293 24.5158C52.2062 24.4671 52.1816 24.421 52.1585 24.3736C52.0979 24.253 52.0387 24.1338 51.9767 24.0158L51.8864 23.8423C51.8282 23.7324 51.7687 23.6225 51.7092 23.514C51.6794 23.4584 51.6497 23.4028 51.6186 23.3471C51.5495 23.224 51.4794 23.1005 51.4085 22.9764L51.3593 22.8869L51.3488 22.8719C51.2268 22.66 51.1006 22.452 50.9743 22.2453C50.9495 22.2072 50.926 22.1691 50.9026 22.131C50.7775 21.9297 50.6501 21.7315 50.5202 21.5362L50.4929 21.4927L50.4378 21.415C50.3477 21.2788 50.2561 21.1425 50.163 21.0129L50.0844 20.8998C49.9691 20.7374 49.8537 20.5778 49.7354 20.4207L49.7158 20.3921L49.646 20.3019C49.5699 20.1999 49.4923 20.0988 49.4133 19.9985C49.3765 19.9493 49.3383 19.9015 49.3001 19.8536C49.2251 19.7592 49.15 19.6662 49.0735 19.5731L49.0024 19.4842L48.9601 19.4348L48.7529 19.1896L48.6421 19.0594C48.5522 18.9566 48.461 18.8537 48.3698 18.7521C48.3538 18.7356 48.338 18.7178 48.3235 18.7C48.219 18.5834 48.113 18.4707 48.0057 18.3579L47.9288 18.2782L47.6835 18.0251L47.6676 18.0099L47.5122 17.857L47.3701 17.7192C47.3117 17.6613 47.2519 17.6061 47.192 17.5509L47.0594 17.4134L47.0501 17.4051C46.9556 17.3181 46.8611 17.2324 46.7652 17.1481L46.744 17.1287C46.6401 17.0374 46.5361 16.9488 46.4321 16.8602L46.4225 16.8599L46.3385 16.7892L46.1036 16.5965L45.9821 16.5006C45.9286 16.459 45.8766 16.416 45.8218 16.3756L45.779 16.3422C45.7375 16.3116 45.6961 16.2809 45.656 16.249L45.4553 16.1013L45.3214 16.0064L45.221 15.9339L45.1232 15.8669L44.9892 15.7773L44.7814 15.6374L44.6593 15.5575L44.6124 15.5267L44.4124 15.4017L44.3291 15.3511C44.2243 15.2865 44.1182 15.2231 44.012 15.1624L43.9972 15.154L43.9191 15.1102C43.8331 15.0608 43.747 15.0141 43.6608 14.9687C43.6218 14.9461 43.5814 14.9262 43.541 14.9049L43.4064 14.83L43.3256 14.7901L43.1907 14.7245L42.9737 14.619L42.8387 14.5588L42.7753 14.5288L42.6051 14.4541L42.4917 14.4038C42.381 14.3563 42.2688 14.3115 42.158 14.2666L42.1429 14.2662C42.0252 14.2211 41.9076 14.1761 41.7884 14.1337L41.6747 14.0941L41.4811 14.0266L41.4417 14.0147C41.2968 13.9662 41.1517 13.9216 41.0066 13.8797C40.9374 13.8588 40.871 13.8394 40.7976 13.8211L40.7365 13.8058L40.545 13.7571L40.3902 13.7189C40.3249 13.7035 40.2542 13.6893 40.1958 13.6768L40.053 13.6443L40.0136 13.6364L39.77 13.5914L39.657 13.5705C39.5399 13.5508 39.4214 13.5324 39.3042 13.5167L39.2782 13.5159C39.1651 13.5003 39.0532 13.4875 38.9413 13.476L38.8212 13.4655L38.5782 13.4459L38.5221 13.4441L38.4565 13.442C38.3525 13.4388 38.25 13.4355 38.1474 13.4323L38.0489 13.4292C37.919 13.4251 37.7889 13.4277 37.6588 13.4303L37.6396 13.4297L37.5945 13.4283C37.4575 13.4319 37.3204 13.4383 37.1832 13.4473L37.0995 13.454C36.9541 13.4641 36.8099 13.4796 36.6656 13.4964L36.6301 13.4953L36.5613 13.5051L36.2863 13.5458L36.1776 13.5637C36.0551 13.5852 35.9325 13.608 35.8112 13.6335L29.472 14.9823C29.5933 14.9568 29.7158 14.934 29.8383 14.9138L29.947 14.8959C30.0378 14.8801 30.1299 14.867 30.222 14.8552L30.3279 14.8412C30.4653 14.8229 30.6163 14.8089 30.7618 14.7975L30.8441 14.7921C30.9813 14.7831 31.1184 14.7754 31.2554 14.7717L31.3197 14.7737C31.4564 14.778 31.5799 14.7699 31.7112 14.7727L31.8083 14.7758C31.9109 14.779 32.0134 14.7822 32.1174 14.7855L32.2391 14.7893C32.3211 14.7919 32.4016 14.8011 32.4835 14.809L32.6022 14.8194L32.9392 14.858L32.9651 14.8588C33.0824 14.8745 33.2009 14.8929 33.3193 14.9127L33.4309 14.9335C33.5127 14.9468 33.5943 14.9627 33.6759 14.9786L33.8241 15.0099L34.0185 15.0533L34.1734 15.0902L34.3663 15.139L34.6377 15.2129C34.7842 15.2548 34.9292 15.3007 35.0729 15.3479L35.3071 15.4286L35.4209 15.4682C35.5386 15.5106 35.6577 15.5543 35.7753 15.6007L35.7904 15.6012C35.9026 15.6447 36.0134 15.6909 36.124 15.745L36.2374 15.7953C36.3157 15.8284 36.394 15.8642 36.4723 15.9L36.6073 15.9603L36.8257 16.0658L36.9605 16.1314C37.0346 16.1684 37.1074 16.2067 37.1814 16.2464L37.2999 16.3088C37.3874 16.3556 37.4735 16.4036 37.5596 16.4503L37.6363 16.4941C37.7479 16.5576 37.8595 16.6224 37.9696 16.6899L38.0515 16.7418C38.1347 16.7925 38.2166 16.8444 38.2985 16.8963L38.4205 16.9775L38.6296 17.1174L38.7638 17.2057L38.9647 17.3453L39.0986 17.4389L39.2993 17.5879L39.4223 17.6798L39.6267 17.8409L39.7469 17.9354C39.827 17.9992 39.9057 18.0644 39.9845 18.1296L40.0658 18.1975C40.1739 18.2875 40.2805 18.3802 40.387 18.4743L40.4136 18.4978C40.5109 18.5835 40.6067 18.6706 40.7038 18.759L40.8367 18.8872C40.8978 18.9451 40.9591 19.0004 41.0188 19.0596L41.1514 19.1971L41.3239 19.3679C41.4062 19.4505 41.4871 19.5344 41.5679 19.6196C41.5944 19.6458 41.621 19.672 41.6462 19.6994C41.753 19.8121 41.859 19.9262 41.9639 20.0415C41.9825 20.0607 41.9996 20.0826 42.0181 20.1019C42.1062 20.2024 42.1943 20.3039 42.2823 20.4062C42.3207 20.4488 42.3563 20.4926 42.3932 20.5364C42.4632 20.6173 42.5332 20.6995 42.6018 20.7817L42.7138 20.9186C42.7903 21.0116 42.8654 21.106 42.9404 21.2004L43.0552 21.3374C43.1328 21.4372 43.2104 21.5396 43.2866 21.6407L43.3773 21.7596C43.4946 21.9179 43.6105 22.0776 43.725 22.2386L43.8049 22.3531L44.0797 22.7538L44.1608 22.8751C44.2897 23.0711 44.4171 23.2699 44.5431 23.4712C44.5679 23.5093 44.5913 23.5474 44.6148 23.5855C44.7424 23.7922 44.8677 24.0006 44.9907 24.2107C45.0101 24.246 45.0296 24.2813 45.0503 24.3166C45.1204 24.4388 45.1904 24.5624 45.2591 24.6872L45.3497 24.8528C45.4092 24.9627 45.4687 25.0726 45.5269 25.1824L45.6172 25.356C45.6792 25.4739 45.7466 25.5934 45.799 25.7124L45.8712 25.8547C45.9572 26.021 46.0382 26.1889 46.114 26.3584C46.1319 26.399 46.1498 26.4396 46.1691 26.4788C46.2229 26.5966 46.2781 26.713 46.3305 26.832C46.3574 26.8902 46.3829 26.9496 46.4084 27.0091C46.4531 27.1105 46.4965 27.2106 46.5358 27.3118C46.5638 27.3781 46.5918 27.447 46.6185 27.5105C46.6593 27.6051 46.6987 27.701 46.7381 27.7983L46.8219 28.0063C46.8586 28.1008 46.8967 28.1953 46.9321 28.2898L47.0143 28.5044C47.0497 28.5989 47.085 28.6934 47.119 28.7891C47.1455 28.8606 47.1719 28.9335 47.1971 29.0049C47.2323 29.1021 47.2662 29.1991 47.2988 29.2962C47.3239 29.3663 47.3477 29.4377 47.3715 29.5092C47.4053 29.6089 47.4391 29.71 47.4715 29.811L47.5389 30.0172L47.6395 30.3444C47.6581 30.4063 47.678 30.4683 47.6966 30.5316C47.7226 30.6177 47.7459 30.7051 47.7719 30.7913L47.8384 31.0254C47.8631 31.1129 47.8863 31.2016 47.9107 31.2944C47.9352 31.3872 47.9525 31.4478 47.9719 31.5257C47.9914 31.6037 48.0183 31.7045 48.0401 31.7946C48.0619 31.8846 48.0804 31.9492 48.0985 32.0271C48.1166 32.105 48.1421 32.2085 48.1626 32.2959C48.1831 32.3832 48.1989 32.4477 48.2157 32.5229C48.2626 32.7297 48.3067 32.9365 48.3481 33.1445C48.36 33.2009 48.3705 33.2572 48.3824 33.3136C48.4143 33.476 48.4447 33.6396 48.4738 33.8032C48.4843 33.8609 48.4961 33.9199 48.5053 33.9776C48.5298 34.1117 48.5528 34.2524 48.5744 34.3905C48.5824 34.4414 48.5917 34.4924 48.5997 34.5433C48.628 34.7309 48.6549 34.9198 48.6805 35.1086C48.6896 35.1676 48.696 35.2264 48.7037 35.2854C48.7191 35.4032 48.7345 35.5224 48.7486 35.6402L48.7707 35.8529C48.7838 35.96 48.7954 36.0684 48.8057 36.1754C48.8139 36.2623 48.8221 36.3506 48.8288 36.4428C48.8355 36.5351 48.8454 36.61 48.851 36.6942C48.8565 36.7784 48.8646 36.872 48.8713 36.9616C48.8781 37.0511 48.8839 37.1287 48.8895 37.2115L48.905 37.5001C48.9027 37.5747 48.9127 37.6483 48.9172 37.7218L48.9283 38.0222C48.9261 38.0928 48.9334 38.1637 48.9353 38.2345C48.9395 38.3902 48.9428 38.5463 48.9452 38.7029C48.9442 38.713 48.9439 38.7233 48.9442 38.7335C48.939 38.9 48.9461 39.0656 48.945 39.2309C48.9439 39.3963 48.9335 39.5973 48.9277 39.7798C48.922 39.9623 48.916 40.1542 48.91 40.342C48.9048 40.5072 48.8997 40.6724 48.8822 40.8359C48.8784 40.9571 48.8664 41.0768 48.8572 41.1965C48.844 41.3548 48.8308 41.5131 48.8149 41.6699C48.8029 41.7882 48.7924 41.9052 48.7792 42.0222C48.762 42.1763 48.7421 42.3304 48.7222 42.4831C48.7077 42.5974 48.6932 42.7103 48.6773 42.8231C48.6546 42.9798 48.6292 43.135 48.6037 43.2902C48.5868 43.395 48.5711 43.5012 48.5527 43.606C48.5229 43.7717 48.4904 43.9334 48.4579 44.0964C48.44 44.1879 48.4234 44.2807 48.4041 44.3708C48.3547 44.6075 48.3017 44.8418 48.2451 45.0739C48.2446 45.0899 48.244 45.1072 48.2339 45.1242C48.1727 45.373 48.1062 45.6176 48.0369 45.8595C48.0183 45.9282 47.9958 45.9915 47.9758 46.0616C47.9223 46.2413 47.8687 46.4209 47.8112 46.5965C47.7824 46.6836 47.7523 46.7693 47.7235 46.8604C47.6692 47.0174 47.6151 47.1731 47.5582 47.3273C47.5013 47.4815 47.4491 47.6199 47.3925 47.7635C47.3836 47.7846 47.3762 47.8043 47.3687 47.8254C47.2945 48.0085 47.2203 48.1888 47.1408 48.3664C47.1202 48.4124 47.101 48.4571 47.0806 48.4978C47.004 48.6688 46.9247 48.8396 46.8442 49.0065L46.831 49.0341C46.7447 49.21 46.6558 49.3819 46.5656 49.5511L46.4914 49.6888C46.4246 49.8134 46.355 49.9366 46.2841 50.057C46.2522 50.1134 46.2203 50.1697 46.1871 50.226C46.1032 50.3674 46.0181 50.5061 45.9303 50.6433L45.8827 50.7192C45.7732 50.8935 45.6607 51.0607 45.5453 51.2206C45.5252 51.2507 45.5038 51.278 45.4823 51.308C45.3865 51.4383 45.2907 51.5687 45.1962 51.6991L45.1577 51.7472C45.0537 51.8773 44.9467 52.0166 44.8372 52.1465L44.7944 52.1998C44.6808 52.3296 44.5672 52.4594 44.4509 52.5891L44.3801 52.6655C44.261 52.7952 44.1392 52.9247 44.0163 53.0448C44.0124 53.0476 44.009 53.0511 44.0064 53.0552C43.8821 53.178 43.7565 53.2967 43.6297 53.4127L43.5184 53.5119C43.4213 53.5982 43.3214 53.6844 43.2215 53.7693L43.116 53.858C42.984 53.9641 42.8507 54.0679 42.7161 54.1694L42.6573 54.2116C42.5396 54.2972 42.422 54.3816 42.3016 54.4671L42.1771 54.5499C42.0681 54.6211 41.9564 54.691 41.8447 54.7595L41.747 54.8191C41.6075 54.9027 41.4681 54.9836 41.3165 55.0602C41.2831 55.0778 41.2497 55.0928 41.2177 55.1104C41.1009 55.1694 40.9841 55.2271 40.8659 55.2834L40.7271 55.3444C40.6008 55.4018 40.4731 55.4564 40.3428 55.5083L40.2707 55.5381C40.1196 55.5973 39.9659 55.6525 39.8123 55.705L39.6879 55.7451C39.569 55.7827 39.4487 55.8189 39.3285 55.8538L39.1905 55.8908C39.0317 55.9338 38.8717 55.9728 38.7118 56.0091L45.051 54.659C45.2123 54.6254 45.371 54.585 45.5298 54.5407L45.6679 54.5024C45.788 54.4688 45.9069 54.4325 46.0258 54.3936C46.0673 54.3802 46.1101 54.3683 46.1517 54.3536C46.3052 54.3024 46.4589 54.2472 46.61 54.1866C46.6349 54.1781 46.6585 54.1668 46.6821 54.1569C46.8111 54.1049 46.9387 54.0503 47.0665 53.9929L47.2053 53.932C47.3229 53.877 47.4397 53.8193 47.5557 53.759C47.589 53.7427 47.6224 53.7264 47.6544 53.7087C47.7937 53.6318 47.9427 53.5524 48.085 53.4689L48.1841 53.408C48.2957 53.3408 48.406 53.271 48.5165 53.1984L48.6409 53.1157C48.7598 53.0354 48.8787 52.9525 48.995 52.8668L49.0553 52.8233C49.1953 52.7237 49.3231 52.6197 49.4538 52.5118C49.4903 52.4836 49.5255 52.4527 49.5607 52.4232C49.6605 52.3396 49.7603 52.2547 49.8576 52.1658L49.9675 52.0666C50.0957 51.9506 50.2213 51.8318 50.3442 51.709L50.3555 51.6987C50.4516 51.6017 50.5478 51.5034 50.6386 51.4036L50.7151 51.3193C50.7392 51.2947 50.7619 51.2688 50.7846 51.2441C50.9009 51.1144 51.0159 50.9847 51.1281 50.8549C51.1437 50.838 51.1579 50.8198 51.1722 50.8029C51.2803 50.673 51.387 50.543 51.4928 50.4023L51.5312 50.3541C51.5315 50.3461 51.5441 50.3385 51.5498 50.3294C51.6426 50.2083 51.7328 50.0831 51.823 49.9566L51.8859 49.8706C51.9977 49.7114 52.1083 49.5482 52.2148 49.3822L52.2234 49.3691L52.271 49.2919C52.3572 49.1613 52.4439 49.016 52.5278 48.8746C52.561 48.8196 52.5929 48.7633 52.6248 48.7069C52.6567 48.6506 52.7042 48.5761 52.742 48.5039C52.7799 48.4318 52.8016 48.3938 52.8321 48.3374L52.9061 48.2064C52.9949 48.0385 53.0823 47.8692 53.1671 47.6972C53.1671 47.6972 53.1671 47.6972 53.1674 47.6892L53.1806 47.6616C53.2625 47.4948 53.3404 47.3239 53.4184 47.1516L53.4773 47.0201C53.4964 46.9781 53.5155 46.9373 53.5334 46.8886C53.5923 46.7571 53.6503 46.6122 53.7054 46.4712C53.7142 46.4515 53.7217 46.4304 53.7305 46.4107C53.7708 46.3053 53.8124 46.2012 53.8527 46.0958C53.8676 46.0563 53.8813 46.014 53.8963 45.9732C53.9517 45.8202 54.0073 45.6646 54.0601 45.5076C54.0812 45.4469 54.1036 45.3876 54.1246 45.3269C54.1323 45.3005 54.14 45.274 54.149 45.2477C54.2066 45.0721 54.2601 44.8938 54.3137 44.7127C54.3306 44.6559 54.3501 44.6005 54.3656 44.5437L54.3748 44.512C54.444 44.2688 54.5092 44.0241 54.5718 43.7754C54.5723 43.7607 54.5728 43.7447 54.5829 43.7291C54.6394 43.4979 54.6924 43.2631 54.7419 43.0246C54.7423 43.0126 54.7427 43.0006 54.7499 42.9875C54.7661 42.9094 54.7795 42.8298 54.7957 42.7503C54.8282 42.5886 54.8607 42.4256 54.8891 42.2611C54.8898 42.2385 54.8988 42.2161 54.9022 42.1935C54.9171 42.1113 54.928 42.0276 54.9415 41.944C54.967 41.7888 54.9923 41.6349 55.0151 41.4783C55.0161 41.445 55.0253 41.4133 55.0304 41.3814C55.0412 41.3004 55.0493 41.218 55.06 41.1383C55.0799 40.9842 55.0997 40.8315 55.117 40.676C55.1183 40.6334 55.1278 40.5924 55.1321 40.5431C55.1344 40.4685 55.145 40.3929 55.1528 40.3184C55.1674 40.1615 55.1819 40.0046 55.1951 39.845C55.1968 39.7904 55.1985 39.7371 55.2098 39.6828C55.2211 39.6285 55.214 39.5496 55.216 39.4856C55.2266 39.3224 55.2359 39.1573 55.2439 38.9904C55.246 38.9238 55.2481 38.8572 55.2502 38.7906C55.254 38.6707 55.2578 38.5494 55.2616 38.4282C55.2806 38.2608 55.2824 38.0728 55.284 37.8902Z" fill="#FFBD36" stroke="black"/>
<path d="M37.6276 27.5088L40.6272 32.2041L38.0607 37.1495L32.4946 37.3996L29.495 32.7042L32.0615 27.7588L37.6276 27.5088Z" fill="#E2931C"/>
<path d="M40.6272 32.2041L37.6276 27.5088L32.0615 27.7588M40.6272 32.2041L38.0607 37.1495L32.4946 37.3996M40.6272 32.2041L35.2648 32.0617M32.4946 37.3996L29.495 32.7042L32.0615 27.7588M32.4946 37.3996L35.2648 32.0617M32.0615 27.7588L35.2648 32.0617" stroke="black"/>
<path d="M38.2977 55.3924L38.2887 55.3765C38.2214 55.2581 38.1598 55.1369 38.104 55.0129C38.0988 55.0053 38.0943 54.9974 38.0904 54.9891C38.0284 54.88 37.9802 54.7629 37.926 54.6481C37.9226 54.6421 37.9186 54.6352 37.9147 54.6282C37.8848 54.5757 37.8652 54.5185 37.8409 54.4628C37.8043 54.3855 37.769 54.3072 37.7348 54.2277C37.7032 54.1722 37.6848 54.1105 37.6588 54.0517L37.5781 53.8613C37.5713 53.8494 37.5651 53.8385 37.5584 53.8266L37.4774 53.6258L37.3939 53.4108C37.3686 53.3437 37.3434 53.2767 37.319 53.2078L37.2544 53.0358C37.2477 53.0239 37.2403 53.011 37.24 52.9942L37.1506 52.7299C37.1305 52.6718 37.1098 52.6127 37.091 52.5537C37.0595 52.4561 37.028 52.3585 36.9979 52.2601C36.9851 52.2149 36.9689 52.1702 36.9561 52.125C36.9532 52.1214 36.9509 52.1174 36.9493 52.1131C36.9019 51.955 36.8558 51.7961 36.8131 51.6366L36.7781 51.5068C36.7496 51.3917 36.7168 51.2725 36.6886 51.1547C36.679 51.1378 36.6778 51.1162 36.6743 51.0971C36.6709 51.0781 36.6592 51.0348 36.6524 51.0033C36.6184 50.8624 36.5873 50.72 36.5567 50.5785C36.5455 50.5297 36.535 50.4819 36.5252 50.4323C36.488 50.25 36.4508 50.0676 36.4189 49.8849L36.4115 49.872C36.4003 49.8101 36.3928 49.7514 36.3802 49.6837L36.3413 49.4433L36.3101 49.2326C36.2994 49.152 36.2873 49.0722 36.2754 48.9897C36.2636 48.9072 36.2574 48.8477 36.2484 48.7766C36.2394 48.7056 36.2276 48.6165 36.2165 48.5322C36.2055 48.4479 36.2013 48.3885 36.1957 48.3169C36.19 48.2453 36.1782 48.1562 36.1714 48.076C36.1669 48.0681 36.1623 48.0602 36.1676 48.0467C36.1643 47.9987 36.161 47.9506 36.1563 47.9034C36.1483 47.8016 36.1403 47.6999 36.1336 47.5973C36.1286 47.5332 36.1261 47.4703 36.1213 47.4034C36.1153 47.3084 36.1106 47.2125 36.106 47.1167C36.1032 47.05 36.0998 46.9824 36.0984 46.9149L36.089 46.6354L36.0858 46.4284C36.0834 46.3365 36.0824 46.2439 36.0834 46.1514C36.0828 46.0822 36.0856 46.0189 36.0836 45.9439C36.0846 45.8514 36.085 45.758 36.0874 45.6647C36.0893 45.5966 36.091 45.5314 36.0912 45.4603C36.0944 45.3653 36.0976 45.2702 36.1022 45.1744L36.11 44.977C36.1152 44.8756 36.1223 44.7744 36.1238 44.6764C36.1283 44.616 36.1313 44.5565 36.1344 44.497L36.1636 44.139C36.1679 44.1011 36.1689 44.0638 36.1732 44.0259L36.1687 44.018C36.1847 43.8448 36.2032 43.6727 36.2231 43.4999C36.228 43.4499 36.2353 43.4011 36.2407 43.3521C36.256 43.2265 36.2706 43.1027 36.2885 42.9782L36.314 42.7957C36.3311 42.6796 36.3496 42.5627 36.3687 42.4468C36.3776 42.3879 36.3866 42.329 36.397 42.2692C36.4203 42.137 36.4443 42.0038 36.4691 41.8698L36.4849 41.7742L36.4898 41.7569C36.533 41.5275 36.5821 41.2987 36.6317 41.0709C36.6424 41.028 36.6518 40.986 36.6611 40.9439C36.7116 40.7209 36.7657 40.4988 36.8235 40.2777L36.8348 40.2293L36.8612 40.1394C36.9011 39.9854 36.9424 39.8307 36.9879 39.68L37.0248 39.5501C37.0805 39.3621 37.1373 39.1762 37.1981 38.9906L37.2072 38.9579L37.2439 38.8503C37.2828 38.7302 37.3234 38.61 37.3657 38.4896C37.3845 38.4316 37.4052 38.3739 37.426 38.3161C37.4666 38.2024 37.5078 38.0897 37.5504 37.9762L37.5891 37.8688L37.6134 37.8077L37.7316 37.5055L37.7953 37.3445C37.8479 37.2161 37.9018 37.0869 37.9564 36.9587C37.9664 36.9373 37.9758 36.9149 37.9838 36.8932C38.0462 36.7462 38.1115 36.6013 38.1783 36.4556L38.2266 36.352L38.381 36.0226L38.3916 36.0022L38.4923 35.7991L38.5852 35.615C38.6229 35.5384 38.6631 35.4629 38.7034 35.3875L38.7866 35.2089L38.793 35.1974C38.8565 35.0785 38.9206 34.9606 38.9867 34.8429L39.0012 34.8164C39.0728 34.6889 39.1456 34.5635 39.2183 34.4381L39.2281 34.4325L39.2873 34.3319L39.4545 34.0542L39.5426 33.9135C39.5815 33.852 39.6185 33.7903 39.6594 33.7289L39.6905 33.6797C39.7214 33.6333 39.7522 33.5868 39.7811 33.5402L39.9307 33.3159L40.0319 33.169L40.1073 33.0579L40.1821 32.9523L40.2856 32.8094L40.4455 32.5871L40.5404 32.4583L40.5768 32.4087L40.7346 32.202L40.8008 32.1171C40.8838 32.0095 40.9687 31.9021 41.0547 31.7967L41.0666 31.7821L41.1301 31.7052C41.1997 31.6197 41.2704 31.5361 41.3417 31.4536C41.3732 31.4147 41.4071 31.3769 41.4406 31.3382L41.5502 31.2062L41.6182 31.1308L41.7318 31.0058L41.9148 30.8045L42.0307 30.6834L42.0845 30.6252L42.2311 30.4736L42.3286 30.3721C42.4244 30.2743 42.5228 30.1776 42.6198 30.0817L42.6351 30.073C42.7391 29.9732 42.843 29.8733 42.9495 29.7747L43.0515 29.6811L43.2252 29.5219L43.2612 29.491C43.3919 29.3733 43.5244 29.2585 43.6579 29.1458C43.7212 29.0914 43.7823 29.0395 43.8509 28.9848L43.9081 28.9391L44.0869 28.7954L44.2319 28.68C44.2933 28.632 44.3608 28.5818 44.4163 28.5397L44.551 28.4354L44.5887 28.4074L44.8227 28.2375L44.9313 28.1587C45.0446 28.0785 45.1598 27.9985 45.2748 27.9212L45.3013 27.9061C45.4121 27.8313 45.5226 27.7592 45.6337 27.6881L45.7537 27.6133L45.9971 27.463L46.0544 27.4304L46.1214 27.3923C46.2275 27.3319 46.3322 27.2723 46.4369 27.2128L46.5374 27.1556C46.67 27.0801 46.8054 27.0096 46.9409 26.9391L46.9604 26.928L47.0065 26.9018C47.1495 26.8283 47.2936 26.7568 47.4388 26.6873L47.5279 26.6458C47.6821 26.5725 47.8372 26.504 47.9928 26.4365L48.0291 26.4158L48.1039 26.385L48.404 26.2629L48.5233 26.216C48.6583 26.1642 48.7938 26.1133 48.9291 26.0652L56.0058 23.5631C55.8705 23.6112 55.735 23.6621 55.6006 23.7149L55.4813 23.7618C55.3813 23.8003 55.281 23.8416 55.1812 23.8839L55.0664 23.9322C54.9172 23.9948 54.7557 24.0682 54.601 24.1405L54.5139 24.1822C54.3686 24.2517 54.2239 24.3222 54.081 24.3957L54.0153 24.4331C53.8758 24.5125 53.745 24.575 53.6105 24.6503L53.5113 24.7067C53.4066 24.7663 53.3019 24.8258 53.1958 24.8862L53.0716 24.9569C52.9878 25.0045 52.9083 25.0564 52.8268 25.108L52.7082 25.182L52.3752 25.3991L52.3487 25.4142C52.2337 25.4914 52.1185 25.5714 52.0038 25.6524L51.8966 25.7304C51.8174 25.786 51.7393 25.8436 51.6612 25.9012L51.5203 26.0076L51.3365 26.1489L51.1909 26.2633L51.0107 26.4078L50.7592 26.6153C50.6242 26.7288 50.4923 26.8446 50.3624 26.9605L50.1519 27.1524L50.0499 27.2459C49.9448 27.3438 49.8389 27.4435 49.7355 27.5443L49.7201 27.553C49.6212 27.6487 49.5248 27.7456 49.4318 27.8484L49.3343 27.9498C49.2663 28.0187 49.1994 28.0896 49.1326 28.1604L49.0167 28.2815L48.8323 28.4836L48.7186 28.6086C48.6565 28.6781 48.5964 28.7478 48.5354 28.8192L48.4374 28.9328C48.3653 29.0171 48.2951 29.1017 48.2244 29.1853L48.1623 29.2613C48.0718 29.3718 47.9819 29.4834 47.8946 29.5961L47.8303 29.6813C47.764 29.7662 47.6998 29.8514 47.6355 29.9365L47.5412 30.0663L47.3798 30.2894L47.2758 30.4313L47.1228 30.6497L47.021 30.7955L46.872 31.0208L46.7809 31.1593L46.6327 31.3959L46.5455 31.5349C46.4877 31.6281 46.4318 31.7216 46.376 31.8151L46.3185 31.9121C46.2421 32.041 46.1682 32.1709 46.0949 32.3019L46.0766 32.3347C46.0097 32.4542 45.9447 32.5738 45.8789 32.6953L45.7918 32.867C45.7513 32.9452 45.7096 33.0214 45.6711 33.0998L45.5879 33.2784L45.4764 33.5046C45.4237 33.6134 45.373 33.7223 45.3228 33.8323C45.3056 33.867 45.2884 33.9017 45.2732 33.9367C45.2069 34.0821 45.142 34.2279 45.0787 34.3742C45.067 34.3993 45.0579 34.4254 45.0463 34.4504C44.9946 34.5761 44.9433 34.7025 44.8924 34.8295C44.8694 34.8833 44.8497 34.9365 44.8287 34.9904C44.788 35.0911 44.7479 35.1927 44.7092 35.2935L44.6469 35.4602C44.6043 35.5737 44.5637 35.6874 44.5231 35.8011L44.4581 35.9694C44.4169 36.0887 44.3768 36.2099 44.3376 36.3294L44.2904 36.4705C44.2312 36.6565 44.1739 36.8427 44.1185 37.0291L44.0808 37.1609L43.9536 37.6193L43.9172 37.7568C43.8608 37.978 43.8068 38.2004 43.7554 38.4239C43.7446 38.4668 43.7353 38.5089 43.726 38.5509C43.675 38.7795 43.627 39.0081 43.5822 39.2367C43.5759 39.2744 43.5696 39.3121 43.562 39.3506C43.5374 39.4828 43.5133 39.6159 43.4913 39.7493L43.4624 39.9259C43.4439 40.0428 43.4254 40.1596 43.4083 40.2757L43.3828 40.4583C43.3649 40.5827 43.3419 40.7113 43.3344 40.8311L43.3154 40.9797C43.2916 41.1544 43.2736 41.3274 43.2615 41.4988C43.2589 41.5397 43.2563 41.5806 43.2517 41.6212C43.2422 41.7409 43.2307 41.8603 43.2231 41.9802C43.2181 42.0395 43.215 42.0991 43.2119 42.1586C43.2054 42.2608 43.1997 42.3612 43.1987 42.4602C43.1957 42.5263 43.1937 42.5943 43.1909 42.6576C43.1858 42.7525 43.1826 42.8475 43.1799 42.9435L43.1747 43.1487C43.1737 43.2412 43.1713 43.3344 43.1717 43.4261L43.1707 43.6354C43.1711 43.7271 43.1716 43.8188 43.1739 43.9106C43.1745 43.9799 43.1757 44.0501 43.1777 44.1186C43.1792 44.2122 43.1822 44.3051 43.1865 44.3971C43.1879 44.4646 43.1913 44.5323 43.1947 44.5999C43.1988 44.6948 43.2034 44.7906 43.2094 44.8856L43.2204 45.0803L43.2444 45.3856C43.2495 45.4432 43.2531 45.5015 43.2587 45.56C43.2655 45.6402 43.2756 45.7197 43.2824 45.7999L43.3052 46.0154C43.314 46.0957 43.3247 46.1763 43.3357 46.2606C43.3468 46.3449 43.3526 46.4007 43.363 46.4709C43.3734 46.5412 43.385 46.633 43.3977 46.7138C43.4104 46.7945 43.4165 46.854 43.4283 46.9235C43.4401 46.9929 43.4542 47.086 43.4672 47.164C43.4801 47.2419 43.4891 47.2999 43.5011 47.3665C43.5336 47.5502 43.5689 47.7324 43.6075 47.9139C43.6172 47.9635 43.6283 48.0123 43.6381 48.0619C43.6687 48.2034 43.7012 48.345 43.7352 48.4859C43.7469 48.5357 43.7578 48.5873 43.7708 48.6363C43.798 48.7521 43.8293 48.8722 43.8609 48.9894C43.8726 49.0327 43.8829 49.0767 43.8945 49.12C43.9386 49.2787 43.9847 49.4376 44.0322 49.5957C44.0458 49.6457 44.0623 49.6941 44.0773 49.7433C44.1074 49.8417 44.1381 49.9411 44.1697 50.0387L44.2301 50.2131C44.2585 50.302 44.2888 50.3911 44.32 50.4784C44.3455 50.5492 44.3716 50.621 44.4008 50.695C44.4299 50.769 44.449 50.8317 44.4761 50.8989C44.5033 50.9662 44.5316 51.042 44.5597 51.114C44.5877 51.186 44.6121 51.2483 44.6387 51.3145L44.7355 51.5431C44.7671 51.5986 44.7855 51.6603 44.8096 51.7188L44.9156 51.9539C44.9455 52.0065 44.9657 52.0646 44.9914 52.1196C45.0479 52.2406 45.1056 52.3614 45.1643 52.482C45.1694 52.4892 45.1737 52.4968 45.1773 52.5048C45.2479 52.6288 45.3053 52.7589 45.3711 52.8843C45.4369 53.0097 45.5263 53.1571 45.6036 53.2929C45.6809 53.4288 45.7622 53.5717 45.8417 53.7115C45.9117 53.8345 45.9817 53.9575 46.0636 54.0723C46.115 54.1626 46.1742 54.2471 46.2305 54.3332C46.3061 54.4465 46.3816 54.5597 46.4594 54.6704C46.518 54.7539 46.5746 54.8372 46.634 54.9189C46.7121 55.0268 46.7929 55.1332 46.8731 55.2385C46.9328 55.3174 46.992 55.3954 47.0525 55.4725C47.1372 55.5793 47.2242 55.6834 47.3112 55.7875C47.3697 55.8579 47.4274 55.9301 47.4874 55.9997C47.583 56.1094 47.6798 56.2146 47.7771 56.3207C47.8314 56.3804 47.8849 56.4418 47.94 56.4998C48.0837 56.6526 48.2301 56.8017 48.3793 56.947C48.386 56.9589 48.3934 56.9718 48.4105 56.9791C48.571 57.1346 48.7355 57.284 48.9015 57.4297C48.9476 57.4718 48.9957 57.5075 49.0437 57.5497C49.1693 57.6568 49.2949 57.7639 49.423 57.8656C49.4868 57.916 49.5514 57.9646 49.6169 58.0179C49.7343 58.1074 49.8511 58.1958 49.9702 58.2817C50.0893 58.3675 50.1974 58.4439 50.312 58.5218C50.3294 58.5329 50.3448 58.5438 50.3608 58.5557C50.509 58.6539 50.6562 58.75 50.8077 58.8411C50.847 58.8647 50.8844 58.888 50.9214 58.9077C51.0674 58.9953 51.2161 59.0814 51.3646 59.1636L51.389 59.1773C51.5469 59.2634 51.706 59.3448 51.8654 59.4235L51.9958 59.4872C52.1137 59.5449 52.2337 59.6 52.354 59.6523C52.409 59.6775 52.464 59.7027 52.5204 59.727C52.6623 59.7881 52.8045 59.8464 52.9489 59.9021L53.0277 59.9334C53.209 60.0053 53.3906 60.07 53.5724 60.1276C53.6049 60.1393 53.6377 60.1482 53.6717 60.1591C53.8216 60.2051 53.9716 60.251 54.1202 60.2978L54.1787 60.3131C54.3371 60.3543 54.5021 60.4008 54.6661 60.4389L54.7311 60.4557C54.8992 60.4913 55.0673 60.527 55.2382 60.561L55.3413 60.5798C55.515 60.6123 55.6915 60.6432 55.8654 60.6663C55.8706 60.6662 55.8755 60.667 55.8797 60.6687C56.0562 60.693 56.2323 60.7136 56.4088 60.7314L56.5625 60.745C56.6966 60.7566 56.8336 60.7667 56.9699 60.7758L57.1136 60.7846C57.2914 60.792 57.4698 60.7968 57.6485 60.7993L57.7258 60.7987C57.8809 60.7984 58.0354 60.7971 58.1932 60.7953L58.3542 60.7891C58.4946 60.7826 58.6374 60.7737 58.7795 60.7637L58.9038 60.7547C59.0806 60.7407 59.2563 60.7248 59.4429 60.6987C59.4843 60.6935 59.5246 60.6864 59.5646 60.682C59.7084 60.6619 59.8516 60.6408 59.9957 60.6179L60.1629 60.5871C60.3159 60.5604 60.4692 60.531 60.6241 60.498L60.7102 60.4805C60.8895 60.4415 61.0698 60.398 61.249 60.3525L61.3933 60.3137C61.5309 60.2762 61.6692 60.2368 61.8071 60.1965L61.9641 60.1478C62.145 60.0922 62.3256 60.0328 62.505 59.9714L55.4277 62.4725C55.248 62.5367 55.0683 62.5943 54.8869 62.6489L54.7292 62.6966C54.5919 62.7379 54.455 62.7765 54.3168 62.8131C54.2688 62.826 54.2198 62.8407 54.1712 62.8526C53.9925 62.8991 53.8122 62.9426 53.6324 62.9806C53.6033 62.988 53.5745 62.9925 53.5462 62.9981C53.3927 63.0303 53.2394 63.0598 53.0851 63.0872L52.9178 63.118C52.7748 63.1416 52.6316 63.1627 52.4881 63.1813C52.4473 63.1875 52.4065 63.1937 52.3665 63.198C52.1924 63.217 52.0075 63.2395 51.8279 63.255L51.7017 63.2638C51.5601 63.2748 51.4188 63.283 51.2763 63.2892L51.1154 63.2954C50.9612 63.3004 50.8058 63.3035 50.6522 63.3029L50.5729 63.3034C50.3893 63.3054 50.2166 63.2974 50.0394 63.2879C49.9906 63.2868 49.9422 63.2828 49.8943 63.2799C49.7585 63.2718 49.6222 63.2627 49.4869 63.2491L49.3346 63.2347C49.1567 63.2177 48.9806 63.1971 48.8055 63.172L48.7898 63.1704C48.6526 63.15 48.5148 63.1287 48.382 63.1031L48.2699 63.0815C48.2354 63.0762 48.2018 63.0691 48.1688 63.0629C47.9979 63.0289 47.8284 62.994 47.6616 62.9576C47.6389 62.9534 47.6171 62.9475 47.5958 62.9425C47.4333 62.9037 47.2721 62.8641 47.1079 62.8158L47.0493 62.8005C47.0459 62.7946 47.03 62.7958 47.0204 62.792C46.8772 62.7514 46.7351 62.7062 46.5924 62.66L46.4937 62.6295C46.316 62.5705 46.138 62.5076 45.963 62.4405L45.949 62.4353L45.8696 62.403C45.7294 62.3515 45.583 62.289 45.4411 62.228C45.3853 62.2046 45.3303 62.1794 45.2753 62.1542C45.2204 62.1291 45.1421 62.0987 45.0748 62.0648C45.0075 62.0309 44.9702 62.0141 44.9166 61.9881L44.789 61.9294C44.6316 61.8509 44.475 61.7706 44.3201 61.6868C44.3201 61.6868 44.3201 61.6868 44.3167 61.6808L44.2923 61.6671C44.1425 61.5857 43.9951 61.4988 43.8472 61.411L43.7349 61.3436C43.6987 61.3221 43.6631 61.3017 43.6254 61.2746C43.5132 61.2071 43.3966 61.129 43.2846 61.0523C43.2678 61.0422 43.2518 61.0303 43.2349 61.0201C43.1521 60.9622 43.0684 60.9061 42.9856 60.8482C42.9547 60.8264 42.9241 60.8018 42.8926 60.779C42.7755 60.6934 42.6573 60.6057 42.5412 60.5155C42.4957 60.481 42.4494 60.4483 42.4039 60.4137C42.3856 60.3979 42.3674 60.382 42.3477 60.3669C42.2196 60.2652 42.0946 60.1591 41.9684 60.051C41.9288 60.0171 41.8869 59.9858 41.8487 59.9511L41.8268 59.932C41.6601 59.7853 41.4971 59.6352 41.3352 59.4805C41.3289 59.4695 41.3222 59.4576 41.3056 59.4513C41.1568 59.3067 41.0102 59.1572 40.8658 59.0031C40.8607 58.9941 40.8557 58.9852 40.843 58.9793C40.7958 58.9287 40.7507 58.8755 40.7029 58.824C40.6062 58.7188 40.5088 58.6127 40.4151 58.5032C40.4055 58.4864 40.3875 58.4743 40.3752 58.459C40.3276 58.4047 40.2837 58.347 40.237 58.2908C40.15 58.1867 40.0636 58.0835 39.9789 57.9768C39.9648 57.952 39.9428 57.933 39.9251 57.9116C39.8823 57.8558 39.8417 57.7975 39.7995 57.7428C39.7187 57.6365 39.6384 57.5311 39.5598 57.4222C39.5418 57.3905 39.5159 57.3645 39.4922 57.3294C39.4606 57.2739 39.4201 57.2221 39.3829 57.1697C39.3065 57.0582 39.2302 56.9468 39.1541 56.8325C39.1309 56.7919 39.1084 56.7522 39.0755 56.7171C39.0426 56.682 39.019 56.6179 38.9919 56.5703C38.9171 56.4518 38.843 56.3312 38.7694 56.2085C38.7412 56.1589 38.713 56.1093 38.6848 56.0597C38.634 55.9704 38.5826 55.8802 38.5313 55.7899C38.4462 55.6729 38.3709 55.5306 38.2977 55.3924Z" fill="#FFBD36" stroke="black"/>
<path fill-rule="evenodd" clip-rule="evenodd" d="M67.04 49.4931C67.3671 37.2873 60.3879 25.2588 51.4829 22.6804C42.5779 20.1005 35.0666 27.9335 34.7395 40.1393C34.4124 52.3451 41.3903 64.3706 50.2968 66.9506C59.2032 69.5305 66.7129 61.6989 67.04 49.4931ZM61.9591 48.3714C62.1976 39.5281 57.3359 30.8193 51.1222 28.9587C44.9084 27.097 39.6589 32.7782 39.4204 41.6215C39.1819 50.4648 44.0426 59.1714 50.2573 61.0332C56.4721 62.8949 61.7206 57.2147 61.9591 48.3714Z" fill="#FFBD36"/>
<path d="M51.4829 22.6804L51.3437 23.1607L51.3438 23.1607L51.4829 22.6804ZM67.04 49.4931L67.5399 49.5065L67.04 49.4931ZM34.7395 40.1393L34.2397 40.1259L34.7395 40.1393ZM50.2968 66.9506L50.1576 67.4308L50.2968 66.9506ZM51.1222 28.9587L50.9787 29.4376L50.9787 29.4377L51.1222 28.9587ZM61.9591 48.3714L62.4589 48.3848L61.9591 48.3714ZM39.4204 41.6215L39.9202 41.635L39.4204 41.6215ZM50.2573 61.0332L50.1138 61.5121L50.2573 61.0332ZM51.3438 23.1607C55.6341 24.4029 59.5152 27.9433 62.291 32.7274C65.063 37.5049 66.7012 43.4723 66.5402 49.4797L67.5399 49.5065C67.706 43.3082 66.0181 37.1584 63.156 32.2256C60.2977 27.2994 56.2367 23.5363 51.6219 22.2001L51.3438 23.1607ZM35.2394 40.1527C35.4004 34.1424 37.3293 29.2625 40.2554 26.2113C43.1677 23.1744 47.0824 21.9261 51.3437 23.1607L51.622 22.2002C46.9783 20.8548 42.6849 22.2331 39.5336 25.5192C36.396 28.791 34.4057 33.9305 34.2397 40.1259L35.2394 40.1527ZM50.4359 66.4703C46.1448 65.2273 42.2637 61.6873 39.488 56.9037C36.7162 52.1268 35.0784 46.1602 35.2394 40.1527L34.2397 40.1259C34.0736 46.3243 35.7611 52.4733 38.6231 57.4056C41.4812 62.3312 45.5422 66.0939 50.1576 67.4308L50.4359 66.4703ZM66.5402 49.4797C66.3792 55.4901 64.4506 60.3696 61.5248 63.4204C58.6127 66.4569 54.698 67.7049 50.4359 66.4703L50.1576 67.4308C54.802 68.7762 59.0954 67.3983 62.2465 64.1126C65.384 60.8411 67.3738 55.7019 67.5399 49.5065L66.5402 49.4797ZM50.9787 29.4377C53.9193 30.3182 56.5997 32.8438 58.5237 36.2902C60.443 39.7285 61.5761 44.0279 61.4593 48.3579L62.4589 48.3848C62.5806 43.8716 61.4021 39.3949 59.3968 35.8028C57.3961 32.2189 54.5388 29.4598 51.2656 28.4797L50.9787 29.4377ZM39.9202 41.635C40.0371 37.3013 41.3811 33.7974 43.3978 31.6151C45.3997 29.4486 48.0719 28.5668 50.9787 29.4376L51.2657 28.4797C47.9587 27.4889 44.8992 28.5168 42.6633 30.9364C40.4422 33.3401 39.0422 37.0985 38.9205 41.6081L39.9202 41.635ZM50.4008 60.5542C47.4597 59.6731 44.7792 57.1477 42.8554 53.7017C40.9362 50.2639 39.8034 45.9651 39.9202 41.635L38.9205 41.6081C38.7988 46.1213 39.9771 50.5974 41.9823 54.1892C43.9829 57.7727 46.8402 60.5315 50.1138 61.5121L50.4008 60.5542ZM61.4593 48.3579C61.3424 52.6917 59.9986 56.1952 57.9821 58.3773C55.9803 60.5435 53.3081 61.4251 50.4008 60.5542L50.1138 61.5121C53.4213 62.5029 56.4808 61.4753 58.7165 59.056C60.9376 56.6526 62.3373 52.8944 62.4589 48.3848L61.4593 48.3579Z" fill="black"/>
<path d="M72.8318 47.8264L72.8326 47.8032C72.838 47.6307 72.8375 47.4585 72.831 47.2866C72.8321 47.2751 72.8325 47.2635 72.8321 47.2519C72.8371 47.0929 72.8273 46.9335 72.8234 46.7727C72.8237 46.7641 72.824 46.7539 72.8243 46.7438C72.8267 46.6672 72.8187 46.5917 72.8152 46.5149C72.8126 46.4068 72.8086 46.2982 72.8032 46.189C72.8057 46.108 72.7949 46.0281 72.7915 45.947L72.7774 45.6861C72.7779 45.6688 72.7784 45.6529 72.779 45.6355L72.7608 45.3629L72.7388 45.0728C72.7312 44.9829 72.7236 44.8929 72.7146 44.8015L72.6951 44.5708C72.6957 44.5535 72.6963 44.5347 72.6895 44.5157L72.6514 44.1672C72.6434 44.0903 72.6355 44.0119 72.626 43.9349C72.6108 43.8071 72.5955 43.6793 72.5787 43.5514C72.5701 43.4933 72.5646 43.4338 72.556 43.3756C72.5569 43.3699 72.5571 43.3641 72.5566 43.3583C72.5289 43.1534 72.4997 42.9485 72.4674 42.7449L72.4415 42.5791C72.4163 42.4336 72.3929 42.281 72.3664 42.1326C72.3672 42.108 72.359 42.0831 72.3538 42.0598C72.3486 42.0365 72.34 41.9812 72.3323 41.9419C72.3007 41.7644 72.2662 41.5868 72.2317 41.4106C72.2202 41.3495 72.2088 41.2898 72.1958 41.2287C72.1495 41.0029 72.1031 40.7772 72.0522 40.5542L72.0528 40.5354C72.0359 40.4596 72.0173 40.3896 71.9991 40.3066L71.9295 40.015L71.8662 39.7612C71.841 39.6649 71.8173 39.5687 71.7922 39.4695C71.7671 39.3703 71.7471 39.3003 71.7245 39.2156C71.7019 39.131 71.674 39.0245 71.6475 38.9238C71.621 38.8231 71.5994 38.7545 71.5738 38.6712C71.5482 38.5879 71.5203 38.4814 71.4921 38.3879C71.4924 38.3763 71.4928 38.3648 71.4828 38.3529C71.4652 38.2974 71.4477 38.2418 71.4316 38.1863C71.3952 38.068 71.3588 37.9496 71.321 37.8312C71.2981 37.7567 71.2736 37.6851 71.2493 37.6076C71.2141 37.498 71.1775 37.3883 71.1408 37.2786C71.115 37.2026 71.0892 37.1251 71.0619 37.049L70.9516 36.7315L70.8668 36.4988C70.83 36.3949 70.7917 36.291 70.7518 36.1884C70.7231 36.1109 70.6941 36.0419 70.6641 35.9571C70.6242 35.8545 70.5844 35.7506 70.5431 35.648C70.5128 35.5732 70.4838 35.5014 70.4536 35.4223C70.4109 35.3183 70.3681 35.2142 70.3239 35.1101L70.2341 34.8945C70.1871 34.7845 70.1385 34.6759 70.0959 34.5675C70.0667 34.5029 70.039 34.4384 70.0114 34.3739L69.8362 33.9922C69.8167 33.9525 69.8002 33.9114 69.7806 33.8718L69.781 33.8602C69.6947 33.6766 69.6068 33.4959 69.5174 33.3151C69.4923 33.2622 69.4657 33.2122 69.4406 33.1608C69.3749 33.0299 69.3106 32.9006 69.2434 32.7726L69.1454 32.5843C69.0823 32.4651 69.0177 32.3459 68.9531 32.2281C68.9208 32.1677 68.8885 32.1074 68.8548 32.047C68.7798 31.9135 68.7038 31.7794 68.6268 31.6448L68.5735 31.5476L68.5621 31.5314C68.4297 31.3015 68.2928 31.0758 68.1557 30.8516C68.1288 30.8102 68.1034 30.7689 68.078 30.7276C67.9422 30.5091 67.804 30.294 67.6631 30.0822L67.6334 30.035L67.5737 29.9506C67.4758 29.8028 67.3765 29.655 67.2755 29.5144L67.1902 29.3916C67.0651 29.2155 66.9398 29.0423 66.8115 28.8718L66.7902 28.8408L66.7146 28.7429C66.6319 28.6323 66.5477 28.5225 66.462 28.4137C66.4221 28.3604 66.3807 28.3084 66.3393 28.2565C66.2578 28.1541 66.1763 28.0531 66.0934 27.9521L66.0162 27.8557L65.9704 27.8021L65.7456 27.5361L65.6252 27.3948C65.5278 27.2832 65.4288 27.1716 65.3298 27.0614C65.3125 27.0435 65.2953 27.0242 65.2796 27.0048C65.1662 26.8783 65.0513 26.756 64.9348 26.6337L64.8514 26.5472L64.5852 26.2726L64.5679 26.2561L64.3994 26.0902L64.2452 25.9406C64.1818 25.8779 64.1168 25.818 64.0519 25.758L63.9081 25.6088L63.8979 25.5998C63.7955 25.5054 63.6929 25.4125 63.5889 25.321L63.5658 25.3C63.4531 25.2009 63.3402 25.1048 63.2274 25.0086L63.217 25.0083L63.1259 24.9316L62.871 24.7225L62.7391 24.6185C62.6812 24.5733 62.6247 24.5267 62.5652 24.4828L62.5188 24.4466C62.4738 24.4134 62.4288 24.3801 62.3853 24.3455L62.1676 24.1853L62.0223 24.0823L61.9134 24.0036L61.8073 23.9309L61.6618 23.8337L61.4364 23.6819L61.3039 23.5952L61.253 23.5618L61.036 23.4262L60.9456 23.3713C60.832 23.3011 60.7168 23.2324 60.6015 23.1666L60.5855 23.1574L60.5008 23.1098C60.4075 23.0563 60.314 23.0056 60.2205 22.9563C60.1782 22.9319 60.1343 22.9102 60.0905 22.8871L59.9445 22.8059L59.8568 22.7626L59.7105 22.6914L59.475 22.5769L59.3285 22.5116L59.2597 22.479L59.0751 22.398L58.9521 22.3434C58.8319 22.2919 58.7102 22.2432 58.5899 22.1946L58.5736 22.1941C58.4459 22.1452 58.3182 22.0963 58.189 22.0503L58.0656 22.0074L57.8555 21.9342L57.8128 21.9213C57.6556 21.8686 57.4982 21.8202 57.3407 21.7747C57.2656 21.7521 57.1935 21.731 57.1139 21.7112L57.0476 21.6946L56.8399 21.6418L56.6719 21.6003C56.6011 21.5836 56.5244 21.5682 56.4609 21.5546L56.3061 21.5194L56.2633 21.5108L55.9989 21.462L55.8764 21.4393C55.7493 21.4179 55.6207 21.398 55.4935 21.3809L55.4654 21.38C55.3426 21.3632 55.2212 21.3492 55.0999 21.3367L54.9695 21.3254L54.7058 21.3041L54.645 21.3021L54.5738 21.2999C54.461 21.2964 54.3497 21.2929 54.2384 21.2894L54.1316 21.286C53.9906 21.2816 53.8494 21.2843 53.7083 21.2871L53.6875 21.2865L53.6385 21.2849C53.4899 21.2889 53.3411 21.2958 53.1923 21.3056L53.1015 21.3129C52.9437 21.3239 52.7872 21.3406 52.6307 21.3589L52.5921 21.3576L52.5175 21.3683L52.2191 21.4125L52.1011 21.4319C51.9682 21.4552 51.8352 21.48 51.7037 21.5077L44.8255 22.9711C44.9571 22.9434 45.0901 22.9187 45.2229 22.8968L45.3409 22.8773C45.4394 22.8602 45.5394 22.846 45.6393 22.8332L45.7542 22.818C45.9033 22.7981 46.0672 22.783 46.225 22.7706L46.3143 22.7647C46.4631 22.7549 46.6119 22.7466 46.7605 22.7426L46.8303 22.7448C46.9787 22.7495 47.1126 22.7407 47.2551 22.7437L47.3605 22.747C47.4717 22.7505 47.583 22.754 47.6958 22.7576L47.8278 22.7617C47.9169 22.7645 48.0042 22.7745 48.093 22.7831L48.2219 22.7944L48.5874 22.8363L48.6156 22.8372C48.7428 22.8542 48.8714 22.8741 48.9999 22.8955L49.121 22.9182C49.2097 22.9325 49.2982 22.9498 49.3868 22.967L49.5476 23.001L49.7585 23.0482L49.9266 23.0882L50.1359 23.1411L50.4304 23.2213C50.5894 23.2668 50.7467 23.3166 50.9025 23.3678L51.1567 23.4554L51.2801 23.4983C51.4079 23.5443 51.5371 23.5918 51.6647 23.6421L51.6811 23.6426C51.8028 23.6898 51.9231 23.7399 52.043 23.7987L52.166 23.8532C52.2511 23.8891 52.336 23.928 52.4209 23.9668L52.5674 24.0322L52.8044 24.1467L52.9506 24.2179C53.0311 24.2581 53.11 24.2996 53.1903 24.3427L53.3189 24.4104C53.4138 24.4611 53.5072 24.5132 53.6007 24.5639L53.6839 24.6114C53.805 24.6803 53.926 24.7507 54.0455 24.8239L54.1343 24.8802C54.2247 24.9352 54.3135 24.9915 54.4024 25.0478L54.5347 25.1359L54.7617 25.2877L54.9072 25.3835L55.1252 25.535L55.2705 25.6365L55.4882 25.7982L55.6217 25.8979L55.8435 26.0727L55.9739 26.1752C56.0608 26.2445 56.1463 26.3152 56.2317 26.3859L56.3199 26.4596C56.4372 26.5573 56.5528 26.6579 56.6684 26.7599L56.6973 26.7854C56.8028 26.8785 56.9068 26.9729 57.0122 27.0688L57.1563 27.2079C57.2227 27.2708 57.2891 27.3307 57.3539 27.395L57.4978 27.5442L57.685 27.7295C57.7743 27.8191 57.862 27.9102 57.9497 28.0026C57.9785 28.031 58.0073 28.0594 58.0346 28.0892C58.1506 28.2115 58.2655 28.3352 58.3794 28.4604C58.3995 28.4813 58.4181 28.505 58.4382 28.5259C58.5338 28.635 58.6293 28.7451 58.7249 28.8561C58.7665 28.9023 58.8051 28.9498 58.8452 28.9974C58.9212 29.0851 58.9971 29.1743 59.0715 29.2635L59.1931 29.412C59.276 29.513 59.3575 29.6154 59.4389 29.7178L59.5634 29.8664C59.6476 29.9747 59.7318 30.0858 59.8145 30.1955L59.9129 30.3245C60.0402 30.4963 60.1659 30.6696 60.2901 30.8442L60.3768 30.9685L60.675 31.4033L60.763 31.5348C60.9028 31.7476 61.0411 31.9632 61.1778 32.1816C61.2047 32.223 61.2302 32.2643 61.2556 32.3056C61.3941 32.5299 61.5301 32.756 61.6635 32.984C61.6846 33.0223 61.7056 33.0606 61.7282 33.0989C61.8042 33.2315 61.8802 33.3656 61.9547 33.5011L62.053 33.6807C62.1176 33.7999 62.1821 33.9192 62.2452 34.0383L62.3432 34.2266C62.4105 34.3546 62.4837 34.4843 62.5405 34.6134L62.6188 34.7678C62.7122 34.9482 62.8 35.1304 62.8823 35.3143C62.9017 35.3583 62.9211 35.4023 62.9421 35.445C63.0004 35.5727 63.0603 35.699 63.1172 35.8281C63.1464 35.8913 63.174 35.9558 63.2017 36.0203C63.2502 36.1304 63.2973 36.2389 63.3399 36.3488C63.3703 36.4206 63.4006 36.4954 63.4297 36.5643C63.474 36.667 63.5167 36.7711 63.5594 36.8766L63.6504 37.1023C63.6902 37.2048 63.7315 37.3074 63.7699 37.4099L63.8591 37.6428C63.8975 37.7452 63.9358 37.8477 63.9727 37.9516C64.0014 38.0292 64.0301 38.1083 64.0574 38.1858C64.0957 38.2912 64.1325 38.3965 64.1678 38.5018C64.1951 38.5779 64.2208 38.6554 64.2466 38.7329C64.2833 38.8411 64.32 38.9508 64.3551 39.0604L64.4283 39.2841L64.5374 39.6391C64.5576 39.7063 64.5792 39.7736 64.5994 39.8422C64.6276 39.9357 64.6528 40.0305 64.6811 40.124L64.7533 40.3781C64.78 40.473 64.8052 40.5693 64.8318 40.6699C64.8583 40.7706 64.877 40.8363 64.8981 40.9209C64.9192 41.0055 64.9485 41.1149 64.9721 41.2126C64.9958 41.3103 65.0158 41.3804 65.0355 41.4649C65.0551 41.5494 65.0827 41.6617 65.105 41.7565C65.1273 41.8512 65.1444 41.9212 65.1626 42.0028C65.2135 42.2272 65.2614 42.4516 65.3062 42.6773C65.3192 42.7384 65.3306 42.7996 65.3435 42.8607C65.3781 43.0369 65.4111 43.2145 65.4427 43.392C65.4541 43.4546 65.4669 43.5186 65.4768 43.5812C65.5034 43.7267 65.5283 43.8794 65.5518 44.0292C65.5605 44.0844 65.5706 44.1397 65.5793 44.195C65.61 44.3985 65.6392 44.6035 65.6669 44.8084C65.6768 44.8723 65.6837 44.9362 65.6921 45.0001C65.7089 45.128 65.7256 45.2573 65.7409 45.3851L65.7648 45.6159C65.779 45.7321 65.7916 45.8497 65.8028 45.9658C65.8117 46.0602 65.8206 46.1559 65.8278 46.256C65.8351 46.3561 65.8459 46.4374 65.8519 46.5288C65.858 46.6201 65.8667 46.7217 65.874 46.8188C65.8813 46.916 65.8876 47.0001 65.8937 47.09L65.9106 47.4031C65.908 47.4841 65.9189 47.564 65.9238 47.6437L65.9358 47.9696C65.9334 48.0463 65.9414 48.1232 65.9434 48.1999C65.948 48.3689 65.9516 48.5383 65.9541 48.7082C65.9531 48.7192 65.9527 48.7303 65.9531 48.7414C65.9474 48.9221 65.9551 49.1017 65.9539 49.2811C65.9528 49.4605 65.9414 49.6786 65.9352 49.8767C65.929 50.0747 65.9224 50.2828 65.916 50.4867C65.9104 50.6659 65.9047 50.8451 65.8858 51.0225C65.8816 51.1541 65.8687 51.2839 65.8586 51.4138C65.8443 51.5855 65.83 51.7572 65.8127 51.9274C65.7998 52.0558 65.7884 52.1828 65.774 52.3096C65.7554 52.4769 65.7338 52.6441 65.7122 52.8098C65.6964 52.9337 65.6807 53.0562 65.6635 53.1787C65.6388 53.3486 65.6112 53.517 65.5837 53.6855C65.5652 53.7992 65.5482 53.9144 65.5283 54.0281C65.4959 54.2079 65.4607 54.3834 65.4254 54.5602C65.406 54.6594 65.3879 54.7602 65.367 54.8579C65.3134 55.1147 65.2559 55.369 65.1945 55.6208C65.194 55.6381 65.1934 55.6569 65.1824 55.6754C65.116 55.9453 65.0438 56.2107 64.9687 56.4731C64.9485 56.5477 64.9241 56.6164 64.9024 56.6924C64.8442 56.8874 64.7861 57.0823 64.7237 57.2728C64.6925 57.3673 64.6599 57.4604 64.6286 57.5592C64.5697 57.7295 64.5109 57.8984 64.4492 58.0658C64.3875 58.2331 64.3308 58.3833 64.2695 58.539C64.2598 58.5619 64.2518 58.5833 64.2436 58.6062C64.1631 58.8048 64.0827 59.0005 63.9964 59.1931C63.974 59.2431 63.9532 59.2916 63.931 59.3358C63.8479 59.5213 63.7619 59.7067 63.6745 59.8877L63.6602 59.9176C63.5666 60.1085 63.4701 60.295 63.3723 60.4786L63.2918 60.628C63.2192 60.7632 63.1437 60.8968 63.0668 61.0275C63.0322 61.0887 62.9976 61.1498 62.9616 61.2109C62.8706 61.3643 62.7782 61.5147 62.6829 61.6637L62.6313 61.746C62.5125 61.9351 62.3905 62.1165 62.2652 62.29C62.2434 62.3226 62.2202 62.3523 62.1969 62.3849C62.0929 62.5263 61.9889 62.6677 61.8864 62.8092L61.8447 62.8614C61.7319 63.0025 61.6157 63.1537 61.4969 63.2946L61.4505 63.3525C61.3273 63.4933 61.204 63.6341 61.0778 63.7749L61.0009 63.8578C60.8717 63.9984 60.7396 64.139 60.6063 64.2693C60.602 64.2723 60.5983 64.2762 60.5955 64.2806C60.4606 64.4138 60.3244 64.5426 60.1868 64.6685L60.066 64.7761C59.9606 64.8697 59.8522 64.9633 59.7439 65.0554L59.6294 65.1516C59.4862 65.2667 59.3416 65.3794 59.1955 65.4895L59.1317 65.5353C59.004 65.6282 58.8764 65.7197 58.7457 65.8125L58.6107 65.9023C58.4924 65.9796 58.3712 66.0554 58.2501 66.1297L58.1441 66.1944C57.9927 66.2851 57.8414 66.373 57.6769 66.4561C57.6406 66.4752 57.6045 66.4914 57.5697 66.5105C57.443 66.5746 57.3162 66.6371 57.1881 66.6982L57.0375 66.7644C56.9003 66.8266 56.7618 66.8859 56.6204 66.9422L56.5422 66.9745C56.3783 67.0388 56.2115 67.0987 56.0449 67.1556L55.9098 67.1991C55.7808 67.2399 55.6504 67.2792 55.52 67.3171L55.3702 67.3572C55.1979 67.4039 55.0243 67.4462 54.8508 67.4856L61.729 66.0207C61.9039 65.9842 62.0761 65.9405 62.2484 65.8924L62.3982 65.8508C62.5286 65.8144 62.6575 65.775 62.7866 65.7328C62.8316 65.7183 62.8781 65.7053 62.9231 65.6893C63.0897 65.6338 63.2565 65.5739 63.4204 65.5082C63.4475 65.4989 63.4731 65.4867 63.4987 65.4759C63.6386 65.4195 63.7771 65.3602 63.9157 65.298L64.0663 65.2319C64.1939 65.1722 64.3207 65.1097 64.4465 65.0442C64.4827 65.0265 64.5189 65.0088 64.5537 64.9897C64.7048 64.9062 64.8664 64.8201 65.0208 64.7294L65.1283 64.6634C65.2494 64.5905 65.3692 64.5147 65.489 64.436L65.624 64.3462C65.753 64.2591 65.882 64.1691 66.0082 64.0761L66.0736 64.029C66.2255 63.9209 66.3642 63.8081 66.506 63.691C66.5456 63.6604 66.5838 63.6269 66.6219 63.5948C66.7302 63.5042 66.8386 63.4121 66.9441 63.3156L67.0633 63.2079C67.2025 63.0821 67.3387 62.9532 67.4721 62.82L67.4843 62.8088C67.5887 62.7035 67.693 62.5969 67.7915 62.4885L67.8746 62.3971C67.9006 62.3704 67.9253 62.3423 67.9499 62.3156C68.0761 62.1748 68.2008 62.0341 68.3226 61.8932C68.3395 61.8749 68.355 61.8552 68.3704 61.8368C68.4877 61.6958 68.6036 61.5548 68.7183 61.4021L68.76 61.3499C68.7603 61.3412 68.7739 61.333 68.7802 61.3231C68.8809 61.1917 68.9787 61.0558 69.0766 60.9186L69.1449 60.8252C69.2662 60.6525 69.3861 60.4754 69.5017 60.2953L69.511 60.2811L69.5627 60.1974C69.6562 60.0556 69.7503 59.898 69.8413 59.7446C69.8773 59.6849 69.9119 59.6238 69.9465 59.5627C69.9811 59.5016 70.0327 59.4207 70.0738 59.3424C70.1148 59.2641 70.1384 59.2229 70.1715 59.1617L70.2518 59.0196C70.3481 58.8374 70.443 58.6537 70.535 58.4671C70.535 58.4671 70.535 58.4671 70.5353 58.4584L70.5496 58.4285C70.6384 58.2475 70.723 58.0621 70.8076 57.8752L70.8715 57.7325C70.8922 57.6868 70.9129 57.6426 70.9324 57.5897C70.9963 57.447 71.0592 57.2899 71.119 57.1369C71.1286 57.1155 71.1367 57.0926 71.1463 57.0712C71.19 56.9568 71.2351 56.844 71.2788 56.7296C71.295 56.6867 71.3098 56.6408 71.3261 56.5965C71.3863 56.4305 71.4465 56.2617 71.5039 56.0913C71.5267 56.0255 71.551 55.9611 71.5739 55.8953C71.5822 55.8666 71.5906 55.8379 71.6004 55.8093C71.6628 55.6188 71.7209 55.4253 71.779 55.2289C71.7973 55.1673 71.8185 55.1072 71.8353 55.0455L71.8453 55.0111C71.9204 54.7472 71.9912 54.4818 72.0591 54.2119C72.0596 54.196 72.0601 54.1786 72.0711 54.1616C72.1324 53.9108 72.19 53.656 72.2436 53.3973C72.2441 53.3843 72.2445 53.3713 72.2523 53.3571C72.2698 53.2722 72.2845 53.1859 72.302 53.0996C72.3372 52.9242 72.3725 52.7473 72.4034 52.5689C72.4041 52.5443 72.4138 52.52 72.4176 52.4955C72.4337 52.4063 72.4455 52.3156 72.4602 52.2249C72.4878 52.0565 72.5153 51.8895 72.54 51.7195C72.5411 51.6834 72.5511 51.649 72.5567 51.6144C72.5684 51.5265 72.5771 51.4371 72.5887 51.3506C72.6103 51.1835 72.6319 51.0178 72.6506 50.8491C72.652 50.8028 72.6623 50.7583 72.667 50.7049C72.6695 50.6239 72.681 50.5418 72.6895 50.4611C72.7053 50.2908 72.721 50.1206 72.7354 49.9474C72.7373 49.8881 72.7391 49.8303 72.7513 49.7714C72.7636 49.7124 72.7559 49.6268 72.758 49.5574C72.7696 49.3803 72.7797 49.2012 72.7883 49.0201C72.7906 48.9479 72.7929 48.8756 72.7952 48.8033C72.7992 48.6732 72.8034 48.5417 72.8075 48.4101C72.8281 48.2285 72.83 48.0245 72.8318 47.8264Z" fill="#FFBD36" stroke="black"/>
<path d="M40.6003 37.1954L51.8961 36.6634L58.0047 46.1798L52.8175 56.2282L41.5218 56.7602L35.4132 47.2438L40.6003 37.1954Z" fill="#FFD785"/>
<path d="M51.8961 36.6634L40.6003 37.1954L35.4132 47.2438M51.8961 36.6634L58.0047 46.1798L52.8175 56.2282M51.8961 36.6634L46.2241 45.9565M52.8175 56.2282L41.5218 56.7602L35.4132 47.2438M52.8175 56.2282L46.2241 45.9565M35.4132 47.2438L46.2241 45.9565" stroke="black"/>
</svg>
