<svg width="96" height="96" viewBox="0 0 96 96" fill="none" xmlns="http://www.w3.org/2000/svg">
<path d="M83.3653 56.1826L48.3467 75.9114V94.6674L84.3518 72.4589L83.3653 56.1826Z" fill="#1F1CD6"/>
<path d="M11.8496 73.4453V56.1826L47.8547 76.8979V94.1606L11.8496 73.4453Z" fill="#4340DA"/>
<path d="M46.3754 36.4539L12.3125 55.9375L48.3483 76.4047L82.8737 56.1827L46.3754 36.4539Z" fill="#4340DA" fill-opacity="0.8"/>
<path d="M11.8496 56.0441V73.1186M11.8496 56.0441L28.9242 46.022M11.8496 56.0441L30.0377 66.3136M11.8496 73.1186L30.0377 83.7593M11.8496 73.1186L45.9988 55.3561M48.2259 94.4L83.8598 73.1186M48.2259 94.4V76.5831M48.2259 94.4L30.0377 83.7593M83.8598 73.1186V56.0441M83.8598 73.1186L67.0293 65.3271M83.8598 56.0441L45.9988 36M83.8598 56.0441L67.0293 65.3271M45.9988 36L28.9242 46.022M45.9988 36V55.3561M48.2259 76.5831L67.0293 65.3271M48.2259 76.5831L30.0377 66.3136M67.0293 65.3271L45.9988 55.3561M28.9242 46.022L45.9988 55.3561M30.0377 66.3136V83.7593" stroke="black" stroke-width="0.8"/>
<path d="M67.3446 42.5494V42.5244C67.3446 42.3379 67.3382 42.1519 67.3254 41.9664C67.3262 41.9539 67.3262 41.9414 67.3254 41.9289C67.3254 41.757 67.3093 41.5851 67.2997 41.4116C67.2997 41.4022 67.2997 41.3913 67.2997 41.3803C67.2997 41.2975 67.2885 41.2162 67.282 41.1334C67.2756 41.0167 67.2676 40.8995 67.258 40.7818C67.258 40.6942 67.2436 40.6083 67.2371 40.5207L67.2131 40.2394C67.2131 40.2207 67.2131 40.2035 67.2131 40.1847L67.1842 39.8909L67.1505 39.5783C67.1393 39.4814 67.128 39.3845 67.1152 39.2861L67.0863 39.0376C67.0863 39.0188 67.0863 38.9985 67.0783 38.9782L67.0254 38.6031C67.0141 38.5203 67.0029 38.4359 66.9901 38.353C66.9692 38.2155 66.9484 38.078 66.9259 37.9404C66.9147 37.8779 66.9067 37.8138 66.8954 37.7513C66.8962 37.7451 66.8962 37.7388 66.8954 37.7326C66.8585 37.5122 66.82 37.2918 66.7783 37.073L66.7446 36.8949C66.7125 36.7386 66.6821 36.5745 66.6484 36.4151C66.6484 36.3885 66.6387 36.3619 66.6323 36.3369C66.6259 36.3119 66.6147 36.2525 66.605 36.2103C66.5649 36.0197 66.5216 35.829 66.4783 35.6399C66.4639 35.5742 66.4494 35.5102 66.4334 35.4445C66.3756 35.2023 66.3179 34.96 66.2553 34.7209V34.7006C66.2345 34.6193 66.212 34.5443 66.1895 34.4552L66.1045 34.1426L66.0275 33.8707C65.997 33.7676 65.9681 33.6644 65.9377 33.5581C65.9072 33.4519 65.8831 33.3768 65.8559 33.2862C65.8286 33.1955 65.7949 33.0815 65.7628 32.9736C65.7307 32.8658 65.7051 32.7923 65.6746 32.7032C65.6441 32.6141 65.6104 32.5001 65.5767 32.4C65.5767 32.3875 65.5767 32.375 65.5655 32.3625C65.5446 32.3031 65.5238 32.2437 65.5045 32.1844C65.4612 32.0578 65.4179 31.9312 65.373 31.8046C65.3457 31.7249 65.3168 31.6483 65.2879 31.5655C65.2462 31.4482 65.2029 31.331 65.1596 31.2138C65.1291 31.1325 65.0986 31.0497 65.0666 30.9684L64.9366 30.6293L64.8371 30.3808C64.7938 30.2698 64.7489 30.1589 64.7024 30.0495C64.6687 29.9666 64.635 29.8932 64.5997 29.8025C64.5532 29.6931 64.5067 29.5822 64.4585 29.4728C64.4232 29.3931 64.3895 29.3165 64.3542 29.2321C64.3045 29.1211 64.2548 29.0102 64.2035 28.8992L64.0992 28.6694C64.0446 28.5522 63.9885 28.4366 63.9387 28.3209C63.9051 28.2522 63.873 28.1834 63.8409 28.1146L63.6387 27.7083C63.6163 27.6661 63.597 27.6223 63.5746 27.5801V27.5676C63.4751 27.3723 63.374 27.18 63.2714 26.9878C63.2425 26.9315 63.212 26.8784 63.1831 26.8237C63.1077 26.6846 63.0339 26.5471 62.9569 26.4111L62.8446 26.211C62.7724 26.0844 62.6987 25.9579 62.6249 25.8328C62.588 25.7687 62.551 25.7047 62.5125 25.6406C62.427 25.4989 62.3404 25.3567 62.2527 25.2139L62.1917 25.1108L62.1789 25.0936C62.0281 24.8498 61.8724 24.6107 61.7168 24.3731C61.6863 24.3293 61.6575 24.2856 61.6286 24.2418C61.4746 24.0105 61.3179 23.7828 61.1585 23.5588L61.1248 23.5088L61.0575 23.4197C60.9468 23.2634 60.8345 23.1072 60.7206 22.9587L60.6243 22.829C60.4831 22.643 60.342 22.4601 60.1976 22.2804L60.1735 22.2476L60.0885 22.1444C59.9954 22.0277 59.9008 21.9121 59.8045 21.7975C59.7596 21.7412 59.7131 21.6865 59.6666 21.6318C59.5751 21.524 59.4837 21.4177 59.3906 21.3114L59.304 21.2098L59.2527 21.1536L59.0008 20.8738L58.866 20.7253C58.7569 20.6081 58.6463 20.4909 58.5356 20.3752C58.5163 20.3565 58.4971 20.3362 58.4794 20.3159C58.3527 20.183 58.2243 20.0549 58.0944 19.9267L58.0013 19.8361L57.7045 19.5485L57.6853 19.5313L57.4976 19.3578L57.3259 19.2015C57.2554 19.1359 57.1832 19.0734 57.111 19.0109L56.9505 18.8546L56.9393 18.8452C56.8254 18.7467 56.7115 18.6498 56.596 18.5545L56.5703 18.5326C56.4452 18.4295 56.3201 18.3294 56.1949 18.2294H56.1837L56.0826 18.1497L55.8003 17.9325L55.6543 17.8246C55.5901 17.7777 55.5276 17.7293 55.4618 17.684L55.4104 17.6465C55.3607 17.6121 55.311 17.5777 55.2629 17.5417L55.0222 17.3761L54.8618 17.2698L54.7415 17.1885L54.6244 17.1135L54.4639 17.0135L54.2153 16.8572L54.0693 16.7681L54.0131 16.7337L53.7741 16.5946L53.6746 16.5384C53.5495 16.4665 53.4228 16.3962 53.296 16.329L53.2784 16.3196L53.1853 16.2711C53.0826 16.2164 52.98 16.1649 52.8773 16.1148C52.8308 16.0898 52.7826 16.068 52.7345 16.0445L52.5741 15.9617L52.4778 15.9179L52.3174 15.846L52.0591 15.7304L51.8987 15.6647L51.8233 15.6319L51.6211 15.5506L51.4864 15.4959C51.3548 15.4444 51.2217 15.3959 51.0901 15.3475H51.0725C50.9329 15.299 50.7934 15.2506 50.6522 15.2052L50.5174 15.163L50.288 15.0912L50.2415 15.0787C50.0698 15.0271 49.8982 14.9802 49.7265 14.9364C49.6447 14.9146 49.5661 14.8942 49.4794 14.8755L49.4073 14.8598L49.1811 14.8098L48.9982 14.7708C48.9212 14.7551 48.8377 14.7411 48.7688 14.7286L48.6003 14.6957L48.5538 14.6879L48.2666 14.6442L48.1335 14.6239C47.9955 14.6051 47.8559 14.5879 47.718 14.5738H47.6875C47.5543 14.5598 47.4228 14.5488 47.2912 14.5395L47.15 14.5316L46.8645 14.5176H46.7987H46.7217C46.5998 14.5176 46.4795 14.5176 46.3591 14.5176H46.2436C46.0912 14.5176 45.9388 14.5254 45.7864 14.5332H45.7639H45.711C45.5506 14.5426 45.3902 14.5551 45.2297 14.5707L45.1319 14.5817C44.9618 14.5988 44.7934 14.6223 44.6249 14.6473H44.5832L44.503 14.6614L44.1821 14.7192L44.0554 14.7442C43.9126 14.7739 43.7698 14.8052 43.6287 14.8395L36.249 16.654C36.3902 16.6197 36.533 16.5884 36.6758 16.5603L36.8025 16.5353C36.9084 16.5134 37.0159 16.4946 37.1233 16.4774L37.2469 16.4571C37.4073 16.4305 37.5838 16.4087 37.7538 16.3899L37.8501 16.3805C38.0105 16.3649 38.1709 16.3508 38.3314 16.3415H38.4068C38.5672 16.3415 38.7116 16.3274 38.8656 16.3258H38.9795C39.0998 16.3258 39.2201 16.3258 39.3421 16.3258H39.4848C39.5811 16.3258 39.6757 16.3336 39.772 16.3399L39.9116 16.3477L40.3078 16.3805H40.3383C40.4763 16.3946 40.6158 16.4118 40.7554 16.4305L40.887 16.4509C40.9832 16.4634 41.0795 16.479 41.1757 16.4946L41.3506 16.5259L41.58 16.5696L41.7629 16.6072L41.9907 16.6572L42.3116 16.7337C42.4848 16.7775 42.6565 16.826 42.8265 16.876L43.1041 16.9619L43.2388 17.0041C43.3784 17.0494 43.5196 17.0963 43.6591 17.1463H43.6768C43.81 17.1932 43.9415 17.2432 44.0731 17.3026L44.2078 17.3573C44.3009 17.3933 44.3939 17.4324 44.487 17.4714L44.6474 17.5371L44.9073 17.6527L45.0677 17.7246C45.1559 17.7652 45.2426 17.8074 45.3308 17.8512L45.472 17.92C45.5763 17.9715 45.6789 18.0247 45.7816 18.0763L45.873 18.1247C46.0062 18.195 46.1394 18.2669 46.2709 18.3419L46.3688 18.3998C46.4682 18.456 46.5661 18.5139 46.664 18.5717L46.8099 18.6623L47.0602 18.8186L47.2206 18.9171L47.4613 19.0734L47.6217 19.1781L47.8623 19.3453L48.0099 19.4485L48.2554 19.6298L48.3998 19.736C48.496 19.8079 48.5907 19.8814 48.6853 19.9548L48.7832 20.0314C48.9131 20.133 49.0415 20.2377 49.1698 20.344L49.2019 20.3706C49.319 20.4675 49.4345 20.5659 49.5516 20.6659L49.7121 20.8113C49.7859 20.8769 49.8597 20.9394 49.9319 21.0067L50.0923 21.1629L50.3008 21.3567C50.4003 21.4505 50.4982 21.5458 50.596 21.6427C50.6281 21.6724 50.6602 21.7021 50.6907 21.7334C50.8201 21.8615 50.9484 21.9913 51.0757 22.1225C51.0982 22.1444 51.119 22.1694 51.1415 22.1913C51.2484 22.3059 51.3554 22.4216 51.4623 22.5383C51.5088 22.5867 51.5522 22.6367 51.5971 22.6867C51.6821 22.779 51.7671 22.8727 51.8506 22.9665L51.9869 23.1228C52.08 23.2291 52.1714 23.3369 52.2629 23.4447L52.4024 23.601C52.4971 23.7151 52.5917 23.8323 52.6848 23.948L52.7955 24.084C52.9388 24.2653 53.0805 24.4481 53.2206 24.6325L53.3185 24.7638L53.6554 25.2233L53.7548 25.3624C53.9131 25.5874 54.0698 25.8156 54.2249 26.0469C54.2554 26.0907 54.2842 26.1345 54.3131 26.1782C54.4703 26.4158 54.6249 26.6554 54.7768 26.8971C54.8008 26.9378 54.8249 26.9784 54.8505 27.019C54.9372 27.1597 55.0238 27.3019 55.1088 27.4457L55.2211 27.6364C55.2949 27.763 55.3687 27.8896 55.4409 28.0162L55.5532 28.2162C55.6302 28.3522 55.7136 28.4897 55.7794 28.6272L55.8693 28.7913C55.9762 28.9831 56.0773 29.1769 56.1725 29.3727C56.1949 29.4196 56.2174 29.4665 56.2415 29.5118C56.3088 29.6478 56.3778 29.7822 56.4436 29.9197C56.4773 29.987 56.5094 30.0557 56.5415 30.1245C56.5976 30.2417 56.6521 30.3574 56.7019 30.4746C56.7372 30.5511 56.7725 30.6309 56.8062 30.7043C56.8575 30.8137 56.9072 30.9247 56.957 31.0372L57.0628 31.2779C57.1094 31.3873 57.1575 31.4967 57.2024 31.6061L57.3067 31.8546C57.3516 31.964 57.3965 32.0734 57.4398 32.1844C57.4735 32.2672 57.5072 32.3516 57.5393 32.4344C57.5842 32.5469 57.6275 32.6595 57.6693 32.772C57.7013 32.8533 57.7318 32.9361 57.7623 33.0189C57.8056 33.1346 57.8489 33.2518 57.8906 33.369L57.9773 33.6081L58.1072 33.9879C58.1313 34.0598 58.1569 34.1317 58.181 34.2052C58.2147 34.3052 58.2452 34.4068 58.2789 34.5068L58.3655 34.7787C58.3976 34.8803 58.4281 34.9835 58.4602 35.0913C58.4922 35.1992 58.5147 35.2695 58.5404 35.3601C58.566 35.4508 58.6013 35.568 58.6302 35.6727C58.6591 35.7774 58.6832 35.8524 58.7072 35.9431C58.7313 36.0337 58.765 36.1541 58.7922 36.2557C58.8195 36.3572 58.8404 36.4323 58.8628 36.5198C58.9254 36.7605 58.9847 37.0011 59.0409 37.2434C59.0569 37.309 59.0714 37.3747 59.0874 37.4403C59.1307 37.6294 59.1725 37.8201 59.2126 38.0108C59.227 38.078 59.2431 38.1467 59.2559 38.2139C59.2896 38.3702 59.3217 38.5343 59.3521 38.6953C59.3634 38.7547 59.3762 38.8141 59.3874 38.8735C59.4275 39.0923 59.466 39.3126 59.5029 39.533C59.5158 39.6018 59.5254 39.6705 59.5366 39.7393C59.5591 39.8768 59.5815 40.0159 59.6024 40.1535L59.6361 40.402C59.6553 40.527 59.673 40.6536 59.689 40.7786C59.7019 40.8802 59.7147 40.9834 59.7259 41.0912C59.7372 41.199 59.7516 41.2866 59.7612 41.385C59.7708 41.4835 59.7837 41.5929 59.7949 41.6976C59.8061 41.8023 59.8158 41.893 59.8254 41.9899L59.8543 42.3274C59.8543 42.415 59.8687 42.5009 59.8767 42.5869L59.9008 42.9385C59.9008 43.0214 59.912 43.1042 59.9168 43.187C59.9275 43.3694 59.9372 43.5522 59.9457 43.7356C59.9449 43.7476 59.9449 43.7596 59.9457 43.7715C59.9457 43.9669 59.9601 44.1607 59.965 44.3545C59.9698 44.5483 59.965 44.7843 59.965 44.9984C59.965 45.2125 59.965 45.4376 59.965 45.6579C59.965 45.8517 59.965 46.0455 59.9505 46.2378C59.9505 46.38 59.9409 46.5206 59.9345 46.6613C59.9249 46.8473 59.9152 47.0333 59.9024 47.2177C59.8928 47.3568 59.8848 47.4943 59.8735 47.6318C59.8591 47.8131 59.8414 47.9944 59.8238 48.1742C59.8109 48.3086 59.7981 48.4414 59.7837 48.5743C59.7628 48.7587 59.7388 48.9415 59.7147 49.1244C59.6987 49.2479 59.6842 49.3729 59.6666 49.4964C59.6377 49.6917 59.6056 49.8824 59.5735 50.0746C59.5559 50.1825 59.5398 50.2919 59.5206 50.3981C59.4714 50.6774 59.4179 50.954 59.3601 51.228C59.3601 51.2468 59.3602 51.2671 59.3489 51.2874C59.2864 51.5812 59.2174 51.8704 59.1452 52.1564C59.1259 52.2376 59.1019 52.3127 59.081 52.3955C59.0249 52.608 58.9687 52.8206 58.9078 53.0285C58.8773 53.1316 58.8452 53.2332 58.8147 53.341C58.757 53.527 58.6992 53.7114 58.6382 53.8943C58.5773 54.0772 58.5211 54.2413 58.4602 54.4116C58.4505 54.4366 58.4425 54.4601 58.4345 54.4851C58.3543 54.7023 58.2741 54.9164 58.1874 55.1274C58.165 55.1821 58.1441 55.2353 58.1217 55.2837C58.0382 55.4869 57.9516 55.69 57.8634 55.8885L57.8489 55.9214C57.7543 56.1308 57.6564 56.3355 57.5569 56.5371L57.4751 56.7012C57.4013 56.8497 57.3243 56.9966 57.2457 57.1404C57.2104 57.2076 57.1751 57.2748 57.1382 57.342C57.0452 57.5108 56.9505 57.6765 56.8527 57.8406L56.7997 57.9312C56.6778 58.1396 56.5521 58.3396 56.4227 58.5314C56.4003 58.5673 56.3762 58.6001 56.3521 58.6361C56.2447 58.7924 56.1372 58.9487 56.0313 59.1049L55.988 59.1628C55.8709 59.3191 55.7506 59.4863 55.627 59.6426L55.5789 59.7066C55.4505 59.8629 55.3222 60.0192 55.1906 60.1755L55.1104 60.2677C54.9757 60.424 54.8377 60.5803 54.6981 60.7256C54.6936 60.729 54.6898 60.7333 54.6869 60.7381C54.5457 60.8866 54.403 61.0304 54.2586 61.1711L54.1318 61.2914C54.0211 61.3961 53.9072 61.5008 53.7933 61.604L53.673 61.7118C53.5222 61.841 53.3698 61.9676 53.2158 62.0916L53.1484 62.1432C53.0137 62.2479 52.8789 62.351 52.7409 62.4558L52.5982 62.5573C52.473 62.6449 52.3447 62.7308 52.2163 62.8152L52.104 62.8887C51.9436 62.9918 51.7832 63.0918 51.6083 63.1872C51.5698 63.2091 51.5313 63.2278 51.4944 63.2497C51.3597 63.3231 51.2249 63.395 51.0885 63.4654L50.9281 63.5419C50.7821 63.6138 50.6345 63.6826 50.4837 63.7482L50.4003 63.7858C50.2254 63.8608 50.0474 63.9311 49.8693 63.9983L49.7249 64.0499C49.5869 64.0983 49.4474 64.1452 49.3078 64.1905L49.1474 64.239C48.9629 64.2953 48.7768 64.3468 48.5907 64.3953L55.9703 62.5792C56.158 62.5339 56.3425 62.4808 56.527 62.4229L56.6874 62.3729C56.827 62.3292 56.965 62.2823 57.1029 62.2323C57.1511 62.2151 57.2008 62.1994 57.2489 62.1807C57.427 62.115 57.6051 62.0447 57.7799 61.9681C57.8088 61.9572 57.8361 61.9431 57.8634 61.9306C58.0126 61.865 58.1602 61.7962 58.3078 61.7243L58.4682 61.6477C58.604 61.579 58.7388 61.5071 58.8725 61.4321C58.911 61.4117 58.9495 61.3914 58.9864 61.3695C59.1468 61.2742 59.3184 61.1758 59.4821 61.0726L59.596 60.9976C59.7243 60.9148 59.8511 60.8288 59.9778 60.7397L60.1206 60.6381C60.257 60.5397 60.3933 60.4381 60.5265 60.3334L60.5954 60.2802C60.7559 60.1583 60.9019 60.0317 61.0511 59.9004C61.0928 59.8661 61.1329 59.8285 61.173 59.7926C61.2869 59.691 61.4008 59.5879 61.5115 59.48L61.6366 59.3597C61.7826 59.219 61.9254 59.0752 62.065 58.9268L62.0778 58.9143C62.1869 58.797 62.296 58.6783 62.3986 58.5579L62.4853 58.4563C62.5126 58.4266 62.5382 58.3954 62.5639 58.3657C62.6954 58.2094 62.8254 58.0531 62.9521 57.8968C62.9698 57.8765 62.9858 57.8546 63.0019 57.8343C63.1238 57.678 63.2441 57.5217 63.3628 57.353L63.4061 57.2951C63.4061 57.2857 63.4206 57.2764 63.427 57.2654C63.5313 57.1201 63.6323 56.97 63.7334 56.8184L63.804 56.7153C63.9291 56.5246 64.0527 56.3293 64.1714 56.1308L64.181 56.1152L64.2339 56.0229C64.3302 55.8666 64.4264 55.6932 64.5195 55.5244C64.5564 55.4587 64.5917 55.3915 64.627 55.3243C64.6623 55.2571 64.7152 55.168 64.7569 55.0821C64.7986 54.9961 64.8227 54.9508 64.8564 54.8836L64.9382 54.7273C65.0361 54.5273 65.1323 54.3257 65.2254 54.1209C65.2254 54.1209 65.2254 54.1209 65.2254 54.1115L65.2398 54.0787C65.3296 53.8802 65.4147 53.6771 65.4997 53.4723L65.5639 53.316C65.5847 53.266 65.6056 53.2176 65.6248 53.1597C65.689 53.0035 65.7516 52.8315 65.8109 52.6643C65.8206 52.6409 65.8286 52.6159 65.8382 52.5924C65.8815 52.4674 65.9264 52.3439 65.9698 52.2189C65.9858 52.172 66.0002 52.122 66.0163 52.0735C66.0756 51.8923 66.135 51.7078 66.1911 51.5219C66.2136 51.45 66.2377 51.3796 66.2601 51.3077C66.2681 51.2765 66.2762 51.2452 66.2858 51.214C66.3468 51.0061 66.4029 50.7951 66.459 50.581C66.4767 50.5138 66.4976 50.4482 66.5136 50.381L66.5232 50.3434C66.5954 50.0559 66.6628 49.7667 66.727 49.4729C66.727 49.4557 66.727 49.437 66.7382 49.4182C66.796 49.1452 66.8494 48.8681 66.8986 48.5868C66.8986 48.5727 66.8986 48.5586 66.9066 48.543C66.9227 48.4508 66.9355 48.357 66.9516 48.2632C66.9837 48.0726 67.0157 47.8803 67.043 47.6865C67.043 47.66 67.0526 47.6334 67.0559 47.6068C67.0703 47.5099 67.0799 47.4115 67.0927 47.313C67.1168 47.1302 67.1409 46.9489 67.1617 46.7645C67.1617 46.7254 67.1714 46.6879 67.1762 46.6504C67.1858 46.555 67.1922 46.4581 67.2018 46.3644C67.2195 46.1831 67.2371 46.0033 67.2516 45.8205C67.2516 45.7705 67.2612 45.722 67.2644 45.6642C67.2644 45.5767 67.274 45.4876 67.2804 45.4001C67.2917 45.2156 67.3029 45.0312 67.3125 44.8437C67.3125 44.7796 67.3125 44.7171 67.3238 44.653C67.335 44.5889 67.3238 44.4967 67.3238 44.4217C67.3302 44.23 67.335 44.0362 67.3382 43.8403C67.3382 43.7622 67.3382 43.684 67.3382 43.6059C67.3382 43.4652 67.3382 43.323 67.3382 43.1808C67.3542 42.9838 67.3494 42.7635 67.3446 42.5494Z" fill="#FFBD36" stroke="black"/>
<path d="M43.1796 16.1137C52.886 18.5961 60.8334 31.3514 60.8949 44.5465C60.9565 57.7416 53.1111 66.4561 43.4031 63.9721C33.6952 61.4882 25.7494 48.7361 25.6879 35.5409C25.6263 22.3458 33.4733 13.6298 43.1796 16.1137Z" fill="#FFBD36" stroke="black"/>
<path d="M43.279 19.3462C51.2831 21.471 57.8367 32.389 57.8875 43.6835C57.9382 54.978 51.4687 62.4373 43.4633 60.3111C35.4579 58.1849 28.9055 47.2696 28.8548 35.9751C28.804 24.6806 35.2749 17.22 43.279 19.3462Z" fill="#FFBD36" stroke="black"/>
<path d="M35.4492 43.9068C34.8422 43.6918 34.2879 43.3882 33.7864 42.9959C33.2849 42.6037 32.8582 42.1353 32.5063 41.5906C32.1544 41.0367 31.8816 40.4128 31.6881 39.7189C31.4945 39.0157 31.3977 38.2487 31.3977 37.4181C31.3977 36.5874 31.4945 35.8937 31.6881 35.3369C31.8816 34.7708 32.1544 34.34 32.5063 34.0446C32.8582 33.7399 33.2849 33.569 33.7864 33.5319C34.2879 33.4949 34.8422 33.5838 35.4492 33.7988C36.0563 34.0138 36.6106 34.3174 37.112 34.7096C37.6135 35.1019 38.0402 35.575 38.3922 36.1289C38.7441 36.6735 39.0168 37.2975 39.2104 38.0007C39.4039 38.6945 39.5007 39.4568 39.5007 40.2875C39.5007 41.1181 39.4039 41.8165 39.2104 42.3827C39.0168 42.9395 38.7441 43.3702 38.3922 43.6749C38.0402 43.9703 37.6135 44.1365 37.112 44.1736C36.6106 44.2107 36.0563 44.1218 35.4492 43.9068ZM35.4492 42.0168C36.0563 42.2318 36.527 42.1884 36.8613 41.8868C37.2044 41.5883 37.376 41.0471 37.376 40.2631V38.8071C37.376 38.0231 37.2044 37.3603 36.8613 36.8188C36.527 36.2804 36.0563 35.9038 35.4492 35.6888C34.8422 35.4738 34.3671 35.5156 34.0239 35.8141C33.6896 36.1157 33.5225 36.6585 33.5225 37.4425V38.8985C33.5225 39.6825 33.6896 40.3437 34.0239 40.8821C34.3671 41.4236 34.8422 41.8018 35.4492 42.0168ZM44.6802 39.1256V47.0076L42.6743 46.2973V38.4153L40.18 37.532V35.642L47.1744 38.1189V40.0089L44.6802 39.1256ZM51.9332 49.7441C51.3085 49.5229 50.7455 49.2208 50.244 48.8379C49.7425 48.4456 49.3158 47.9819 48.9639 47.4466C48.6119 46.9019 48.3392 46.2874 48.1456 45.6028C47.9521 44.9089 47.8553 44.1467 47.8553 43.316C47.8553 42.4947 47.9521 41.8009 48.1456 41.2348C48.3392 40.6594 48.6119 40.2193 48.9639 39.9146C49.3158 39.6005 49.7425 39.4203 50.244 39.3739C50.7455 39.3275 51.3085 39.4149 51.9332 39.6361C52.7866 39.9383 53.4904 40.3742 54.0447 40.9438C54.599 41.5041 55.0433 42.2401 55.3776 43.1518L53.6488 43.4916C53.5256 43.0373 53.3321 42.6421 53.0681 42.306C52.813 41.9636 52.4347 41.7036 51.9332 41.5261C51.3437 41.3173 50.8686 41.3544 50.5079 41.6373C50.156 41.9141 49.98 42.4397 49.98 43.2144V44.7824C49.98 45.5571 50.156 46.2121 50.5079 46.7473C50.8686 47.2764 51.3437 47.6453 51.9332 47.8541C52.4259 48.0285 52.8174 48.0272 53.1077 47.85C53.4068 47.6666 53.6268 47.3991 53.7676 47.0476L55.404 48.6351C55.0609 49.2603 54.6078 49.6785 54.0447 49.8898C53.4904 50.0948 52.7866 50.0463 51.9332 49.7441Z" fill="#F7A600"/>
<path d="M16.3809 47.1683C18.3455 43.5884 18.3426 38.7385 24.1601 42.9139C26.4918 44.1441 26.7894 48.0434 24.8249 51.6233C22.8603 55.2031 19.3774 57.1079 17.0457 55.8777C11.0453 53.8666 14.4164 50.7481 16.3809 47.1683Z" fill="#F7A600" stroke="black" stroke-width="0.907636"/>
<ellipse rx="4.77354" ry="7.39381" transform="matrix(-0.884452 -0.466632 0.481101 -0.876665 18.4314 48.1285)" fill="#FFBB31" stroke="black" stroke-width="0.907636"/>
<path d="M75.5177 33.6381C76.8468 35.797 79.3484 37.3866 75.6648 38.9319C74.417 39.6968 72.3279 38.5667 70.9988 36.4078C69.6697 34.249 69.6038 31.8789 70.8517 31.114C73.4674 28.767 74.1886 31.4793 75.5177 33.6381Z" fill="#F7A600" stroke="black" stroke-width="0.69627"/>
<ellipse rx="2.65006" ry="4.59037" transform="matrix(0.852592 -0.522577 0.524265 0.851555 74.4824 34.351)" fill="#FFBB31" stroke="black" stroke-width="0.69627"/>
<path d="M28.3328 22.7153C22.2916 21.893 17.8408 22.7664 16.425 25.5279C13.6104 31.018 23.8575 41.8919 39.3126 49.8154C54.7677 57.739 69.5783 59.7116 72.3929 54.2215C73.7918 51.4929 71.9643 47.4344 67.8745 43.0692" stroke="black"/>
<path d="M34.646 42.357C34.0389 42.142 33.4847 41.8384 32.9832 41.4461C32.4817 41.0539 32.055 40.5855 31.7031 40.0408C31.3512 39.4869 31.0784 38.863 30.8849 38.1691C30.6913 37.4659 30.5945 36.6989 30.5945 35.8683C30.5945 35.0376 30.6913 34.3439 30.8849 33.7871C31.0784 33.221 31.3512 32.7902 31.7031 32.4948C32.055 32.1901 32.4817 32.0192 32.9832 31.9821C33.4847 31.9451 34.0389 32.034 34.646 32.249C35.2531 32.4639 35.8073 32.7676 36.3088 33.1598C36.8103 33.5521 37.237 34.0252 37.5889 34.5791C37.9408 35.1237 38.2136 35.7477 38.4071 36.4509C38.6007 37.1447 38.6975 37.907 38.6975 38.7377C38.6975 39.5683 38.6007 40.2667 38.4071 40.8329C38.2136 41.3897 37.9408 41.8204 37.5889 42.1251C37.237 42.4205 36.8103 42.5867 36.3088 42.6238C35.8073 42.6609 35.2531 42.5719 34.646 42.357ZM34.646 40.467C35.2531 40.6819 35.7238 40.6386 36.0581 40.337C36.4012 40.0385 36.5728 39.4973 36.5728 38.7133V37.2573C36.5728 36.4733 36.4012 35.8105 36.0581 35.269C35.7238 34.7306 35.2531 34.3539 34.646 34.139C34.0389 33.924 33.5638 33.9658 33.2207 34.2643C32.8864 34.5659 32.7192 35.1087 32.7192 35.8927V37.3487C32.7192 38.1327 32.8864 38.7939 33.2207 39.3323C33.5638 39.8738 34.0389 40.252 34.646 40.467ZM43.877 37.5758V45.4578L41.871 44.7475V36.8655L39.3768 35.9822V34.0922L46.3712 36.5691V38.4591L43.877 37.5758ZM51.13 48.1943C50.5053 47.973 49.9422 47.671 49.4407 47.2881C48.9393 46.8958 48.5126 46.432 48.1606 45.8968C47.8087 45.3521 47.536 44.7376 47.3424 44.053C47.1489 43.3591 47.0521 42.5969 47.0521 41.7662C47.0521 40.9449 47.1489 40.2511 47.3424 39.685C47.536 39.1096 47.8087 38.6695 48.1606 38.3648C48.5126 38.0507 48.9393 37.8705 49.4407 37.8241C49.9422 37.7777 50.5053 37.865 51.13 38.0862C51.9834 38.3885 52.6872 38.8244 53.2415 39.394C53.7957 39.9543 54.24 40.6903 54.5744 41.602L52.8456 41.9418C52.7224 41.4875 52.5288 41.0923 52.2649 40.7562C52.0098 40.4138 51.6314 40.1538 51.13 39.9762C50.5405 39.7675 50.0654 39.8046 49.7047 40.0875C49.3528 40.3642 49.1768 40.8899 49.1768 41.6646V43.2326C49.1768 44.0073 49.3528 44.6622 49.7047 45.1975C50.0654 45.7266 50.5405 46.0955 51.13 46.3043C51.6226 46.4787 52.0142 46.4774 52.3045 46.3002C52.6036 46.1168 52.8236 45.8493 52.9643 45.4978L54.6008 47.0853C54.2576 47.7105 53.8045 48.1287 53.2415 48.34C52.6872 48.545 51.9834 48.4965 51.13 48.1943Z" fill="black"/>
</svg>
