<svg width="126" height="126" viewBox="0 0 126 126" fill="none" xmlns="http://www.w3.org/2000/svg">
<path d="M109.417 73.7397L63.4551 99.6338V122.938L110.712 95.1024L109.417 73.7397Z" fill="#1F1CD6"/>
<path d="M15.5527 96.3971V73.7397L62.8094 100.929V123.586L15.5527 96.3971Z" fill="#4340DA"/>
<path d="M60.8676 47.8457L16.8477 73.7398L63.457 100.281L108.772 73.7398L60.8676 47.8457Z" fill="#4340DA" fill-opacity="0.8"/>
<path d="M15.5527 73.5578V95.9682M15.5527 73.5578L37.9631 60.4039M15.5527 73.5578L39.4247 87.0365M15.5527 95.9682L39.4247 109.934M15.5527 95.9682L60.3735 72.6549M63.2966 123.9L110.066 95.9682M63.2966 123.9V100.515M63.2966 123.9L39.4247 109.934M110.066 95.9682V73.5578M110.066 95.9682L87.9761 85.7418M110.066 73.5578L60.3735 47.25M110.066 73.5578L87.9761 85.7418M60.3735 47.25L37.9631 60.4039M60.3735 47.25V72.6549M63.2966 100.515L87.9761 85.7418M63.2966 100.515L39.4247 87.0365M87.9761 85.7418L60.3735 72.6549M37.9631 60.4039L60.3735 72.6549M39.4247 87.0365V109.934" stroke="black" stroke-width="1.05"/>
<path d="M37.8008 21.8794L54.2109 16.4093L58.6553 14.7V21.1956L94.5525 40.6827V55.7253L88.0568 58.4603L58.6553 41.5322V44.7852L54.2109 46.1527L37.8008 21.8794Z" fill="#FFBD36"/>
<path d="M54.2109 16.4093L37.8008 21.8794L54.2109 46.1527M54.2109 16.4093V23.5888M54.2109 16.4093L58.6553 14.7V21.1956M54.2109 23.5888L88.0568 42.7339M54.2109 23.5888L58.6553 21.1956M88.0568 42.7339V58.4603M88.0568 42.7339L94.5525 40.6827M88.0568 58.4603L94.5525 55.7253V40.6827M88.0568 58.4603L58.6553 41.5322M54.2109 46.1527V38.9733L58.6553 41.5322M54.2109 46.1527L58.6553 44.7852V41.5322M58.6553 21.1956L94.5525 40.6827" stroke="black" stroke-width="1.05"/>
<path d="M58.0166 50.6215L66.2217 46.519L87.4182 78.6555L79.8968 83.3174L58.0166 88.2281L57.6748 80.023L20.752 58.1428V40.3652L28.6151 37.6301L58.0166 55.0659V50.6215Z" fill="#FFBD36"/>
<path d="M58.0166 50.6215L66.2217 46.519L87.4182 78.6555L79.8968 83.3174M58.0166 50.6215V55.0659M58.0166 50.6215L79.8968 83.3174M20.752 40.3652V58.1428L57.6748 80.023L58.0166 88.2281L79.8968 83.3174M20.752 40.3652L28.6151 37.6301L58.0166 55.0659M20.752 40.3652L58.0166 62.2453V55.0659" stroke="black" stroke-width="1.05"/>
</svg>
