<svg width="96" height="96" viewBox="0 0 96 96" fill="none" xmlns="http://www.w3.org/2000/svg">
<path d="M83.5391 56.5L48.3467 75.9114V94.5L83.5391 73.5V56.5Z" fill="#1F1CD6"/>
<path d="M11.8496 73.4453V56.1826L47.8547 76.8979V94.1606L11.8496 73.4453Z" fill="#4340DA"/>
<path d="M46.3754 36.4539L12.0391 56.1827L48.3483 76.4047L84.0391 56.1827L46.3754 36.4539Z" fill="#4340DA" fill-opacity="0.8"/>
<path d="M11.8496 56.0441V73.1186M11.8496 56.0441L28.9242 46.022M11.8496 56.0441L30.0377 66.3136M11.8496 73.1186L30.0377 83.7593M11.8496 73.1186L45.9988 55.3561M48.2259 94.4L83.8598 73.1186M48.2259 94.4V76.5831M48.2259 94.4L30.0377 83.7593M83.8598 73.1186V56.0441M83.8598 73.1186L67.0293 65.3271M83.8598 56.0441L45.9988 36M83.8598 56.0441L67.0293 65.3271M45.9988 36L28.9242 46.022M45.9988 36V55.3561M48.2259 76.5831L67.0293 65.3271M48.2259 76.5831L30.0377 66.3136M67.0293 65.3271L45.9988 55.3561M28.9242 46.022L45.9988 55.3561M30.0377 66.3136V83.7593" stroke="black" stroke-width="0.8"/>
<path d="M54.2617 47.8397V35.6126L59.4412 32.5834L64.6208 29.5542L76.1058 35.6126V47.8397L65.2964 54.2721L59.779 51.0559L54.2617 47.8397Z" fill="#FFBD36"/>
<path d="M54.2617 35.6126V47.8397L59.779 51.0559L65.2964 54.2721M54.2617 35.6126L59.4412 32.5834L64.6208 29.5542L76.1058 35.6126M54.2617 35.6126L59.779 38.7165L65.2964 41.8205M65.2964 54.2721L76.1058 47.8397V35.6126M65.2964 54.2721V41.8205M76.1058 35.6126L71.0003 38.4184L65.2964 41.8205" stroke="black"/>
<path d="M20.1846 54.1217V37.0109L28.8862 31.9428L37.5878 26.8748L56.8827 37.0109V54.1217L38.7228 64.8835L29.4537 59.5026L20.1846 54.1217Z" fill="#FFBD36"/>
<path d="M20.1846 37.0109V54.1217L29.4537 59.5026L38.7228 64.8835M20.1846 37.0109L28.8862 31.9428L37.5878 26.8748L56.8827 37.0109M20.1846 37.0109L29.4537 42.2041L38.7228 47.3973M38.7228 64.8835L56.8827 54.1217V37.0109M38.7228 64.8835V47.3973M56.8827 37.0109L48.3054 41.7052L38.7228 47.3973" stroke="black"/>
<path d="M33.5391 37.8852V32.9332L36.1473 31.4665L38.7556 29.9998L44.5391 32.9332V37.8852L39.0958 40.9998L36.3174 39.4425L33.5391 37.8852Z" fill="#FFBD36"/>
<path d="M33.5391 32.9332V37.8852L36.3174 39.4425L39.0958 40.9998M33.5391 32.9332L36.1473 31.4665L38.7556 29.9998L44.5391 32.9332M33.5391 32.9332L36.3174 34.4362L39.0958 35.9391M39.0958 40.9998L44.5391 37.8852V32.9332M39.0958 40.9998V35.9391M44.5391 32.9332L41.9681 34.2918L39.0958 35.9391" stroke="black"/>
<path d="M57.7568 34.8362V27.9525L61.2789 25.9136L64.801 23.8748L72.6108 27.9525V34.8362L65.2604 39.1656L61.5086 37.0009L57.7568 34.8362Z" fill="#FFBD36"/>
<path d="M57.7568 27.9525V34.8362L61.5086 37.0009L65.2604 39.1656M57.7568 27.9525L61.2789 25.9136L64.801 23.8748L72.6108 27.9525M57.7568 27.9525L61.5086 30.0417L65.2604 32.1309M65.2604 39.1656L72.6108 34.8362V27.9525M65.2604 39.1656V32.1309M72.6108 27.9525L69.1391 29.841L65.2604 32.1309" stroke="black"/>
<path d="M26.5391 30.6381V18.9334L32.4669 15.4666L38.3947 11.9998L51.5391 18.9334V30.6381L39.1679 37.9998L32.8535 34.3189L26.5391 30.6381Z" fill="#FFBD36"/>
<path d="M26.5391 18.9334V30.6381L32.8535 34.3189L39.1679 37.9998M26.5391 18.9334L32.4669 15.4666L38.3947 11.9998L51.5391 18.9334M26.5391 18.9334L32.8535 22.4858L39.1679 26.0382M39.1679 37.9998L51.5391 30.6381V18.9334M39.1679 37.9998V26.0382M51.5391 18.9334L45.696 22.1446L39.1679 26.0382" stroke="black"/>
<path d="M84.921 41.7785V51.7297L63.251 64.5749L55.7746 61.5463V68.0362L46.5391 54.191L55.7746 44.6725L58.2209 43.1149V49.3452L63.283 51.6816L82.5846 40.9998L84.921 41.7785Z" fill="#6966E1"/>
<path d="M84.921 41.7785V51.7297L63.251 64.5749L55.7746 61.5463V68.0362L46.5391 54.191L55.7746 44.6725M84.921 41.7785L63.251 54.191L55.7746 50.7297M84.921 41.7785L82.5846 40.9998L63.283 51.6816L58.2209 49.3452M55.7746 44.6725V50.7297M55.7746 44.6725L58.2209 43.1149V49.3452M55.7746 50.7297L58.2209 49.3452" stroke="black"/>
<path d="M63.6719 64.142V54.4072L84.531 42.1677V51.5132L63.6719 64.142Z" fill="#413EBC"/>
<path d="M62.5391 33.949L60.5391 32.667V33.595C60.5391 34.2949 60.8955 34.9467 61.4847 35.3245C61.9405 35.6166 62.5391 35.2893 62.5391 34.748V33.949Z" fill="black"/>
<path d="M33.5391 28.9231L30.5391 27V28.392C30.5391 29.4419 31.0737 30.4196 31.9576 30.9862C32.6412 31.4245 33.5391 30.9335 33.5391 30.1215V28.9231Z" fill="black"/>
</svg>
