<svg width="126" height="126" viewBox="0 0 126 126" fill="none" xmlns="http://www.w3.org/2000/svg">
<path d="M109.417 73.7397L63.4551 99.6338V122.938L110.712 95.1024L109.417 73.7397Z" fill="#1F1CD6"/>
<path d="M15.5527 96.3971V73.7397L62.8094 100.929V123.586L15.5527 96.3971Z" fill="#4340DA"/>
<path d="M60.8676 47.8457L16.8477 73.7398L63.457 100.281L108.772 73.7398L60.8676 47.8457Z" fill="#4340DA" fill-opacity="0.8"/>
<path d="M15.5527 73.5578V95.9682M15.5527 73.5578L37.9631 60.4039M15.5527 73.5578L39.4247 87.0365M15.5527 95.9682L39.4247 109.934M15.5527 95.9682L60.3735 72.6549M63.2966 123.9L110.066 95.9682M63.2966 123.9V100.515M63.2966 123.9L39.4247 109.934M110.066 95.9682V73.5578M110.066 95.9682L87.9761 85.7418M110.066 73.5578L60.3735 47.25M110.066 73.5578L87.9761 85.7418M60.3735 47.25L37.9631 60.4039M60.3735 47.25V72.6549M63.2966 100.515L87.9761 85.7418M63.2966 100.515L39.4247 87.0365M87.9761 85.7418L60.3735 72.6549M37.9631 60.4039L60.3735 72.6549M39.4247 87.0365V109.934" stroke="black" stroke-width="1.05"/>
<path d="M93.7445 49.2354V49.198C93.7445 48.9193 93.7349 48.6414 93.7157 48.3643C93.7169 48.3457 93.7169 48.327 93.7157 48.3083C93.7157 48.0514 93.6918 47.7945 93.6774 47.5353C93.6774 47.5213 93.6774 47.505 93.6774 47.4886C93.6774 47.3648 93.6606 47.2434 93.651 47.1196C93.6414 46.9453 93.6294 46.7701 93.6151 46.5942C93.6151 46.4634 93.5935 46.335 93.5839 46.2042L93.5479 45.7839C93.5479 45.7558 93.5479 45.7302 93.5479 45.7021L93.5048 45.2631L93.4544 44.7961C93.4377 44.6513 93.4209 44.5065 93.4017 44.3594L93.3586 43.988C93.3586 43.96 93.3586 43.9297 93.3466 43.8993L93.2675 43.3388C93.2507 43.2151 93.2339 43.089 93.2147 42.9652C93.1836 42.7597 93.1524 42.5542 93.1188 42.3487C93.1021 42.2553 93.0901 42.1595 93.0733 42.0661C93.0745 42.0568 93.0745 42.0474 93.0733 42.0381C93.0182 41.7088 92.9607 41.3796 92.8983 41.0526L92.848 40.7864C92.8 40.5529 92.7545 40.3077 92.7041 40.0695C92.7041 40.0298 92.6898 39.9901 92.6802 39.9527C92.6706 39.9154 92.6538 39.8266 92.6394 39.7636C92.5795 39.4787 92.5148 39.1938 92.45 38.9112C92.4285 38.8131 92.4069 38.7174 92.3829 38.6193C92.2966 38.2573 92.2104 37.8953 92.1169 37.5381V37.5077C92.0857 37.3863 92.0521 37.2742 92.0186 37.1411L91.8915 36.674L91.7765 36.2677C91.7309 36.1135 91.6878 35.9594 91.6422 35.8006C91.5967 35.6418 91.5607 35.5297 91.52 35.3943C91.4792 35.2588 91.4289 35.0884 91.3809 34.9272C91.333 34.7661 91.2947 34.6563 91.2491 34.5232C91.2036 34.3901 91.1532 34.2196 91.1029 34.0702C91.1029 34.0515 91.1029 34.0328 91.0861 34.0141C91.0549 33.9254 91.0238 33.8367 90.995 33.7479C90.9303 33.5588 90.8656 33.3696 90.7985 33.1805C90.7577 33.0614 90.7145 32.9469 90.6714 32.8232C90.6091 32.648 90.5443 32.4729 90.4796 32.2977C90.4341 32.1763 90.3885 32.0525 90.3406 31.9311L90.1464 31.4243L89.9978 31.053C89.9331 30.8872 89.866 30.7214 89.7964 30.5579C89.7461 30.4342 89.6958 30.3244 89.643 30.189C89.5735 30.0255 89.504 29.8597 89.4321 29.6962C89.3793 29.5771 89.329 29.4627 89.2763 29.3366C89.202 29.1708 89.1277 29.005 89.0509 28.8392L88.8951 28.4959C88.8136 28.3208 88.7297 28.148 88.6554 27.9751C88.6051 27.8724 88.5571 27.7696 88.5092 27.6669L88.2072 27.0597C88.1736 26.9967 88.1448 26.9313 88.1113 26.8682V26.8495C87.9627 26.5576 87.8116 26.2704 87.6582 25.9832C87.6151 25.8991 87.5695 25.8197 87.5264 25.738C87.4137 25.5301 87.3034 25.3246 87.1884 25.1215L87.0206 24.8225C86.9127 24.6334 86.8025 24.4442 86.6922 24.2574C86.6371 24.1617 86.5819 24.0659 86.5244 23.9702C86.3965 23.7584 86.2671 23.5459 86.1361 23.3326L86.045 23.1785L86.0258 23.1528C85.8005 22.7885 85.5679 22.4312 85.3354 22.0763C85.2899 22.0109 85.2467 21.9455 85.2036 21.8801C84.9734 21.5345 84.7393 21.1943 84.5012 20.8596L84.4509 20.7849L84.3502 20.6518C84.1848 20.4182 84.017 20.1847 83.8468 19.9629L83.703 19.769C83.492 19.4911 83.2811 19.2179 83.0654 18.9494L83.0294 18.9003L82.9023 18.7462C82.7633 18.5718 82.6219 18.399 82.4781 18.2278C82.4109 18.1437 82.3414 18.062 82.2719 17.9802C82.1353 17.8191 81.9986 17.6603 81.8596 17.5015L81.7302 17.3497L81.6535 17.2656L81.2771 16.8476L81.0757 16.6258C80.9127 16.4506 80.7474 16.2755 80.582 16.1027C80.5532 16.0746 80.5244 16.0443 80.498 16.0139C80.3087 15.8154 80.1169 15.6239 79.9228 15.4324L79.7837 15.297L79.3402 14.8673L79.3115 14.8416L79.031 14.5824L78.7745 14.3489C78.6691 14.2508 78.5612 14.1574 78.4533 14.064L78.2136 13.8305L78.1968 13.8164C78.0266 13.6693 77.8564 13.5245 77.6838 13.3821L77.6455 13.3494C77.4585 13.1953 77.2715 13.0458 77.0845 12.8963H77.0678L76.9168 12.7773L76.4949 12.4526L76.2767 12.2915C76.1808 12.2215 76.0874 12.1491 75.9891 12.0813L75.9124 12.0253C75.838 11.9739 75.7638 11.9225 75.6918 11.8688L75.3323 11.6213L75.0926 11.4625L74.9128 11.3411L74.7378 11.229L74.4981 11.0795L74.1265 10.846L73.9084 10.7129L73.8245 10.6615L73.4673 10.4537L73.3187 10.3696C73.1317 10.2622 72.9424 10.1571 72.753 10.0567L72.7266 10.0427L72.5876 9.97026C72.4341 9.88853 72.2808 9.81147 72.1273 9.73674C72.0578 9.69937 71.9859 9.66668 71.914 9.63165L71.6743 9.50789L71.5305 9.4425L71.2907 9.33507L70.9048 9.16226L70.6651 9.06419L70.5524 9.01514L70.2504 8.89371L70.049 8.81197C69.8525 8.73491 69.6535 8.66252 69.4569 8.59013H69.4306C69.222 8.51774 69.0135 8.44534 68.8025 8.37762L68.6012 8.31456L68.2584 8.20714L68.1889 8.18846C67.9324 8.1114 67.6759 8.04134 67.4194 7.97595C67.2971 7.94326 67.1797 7.9129 67.0502 7.88487L66.9424 7.86152L66.6044 7.7868L66.3311 7.72842C66.216 7.70506 66.0914 7.68404 65.9883 7.66536L65.7366 7.61632L65.6671 7.60465L65.238 7.53926L65.0391 7.5089C64.8329 7.48088 64.6244 7.45519 64.4182 7.43417H64.3727C64.1737 7.41315 63.9771 7.39681 63.7806 7.38279L63.5696 7.37112L63.143 7.3501H63.0447H62.9296C62.7474 7.3501 62.5676 7.3501 62.3879 7.3501H62.2153C61.9876 7.3501 61.7598 7.36178 61.5321 7.37345H61.4985H61.4194C61.1797 7.38746 60.94 7.40615 60.7003 7.4295L60.5541 7.44584C60.3 7.47153 60.0483 7.50656 59.7966 7.54393H59.7342L59.6144 7.56495L59.135 7.65135L58.9456 7.68871C58.7323 7.73308 58.5189 7.77979 58.308 7.83117L47.2812 10.5424C47.4922 10.491 47.7055 10.4443 47.9189 10.4023L48.1082 10.3649C48.2665 10.3322 48.4271 10.3042 48.5877 10.2785L48.7722 10.2482C49.012 10.2085 49.2756 10.1758 49.5297 10.1477L49.6736 10.1337C49.9133 10.1104 50.153 10.0894 50.3927 10.0754H50.5054C50.7451 10.0754 50.9608 10.0543 51.1909 10.052H51.3611C51.5409 10.052 51.7207 10.052 51.9029 10.052H52.1162C52.2601 10.052 52.4015 10.0637 52.5453 10.073L52.7538 10.0847L53.346 10.1337H53.3915C53.5976 10.1548 53.8062 10.1804 54.0147 10.2085L54.2113 10.2388C54.3551 10.2575 54.4989 10.2809 54.6428 10.3042L54.9041 10.3509L55.2469 10.4163L55.5201 10.4724L55.8605 10.5471L56.34 10.6615C56.5988 10.7269 56.8553 10.7993 57.1094 10.874L57.5241 11.0025L57.7255 11.0655C57.934 11.1332 58.145 11.2033 58.3535 11.278H58.3799C58.5789 11.3481 58.7754 11.4228 58.972 11.5115L59.1733 11.5933C59.3124 11.647 59.4514 11.7054 59.5904 11.7638L59.8301 11.8618L60.2185 12.0346L60.4582 12.1421C60.59 12.2028 60.7195 12.2658 60.8513 12.3312L61.0623 12.434C61.2181 12.511 61.3715 12.5904 61.5249 12.6675L61.6615 12.7399C61.8605 12.845 62.0594 12.9524 62.256 13.0645L62.4022 13.1509C62.5509 13.235 62.6971 13.3214 62.8433 13.4078L63.0614 13.5432L63.4354 13.7767L63.6751 13.9239L64.0347 14.1574L64.2744 14.3139L64.634 14.5637L64.8545 14.7179L65.2212 14.9887L65.437 15.1475C65.5808 15.255 65.7222 15.3647 65.8637 15.4745L66.0099 15.5889C66.2041 15.7407 66.3958 15.8972 66.5876 16.056L66.6355 16.0957C66.8105 16.2404 66.9831 16.3876 67.1581 16.537L67.3978 16.7542C67.5081 16.8523 67.6184 16.9457 67.7262 17.0461L67.966 17.2796L68.2776 17.5692C68.4262 17.7093 68.5724 17.8518 68.7186 17.9966C68.7666 18.0409 68.8145 18.0853 68.8601 18.132C69.0534 18.3235 69.2452 18.5173 69.4354 18.7135C69.4689 18.7462 69.5001 18.7835 69.5336 18.8162C69.6934 18.9875 69.8533 19.1603 70.0131 19.3347C70.0826 19.4071 70.1473 19.4818 70.2144 19.5565C70.3415 19.6943 70.4685 19.8344 70.5932 19.9745L70.7969 20.2081C70.936 20.3669 71.0726 20.528 71.2092 20.6891L71.4178 20.9227C71.5592 21.0931 71.7006 21.2683 71.8397 21.4411L72.0051 21.6443C72.2192 21.9151 72.431 22.1884 72.6403 22.4639L72.7865 22.6601L73.2899 23.3467L73.4385 23.5545C73.6751 23.8908 73.9092 24.2317 74.1409 24.5773C74.1865 24.6427 74.2296 24.7081 74.2727 24.7735C74.5077 25.1285 74.7386 25.4865 74.9655 25.8477C75.0015 25.9084 75.0374 25.9692 75.0758 26.0299C75.2052 26.24 75.3347 26.4526 75.4617 26.6674L75.6295 26.9523C75.7398 27.1415 75.85 27.3306 75.9579 27.5198L76.1257 27.8187C76.2408 28.0219 76.3654 28.2274 76.4637 28.4329L76.598 28.6781C76.7578 28.9645 76.9088 29.2541 77.051 29.5468C77.0845 29.6168 77.1181 29.6869 77.1541 29.7546C77.2548 29.9578 77.3578 30.1586 77.4561 30.3641C77.5065 30.4645 77.5544 30.5673 77.6023 30.67C77.6862 30.8452 77.7677 31.018 77.842 31.1931C77.8948 31.3076 77.9475 31.4267 77.9979 31.5364C78.0746 31.6999 78.1489 31.8657 78.2232 32.0338L78.3814 32.3935C78.4509 32.5569 78.5228 32.7204 78.5899 32.8839L78.7458 33.2552C78.8129 33.4186 78.88 33.5821 78.9447 33.7479C78.9951 33.8717 79.0454 33.9978 79.0933 34.1216C79.1604 34.2897 79.2252 34.4578 79.2875 34.626C79.3355 34.7474 79.381 34.8712 79.4265 34.9949C79.4913 35.1678 79.556 35.3429 79.6183 35.5181L79.7477 35.8753L79.9419 36.4428C79.9779 36.5502 80.0162 36.6577 80.0522 36.7674C80.1025 36.9169 80.1481 37.0687 80.1984 37.2181L80.3279 37.6245C80.3758 37.7762 80.4213 37.9304 80.4693 38.0915C80.5172 38.2526 80.5508 38.3577 80.5891 38.4932C80.6275 38.6286 80.6802 38.8038 80.7234 38.9602C80.7665 39.1167 80.8025 39.2288 80.8384 39.3642C80.8744 39.4997 80.9247 39.6795 80.9655 39.8313C81.0062 39.9831 81.0374 40.0952 81.0709 40.2259C81.1644 40.5856 81.2531 40.9452 81.337 41.3072C81.361 41.4052 81.3826 41.5033 81.4066 41.6014C81.4713 41.884 81.5336 42.1689 81.5935 42.4538C81.6151 42.5542 81.6391 42.657 81.6583 42.7574C81.7086 42.9909 81.7565 43.2361 81.8021 43.4766C81.8189 43.5654 81.838 43.6541 81.8548 43.7429C81.9147 44.0698 81.9723 44.3991 82.0274 44.7283C82.0466 44.8311 82.061 44.9338 82.0778 45.0366C82.1113 45.2421 82.1449 45.4499 82.176 45.6554L82.2264 46.0267C82.2551 46.2136 82.2815 46.4027 82.3055 46.5895C82.3246 46.7413 82.3438 46.8955 82.3606 47.0566C82.3774 47.2177 82.3989 47.3485 82.4133 47.4956C82.4277 47.6427 82.4469 47.8062 82.4637 47.9627C82.4805 48.1191 82.4948 48.2546 82.5092 48.3994L82.5524 48.9038C82.5524 49.0345 82.574 49.163 82.5859 49.2914L82.6219 49.8169C82.6219 49.9406 82.6387 50.0644 82.6459 50.1882C82.6618 50.4606 82.6762 50.7338 82.689 51.0079C82.6878 51.0257 82.6878 51.0437 82.689 51.0616C82.689 51.3535 82.7106 51.643 82.7178 51.9326C82.725 52.2222 82.7178 52.5748 82.7178 52.8947C82.7178 53.2147 82.7178 53.5509 82.7178 53.8802C82.7178 54.1698 82.7178 54.4594 82.6962 54.7466C82.6962 54.9591 82.6818 55.1693 82.6722 55.3795C82.6579 55.6574 82.6435 55.9353 82.6243 56.2108C82.6099 56.4187 82.5979 56.6242 82.5811 56.8297C82.5596 57.1006 82.5332 57.3714 82.5068 57.64C82.4876 57.8408 82.4685 58.0393 82.4469 58.2378C82.4157 58.5134 82.3798 58.7866 82.3438 59.0598C82.3199 59.2443 82.2983 59.4311 82.2719 59.6156C82.2288 59.9075 82.1808 60.1924 82.1329 60.4797C82.1065 60.6408 82.0825 60.8043 82.0538 60.9631C81.9802 61.3803 81.9003 61.7937 81.814 62.2031C81.814 62.2311 81.8141 62.2615 81.7973 62.2918C81.7038 62.7309 81.6007 63.1629 81.4928 63.5903C81.4641 63.7117 81.4281 63.8238 81.397 63.9475C81.3131 64.2651 81.2292 64.5827 81.1381 64.8933C81.0925 65.0475 81.0446 65.1993 80.9991 65.3604C80.9128 65.6383 80.8264 65.9138 80.7353 66.1871C80.6443 66.4603 80.5604 66.7055 80.4693 66.96C80.4549 66.9974 80.4429 67.0324 80.4309 67.0698C80.3111 67.3944 80.1912 67.7143 80.0618 68.0296C80.0282 68.1113 79.997 68.1907 79.9635 68.2631C79.8388 68.5667 79.7094 68.8703 79.5776 69.1669L79.556 69.2159C79.4146 69.5288 79.2683 69.8347 79.1197 70.136L78.9974 70.3812C78.8872 70.6031 78.7721 70.8226 78.6547 71.0374C78.6019 71.1378 78.5492 71.2382 78.4941 71.3387C78.355 71.5909 78.2136 71.8384 78.0674 72.0836L77.9883 72.2191C77.8061 72.5304 77.6183 72.8293 77.4249 73.1158C77.3914 73.1695 77.3554 73.2186 77.3195 73.2723C77.1589 73.5058 76.9982 73.7393 76.84 73.9728L76.7753 74.0592C76.6004 74.2928 76.4206 74.5426 76.236 74.7762L76.1641 74.8719C75.9723 75.1054 75.7805 75.339 75.584 75.5725L75.4641 75.7103C75.2627 75.9438 75.0566 76.1773 74.8481 76.3945C74.8412 76.3996 74.8355 76.4059 74.8313 76.4132C74.6203 76.635 74.407 76.8499 74.1912 77.0601L74.0019 77.2399C73.8365 77.3963 73.6663 77.5528 73.4961 77.7069L73.3163 77.8681C73.091 78.0611 72.8632 78.2503 72.6331 78.4355L72.5324 78.5126C72.3311 78.6691 72.1297 78.8232 71.9236 78.9796L71.7102 79.1314C71.5233 79.2622 71.3315 79.3906 71.1397 79.5168L70.9719 79.6265C70.7322 79.7806 70.4925 79.9301 70.2312 80.0725C70.1737 80.1052 70.1162 80.1333 70.061 80.1659C69.8597 80.2757 69.6583 80.3831 69.4545 80.4882L69.2148 80.6026C68.9967 80.7101 68.7762 80.8128 68.5508 80.9109L68.4262 80.9669C68.1649 81.079 67.8988 81.1841 67.6327 81.2845L67.417 81.3616C67.2108 81.434 67.0023 81.5041 66.7938 81.5718L66.554 81.6442C66.2784 81.7282 66.0003 81.8053 65.7222 81.8777L76.7489 79.1641C77.0294 79.0964 77.3051 79.017 77.5808 78.9306L77.8205 78.8559C78.029 78.7905 78.2352 78.7204 78.4413 78.6457C78.5132 78.62 78.5876 78.5967 78.6595 78.5686C78.9255 78.4706 79.1916 78.3655 79.4529 78.251C79.496 78.2347 79.5368 78.2137 79.5776 78.195C79.8005 78.0969 80.021 77.9941 80.2416 77.8867L80.4813 77.7723C80.6842 77.6695 80.8856 77.5621 81.0853 77.45C81.1429 77.4197 81.2004 77.3893 81.2555 77.3566C81.4952 77.2142 81.7517 77.0671 81.9962 76.9129L82.1664 76.8008C82.3582 76.6771 82.5476 76.5486 82.737 76.4155L82.9503 76.2637C83.1541 76.1166 83.3578 75.9648 83.5568 75.8083L83.6598 75.729C83.8996 75.5468 84.1177 75.3576 84.3406 75.1615C84.4029 75.1101 84.4629 75.0541 84.5228 75.0003C84.693 74.8486 84.8632 74.6944 85.0286 74.5333L85.2156 74.3535C85.4337 74.1433 85.6471 73.9285 85.8556 73.7066L85.8748 73.6879C86.0378 73.5128 86.2008 73.3353 86.3542 73.1555L86.4837 73.0037C86.5244 72.9593 86.5628 72.9126 86.6011 72.8682C86.7977 72.6347 86.9918 72.4012 87.1812 72.1677C87.2076 72.1373 87.2315 72.1046 87.2555 72.0743C87.4377 71.8407 87.6175 71.6072 87.7949 71.355L87.8596 71.2686C87.8596 71.2546 87.8812 71.2406 87.8908 71.2242C88.0466 71.007 88.1976 70.7829 88.3486 70.5563L88.4541 70.4022C88.641 70.1173 88.8256 69.8254 89.003 69.5288L89.0174 69.5055L89.0965 69.3677C89.2403 69.1342 89.3841 68.875 89.5232 68.6227C89.5783 68.5247 89.6311 68.4243 89.6838 68.3238C89.7365 68.2234 89.8156 68.0903 89.8779 67.9619C89.9403 67.8334 89.9762 67.7657 90.0266 67.6653L90.1488 67.4318C90.295 67.1329 90.4389 66.8316 90.5779 66.5257C90.5779 66.5257 90.5779 66.5257 90.5779 66.5117L90.5995 66.4626C90.7337 66.166 90.8608 65.8625 90.9878 65.5565L91.0837 65.323C91.1149 65.2483 91.146 65.1759 91.1748 65.0895C91.2707 64.856 91.3642 64.5991 91.4529 64.3492C91.4672 64.3142 91.4792 64.2768 91.4936 64.2418C91.5583 64.055 91.6255 63.8705 91.6902 63.6837C91.7141 63.6136 91.7357 63.5389 91.7597 63.4665C91.8484 63.1956 91.9371 62.92 92.021 62.6421C92.0545 62.5347 92.0905 62.4296 92.124 62.3222C92.136 62.2755 92.148 62.2288 92.1624 62.1821C92.2535 61.8715 92.3374 61.5562 92.4213 61.2363C92.4476 61.1359 92.4788 61.0378 92.5028 60.9374L92.5172 60.8814C92.625 60.4517 92.7257 60.0196 92.8216 59.5806C92.8216 59.5549 92.8216 59.5269 92.8384 59.4989C92.9247 59.091 93.0046 58.6769 93.0781 58.2565C93.0781 58.2355 93.0781 58.2145 93.0901 58.1911C93.1141 58.0533 93.1332 57.9132 93.1572 57.7731C93.2051 57.4882 93.2531 57.201 93.2938 56.9114C93.2938 56.8717 93.3082 56.832 93.313 56.7923C93.3346 56.6475 93.349 56.5004 93.3682 56.3533C93.4041 56.08 93.44 55.8092 93.4712 55.5336C93.4712 55.4752 93.4856 55.4192 93.4928 55.3631C93.5072 55.2207 93.5168 55.0759 93.5311 54.9358C93.5575 54.6649 93.5839 54.3963 93.6055 54.1231C93.6055 54.0484 93.6198 53.976 93.6246 53.8896C93.6246 53.7588 93.639 53.6257 93.6486 53.4949C93.6654 53.2193 93.6822 52.9438 93.6966 52.6636C93.6966 52.5678 93.6965 52.4744 93.7133 52.3787C93.7301 52.2829 93.7133 52.1451 93.7133 52.033C93.7229 51.7466 93.7301 51.457 93.7349 51.1643C93.7349 51.0476 93.7349 50.9308 93.7349 50.814C93.7349 50.6039 93.7349 50.3913 93.7349 50.1788C93.7589 49.8846 93.7517 49.5553 93.7445 49.2354Z" fill="#FFBD36" stroke="black" stroke-width="1.05"/>
<path d="M57.6369 9.73507C72.1401 13.4443 84.0152 32.5033 84.1072 52.2195C84.1991 71.9358 72.4765 84.957 57.9708 81.2454C43.4652 77.5338 31.5925 58.4795 31.5005 38.7633C31.4086 19.0471 43.1336 6.0235 57.6369 9.73507Z" fill="#FFBD36" stroke="black" stroke-width="1.05"/>
<path d="M57.7856 14.565C69.7454 17.7399 79.5379 34.0537 79.6137 50.93C79.6895 67.8063 70.0228 78.952 58.061 75.775C46.0992 72.5981 36.3087 56.2883 36.2329 39.412C36.157 22.5357 45.8258 11.388 57.7856 14.565Z" fill="#FFBD36" stroke="black" stroke-width="1.05"/>
<path fill-rule="evenodd" clip-rule="evenodd" d="M55.063 24.5612C53.7597 24.51 52.7031 25.5259 52.7031 26.8302V41.591C52.7031 42.8954 53.7597 43.9943 55.063 44.0455C56.3664 44.0967 57.4229 43.0808 57.4229 41.7765V27.0157C57.4229 25.7113 56.3664 24.6124 55.063 24.5612ZM56.3648 49.7399C55.6251 50.7847 55.8953 52.2661 56.9683 53.0485L69.1118 61.9036C70.1848 62.6861 71.6544 62.4734 72.3942 61.4286C73.1339 60.3838 72.8637 58.9025 71.7907 58.12L59.6472 49.2649C58.5742 48.4824 57.1046 48.6951 56.3648 49.7399Z" fill="#E2931C"/>
<path d="M56.9683 53.0485L56.6706 53.4691L56.6706 53.4691L56.9683 53.0485ZM56.3648 49.7399L55.9329 49.425L56.3648 49.7399ZM69.1118 61.9036L69.4095 61.4831L69.1118 61.9036ZM72.3942 61.4286L72.8261 61.7436L72.3942 61.4286ZM71.7907 58.12L71.4929 58.5405L71.7907 58.12ZM59.6472 49.2649L59.945 48.8443L59.945 48.8443L59.6472 49.2649ZM53.2277 26.8508C53.2277 25.8364 54.0494 25.0464 55.063 25.0862V24.0362C53.47 23.9736 52.1785 25.2153 52.1785 26.8096L53.2277 26.8508ZM53.2277 41.6116V26.8508L52.1785 26.8096V41.5704L53.2277 41.6116ZM55.063 43.5205C54.0494 43.4806 53.2277 42.626 53.2277 41.6116L52.1785 41.5704C52.1785 43.1647 53.47 44.5079 55.063 44.5705V43.5205ZM56.8983 41.7559C56.8983 42.7703 56.0766 43.5603 55.063 43.5205V44.5705C56.6561 44.6331 57.9475 43.3914 57.9475 41.7971L56.8983 41.7559ZM56.8983 26.9951V41.7559L57.9475 41.7971V27.0363L56.8983 26.9951ZM55.063 25.0862C56.0766 25.1261 56.8983 25.9807 56.8983 26.9951L57.9475 27.0363C57.9475 25.442 56.6561 24.0988 55.063 24.0362V25.0862ZM57.2661 52.628C56.4316 52.0195 56.2214 50.8674 56.7967 50.0549L55.9329 49.425C55.0287 50.702 55.359 52.5127 56.6706 53.4691L57.2661 52.628ZM69.4095 61.4831L57.2661 52.628L56.6706 53.4691L68.814 62.3242L69.4095 61.4831ZM71.9623 61.1137C71.3869 61.9262 70.2441 62.0916 69.4095 61.4831L68.814 62.3242C70.1256 63.2806 71.9219 63.0206 72.8261 61.7436L71.9623 61.1137ZM71.4929 58.5405C72.3274 59.1491 72.5376 60.3011 71.9623 61.1137L72.8261 61.7436C73.7303 60.4665 73.4 58.6559 72.0884 57.6994L71.4929 58.5405ZM59.3495 49.6854L71.4929 58.5405L72.0884 57.6994L59.945 48.8443L59.3495 49.6854ZM56.7967 50.0549C57.372 49.2423 58.5149 49.0769 59.3495 49.6854L59.945 48.8443C58.6334 47.8879 56.8371 48.1479 55.9329 49.425L56.7967 50.0549Z" fill="black"/>
</svg>
