<svg width="96" height="96" viewBox="0 0 96 96" fill="none" xmlns="http://www.w3.org/2000/svg">
<path d="M83.3653 56.1826L48.3467 75.9114V93.6674L84.3518 72.4589L83.3653 56.1826Z" fill="#1F1CD6"/>
<path d="M11.8496 73.4453V56.1826L47.8547 76.8979V94.1606L11.8496 73.4453Z" fill="#4340DA"/>
<path d="M46.3754 36.4539L12.8364 56.1827L48.3483 76.4047L82.8737 56.1827L46.3754 36.4539Z" fill="#4340DA" fill-opacity="0.8"/>
<path d="M11.8496 56.0441V73.1186M11.8496 56.0441L28.9242 46.022M11.8496 56.0441L30.0377 66.3136M11.8496 73.1186L30.0377 83.7593M11.8496 73.1186L45.9988 55.3561M48.2259 94.4L83.8598 73.1186M48.2259 94.4V76.5831M48.2259 94.4L30.0377 83.7593M83.8598 73.1186V56.0441M83.8598 73.1186L67.0293 65.3271M83.8598 56.0441L45.9988 36M83.8598 56.0441L67.0293 65.3271M45.9988 36L28.9242 46.022M45.9988 36V55.3561M48.2259 76.5831L67.0293 65.3271M48.2259 76.5831L30.0377 66.3136M67.0293 65.3271L45.9988 55.3561M28.9242 46.022L45.9988 55.3561M30.0377 66.3136V83.7593" stroke="black"/>
<path d="M66.4916 39.0376V39.0126C66.4916 38.8261 66.4852 38.6402 66.4723 38.4547C66.4731 38.4422 66.4731 38.4297 66.4723 38.4172C66.4723 38.2453 66.4563 38.0734 66.4467 37.8999C66.4467 37.8905 66.4467 37.8796 66.4467 37.8686C66.4467 37.7858 66.4354 37.7045 66.429 37.6217C66.4226 37.505 66.4146 37.3878 66.405 37.27C66.405 37.1825 66.3905 37.0966 66.3841 37.009L66.36 36.7277C66.36 36.709 66.36 36.6918 66.36 36.673L66.3312 36.3792L66.2975 36.0666C66.2862 35.9697 66.275 35.8728 66.2622 35.7744L66.2333 35.5259C66.2333 35.5071 66.2333 35.4868 66.2253 35.4665L66.1723 35.0914C66.1611 35.0085 66.1499 34.9242 66.137 34.8413C66.1162 34.7038 66.0953 34.5663 66.0729 34.4287C66.0616 34.3662 66.0536 34.3021 66.0424 34.2396C66.0432 34.2334 66.0432 34.2271 66.0424 34.2209C66.0055 34.0005 65.967 33.7801 65.9253 33.5613L65.8916 33.3832C65.8595 33.2269 65.829 33.0628 65.7953 32.9034C65.7953 32.8768 65.7857 32.8502 65.7793 32.8252C65.7729 32.8002 65.7616 32.7408 65.752 32.6986C65.7119 32.5079 65.6686 32.3173 65.6253 32.1282C65.6108 32.0625 65.5964 31.9984 65.5804 31.9328C65.5226 31.6906 65.4649 31.4483 65.4023 31.2092V31.1889C65.3814 31.1076 65.359 31.0326 65.3365 30.9435L65.2515 30.6309L65.1745 30.359C65.144 30.2558 65.1151 30.1527 65.0846 30.0464C65.0542 29.9401 65.0301 29.8651 65.0028 29.7745C64.9756 29.6838 64.9419 29.5697 64.9098 29.4619C64.8777 29.3541 64.852 29.2806 64.8215 29.1915C64.7911 29.1024 64.7574 28.9883 64.7237 28.8883C64.7237 28.8758 64.7237 28.8633 64.7125 28.8508C64.6916 28.7914 64.6707 28.732 64.6515 28.6726C64.6082 28.546 64.5649 28.4195 64.5199 28.2929C64.4927 28.2132 64.4638 28.1366 64.4349 28.0537C64.3932 27.9365 64.3499 27.8193 64.3066 27.7021C64.2761 27.6208 64.2456 27.538 64.2135 27.4567L64.0836 27.1176L63.9841 26.8691C63.9408 26.7581 63.8959 26.6471 63.8494 26.5377C63.8157 26.4549 63.782 26.3815 63.7467 26.2908C63.7002 26.1814 63.6536 26.0704 63.6055 25.961C63.5702 25.8813 63.5365 25.8048 63.5012 25.7204C63.4515 25.6094 63.4018 25.4984 63.3504 25.3875L63.2461 25.1577C63.1916 25.0405 63.1354 24.9249 63.0857 24.8092C63.052 24.7404 63.0199 24.6717 62.9879 24.6029L62.7857 24.1966C62.7633 24.1544 62.744 24.1106 62.7215 24.0684V24.0559C62.6221 23.8605 62.521 23.6683 62.4183 23.4761C62.3895 23.4198 62.359 23.3667 62.3301 23.312C62.2547 23.1729 62.1809 23.0353 62.1039 22.8994L61.9916 22.6993C61.9194 22.5727 61.8456 22.4461 61.7718 22.3211C61.7349 22.257 61.698 22.1929 61.6595 22.1289C61.574 21.9872 61.4873 21.8449 61.3996 21.7022L61.3387 21.5991L61.3258 21.5819C61.175 21.338 61.0194 21.0989 60.8638 20.8614C60.8333 20.8176 60.8044 20.7738 60.7756 20.7301C60.6216 20.4988 60.4649 20.2711 60.3055 20.0471L60.2718 19.9971L60.2045 19.908C60.0938 19.7517 59.9815 19.5954 59.8676 19.447L59.7713 19.3173C59.6301 19.1313 59.4889 18.9484 59.3446 18.7687L59.3205 18.7359L59.2355 18.6327C59.1424 18.516 59.0478 18.4004 58.9515 18.2857C58.9066 18.2295 58.8601 18.1748 58.8135 18.1201C58.7221 18.0122 58.6307 17.906 58.5376 17.7997L58.451 17.6981L58.3996 17.6418L58.1478 17.3621L58.013 17.2136C57.9039 17.0964 57.7932 16.9792 57.6825 16.8635C57.6633 16.8448 57.644 16.8245 57.6264 16.8041C57.4996 16.6713 57.3713 16.5431 57.2414 16.415L57.1483 16.3243L56.8515 16.0368L56.8323 16.0196L56.6446 15.8461L56.4729 15.6898C56.4023 15.6242 56.3301 15.5616 56.2579 15.4991L56.0975 15.3428L56.0863 15.3335C55.9724 15.235 55.8585 15.1381 55.743 15.0428L55.7173 15.0209C55.5922 14.9177 55.467 14.8177 55.3419 14.7177H55.3307L55.2296 14.638L54.9473 14.4207L54.8013 14.3129C54.7371 14.266 54.6745 14.2176 54.6088 14.1723L54.5574 14.1347C54.5077 14.1004 54.458 14.066 54.4098 14.03L54.1692 13.8644L54.0088 13.7581L53.8884 13.6768L53.7713 13.6018L53.6109 13.5018L53.3622 13.3455L53.2162 13.2564L53.1601 13.222L52.9211 13.0829L52.8216 13.0267C52.6965 12.9548 52.5697 12.8844 52.443 12.8172L52.4253 12.8079L52.3323 12.7594C52.2296 12.7047 52.1269 12.6531 52.0243 12.6031C51.9777 12.5781 51.9296 12.5562 51.8815 12.5328L51.7211 12.45L51.6248 12.4062L51.4644 12.3343L51.2061 12.2187L51.0457 12.153L50.9703 12.1202L50.7681 12.0389L50.6334 11.9842C50.5018 11.9326 50.3687 11.8842 50.2371 11.8358H50.2195C50.0799 11.7873 49.9403 11.7389 49.7991 11.6935L49.6644 11.6513L49.435 11.5794L49.3884 11.5669C49.2168 11.5154 49.0451 11.4685 48.8735 11.4247C48.7917 11.4028 48.713 11.3825 48.6264 11.3638L48.5542 11.3481L48.328 11.2981L48.1451 11.259C48.0681 11.2434 47.9847 11.2294 47.9157 11.2168L47.7473 11.184L47.7007 11.1762L47.4136 11.1325L47.2804 11.1121C47.1425 11.0934 47.0029 11.0762 46.8649 11.0621H46.8345C46.7013 11.0481 46.5697 11.0371 46.4382 11.0277L46.297 11.0199L46.0115 11.0059H45.9457H45.8687C45.7468 11.0059 45.6264 11.0059 45.5061 11.0059H45.3906C45.2382 11.0059 45.0858 11.0137 44.9334 11.0215H44.9109H44.858C44.6976 11.0309 44.5371 11.0434 44.3767 11.059L44.2788 11.0699C44.1088 11.0871 43.9403 11.1106 43.7719 11.1356H43.7302L43.65 11.1496L43.3291 11.2075L43.2024 11.2325C43.0596 11.2622 42.9168 11.2934 42.7756 11.3278L35.396 13.1423C35.5372 13.1079 35.68 13.0767 35.8227 13.0485L35.9495 13.0235C36.0553 13.0017 36.1628 12.9829 36.2703 12.9657L36.3938 12.9454C36.5543 12.9188 36.7308 12.8969 36.9008 12.8782L36.9971 12.8688C37.1575 12.8532 37.3179 12.8391 37.4783 12.8297H37.5537C37.7142 12.8297 37.8585 12.8157 38.0126 12.8141H38.1265C38.2468 12.8141 38.3671 12.8141 38.489 12.8141H38.6318C38.7281 12.8141 38.8227 12.8219 38.919 12.8282L39.0585 12.836L39.4548 12.8688H39.4853C39.6232 12.8829 39.7628 12.9001 39.9024 12.9188L40.034 12.9391C40.1302 12.9516 40.2265 12.9673 40.3227 12.9829L40.4976 13.0142L40.727 13.0579L40.9099 13.0954L41.1377 13.1454L41.4585 13.222C41.6318 13.2658 41.8035 13.3142 41.9735 13.3642L42.251 13.4502L42.3858 13.4924C42.5254 13.5377 42.6665 13.5846 42.8061 13.6346H42.8238C42.9569 13.6815 43.0885 13.7315 43.22 13.7909L43.3548 13.8456C43.4478 13.8816 43.5409 13.9206 43.6339 13.9597L43.7944 14.0253L44.0542 14.141L44.2147 14.2129C44.3029 14.2535 44.3895 14.2957 44.4778 14.3395L44.619 14.4082C44.7232 14.4598 44.8259 14.513 44.9286 14.5645L45.02 14.613C45.1532 14.6833 45.2863 14.7552 45.4179 14.8302L45.5157 14.8881C45.6152 14.9443 45.7131 15.0021 45.8109 15.06L45.9569 15.1506L46.2072 15.3069L46.3676 15.4054L46.6083 15.5617L46.7687 15.6664L47.0093 15.8336L47.1569 15.9367L47.4024 16.118L47.5467 16.2243C47.643 16.2962 47.7377 16.3697 47.8323 16.4431L47.9302 16.5197C48.0601 16.6213 48.1885 16.726 48.3168 16.8323L48.3489 16.8588C48.466 16.9557 48.5815 17.0542 48.6986 17.1542L48.859 17.2996C48.9328 17.3652 49.0066 17.4277 49.0788 17.4949L49.2393 17.6512L49.4478 17.845C49.5473 17.9388 49.6451 18.0341 49.743 18.131C49.7751 18.1607 49.8072 18.1904 49.8377 18.2217C49.9671 18.3498 50.0954 18.4795 50.2227 18.6108C50.2451 18.6327 50.266 18.6577 50.2884 18.6796C50.3954 18.7942 50.5023 18.9099 50.6093 19.0266C50.6558 19.075 50.6991 19.125 50.7441 19.175C50.8291 19.2672 50.9141 19.361 50.9975 19.4548L51.1339 19.6111C51.2269 19.7173 51.3184 19.8252 51.4098 19.933L51.5494 20.0893C51.644 20.2034 51.7387 20.3206 51.8317 20.4363L51.9425 20.5722C52.0858 20.7535 52.2275 20.9364 52.3676 21.1208L52.4654 21.2521L52.8023 21.7116L52.9018 21.8507C53.0601 22.0757 53.2168 22.3039 53.3719 22.5352C53.4023 22.579 53.4312 22.6227 53.4601 22.6665C53.6173 22.9041 53.7719 23.1437 53.9237 23.3854C53.9478 23.4261 53.9718 23.4667 53.9975 23.5073C54.0841 23.648 54.1708 23.7902 54.2558 23.934L54.3681 24.1247C54.4419 24.2513 54.5157 24.3779 54.5879 24.5044L54.7002 24.7045C54.7772 24.8405 54.8606 24.978 54.9264 25.1155L55.0162 25.2796C55.1232 25.4713 55.2242 25.6651 55.3194 25.861C55.3419 25.9079 55.3644 25.9548 55.3884 26.0001C55.4558 26.1361 55.5248 26.2705 55.5906 26.408C55.6243 26.4752 55.6563 26.544 55.6884 26.6128C55.7446 26.73 55.7991 26.8456 55.8489 26.9628C55.8841 27.0394 55.9194 27.1191 55.9531 27.1926C56.0045 27.302 56.0542 27.413 56.1039 27.5255L56.2098 27.7662C56.2563 27.8756 56.3045 27.985 56.3494 28.0944L56.4537 28.3429C56.4986 28.4523 56.5435 28.5617 56.5868 28.6726C56.6205 28.7555 56.6542 28.8399 56.6863 28.9227C56.7312 29.0352 56.7745 29.1478 56.8162 29.2603C56.8483 29.3416 56.8788 29.4244 56.9093 29.5072C56.9526 29.6229 56.9959 29.7401 57.0376 29.8573L57.1242 30.0964L57.2542 30.4762C57.2783 30.5481 57.3039 30.62 57.328 30.6934C57.3617 30.7935 57.3922 30.8951 57.4258 30.9951L57.5125 31.267C57.5446 31.3686 57.575 31.4718 57.6071 31.5796C57.6392 31.6874 57.6617 31.7578 57.6873 31.8484C57.713 31.9391 57.7483 32.0563 57.7772 32.161C57.8061 32.2657 57.8301 32.3407 57.8542 32.4314C57.8783 32.522 57.9119 32.6424 57.9392 32.7439C57.9665 32.8455 57.9873 32.9205 58.0098 33.0081C58.0724 33.2487 58.1317 33.4894 58.1879 33.7317C58.2039 33.7973 58.2184 33.863 58.2344 33.9286C58.2777 34.1177 58.3194 34.3084 58.3595 34.499C58.374 34.5663 58.39 34.635 58.4029 34.7022C58.4365 34.8585 58.4686 35.0226 58.4991 35.1836C58.5103 35.243 58.5232 35.3024 58.5344 35.3618C58.5745 35.5806 58.613 35.8009 58.6499 36.0213C58.6627 36.0901 58.6724 36.1588 58.6836 36.2276C58.7061 36.3651 58.7285 36.5042 58.7494 36.6418L58.7831 36.8903C58.8023 37.0153 58.82 37.1419 58.836 37.2669C58.8488 37.3685 58.8617 37.4716 58.8729 37.5795C58.8841 37.6873 58.8986 37.7748 58.9082 37.8733C58.9178 37.9718 58.9307 38.0812 58.9419 38.1859C58.9531 38.2906 58.9627 38.3812 58.9724 38.4781L59.0012 38.8157C59.0012 38.9032 59.0157 38.9892 59.0237 39.0752L59.0478 39.4268C59.0478 39.5096 59.059 39.5925 59.0638 39.6753C59.0745 39.8576 59.0841 40.0405 59.0927 40.2239C59.0919 40.2358 59.0919 40.2479 59.0927 40.2598C59.0927 40.4552 59.1071 40.649 59.1119 40.8428C59.1167 41.0366 59.1119 41.2726 59.1119 41.4867C59.1119 41.7008 59.1119 41.9258 59.1119 42.1462C59.1119 42.34 59.1119 42.5338 59.0975 42.726C59.0975 42.8683 59.0879 43.0089 59.0815 43.1496C59.0718 43.3356 59.0622 43.5215 59.0494 43.706C59.0397 43.8451 59.0317 43.9826 59.0205 44.1201C59.0061 44.3014 58.9884 44.4827 58.9708 44.6624C58.9579 44.7969 58.9451 44.9297 58.9306 45.0625C58.9098 45.247 58.8857 45.4298 58.8617 45.6127C58.8456 45.7361 58.8312 45.8612 58.8135 45.9846C58.7847 46.18 58.7526 46.3707 58.7205 46.5629C58.7029 46.6707 58.6868 46.7801 58.6675 46.8864C58.6183 47.1657 58.5649 47.4423 58.5071 47.7163C58.5071 47.7351 58.5071 47.7554 58.4959 47.7757C58.4333 48.0695 58.3643 48.3587 58.2922 48.6447C58.2729 48.7259 58.2488 48.8009 58.228 48.8838C58.1718 49.0963 58.1157 49.3089 58.0547 49.5168C58.0242 49.6199 57.9922 49.7215 57.9617 49.8293C57.9039 50.0153 57.8462 50.1997 57.7852 50.3826C57.7242 50.5654 57.6681 50.7295 57.6071 50.8999C57.5975 50.9249 57.5895 50.9483 57.5815 50.9734C57.5013 51.1906 57.421 51.4047 57.3344 51.6157C57.3119 51.6704 57.2911 51.7235 57.2686 51.772C57.1852 51.9752 57.0986 52.1783 57.0103 52.3768L56.9959 52.4096C56.9013 52.6191 56.8034 52.8238 56.7039 53.0254L56.6221 53.1895C56.5483 53.338 56.4713 53.4849 56.3927 53.6287C56.3574 53.6959 56.3221 53.7631 56.2852 53.8303C56.1922 53.9991 56.0975 54.1647 55.9996 54.3288L55.9467 54.4195C55.8248 54.6279 55.6991 54.8279 55.5697 55.0196C55.5472 55.0556 55.5232 55.0884 55.4991 55.1244C55.3916 55.2806 55.2841 55.4369 55.1783 55.5932L55.135 55.651C55.0178 55.8073 54.8975 55.9746 54.774 56.1309L54.7259 56.1949C54.5975 56.3512 54.4692 56.5075 54.3376 56.6638L54.2574 56.756C54.1226 56.9123 53.9847 57.0686 53.8451 57.2139C53.8406 57.2173 53.8367 57.2216 53.8339 57.2264C53.6927 57.3749 53.5499 57.5187 53.4055 57.6593L53.2788 57.7797C53.1681 57.8844 53.0542 57.9891 52.9403 58.0923L52.82 58.2001C52.6692 58.3293 52.5168 58.4559 52.3628 58.5799L52.2954 58.6315C52.1606 58.7362 52.0259 58.8393 51.8879 58.944L51.7451 59.0456C51.62 59.1331 51.4917 59.2191 51.3633 59.3035L51.251 59.3769C51.0906 59.4801 50.9302 59.5801 50.7553 59.6755C50.7168 59.6973 50.6783 59.7161 50.6414 59.738C50.5066 59.8114 50.3719 59.8833 50.2355 59.9536L50.0751 60.0302C49.9291 60.1021 49.7815 60.1709 49.6307 60.2365L49.5473 60.274C49.3724 60.3491 49.1943 60.4194 49.0163 60.4866L48.8719 60.5382C48.7339 60.5866 48.5943 60.6335 48.4548 60.6788L48.2943 60.7273C48.1099 60.7835 47.9237 60.8351 47.7376 60.8836L55.1173 59.0675C55.305 59.0222 55.4895 58.969 55.674 58.9112L55.8344 58.8612C55.974 58.8174 56.112 58.7705 56.2499 58.7205C56.298 58.7033 56.3478 58.6877 56.3959 58.669C56.574 58.6033 56.7521 58.533 56.9269 58.4564C56.9558 58.4455 56.9831 58.4314 57.0103 58.4189C57.1595 58.3533 57.3071 58.2845 57.4547 58.2126L57.6152 58.136C57.751 58.0673 57.8857 57.9954 58.0194 57.9203C58.0579 57.9 58.0964 57.8797 58.1333 57.8578C58.2938 57.7625 58.4654 57.664 58.629 57.5609L58.743 57.4859C58.8713 57.403 58.998 57.3171 59.1248 57.228L59.2676 57.1264C59.4039 57.0279 59.5403 56.9264 59.6734 56.8216L59.7424 56.7685C59.9028 56.6466 60.0488 56.52 60.198 56.3887C60.2397 56.3543 60.2798 56.3168 60.32 56.2809C60.4339 56.1793 60.5478 56.0761 60.6585 55.9683L60.7836 55.848C60.9296 55.7073 61.0724 55.5635 61.2119 55.4151L61.2248 55.4025C61.3339 55.2853 61.4429 55.1666 61.5456 55.0462L61.6323 54.9446C61.6595 54.9149 61.6852 54.8837 61.7109 54.854C61.8424 54.6977 61.9723 54.5414 62.0991 54.3851C62.1167 54.3648 62.1328 54.3429 62.1488 54.3226C62.2708 54.1663 62.3911 54.01 62.5098 53.8412L62.5531 53.7834C62.5531 53.774 62.5675 53.7647 62.574 53.7537C62.6782 53.6084 62.7793 53.4583 62.8804 53.3067L62.951 53.2036C63.0761 53.0129 63.1996 52.8175 63.3183 52.6191L63.328 52.6034L63.3809 52.5112C63.4772 52.3549 63.5734 52.1815 63.6665 52.0127C63.7034 51.947 63.7387 51.8798 63.774 51.8126C63.8092 51.7454 63.8622 51.6563 63.9039 51.5704C63.9456 51.4844 63.9697 51.4391 64.0034 51.3719L64.0852 51.2156C64.183 51.0155 64.2793 50.8139 64.3723 50.6092C64.3723 50.6092 64.3723 50.6092 64.3723 50.5998L64.3868 50.567C64.4766 50.3685 64.5616 50.1653 64.6467 49.9606L64.7108 49.8043C64.7317 49.7543 64.7526 49.7059 64.7718 49.648C64.836 49.4917 64.8986 49.3198 64.9579 49.1526C64.9675 49.1292 64.9755 49.1041 64.9852 49.0807C65.0285 48.9557 65.0734 48.8322 65.1167 48.7072C65.1328 48.6603 65.1472 48.6103 65.1633 48.5618C65.2226 48.3805 65.282 48.1961 65.3381 48.0101C65.3606 47.9382 65.3846 47.8679 65.4071 47.796C65.4151 47.7648 65.4231 47.7335 65.4328 47.7022C65.4937 47.4944 65.5499 47.2834 65.606 47.0693C65.6237 47.0021 65.6445 46.9364 65.6606 46.8692L65.6702 46.8317C65.7424 46.5442 65.8098 46.255 65.8739 45.9612C65.8739 45.944 65.874 45.9253 65.8852 45.9065C65.9429 45.6335 65.9964 45.3564 66.0456 45.075C66.0456 45.061 66.0456 45.0469 66.0536 45.0313C66.0697 44.9391 66.0825 44.8453 66.0985 44.7515C66.1306 44.5609 66.1627 44.3686 66.19 44.1748C66.19 44.1483 66.1996 44.1217 66.2028 44.0951C66.2173 43.9982 66.2269 43.8998 66.2397 43.8013C66.2638 43.6184 66.2878 43.4371 66.3087 43.2527C66.3087 43.2137 66.3183 43.1761 66.3231 43.1386C66.3328 43.0433 66.3392 42.9464 66.3488 42.8526C66.3664 42.6713 66.3841 42.4916 66.3985 42.3088C66.3985 42.2587 66.4082 42.2103 66.4114 42.1525C66.4114 42.0649 66.421 41.9759 66.4274 41.8883C66.4386 41.7039 66.4499 41.5195 66.4595 41.332C66.4595 41.2679 66.4595 41.2054 66.4707 41.1413C66.482 41.0772 66.4707 40.985 66.4707 40.91C66.4771 40.7183 66.482 40.5245 66.4852 40.3286C66.4852 40.2504 66.4852 40.1723 66.4852 40.0942C66.4852 39.9535 66.4852 39.8113 66.4852 39.6691C66.5012 39.4721 66.4964 39.2518 66.4916 39.0376Z" fill="#FFBD36" stroke="black"/>
<path d="M42.3266 12.602C52.0329 15.0844 59.9804 27.8397 60.0419 41.0348C60.1034 54.2299 52.2581 62.9444 42.5501 60.4604C32.8422 57.9764 24.8964 45.2243 24.8348 32.0292C24.7733 18.8341 32.6203 10.1181 42.3266 12.602Z" fill="#FFBD36" stroke="black"/>
<path d="M42.426 15.8345C50.43 17.9593 56.9837 28.8773 57.0345 40.1718C57.0852 51.4663 50.6157 58.9256 42.6103 56.7994C34.6048 54.6732 28.0525 43.7579 28.0018 32.4634C27.951 21.1689 34.4219 13.7083 42.426 15.8345Z" fill="#FFBD36" stroke="black"/>
<path d="M35.1771 46.8525L31.0015 37.3958L35.1771 35.0624L53.4763 44.2734V48.3262L49.5463 50.5369L39.2583 45.3787L35.1771 46.8525Z" fill="#FFFEFD"/>
<path d="M31.0015 37.3958L49.5463 46.6068M31.0015 37.3958L35.1771 46.8525M31.0015 37.3958L35.1771 35.0624L53.4763 44.2734M49.5463 46.6068V50.5369M49.5463 46.6068L53.4763 44.2734M49.5463 50.5369L53.4763 48.3262V44.2734M49.5463 50.5369L39.2583 45.3787M35.1771 46.8525V43.1681L39.2583 45.3787M35.1771 46.8525L39.2583 45.3787" stroke="black"/>
<path d="M30.5278 26.2888L35.3742 23.5255L48.1563 29.2363L49.7718 27.7919L52.195 33.9968L53.0027 36.2074L49.2333 38.6944L30.5278 29.6048V26.2888Z" fill="#FFFEFD"/>
<path d="M30.5278 26.2888L35.3742 23.5255L48.1563 29.2363M30.5278 26.2888V29.6048L49.2333 38.6944M30.5278 26.2888L45.7331 33.1678L46.5408 30.6808M49.2333 38.6944L53.0027 36.2074L52.195 33.9968L49.7718 27.7919L48.1563 29.2363M49.2333 38.6944L46.5408 30.6808M46.5408 30.6808L48.1563 29.2363" stroke="black"/>
</svg>
