<svg width="96" height="96" viewBox="0 0 96 96" fill="none" xmlns="http://www.w3.org/2000/svg">
<path d="M83.3653 56.1827L48.3467 75.9115V93.6674L84.3518 72.459L83.3653 56.1827Z" fill="#1F1CD6"/>
<path d="M11.8496 73.4454V56.1827L47.8547 76.8979V94.1606L11.8496 73.4454Z" fill="#4340DA"/>
<path d="M46.3754 36.4539L12.8364 56.1827L48.3483 76.4047L82.8737 56.1827L46.3754 36.4539Z" fill="#4340DA" fill-opacity="0.8"/>
<path d="M11.8496 56.0441V73.1186M11.8496 56.0441L28.9242 46.022M11.8496 56.0441L30.0377 66.3136M11.8496 73.1186L30.0377 83.7593M11.8496 73.1186L45.9988 55.3561M48.2259 94.4L83.8598 73.1186M48.2259 94.4V76.5831M48.2259 94.4L30.0377 83.7593M83.8598 73.1186V56.0441M83.8598 73.1186L67.0293 65.3271M83.8598 56.0441L45.9988 36M83.8598 56.0441L67.0293 65.3271M45.9988 36L28.9242 46.022M45.9988 36V55.3561M48.2259 76.5831L67.0293 65.3271M48.2259 76.5831L30.0377 66.3136M67.0293 65.3271L45.9988 55.3561M28.9242 46.022L45.9988 55.3561M30.0377 66.3136V83.7593" stroke="black"/>
<path d="M35.1771 46.8524L31.0015 37.3958L35.1771 35.0623L53.4763 44.2733V48.3262L49.5463 50.5368L39.2583 45.3786L35.1771 46.8524Z" fill="#F7A600"/>
<path d="M31.0015 37.3958L49.5463 46.6068M31.0015 37.3958L35.1771 46.8524M31.0015 37.3958L35.1771 35.0623L53.4763 44.2733M49.5463 46.6068V50.5368M49.5463 46.6068L53.4763 44.2733M49.5463 50.5368L53.4763 48.3262V44.2733M49.5463 50.5368L39.2583 45.3786M35.1771 46.8524V43.168L39.2583 45.3786M35.1771 46.8524L39.2583 45.3786" stroke="black"/>
<path d="M30.5278 26.2888L35.3742 23.5255L48.1563 29.2363L49.7718 27.7918L52.195 33.9967L53.0027 36.2073L49.2333 38.6943L30.5278 29.6047V26.2888Z" fill="#FFD785"/>
<path d="M30.5278 26.2888L35.3742 23.5255L48.1563 29.2363M30.5278 26.2888V29.6047L49.2333 38.6943M30.5278 26.2888L45.7331 33.1677L46.5408 30.6807M49.2333 38.6943L53.0027 36.2073L52.195 33.9967L49.7718 27.7918L48.1563 29.2363M49.2333 38.6943L46.5408 30.6807M46.5408 30.6807L48.1563 29.2363" stroke="black"/>
<path d="M67.2865 39.1983V39.1733C67.2865 38.9868 67.2801 38.8008 67.2673 38.6153C67.2681 38.6028 67.2681 38.5903 67.2673 38.5778C67.2673 38.4059 67.2512 38.234 67.2416 38.0605C67.2416 38.0511 67.2416 38.0402 67.2416 38.0293C67.2416 37.9464 67.2304 37.8652 67.2239 37.7823C67.2175 37.6656 67.2095 37.5484 67.1999 37.4307C67.1999 37.3432 67.1854 37.2572 67.179 37.1697L67.155 36.8884C67.155 36.8696 67.155 36.8524 67.155 36.8337L67.1261 36.5398L67.0924 36.2273C67.0812 36.1304 67.0699 36.0335 67.0571 35.935L67.0282 35.6865C67.0282 35.6677 67.0282 35.6474 67.0202 35.6271L66.9673 35.252C66.956 35.1692 66.9448 35.0848 66.932 35.002C66.9111 34.8644 66.8903 34.7269 66.8678 34.5894C66.8566 34.5268 66.8485 34.4628 66.8373 34.4003C66.8381 34.394 66.8381 34.3877 66.8373 34.3815C66.8004 34.1611 66.7619 33.9408 66.7202 33.722L66.6865 33.5438C66.6544 33.3875 66.6239 33.2234 66.5903 33.064C66.5903 33.0374 66.5806 33.0109 66.5742 32.9859C66.5678 32.9608 66.5566 32.9015 66.5469 32.8593C66.5068 32.6686 66.4635 32.4779 66.4202 32.2888C66.4058 32.2232 66.3913 32.1591 66.3753 32.0934C66.3175 31.8512 66.2598 31.609 66.1972 31.3698V31.3495C66.1764 31.2682 66.1539 31.1932 66.1314 31.1041L66.0464 30.7916L65.9694 30.5196C65.9389 30.4165 65.91 30.3133 65.8796 30.2071C65.8491 30.1008 65.825 30.0258 65.7978 29.9351C65.7705 29.8445 65.7368 29.7304 65.7047 29.6225C65.6726 29.5147 65.647 29.4412 65.6165 29.3522C65.586 29.2631 65.5523 29.149 65.5186 29.049C65.5186 29.0365 65.5186 29.024 65.5074 29.0115C65.4865 28.9521 65.4657 28.8927 65.4464 28.8333C65.4031 28.7067 65.3598 28.5801 65.3149 28.4535C65.2876 28.3738 65.2587 28.2972 65.2298 28.2144C65.1881 28.0972 65.1448 27.98 65.1015 27.8627C65.071 27.7815 65.0405 27.6986 65.0084 27.6174L64.8785 27.2782L64.779 27.0297C64.7357 26.9188 64.6908 26.8078 64.6443 26.6984C64.6106 26.6156 64.5769 26.5421 64.5416 26.4515C64.4951 26.3421 64.4485 26.2311 64.4004 26.1217C64.3651 26.042 64.3314 25.9654 64.2961 25.881C64.2464 25.77 64.1967 25.6591 64.1453 25.5481L64.0411 25.3184C63.9865 25.2012 63.9304 25.0855 63.8806 24.9698C63.8469 24.9011 63.8149 24.8323 63.7828 24.7635L63.5806 24.3572C63.5582 24.315 63.5389 24.2712 63.5165 24.229V24.2165C63.417 24.0212 63.3159 23.8289 63.2133 23.6367C63.1844 23.5804 63.1539 23.5273 63.125 23.4726C63.0496 23.3335 62.9758 23.196 62.8988 23.06L62.7865 22.86C62.7143 22.7334 62.6405 22.6068 62.5667 22.4817C62.5299 22.4177 62.4929 22.3536 62.4544 22.2895C62.3689 22.1478 62.2822 22.0056 62.1945 21.8628L62.1336 21.7597L62.1208 21.7425C61.97 21.4987 61.8143 21.2596 61.6587 21.022C61.6282 20.9783 61.5994 20.9345 61.5705 20.8907C61.4165 20.6594 61.2598 20.4318 61.1004 20.2078L61.0667 20.1577L60.9994 20.0687C60.8887 19.9124 60.7764 19.7561 60.6625 19.6076L60.5662 19.4779C60.425 19.2919 60.2839 19.1091 60.1395 18.9293L60.1154 18.8965L60.0304 18.7934C59.9373 18.6767 59.8427 18.561 59.7464 18.4464C59.7015 18.3901 59.655 18.3354 59.6085 18.2807C59.517 18.1729 59.4256 18.0666 59.3325 17.9603L59.2459 17.8587L59.1946 17.8025L58.9427 17.5227L58.8079 17.3743C58.6988 17.257 58.5882 17.1398 58.4775 17.0242C58.4582 17.0054 58.4389 16.9851 58.4213 16.9648C58.2946 16.8319 58.1662 16.7038 58.0363 16.5756L57.9432 16.485L57.6464 16.1974L57.6272 16.1802L57.4395 16.0067L57.2678 15.8505C57.1972 15.7848 57.1251 15.7223 57.0529 15.6598L56.8924 15.5035L56.8812 15.4941C56.7673 15.3957 56.6534 15.2988 56.5379 15.2034L56.5122 15.1815C56.3871 15.0784 56.2619 14.9784 56.1368 14.8783H56.1256L56.0245 14.7986L55.7422 14.5814L55.5962 14.4736C55.532 14.4267 55.4694 14.3782 55.4037 14.3329L55.3523 14.2954C55.3026 14.261 55.2529 14.2266 55.2047 14.1907L54.9641 14.025L54.8037 13.9187L54.6834 13.8375L54.5662 13.7624L54.4058 13.6624L54.1572 13.5061L54.0112 13.4171L53.955 13.3827L53.716 13.2436L53.6165 13.1873C53.4914 13.1154 53.3646 13.0451 53.2379 12.9779L53.2203 12.9685L53.1272 12.9201C53.0245 12.8654 52.9219 12.8138 52.8192 12.7638C52.7727 12.7388 52.7245 12.7169 52.6764 12.6934L52.516 12.6106L52.4197 12.5668L52.2593 12.495L52.001 12.3793L51.8406 12.3137L51.7652 12.2808L51.563 12.1996L51.4283 12.1449C51.2967 12.0933 51.1636 12.0448 51.032 11.9964H51.0144C50.8748 11.9479 50.7352 11.8995 50.5941 11.8542L50.4593 11.812L50.2299 11.7401L50.1834 11.7276C50.0117 11.676 49.8401 11.6291 49.6684 11.5854C49.5866 11.5635 49.508 11.5432 49.4213 11.5244L49.3492 11.5088L49.1229 11.4588L48.9401 11.4197C48.8631 11.4041 48.7796 11.39 48.7107 11.3775L48.5422 11.3447L48.4957 11.3369L48.2085 11.2931L48.0754 11.2728C47.9374 11.254 47.7978 11.2368 47.6599 11.2228H47.6294C47.4962 11.2087 47.3647 11.1978 47.2331 11.1884L47.0919 11.1806L46.8064 11.1665H46.7406H46.6636C46.5417 11.1665 46.4214 11.1665 46.301 11.1665H46.1855C46.0331 11.1665 45.8807 11.1743 45.7283 11.1821H45.7058H45.6529C45.4925 11.1915 45.3321 11.204 45.1716 11.2196L45.0738 11.2306C44.9037 11.2478 44.7353 11.2712 44.5668 11.2962H44.5251L44.4449 11.3103L44.124 11.3681L43.9973 11.3931C43.8545 11.4228 43.7117 11.4541 43.5706 11.4885L36.1909 13.303C36.3321 13.2686 36.4749 13.2373 36.6177 13.2092L36.7444 13.1842C36.8503 13.1623 36.9578 13.1435 37.0652 13.1264L37.1888 13.106C37.3492 13.0795 37.5257 13.0576 37.6957 13.0388L37.792 13.0295C37.9524 13.0138 38.1128 12.9998 38.2733 12.9904H38.3487C38.5091 12.9904 38.6535 12.9763 38.8075 12.9748H38.9214C39.0417 12.9748 39.162 12.9748 39.284 12.9748H39.4267C39.523 12.9748 39.6176 12.9826 39.7139 12.9888L39.8535 12.9966L40.2497 13.0295H40.2802C40.4182 13.0435 40.5577 13.0607 40.6973 13.0795L40.8289 13.0998C40.9251 13.1123 41.0214 13.1279 41.1176 13.1435L41.2925 13.1748L41.5219 13.2186L41.7048 13.2561L41.9326 13.3061L42.2535 13.3827C42.4267 13.4264 42.5984 13.4749 42.7684 13.5249L43.046 13.6108L43.1807 13.653C43.3203 13.6984 43.4615 13.7453 43.601 13.7953H43.6187C43.7519 13.8422 43.8834 13.8922 44.015 13.9516L44.1497 14.0063C44.2428 14.0422 44.3358 14.0813 44.4288 14.1203L44.5893 14.186L44.8492 14.3016L45.0096 14.3735C45.0978 14.4142 45.1845 14.4564 45.2727 14.5001L45.4139 14.5689C45.5182 14.6205 45.6208 14.6736 45.7235 14.7252L45.8149 14.7736C45.9481 14.844 46.0812 14.9158 46.2128 14.9909L46.3107 15.0487C46.4101 15.105 46.508 15.1628 46.6059 15.2206L46.7518 15.3113L47.0021 15.4675L47.1625 15.566L47.4032 15.7223L47.5636 15.827L47.8042 15.9942L47.9518 16.0974L48.1973 16.2787L48.3417 16.385C48.4379 16.4568 48.5326 16.5303 48.6272 16.6038L48.7251 16.6803C48.855 16.7819 48.9834 16.8866 49.1117 16.9929L49.1438 17.0195C49.2609 17.1164 49.3764 17.2148 49.4935 17.3149L49.654 17.4602C49.7278 17.5259 49.8016 17.5884 49.8738 17.6556L50.0342 17.8119L50.2427 18.0057C50.3422 18.0994 50.44 18.1948 50.5379 18.2917C50.57 18.3214 50.6021 18.3511 50.6326 18.3823C50.762 18.5105 50.8903 18.6402 51.0176 18.7715C51.0401 18.7934 51.0609 18.8184 51.0834 18.8402C51.1903 18.9548 51.2973 19.0705 51.4042 19.1872C51.4507 19.2356 51.4941 19.2857 51.539 19.3357C51.624 19.4279 51.709 19.5217 51.7925 19.6154L51.9288 19.7717C52.0219 19.878 52.1133 19.9858 52.2047 20.0937L52.3443 20.25C52.439 20.364 52.5336 20.4813 52.6267 20.5969L52.7374 20.7329C52.8807 20.9142 53.0224 21.097 53.1625 21.2815L53.2604 21.4127L53.5973 21.8722L53.6967 22.0113C53.855 22.2364 54.0117 22.4646 54.1668 22.6959C54.1973 22.7396 54.2261 22.7834 54.255 22.8271C54.4122 23.0647 54.5668 23.3043 54.7186 23.5461C54.7427 23.5867 54.7668 23.6273 54.7924 23.668C54.8791 23.8086 54.9657 23.9508 55.0507 24.0946L55.163 24.2853C55.2368 24.4119 55.3106 24.5385 55.3828 24.6651L55.4951 24.8651C55.5721 25.0011 55.6555 25.1386 55.7213 25.2762L55.8112 25.4403C55.9181 25.632 56.0192 25.8258 56.1144 26.0217C56.1368 26.0686 56.1593 26.1154 56.1833 26.1608C56.2507 26.2967 56.3197 26.4311 56.3855 26.5687C56.4192 26.6359 56.4513 26.7046 56.4833 26.7734C56.5395 26.8906 56.594 27.0063 56.6438 27.1235C56.6791 27.2001 56.7144 27.2798 56.7481 27.3532C56.7994 27.4626 56.8491 27.5736 56.8988 27.6861L57.0047 27.9268C57.0513 28.0362 57.0994 28.1456 57.1443 28.255L57.2486 28.5035C57.2935 28.6129 57.3384 28.7223 57.3817 28.8333C57.4154 28.9161 57.4491 29.0005 57.4812 29.0833C57.5261 29.1959 57.5694 29.3084 57.6112 29.4209C57.6432 29.5022 57.6737 29.585 57.7042 29.6679C57.7475 29.7835 57.7908 29.9007 57.8325 30.0179L57.9192 30.2571L58.0491 30.6368C58.0732 30.7087 58.0988 30.7806 58.1229 30.8541C58.1566 30.9541 58.1871 31.0557 58.2208 31.1557L58.3074 31.4277C58.3395 31.5292 58.37 31.6324 58.402 31.7402C58.4341 31.8481 58.4566 31.9184 58.4823 32.0091C58.5079 32.0997 58.5432 32.2169 58.5721 32.3216C58.601 32.4263 58.625 32.5014 58.6491 32.592C58.6732 32.6827 58.7069 32.803 58.7341 32.9046C58.7614 33.0062 58.7823 33.0812 58.8047 33.1687C58.8673 33.4094 58.9266 33.6501 58.9828 33.8923C58.9988 33.958 59.0133 34.0236 59.0293 34.0892C59.0726 34.2784 59.1144 34.469 59.1545 34.6597C59.1689 34.7269 59.1849 34.7957 59.1978 34.8629C59.2315 35.0192 59.2635 35.1833 59.294 35.3442C59.3053 35.4036 59.3181 35.463 59.3293 35.5224C59.3694 35.7412 59.4079 35.9616 59.4448 36.1819C59.4577 36.2507 59.4673 36.3195 59.4785 36.3882C59.501 36.5258 59.5234 36.6649 59.5443 36.8024L59.578 37.0509C59.5972 37.1759 59.6149 37.3025 59.6309 37.4276C59.6438 37.5291 59.6566 37.6323 59.6678 37.7401C59.6791 37.848 59.6935 37.9355 59.7031 38.0339C59.7127 38.1324 59.7256 38.2418 59.7368 38.3465C59.748 38.4512 59.7577 38.5419 59.7673 38.6388L59.7962 38.9764C59.7962 39.0639 59.8106 39.1498 59.8186 39.2358L59.8427 39.5874C59.8427 39.6703 59.8539 39.7531 59.8587 39.8359C59.8694 40.0183 59.879 40.2011 59.8876 40.3845C59.8868 40.3965 59.8868 40.4085 59.8876 40.4205C59.8876 40.6158 59.902 40.8096 59.9069 41.0034C59.9117 41.1972 59.9069 41.4332 59.9069 41.6473C59.9069 41.8614 59.9069 42.0865 59.9069 42.3069C59.9069 42.5007 59.9069 42.6945 59.8924 42.8867C59.8924 43.0289 59.8828 43.1696 59.8764 43.3102C59.8668 43.4962 59.8571 43.6822 59.8443 43.8666C59.8347 44.0057 59.8267 44.1432 59.8154 44.2808C59.801 44.4621 59.7833 44.6434 59.7657 44.8231C59.7528 44.9575 59.74 45.0903 59.7256 45.2232C59.7047 45.4076 59.6807 45.5905 59.6566 45.7733C59.6406 45.8968 59.6261 46.0218 59.6085 46.1453C59.5796 46.3406 59.5475 46.5313 59.5154 46.7235C59.4978 46.8314 59.4817 46.9408 59.4625 47.0471C59.4133 47.3263 59.3598 47.6029 59.302 47.877C59.302 47.8957 59.302 47.916 59.2908 47.9363C59.2283 48.2302 59.1593 48.5193 59.0871 48.8053C59.0678 48.8866 59.0438 48.9616 59.0229 49.0444C58.9668 49.257 58.9106 49.4695 58.8496 49.6774C58.8192 49.7805 58.7871 49.8821 58.7566 49.99C58.6989 50.176 58.6411 50.3604 58.5801 50.5432C58.5192 50.7261 58.463 50.8902 58.402 51.0605C58.3924 51.0855 58.3844 51.109 58.3764 51.134C58.2962 51.3512 58.216 51.5653 58.1293 51.7763C58.1069 51.831 58.086 51.8842 58.0635 51.9326C57.9801 52.1358 57.8935 52.339 57.8053 52.5375L57.7908 52.5703C57.6962 52.7797 57.5983 52.9844 57.4988 53.1861L57.417 53.3502C57.3432 53.4986 57.2662 53.6455 57.1876 53.7893C57.1523 53.8565 57.117 53.9237 57.0801 53.9909C56.9871 54.1597 56.8924 54.3254 56.7946 54.4895L56.7416 54.5801C56.6197 54.7885 56.494 54.9886 56.3646 55.1803C56.3422 55.2162 56.3181 55.2491 56.294 55.285C56.1865 55.4413 56.0791 55.5976 55.9732 55.7539L55.9299 55.8117C55.8128 55.968 55.6924 56.1352 55.5689 56.2915L55.5208 56.3556C55.3924 56.5119 55.2641 56.6681 55.1325 56.8244L55.0523 56.9166C54.9176 57.0729 54.7796 57.2292 54.64 57.3746C54.6355 57.378 54.6317 57.3822 54.6288 57.3871C54.4876 57.5355 54.3449 57.6793 54.2005 57.82L54.0737 57.9403C53.963 58.045 53.8491 58.1498 53.7352 58.2529L53.6149 58.3607C53.4641 58.4899 53.3117 58.6165 53.1577 58.7405L53.0903 58.7921C52.9555 58.8968 52.8208 59 52.6828 59.1047L52.5401 59.2063C52.4149 59.2938 52.2866 59.3797 52.1582 59.4641L52.0459 59.5376C51.8855 59.6407 51.7251 59.7408 51.5502 59.8361C51.5117 59.858 51.4732 59.8767 51.4363 59.8986C51.3016 59.9721 51.1668 60.044 51.0304 60.1143L50.87 60.1909C50.724 60.2628 50.5764 60.3315 50.4256 60.3972L50.3422 60.4347C50.1673 60.5097 49.9893 60.58 49.8112 60.6472L49.6668 60.6988C49.5288 60.7473 49.3893 60.7941 49.2497 60.8395L49.0893 60.8879C48.9048 60.9442 48.7187 60.9958 48.5326 61.0442L55.9122 59.2281C56.0999 59.1828 56.2844 59.1297 56.4689 59.0719L56.6293 59.0218C56.7689 58.9781 56.9069 58.9312 57.0448 58.8812C57.093 58.864 57.1427 58.8484 57.1908 58.8296C57.3689 58.764 57.547 58.6936 57.7218 58.6171C57.7507 58.6061 57.778 58.592 57.8053 58.5795C57.9545 58.5139 58.1021 58.4451 58.2496 58.3732L58.4101 58.2967C58.5459 58.2279 58.6807 58.156 58.8144 58.081C58.8529 58.0607 58.8914 58.0404 58.9283 58.0185C59.0887 57.9231 59.2603 57.8247 59.424 57.7215L59.5379 57.6465C59.6662 57.5637 59.793 57.4777 59.9197 57.3886L60.0625 57.287C60.1988 57.1886 60.3352 57.087 60.4683 56.9823L60.5373 56.9291C60.6978 56.8072 60.8438 56.6806 60.993 56.5494C61.0347 56.515 61.0748 56.4775 61.1149 56.4415C61.2288 56.3399 61.3427 56.2368 61.4534 56.129L61.5785 56.0086C61.7245 55.868 61.8673 55.7242 62.0069 55.5757L62.0197 55.5632C62.1288 55.446 62.2379 55.3272 62.3405 55.2069L62.4272 55.1053C62.4545 55.0756 62.4801 55.0443 62.5058 55.0146C62.6373 54.8583 62.7673 54.702 62.894 54.5458C62.9117 54.5254 62.9277 54.5036 62.9437 54.4832C63.0657 54.327 63.186 54.1707 63.3047 54.0019L63.348 53.944C63.348 53.9347 63.3625 53.9253 63.3689 53.9144C63.4732 53.769 63.5742 53.619 63.6753 53.4674L63.7459 53.3642C63.871 53.1735 63.9946 52.9782 64.1133 52.7797L64.1229 52.7641L64.1758 52.6719C64.2721 52.5156 64.3683 52.3421 64.4614 52.1733C64.4983 52.1077 64.5336 52.0405 64.5689 51.9733C64.6042 51.9061 64.6571 51.817 64.6988 51.731C64.7405 51.6451 64.7646 51.5997 64.7983 51.5325L64.8801 51.3762C64.978 51.1762 65.0742 50.9746 65.1673 50.7698C65.1673 50.7698 65.1673 50.7698 65.1673 50.7605L65.1817 50.7276C65.2715 50.5292 65.3566 50.326 65.4416 50.1212L65.5058 49.965C65.5266 49.9149 65.5475 49.8665 65.5667 49.8087C65.6309 49.6524 65.6935 49.4805 65.7528 49.3132C65.7625 49.2898 65.7705 49.2648 65.7801 49.2413C65.8234 49.1163 65.8683 48.9929 65.9117 48.8678C65.9277 48.8209 65.9421 48.7709 65.9582 48.7225C66.0175 48.5412 66.0769 48.3568 66.133 48.1708C66.1555 48.0989 66.1796 48.0286 66.202 47.9567C66.21 47.9254 66.2181 47.8941 66.2277 47.8629C66.2887 47.655 66.3448 47.444 66.4009 47.2299C66.4186 47.1627 66.4395 47.0971 66.4555 47.0299L66.4651 46.9924C66.5373 46.7048 66.6047 46.4157 66.6689 46.1218C66.6689 46.1047 66.6689 46.0859 66.6801 46.0671C66.7379 45.7942 66.7913 45.517 66.8405 45.2357C66.8405 45.2216 66.8405 45.2076 66.8485 45.1919C66.8646 45.0997 66.8774 45.0059 66.8935 44.9122C66.9256 44.7215 66.9576 44.5293 66.9849 44.3355C66.9849 44.3089 66.9945 44.2823 66.9977 44.2558C67.0122 44.1589 67.0218 44.0604 67.0346 43.9619C67.0587 43.7791 67.0828 43.5978 67.1036 43.4134C67.1036 43.3743 67.1133 43.3368 67.1181 43.2993C67.1277 43.2039 67.1341 43.1071 67.1437 43.0133C67.1614 42.832 67.179 42.6523 67.1935 42.4694C67.1935 42.4194 67.2031 42.3709 67.2063 42.3131C67.2063 42.2256 67.2159 42.1365 67.2223 42.049C67.2336 41.8646 67.2448 41.6801 67.2544 41.4926C67.2544 41.4285 67.2544 41.366 67.2656 41.3019C67.2769 41.2378 67.2656 41.1456 67.2656 41.0706C67.2721 40.8789 67.2769 40.6851 67.2801 40.4892C67.2801 40.4111 67.2801 40.3329 67.2801 40.2548C67.2801 40.1141 67.2801 39.9719 67.2801 39.8297C67.2961 39.6328 67.2913 39.4124 67.2865 39.1983Z" fill="#FFBD36" stroke="black"/>
<path d="M43.1215 12.7627C52.8279 15.2451 60.7753 28.0003 60.8368 41.1955C60.8984 54.3906 53.053 63.105 43.345 60.6211C33.6371 58.1371 25.6913 45.385 25.6298 32.1899C25.5682 18.9948 33.4152 10.2787 43.1215 12.7627Z" fill="#FFBD36" stroke="black"/>
<path d="M43.2209 15.995C51.225 18.1198 57.7786 29.0378 57.8294 40.3323C57.8801 51.6268 51.4106 59.0861 43.4052 56.9599C35.3998 54.8337 28.8474 43.9184 28.7967 32.6239C28.7459 21.3294 35.2168 13.8688 43.2209 15.995Z" fill="#FFBD36" stroke="black"/>
<path d="M42.6255 27.2446C44.2796 27.7034 45.634 30.0604 45.6445 32.4987C45.655 34.937 44.318 36.5474 42.6636 36.0884C41.0092 35.6293 39.6551 33.2729 39.6446 30.8346C39.6341 28.3963 40.9714 26.7856 42.6255 27.2446Z" fill="#E2931C" stroke="black"/>
<path d="M28.4788 56.1662L28.4863 56.1597C28.5423 56.1108 28.5964 56.0601 28.6487 56.0076C28.6527 56.0045 28.6564 56.0013 28.66 55.9977C28.7116 55.9527 28.7589 55.9028 28.8085 55.8544C28.8113 55.8519 28.8146 55.8491 28.8179 55.8462C28.8427 55.8245 28.8642 55.7998 28.8873 55.7762C28.9207 55.7436 28.9538 55.7105 28.9866 55.6767C29.0128 55.6538 29.0349 55.6269 29.0594 55.602L29.1376 55.5211C29.1432 55.5161 29.1484 55.5116 29.154 55.5067L29.2346 55.421L29.3196 55.3289C29.3457 55.3002 29.3718 55.2714 29.398 55.2417L29.465 55.1679C29.4707 55.163 29.4768 55.1576 29.4808 55.1499L29.5794 55.0357C29.6014 55.0106 29.6237 54.9851 29.6452 54.9595C29.681 54.9172 29.7169 54.8749 29.7522 54.8321C29.7681 54.8123 29.7852 54.7931 29.801 54.7733C29.8031 54.7719 29.805 54.7703 29.8066 54.7684C29.8631 54.6996 29.9191 54.6302 29.9739 54.5603L30.0185 54.5035C30.057 54.4529 30.0983 54.4007 30.1373 54.3488C30.1452 54.3418 30.1507 54.332 30.1565 54.3235C30.1623 54.315 30.1772 54.2961 30.1874 54.2821C30.2341 54.2201 30.2799 54.1571 30.3253 54.0945C30.3412 54.073 30.3567 54.0518 30.3722 54.0298C30.4297 53.949 30.4873 53.8681 30.5427 53.7866L30.5488 53.7813C30.5677 53.7537 30.5843 53.7273 30.6052 53.6972L30.6767 53.5897L30.7381 53.4953C30.7611 53.4591 30.7844 53.4234 30.8083 53.3864C30.8323 53.3494 30.8485 53.3225 30.8685 53.2905C30.8886 53.2586 30.914 53.2186 30.9379 53.1807C30.9619 53.1428 30.9772 53.1158 30.9959 53.0833C31.0147 53.0508 31.0401 53.0107 31.0613 52.9744C31.065 52.9711 31.0688 52.9679 31.0696 52.9612C31.0819 52.9394 31.0943 52.9175 31.1071 52.8962C31.1337 52.85 31.1603 52.8038 31.1866 52.7571C31.2033 52.728 31.2187 52.6993 31.236 52.6689C31.2603 52.6257 31.2841 52.5819 31.3079 52.5382C31.3243 52.5077 31.3412 52.4769 31.3572 52.4459L31.4249 52.318L31.4734 52.223C31.4953 52.1809 31.5168 52.1383 31.5375 52.0957C31.5535 52.0638 31.5667 52.0345 31.5847 52.0001C31.6053 51.9575 31.6264 51.9144 31.6466 51.8713C31.6613 51.8398 31.6754 51.8096 31.6915 51.7769C31.7118 51.7328 31.732 51.6888 31.7519 51.6443L31.7935 51.5528C31.8144 51.5057 31.8343 51.4585 31.856 51.4133C31.8678 51.3851 31.8801 51.3574 31.8923 51.3298L31.9612 51.1626C31.968 51.1448 31.9761 51.1275 31.9829 51.1097L31.9866 51.1064C32.0192 51.0254 32.0504 50.9446 32.0811 50.8634C32.0904 50.84 32.0984 50.8169 32.1072 50.7939C32.1292 50.7348 32.1511 50.6766 32.1718 50.6178L32.2024 50.5317C32.2214 50.4768 32.2401 50.4215 32.2582 50.3665C32.2678 50.3387 32.2774 50.3108 32.2865 50.2824C32.3066 50.2196 32.3265 50.1563 32.3464 50.0925L32.3614 50.0472L32.3632 50.0388C32.3968 49.9297 32.4278 49.8203 32.4582 49.7113C32.4634 49.6906 32.469 49.6705 32.4745 49.6504C32.5036 49.5435 32.5308 49.4368 32.5562 49.3302L32.5624 49.307L32.5715 49.2634C32.5894 49.1892 32.6068 49.1145 32.6215 49.0414L32.6352 48.9785C32.654 48.8874 32.6719 48.797 32.688 48.7066L32.6915 48.6908L32.7002 48.6382C32.7108 48.5797 32.7207 48.5209 32.7298 48.462C32.7349 48.4338 32.7392 48.4055 32.7434 48.3772C32.7518 48.3214 32.7597 48.2661 32.7672 48.2103L32.775 48.1577L32.7784 48.1275L32.7963 47.9786L32.8055 47.8992C32.8121 47.8357 32.8183 47.7718 32.8239 47.7082C32.8245 47.6975 32.8256 47.6864 32.827 47.6758C32.8337 47.6029 32.8385 47.5308 32.8429 47.4582L32.8457 47.4065L32.8542 47.242L32.8543 47.2318L32.8571 47.1299L32.859 47.0374C32.8602 46.999 32.8601 46.961 32.8599 46.9229L32.8647 46.8338L32.8646 46.828C32.8643 46.768 32.8635 46.7084 32.8618 46.6487L32.8617 46.6353C32.8598 46.5707 32.857 46.5069 32.8542 46.4431L32.8513 46.4397L32.8487 46.3885L32.8399 46.2468L32.8339 46.1747C32.8312 46.1432 32.8293 46.1117 32.8257 46.0801L32.8235 46.0548C32.8208 46.0309 32.818 46.0069 32.8162 45.9831L32.8028 45.8674L32.7927 45.7914L32.7855 45.734L32.7773 45.6792L32.7653 45.6048L32.747 45.4892L32.7354 45.422L32.731 45.3961L32.7101 45.2879L32.7009 45.2433C32.6897 45.1869 32.6775 45.1304 32.6645 45.0748L32.6627 45.067L32.6528 45.0264C32.6423 44.9812 32.6309 44.9369 32.6189 44.893C32.6143 44.8724 32.6082 44.8523 32.6026 44.8317L32.5854 44.7618L32.5733 44.7214L32.5528 44.6544L32.5198 44.5466L32.4974 44.4812L32.4875 44.45L32.4589 44.368L32.44 44.3132C32.421 44.2602 32.4006 44.2076 32.3806 44.1554L32.376 44.1501C32.354 44.0955 32.3319 44.0409 32.3085 43.9867L32.2858 43.9351L32.2472 43.8474L32.2388 43.8302C32.2093 43.7652 32.1783 43.7013 32.1465 43.6384C32.1316 43.6081 32.1171 43.5791 32.1 43.5482L32.0857 43.5225L32.0414 43.4415L32.0052 43.3763C31.9897 43.3491 31.972 43.3204 31.9577 43.2964L31.9234 43.2372L31.9135 43.2212L31.8514 43.1236L31.8226 43.0783C31.792 43.032 31.7606 42.9856 31.7286 42.9405L31.7206 42.9313C31.6899 42.8877 31.6587 42.8453 31.627 42.8034L31.5924 42.759L31.5217 42.6696L31.5045 42.6498L31.4843 42.6267C31.4523 42.5901 31.4208 42.554 31.3892 42.5179L31.3589 42.4832C31.319 42.4375 31.2767 42.3938 31.2344 42.3501L31.2285 42.3434L31.2146 42.3275C31.1697 42.2818 31.1239 42.2369 31.0771 42.1929L31.0482 42.1664C30.9984 42.1199 30.9472 42.0754 30.8956 42.0314L30.8846 42.0189L30.8594 41.9985L30.7579 41.9174L30.7172 41.8859C30.6708 41.8509 30.624 41.8162 30.5766 41.7829L28.0971 40.0438C28.1444 40.0772 28.1912 40.1118 28.2371 40.1473L28.2779 40.1788C28.3122 40.2048 28.346 40.2322 28.3793 40.2599L28.4178 40.2917C28.4679 40.3329 28.5207 40.3801 28.5709 40.4262L28.599 40.4526C28.6457 40.4967 28.692 40.5411 28.7369 40.5868L28.7567 40.6095C28.7987 40.6576 28.8408 40.6973 28.8817 40.7431L28.9115 40.7773C28.9431 40.8134 28.9746 40.8495 29.0066 40.8861L29.044 40.9289C29.0693 40.9578 29.0917 40.9883 29.1151 41.0188L29.1494 41.0627L29.2434 41.1903L29.2514 41.1994C29.2834 41.2445 29.3148 41.2909 29.3458 41.3377L29.3742 41.3825C29.3956 41.4147 29.4162 41.4477 29.4367 41.4806L29.4732 41.5413L29.5202 41.6217L29.5569 41.6864L29.6017 41.7679L29.6628 41.8842C29.6951 41.9477 29.7256 42.0119 29.7551 42.0761L29.8021 42.1819L29.8248 42.2334C29.8478 42.2872 29.8707 42.3419 29.8923 42.3969L29.8969 42.4022C29.9178 42.4544 29.9373 42.507 29.9539 42.5621L29.9729 42.6168C29.9865 42.6542 29.9991 42.6924 30.0118 42.7305L30.0342 42.7959L30.0676 42.9042L30.0881 42.9712C30.099 43.0084 30.1091 43.0454 30.1191 43.0834L30.1355 43.1438C30.1473 43.1886 30.1583 43.2333 30.1698 43.2777L30.1792 43.3178C30.193 43.3762 30.2063 43.435 30.2183 43.4942L30.2266 43.5387C30.2358 43.5833 30.2441 43.6279 30.2524 43.6724L30.2635 43.74L30.2822 43.8561L30.2947 43.93L30.3109 44.0432L30.3216 44.1188L30.3345 44.2349L30.3422 44.3063L30.3521 44.4275L30.3581 44.4987C30.3618 44.5464 30.3646 44.5941 30.3673 44.6417L30.37 44.6912C30.3736 44.7568 30.3758 44.8228 30.3776 44.8892L30.378 44.9058C30.3796 44.9663 30.3804 45.0268 30.3811 45.0882L30.3795 45.1744C30.3791 45.2138 30.3797 45.2523 30.3785 45.2916L30.3737 45.3808L30.3702 45.4942C30.3681 45.5486 30.3652 45.603 30.3617 45.6577C30.3612 45.6752 30.3607 45.6926 30.3594 45.7099C30.3548 45.7824 30.3495 45.8549 30.3435 45.9275C30.3428 45.94 30.3408 45.9528 30.3401 45.9653C30.3338 46.0274 30.3271 46.0899 30.3201 46.1526C30.3178 46.1792 30.3141 46.2053 30.3109 46.2319C30.3055 46.2816 30.2997 46.3317 30.2934 46.3814L30.2822 46.4633C30.2747 46.5191 30.2664 46.5748 30.258 46.6305L30.2477 46.7134C30.2382 46.7717 30.2279 46.8308 30.2176 46.8891L30.2058 46.958C30.189 47.0485 30.1712 47.139 30.1526 47.2294L30.1389 47.2932L30.0893 47.5148L30.0737 47.5811C30.0476 47.6876 30.0202 47.7945 29.9915 47.9017C29.9863 47.9223 29.9808 47.9424 29.9752 47.9626C29.9451 48.072 29.9137 48.1813 29.881 48.2902C29.8751 48.3081 29.8692 48.326 29.8638 48.3443C29.8443 48.4072 29.8243 48.4705 29.8034 48.5337L29.7757 48.6174C29.757 48.6728 29.7384 48.7281 29.7193 48.783L29.6887 48.8691C29.6681 48.9279 29.6487 48.989 29.6247 49.0448L29.599 49.1148C29.5695 49.1971 29.5378 49.2783 29.504 49.3582C29.4958 49.3773 29.4876 49.3963 29.4803 49.4154C29.4572 49.4713 29.4349 49.5272 29.4109 49.583C29.3996 49.6107 29.3873 49.6384 29.3751 49.6661C29.3547 49.7137 29.3342 49.7604 29.3121 49.806C29.2984 49.8367 29.2837 49.8682 29.2705 49.8975C29.2511 49.9416 29.2309 49.9857 29.2101 50.0301L29.1657 50.125C29.145 50.1676 29.1248 50.2108 29.1038 50.2529L29.0565 50.3494C29.0355 50.3915 29.0144 50.4337 28.9925 50.4758C28.9764 50.5076 28.9599 50.5399 28.9435 50.5712C28.9215 50.6142 28.8991 50.6567 28.8763 50.6987C28.8603 50.7297 28.8434 50.7605 28.8265 50.7914C28.8032 50.8347 28.7794 50.8785 28.7551 50.9217L28.7061 51.0104L28.6262 51.149C28.6109 51.1751 28.5961 51.2016 28.5803 51.2281C28.5591 51.2645 28.5366 51.3002 28.5154 51.3366L28.4566 51.4339C28.4345 51.4701 28.4115 51.5063 28.3876 51.5442C28.3636 51.5822 28.3484 51.6073 28.3279 51.6388C28.3074 51.6703 28.2815 51.7116 28.2577 51.7477C28.2338 51.7839 28.2176 51.8107 28.1967 51.8417C28.1758 51.8727 28.1485 51.9144 28.1252 51.9492C28.1019 51.984 28.0848 52.01 28.0644 52.0397C28.0086 52.1215 27.9519 52.2025 27.8939 52.2828C27.8785 52.3049 27.8625 52.3264 27.847 52.3484C27.8016 52.411 27.7554 52.4735 27.7087 52.5356C27.6923 52.5575 27.6758 52.5804 27.659 52.6018C27.621 52.6529 27.5801 52.7056 27.5398 52.7569C27.5249 52.7759 27.5105 52.7953 27.4956 52.8143C27.4404 52.8837 27.3844 52.953 27.3279 53.0219C27.3107 53.0437 27.2925 53.0647 27.2749 53.0861C27.2395 53.1289 27.2036 53.1721 27.1678 53.2144L27.1021 53.2897C27.0696 53.3282 27.0362 53.3667 27.0029 53.4043C26.9758 53.4348 26.9482 53.4657 26.9188 53.4973C26.8893 53.529 26.8669 53.5563 26.8398 53.585C26.8128 53.6137 26.7833 53.6462 26.7549 53.677C26.7264 53.7079 26.7017 53.7345 26.6751 53.7628L26.5814 53.86C26.5551 53.883 26.5331 53.9098 26.5094 53.9348L26.4102 54.0342C26.3853 54.0559 26.3634 54.081 26.3398 54.1042C26.2879 54.1552 26.2355 54.206 26.1827 54.2567C26.1789 54.2596 26.1753 54.2627 26.172 54.2661C26.1133 54.3173 26.0589 54.3725 26.002 54.4247C25.9451 54.477 25.8731 54.5374 25.8088 54.5936C25.7445 54.6497 25.677 54.7087 25.6109 54.7665C25.5527 54.8173 25.4945 54.8681 25.4331 54.9142C25.3904 54.9515 25.3456 54.9855 25.3017 55.0205C25.2434 55.0663 25.185 55.1122 25.1263 55.1567C25.0821 55.1903 25.0387 55.2239 24.9945 55.2566C24.9363 55.2998 24.8772 55.3421 24.8187 55.3839C24.775 55.4153 24.7317 55.4463 24.6881 55.4768C24.6272 55.5189 24.5661 55.5596 24.5049 55.6003C24.4636 55.6279 24.4223 55.6563 24.3806 55.6834C24.3144 55.726 24.2488 55.7663 24.1827 55.8071C24.1457 55.8301 24.1086 55.854 24.0717 55.8761C23.975 55.9345 23.8779 55.991 23.7806 56.0455C23.7749 56.0504 23.7688 56.0558 23.7598 56.0577C23.6552 56.116 23.5503 56.1711 23.4456 56.2244C23.4161 56.2399 23.3873 56.2524 23.357 56.2678C23.2785 56.3067 23.2 56.3456 23.1216 56.3818C23.0826 56.3997 23.0437 56.4167 23.0034 56.4359C22.9324 56.4673 22.8619 56.4983 22.7911 56.528C22.7202 56.5576 22.6562 56.5838 22.5891 56.6102C22.5791 56.6138 22.5699 56.6176 22.5603 56.6217C22.4741 56.6546 22.3888 56.6867 22.3028 56.716C22.2805 56.7236 22.2591 56.7313 22.2386 56.7372C22.1558 56.7655 22.0721 56.7927 21.9894 56.8183L21.9757 56.8226C21.8881 56.8491 21.801 56.8734 21.7144 56.8964L21.6437 56.9149C21.5798 56.9317 21.5155 56.9471 21.4517 56.9612C21.4223 56.9682 21.3929 56.9752 21.363 56.9818C21.288 56.9981 21.2134 57.0131 21.1385 57.0268L21.0974 57.0347C21.0029 57.0527 20.9099 57.0675 20.8185 57.0789C20.8018 57.0816 20.7856 57.083 20.7685 57.0852C20.6934 57.0939 20.6183 57.1026 20.5437 57.1118L20.515 57.114C20.4374 57.1198 20.3556 57.1276 20.2763 57.1315L20.2445 57.1338C20.1639 57.1363 20.0834 57.1387 20.002 57.1402L19.9533 57.1403C19.871 57.1409 19.7879 57.1405 19.7077 57.1367C19.7055 57.1362 19.7032 57.1362 19.701 57.1366C19.6194 57.1331 19.5389 57.128 19.4588 57.1215L19.3894 57.1151C19.329 57.1093 19.2677 57.1026 19.2069 57.0954L19.1429 57.0876C19.0646 57.0762 18.9867 57.0637 18.9091 57.05L18.8759 57.0433C18.8092 57.0303 18.7429 57.0169 18.6753 57.0029L18.6074 56.9867C18.5483 56.9721 18.4888 56.9561 18.4298 56.9397L18.3784 56.9253C18.3053 56.9042 18.2332 56.8823 18.1588 56.8548C18.1421 56.849 18.1264 56.8423 18.1102 56.837C18.0528 56.8158 17.9959 56.7942 17.939 56.7717L17.874 56.7437C17.8141 56.7187 17.7548 56.6924 17.6955 56.6644L17.6624 56.6492C17.594 56.6164 17.5262 56.5814 17.4594 56.5455L17.406 56.5157C17.3553 56.487 17.3046 56.4574 17.2544 56.4274L17.1978 56.392C17.1326 56.3514 17.0683 56.309 17.005 56.2659L19.485 58.0045C19.5478 58.0489 19.6121 58.0904 19.6779 58.1306L19.7349 58.1656C19.7847 58.196 19.8349 58.2252 19.8861 58.2534C19.9039 58.2634 19.9216 58.2742 19.9399 58.2837C20.0063 58.32 20.0741 58.355 20.1429 58.3874C20.1537 58.3932 20.1651 58.3977 20.176 58.4026C20.2348 58.4301 20.2942 58.4564 20.3545 58.4819L20.4195 58.5099C20.4758 58.5327 20.5327 58.5543 20.5902 58.5747C20.6064 58.5809 20.6226 58.5872 20.6389 58.5925C20.7095 58.6156 20.7841 58.6413 20.858 58.6634L20.9103 58.6779C20.9689 58.6947 21.0279 58.7102 21.0879 58.7249L21.1558 58.7411C21.2211 58.7562 21.2873 58.7705 21.3537 58.783L21.3877 58.7898C21.4664 58.806 21.5426 58.8166 21.6211 58.8269C21.6424 58.8304 21.6642 58.8327 21.6855 58.8353C21.7458 58.8428 21.8067 58.8499 21.8681 58.8549L21.937 58.8609C22.0175 58.8678 22.0981 58.873 22.1792 58.8759L22.1863 58.8765C22.2501 58.8785 22.3144 58.8801 22.3774 58.8794L22.4306 58.8787C22.4467 58.8791 22.4628 58.8786 22.4784 58.8786C22.5598 58.8771 22.6408 58.8751 22.7209 58.8721C22.7317 58.8721 22.7424 58.8712 22.7527 58.8707C22.8316 58.8663 22.9101 58.8614 22.9919 58.8528L23.0206 58.8506C23.0234 58.8482 23.03 58.85 23.035 58.8491C23.1059 58.8423 23.1774 58.8333 23.2494 58.8239L23.2989 58.818C23.389 58.8056 23.48 58.7914 23.5707 58.775L23.5779 58.7738L23.6194 58.7655C23.6916 58.7534 23.7689 58.7368 23.8439 58.7205C23.8733 58.7143 23.9027 58.7073 23.9322 58.7003C23.9616 58.6932 24.0022 58.6858 24.0389 58.6758C24.0757 58.6657 24.0956 58.6611 24.1246 58.6536L24.193 58.6371C24.2786 58.6141 24.3644 58.5901 24.4502 58.5643C24.4502 58.5643 24.4502 58.5643 24.4531 58.5619L24.4667 58.5576C24.5498 58.5325 24.6331 58.5048 24.7168 58.4766L24.7806 58.4549C24.801 58.448 24.821 58.4416 24.8435 58.4322C24.9072 58.4105 24.9752 58.3842 25.0409 58.3581C25.0505 58.3549 25.0601 58.3507 25.0697 58.3475C25.1185 58.3277 25.1674 58.3088 25.2163 58.289C25.2345 58.2815 25.2533 58.2727 25.2721 58.2649C25.3421 58.2351 25.413 58.2046 25.4835 58.1727C25.511 58.1606 25.5384 58.1493 25.5659 58.1372C25.5773 58.1314 25.5888 58.1257 25.6007 58.1204C25.6791 58.0841 25.7571 58.0457 25.8361 58.0064C25.8609 57.9941 25.8861 57.9831 25.9105 57.9703L25.9242 57.9634C26.0295 57.9096 26.1339 57.854 26.2389 57.7962C26.2441 57.7917 26.2497 57.7868 26.2583 57.7853C26.3554 57.731 26.4526 57.6744 26.5499 57.6154C26.5541 57.6117 26.5583 57.608 26.5651 57.6063C26.597 57.587 26.6285 57.5662 26.6609 57.5465C26.7265 57.5061 26.7926 57.4653 26.8579 57.4227C26.8659 57.4157 26.8764 57.4117 26.8852 57.4057C26.9181 57.3846 26.9502 57.3617 26.9831 57.3397C27.0443 57.299 27.105 57.2586 27.1658 57.2165C27.1775 57.2063 27.1913 57.1994 27.2038 57.191C27.235 57.1689 27.2657 57.1454 27.2964 57.1237C27.3554 57.0814 27.414 57.0396 27.4727 56.996C27.4877 56.9829 27.5047 56.9731 27.5229 56.9589C27.5492 56.9359 27.5785 56.9154 27.6064 56.8944C27.6647 56.8494 27.723 56.8045 27.7818 56.7582C27.801 56.7414 27.8198 56.725 27.842 56.7115C27.8642 56.6981 27.8889 56.6706 27.9114 56.6509C27.9706 56.6026 28.03 56.5532 28.0897 56.5028C28.1131 56.4823 28.1366 56.4618 28.16 56.4413C28.2022 56.4044 28.2449 56.3671 28.2876 56.3299C28.3509 56.283 28.4158 56.2238 28.4788 56.1662Z" fill="#FFBD36" stroke="black"/>
<path d="M30.0768 41.982C31.8769 45.546 30.1326 51.2757 26.1886 54.754C22.2446 58.2323 17.5721 58.1628 15.7721 54.5979C13.9721 51.033 15.7159 45.3046 19.6599 41.8263C23.6039 38.348 28.2773 38.4176 30.0768 41.982Z" fill="#FFBD36" stroke="black"/>
<path d="M28.4322 43.4774C29.7261 46.0983 28.346 50.3757 25.3557 53.012C22.3654 55.6483 18.8804 55.6609 17.5865 53.0393C16.2926 50.4177 17.6723 46.1413 20.6626 43.505C23.6529 40.8687 27.1386 40.8561 28.4322 43.4774Z" fill="#FFBD36" stroke="black"/>
<path d="M68.0796 58.1326L68.073 58.1288C68.0235 58.1002 67.9751 58.0699 67.9278 58.0381C67.9244 58.0364 67.9211 58.0345 67.9179 58.0323C67.8722 58.006 67.8291 57.9753 67.7845 57.9461C67.782 57.9447 67.7791 57.943 67.7762 57.9414C67.7542 57.9286 67.7343 57.9132 67.7133 57.8988C67.6833 57.8792 67.6534 57.8591 67.6237 57.8384C67.6004 57.825 67.5798 57.808 67.5576 57.7929L67.4866 57.7433C67.4816 57.7404 67.477 57.7378 67.4721 57.7349L67.3985 57.6822L67.3207 57.6253C67.2967 57.6074 67.2727 57.5896 67.2485 57.5711L67.187 57.5253C67.182 57.5224 67.1766 57.5193 67.1724 57.514L67.081 57.4424C67.0607 57.4267 67.04 57.4108 67.02 57.3947C66.9867 57.368 66.9534 57.3414 66.9203 57.3143C66.9054 57.3018 66.8897 57.2898 66.8748 57.2772C66.873 57.2765 66.8713 57.2755 66.8698 57.2744C66.817 57.2308 66.7644 57.1867 66.7127 57.1421L66.6706 57.1058C66.634 57.0733 66.5951 57.04 66.5579 57.0066C66.5509 57.0026 66.5453 56.9959 66.5397 56.9904C66.534 56.9848 66.52 56.9727 66.5102 56.9637C66.4658 56.9238 66.4218 56.8831 66.3782 56.8425C66.363 56.8286 66.3482 56.815 66.3333 56.8007C66.2778 56.7482 66.2224 56.6957 66.1685 56.6424L66.1631 56.6392C66.1447 56.6212 66.1282 56.6038 66.108 56.5841L66.0381 56.5136L65.9777 56.4514C65.955 56.4275 65.9321 56.404 65.9085 56.3796C65.885 56.3552 65.8688 56.3373 65.8489 56.3162C65.829 56.295 65.8039 56.2686 65.7802 56.2435C65.7565 56.2185 65.7409 56.2004 65.7219 56.1786C65.703 56.1569 65.6778 56.1304 65.6565 56.1061C65.6531 56.1042 65.6498 56.1023 65.6482 56.0974C65.6357 56.0827 65.6231 56.0681 65.6103 56.0539C65.5833 56.0229 65.5563 55.992 65.5296 55.9607C65.5127 55.9412 65.4968 55.9218 65.4792 55.9014C65.4545 55.8724 65.43 55.8429 65.4055 55.8134C65.3886 55.7928 65.3713 55.772 65.3547 55.751L65.2846 55.6645L65.2339 55.6C65.211 55.5714 65.1885 55.5425 65.1666 55.5134C65.1498 55.4917 65.1354 55.4715 65.1168 55.4482C65.0949 55.4191 65.0725 55.3897 65.0509 55.3601C65.0351 55.3385 65.02 55.3178 65.003 55.2955C64.9812 55.2653 64.9593 55.2351 64.9377 55.2044L64.8928 55.1415C64.87 55.109 64.8479 55.0764 64.8248 55.0454C64.8118 55.0259 64.7984 55.0069 64.7851 54.9878L64.7082 54.8718C64.7005 54.8594 64.6918 54.8475 64.6841 54.8351L64.6807 54.8332C64.6441 54.7768 64.6086 54.7205 64.5733 54.6637C64.5628 54.6474 64.5534 54.6312 64.5433 54.6151C64.5179 54.5738 64.4927 54.5331 64.4685 54.4918L64.4326 54.4313C64.41 54.3927 64.3878 54.3537 64.3659 54.3149C64.3545 54.2953 64.3432 54.2756 64.3321 54.2556C64.3076 54.2111 64.2831 54.1663 64.2587 54.1211L64.2407 54.0891L64.2381 54.0831C64.1965 54.0056 64.1569 53.9276 64.1177 53.8499C64.1107 53.835 64.1036 53.8207 64.0964 53.8063C64.0586 53.7299 64.0222 53.6534 63.9872 53.5767L63.9791 53.5601L63.9657 53.5285C63.9412 53.4752 63.917 53.4214 63.895 53.3684L63.8754 53.3229C63.8477 53.2569 63.8208 53.1914 63.7952 53.1255L63.7902 53.114L63.7758 53.0756C63.7591 53.033 63.743 52.9902 63.7273 52.947C63.7193 52.9265 63.7119 52.9057 63.7045 52.885C63.6899 52.8441 63.6757 52.8036 63.6618 52.7626L63.6481 52.724L63.641 52.7017L63.6054 52.5919L63.5867 52.5334C63.5723 52.4864 63.5581 52.4391 63.5444 52.3919C63.5424 52.3839 63.54 52.3757 63.5373 52.3679C63.5215 52.3139 63.5071 52.2601 63.493 52.206L63.4833 52.1674L63.4524 52.0445L63.4508 52.0367L63.4336 51.9603L63.4184 51.8907C63.4118 51.8619 63.4063 51.8331 63.4008 51.8044L63.3839 51.7378L63.3831 51.7334C63.3745 51.6881 63.3662 51.6429 63.3586 51.5977L63.3568 51.5875C63.3486 51.5384 63.3412 51.4899 63.3339 51.4413L63.3356 51.4383L63.3299 51.3993L63.3156 51.291L63.3094 51.2357C63.3068 51.2114 63.3035 51.1874 63.3016 51.163L63.2995 51.1436C63.298 51.1251 63.2965 51.1066 63.2943 51.0884L63.2873 50.999L63.2837 50.9402L63.2805 50.8957L63.2786 50.8531L63.2767 50.7952L63.2733 50.7052L63.2721 50.6528L63.2716 50.6326L63.2713 50.5478L63.2716 50.5128C63.2717 50.4685 63.2725 50.4241 63.2741 50.3801L63.2743 50.374L63.2757 50.3419C63.277 50.3062 63.279 50.271 63.2815 50.2361C63.282 50.2199 63.2836 50.2038 63.2847 50.1874L63.2874 50.1321L63.2905 50.0999L63.296 50.0462L63.305 49.9599L63.3122 49.9073L63.315 49.8822L63.3245 49.8161L63.3306 49.7719C63.3371 49.7291 63.3447 49.6863 63.352 49.6439L63.3547 49.6392C63.3632 49.5948 63.3718 49.5503 63.3814 49.5058L63.3909 49.4636L63.407 49.3917L63.4108 49.3774C63.4235 49.3239 63.4374 49.2711 63.4521 49.2188C63.4588 49.1938 63.4655 49.1698 63.4738 49.1439L63.4807 49.1223L63.5022 49.0546L63.5199 49.0001C63.5275 48.9772 63.5366 48.9529 63.5438 48.9327L63.561 48.8829L63.566 48.8694L63.5985 48.7864L63.6135 48.748C63.6297 48.7085 63.6466 48.6688 63.664 48.63L63.6687 48.6219C63.6854 48.5844 63.7026 48.5478 63.7203 48.5114L63.7399 48.4727L63.78 48.3948L63.7901 48.3773L63.8019 48.3569C63.8206 48.3245 63.8391 48.2926 63.8575 48.2606L63.8753 48.23C63.8986 48.1895 63.9241 48.1502 63.9496 48.111L63.953 48.105L63.9611 48.091C63.9882 48.0498 64.0162 48.0091 64.0449 47.9689L64.0628 47.9446C64.0935 47.9021 64.1256 47.861 64.158 47.8201L64.1644 47.809L64.1805 47.7899L64.2451 47.7136L64.2711 47.6838C64.3009 47.6504 64.3311 47.6173 64.3619 47.5851L65.9759 45.9044C65.9451 45.9366 65.9149 45.9697 65.8855 46.0033L65.8594 46.0331C65.8374 46.0579 65.8159 46.0835 65.7948 46.1094L65.7705 46.1391C65.7388 46.1776 65.7059 46.2211 65.6749 46.2634L65.6576 46.2875C65.6289 46.3277 65.6005 46.3681 65.5734 46.4092L65.5618 46.4293C65.5372 46.4719 65.5113 46.508 65.4873 46.5487L65.4698 46.5789C65.4514 46.6109 65.4329 46.6428 65.4142 46.6752L65.3923 46.7131C65.3775 46.7386 65.3651 46.765 65.352 46.7915L65.3326 46.8297L65.2805 46.94L65.2759 46.948C65.2584 46.9868 65.2416 47.0265 65.2251 47.0664L65.2104 47.1045C65.1989 47.132 65.1883 47.1599 65.1777 47.1879L65.1591 47.2391L65.1356 47.3067L65.1175 47.361L65.0958 47.4292L65.0669 47.5261C65.0519 47.5788 65.0384 47.6318 65.0256 47.6846L65.0059 47.7715L64.9964 47.8137C64.987 47.8578 64.9778 47.9024 64.9697 47.9471L64.967 47.9518C64.959 47.9944 64.9521 48.037 64.9476 48.081L64.9415 48.1252C64.9368 48.1554 64.9329 48.1861 64.929 48.2168L64.9218 48.2695L64.9126 48.3562L64.9071 48.4098C64.9043 48.4395 64.9022 48.4689 64.9003 48.4991L64.8969 48.5471C64.8946 48.5827 64.893 48.6181 64.8909 48.6533L64.8897 48.685C64.888 48.7311 64.8866 48.7775 64.8864 48.824L64.8867 48.8588C64.8864 48.8938 64.8867 48.9287 64.887 48.9635L64.8887 49.0162L64.8918 49.1066L64.8933 49.1643L64.8979 49.2522L64.9011 49.3108L64.9086 49.4004L64.9133 49.4554L64.9238 49.5484L64.9298 49.603C64.9341 49.6396 64.9391 49.676 64.9441 49.7124L64.9494 49.7501C64.9565 49.8002 64.9646 49.8503 64.9731 49.9007L64.9752 49.9133C64.983 49.9593 64.9914 50.005 65 50.0515L65.0139 50.1164C65.0201 50.146 65.0253 50.1752 65.0321 50.2047L65.049 50.2713L65.0684 50.3564C65.0781 50.3972 65.0884 50.4378 65.0991 50.4786C65.102 50.4917 65.105 50.5048 65.1086 50.5176C65.1228 50.5717 65.1375 50.6256 65.1528 50.6796C65.1552 50.6889 65.1586 50.6983 65.161 50.7076C65.175 50.7536 65.1893 50.7997 65.2039 50.846C65.2096 50.8658 65.2162 50.885 65.2226 50.9046C65.2341 50.9413 65.2459 50.9782 65.258 51.0148L65.2786 51.0749C65.2925 51.116 65.3071 51.1568 65.3217 51.1976L65.3418 51.2586C65.3576 51.3013 65.3742 51.3444 65.3906 51.3868L65.4097 51.4371C65.4358 51.5029 65.4626 51.5686 65.4901 51.6341L65.5099 51.6802L65.5802 51.8402L65.6019 51.8879C65.6374 51.9645 65.6739 52.0411 65.7115 52.1177C65.7185 52.1325 65.7256 52.1469 65.7328 52.1613C65.7718 52.2395 65.8117 52.3173 65.8526 52.3947C65.8596 52.4073 65.8667 52.4199 65.8736 52.433C65.8976 52.4775 65.9221 52.5224 65.9472 52.567L65.9806 52.6261C66.0029 52.6651 66.0252 52.7041 66.0477 52.7427L66.0836 52.8032C66.1079 52.8445 66.1316 52.8877 66.158 52.9263L66.1878 52.9753C66.2223 53.0331 66.2582 53.0897 66.2956 53.145C66.3046 53.1582 66.3136 53.1713 66.322 53.1847C66.3477 53.2234 66.3728 53.2624 66.3993 53.3009C66.4119 53.3202 66.4253 53.3393 66.4386 53.3583C66.4611 53.3912 66.4834 53.4234 66.5069 53.4546C66.5218 53.4757 66.5376 53.4973 66.5519 53.5176C66.5731 53.548 66.5949 53.5782 66.6172 53.6087L66.6648 53.6737C66.6867 53.7028 66.7084 53.7324 66.7305 53.7611L66.7805 53.8269C66.8026 53.8556 66.8248 53.8843 66.8476 53.9129C66.8644 53.9345 66.8817 53.9564 66.8987 53.9776C66.9217 54.0068 66.9449 54.0356 66.9684 54.0639C66.9851 54.0849 67.0024 54.1057 67.0197 54.1265C67.0438 54.1558 67.0682 54.1852 67.0929 54.2143L67.1431 54.274L67.224 54.3668C67.2394 54.3842 67.2546 54.402 67.2704 54.4197C67.2918 54.444 67.3141 54.4676 67.3354 54.4919L67.3943 54.5567C67.4164 54.5808 67.4391 54.6047 67.4628 54.6297C67.4865 54.6548 67.5017 54.6716 67.5219 54.6923C67.542 54.713 67.5677 54.7404 67.5911 54.7641C67.6144 54.7878 67.6306 54.8057 67.651 54.826C67.6714 54.8463 67.6982 54.8737 67.721 54.8965C67.7437 54.9194 67.7605 54.9364 67.7802 54.9558C67.8345 55.0093 67.8893 55.062 67.945 55.1141C67.96 55.1284 67.9752 55.1423 67.9902 55.1567C68.0337 55.1972 68.0779 55.2375 68.1224 55.2774C68.138 55.2916 68.1538 55.3064 68.1697 55.3201C68.206 55.353 68.2447 55.3867 68.2827 55.4195C68.2968 55.4316 68.3106 55.4441 68.3246 55.4562C68.3765 55.5004 68.4291 55.5444 68.482 55.588C68.4983 55.602 68.5151 55.6151 68.5316 55.6286C68.5646 55.6557 68.5981 55.683 68.6314 55.7096L68.6922 55.7567C68.7225 55.781 68.7534 55.8051 68.7841 55.8286C68.8091 55.8476 68.8345 55.8668 68.8614 55.8863C68.8883 55.9058 68.9094 55.9231 68.934 55.9408C68.9587 55.9584 68.9858 55.9786 69.0118 55.9977C69.0379 56.0167 69.0605 56.0332 69.0848 56.0506L69.1699 56.1101C69.1932 56.1235 69.2138 56.1405 69.2354 56.1558L69.325 56.2162C69.347 56.2289 69.3673 56.2446 69.3885 56.2586C69.4353 56.2894 69.4824 56.32 69.5297 56.3504C69.533 56.352 69.5362 56.3538 69.5393 56.3559C69.5912 56.3859 69.6404 56.4194 69.6911 56.4504C69.7418 56.4815 69.8052 56.5164 69.862 56.5492C69.9189 56.5821 69.9786 56.6166 70.0371 56.6504C70.0886 56.6802 70.14 56.7099 70.1933 56.7356C70.231 56.7574 70.2699 56.7764 70.3082 56.7963C70.359 56.8223 70.4099 56.8482 70.4608 56.8731C70.4992 56.8919 70.537 56.9109 70.5752 56.929C70.6255 56.953 70.6764 56.9761 70.7268 56.999C70.7645 57.0162 70.8017 57.0332 70.8392 57.0497C70.8913 57.0725 70.9436 57.0942 70.9958 57.1158C71.031 57.1305 71.0664 57.1459 71.1019 57.1601C71.1582 57.1824 71.2138 57.2032 71.2697 57.2242C71.3011 57.236 71.3326 57.2485 71.3637 57.2597C71.4454 57.2895 71.5271 57.3178 71.6087 57.3445C71.6136 57.3473 71.619 57.3505 71.6262 57.3506C71.7138 57.3791 71.8011 57.4051 71.8881 57.4298C71.9126 57.4372 71.9362 57.4423 71.9614 57.4495C72.0265 57.4672 72.0915 57.4849 72.1561 57.5006C72.1881 57.5083 72.22 57.5154 72.2533 57.5239C72.3116 57.5371 72.3694 57.55 72.4273 57.5619C72.4852 57.5738 72.5373 57.584 72.5919 57.594C72.6 57.5953 72.6075 57.5967 72.6154 57.5984C72.6853 57.6105 72.7545 57.622 72.8238 57.6314C72.8418 57.6338 72.8591 57.6365 72.8754 57.6379C72.9421 57.6469 73.0093 57.6551 73.0756 57.6622L73.0865 57.6634C73.1566 57.6704 73.226 57.6758 73.2948 57.6803L73.3509 57.6838C73.4016 57.687 73.4525 57.6891 73.5027 57.6903C73.5259 57.6912 73.5492 57.6921 73.5727 57.6926C73.6318 57.6938 73.6903 57.6941 73.7489 57.6933L73.7811 57.6932C73.8551 57.6928 73.9275 57.6901 73.9982 57.6852C74.0112 57.6847 74.0236 57.6834 74.0369 57.6825C74.0948 57.6779 74.1528 57.6734 74.2106 57.6693L74.2326 57.6666C74.292 57.6595 74.3549 57.6532 74.4153 57.6444L74.4397 57.6415C74.5009 57.6314 74.5621 57.6213 74.6237 57.6103L74.6605 57.6032C74.7227 57.5914 74.7854 57.5787 74.8454 57.564C74.847 57.5633 74.8487 57.5629 74.8504 57.5629C74.9115 57.5482 74.9716 57.5324 75.031 57.5156L75.0824 57.5005C75.1272 57.4871 75.1725 57.473 75.2174 57.4585L75.2645 57.4431C75.3219 57.4229 75.3789 57.4019 75.4354 57.38L75.4595 57.3701C75.5079 57.3503 75.556 57.3304 75.605 57.3098L75.6538 57.2875C75.6963 57.2677 75.7388 57.2468 75.7809 57.2257L75.8176 57.2072C75.8696 57.1804 75.9208 57.1532 75.9729 57.1214C75.9846 57.1145 75.9955 57.1072 76.007 57.1007C76.0472 57.0762 76.0869 57.0515 76.1265 57.0261L76.1715 56.9952C76.2129 56.9675 76.2538 56.9389 76.2944 56.9089L76.3172 56.8925C76.3639 56.8576 76.4099 56.8211 76.4551 56.7842L76.4909 56.7537C76.5249 56.7245 76.5588 56.6947 76.5922 56.6646L76.6297 56.6294C76.673 56.5891 76.7152 56.5476 76.7566 56.5056L75.1423 58.1861C75.1014 58.229 75.059 58.2698 75.0154 58.3099L74.9775 58.3448C74.9444 58.3752 74.9108 58.4046 74.8764 58.4336C74.8644 58.4437 74.8526 58.4545 74.8403 58.4644C74.7955 58.5016 74.7495 58.5381 74.7024 58.5728C74.695 58.5788 74.6871 58.5838 74.6796 58.5892C74.6393 58.6187 74.5984 58.6473 74.5567 58.6755L74.5117 58.7063C74.4726 58.7318 74.4329 58.7566 74.3924 58.7806C74.3811 58.7877 74.3698 58.7948 74.3584 58.8012C74.3085 58.8292 74.256 58.8596 74.2035 58.8873L74.1661 58.906C74.1244 58.9274 74.0821 58.9478 74.0391 58.9678L73.9902 58.9901C73.9431 59.0112 73.8952 59.0318 73.847 59.0511L73.8223 59.0613C73.7653 59.0851 73.7093 59.1045 73.6516 59.1239C73.6361 59.1297 73.6199 59.1346 73.6042 59.1398C73.5598 59.1544 73.5149 59.1688 73.4693 59.1817L73.4182 59.1964C73.3584 59.2136 73.2984 59.2295 73.2375 59.2437L73.2322 59.2452C73.1844 59.2562 73.1361 59.2669 73.0884 59.2757L73.0482 59.2831C73.0361 59.2858 73.0238 59.2878 73.012 59.2901C72.9504 59.301 72.8889 59.3116 72.828 59.3212C72.8199 59.3228 72.8116 59.3237 72.8038 59.3248C72.7436 59.3332 72.6836 59.3412 72.6206 59.3468L72.5986 59.3494C72.5961 59.348 72.5914 59.3504 72.5875 59.3504C72.5329 59.3558 72.4776 59.3596 72.4218 59.3632L72.3836 59.3661C72.3138 59.3701 72.243 59.3729 72.1721 59.374L72.1665 59.3741L72.1338 59.374C72.0776 59.3756 72.0168 59.3745 71.9577 59.3733C71.9346 59.3731 71.9113 59.3721 71.8881 59.3712C71.8648 59.3702 71.833 59.3706 71.8038 59.3685C71.7746 59.3664 71.7589 59.3658 71.7359 59.3645L71.6818 59.3622C71.6137 59.3575 71.5454 59.3521 71.4768 59.3454C71.4768 59.3454 71.4768 59.3454 71.4743 59.344L71.4634 59.3428C71.3969 59.3362 71.3299 59.3276 71.2625 59.3187L71.2112 59.3118C71.1947 59.3096 71.1786 59.3077 71.1603 59.304C71.109 59.297 71.0538 59.2873 71.0003 59.2774C70.9926 59.2763 70.9847 59.2746 70.977 59.2736C70.9371 59.2659 70.8975 59.2589 70.8576 59.2512C70.8427 59.2483 70.8272 59.2444 70.8119 59.2413C70.7547 59.2292 70.6966 59.2167 70.6386 59.203C70.6161 59.198 70.5937 59.1936 70.5712 59.1885C70.5617 59.1858 70.5521 59.1832 70.5424 59.1809C70.4778 59.1652 70.4132 59.1477 70.3477 59.1298C70.3272 59.1242 70.3066 59.1196 70.2863 59.1136L70.2748 59.1104C70.1874 59.0854 70.1003 59.059 70.0125 59.0309C70.0079 59.0283 70.0029 59.0254 69.9962 59.0255C69.9149 58.999 69.8331 58.9706 69.7509 58.9405C69.7471 58.9384 69.7434 58.9362 69.738 58.9359C69.7111 58.9261 69.6842 58.9151 69.6569 58.905C69.6013 58.8842 69.5454 58.8632 69.4897 58.8407C69.4827 58.8367 69.4741 58.8352 69.4666 58.8319C69.4387 58.8209 69.411 58.8083 69.3829 58.7966C69.3307 58.775 69.2789 58.7535 69.2267 58.7308C69.2163 58.7248 69.2049 58.7216 69.1942 58.7171C69.1674 58.705 69.1407 58.6919 69.1143 58.68C69.0635 58.6569 69.0131 58.634 68.9623 58.6098C68.949 58.6021 68.9347 58.5973 68.9189 58.5892C68.8956 58.5758 68.8705 58.5647 68.8463 58.553C68.7956 58.5277 68.7449 58.5023 68.6937 58.4761C68.6766 58.4663 68.66 58.4567 68.6413 58.4499C68.6226 58.443 68.5998 58.4259 68.5799 58.4144C68.528 58.3867 68.4758 58.3582 68.4233 58.329C68.4026 58.317 68.3818 58.305 68.3611 58.293C68.3238 58.2714 68.286 58.2496 68.2482 58.2278C68.1935 58.2019 68.1357 58.1668 68.0796 58.1326Z" fill="#FFBD36" stroke="black"/>
<path d="M64.7688 47.6618C63.9386 50.6195 66.1055 54.6863 69.5991 56.7272C73.0927 58.768 76.6099 58.0222 77.4399 55.0639C78.2699 52.1055 76.1036 48.0396 72.61 45.9987C69.1165 43.9579 65.5986 44.7039 64.7688 47.6618Z" fill="#FFBD36" stroke="black"/>
<path d="M66.3934 48.6399C65.8251 50.7379 67.4455 53.661 70.0054 55.1559C72.5654 56.6507 75.1101 56.1602 75.6783 54.0617C76.2465 51.9633 74.6265 49.0408 72.0666 47.546C69.5067 46.0512 66.9615 46.5418 66.3934 48.6399Z" fill="#FFBD36" stroke="black"/>
<path d="M35.1662 39.4572C35.22 37.2854 36.8907 36.1988 38.8977 37.0302L46.4945 40.1769C48.5015 41.0082 50.0849 43.4427 50.0311 45.6144C49.9772 47.7861 48.3066 48.8727 46.2996 48.0414L38.7028 44.8947C36.6957 44.0633 35.1124 41.6289 35.1662 39.4572Z" fill="#E2931C" stroke="black"/>
</svg>
