<svg width="276" height="206" viewBox="0 0 276 206" fill="none" xmlns="http://www.w3.org/2000/svg">
<rect width="52.6444" height="169.378" rx="2.28889" transform="matrix(-1 0 0 1 163.011 18.3113)" fill="url(#paint0_linear_377_3111)"/>
<rect opacity="0.41" x="80.6113" y="91.5554" width="9.15556" height="43.4889" transform="rotate(-180 80.6113 91.5554)" fill="url(#paint1_linear_377_3111)"/>
<rect opacity="0.41" width="9.15556" height="34.3333" transform="matrix(-1 0 0 1 204.211 114.445)" fill="url(#paint2_linear_377_3111)"/>
<g filter="url(#filter0_i_377_3111)">
<rect x="87.478" y="82.3999" width="96.1333" height="64.0889" rx="6.86667" fill="white"/>
</g>
<rect x="87.478" y="82.3999" width="96.1333" height="64.0889" rx="6.86667" stroke="#595D61" stroke-width="1.71667"/>
<path d="M101.211 104.798C101.211 103.805 102.016 103 103.01 103H135.381C136.374 103 137.179 103.805 137.179 104.798C137.179 105.792 136.374 106.597 135.381 106.597H103.01C102.016 106.597 101.211 105.792 101.211 104.798Z" fill="#1F2224"/>
<path d="M101.211 115.589C101.211 114.596 102.016 113.791 103.01 113.791H122.792C123.785 113.791 124.591 114.596 124.591 115.589C124.591 116.582 123.785 117.388 122.792 117.388H103.01C102.016 117.388 101.211 116.582 101.211 115.589Z" fill="#1F2224"/>
<path d="M101.211 126.379C101.211 125.386 102.016 124.581 103.01 124.581H147.97C148.963 124.581 149.768 125.386 149.768 126.379C149.768 127.372 148.963 128.178 147.97 128.178H103.01C102.016 128.178 101.211 127.372 101.211 126.379Z" fill="#1F2224"/>
<path d="M160.191 120.144H164.952C164.366 115.09 172.387 114.43 172.387 109.084C172.387 104.213 168.505 101.723 163.194 101.723C159.276 101.723 156.053 103.517 153.709 106.227L156.712 108.974C158.507 107.106 160.338 106.081 162.572 106.081C165.465 106.081 167.223 107.326 167.223 109.56C167.223 113.112 159.422 114.394 160.191 120.144ZM162.608 129.922C164.44 129.922 165.831 128.567 165.831 126.662C165.831 124.758 164.44 123.44 162.608 123.44C160.741 123.44 159.349 124.758 159.349 126.662C159.349 128.567 160.704 129.922 162.608 129.922Z" fill="#1F2224"/>
<defs>
<filter id="filter0_i_377_3111" x="86.6196" y="81.5415" width="97.8501" height="65.8057" filterUnits="userSpaceOnUse" color-interpolation-filters="sRGB">
<feFlood flood-opacity="0" result="BackgroundImageFix"/>
<feBlend mode="normal" in="SourceGraphic" in2="BackgroundImageFix" result="shape"/>
<feColorMatrix in="SourceAlpha" type="matrix" values="0 0 0 0 0 0 0 0 0 0 0 0 0 0 0 0 0 0 127 0" result="hardAlpha"/>
<feOffset dx="4.57778" dy="6.86667"/>
<feComposite in2="hardAlpha" operator="arithmetic" k2="-1" k3="1"/>
<feColorMatrix type="matrix" values="0 0 0 0 0.879167 0 0 0 0 0.879167 0 0 0 0 0.879167 0 0 0 1 0"/>
<feBlend mode="normal" in2="shape" result="effect1_innerShadow_377_3111"/>
</filter>
<linearGradient id="paint0_linear_377_3111" x1="17.9215" y1="362.457" x2="20.1594" y2="8.54551" gradientUnits="userSpaceOnUse">
<stop offset="0.190594" stop-color="#F7A600"/>
<stop offset="1" stop-color="#F7A600" stop-opacity="0"/>
</linearGradient>
<linearGradient id="paint1_linear_377_3111" x1="83.7281" y1="184.619" x2="84.5764" y2="93.7538" gradientUnits="userSpaceOnUse">
<stop offset="0.190594" stop-color="#F7A600"/>
<stop offset="1" stop-color="#F7A600" stop-opacity="0"/>
</linearGradient>
<linearGradient id="paint2_linear_377_3111" x1="3.11679" y1="73.471" x2="3.64549" y2="1.73323" gradientUnits="userSpaceOnUse">
<stop offset="0.190594" stop-color="#F7A600"/>
<stop offset="1" stop-color="#F7A600" stop-opacity="0"/>
</linearGradient>
</defs>
</svg>
