<svg width="197" height="33" viewBox="0 0 197 33" fill="none" xmlns="http://www.w3.org/2000/svg">
<g clip-path="url(#clip0_1508_417477)">
<path d="M6.09911 19.4515V27H0.860107V4.41651H8.82711C10.4184 4.41651 11.7824 4.60768 12.9191 4.99001C14.0661 5.36201 15.0064 5.87868 15.7401 6.54001C16.4841 7.20134 17.0318 7.98151 17.3831 8.88051C17.7344 9.77951 17.9101 10.7508 17.9101 11.7945C17.9101 12.9208 17.7293 13.9542 17.3676 14.8945C17.0059 15.8348 16.4531 16.6408 15.7091 17.3125C14.9651 17.9842 14.0196 18.5112 12.8726 18.8935C11.7359 19.2655 10.3874 19.4515 8.82711 19.4515H6.09911ZM6.09911 15.499H8.82711C10.1911 15.499 11.1728 15.1735 11.7721 14.5225C12.3714 13.8715 12.6711 12.9622 12.6711 11.7945C12.6711 11.2778 12.5936 10.8077 12.4386 10.384C12.2836 9.96034 12.0459 9.59868 11.7256 9.29901C11.4156 8.98901 11.0178 8.75134 10.5321 8.58601C10.0568 8.42068 9.48844 8.33801 8.82711 8.33801H6.09911V15.499ZM20.6287 27V10.9265H23.4807C23.7183 10.9265 23.9147 10.9472 24.0697 10.9885C24.235 11.0298 24.3693 11.097 24.4727 11.19C24.5863 11.2727 24.669 11.3863 24.7207 11.531C24.7827 11.6757 24.8343 11.8513 24.8757 12.058L25.1392 13.5615C25.7282 12.6522 26.3895 11.934 27.1232 11.407C27.8568 10.88 28.6577 10.6165 29.5257 10.6165C30.2593 10.6165 30.8483 10.7922 31.2927 11.1435L30.6727 14.6775C30.6313 14.8945 30.5487 15.0495 30.4247 15.1425C30.3007 15.2252 30.1353 15.2665 29.9287 15.2665C29.753 15.2665 29.5463 15.2458 29.3087 15.2045C29.071 15.1528 28.7713 15.127 28.4097 15.127C27.149 15.127 26.157 15.7987 25.4337 17.142V27H20.6287ZM38.3943 10.9265V27H33.5893V10.9265H38.3943ZM38.9523 6.52451C38.9523 6.90684 38.8748 7.26851 38.7198 7.60951C38.5648 7.94018 38.353 8.23468 38.0843 8.49301C37.8157 8.74101 37.5005 8.94251 37.1388 9.09751C36.7875 9.24218 36.4103 9.31451 36.0073 9.31451C35.6147 9.31451 35.2478 9.24218 34.9068 9.09751C34.5658 8.94251 34.261 8.74101 33.9923 8.49301C33.734 8.23468 33.5273 7.94018 33.3723 7.60951C33.2277 7.26851 33.1553 6.90684 33.1553 6.52451C33.1553 6.13184 33.2277 5.76501 33.3723 5.42401C33.5273 5.08301 33.734 4.78334 33.9923 4.52501C34.261 4.26668 34.5658 4.06518 34.9068 3.92051C35.2478 3.77584 35.6147 3.70351 36.0073 3.70351C36.4103 3.70351 36.7875 3.77584 37.1388 3.92051C37.5005 4.06518 37.8157 4.26668 38.0843 4.52501C38.353 4.78334 38.5648 5.08301 38.7198 5.42401C38.8748 5.76501 38.9523 6.13184 38.9523 6.52451ZM42.2742 27V10.9265H45.2502C45.5498 10.9265 45.7978 10.9937 45.9942 11.128C46.2008 11.2623 46.3455 11.4638 46.4282 11.7325L46.6917 12.6005C46.9603 12.3215 47.2393 12.0683 47.5287 11.841C47.818 11.6033 48.128 11.4018 48.4587 11.2365C48.7997 11.0608 49.1613 10.9265 49.5437 10.8335C49.9363 10.7302 50.3652 10.6785 50.8302 10.6785C51.8015 10.6785 52.6023 10.9317 53.2327 11.438C53.8733 11.934 54.359 12.6005 54.6897 13.4375C54.9583 12.9415 55.2838 12.5178 55.6662 12.1665C56.0588 11.8152 56.4773 11.531 56.9217 11.314C57.3763 11.097 57.8517 10.9368 58.3477 10.8335C58.854 10.7302 59.3552 10.6785 59.8512 10.6785C60.7708 10.6785 61.5872 10.818 62.3002 11.097C63.0132 11.3657 63.6073 11.7635 64.0827 12.2905C64.5683 12.8072 64.9352 13.4478 65.1832 14.2125C65.4312 14.9668 65.5552 15.8245 65.5552 16.7855V27H60.7502V16.7855C60.7502 15.1218 60.0372 14.29 58.6112 14.29C57.9602 14.29 57.4177 14.507 56.9837 14.941C56.56 15.3647 56.3482 15.9795 56.3482 16.7855V27H51.5432V16.7855C51.5432 15.8658 51.3623 15.22 51.0007 14.848C50.639 14.476 50.1068 14.29 49.4042 14.29C48.9702 14.29 48.5568 14.3882 48.1642 14.5845C47.7818 14.7808 47.4202 15.0443 47.0792 15.375V27H42.2742ZM75.8573 10.6785C76.9217 10.6785 77.893 10.8438 78.7713 11.1745C79.66 11.5052 80.4195 11.9857 81.0498 12.616C81.6905 13.2463 82.1865 14.0213 82.5378 14.941C82.8995 15.8503 83.0803 16.8837 83.0803 18.041C83.0803 18.4027 83.0648 18.6972 83.0338 18.9245C83.0028 19.1518 82.946 19.3327 82.8633 19.467C82.7807 19.6013 82.667 19.6943 82.5223 19.746C82.388 19.7977 82.2123 19.8235 81.9953 19.8235H72.7263C72.8813 21.1668 73.2895 22.1433 73.9508 22.753C74.6122 23.3523 75.4647 23.652 76.5083 23.652C77.0663 23.652 77.5468 23.5848 77.9498 23.4505C78.3528 23.3162 78.7093 23.1663 79.0193 23.001C79.3397 22.8357 79.629 22.6858 79.8873 22.5515C80.156 22.4172 80.435 22.35 80.7243 22.35C81.1067 22.35 81.396 22.4895 81.5923 22.7685L82.9873 24.489C82.4913 25.0573 81.954 25.5223 81.3753 25.884C80.807 26.2353 80.218 26.5143 79.6083 26.721C79.009 26.9173 78.4045 27.0517 77.7948 27.124C77.1955 27.2067 76.622 27.248 76.0743 27.248C74.948 27.248 73.8888 27.0672 72.8968 26.7055C71.9152 26.3335 71.0523 25.7858 70.3083 25.0625C69.5747 24.3392 68.9908 23.4402 68.5568 22.3655C68.1332 21.2908 67.9213 20.0405 67.9213 18.6145C67.9213 17.5398 68.1022 16.522 68.4638 15.561C68.8358 14.6 69.3628 13.7578 70.0448 13.0345C70.7372 12.3112 71.569 11.7377 72.5403 11.314C73.522 10.8903 74.6277 10.6785 75.8573 10.6785ZM75.9503 13.9955C75.0307 13.9955 74.3125 14.259 73.7958 14.786C73.2792 15.3027 72.9382 16.0518 72.7728 17.0335H78.7713C78.7713 16.6512 78.7197 16.2792 78.6163 15.9175C78.5233 15.5558 78.3632 15.2355 78.1358 14.9565C77.9188 14.6672 77.6295 14.4347 77.2678 14.259C76.9062 14.0833 76.467 13.9955 75.9503 13.9955Z" fill="#15192A"/>
<path d="M112.704 18.692L107.527 10.9265H112.146C112.487 10.9265 112.735 10.973 112.89 11.066C113.055 11.1487 113.2 11.2933 113.324 11.5L116.192 16.2585C116.254 16.0725 116.331 15.8917 116.424 15.716C116.517 15.5403 116.62 15.3543 116.734 15.158L118.78 11.5775C118.914 11.3398 119.064 11.1745 119.23 11.0815C119.395 10.9782 119.596 10.9265 119.834 10.9265H124.236L119.059 18.475L124.453 27H119.834C119.493 27 119.219 26.9173 119.013 26.752C118.806 26.5867 118.635 26.3903 118.501 26.163L115.634 21.234C115.582 21.4097 115.52 21.575 115.448 21.73C115.375 21.885 115.298 22.0297 115.215 22.164L112.859 26.163C112.735 26.38 112.57 26.5763 112.363 26.752C112.156 26.9173 111.898 27 111.588 27H107.31L112.704 18.692ZM126.631 32.0995V10.9265H129.607C129.906 10.9265 130.154 10.9937 130.351 11.128C130.557 11.2623 130.702 11.4638 130.785 11.7325L131.141 12.9105C131.451 12.5695 131.782 12.2595 132.133 11.9805C132.495 11.7015 132.877 11.4638 133.28 11.2675C133.693 11.0608 134.133 10.9007 134.598 10.787C135.073 10.6733 135.59 10.6165 136.148 10.6165C136.985 10.6165 137.76 10.8025 138.473 11.1745C139.186 11.5465 139.8 12.0838 140.317 12.7865C140.834 13.4892 141.237 14.352 141.526 15.375C141.826 16.3877 141.976 17.5398 141.976 18.8315C141.976 20.0405 141.805 21.1565 141.464 22.1795C141.133 23.2025 140.663 24.0912 140.054 24.8455C139.454 25.5998 138.731 26.1888 137.884 26.6125C137.047 27.0362 136.117 27.248 135.094 27.248C134.257 27.248 133.554 27.1292 132.986 26.8915C132.417 26.6538 131.901 26.3335 131.436 25.9305V32.0995H126.631ZM134.474 14.29C134.122 14.29 133.802 14.3262 133.513 14.3985C133.234 14.4605 132.97 14.5535 132.722 14.6775C132.484 14.8015 132.262 14.9617 132.056 15.158C131.849 15.344 131.642 15.561 131.436 15.809V22.629C131.797 23.032 132.19 23.3162 132.614 23.4815C133.037 23.6365 133.482 23.714 133.947 23.714C134.391 23.714 134.799 23.6262 135.171 23.4505C135.543 23.2748 135.863 22.9958 136.132 22.6135C136.411 22.2208 136.628 21.7145 136.783 21.0945C136.938 20.4745 137.016 19.7202 137.016 18.8315C137.016 17.9842 136.954 17.2712 136.83 16.6925C136.706 16.1138 136.53 15.6488 136.303 15.2975C136.086 14.9358 135.822 14.6775 135.512 14.5225C135.202 14.3675 134.856 14.29 134.474 14.29ZM151.434 10.6785C152.499 10.6785 153.47 10.8438 154.348 11.1745C155.237 11.5052 155.997 11.9857 156.627 12.616C157.268 13.2463 157.764 14.0213 158.115 14.941C158.477 15.8503 158.657 16.8837 158.657 18.041C158.657 18.4027 158.642 18.6972 158.611 18.9245C158.58 19.1518 158.523 19.3327 158.44 19.467C158.358 19.6013 158.244 19.6943 158.099 19.746C157.965 19.7977 157.789 19.8235 157.572 19.8235H148.303C148.458 21.1668 148.867 22.1433 149.528 22.753C150.189 23.3523 151.042 23.652 152.085 23.652C152.643 23.652 153.124 23.5848 153.527 23.4505C153.93 23.3162 154.286 23.1663 154.596 23.001C154.917 22.8357 155.206 22.6858 155.464 22.5515C155.733 22.4172 156.012 22.35 156.301 22.35C156.684 22.35 156.973 22.4895 157.169 22.7685L158.564 24.489C158.068 25.0573 157.531 25.5223 156.952 25.884C156.384 26.2353 155.795 26.5143 155.185 26.721C154.586 26.9173 153.982 27.0517 153.372 27.124C152.773 27.2067 152.199 27.248 151.651 27.248C150.525 27.248 149.466 27.0672 148.474 26.7055C147.492 26.3335 146.629 25.7858 145.885 25.0625C145.152 24.3392 144.568 23.4402 144.134 22.3655C143.71 21.2908 143.498 20.0405 143.498 18.6145C143.498 17.5398 143.679 16.522 144.041 15.561C144.413 14.6 144.94 13.7578 145.622 13.0345C146.314 12.3112 147.146 11.7377 148.117 11.314C149.099 10.8903 150.205 10.6785 151.434 10.6785ZM151.527 13.9955C150.608 13.9955 149.89 14.259 149.373 14.786C148.856 15.3027 148.515 16.0518 148.35 17.0335H154.348C154.348 16.6512 154.297 16.2792 154.193 15.9175C154.1 15.5558 153.94 15.2355 153.713 14.9565C153.496 14.6672 153.207 14.4347 152.845 14.259C152.483 14.0833 152.044 13.9955 151.527 13.9955ZM161.415 27V10.9265H164.267C164.504 10.9265 164.701 10.9472 164.856 10.9885C165.021 11.0298 165.155 11.097 165.259 11.19C165.372 11.2727 165.455 11.3863 165.507 11.531C165.569 11.6757 165.62 11.8513 165.662 12.058L165.925 13.5615C166.514 12.6522 167.176 11.934 167.909 11.407C168.643 10.88 169.444 10.6165 170.312 10.6165C171.045 10.6165 171.634 10.7922 172.079 11.1435L171.459 14.6775C171.417 14.8945 171.335 15.0495 171.211 15.1425C171.087 15.2252 170.921 15.2665 170.715 15.2665C170.539 15.2665 170.332 15.2458 170.095 15.2045C169.857 15.1528 169.557 15.127 169.196 15.127C167.935 15.127 166.943 15.7987 166.22 17.142V27H161.415ZM179.18 10.9265V27H174.375V10.9265H179.18ZM179.738 6.52451C179.738 6.90684 179.661 7.26851 179.506 7.60951C179.351 7.94018 179.139 8.23468 178.87 8.49301C178.602 8.74101 178.287 8.94251 177.925 9.09751C177.574 9.24218 177.196 9.31451 176.793 9.31451C176.401 9.31451 176.034 9.24218 175.693 9.09751C175.352 8.94251 175.047 8.74101 174.778 8.49301C174.52 8.23468 174.313 7.94018 174.158 7.60951C174.014 7.26851 173.941 6.90684 173.941 6.52451C173.941 6.13184 174.014 5.76501 174.158 5.42401C174.313 5.08301 174.52 4.78334 174.778 4.52501C175.047 4.26668 175.352 4.06518 175.693 3.92051C176.034 3.77584 176.401 3.70351 176.793 3.70351C177.196 3.70351 177.574 3.77584 177.925 3.92051C178.287 4.06518 178.602 4.26668 178.87 4.52501C179.139 4.78334 179.351 5.08301 179.506 5.42401C179.661 5.76501 179.738 6.13184 179.738 6.52451ZM194.158 27C193.704 27 193.357 26.938 193.12 26.814C192.892 26.69 192.701 26.4317 192.546 26.039L192.205 25.1555C191.802 25.4965 191.415 25.7962 191.043 26.0545C190.671 26.3128 190.283 26.535 189.88 26.721C189.488 26.8967 189.064 27.0258 188.609 27.1085C188.165 27.2015 187.669 27.248 187.121 27.248C186.388 27.248 185.721 27.155 185.122 26.969C184.522 26.7727 184.011 26.4885 183.587 26.1165C183.174 25.7445 182.854 25.2847 182.626 24.737C182.399 24.179 182.285 23.5383 182.285 22.815C182.285 22.2467 182.43 21.6628 182.719 21.0635C183.009 20.4642 183.51 19.9217 184.223 19.436C184.936 18.94 185.897 18.5267 187.106 18.196C188.315 17.8653 189.839 17.6793 191.678 17.638V16.956C191.678 16.0157 191.482 15.3388 191.089 14.9255C190.707 14.5018 190.159 14.29 189.446 14.29C188.878 14.29 188.413 14.352 188.051 14.476C187.69 14.6 187.364 14.7395 187.075 14.8945C186.796 15.0495 186.522 15.189 186.253 15.313C185.985 15.437 185.664 15.499 185.292 15.499C184.962 15.499 184.677 15.4215 184.44 15.2665C184.212 15.1012 184.032 14.8997 183.897 14.662L183.029 13.1585C184.001 12.3008 185.075 11.6653 186.253 11.252C187.442 10.8283 188.713 10.6165 190.066 10.6165C191.038 10.6165 191.911 10.7767 192.686 11.097C193.471 11.407 194.132 11.8462 194.67 12.4145C195.217 12.9725 195.636 13.639 195.925 14.414C196.215 15.189 196.359 16.0363 196.359 16.956V27H194.158ZM188.64 24.0705C189.26 24.0705 189.803 23.962 190.268 23.745C190.733 23.528 191.203 23.1767 191.678 22.691V20.459C190.717 20.5003 189.927 20.583 189.307 20.707C188.687 20.831 188.196 20.986 187.834 21.172C187.473 21.358 187.219 21.5698 187.075 21.8075C186.94 22.0452 186.873 22.3035 186.873 22.5825C186.873 23.1302 187.023 23.5177 187.323 23.745C187.622 23.962 188.062 24.0705 188.64 24.0705Z" fill="#15192A"/>
<path d="M105.399 0.416504V4.4465H96.1301V9.7165H103.229V13.5915H96.1301V18.97H105.399V23H90.8601V0.416504H105.399Z" fill="#F7A600"/>
</g>
<defs>
<clipPath id="clip0_1508_417477">
<rect width="197" height="33" fill="white"/>
</clipPath>
</defs>
</svg>
